<?xml version="1.0" encoding="UTF-8"?><svg xmlns="http://www.w3.org/2000/svg" xmlns:xlink="http://www.w3.org/1999/xlink" viewBox="0 0 40.93 62.29"><defs><style>.j{fill:#fff;}.k{fill:#191956;}.l{clip-path:url(#h);}.m{fill:#ffd6a1;}.n{fill:#b70027;}.o{clip-path:url(#e);}.p{clip-path:url(#d);}.q{fill:#222272;}.r{fill:none;}.s{fill:#2d2d2d;}.t{clip-path:url(#f);}.u{fill:#141247;}.v{fill:#0c0a35;}.w{clip-path:url(#i);}.x{fill:#990028;}.y{clip-path:url(#g);}.a`{fill:#f70032;}</style><clipPath id="d"><path class="r" d="M13.11,20.46c-.56,.05-.83,.63-.95,1.18-.06,.27-.08,.55-.08,.82,0,.93,.19,1.88,.71,2.66,.52,.77,1.39,1.34,2.32,1.34,.43,0,.85-.12,1.26-.25,1.73-.57,3.36-1.51,4.6-2.83,1.25-1.33,2.09-3.06,2.22-4.87,0-.11,0-.24-.09-.29-.27-.69-.79-1.16-1.48-1.44-.69-.28-1.49-.25-2.16,.06-.34,.16-.65,.4-.84,.72-.22,.38-.26,.84-.34,1.27-.08,.43-.24,.89-.6,1.14-.2,.14-.45,.19-.69,.24-.62,.12-1.24,.21-1.86,.27h-2.03Z"/></clipPath><clipPath id="e"><path class="r" d="M14.52,17.91c.4-.1,.83-.11,1.25-.07,.43,.03,.86,.16,1.23,.38,.44,.24,.76,.55,1.06,.96,.1,.13,.19,.28,.22,.44,.06,.28-.06,.58-.26,.79-.2,.21-.47,.33-.74,.41-1.06,.31-2.29-.07-3-.92-.09-.11-.2-.24-.35-.24-.15,0-.22,.15-.31,.28-.2,.27-.34,.35-.7,.68-.16,.15-.35,.29-.57,.27-.37-.04-.57-.47-.54-.84,.04-.52,.41-1.11,.83-1.41,.43-.3,.73-.42,1.88-.72Z"/></clipPath><clipPath id="f"><path class="k" d="M26.08,23c.19-.11,.51-.37,.64-.56,.6-.88,.87-1.83,.9-2.89,.01-.4-.03-.8-.1-1.2-.27-1.52-.91-2.96-1.85-4.18-.34-.44-.73-.86-1.25-1.07-.22-.09-.45-.14-.68-.21-.52-.15-1.02-.4-1.54-.55-.52-.15-1.11-.19-1.6,.07-.21,1.84,.27,3.69,.84,5.46,.4,1.25,.85,2.49,1.56,3.59,.29,.46,.63,.89,1.07,1.21,.44,.32,.98,.53,1.52,.48,.17-.02,.35-.06,.5-.15Z"/></clipPath><clipPath id="g"><path class="r" d="M27.83,41.15c.56-.05,.83-.63,.95-1.18,.06-.27,.08-.55,.08-.82,0-.93-.2-1.88-.71-2.66-.52-.77-1.39-1.34-2.32-1.34-.43,0-.85,.11-1.26,.25-1.73,.57-3.36,1.51-4.6,2.83-1.25,1.33-2.09,3.06-2.22,4.87,0,.11,0,.24,.09,.29,.26,.69,.79,1.16,1.47,1.44,.69,.28,1.49,.25,2.16-.06,.34-.16,.65-.4,.84-.72,.22-.38,.26-.83,.34-1.27,.08-.43,.24-.89,.6-1.14,.2-.14,.45-.19,.69-.24,.62-.12,1.24-.21,1.86-.27h2.03Z"/></clipPath><clipPath id="h"><path class="r" d="M26.43,43.7c-.4,.1-.83,.11-1.25,.07-.43-.03-.86-.16-1.23-.38-.44-.25-.76-.55-1.06-.96-.1-.13-.19-.28-.22-.44-.06-.28,.06-.58,.26-.79,.2-.21,.47-.33,.74-.41,1.06-.31,2.29,.07,3,.92,.09,.11,.2,.24,.35,.24,.15,0,.22-.15,.31-.28,.2-.27,.34-.35,.7-.68,.16-.15,.35-.29,.57-.27,.37,.04,.57,.47,.54,.84-.04,.52-.4,1.11-.83,1.41-.43,.3-.73,.43-1.88,.72Z"/></clipPath><clipPath id="i"><path class="k" d="M14.86,38.61c-.19,.11-.51,.37-.64,.56-.6,.88-.87,1.83-.9,2.89-.01,.4,.03,.8,.1,1.2,.27,1.52,.91,2.97,1.85,4.18,.34,.44,.73,.86,1.25,1.07,.22,.09,.46,.14,.68,.21,.52,.15,1.02,.4,1.54,.55,.52,.15,1.11,.19,1.6-.07,.21-1.84-.27-3.69-.84-5.46-.4-1.25-.85-2.49-1.56-3.59-.29-.46-.63-.89-1.07-1.21-.44-.32-.98-.53-1.52-.48-.17,.02-.35,.06-.5,.15Z"/></clipPath></defs><g id="a"/><g id="b"><g id="c"><g><g><path class="j" d="M3.54,.09H37.39c1.9,0,3.45,1.55,3.45,3.45V58.74c0,1.9-1.55,3.45-3.45,3.45H3.54c-1.9,0-3.45-1.55-3.45-3.45V3.54C.09,1.64,1.64,.09,3.54,.09Z"/><path class="s" d="M37.39,62.29H3.54c-1.96,0-3.54-1.59-3.54-3.54V3.54C0,1.59,1.59,0,3.54,0H37.39c1.95,0,3.54,1.59,3.54,3.54V58.74c0,1.95-1.59,3.54-3.54,3.54ZM3.54,.19C1.69,.19,.19,1.69,.19,3.54V58.74c0,1.85,1.5,3.36,3.36,3.36H37.39c1.85,0,3.36-1.51,3.36-3.36V3.54c0-1.85-1.5-3.36-3.36-3.36H3.54Z"/></g><g><path class="n" d="M4.98,30.08c.36,.82,1.28,1.04,2.08,1.09,1.3,.07,2.6-.1,3.89-.27,.35-.05,.78-.17,.86-.57,.03-.14,0-.29-.04-.44-.07-.32-.16-.64-.3-.93-.41-.85-1.22-1.32-2.03-1.61-1.1-.39-2.34-.51-3.38,.07-.43,.24-.82,.6-1.04,1.08-.23,.48-.27,1.09-.05,1.57Z"/><path class="n" d="M35.27,31.89c-.32-.81-1.22-1.09-2.02-1.18-1.29-.15-2.6-.06-3.9,.02-.35,.02-.79,.12-.89,.49-.04,.14-.01,.28,.01,.42,.05,.31,.12,.63,.24,.91,.36,.84,1.14,1.35,1.93,1.67,1.08,.45,2.31,.63,3.38,.14,.44-.2,.85-.53,1.1-.98,.25-.45,.33-1.03,.15-1.51Z"/><path class="u" d="M6.42,25.57c0-.19,.09-.36,.19-.53,1.66-2.68,5.51-4.34,9.43-4.79,3.91-.45,7.91,.15,11.72,.95,.7,.15,1.41,.31,2.04,.57,1.77,.75,2.72,2.23,3.34,3.68-.79,.11-1.63,.23-2.23,.63-.92,.62-.98,1.66-.94,2.58,.12,3.08,.54,6.16,1.26,9.2-.94,.21-1.93,.2-2.91,.2-5.91-.03-11.82-.06-17.73-.19-.12,0-.26,0-.34-.07-.08-.06-.09-.14-.11-.22-.59-3.36-.02-6.44-.91-9.77-.08-.28,1.37-.91,1.15-1.14-.29-.31-.76-.49-1.21-.66-.86-.33-1.85-.66-2.76-.43Z"/><path class="u" d="M34.52,35.77c0,.2-.09,.38-.19,.56-1.66,2.82-5.51,4.56-9.43,5.03-3.92,.47-7.91-.15-11.72-1-.7-.16-1.41-.32-2.04-.6-1.77-.78-2.72-2.34-3.34-3.86,.79-.11,1.63-.24,2.23-.67,.92-.65,.98-1.74,.94-2.71-.12-3.24-.54-6.47-1.26-9.66,.94-.22,1.93-.21,2.91-.21,5.91,.03,11.82,.06,17.73,.2,.12,0,.26,0,.34,.08,.07,.06,.09,.15,.11,.23,.59,3.53,.02,6.77,.91,10.26,.07,.29-1.38,.95-1.15,1.2,.29,.32,.76,.51,1.21,.69,.86,.34,1.85,.69,2.76,.45Z"/><path class="v" d="M31.77,39.11c-.49,.16-12.73-5.85-14.77-7.09-2.62-1.59-9.94-3.9-10.38-4.26-.44-.36-.76-.91-.7-1.47,.04-.36,.22-.68,.4-.99,.69-1.18,1.62-2.41,2.98-2.62,1.51-.24,2.72,1.08,4.06,1.81,6.42,3.49,11.82,5.69,15.72,7.49,3.14,1.45,3.8,1.5,5.45,2.45,.2,.11,.45,1.03-.3,2.15-1.13,1.7-1.13,2.1-2.46,2.54Z"/><path class="m" d="M15.99,21.7c.5,.03,1.02,.05,1.48-.13,.4-.16,.73-.45,1.04-.73,.49-.45,.99-.89,1.43-1.39,1.2-1.35,1.97-3.05,2.35-4.81,.08-.37,.14-.76,0-1.11-.21-.5-.78-.73-1.29-.9-.72-.25-1.45-.5-2.22-.52-.46-.01-.91,.06-1.36,.13-.73,.11-1.46,.23-2.2,.34-.31,.05-.42,.16-.66,.36-.43,.36-.61,.96-.61,1.52,0,.15,0,.3-.08,.43-.07,.13-.21,.21-.33,.3-.79,.53-1.45,1.25-1.9,2.09-.11,.21-.21,.45-.12,.67,.1,.23,.38,.31,.63,.3,.25,0,.49-.09,.74-.08-.01,.53-.02,1.06-.03,1.59,0,.34,0,.69,.16,.98,.19,.34,.57,.53,.95,.65,.65,.21,1.34,.27,2.02,.31Z"/><path class="v" d="M13.11,20.46c-.56,.05-.83,.63-.95,1.18-.06,.27-.08,.55-.08,.82,0,.93,.19,1.88,.71,2.66,.52,.77,1.39,1.34,2.32,1.34,.43,0,.85-.12,1.26-.25,1.73-.57,3.36-1.51,4.6-2.83,1.25-1.33,2.09-3.06,2.22-4.87,0-.11,0-.24-.09-.29-.27-.69-.79-1.16-1.48-1.44-.69-.28-1.49-.25-2.16,.06-.34,.16-.65,.4-.84,.72-.22,.38-.26,.84-.34,1.27-.08,.43-.24,.89-.6,1.14-.2,.14-.45,.19-.69,.24-.62,.12-1.24,.21-1.86,.27h-2.03Z"/><path class="j" d="M17.7,15.59c-.59-.07-1.14-.31-1.68-.55,.41-.37,.99-.47,1.53-.54,1.09-.14,2.25-.21,3.22,.3-.97,.45-2.01,.91-3.07,.78Z"/><path class="v" d="M24.67,11.68c.26-.13,.42-.4,.56-.65,.33-.6,.63-1.21,.91-1.84,.1-.22,.26-.18,.21-.41-.05-.23-.3-.69-.47-.85-.22-.21-.7-.73-.93-.94-.35-.32-1.48-1.08-1.9-1.22-1.35-.48-2.98-.56-4.36-.17-.48,.14-.94,.34-1.38,.56-.79,.41-1.59,.95-1.93,1.77-.32,.77-.18,1.65-.04,2.47,.26,.3,.39,.62,.66,.92,.2,.22,.4,.45,.66,.58,.23,.12,.49,.15,.75,.18,2.11,.25,4.25,.25,6.37,0,.35-.04,.77-.08,.89-.41Z"/><path class="a`" d="M18.96,4.47c-.14,.03-.27,.1-.39,.19-.16,.12-.29,.28-.32,.47-.03,.22,.08,.44,.26,.58,.18,.13,.4,.18,.63,.18,.18,0,.37-.04,.5-.16,.07-.06,.12-.13,.16-.21,.12-.25,.08-.57-.09-.79-.17-.22-.48-.32-.75-.26Z"/><path class="v" d="M18.24,15.54c.25,0,.46-.21,.46-.46s-.21-.46-.46-.46-.46,.21-.46,.46,.21,.46,.46,.46h0Z"/><path class="v" d="M16.09,14.55c.67,.08,1.38-.08,2.05-.13,.69-.06,1.46,.22,2.11,.01,.16-.05,.2-.23,.09-.35-.5-.58-1.52-.47-2.2-.42-.73,.06-1.56,.23-2.11,.73-.06,.06,0,.14,.06,.15h0Z"/><path class="v" d="M13.63,17.72c.09-.18-.13-.39-.3-.23-.2,.2,.18,.47,.3,.23h0Z"/><g class="p"><path class="n" d="M12.54,20.19c-.08,.47-.31,.94-.22,1.43,.12,.66,.64,1.23,.51,1.92-.15,.81-.75,1.5-.54,2.36,.01,.05,.1,.04,.09-.01-.09-1.05,.8-1.58,.86-2.52,.02-.29,0-.54-.13-.8-.38-.81-.34-1.48-.42-2.35,0-.09-.15-.12-.16-.02h0Z"/><path class="n" d="M11.55,21.81c0,.37,.16,.71,.26,1.06,.06,.22,.1,.46,.06,.68-.03,.17-.12,.31-.1,.49,0,.07,.06,.15,.15,.15,.46-.05,.55-.59,.49-.98-.08-.52-.35-1.03-.64-1.46-.06-.09-.21-.06-.21,.06h0Z"/><path class="n" d="M12.81,19.8c.87,1.06,1.06,3.18,.71,4.48-.16,.59-.78,1.07-.77,1.71,.01,.64,.19,1.15,.6,1.63,.08,.09,.19-.01,.18-.1-.1-.62-.37-1.13-.25-1.79,.07-.36,.42-.73,.56-1.09,.27-.71,.24-1.41,.19-2.15-.06-.9-.17-2.42-1.15-2.81-.07-.03-.11,.07-.07,.12h0Z"/><path class="n" d="M13.5,20.22c.66,.56,1.07,1.5,1.18,2.34,.13,.96-.27,1.71-.72,2.51-.53,.92-.16,2.06,.55,2.78,.07,.07,.23,.02,.21-.09-.13-1.02-.83-1.61-.21-2.72,.34-.61,.57-1.11,.63-1.81,.09-1.04-.35-2.9-1.55-3.18-.09-.02-.18,.1-.1,.17h0Z"/><path class="n" d="M14.33,20.1c.49,.6,1.06,1.04,1.5,1.71,.75,1.14-.16,1.96-.53,3.02-.42,1.2-.07,2.59,1.07,3.28,.1,.06,.26-.04,.21-.16-.38-1.08-1.17-1.68-.75-2.97,.25-.76,.72-1.37,.8-2.18,.12-1.2-1.3-2.34-2.21-2.82-.09-.05-.16,.06-.1,.13h0Z"/><path class="n" d="M15,19.71c.7,.66,1.38,1.2,1.96,1.98,.9,1.22-.11,1.98-.25,3.15-.13,1.06,.52,2.92,1.79,3,.11,0,.13-.12,.08-.19-.65-.83-1.39-1.33-1.46-2.48-.05-.87,.7-1.56,.73-2.42,.04-1.3-1.69-2.72-2.74-3.16-.08-.03-.17,.06-.1,.13h0Z"/><path class="n" d="M16.26,19.78c.84,.43,1.35,1.19,1.85,1.97,.42,.67,.55,1.38,.12,2.11-.14,.25-.33,.47-.43,.74-.46,1.18,.4,2.72,1.48,3.27,.13,.07,.24-.06,.18-.18-.49-1.13-1.85-1.72-1.17-3.17,.26-.55,.7-1.08,.61-1.73-.16-1.13-1.29-3.12-2.6-3.15-.07,0-.1,.1-.04,.14h0Z"/><path class="n" d="M16.7,19c1.19,1.24,3.23,2.25,2.61,4.32-.38,1.25-.52,2.57,.64,3.48,.08,.06,.21,0,.18-.1-.37-1.09-.89-1.74-.49-2.96,.23-.72,.31-1.24,.11-1.97-.37-1.34-1.84-2.25-2.99-2.84-.04-.02-.09,.03-.05,.07h0Z"/><path class="n" d="M17.48,18.8c1.07,.62,1.97,1.43,2.58,2.52,.5,.88,.37,1.85,.32,2.81-.06,1.06,.08,2.79,1.45,2.91,.12,.01,.17-.15,.09-.22-.36-.37-.74-.61-.93-1.12-.16-.41-.14-.89-.13-1.33,.02-.71,.19-1.48,.03-2.18-.37-1.65-1.7-3.13-3.37-3.49-.06-.01-.09,.07-.04,.1h0Z"/><path class="n" d="M17.81,18.53c1.05,.4,1.9,.82,2.71,1.63,.78,.77,.86,2.04,.86,3.07,0,1.15-.12,3,1.37,3.28,.13,.02,.22-.12,.13-.22-.4-.45-.82-.71-1.04-1.31-.2-.53-.12-1.19-.12-1.75,.01-.83-.04-1.74-.41-2.5-.53-1.09-2.19-2.57-3.5-2.29-.05,.01-.04,.07,0,.09h0Z"/><path class="n" d="M18.18,17.94c1.17,.21,2.13,.97,2.9,1.85,.83,.95,.84,2.09,1.07,3.26,.21,1.11-.01,2.73,1.39,3.07,.11,.03,.16-.12,.08-.18-1.55-1.12-.83-3.8-1.5-5.38-.68-1.59-2.23-2.61-3.91-2.79-.1,0-.12,.15-.02,.17h0Z"/><path class="n" d="M18.15,17.29c.28,.16,.46,.14,.79,.15,.86,.02,1.51,.68,2.12,1.2,.5,.42,1,.86,1.33,1.43,.32,.54,.52,1.21,.8,1.78,.8,1.61,1.85,3.21,3.78,2.02,.04-.03,.01-.1-.04-.08-2.77,1.16-3.32-2.92-4.55-4.47-1.04-1.3-2.54-2.4-4.24-2.14-.05,0-.06,.09-.01,.11h0Z"/><path class="n" d="M18.99,16.61c1.19,.15,2.06,.8,2.79,1.7,.52,.64,1.15,1.18,1.92,1.46,.12,.04,.2-.12,.12-.2-.43-.41-.92-.73-1.37-1.12-.43-.38-.71-.9-1.15-1.26-.61-.5-1.54-.75-2.31-.72-.1,0-.09,.14,0,.15h0Z"/></g><path class="k" d="M14.52,17.91c.4-.1,.83-.11,1.25-.07,.43,.03,.86,.16,1.23,.38,.44,.24,.76,.55,1.06,.96,.1,.13,.19,.28,.22,.44,.06,.28-.06,.58-.26,.79-.2,.21-.47,.33-.74,.41-1.06,.31-2.29-.07-3-.92-.09-.11-.2-.24-.35-.24-.15,0-.25,.15-.33,.27-.18,.27-.37,.42-.62,.63-.17,.14-.41,.35-.63,.33-.37-.04-.57-.47-.54-.84,.04-.52,.41-1.11,.83-1.41,.43-.3,.73-.42,1.88-.72Z"/><g class="o"><path class="n" d="M12.96,17.8c.64,.92-.85,1.82-1.06,2.71-.14,.57,.14,1.12,.67,1.34,.06,.03,.13-.06,.09-.12-.78-1.11-.08-1.66,.55-2.58,.33-.49,.28-1.04-.15-1.42-.05-.04-.13,.01-.09,.07h0Z"/><path class="n" d="M13.5,17.43c.1,.55,.25,1.02,.11,1.59-.09,.36-.39,.71-.55,1.05-.19,.4-.32,.8-.08,1.2,.03,.05,.13,.03,.12-.03-.1-.86,.61-1.36,.91-2.11,.24-.61,.03-1.31-.4-1.77-.05-.05-.12,0-.11,.07h0Z"/><path class="n" d="M13.55,16.94c1.12,1.44,1.47,4.47,3.63,4.82,.05,0,.08-.06,.04-.09-.95-.64-1.53-1.42-2.06-2.42-.44-.85-.82-1.73-1.55-2.38-.04-.04-.09,.02-.06,.06h0Z"/><path class="n" d="M14.64,17.51c1.04,1.61,1.67,3.57,3.66,4.25,.09,.03,.14-.09,.09-.15-.67-.7-1.5-1.16-2.1-1.96-.56-.74-.8-1.62-1.5-2.26-.08-.07-.21,.02-.15,.12h0Z"/><path class="n" d="M14.75,16.48c.98,1.88,2.31,3.73,4.16,4.83,.04,.03,.09-.04,.05-.07-1.58-1.45-2.79-3.14-4.08-4.83-.06-.08-.18-.01-.13,.08h0Z"/><path class="n" d="M15.6,17.01c1.19,1.1,2.17,2.37,3.29,3.52,.05,.05,.15,0,.12-.07-.24-.62-.81-1.18-1.25-1.67-.63-.7-1.3-1.35-2.04-1.92-.09-.07-.19,.08-.12,.15h0Z"/></g><g><path class="k" d="M26.08,23c.19-.11,.51-.37,.64-.56,.6-.88,.87-1.83,.9-2.89,.01-.4-.03-.8-.1-1.2-.27-1.52-.91-2.96-1.85-4.18-.34-.44-.73-.86-1.25-1.07-.22-.09-.45-.14-.68-.21-.52-.15-1.02-.4-1.54-.55-.52-.15-1.11-.19-1.6,.07-.21,1.84,.27,3.69,.84,5.46,.4,1.25,.85,2.49,1.56,3.59,.29,.46,.63,.89,1.07,1.21,.44,.32,.98,.53,1.52,.48,.17-.02,.35-.06,.5-.15Z"/><g class="t"><path class="n" d="M20.28,12.74c-.13,1-.01,1.75,.59,2.57,.5,.68,.81,1.17,.42,2.05-.13,.29-.29,.69-.19,1.02,.29,1.02,1.29,1.44,1.5,2.53,.21,1.11-.26,2.45,.42,3.41,.07,.1,.27,.08,.25-.07-.1-1.08,.1-2.14-.1-3.21-.07-.38-.11-.83-.31-1.16-.29-.47-.75-.76-1.07-1.21-.41-.58,.15-1.35,.3-1.93,.09-.36-.05-.68-.21-.99-.3-.57-.82-.98-1.06-1.6-.2-.5-.08-1-.36-1.47-.05-.08-.16-.04-.17,.05h0Z"/><path class="n" d="M20.98,12.31c-.06,.51,.16,.9,.33,1.37,.24,.65,.9,.94,1.28,1.49,.67,.97-.13,1.7-.28,2.62-.05,.31,.09,.73,.31,.95,.45,.46,1,.71,1.4,1.23,.74,.98-.2,1.69-.24,2.62-.02,.57,.26,1.87,1.1,1.73,.12-.02,.17-.18,.11-.27-.36-.6-.71-.93-.54-1.69,.13-.59,.46-.96,.46-1.59,0-.95-.89-1.67-1.61-2.1-.94-.57-.32-1.22-.09-1.94,.16-.51,.11-.9-.08-1.4-.13-.34-.41-.73-.71-.95-.67-.49-1.08-1.29-1.33-2.09-.02-.07-.12-.05-.12,.02h0Z"/><path class="n" d="M22.16,12.44c.21,.54,.5,1,.84,1.47,.58,.77,1.31,1.02,1.04,2.18-.19,.82-.64,1.64,.22,2.23,.77,.53,1.78,1.16,1.61,2.26-.09,.57-.53,1.02-.7,1.57-.27,.88,.06,1.83,.96,2.16,.1,.04,.21-.1,.15-.19-.53-.74-.96-1.32-.47-2.24,.21-.39,.44-.74,.58-1.16,.31-.91-.48-1.88-1.16-2.37-.78-.56-1.14-.79-.79-1.83,.18-.54,.22-1.01,.08-1.56-.09-.36-.38-.63-.65-.86-.62-.52-1.1-1.09-1.62-1.71-.03-.04-.11,0-.09,.05h0Z"/><path class="n" d="M23.85,13.06c1.13,.76,1.62,1.75,1.27,3.11-.18,.71-.1,1.22,.39,1.77,.39,.43,.91,.65,1.28,1.13,.47,.62,.23,1.36,.02,2.02-.22,.7-.36,1.45,.06,2.11,.06,.09,.19,.05,.19-.05,.11-1.96,1.49-3.99-.74-5.28-1.13-.65-.7-1.25-.61-2.24,.04-.47,.04-.97-.17-1.4-.31-.61-.9-1.32-1.62-1.41-.14-.02-.16,.18-.07,.24h0Z"/><path class="n" d="M27.08,13.81c-.69,.62-1.16,1.78-.9,2.69,.3,1.06,1.63,1.84,2.69,1.69,.09-.01,.11-.17,.03-.2-.94-.41-1.87-.54-2.31-1.6-.26-.64,.19-1.96,.62-2.45,.08-.09-.04-.21-.13-.13h0Z"/></g></g><path class="q" d="M24.89,13.55c.36,0,.72,0,1.08-.01,.13,0,.27,0,.38-.08,.08-.06,.13-.16,.13-.26,0-.25-.28-.39-.49-.52-.14-.08-.26-.19-.37-.3-.04-.04,.16-.64,.22-.66,.94-1.93,2.89-6.15,3.35-7,.32,.23,.77,.43,1.15,.35,.04,0,.1-.02,.12-.06,.06-.08-.03-.19-.11-.25-.29-.23-.6-.43-.92-.6,.19-.38,.31-.57,.46-.93,.03-.08,.25-.84-.16-.81-.46,.03-.74,.95-.86,1.4-.29-.15-.64-.32-.99-.42-.2-.06-.36,.17-.23,.34,.18,.22,.43,.4,.67,.46-1.41,2.15-2.71,4.38-3.88,6.67-.04,.07-.08,.15-.15,.19-.07,.04-.19,.01-.21-.07,0,0,0-.13,0-.14,.38-2.65,.88-5.22,1.5-7.82,.23,.05,.46,.03,.69,.08,.12,.03,.25,.05,.37,.02,.12-.04,.22-.16,.18-.28-.03-.08-.11-.13-.18-.17-.28-.14-.63-.13-.95-.14,.08-.32,.32-.94,.28-1.26-.03-.22-.35-.25-.44-.05-.17,.39-.34,.73-.46,1.16-.27-.22-.7-.34-.99-.35-.11,0-.18,.09-.16,.19,.03,.15,.13,.28,.26,.37,.17,.11,.4,.2,.6,.23-.63,2.71-1.62,5.34-2.76,7.89-.04,.1-.19,.08-.21-.03-.24-1.46-.41-2.62-.42-4.1-.01-1.27,.02-2.9,.04-4.25,0-.04,.04-.08,.08-.08,.36,0,.65,.07,1.02-.03,.07-.02,.15-.05,.19-.11,.09-.15-.1-.31-.26-.36-.28-.08-.79-.05-.92-.03-.01,0-.02,0-.02-.02,0-.24,0-.54,.01-.77,0-.13,0-.27-.05-.39-.06-.12-.2-.21-.32-.16-.13,.05-.18,.21-.2,.35-.05,.33-.08,.66-.08,.99,0,.02-.02,.03-.04,.03-.27-.02-.54-.02-.8,0-.12,.01-.26,.03-.34,.13-.13,.15-.03,.38,.16,.42,.45,.09,.9-.08,.9-.08,0,0,.02,0,.02,.02-.55,4.31-.97,8.02-1.49,8.33-.14,.08-.3,.01-.35-.14-.59-1.76-.97-3.58-1.29-5.41-.15-.86-.34-1.68-.27-2.54,0-.09,.08-.16,.17-.17,.25-.03,.52-.15,.72-.27,.06-.04,.12-.09,.15-.15,.07-.15-.07-.33-.23-.36-.16-.04-.32,.03-.47,.09-.15,.07-.3,.14-.47,.14-.07,0-.13-.74-.33-1.1-.06-.11-.19-.06-.23,.06-.08,.23-.11,.72-.02,1.07,.02,.06-.03,.12-.09,.12-.29,.03-.62,.09-.89,.11-.2,.02-.47,.13-.4,.32,.05,.15,.16,.3,.45,.24,.37-.07,.59-.13,.96-.18,.09,3.15,.23,5.15,.48,8.01,.04,.5-.4,.45-.53,.21-.57-1.01-1.41-2.87-1.95-3.88-.53-1-1.29-2.07-1.85-3.06-.09-.16-.15-.34-.18-.52-.02-.12-.02-.17,.1-.25,.11-.07,.35-.19,.46-.25,.11-.06,.18-.23,.08-.31-.03-.02-.08-.03-.12-.03-.2-.01-.36,.09-.53,.2-.07,.04-.51,.28-.69-.55-.03-.15-.07-.31-.21-.39-.29-.18-.51,.14-.47,.4,.03,.21,.17,.37,.29,.55,.11,.18,.2,.4,.12,.59-.08,.2-.28,.19-.48,.29-.11,.05-.22,.14-.29,.25-.1,.14,.04,.34,.21,.29,.17-.04,.34-.15,.47-.26,.21-.18,.47-.38,.58-.12,.86,1.9,1.29,3.39,2.05,5.04,.23,.51,.46,1.02,.66,1.53,.2,.5,.42,1.14,.12,1.62-.14,.23-.38,.37-.59,.53-.23,.16-.46,.35-.53,.62-.08,.28,.11,.57,.39,.64,1.18,.25,2.45-.08,3.66-.15,2.44-.15,4.89,.34,7.32,.08l-.37,.07Z"/><path class="v" d="M14.45,13.23c.32,0,.32-.49,0-.49s-.32,.49,0,.49h0Z"/><path class="v" d="M15.3,13.25c.35,0,.35-.54,0-.54s-.35,.54,0,.54h0Z"/><path class="v" d="M16.31,13.25c.34,0,.34-.53,0-.53s-.34,.53,0,.53h0Z"/><path class="v" d="M17.16,13.21c.33,0,.33-.51,0-.51s-.33,.51,0,.51h0Z"/><path class="v" d="M18.2,13.19c.37,0,.37-.58,0-.58s-.37,.58,0,.58h0Z"/><path class="v" d="M19.18,13.14c.37,0,.37-.58,0-.58s-.37,.58,0,.58h0Z"/><path class="v" d="M20.09,13.14h.02c.21,.02,.33-.24,.24-.41-.11-.19-.36-.16-.47,0h0c-.13,.19,.05,.39,.23,.41h0Z"/><path class="v" d="M21.04,13.16c.33,0,.33-.52,0-.52s-.33,.52,0,.52h0Z"/><path class="v" d="M22.02,13.28c.36,0,.36-.55,0-.55s-.36,.55,0,.55h0Z"/><path class="v" d="M22.92,13.3c.38,0,.38-.59,0-.59s-.38,.59,0,.59h0Z"/><path class="v" d="M23.96,13.3c.35,0,.35-.54,0-.54s-.35,.54,0,.54h0Z"/><path class="v" d="M24.86,13.28c.32,0,.32-.5,0-.5s-.32,.5,0,.5h0Z"/><path class="v" d="M25.66,13.3c.34,0,.34-.53,0-.53s-.34,.53,0,.53h0Z"/><path class="x" d="M16.05,10.89h.01c.13-.15,.13-.34,0-.48h-.01c-.21-.24-.59-.06-.59,.23s.38,.47,.59,.25h0Z"/><path class="x" d="M17.96,10.7c.23,0,.43-.19,.43-.43s-.19-.43-.43-.43-.43,.19-.43,.43,.19,.43,.43,.43h0Z"/><path class="x" d="M20.65,10.57c.23,0,.43-.19,.43-.43s-.2-.43-.43-.43-.43,.19-.43,.43,.2,.43,.43,.43h0Z"/><path class="x" d="M23.55,10.78h.01c.13-.14,.16-.36,.06-.52-.1-.17-.29-.23-.47-.19h-.02c-.27,.06-.38,.4-.25,.62,.14,.24,.47,.27,.66,.09h0Z"/><path class="x" d="M25.38,11.62h.01c.2-.16,.26-.42,.08-.61h-.01c-.21-.23-.59-.12-.66,.16-.04,.14,0,.29,.1,.39,.12,.12,.34,.17,.48,.06h0Z"/><path class="v" d="M18.99,4.56c.35,0,.35-.54,0-.54s-.35,.54,0,.54h0Z"/><path class="v" d="M15.21,9.93h0c0,.34,.52,.34,.52,0h0c0-.34-.52-.34-.52,0h0Z"/><path class="v" d="M17.82,9.75c.4,0,.4-.61,0-.61s-.4,.61,0,.61h0Z"/><path class="v" d="M20.72,9.59c.33,0,.33-.51,0-.51s-.33,.51,0,.51h0Z"/><path class="v" d="M23.51,9.88c.35,0,.35-.54,0-.54s-.35,.54,0,.54h0Z"/><path class="v" d="M25.53,10.76c.32,0,.32-.5,0-.5s-.32,.5,0,.5h0Z"/><g><path class="q" d="M27.26,28.69c-.19,.18-.19,.47-.17,.73,.03,.4,.07,.82,.22,1.19,.16,.38,.44,.71,.83,.83,.46,.14,3.66-.17,4.77-.3,.22-.03,.44-.07,.64-.15,.5-.21,.85-.71,.93-1.25,.11-.75-.31-1.56-1-1.89-.65-.31-1.41-.21-2.12-.11-1.27,.19-2.54,.38-3.76,.78-.12,.04-.25,.08-.34,.17Z"/><path class="k" d="M26.6,27.66c-.21-.59,.05-1.26,.25-1.85,.1-.31,1.4-1.62,3.4-2.41,1.58-.63,2.76,.27,3.32,.64,.61,.4,1.08,1.77,.92,2.48-.19,.84-.67,1.3-1.49,1.56-1.35,.43-1.98,.14-3.06,.29-.85,.12-1.95,.54-2.75,.21-.3-.13-.48-.6-.6-.91Z"/><path class="x" d="M31.4,23.93c.67-.41,1.52,.61,1.84,1.08,.24,.35,.41,.76,.41,1.19,0,.49-.39,.99-.92,.85-.19-.05-.38-.25-.35-.46,.02-.16,.14-.39,.14-.46,.01-.23-.11-.49-.21-.69-.22-.44-.52-.83-.91-1.12-.13-.1-.15-.28,0-.38h0Z"/><path class="x" d="M30.33,24.41c.45-.08,.84,.71,1.02,1.03,.32,.57,.44,1.29-.15,1.72-.39,.29-.95-.28-.67-.67,.21-.3-.08-.74-.2-1.03-.08-.21-.46-.97,0-1.05h0Z"/><path class="x" d="M29.29,25.34c.16,.23,.19,.55,.25,.82,.07,.29,.17,.64,.13,.94-.07,.5-.69,.61-.88,.12-.11-.29-.11-.64-.14-.94-.03-.3-.05-.66,.1-.94,.12-.22,.41-.19,.54,0h0Z"/><path class="x" d="M27.87,25.98c.07,.25,.01,.51,.05,.77,.04,.31,.2,.59,.28,.9,.09,.3-.32,.56-.54,.31-.44-.49-.69-1.63-.07-2.09,.1-.07,.24,0,.27,.11h0Z"/><path class="a`" d="M33.37,28.59c-.17,0-.17-.27,0-.27s.17,.27,0,.27h0Z"/><path class="a`" d="M33.99,29.12c-.1,0-.1-.16,0-.16s.1,.16,0,.16h0Z"/><path class="a`" d="M33.32,29.41c-.21,0-.21-.33,0-.33s.21,.33,0,.33h0Z"/><path class="a`" d="M33.61,30.02c-.14,0-.14-.22,0-.22s.14,.22,0,.22h0Z"/><path class="a`" d="M32.74,29.98s-.02-.03,0-.03c.02,0,.02,.03,0,.03h0Z"/><path class="a`" d="M32.68,30.01c-.13,0-.13-.2,0-.2s.13,.2,0,.2h0Z"/><path class="a`" d="M32.6,28.69c-.13,0-.13-.21,0-.21s.13,.21,0,.21h0Z"/><path class="a`" d="M32.23,29.27c-.17,0-.17-.27,0-.27s.17,.27,0,.27h0Z"/><path class="a`" d="M33.08,30.89c-.19,0-.19-.3,0-.3s.19,.3,0,.3h0Z"/><path class="a`" d="M31.99,30.5c-.17,0-.17-.27,0-.27s.17,.27,0,.27h0Z"/><path class="a`" d="M31.54,29.84c-.15,0-.15-.23,0-.23s.15,.23,0,.23h0Z"/><path class="a`" d="M31.38,28.95c-.17,0-.17-.26,0-.26s.17,.26,0,.26h0Z"/><path class="a`" d="M30.45,28.78c-.16,0-.16-.24,0-.24s.16,.24,0,.24h0Z"/><path class="a`" d="M30.56,29.53c-.16,0-.16-.25,0-.25s.16,.25,0,.25h0Z"/><path class="a`" d="M29.87,29.22c-.1,0-.1-.16,0-.16s.1,.16,0,.16h0Z"/><path class="a`" d="M30.77,30.37c-.18,0-.18-.28,0-.28s.18,.28,0,.28h0Z"/><path class="a`" d="M31.25,31.04c-.11,0-.11-.18,0-.18s.11,.18,0,.18h0Z"/><path class="a`" d="M32.36,31.1h-.01c-.08,.08-.2,.04-.2-.07s.13-.15,.2-.08h.01s.04,.12,0,.15h0Z"/><path class="a`" d="M29.92,30.3c-.16,0-.16-.24,0-.24s.16,.24,0,.24h0Z"/><path class="a`" d="M30.16,31.08c-.13,0-.13-.21,0-.21s.13,.21,0,.21h0Z"/></g><g><path class="x" d="M17.82,31.16c.02,.37,.01,.62,.19,.96,.2,.39,.38,.54,.7,.82,.35,.31,.95,.51,1.41,.5,.6,0,.73-.04,1.29-.24,.43-.16,.76-.51,1.04-.85,.76-.92,.57-2.44-.23-3.28-.52-.55-1.1-.83-1.85-.92-.46-.06-1.13,.08-1.53,.3-.41,.23-.86,.54-1.1,.96-.35,.62-.63,1.34-.41,2.07,.18,.6,.19,.67,.56,1.18,.15,.21,.37,.38,.58,.53,.21,.16,.45,.28,.7,.36,.62,.18,.74,.16,1.38,.11,.66-.05,1.34-.59,1.7-1.12,.53-.79,.61-1.75,.2-2.62-.27-.56-.77-1.01-1.35-1.22-.85-.31-1.69-.1-2.39,.43-.4,.3-.61,.69-.82,1.14,.1-.19,.2-.38,.3-.57-.01,.02-.02,.04-.04,.06,.14-.16,.29-.31,.43-.47,0,0-.02,.01-.02,.02,.18-.12,.36-.23,.53-.35-.02,.01-.04,.02-.06,.03,.2-.07,.41-.13,.61-.2h-.03c.22,0,.44-.02,.66-.03h-.04c.22,.04,.43,.09,.65,.14-.03,0-.06-.01-.08-.03,.19,.1,.38,.2,.57,.3-.03-.02-.06-.04-.09-.06,.16,.14,.31,.28,.47,.43-.03-.02-.05-.04-.07-.07,.12,.18,.23,.35,.34,.53-.02-.02-.03-.05-.03-.08,.07,.2,.13,.41,.2,.61v-.04c0,.22,.02,.44,.03,.66,0-.03,0-.05,0-.08-.05,.22-.09,.43-.14,.65,0-.03,.02-.05,.03-.07-.1,.19-.2,.38-.3,.57,.01-.02,.03-.05,.05-.07-.14,.16-.28,.31-.43,.47,.02-.02,.04-.04,.07-.06-.18,.11-.35,.23-.53,.34,.04-.02,.08-.04,.12-.06-.2,.07-.4,.13-.61,.2,.03,0,.06-.02,.09-.02-.22,.01-.44,.02-.66,.03,.05,0,.09,0,.14,.01-.21-.05-.43-.09-.64-.14,.05,.02,.09,.03,.14,.05-.19-.1-.37-.19-.56-.29,.03,.02,.05,.03,.08,.06-.15-.14-.31-.28-.46-.42,.03,.03,.05,.05,.07,.08-.11-.17-.22-.34-.33-.51,.02,.04,.05,.08,.06,.13-.06-.19-.13-.38-.19-.58,0,.02,0,.04,0,.05-.01-.21-.02-.41-.03-.62,0,.04,0,.08-.01,.12,.04-.2,.08-.39,.13-.59-.01,.04-.03,.08-.05,.12,.09-.17,.17-.33,.26-.5-.06,.1-.13,.2-.2,.28,.11-.12,.22-.24,.33-.37-.04,.04-.08,.08-.13,.11,.13-.08,.26-.17,.39-.25-.04,.02-.08,.05-.12,.06,.14-.05,.28-.09,.42-.14-.05,.02-.1,.03-.15,.04l.42-.02h-.03c-.43,.02-.77,.07-1.11,.36-.27,.23-.55,.66-.53,1.04h0Z"/><path class="x" d="M16.31,31.98c.26-.89,.07-1.82,.39-2.7,.16-.43,.36-.85,.62-1.24,.21-.31,.78-.46,1.08-.69,.54-.42-.04-1.28-.65-.99-1.13,.55-1.63,1.11-2.13,2.27-.44,1.04-.72,2.59,.2,3.43,.14,.13,.41,.14,.47-.09h0Z"/><path class="x" d="M21.6,35.07c2.45,.97,4.77-3.57,2.93-5.19-.15-.13-.43-.03-.48,.15-.12,.45-.08,.86-.09,1.32,0,.71-.23,1.27-.59,1.87-.45,.73-.99,1.1-1.79,1.39-.22,.08-.16,.39,.02,.46h0Z"/><path class="v" d="M19.75,30.63c-.21-.02-.42-.09-.62-.15-.2-.06-.37-.21-.57-.26-.32-.08-.67,.08-.7,.45-.03,.36,.28,.59,.62,.55,.19-.02,.4,0,.6,0,.28-.02,.5-.08,.75-.19,.19-.09,.13-.37-.07-.39h0Z"/><path class="v" d="M19.87,31.36c-.19,.46-.51,.98-.52,1.5,0,.65,.88,.71,1,.08,.05-.25,.03-.52,.04-.77,.01-.27-.03-.51-.1-.77-.06-.2-.33-.24-.41-.03h0Z"/><path class="v" d="M20.39,30.27c.19-.43,.34-.97,.38-1.44,.07-.66-.92-.73-1.02-.08-.06,.46-.18,1.24,.21,1.59,.14,.13,.34,.11,.42-.08h0Z"/><path class="v" d="M20.41,30.97c.16,.25,.52,.35,.8,.41,.41,.1,.94,.18,1.23-.21,.24-.32,0-.81-.39-.83-.12,0-.2,0-.31,.05,.14-.05-.05,0-.09,0-.14,.02-.28,.04-.42,.05-.22,.02-.58,.03-.75,.2-.08,.08-.14,.21-.07,.32h0Z"/><path class="v" d="M16.4,29.08v-.02c.05-.15-.01-.32-.17-.38-.14-.05-.34,.02-.38,.17v.02c-.04,.15,0,.32,.17,.38,.14,.05,.33-.02,.38-.17h0Z"/><path class="v" d="M16.11,30.07c.03-.35-.52-.4-.55-.04-.03,.36,.52,.4,.55,.04h0Z"/><path class="v" d="M16.07,31.01c.02-.29-.43-.33-.45-.04-.02,.29,.43,.33,.45,.04h0Z"/><path class="v" d="M16.96,27.96c.01-.16-.11-.3-.27-.32-.16-.01-.3,.11-.32,.27-.01,.16,.11,.3,.27,.32,.16,.01,.3-.11,.32-.27h0Z"/><path class="v" d="M17.54,27.26c.02-.24-.35-.27-.37-.03-.02,.24,.35,.27,.37,.03h0Z"/><path class="v" d="M18.26,26.8c.02-.21-.31-.24-.33-.03-.02,.21,.31,.24,.33,.03h0Z"/><path class="v" d="M24.36,33.46c.01-.17-.12-.33-.29-.35-.17-.01-.33,.12-.34,.29-.01,.17,.12,.33,.29,.35,.17,.01,.33-.12,.35-.29h0Z"/><path class="v" d="M24.82,32.51c.01-.18-.12-.34-.3-.36-.18-.01-.34,.12-.36,.3-.02,.18,.12,.34,.3,.36,.18,.01,.34-.12,.36-.3h0Z"/><path class="v" d="M23.59,34.28c.03-.31-.46-.35-.48-.04-.03,.31,.46,.35,.48,.04h0Z"/><path class="v" d="M22.74,34.68c.02-.23-.34-.26-.35-.03-.02,.23,.34,.26,.35,.03h0Z"/><path class="v" d="M24.55,31.16c-.1,.05-.16,.15-.14,.26,.03,.15,.19,.23,.33,.17,.27-.13,.06-.56-.19-.43h0Z"/><path class="v" d="M24.33,30.5v.02c-.04,.19,.21,.29,.34,.18,.13-.11,.07-.38-.12-.37h-.02c-.11,0-.18,.06-.2,.17h0Z"/><path class="a`" d="M18.92,32.22h0c-.03,.06-.06,.12-.1,.18,.11-.11,.14-.27,.06-.4-.05-.09-.13-.15-.24-.16-.12,0-.26,.07-.29,.19-.03,.1-.04,.18,.02,.28,.07,.13,.18,.17,.32,.16h0c.11-.02,.22-.13,.22-.24h0Z"/><path class="a`" d="M21.53,32.33h0c-.02-.31-.52-.35-.58-.06h0c-.04,.2,.04,.4,.26,.42,.22,.02,.34-.17,.33-.36h0Z"/><path class="a`" d="M19.18,29.37c.01-.16-.11-.31-.28-.33-.16-.01-.31,.11-.33,.28-.01,.16,.11,.31,.28,.33,.16,.01,.31-.11,.33-.28h0Z"/><path class="a`" d="M21.28,29.19h0c-.24,.13-.24,.42-.05,.58h0c.09,.08,.25,.08,.35,.03,.14-.07,.22-.23,.19-.38-.07-.35-.54-.37-.67-.05h0c.17-.05,.34-.1,.51-.16-.11-.06-.22-.09-.34-.03h0Z"/></g><path class="v" d="M15.8,35.11c.05,.05,.11,.08,.17,.1,.11,.03,.22-.02,.28-.11,.07-.12,.02-.26-.09-.34-.04-.03-.08-.05-.13-.06-.22-.04-.43,.23-.23,.4h0Z"/><path class="v" d="M21.36,27.52c.19,0,.19-.3,0-.3s-.2,.3,0,.3h0Z"/><path class="v" d="M17.23,34.05c.17,0,.17-.27,0-.27s-.17,.27,0,.27h0Z"/><path class="v" d="M18.73,36.27c.28,0,.28-.43,0-.43s-.28,.43,0,.43h0Z"/><path class="v" d="M17.93,27.09c.28,0,.28-.43,0-.43s-.28,.43,0,.43h0Z"/><path class="v" d="M16.47,36.81s-.05,.05-.07,.08c-.12,.25,.23,.47,.38,.22v-.02s-.04,.05-.07,.08l.03-.02c.1-.07,.15-.19,.08-.31-.08-.13-.25-.14-.35-.04h0Z"/><path class="v" d="M22.26,25.57c.29,0,.29-.45,0-.45s-.29,.45,0,.45h0Z"/><path class="v" d="M12.83,34.22c-.07,.01-.12,.05-.17,.09-.18,.15,.05,.42,.24,.32h-.02c.3,0,.25-.46-.06-.4h0Z"/><path class="v" d="M13.65,35.38v.02c.08,.13,.3,.13,.37,0,0,0,0-.01,0-.02,.07-.14-.01-.33-.19-.33s-.26,.18-.19,.33h0Z"/><path class="m" d="M24.95,39.91c-.5-.03-1.02-.05-1.48,.13-.4,.16-.73,.45-1.04,.73-.49,.45-.99,.89-1.43,1.39-1.2,1.35-1.96,3.05-2.35,4.82-.08,.37-.14,.76,0,1.1,.21,.5,.78,.73,1.29,.9,.72,.25,1.46,.5,2.22,.52,.46,.01,.91-.06,1.37-.13,.73-.11,1.46-.23,2.2-.34,.31-.05,.42-.16,.65-.36,.43-.36,.62-.96,.61-1.52,0-.15,0-.3,.08-.43,.07-.13,.2-.21,.33-.3,.79-.53,1.45-1.25,1.9-2.09,.11-.21,.21-.45,.12-.67-.1-.23-.38-.31-.63-.3-.25,0-.49,.09-.74,.08,0-.53,.02-1.06,.03-1.59,0-.34,0-.69-.16-.99-.19-.34-.57-.53-.95-.65-.65-.21-1.34-.27-2.02-.31Z"/><path class="v" d="M27.83,41.15c.56-.05,.83-.63,.95-1.18,.06-.27,.08-.55,.08-.82,0-.93-.2-1.88-.71-2.66-.52-.77-1.39-1.34-2.32-1.34-.43,0-.85,.11-1.26,.25-1.73,.57-3.36,1.51-4.6,2.83-1.25,1.33-2.09,3.06-2.22,4.87,0,.11,0,.24,.09,.29,.26,.69,.79,1.16,1.47,1.44,.69,.28,1.49,.25,2.16-.06,.34-.16,.65-.4,.84-.72,.22-.38,.26-.83,.34-1.27,.08-.43,.24-.89,.6-1.14,.2-.14,.45-.19,.69-.24,.62-.12,1.24-.21,1.86-.27h2.03Z"/><path class="j" d="M23.24,46.02c.59,.07,1.14,.31,1.68,.55-.41,.37-.99,.47-1.53,.54-1.09,.14-2.25,.21-3.22-.3,.97-.45,2.01-.91,3.07-.78Z"/><path class="v" d="M16.27,49.94c-.26,.13-.42,.4-.56,.65-.33,.6-.63,1.21-.91,1.84-.1,.22-.26,.18-.21,.41,.05,.23,.3,.69,.47,.85,.22,.21,.7,.73,.93,.94,.35,.32,1.48,1.08,1.89,1.22,1.35,.48,2.98,.56,4.36,.17,.48-.14,.94-.34,1.38-.56,.79-.41,1.59-.95,1.93-1.77,.32-.77,.18-1.65,.04-2.47-.26-.3-.39-.62-.66-.92-.2-.22-.4-.45-.67-.59-.23-.12-.49-.15-.75-.18-2.11-.25-4.25-.25-6.37,0-.35,.04-.77,.08-.89,.41Z"/><path class="a`" d="M21.98,57.15c.14-.03,.27-.1,.39-.19,.16-.12,.29-.28,.32-.47,.03-.22-.08-.44-.26-.58-.18-.13-.4-.18-.63-.18-.18,0-.37,.04-.5,.16-.07,.06-.12,.13-.16,.21-.12,.25-.08,.57,.09,.79,.17,.22,.48,.32,.75,.27Z"/><path class="v" d="M22.7,46.07c-.25,0-.46,.21-.46,.46s.21,.46,.46,.46,.46-.21,.46-.46-.21-.46-.46-.46h0Z"/><path class="v" d="M24.85,47.07c-.67-.08-1.38,.08-2.05,.13-.69,.06-1.46-.22-2.11-.01-.16,.05-.19,.23-.09,.35,.5,.58,1.52,.47,2.21,.42,.73-.06,1.56-.23,2.11-.73,.06-.06,0-.14-.06-.15h0Z"/><path class="v" d="M27.31,43.89c-.09,.18,.14,.39,.3,.23,.2-.2-.18-.47-.3-.23h0Z"/><g class="y"><path class="n" d="M28.4,41.42c.08-.47,.31-.94,.22-1.43-.12-.66-.64-1.23-.51-1.92,.15-.81,.75-1.5,.54-2.36-.01-.05-.1-.04-.09,.01,.08,1.05-.8,1.58-.86,2.52-.02,.29,0,.54,.13,.8,.38,.81,.34,1.48,.42,2.35,0,.09,.15,.12,.16,.02h0Z"/><path class="n" d="M29.39,39.81c0-.37-.16-.71-.26-1.06-.06-.22-.1-.46-.06-.68,.03-.17,.12-.31,.1-.49,0-.07-.06-.15-.15-.15-.46,.05-.55,.59-.49,.98,.08,.52,.35,1.03,.64,1.46,.06,.09,.21,.06,.21-.06h0Z"/><path class="n" d="M28.13,41.81c-.87-1.06-1.06-3.18-.71-4.48,.16-.59,.78-1.07,.76-1.71-.01-.63-.19-1.15-.6-1.63-.08-.09-.19,.01-.18,.1,.1,.62,.37,1.13,.25,1.79-.07,.36-.42,.73-.56,1.09-.27,.71-.24,1.41-.19,2.15,.06,.9,.17,2.42,1.15,2.81,.07,.03,.11-.07,.07-.12h0Z"/><path class="n" d="M27.44,41.4c-.66-.56-1.07-1.5-1.18-2.34-.13-.96,.27-1.71,.72-2.51,.53-.92,.16-2.06-.55-2.78-.07-.07-.23-.02-.21,.09,.13,1.02,.83,1.61,.21,2.72-.34,.61-.57,1.11-.63,1.81-.09,1.04,.35,2.9,1.55,3.18,.09,.02,.18-.1,.1-.17h0Z"/><path class="n" d="M26.61,41.52c-.49-.6-1.06-1.04-1.5-1.71-.75-1.14,.16-1.96,.53-3.01,.42-1.2,.07-2.59-1.07-3.28-.11-.06-.26,.04-.21,.16,.38,1.08,1.18,1.68,.75,2.97-.25,.76-.72,1.37-.8,2.18-.12,1.2,1.3,2.34,2.21,2.82,.09,.05,.16-.06,.1-.13h0Z"/><path class="n" d="M25.94,41.91c-.7-.66-1.38-1.2-1.96-1.98-.9-1.22,.11-1.98,.25-3.15,.13-1.06-.52-2.92-1.79-3-.11,0-.13,.12-.08,.19,.65,.83,1.39,1.33,1.46,2.48,.05,.87-.7,1.56-.73,2.42-.04,1.3,1.69,2.72,2.74,3.16,.08,.03,.17-.06,.1-.13h0Z"/><path class="n" d="M24.68,41.83c-.84-.43-1.35-1.19-1.85-1.97-.42-.67-.55-1.38-.12-2.11,.14-.25,.33-.47,.43-.74,.46-1.18-.4-2.72-1.48-3.27-.13-.06-.24,.06-.18,.18,.49,1.13,1.85,1.72,1.17,3.17-.26,.55-.7,1.08-.61,1.73,.16,1.13,1.29,3.12,2.6,3.15,.07,0,.1-.1,.04-.14h0Z"/><path class="n" d="M24.25,42.61c-1.19-1.24-3.23-2.25-2.61-4.32,.38-1.25,.52-2.57-.64-3.48-.07-.06-.21,0-.18,.1,.37,1.09,.89,1.74,.49,2.96-.23,.72-.31,1.24-.11,1.97,.37,1.34,1.84,2.25,2.99,2.84,.04,.02,.09-.03,.05-.07h0Z"/><path class="n" d="M23.46,42.82c-1.07-.62-1.97-1.43-2.58-2.52-.5-.88-.37-1.85-.32-2.81,.06-1.06-.08-2.79-1.45-2.91-.12-.01-.17,.15-.09,.22,.36,.37,.74,.61,.93,1.12,.16,.41,.14,.89,.13,1.33-.01,.71-.19,1.48-.03,2.18,.37,1.65,1.7,3.13,3.38,3.49,.06,.01,.09-.07,.04-.1h0Z"/><path class="n" d="M23.13,43.08c-1.05-.4-1.9-.82-2.71-1.63-.79-.77-.86-2.04-.86-3.07,0-1.15,.12-3-1.37-3.28-.13-.02-.22,.12-.13,.22,.4,.45,.82,.71,1.04,1.31,.2,.53,.12,1.19,.12,1.75-.01,.83,.04,1.74,.41,2.5,.53,1.09,2.19,2.57,3.5,2.29,.05-.01,.04-.07,0-.09h0Z"/><path class="n" d="M22.76,43.67c-1.17-.21-2.13-.97-2.9-1.85-.83-.95-.84-2.09-1.07-3.26-.21-1.11,.01-2.73-1.39-3.07-.11-.03-.16,.12-.08,.18,1.55,1.12,.83,3.8,1.5,5.38,.68,1.59,2.23,2.61,3.91,2.79,.1,0,.12-.15,.02-.17h0Z"/><path class="n" d="M22.79,44.32c-.28-.16-.46-.14-.79-.15-.86-.02-1.51-.68-2.12-1.2-.5-.42-1-.86-1.33-1.43-.32-.54-.52-1.21-.8-1.78-.8-1.6-1.85-3.21-3.79-2.02-.04,.03-.01,.1,.04,.08,2.76-1.16,3.32,2.92,4.55,4.46,1.04,1.3,2.54,2.4,4.24,2.14,.05,0,.06-.09,.01-.11h0Z"/><path class="n" d="M21.95,45.01c-1.19-.15-2.06-.8-2.79-1.7-.52-.64-1.15-1.18-1.92-1.46-.12-.04-.2,.12-.12,.2,.43,.41,.92,.73,1.37,1.12,.43,.38,.7,.9,1.15,1.26,.61,.5,1.54,.75,2.31,.72,.1,0,.09-.14,0-.15h0Z"/></g><path class="k" d="M26.43,43.7c-.4,.1-.83,.11-1.25,.07-.43-.03-.86-.16-1.23-.38-.44-.25-.76-.55-1.06-.96-.1-.13-.19-.28-.22-.44-.06-.28,.06-.58,.26-.79,.2-.21,.47-.33,.74-.41,1.06-.31,2.29,.07,3,.92,.09,.11,.2,.24,.35,.24,.15,0,.25-.15,.33-.27,.18-.27,.37-.42,.62-.63,.17-.14,.41-.35,.63-.33,.37,.04,.57,.47,.54,.84-.04,.52-.4,1.11-.83,1.41-.43,.3-.73,.43-1.88,.72Z"/><g class="l"><path class="n" d="M27.98,43.81c-.64-.92,.85-1.82,1.06-2.71,.14-.57-.14-1.12-.67-1.34-.06-.03-.13,.06-.09,.12,.78,1.11,.08,1.66-.55,2.58-.33,.49-.28,1.04,.15,1.42,.05,.04,.13-.01,.09-.07h0Z"/><path class="n" d="M27.44,44.18c-.1-.55-.25-1.02-.11-1.59,.09-.36,.39-.71,.55-1.05,.19-.4,.32-.8,.08-1.2-.03-.05-.12-.03-.12,.03,.1,.86-.61,1.36-.91,2.11-.25,.61-.03,1.31,.4,1.77,.05,.05,.12,0,.11-.07h0Z"/><path class="n" d="M27.39,44.67c-1.12-1.44-1.47-4.47-3.63-4.82-.05,0-.08,.06-.04,.09,.95,.64,1.53,1.42,2.06,2.42,.44,.85,.82,1.73,1.55,2.38,.04,.04,.09-.02,.06-.06h0Z"/><path class="n" d="M26.3,44.11c-1.04-1.61-1.67-3.57-3.66-4.25-.09-.03-.14,.09-.08,.15,.67,.7,1.5,1.16,2.1,1.96,.56,.74,.8,1.62,1.5,2.26,.08,.07,.21-.02,.15-.12h0Z"/><path class="n" d="M26.19,45.13c-.98-1.88-2.31-3.73-4.16-4.83-.04-.03-.09,.04-.05,.07,1.58,1.45,2.8,3.14,4.08,4.83,.06,.08,.18,.01,.13-.08h0Z"/><path class="n" d="M25.34,44.6c-1.19-1.1-2.17-2.37-3.29-3.52-.05-.05-.15,0-.12,.07,.24,.62,.81,1.18,1.26,1.67,.63,.7,1.3,1.35,2.04,1.92,.09,.07,.19-.08,.12-.15h0Z"/></g><g><path class="k" d="M14.86,38.61c-.19,.11-.51,.37-.64,.56-.6,.88-.87,1.83-.9,2.89-.01,.4,.03,.8,.1,1.2,.27,1.52,.91,2.97,1.85,4.18,.34,.44,.73,.86,1.25,1.07,.22,.09,.46,.14,.68,.21,.52,.15,1.02,.4,1.54,.55,.52,.15,1.11,.19,1.6-.07,.21-1.84-.27-3.69-.84-5.46-.4-1.25-.85-2.49-1.56-3.59-.29-.46-.63-.89-1.07-1.21-.44-.32-.98-.53-1.52-.48-.17,.02-.35,.06-.5,.15Z"/><g class="w"><path class="n" d="M20.66,48.87c.13-1,.01-1.75-.59-2.57-.5-.68-.81-1.17-.42-2.05,.13-.29,.29-.69,.19-1.02-.29-1.02-1.29-1.44-1.5-2.53-.21-1.11,.26-2.45-.42-3.41-.07-.1-.27-.08-.25,.07,.1,1.08-.1,2.14,.1,3.21,.07,.38,.11,.83,.31,1.16,.29,.47,.75,.76,1.07,1.21,.42,.58-.15,1.36-.3,1.93-.09,.35,.06,.68,.21,.99,.3,.57,.82,.98,1.06,1.6,.2,.5,.08,1,.36,1.47,.05,.09,.16,.04,.17-.05h0Z"/><path class="n" d="M19.96,49.3c.06-.51-.15-.9-.33-1.37-.24-.65-.9-.94-1.28-1.49-.67-.97,.13-1.7,.28-2.62,.05-.31-.09-.73-.31-.95-.45-.46-1-.71-1.4-1.23-.74-.98,.2-1.69,.24-2.62,.02-.57-.26-1.87-1.1-1.73-.12,.02-.17,.18-.11,.27,.36,.6,.71,.93,.54,1.69-.13,.59-.46,.96-.46,1.59,0,.95,.89,1.66,1.61,2.1,.94,.57,.32,1.22,.09,1.94-.16,.51-.11,.9,.08,1.4,.13,.34,.41,.73,.71,.95,.67,.49,1.08,1.29,1.33,2.09,.02,.07,.12,.05,.12-.02h0Z"/><path class="n" d="M18.78,49.18c-.21-.54-.5-1-.84-1.47-.58-.77-1.31-1.02-1.04-2.18,.19-.82,.64-1.64-.22-2.23-.77-.53-1.78-1.16-1.61-2.26,.09-.57,.53-1.02,.7-1.57,.27-.88-.06-1.83-.96-2.16-.11-.04-.21,.1-.15,.19,.53,.74,.96,1.32,.47,2.24-.21,.39-.44,.74-.58,1.16-.3,.91,.48,1.88,1.16,2.37,.78,.56,1.14,.79,.79,1.83-.18,.54-.22,1.01-.08,1.56,.09,.36,.38,.63,.65,.86,.62,.52,1.1,1.09,1.62,1.71,.04,.04,.11,0,.09-.05h0Z"/><path class="n" d="M17.09,48.55c-1.13-.76-1.62-1.75-1.27-3.11,.18-.71,.1-1.22-.39-1.77-.39-.43-.91-.65-1.28-1.13-.47-.62-.23-1.36-.02-2.02,.22-.7,.36-1.45-.06-2.11-.06-.09-.19-.05-.19,.05-.11,1.96-1.49,3.99,.74,5.28,1.12,.65,.7,1.25,.61,2.24-.04,.46-.04,.97,.17,1.4,.31,.61,.9,1.32,1.62,1.41,.14,.02,.16-.18,.07-.24h0Z"/><path class="n" d="M13.86,47.8c.69-.62,1.16-1.78,.9-2.69-.31-1.06-1.63-1.84-2.69-1.69-.09,.01-.11,.17-.03,.2,.94,.41,1.87,.54,2.31,1.6,.26,.64-.19,1.96-.62,2.45-.08,.09,.04,.21,.13,.13h0Z"/></g></g><path class="q" d="M16.05,48.06c-.36,0-.72,0-1.08,.01-.13,0-.27,0-.38,.08-.08,.06-.13,.16-.13,.26,0,.25,.28,.39,.49,.52,.13,.08,.26,.19,.37,.3,.04,.04-.16,.64-.22,.66-.94,1.93-2.89,6.15-3.35,7-.32-.23-.77-.43-1.15-.35-.05,0-.09,.02-.12,.06-.06,.08,.03,.19,.11,.25,.29,.23,.6,.43,.92,.6-.19,.38-.31,.57-.46,.93-.03,.08-.24,.84,.16,.81,.46-.03,.74-.95,.86-1.4,.29,.15,.64,.32,.99,.42,.2,.06,.36-.17,.23-.34-.18-.22-.43-.4-.67-.46,1.41-2.15,2.71-4.38,3.88-6.67,.04-.07,.08-.15,.15-.19,.07-.04,.19-.01,.21,.07,0,0,0,.13,0,.14-.38,2.65-.88,5.22-1.5,7.82-.23-.05-.46-.03-.69-.08-.12-.03-.25-.05-.37-.01-.12,.04-.22,.16-.18,.28,.03,.08,.11,.13,.18,.17,.28,.14,.63,.13,.95,.14-.08,.32-.32,.94-.27,1.26,.03,.22,.35,.25,.44,.05,.17-.39,.34-.73,.45-1.16,.27,.22,.7,.34,.99,.35,.11,0,.18-.09,.16-.19-.03-.15-.13-.28-.26-.37-.17-.11-.4-.2-.6-.23,.63-2.71,1.62-5.34,2.76-7.89,.04-.1,.19-.08,.21,.03,.24,1.46,.41,2.62,.42,4.1,.01,1.27-.02,2.9-.04,4.25,0,.04-.04,.08-.08,.08-.36,0-.65-.07-1.02,.03-.07,.02-.15,.05-.19,.11-.09,.15,.1,.31,.26,.36,.28,.08,.79,.05,.91,.03,.01,0,.02,0,.02,.02,0,.24,0,.54-.01,.77,0,.13,0,.27,.05,.39,.06,.12,.2,.21,.32,.16,.13-.05,.18-.21,.2-.35,.05-.33,.08-.66,.08-.99,0-.02,.02-.03,.04-.03,.27,.02,.54,.02,.8,0,.12-.01,.26-.03,.34-.13,.13-.15,.03-.38-.16-.42-.45-.09-.9,.08-.9,.08-.01,0-.02,0-.02-.02,.55-4.31,.97-8.02,1.49-8.33,.14-.08,.3-.01,.35,.14,.59,1.76,.97,3.59,1.29,5.41,.15,.86,.34,1.68,.27,2.54,0,.09-.08,.16-.17,.17-.25,.03-.52,.15-.72,.27-.06,.04-.13,.09-.16,.15-.07,.15,.07,.33,.23,.36,.16,.04,.32-.03,.47-.09s.3-.14,.47-.14c.07,0,.13,.74,.33,1.1,.06,.11,.19,.06,.23-.06,.08-.23,.11-.72,.02-1.07-.02-.06,.03-.12,.09-.12,.29-.03,.62-.09,.89-.11,.2-.02,.46-.13,.4-.32-.05-.15-.16-.3-.45-.24-.37,.07-.59,.13-.96,.18-.09-3.15-.23-5.15-.48-8.01-.04-.5,.4-.45,.53-.21,.57,1.01,1.41,2.87,1.95,3.88,.54,1,1.29,2.07,1.85,3.06,.09,.16,.15,.34,.18,.52,.02,.12,.02,.17-.1,.25-.11,.06-.35,.19-.46,.25-.11,.06-.18,.23-.08,.31,.03,.02,.08,.03,.12,.03,.2,.01,.36-.09,.53-.2,.07-.04,.51-.28,.69,.56,.03,.15,.07,.31,.2,.39,.3,.18,.51-.15,.47-.4-.03-.21-.17-.37-.29-.55-.11-.18-.2-.4-.12-.59,.08-.2,.28-.19,.48-.29,.11-.05,.22-.14,.29-.25,.1-.14-.04-.34-.21-.29-.17,.04-.34,.15-.47,.26-.21,.18-.47,.38-.58,.12-.86-1.9-1.29-3.39-2.05-5.04-.23-.51-.46-1.02-.67-1.54-.2-.5-.41-1.14-.11-1.62,.14-.23,.37-.37,.59-.53,.23-.16,.46-.35,.54-.62,.08-.28-.11-.57-.39-.64-1.18-.25-2.45,.08-3.66,.15-2.44,.15-4.89-.34-7.32-.08l.37-.07Z"/><path class="v" d="M26.49,48.39c-.32,0-.32,.49,0,.49s.32-.49,0-.49h0Z"/><path class="v" d="M25.64,48.37c-.35,0-.35,.54,0,.54s.35-.54,0-.54h0Z"/><path class="v" d="M24.63,48.37c-.34,0-.34,.53,0,.53s.34-.53,0-.53h0Z"/><path class="v" d="M23.78,48.41c-.33,0-.33,.51,0,.51s.33-.51,0-.51h0Z"/><path class="v" d="M22.74,48.43c-.37,0-.37,.58,0,.58s.37-.58,0-.58h0Z"/><path class="v" d="M21.76,48.48c-.37,0-.37,.58,0,.58s.37-.58,0-.58h0Z"/><path class="v" d="M20.85,48.47h-.02c-.21-.02-.33,.24-.24,.41,.11,.19,.36,.16,.47,0h0c.13-.19-.05-.39-.23-.41h0Z"/><path class="v" d="M19.9,48.46c-.33,0-.33,.52,0,.52s.33-.52,0-.52h0Z"/><path class="v" d="M18.92,48.33c-.36,0-.36,.55,0,.55s.36-.55,0-.55h0Z"/><path class="v" d="M18.02,48.31c-.38,0-.38,.59,0,.59s.38-.59,0-.59h0Z"/><path class="v" d="M16.98,48.31c-.35,0-.35,.54,0,.54s.35-.54,0-.54h0Z"/><path class="v" d="M16.08,48.33c-.32,0-.32,.5,0,.5s.32-.5,0-.5h0Z"/><path class="v" d="M15.28,48.32c-.34,0-.34,.53,0,.53s.34-.53,0-.53h0Z"/><path class="x" d="M24.89,50.73h-.01c-.12,.15-.12,.34,0,.48h.01c.21,.24,.59,.06,.59-.23s-.38-.47-.59-.25h0Z"/><path class="x" d="M22.98,50.92c-.23,0-.43,.19-.43,.43s.2,.43,.43,.43,.43-.19,.43-.43-.19-.43-.43-.43h0Z"/><path class="x" d="M20.29,51.04c-.23,0-.43,.19-.43,.43s.2,.43,.43,.43,.43-.19,.43-.43-.2-.43-.43-.43h0Z"/><path class="x" d="M17.39,50.83h0c-.13,.14-.16,.36-.07,.52,.1,.17,.29,.23,.47,.19h.01c.27-.06,.38-.4,.25-.62-.14-.24-.47-.27-.66-.09h0Z"/><path class="x" d="M15.56,50h-.02c-.2,.16-.26,.42-.08,.61h.01c.21,.23,.58,.12,.66-.16,.04-.14,0-.29-.1-.39-.12-.12-.34-.17-.48-.06h0Z"/><path class="v" d="M21.95,57.05c-.35,0-.35,.54,0,.54s.35-.54,0-.54h0Z"/><path class="v" d="M25.74,51.68h0c0-.34-.52-.34-.52,0h0c0,.34,.52,.34,.52,0h0Z"/><path class="v" d="M23.12,51.86c-.4,0-.4,.61,0,.61s.4-.61,0-.61h0Z"/><path class="v" d="M20.22,52.02c-.33,0-.33,.51,0,.51s.33-.51,0-.51h0Z"/><path class="v" d="M17.43,51.74c-.35,0-.35,.54,0,.54s.35-.54,0-.54h0Z"/><path class="v" d="M15.41,50.86c-.32,0-.32,.5,0,.5s.32-.5,0-.5h0Z"/><g><path class="q" d="M13.68,32.93c.19-.18,.19-.47,.17-.73-.03-.4-.07-.82-.22-1.19-.16-.38-.44-.71-.83-.83-.46-.14-3.65,.17-4.77,.3-.22,.03-.44,.06-.64,.15-.5,.21-.85,.71-.93,1.25-.12,.75,.31,1.56,1,1.89,.65,.31,1.41,.21,2.12,.11,1.27-.19,2.54-.38,3.76-.78,.12-.04,.25-.08,.34-.17Z"/><path class="k" d="M14.34,33.96c.21,.59-.05,1.26-.25,1.85-.1,.31-1.4,1.62-3.4,2.41-1.59,.63-2.76-.27-3.32-.64-.61-.4-1.08-1.77-.92-2.48,.19-.84,.67-1.3,1.49-1.56,1.35-.43,1.98-.14,3.06-.29,.85-.12,1.96-.54,2.75-.21,.3,.13,.48,.6,.6,.91Z"/><path class="x" d="M9.54,37.68c-.67,.41-1.52-.61-1.84-1.08-.24-.35-.41-.76-.41-1.19,0-.49,.39-.99,.92-.85,.19,.05,.38,.26,.35,.46-.02,.16-.14,.39-.14,.46-.01,.23,.11,.49,.21,.69,.22,.44,.52,.83,.91,1.12,.13,.1,.15,.28,0,.38h0Z"/><path class="x" d="M10.61,37.2c-.45,.08-.84-.71-1.02-1.03-.32-.57-.44-1.29,.15-1.72,.39-.29,.95,.28,.67,.67-.21,.3,.08,.74,.2,1.03,.08,.21,.46,.97,0,1.05h0Z"/><path class="x" d="M11.65,36.28c-.16-.23-.19-.55-.25-.82-.07-.29-.17-.64-.13-.94,.07-.5,.69-.61,.88-.12,.11,.29,.11,.64,.14,.94,.03,.3,.05,.66-.1,.94-.12,.22-.41,.19-.54,0h0Z"/><path class="x" d="M13.08,35.63c-.07-.25-.01-.51-.05-.77-.04-.31-.2-.6-.29-.9-.09-.3,.32-.56,.54-.31,.44,.49,.69,1.63,.07,2.09-.1,.07-.24,0-.27-.11h0Z"/><path class="a`" d="M7.57,33.03c.17,0,.17,.27,0,.27s-.18-.27,0-.27h0Z"/><path class="a`" d="M6.96,32.5c.1,0,.1,.16,0,.16s-.1-.16,0-.16h0Z"/><path class="a`" d="M7.62,32.2c.21,0,.21,.33,0,.33s-.21-.33,0-.33h0Z"/><path class="a`" d="M7.33,31.59c.14,0,.14,.22,0,.22s-.14-.22,0-.22h0Z"/><path class="a`" d="M8.2,31.64s.02,.03,0,.03-.02-.03,0-.03h0Z"/><path class="a`" d="M8.26,31.6c.13,0,.13,.2,0,.2s-.13-.2,0-.2h0Z"/><path class="a`" d="M8.34,32.93c.13,0,.13,.21,0,.21s-.13-.21,0-.21h0Z"/><path class="a`" d="M8.71,32.34c.17,0,.17,.27,0,.27s-.17-.27,0-.27h0Z"/><path class="a`" d="M7.86,30.73c.19,0,.19,.3,0,.3s-.19-.3,0-.3h0Z"/><path class="a`" d="M8.95,31.12c.17,0,.17,.27,0,.27s-.17-.27,0-.27h0Z"/><path class="a`" d="M9.4,31.77c.15,0,.15,.23,0,.23s-.15-.23,0-.23h0Z"/><path class="a`" d="M9.56,32.66c.17,0,.17,.26,0,.26s-.17-.26,0-.26h0Z"/><path class="a`" d="M10.49,32.83c.16,0,.16,.24,0,.24s-.15-.24,0-.24h0Z"/><path class="a`" d="M10.38,32.08c.16,0,.16,.25,0,.25s-.16-.25,0-.25h0Z"/><path class="a`" d="M11.07,32.39c.1,0,.1,.16,0,.16s-.1-.16,0-.16h0Z"/><path class="a`" d="M10.17,31.24c.18,0,.18,.28,0,.28s-.18-.28,0-.28h0Z"/><path class="a`" d="M9.69,30.58c.11,0,.11,.18,0,.18s-.11-.18,0-.18h0Z"/><path class="a`" d="M8.58,30.52h.01c.08-.08,.2-.04,.2,.07s-.13,.15-.2,.08h-.01s-.04-.12,0-.15h0Z"/><path class="a`" d="M11.02,31.32c.16,0,.16,.24,0,.24s-.16-.24,0-.24h0Z"/><path class="a`" d="M10.78,30.54c.13,0,.13,.21,0,.21s-.13-.21,0-.21h0Z"/></g><path class="v" d="M25.73,24.85c-.05-.05-.1-.08-.17-.1-.11-.03-.22,.02-.28,.11-.07,.12-.02,.26,.09,.34,.04,.03,.08,.05,.13,.06,.22,.04,.43-.23,.24-.4h0Z"/><path class="v" d="M13.56,37.87c-.2,0-.2,.3,0,.3s.19-.3,0-.3h0Z"/><path class="v" d="M18.36,34.5c-.17,0-.17,.27,0,.27s.17-.27,0-.27h0Z"/><path class="v" d="M23.31,27.77c-.28,0-.28,.43,0,.43s.28-.43,0-.43h0Z"/><path class="v" d="M18.21,37.8c-.28,0-.28,.43,0,.43s.28-.43,0-.43h0Z"/><path class="v" d="M25.5,28.79s.05-.05,.07-.08c.12-.25-.23-.47-.38-.22v.02s.04-.05,.07-.08c0,0-.02,.01-.03,.02-.1,.07-.15,.19-.08,.31,.08,.13,.25,.14,.35,.05h0Z"/><path class="v" d="M24.13,26.17c-.29,0-.29,.45,0,.45s.29-.45,0-.45h0Z"/><path class="v" d="M28.16,23.13c.07-.01,.12-.05,.17-.09,.18-.15-.05-.42-.24-.32h.02c-.3,0-.25,.46,.05,.4h0Z"/><path class="v" d="M23.68,23.92v-.02c-.08-.13-.3-.13-.37,0,0,0,0,.01-.01,.02-.07,.15,.01,.33,.19,.33s.26-.18,.19-.33h0Z"/></g><g><path class="v" d="M5.42,11.77c0,.1-.04,.24-.04,.35s0,.2,.01,.31c.04,.35,.16,.68,.42,.91-.23,.01-.82,.01-1.06,0,.26-.23,.38-.56,.42-.91,.01-.1,.01-.2,.01-.31s-.04-.25-.04-.35h.27Z"/><path class="v" d="M5.35,12.02c.1,.02,.16,.11,.33,.3,.16,.18,.32,.36,.69,.41,.19,.02,.44-.08,.55-.23,.1-.13,.15-.28,.19-.44,.08-.29,.05-.58-.09-.84-.14-.26-.53-.38-.76-.24-.13,.08-.17,.17-.28,.19-.04,0-.07-.03-.06-.06,.05-.18,.17-.2,.23-.41,.07-.25,.11-.44-.25-.76-.27-.24-.94-.22-1.22,0-.29,.22-.32,.42-.25,.67,.06,.2,.17,.29,.22,.45,.02,.06-.04,.11-.09,.09-.08-.03-.13-.11-.24-.18-.24-.14-.62-.03-.76,.24-.14,.26-.17,.55-.1,.84,.04,.15,.09,.31,.19,.44,.11,.15,.36,.25,.55,.23,.37-.04,.53-.23,.69-.41,.18-.19,.24-.29,.33-.3h.13Z"/></g><path class="v" d="M7.87,8.74h-.79l-1.72-3.18-1.32,1.64v1.53h-.72V3h.72v3.33l2.6-3.33h.78l-1.56,2.01,2,3.74Z"/><g><path class="v" d="M35.51,50.52c0-.1,.04-.24,.04-.35s0-.2-.01-.31c-.04-.35-.16-.68-.42-.91,.24-.01,.83-.01,1.06,0-.26,.23-.38,.56-.42,.91-.01,.1-.01,.2-.01,.31s.04,.25,.04,.35h-.27Z"/><path class="v" d="M35.58,50.27c-.1-.02-.16-.11-.33-.31-.16-.18-.32-.36-.69-.41-.19-.02-.44,.08-.55,.23-.09,.13-.15,.28-.19,.44-.08,.29-.05,.58,.09,.84,.14,.26,.53,.38,.76,.24,.13-.08,.17-.17,.28-.19,.04,0,.07,.03,.06,.06-.05,.18-.17,.2-.23,.41-.07,.25-.11,.44,.25,.76,.27,.24,.94,.22,1.22,0,.29-.22,.32-.42,.25-.67-.05-.2-.17-.29-.22-.45-.02-.06,.04-.11,.09-.09,.08,.03,.13,.11,.24,.18,.24,.14,.62,.03,.76-.24,.14-.26,.17-.55,.09-.84-.04-.15-.09-.31-.19-.44-.11-.15-.36-.25-.55-.23-.37,.05-.53,.23-.69,.41-.18,.2-.24,.29-.34,.31h-.13Z"/></g><path class="v" d="M33.06,53.54h.79l1.72,3.17,1.32-1.64v-1.53h.72v5.75h-.72v-3.33l-2.6,3.33h-.78l1.56-2.01-2-3.74Z"/><g><path class="k" d="M10.34,59.11H6.1c-1.58,0-2.91-1.46-2.91-3.19V15.66c0-.05,.04-.09,.09-.09s.09,.04,.09,.09V55.92c0,1.63,1.25,3,2.72,3h4.24c.05,0,.09,.04,.09,.09s-.04,.09-.09,.09Z"/><path class="k" d="M32.78,59.11h-2.42c-.05,0-.09-.04-.09-.09s.04-.09,.09-.09h2.42c.05,0,.09,.04,.09,.09s-.04,.09-.09,.09Z"/><path class="k" d="M37.65,46.92c-.05,0-.09-.04-.09-.09V6.36c0-1.66-1.26-3-2.82-3h-4.08c-.05,0-.09-.04-.09-.09s.04-.09,.09-.09h4.08c1.66,0,3,1.43,3,3.19V46.82c0,.05-.04,.09-.09,.09Z"/><path class="k" d="M10.61,3.36h-2.17c-.05,0-.09-.04-.09-.09s.04-.09,.09-.09h2.17c.05,0,.09,.04,.09,.09s-.04,.09-.09,.09Z"/></g></g></g></g></svg>