<?xml version="1.0" encoding="UTF-8"?><svg xmlns="http://www.w3.org/2000/svg" viewBox="0 0 40.93 62.29"><defs><style>.d{fill:#fff;}.e{fill:#2d2d2d;}.f{fill:#0c0a35;}</style></defs><g id="a"/><g id="b"><g id="c"><g><g><path class="d" d="M3.54,.09H37.39c1.9,0,3.45,1.55,3.45,3.45V58.74c0,1.9-1.55,3.45-3.45,3.45H3.54c-1.9,0-3.45-1.55-3.45-3.45V3.54C.09,1.64,1.64,.09,3.54,.09Z"/><path class="e" d="M37.39,62.29H3.54c-1.95,0-3.54-1.59-3.54-3.54V3.54C0,1.59,1.59,0,3.54,0H37.39c1.95,0,3.54,1.59,3.54,3.54V58.74c0,1.95-1.59,3.54-3.54,3.54ZM3.54,.19C1.69,.19,.19,1.69,.19,3.54V58.74c0,1.85,1.51,3.36,3.36,3.36H37.39c1.85,0,3.36-1.51,3.36-3.36V3.54c0-1.85-1.5-3.36-3.36-3.36H3.54Z"/></g><g><path class="f" d="M5.42,11.77c0,.1-.04,.24-.04,.35,0,.1,0,.2,.01,.31,.04,.35,.16,.68,.42,.91-.24,.01-.83,.01-1.06,0,.26-.23,.38-.56,.42-.91,.01-.1,.01-.2,.01-.31s-.04-.25-.04-.35h.27Z"/><path class="f" d="M5.35,12.02c.1,.02,.16,.11,.33,.3,.16,.18,.32,.36,.69,.41,.19,.02,.44-.08,.55-.23,.1-.13,.15-.28,.19-.44,.08-.29,.05-.58-.1-.84-.14-.26-.52-.38-.76-.24-.13,.08-.17,.17-.28,.19-.04,0-.07-.03-.06-.06,.05-.18,.17-.2,.23-.41,.07-.25,.11-.44-.25-.76-.27-.24-.94-.22-1.22,0-.29,.22-.32,.42-.25,.67,.06,.2,.17,.29,.22,.45,.02,.06-.04,.11-.09,.09-.08-.03-.13-.11-.24-.18-.24-.14-.62-.03-.76,.24-.14,.26-.17,.55-.09,.84,.04,.15,.09,.31,.19,.44,.11,.15,.36,.25,.55,.23,.37-.04,.53-.23,.69-.41,.18-.19,.24-.29,.34-.3h.13Z"/></g><path class="f" d="M5.4,8.74h-.74c0-.96,.2-1.9,.59-2.81,.39-.91,.87-1.68,1.44-2.31H3.57l.07-.63h3.8v.43c-.68,.83-1.2,1.68-1.54,2.58-.34,.89-.51,1.74-.51,2.54,0,.04,0,.11,0,.2Z"/><g><g><path class="f" d="M35.49,50.52c0-.1,.04-.24,.04-.35s0-.2-.01-.31c-.04-.35-.16-.68-.42-.91,.24-.01,.83-.01,1.06,0-.26,.23-.38,.56-.42,.91-.01,.1-.01,.2-.01,.31,0,.1,.04,.25,.04,.35h-.27Z"/><path class="f" d="M35.56,50.27c-.1-.02-.15-.11-.33-.31-.16-.18-.32-.36-.69-.41-.19-.02-.44,.08-.55,.23-.09,.13-.15,.28-.19,.44-.08,.29-.05,.58,.09,.84,.14,.26,.52,.38,.76,.24,.13-.08,.17-.17,.28-.19,.04,0,.07,.03,.06,.06-.05,.18-.17,.2-.23,.41-.07,.25-.11,.44,.25,.76,.27,.24,.94,.22,1.22,0,.29-.22,.32-.42,.25-.67-.06-.2-.17-.29-.22-.45-.02-.06,.04-.11,.09-.09,.08,.03,.13,.11,.24,.18,.24,.14,.62,.03,.76-.24,.14-.26,.17-.55,.09-.84-.04-.15-.09-.31-.19-.44-.11-.15-.36-.25-.55-.23-.37,.05-.53,.23-.69,.41-.18,.2-.24,.29-.33,.31h-.13Z"/></g><path class="f" d="M35.36,53.54h.74c0,.96-.2,1.9-.59,2.81-.39,.91-.88,1.68-1.44,2.31h3.12l-.07,.63h-3.8v-.43c.68-.83,1.2-1.68,1.54-2.58,.34-.89,.51-1.74,.51-2.54,0-.04,0-.11,0-.2Z"/></g><g><path class="f" d="M20.35,20.2c0,.26,.1,.63,.1,.88,0,.26,0,.52-.03,.78-.1,.89-.42,1.73-1.08,2.32,.6,.04,2.11,.04,2.71,0-.66-.59-.98-1.44-1.08-2.32-.03-.26-.03-.52-.03-.78,0-.26,.1-.63,.1-.88h-.7Z"/><path class="f" d="M20.53,20.85c-.25,.04-.4,.28-.86,.78-.42,.45-.83,.93-1.77,1.05-.48,.06-1.11-.2-1.4-.58-.24-.33-.38-.72-.48-1.12-.19-.74-.12-1.48,.24-2.15,.36-.67,1.34-.97,1.95-.6,.32,.19,.43,.43,.73,.48,.09,.02,.17-.07,.14-.16-.12-.45-.44-.51-.59-1.05-.18-.64-.27-1.14,.64-1.94,.7-.61,2.39-.56,3.13,0,.75,.57,.82,1.09,.64,1.72-.14,.5-.43,.73-.56,1.16-.05,.14,.09,.28,.23,.23,.22-.09,.33-.28,.61-.45,.61-.36,1.58-.07,1.95,.6,.36,.67,.44,1.41,.24,2.15-.1,.4-.24,.79-.48,1.12-.29,.38-.93,.64-1.4,.58-.94-.12-1.35-.6-1.77-1.05-.46-.5-.6-.74-.86-.78h-.33Z"/></g><g><g><path class="f" d="M13.65,8.83c0,.26,.1,.63,.1,.88,0,.26,0,.52-.03,.78-.1,.89-.41,1.73-1.08,2.32,.6,.04,2.11,.04,2.71,0-.66-.59-.98-1.44-1.08-2.32-.03-.26-.03-.52-.03-.78,0-.26,.1-.63,.1-.88h-.7Z"/><path class="f" d="M13.83,9.47c-.25,.04-.4,.28-.86,.78-.42,.45-.83,.93-1.77,1.05-.48,.06-1.11-.2-1.4-.58-.24-.33-.38-.72-.48-1.12-.19-.74-.12-1.48,.24-2.15,.36-.67,1.34-.97,1.95-.6,.32,.19,.43,.43,.73,.48,.09,.02,.17-.07,.14-.16-.12-.45-.44-.51-.59-1.05-.18-.64-.28-1.13,.63-1.94,.7-.61,2.39-.56,3.13,0,.75,.57,.82,1.09,.64,1.72-.14,.5-.43,.73-.56,1.16-.05,.14,.09,.28,.23,.23,.22-.09,.33-.29,.61-.45,.61-.36,1.58-.07,1.95,.6,.37,.67,.44,1.41,.24,2.15-.1,.4-.24,.79-.48,1.12-.29,.39-.93,.64-1.4,.58-.94-.12-1.35-.59-1.77-1.05-.46-.5-.6-.74-.86-.78h-.33Z"/></g><g><path class="f" d="M26.58,8.83c0,.26,.1,.63,.1,.88,0,.26,0,.52-.03,.78-.1,.89-.41,1.73-1.08,2.32,.6,.04,2.11,.04,2.71,0-.66-.59-.98-1.44-1.08-2.32-.03-.26-.03-.52-.03-.78,0-.26,.1-.63,.1-.88h-.7Z"/><path class="f" d="M26.76,9.47c-.25,.04-.4,.28-.86,.78-.42,.45-.83,.93-1.77,1.05-.48,.06-1.11-.2-1.4-.58-.25-.33-.38-.72-.48-1.12-.19-.74-.12-1.48,.24-2.15,.36-.67,1.34-.97,1.95-.6,.32,.19,.43,.43,.73,.48,.09,.02,.17-.07,.15-.16-.12-.45-.44-.51-.59-1.05-.18-.64-.28-1.13,.63-1.94,.7-.61,2.39-.56,3.13,0,.75,.57,.82,1.09,.64,1.72-.14,.5-.43,.73-.56,1.16-.05,.14,.09,.28,.23,.23,.22-.09,.33-.29,.61-.45,.61-.36,1.58-.07,1.95,.6,.37,.67,.44,1.41,.24,2.15-.1,.4-.24,.79-.48,1.12-.29,.39-.92,.64-1.4,.58-.94-.12-1.35-.59-1.77-1.05-.46-.5-.6-.74-.86-.78h-.33Z"/></g></g><g><g><path class="f" d="M13.65,31.68c0,.26,.1,.63,.1,.88,0,.26,0,.52-.03,.78-.1,.89-.41,1.73-1.08,2.32,.6,.04,2.11,.04,2.71,0-.66-.59-.98-1.44-1.08-2.32-.03-.26-.03-.52-.03-.78,0-.26,.1-.63,.1-.88h-.7Z"/><path class="f" d="M13.83,32.32c-.25,.04-.4,.28-.86,.78-.42,.45-.83,.93-1.77,1.05-.48,.06-1.11-.2-1.4-.58-.24-.33-.38-.72-.48-1.12-.19-.74-.12-1.48,.24-2.15,.36-.67,1.34-.97,1.95-.6,.32,.19,.43,.43,.73,.48,.09,.02,.17-.07,.14-.16-.12-.45-.44-.51-.59-1.05-.18-.64-.28-1.13,.63-1.94,.7-.61,2.39-.56,3.13,0,.75,.57,.82,1.09,.64,1.72-.14,.5-.43,.73-.56,1.16-.05,.14,.09,.28,.23,.23,.22-.09,.33-.29,.61-.45,.61-.36,1.58-.07,1.95,.6,.37,.67,.44,1.41,.24,2.15-.1,.4-.24,.79-.48,1.12-.29,.38-.93,.64-1.4,.58-.94-.12-1.35-.59-1.77-1.05-.46-.5-.6-.74-.86-.78h-.33Z"/></g><g><path class="f" d="M26.58,31.68c0,.26,.1,.63,.1,.88,0,.26,0,.52-.03,.78-.1,.89-.41,1.73-1.08,2.32,.6,.04,2.11,.04,2.71,0-.66-.59-.98-1.44-1.08-2.32-.03-.26-.03-.52-.03-.78,0-.26,.1-.63,.1-.88h-.7Z"/><path class="f" d="M26.76,32.32c-.25,.04-.4,.28-.86,.78-.42,.45-.83,.93-1.77,1.05-.48,.06-1.11-.2-1.4-.58-.25-.33-.38-.72-.48-1.12-.19-.74-.12-1.48,.24-2.15,.36-.67,1.34-.97,1.95-.6,.32,.19,.43,.43,.73,.48,.09,.02,.17-.07,.15-.16-.12-.45-.44-.51-.59-1.05-.18-.64-.28-1.13,.63-1.94,.7-.61,2.39-.56,3.13,0,.75,.57,.82,1.09,.64,1.72-.14,.5-.43,.73-.56,1.16-.05,.14,.09,.28,.23,.23,.22-.09,.33-.29,.61-.45,.61-.36,1.58-.07,1.95,.6,.37,.67,.44,1.41,.24,2.15-.1,.4-.24,.79-.48,1.12-.29,.38-.92,.64-1.4,.58-.94-.12-1.35-.59-1.77-1.05-.46-.5-.6-.74-.86-.78h-.33Z"/></g></g><g><g><path class="f" d="M27.28,53.46c0-.26-.1-.63-.1-.88,0-.26,0-.52,.03-.78,.1-.89,.41-1.73,1.08-2.32-.6-.04-2.11-.04-2.71,0,.66,.59,.98,1.44,1.08,2.32,.03,.26,.03,.52,.03,.78,0,.26-.1,.63-.1,.88h.7Z"/><path class="f" d="M27.1,52.82c.25-.04,.4-.28,.86-.78,.42-.45,.83-.93,1.77-1.05,.48-.06,1.11,.2,1.4,.58,.24,.33,.38,.72,.48,1.12,.2,.74,.12,1.48-.24,2.15-.36,.67-1.34,.97-1.95,.6-.32-.19-.43-.43-.73-.48-.09-.02-.17,.07-.15,.16,.12,.45,.44,.51,.59,1.05,.18,.64,.28,1.13-.64,1.94-.7,.61-2.39,.56-3.13,0-.75-.57-.82-1.09-.64-1.72,.14-.5,.43-.73,.56-1.16,.04-.14-.09-.28-.23-.23-.22,.09-.33,.29-.61,.45-.6,.36-1.58,.07-1.95-.6-.37-.67-.44-1.41-.24-2.15,.1-.39,.24-.79,.48-1.12,.29-.38,.92-.64,1.4-.58,.94,.12,1.35,.59,1.77,1.05,.46,.5,.6,.74,.86,.78h.33Z"/></g><g><path class="f" d="M14.35,53.46c0-.26-.1-.63-.1-.88,0-.26,0-.52,.03-.78,.1-.89,.41-1.73,1.08-2.32-.6-.04-2.11-.04-2.71,0,.66,.59,.98,1.44,1.08,2.32,.03,.26,.03,.52,.03,.78,0,.26-.1,.63-.1,.88h.7Z"/><path class="f" d="M14.17,52.82c.25-.04,.4-.28,.86-.78,.42-.45,.83-.93,1.77-1.05,.48-.06,1.11,.2,1.4,.58,.24,.33,.38,.72,.48,1.12,.19,.74,.12,1.48-.24,2.15-.36,.67-1.34,.97-1.95,.6-.32-.19-.43-.43-.73-.48-.09-.02-.17,.07-.14,.16,.12,.45,.44,.51,.59,1.05,.18,.64,.28,1.13-.63,1.94-.7,.61-2.39,.56-3.13,0-.75-.57-.82-1.09-.64-1.72,.14-.5,.43-.73,.56-1.16,.05-.14-.09-.28-.23-.23-.22,.09-.33,.29-.61,.45-.61,.36-1.58,.07-1.95-.6-.37-.67-.44-1.41-.24-2.15,.1-.39,.24-.79,.48-1.12,.29-.38,.93-.64,1.4-.58,.94,.12,1.35,.59,1.77,1.05,.46,.5,.6,.74,.86,.78h.33Z"/></g></g></g></g></g></svg>