<?xml version="1.0" encoding="UTF-8"?><svg xmlns="http://www.w3.org/2000/svg" xmlns:xlink="http://www.w3.org/1999/xlink" viewBox="0 0 41.08 62.51"><defs><style>.h{fill:#fff;}.i{fill:#191956;}.j{fill:#ffd6a1;}.k{fill:#b70027;}.l{clip-path:url(#e);}.m{clip-path:url(#d);}.n{fill:#222272;}.o{fill:none;}.p{fill:#fcc07e;}.q{fill:#2d2d2d;}.r{clip-path:url(#f);}.s{fill:#0c0a35;}.t{fill:#990028;}.u{clip-path:url(#g);}.v{fill:#f70032;}</style><clipPath id="d"><path class="o" d="M25.84,56.44c1.13-1.16,1.18-7.26,1.18-7.41,.03-.73-.62-4.67-.32-5.37,.24-.56,.79-.82,1.12-1.34,.33-.51,.43-1.19,.17-1.74-.22-.48-.67-.82-1.17-1.01-1.23-.48-2.5-.3-3.66,.32-.2,.11-.53,.41-.69,.56-.17,.16-.3,.37-.39,.59-.2,.48-.21,1.01-.19,1.53,.08,1.64,.5,3.24,.93,4.83,.12,.44,.24,.9,.48,1.29,.57,.96-.92,8.37,2.54,7.75Z"/></clipPath><clipPath id="e"><path class="o" d="M25.06,57.45c.52-.36,.89-.93,1.01-1.55,.08-.43,.05-.87,.02-1.31-.35-.12-.64-.09-1.01-.06-2.02,.17-4.06,.16-6.09-.02,.44-2.84-.16-5.73-.14-8.61,.01-1.85,.17-2.74-.3-4.53-.43-1.63-1.34-1.7-2.51-1.68-1.1,.02-2.3,.21-3.13,.93-.83,.72-1.03,2.23-.61,3.24,.33,.8,1.13,1.31,1.96,1.55,.2,.06,.43,.12,.54,.29,.07,.11,.08,.24,.08,.37,.12,2.09,.24,4.19,.36,6.28,.05,.92,.22,1.67,.5,2.55,.28,.88,1.05,1.43,1.85,1.88,.74,.41,1.27,.93,2.12,.97,1.03,.05,2.06,.1,3.1,.15,.43,.02,.87,.04,1.28-.06l.97-.4Z"/></clipPath><clipPath id="f"><path class="o" d="M15.49,6.26c-1.13,1.15-1.18,7.26-1.18,7.41-.03,.73,.62,4.67,.32,5.37-.24,.56-.79,.82-1.12,1.34-.33,.51-.43,1.19-.17,1.74,.22,.48,.68,.82,1.17,1.01,1.23,.48,2.5,.3,3.66-.32,.19-.11,.53-.41,.69-.56,.17-.16,.3-.37,.39-.59,.2-.48,.21-1.01,.19-1.53-.08-1.64-.5-3.24-.93-4.83-.12-.44-.24-.9-.48-1.29-.57-.96,.92-8.37-2.54-7.75Z"/></clipPath><clipPath id="g"><path class="o" d="M16.28,5.25c-.52,.36-.89,.93-1.01,1.55-.08,.43-.05,.87-.02,1.31,.35,.12,.64,.09,1.01,.06,2.02-.17,4.06-.16,6.08,.02-.44,2.84,.16,5.73,.14,8.61-.01,1.85-.17,2.74,.3,4.53,.43,1.63,1.34,1.7,2.51,1.68,1.1-.02,2.3-.21,3.13-.93,.83-.72,1.02-2.23,.61-3.24-.33-.8-1.13-1.31-1.96-1.55-.2-.06-.43-.12-.54-.29-.07-.11-.08-.24-.08-.37-.12-2.09-.24-4.19-.36-6.28-.05-.92-.22-1.67-.5-2.55-.28-.88-1.05-1.43-1.85-1.88-.74-.41-1.27-.93-2.12-.97-1.03-.05-2.06-.1-3.1-.15-.43-.02-.87-.04-1.28,.06l-.97,.4Z"/></clipPath></defs><g id="a"/><g id="b"><g id="c"><g><g><path class="h" d="M3.56,.09H37.52c1.91,0,3.46,1.55,3.46,3.46V58.95c0,1.91-1.55,3.46-3.46,3.46H3.56c-1.91,0-3.46-1.55-3.46-3.46V3.55C.09,1.64,1.64,.09,3.56,.09Z"/><path class="q" d="M37.52,62.51H3.56c-1.96,0-3.56-1.6-3.56-3.56V3.56C0,1.59,1.59,0,3.56,0H37.52c1.96,0,3.56,1.59,3.56,3.56V58.95c0,1.96-1.6,3.56-3.56,3.56ZM3.56,.19C1.7,.19,.19,1.7,.19,3.56V58.95c0,1.86,1.51,3.37,3.37,3.37H37.52c1.86,0,3.37-1.51,3.37-3.37V3.56c0-1.86-1.51-3.37-3.37-3.37H3.56Z"/></g><g><path class="p" d="M31.77,38.36c-.02,.33-.08,.66-.25,.94-.23,.39-.65,.66-1.08,.88-1.64,.81-3.61,.92-5.49,.84-.59-.03-1.28-.04-1.69,.34-.26,.24-.34,.59-.39,.93-.1,.69-.08,1.4,.04,2.09,.03,.14,.05,.3-.01,.43-.07,.14-.24,.23-.39,.3-1.06,.49-3.27,2.39-4.38,2.8-.18-1.25,.71-4.04-.25-4.97-1.08-1.04-2.79-1.31-4.37-1.52-1.58-.21-3.3-.49-4.35-1.56-.65-.65-.96-1.53-1.04-2.4-.08-.87,.05-1.74,.19-2.6,.02-.13,.05-.28,.15-.37,.15-.14,.41-.13,.63-.12,1.02,.06,2.04-.08,3.05-.2,3.01-.36,6.07-.56,9.07-.15,1,.14,1.98,.34,2.98,.48,1.47,.21,2.96,.28,4.44,.17,.64-.05,1.32-.13,1.92,.08,.6,.21,1.09,.82,.84,1.34,.31,.72,.45,1.5,.4,2.26Z"/><path class="p" d="M9.57,24.35c.02-.33,.08-.66,.25-.94,.23-.39,.65-.66,1.08-.88,1.64-.81,3.61-.92,5.49-.84,.6,.03,1.28,.04,1.69-.34,.26-.24,.34-.59,.39-.93,.1-.69,.08-1.4-.04-2.09-.02-.14-.05-.3,.01-.43,.07-.14,.24-.22,.39-.3,1.06-.49,3.27-2.39,4.38-2.8,.19,1.25-.71,4.04,.25,4.97,1.08,1.04,2.79,1.31,4.38,1.52,1.58,.21,3.3,.5,4.35,1.56,.65,.65,.96,1.53,1.04,2.4,.08,.87-.05,1.74-.19,2.6-.02,.13-.05,.28-.15,.37-.15,.14-.41,.13-.63,.12-1.02-.06-2.04,.08-3.05,.2-3.01,.36-6.07,.56-9.07,.15-1-.14-1.98-.34-2.98-.49-1.46-.21-2.96-.28-4.44-.17-.64,.05-1.32,.13-1.92-.08s-1.09-.82-.84-1.34c-.31-.72-.45-1.49-.4-2.26Z"/><path class="i" d="M30.44,25.13c.36,.02,2.64-.89,2.87-.05,.34,1.25-.55,3.42-.2,4.46,.29,.87-1.33,2.12-1.27,3.03,.12,1.77,.55,5.3-.14,5.34-.69,.04-2.42-.22-3.11-.25-6.58-.25-10.49-.14-16.27-.4-1.08-.05-2.55,.19-2.59,.19-.54,.08-2.04,1.15-2.18-.15-.13-1.25-.08-3.73,.02-4.98,.07-.84,.14-1.69,.25-2.53,.18-1.44,.47-2.88,.85-4.29,.04-.15,.08-.31,.19-.43,.13-.15,.33-.23,.53-.31,2.88-1.06,6.13-.81,9.23-.55,1.12,.1,2.25,.19,3.33,.45,.77,.18,6.94,.37,8.5,.46Z"/><path class="s" d="M25.84,56.44c1.13-1.16,1.18-7.26,1.18-7.41,.03-.73-.62-4.67-.32-5.37,.24-.56,.79-.82,1.12-1.34,.33-.51,.43-1.19,.17-1.74-.22-.48-.67-.82-1.17-1.01-1.23-.48-2.5-.3-3.66,.32-.2,.11-.53,.41-.69,.56-.17,.16-.3,.37-.39,.59-.2,.48-.21,1.01-.19,1.53,.08,1.64,.5,3.24,.93,4.83,.12,.44,.24,.9,.48,1.29,.57,.96-.92,8.37,2.54,7.75Z"/><path class="s" d="M7.58,38.02c-.04-.16-.07-.34,0-.49,.08-.15,.24-.24,.39-.32,3.19-1.61,5.29-3.46,8.03-5.74,1.32-1.1,9.45-8.03,11.99-10.01,.13-.1,.27-.21,.43-.26,.24-.08,.5-.02,.74,.03,.97,.21,1.97,.43,2.82,.95,.85,.52,1.42,1.42,1.32,2.9-2.84,1.42-6.95,5.49-11.36,8.42-.98,.65-7.42,5.99-9.08,8.12-.09,.12-.19,.24-.32,.3-.19,.08-.9,.07-1.1,0-1.61-.54-3.45-2.26-3.86-3.91Z"/><path class="k" d="M25.2,53.11c1.2-.86,2.28-3.59,.5-4.46-.09-.04-.19,.05-.14,.14,.46,.75,.74,1.32,.59,2.23-.12,.72-.55,1.46-1.03,2-.04,.05,.01,.14,.07,.1h0Z"/><path class="k" d="M25.66,48.72c-.11-.31-.26-.59-.46-.86-.19-.26-.4-.61-.71-.74-.08-.03-.17,.02-.15,.11,.07,.29,.34,.52,.53,.75,.23,.26,.46,.53,.68,.8,.04,.05,.13,0,.11-.06h0Z"/><path class="k" d="M24.77,52.52c1.21-.4,1.24-2.32,.11-2.83-.08-.04-.18,.04-.13,.13,.21,.36,.51,.63,.6,1.05,.12,.52-.17,1.24-.64,1.49-.09,.04-.03,.19,.07,.16h0Z"/><g class="m"><path class="k" d="M26.35,57c-.53-.85-.71-1.84-.53-2.83,.18-.94,1.12-1.45,1.48-2.3,.71-1.69,.15-3.29-.87-4.73-.62-.87-.81-2.03-.81-3.08,0-.9,.36-1.77,.36-2.69,0-.64-.33-1.24-.7-1.73-.26-.35-.56-.64-.81-1.02-.27-.41-.3-.92-.51-1.36-.05-.11-.24-.03-.2,.08,.23,.73,.34,1.34,.76,1.99,.23,.35,.53,.64,.75,1,.41,.66,.33,1.44,.22,2.17-.26,1.75-.37,3.25,.6,4.84,.63,1.04,1.14,1.93,1.18,3.19,.03,1.23-1.04,2.03-1.59,3.01-.61,1.09-.18,2.65,.65,3.48,.02,.02,.05,0,.04-.03h0Z"/><path class="k" d="M26.99,56.22c-.73-.32-.63-1.04-.27-1.61,.28-.44,.85-.79,.97-1.31,.02-.09-.07-.16-.16-.12-.58,.29-1.41,1.24-1.48,1.92-.06,.58,.26,1.24,.92,1.2,.04,0,.06-.06,.02-.08h0Z"/><path class="k" d="M28.33,47.61c-.04-.16-.17-.24-.29-.34-.35-.29-.5-.61-.74-.99-.75-1.14-.79-2.28-.1-3.48,.86-1.49,.59-3.62-1-4.45-.09-.05-.21,.05-.15,.15,.34,.55,.83,.85,1.06,1.51,.22,.62,.14,1.46-.03,2.07-.19,.69-.66,1.18-.75,1.93-.09,.71-.09,1.5,.38,2.08,.26,.32,.44,.77,.71,1.06,.22,.24,.57,.3,.79,.53,.05,.05,.13,0,.12-.07h0Z"/><path class="k" d="M24.3,45.99c0-.96-.2-1.76,.27-2.67,.24-.48,.49-1.12,.48-1.66-.03-1.16-.96-2.07-1.88-2.67-.07-.04-.16,.05-.12,.11,.25,.36,.55,.66,.85,.99,.68,.73,.71,1.55,.47,2.48-.13,.51-.44,.92-.54,1.44-.13,.62,.19,1.4,.27,1.99,.02,.12,.2,.13,.2,0h0Z"/><path class="k" d="M23.35,44.73c-.18-.8-.11-1.43,.16-2.19,.13-.39,.2-.85,.11-1.26-.18-.79-.62-1.54-1.38-1.88-.08-.04-.17,.06-.1,.13,.83,.88,1.43,1.66,1.11,2.94-.22,.87-.33,1.43-.12,2.33,.04,.14,.25,.08,.22-.06h0Z"/><path class="k" d="M22.63,44.77c-.31-1.07,.33-2.27,.03-3.39-.19-.69-.7-1.51-1.49-1.53-.12,0-.15,.16-.06,.22,1.04,.69,1.27,1.75,1.22,2.93-.02,.46-.19,1.45,.24,1.8,.03,.02,.07,0,.06-.04h0Z"/></g><path class="n" d="M16.95,58.07c0,.07-.1,.08-.16,.07-.28-.06-.55-.15-.82-.25-.7-.27-1.37-.67-1.85-1.24-.87-1.03-1.06-2.47-1.1-3.83-.04-1.35-.24-2.79-.63-4.33-.02-.34,2.5-.34,2.96-.31,.13,2.01,.27,4.03,.59,6.02,.09,.57,.2,1.15,.46,1.66,.26,.52,.68,.98,1.22,1.16-.13,.5-.49,.94-.96,1.17l.3-.13Z"/><path class="j" d="M24.68,55.64c.83-1.08,1-2.61,.51-3.89-.05-.14-.11-.28-.1-.43,.03-.3,1.18-1.53,1.46-2.02,.06-.1,.11-.2,.12-.31,0-.27-.3-.45-.57-.49-.27-.04-.57-.02-.8-.17-.38-.24-.37-.79-.36-1.24,.04-1.05-.17-2.18-.92-2.91-.8-.77-2.08-.89-3.1-.46-1.02,.43-1.79,1.33-2.26,2.33-.18,.39-.33,.79-.45,1.2-.43,1.39-.7,2.84-.79,4.29-.04,.7-.05,1.41,.11,2.09,.16,.68,.49,1.34,1.03,1.78,.3,.25,.65,.42,1,.56,1.3,.51,2.76,.57,4.1,.17,.44-.13,.89-.32,1.19-.67l-.17,.15Z"/><path class="s" d="M25.06,57.45c.52-.36,.89-.93,1.01-1.55,.08-.43,.05-.87,.02-1.31-.35-.12-.64-.09-1.01-.06-2.02,.17-4.06,.16-6.09-.02,.44-2.84-.16-5.73-.14-8.61,.01-1.85,.17-2.74-.3-4.53-.43-1.63-1.34-1.7-2.51-1.68-1.1,.02-2.3,.21-3.13,.93-.83,.72-1.03,2.23-.61,3.24,.33,.8,1.13,1.31,1.96,1.55,.2,.06,.43,.12,.54,.29,.07,.11,.08,.24,.08,.37,.12,2.09,.24,4.19,.36,6.28,.05,.92,.22,1.67,.5,2.55,.28,.88,1.05,1.43,1.85,1.88,.74,.41,1.27,.93,2.12,.97,1.03,.05,2.06,.1,3.1,.15,.43,.02,.87,.04,1.28-.06l.97-.4Z"/><path class="v" d="M25.27,46.03c.01-.07,.01-.15-.02-.22-.04-.06-.31-.45-.76-.23-.1,.05-.39,.24-.49,.3-.72,.41-1.02,.54-1.53,.69,.57,.04,1.01,.2,1.33,.38,.26,.15,.45,.27,.73,.38,.27,.11,.63,.09,.8-.15,.03-.04,.06-.08,.06-.13,0-.4-.27-.49-.37-.58-.04-.04,.21-.21,.25-.44Z"/><path class="s" d="M19.89,53.64c.88,.81,2.72,.78,3.61-.02,.06-.06,.02-.18-.07-.17-.56,.05-1.08,.31-1.64,.38-.64,.08-1.24-.06-1.83-.28-.06-.02-.1,.06-.06,.1h0Z"/><path class="s" d="M22.92,52.02c.09,.13,.15,.27,.24,.4,.06,.1,.15,.25,.29,.22,.03,0,.05-.04,.05-.07,0-.06-.02-.09-.06-.13-.05-.05-.08-.11-.12-.17-.07-.12-.13-.26-.2-.38-.08-.13-.29,0-.2,.12h0Z"/><path class="s" d="M21.71,51.94c-.14,.18-.12,.46-.2,.68-.06,.17-.13,.47,.04,.6,.03,.03,.07,.03,.1,0,.13-.12,.14-.4,.14-.56,0-.23,0-.48-.03-.71,0-.03-.04-.03-.06,0h0Z"/><path class="s" d="M22.17,51.96c-.07,.19-.01,.38,.06,.56,.04,.1,.08,.2,.12,.3,.03,.09,.04,.16,.13,.2,.03,.01,.05,0,.07,0,.13-.11,.04-.32,0-.45-.06-.21-.14-.44-.25-.62-.04-.06-.11-.04-.13,.02h0Z"/><path class="s" d="M20.55,51.78c-.34,0-.91,.23-.97,.62,0,.05,.03,.08,.07,.07,.15-.03,.29-.15,.4-.24,.16-.14,.34-.25,.52-.37,.04-.02,.02-.08-.02-.09h0Z"/><path class="s" d="M20.99,52.06c-.26,.16-.55,.49-.54,.81,0,.05,.05,.09,.1,.07,.34-.09,.44-.55,.5-.84,0-.03-.03-.07-.06-.05h0Z"/><path class="s" d="M21.68,51.72c.06-.17,.09-.36,.08-.54,0-.15,0-.35-.11-.46-.03-.03-.08-.03-.11,0-.12,.12-.07,.3-.05,.46,.02,.18,.09,.36,.12,.54,0,.03,.05,.03,.06,0h0Z"/><path class="s" d="M22.27,51.66c.05-.14,.09-.29,.14-.43,.04-.12,.09-.29,.01-.41-.02-.04-.07-.05-.1-.03-.13,.07-.14,.23-.17,.36-.04,.16-.04,.32-.03,.48,0,.09,.12,.11,.15,.02h0Z"/><path class="s" d="M22.85,51.68c.11-.11,.18-.23,.26-.37,.07-.12,.17-.23,.19-.37,0-.03-.03-.06-.06-.06-.16,.02-.23,.15-.3,.28-.08,.15-.13,.3-.19,.46-.02,.06,.06,.1,.1,.06h0Z"/><path class="s" d="M21,51.77c.28-.14,.02-1.02-.27-.85-.16,.1,.01,.4,.06,.51,.02,.05,.11,.39,.21,.34h0Z"/><path class="s" d="M20.53,51.82c-.01-.14,0-.27-.06-.4-.06-.14-.14-.26-.28-.31-.04-.01-.09,0-.12,.03-.11,.11,.04,.26,.11,.33,.05,.06,.09,.13,.14,.19,.05,.06,.11,.11,.16,.17,.02,.02,.05,0,.05-.02h0Z"/><path class="h" d="M23.86,51.72c-.59,.48-1.35,.75-2.11,.77-.76,.02-1.53-.22-2.14-.67,.29-.21,.66-.29,1.02-.36,.31-.06,.74-.12,1.06-.13,.44-.01,.84,.02,1.27,.11,.33,.07,.57,.11,.9,.28Z"/><path class="s" d="M21.71,51.42c-.24,0-.43,.2-.43,.43s.2,.43,.43,.43,.43-.2,.43-.43-.2-.43-.43-.43h0Z"/><g class="l"><path class="k" d="M24.75,58.18c.66-.39,.89-.98,.8-1.73-.04-.34-.18-.65-.36-.93-.61-.99-.25-1.63,.14-2.58,.03-.06-.06-.13-.12-.09-.73,.53-.86,1.28-.77,2.14,.04,.39,.29,.62,.49,.93,.42,.67,.3,1.65-.26,2.17-.05,.05,.01,.12,.07,.09h0Z"/><path class="k" d="M23.78,58.49c.38-.41,.7-1.08,.54-1.66-.12-.42-.33-.75-.55-1.13-.58-.98,.07-1.79,.3-2.7,.03-.11-.11-.19-.19-.11-.57,.59-.78,1.37-.74,2.18,.02,.4,.25,.79,.45,1.12,.42,.69,.52,1.5,.12,2.24-.03,.05,.04,.11,.08,.06h0Z"/><path class="k" d="M22.59,58.13c.44-.66,.38-1.26,.11-1.99-.15-.41-.42-.77-.58-1.17-.29-.73,.27-1.44,.38-2.15,.02-.1-.09-.18-.18-.1-.58,.54-.83,1.23-.77,2.01,.1,1.28,1.5,1.94,.98,3.37-.01,.04,.04,.06,.06,.03h0Z"/><path class="k" d="M21.75,58.23c.24-.71-.02-1.21-.44-1.8-.38-.54-.58-.98-.61-1.66-.03-.71,.39-1.25,.51-1.91,.02-.09-.06-.14-.14-.11-.8,.36-.87,1.54-.83,2.31,.07,1.24,1.45,1.93,1.37,3.14,0,.08,.12,.09,.14,.02h0Z"/><path class="k" d="M20.75,58.46c.09-.96-.31-1.63-.97-2.3-1.17-1.2,.11-2.53,.26-3.8,.01-.09-.12-.14-.18-.08-.66,.75-1.05,1.9-1.03,2.89,0,.35,.17,.8,.41,1.06,.64,.71,1.25,1.21,1.43,2.23,0,.04,.07,.03,.07,0h0Z"/><path class="k" d="M19.86,58.12c-.15-.56-.7-1-.99-1.49-.69-1.18-.97-2.4-.66-3.74,.23-.98,.77-1.85,.98-2.84,.17-.81-.2-1.54-.46-2.29-.32-.94-.79-1.96-.89-2.95-.1-.97,.51-1.91,.84-2.79,.46-1.22,.15-2.7-.79-3.59-.06-.06-.18,.02-.13,.1,1.25,1.88,.48,3.33-.13,5.23-.49,1.53,.5,3.43,1.07,4.81,.77,1.87-.94,3.8-.96,5.72,0,.77,.32,1.51,.64,2.19,.35,.75,.93,1.03,1.36,1.67,.04,.06,.13,.02,.12-.05h0Z"/><path class="k" d="M20.25,47.37c-.67-.66-1.18-1.4-1.29-2.36-.09-.78,.26-1.52,.27-2.29,0-.1-.14-.13-.19-.05-1.13,1.77-.47,3.66,1.06,4.85,.11,.08,.25-.05,.15-.15h0Z"/><path class="k" d="M17.97,57.84c-.5-.65-.84-1.22-1.02-2.04-.25-1.13,.13-2.27,.48-3.33,.48-1.43,1.25-2.63,.5-4.17-.39-.79-.86-1.45-1.09-2.32-.34-1.28-.06-2.32,.45-3.51,.55-1.29,.74-2.76-.25-3.87-.07-.08-.22,0-.18,.1,.39,.99,.53,1.85,.26,2.9-.21,.83-.77,1.59-.86,2.45-.08,.81,.02,1.58,.22,2.36,.22,.87,.79,1.55,1.1,2.38,.7,1.85-.98,3.79-1.12,5.65-.09,1.27,.2,2.85,1.43,3.45,.04,.02,.11-.03,.08-.08h0Z"/><path class="k" d="M15.88,56.6c0-.96-.28-1.79-.05-2.77,.22-.95,.6-1.84,.9-2.77,.61-1.88-.32-3.32-.95-5.04-.36-.99-.54-1.93-.2-2.96,.29-.88,.82-1.59,1.02-2.51,.33-1.47-.55-2.38-1.67-3.12-.12-.08-.25,.07-.19,.19,.35,.67,.97,1.02,1.26,1.77,.39,1.06-.38,2.23-.81,3.14-.63,1.34-.32,2.64,.19,3.96,.31,.81,.76,1.56,1.03,2.39,.34,1.05-.02,2.11-.38,3.1-.29,.8-.56,1.61-.74,2.45-.17,.78,.23,1.46,.44,2.18,.02,.09,.15,.07,.15-.02h0Z"/><path class="k" d="M14.61,52.89c.8-.96,1.12-2.13,.98-3.37-.11-1-.45-2.29-1.5-2.66-.12-.04-.25,.12-.17,.23,1.13,1.63,1.8,3.88,.53,5.67-.07,.1,.09,.22,.17,.13h0Z"/><path class="k" d="M14.71,45.85c-.66-1.02-.88-1.98-.38-3.14,.35-.83,.82-1.47,.98-2.38,.21-1.21-.9-2.18-1.97-2.43-.12-.03-.22,.12-.13,.22,.56,.53,1.28,.85,1.54,1.64,.32,.99-.68,2.17-1.04,3.04-.47,1.13-.19,2.54,.89,3.17,.07,.04,.15-.04,.11-.11h0Z"/><path class="k" d="M13.49,45.49c-.6-1.14-.74-2.21-.2-3.41,.27-.6,.53-1.08,.54-1.75,.02-.94-.91-1.88-1.8-1.98-.08,0-.11,.1-.06,.15,.48,.52,1.01,.83,1.29,1.53,.34,.83-.42,1.79-.68,2.55-.35,1.08,.08,2.14,.74,2.99,.07,.09,.21,.02,.16-.09h0Z"/></g><path class="i" d="M25.79,59.86c.06,.21,.19,.58,.22,.85,0,.07-.06,.13-.13,.11-.16-.04-1.3-.98-1.76-1.3-.08-.05-.18-.02-.22,.06-.28,.68-.47,1.5-.62,2.23-.02,.09-.14,.12-.19,.04-.44-.63-.96-1.29-1.27-2-.02-.05-.08-.04-.1,0-.28,.74-.61,1.45-.98,2.15-.06,.11-.21,.1-.26,0-.32-.72-.37-1.4-.63-2.16-.03-.09-.08-.19-.17-.21-.1-.02-.18,.07-.23,.16-.19,.29-.91,1.63-1.27,1.96-.1,.09-.26,.04-.29-.08-.2-.82-.12-2.23-.38-2.4-.16-.11-1.43,1.4-1.99,1.4-.02,0-.03-.02-.04-.04-.15-.21,.26-1.7,.46-2.65,.03-.14,.37-2.19,.46-2.12,.47,.39,1.34,.84,2.45,1.13,2.25,.58,3.55,.54,5.86,.29,.11-.01,.23-.02,.33,.04,.07,.04,.11,.12,.14,.19,.18,.39,.32,1.19,.62,2.34Z"/><path class="v" d="M25.39,59.67c-.11-.25-.25-.5-.4-.73-.17-.25-.58,0-.4,.24,.17,.22,.39,.41,.52,.65,.1,.19,.36,.02,.28-.16h0Z"/><path class="v" d="M23.22,60.45c-.03-.37,.21-.9-.14-1.19-.24-.2-.63-.02-.54,.31,.04,.15,.13,.29,.17,.44,.05,.16,.12,.32,.16,.49,.05,.19,.37,.16,.35-.05h0Z"/><path class="v" d="M20.85,60.63c.1-.35,.26-.68,.28-1.05,.02-.43-.65-.43-.67,0-.01,.35,.06,.71,.12,1.05,.02,.14,.24,.13,.27,0h0Z"/><path class="v" d="M18.53,60.21c.15-.29,.36-.55,.44-.87,.07-.32-.41-.55-.55-.23-.13,.31-.12,.64-.22,.96-.06,.19,.24,.32,.33,.14h0Z"/><path class="v" d="M16.32,59.46c.27-.34,1.08-.59,.79-1.17-.1-.2-.36-.19-.51-.06-.08,.07-.1,.17-.14,.25-.05,.1-.11,.19-.17,.28-.11,.17-.21,.33-.29,.52-.07,.17,.2,.33,.31,.18h0Z"/><path class="s" d="M25.02,58.15c-.19,0-.19,.29,0,.29s.19-.29,0-.29h0Z"/><path class="s" d="M24.49,58.27c-.24,0-.24,.37,0,.37s.24-.37,0-.37h0Z"/><path class="s" d="M23.94,58.41c-.25,0-.25,.39,0,.39s.25-.39,0-.39h0Z"/><path class="s" d="M23.25,58.53c-.24,0-.24,.38,0,.38s.25-.38,0-.38h0Z"/><path class="s" d="M22.5,58.59c-.25,0-.25,.39,0,.39s.25-.39,0-.39h0Z"/><path class="s" d="M21.79,58.61c-.27,0-.27,.42,0,.42s.27-.42,0-.42h0Z"/><path class="s" d="M21.01,58.58c-.26,0-.26,.4,0,.4s.26-.4,0-.4h0Z"/><path class="s" d="M20.24,58.47c-.3,0-.3,.47,0,.47s.3-.47,0-.47h0Z"/><path class="s" d="M19.48,58.32c-.31,0-.31,.48,0,.48s.31-.48,0-.48h0Z"/><path class="s" d="M18.7,58.12c-.26,0-.26,.41,0,.41s.27-.41,0-.41h0Z"/><path class="s" d="M18.04,57.86c-.31,0-.31,.49,0,.49s.31-.49,0-.49h0Z"/><path class="s" d="M17.45,57.63c-.29,0-.29,.44,0,.44s.28-.44,0-.44h0Z"/><path class="s" d="M16.8,57.5h-.01c-.14,.03-.14,.25,0,.28h.01c.24,.05,.24-.33,0-.28h0Z"/><path class="s" d="M16.28,57.36s-.02,.03,0,.03c.02,0,.02-.03,0-.03h0Z"/><path class="s" d="M16.32,57.22c-.26,0-.26,.41,0,.41s.26-.41,0-.41h0Z"/><path class="i" d="M15.89,56.62c-.09-.09-.18-.19-.27-.28-.07-.07-.19-.16-.28-.07-.09,.09,.01,.21,.08,.27,.1,.09,.19,.18,.29,.26,.12,.11,.3-.06,.18-.18h0Z"/><path class="i" d="M15.28,56.91c-.08-.07-.15-.15-.22-.23-.07-.09-.15-.19-.27-.22-.08-.02-.15,.04-.16,.12-.03,.25,.3,.44,.49,.53,.12,.06,.26-.1,.15-.2h0Z"/><path class="i" d="M15.84,55.77c-.05-.12-.11-.24-.19-.34-.11-.13-.33,0-.28,.17,.04,.11,.1,.21,.15,.32,.08,.18,.4,.05,.32-.14h0Z"/><path class="i" d="M14.82,55.78c-.06-.17-.14-.37-.32-.44-.1-.04-.23,.03-.19,.15,.05,.15,.17,.26,.24,.4,.08,.14,.32,.04,.26-.11h0Z"/><path class="i" d="M15.07,54.84c-.03-.14-.08-.28-.14-.41-.03-.07-.07-.13-.15-.16,.07,.03-.03-.02-.04-.02-.03,0-.05-.01-.08,0-.13,.04-.13,.23-.09,.33,.05,.13,.14,.25,.2,.38,.07,.17,.33,.04,.29-.12h0Z"/><path class="i" d="M15.09,53.46c-.06-.18-.16-.41-.33-.51-.1-.06-.24,.04-.2,.16,.05,.17,.22,.29,.31,.45,.07,.12,.27,.04,.22-.09h0Z"/><path class="i" d="M14.09,54.54c-.03-.15-.03-.31-.16-.42-.06-.05-.13-.07-.21-.03-.06,.04-.1,.12-.08,.19,.04,.11,.09,.22,.14,.33,.08,.19,.34,.12,.3-.08h0Z"/><path class="i" d="M13.95,53.31c-.03-.16,.03-.37-.05-.51-.05-.09-.19-.09-.24,0-.05,.09-.04,.17-.03,.27,0,.11,.02,.21,.05,.32,.05,.18,.31,.1,.28-.08h0Z"/><path class="i" d="M13.94,55.49c-.03-.14-.01-.29-.12-.4-.1-.11-.26,0-.23,.13,.02,.12,.1,.24,.18,.34,.06,.09,.2,.04,.18-.07h0Z"/><path class="i" d="M14.38,52.32c0-.12-.01-.24-.02-.36,0-.08-.05-.21-.15-.21s-.14,.12-.15,.21c-.01,.13,.06,.27,.09,.39,.03,.13,.24,.1,.24-.03h0Z"/><path class="i" d="M14.88,51.64c.05-.19,.08-.5-.09-.64-.1-.09-.23-.05-.28,.07-.08,.19,.09,.38,.12,.56,.02,.13,.22,.11,.25,0h0Z"/><path class="i" d="M13.58,52.02c-.03-.14-.04-.37-.19-.44-.03-.01-.07-.02-.09,.01-.11,.14-.03,.34,0,.51,.03,.19,.32,.11,.28-.08h0Z"/><path class="i" d="M13.9,50.76c-.05-.12-.05-.28-.19-.33-.04-.01-.07,.02-.09,.05-.05,.12,.02,.29,.07,.4,.06,.14,.27,.02,.21-.12h0Z"/><path class="i" d="M14.57,50.1c0-.14-.02-.31-.08-.43-.04-.09-.2-.07-.22,.03-.03,.14,.04,.27,.04,.41,0,.17,.26,.17,.26,0h0Z"/><path class="i" d="M13.25,50.16c0-.07-.02-.14-.04-.21-.02-.07-.02-.15-.04-.21-.01-.04-.04-.08-.08-.08,0,0-.02,0-.03,0-.05,0-.1,.04-.12,.09-.04,.15,.04,.31,.07,.46,.03,.13,.26,.1,.24-.03h0Z"/><path class="i" d="M13.77,49.4c-.02-.13,0-.26-.06-.38-.05-.1-.23-.09-.25,.03-.02,.13,0,.29,.03,.42,.04,.18,.31,.1,.28-.08h0Z"/><path class="i" d="M14.62,48.92c-.02-.13-.05-.26-.14-.36-.03-.04-.09-.05-.14-.04-.2,.07-.04,.34-.02,.48,.03,.2,.34,.12,.3-.08h0Z"/><path class="i" d="M13.15,48.85c-.01-.1-.04-.19-.12-.25-.07-.05-.17,.02-.17,.1,0,.06,.03,.12,.03,.19,.02,.19,.29,.15,.26-.04h0Z"/><path class="v" d="M20.64,48.03c-.49,0-.89,.41-.89,.89s.4,.89,.89,.89,.89-.4,.89-.89-.41-.89-.89-.89h0Z"/><path class="v" d="M23.21,40.47c-.3,0-.3,.47,0,.47s.31-.47,0-.47h0Z"/><path class="v" d="M22.67,40.02c-.25,0-.25,.39,0,.39s.25-.39,0-.39h0Z"/><path class="v" d="M22.06,39.79c-.28,0-.28,.43,0,.43s.28-.43,0-.43h0Z"/><path class="v" d="M21.36,39.66c-.27,0-.27,.42,0,.42s.27-.42,0-.42h0Z"/><path class="v" d="M20.69,39.62c-.29,0-.29,.45,0,.45s.29-.45,0-.45h0Z"/><path class="v" d="M20.01,39.64c-.29,0-.29,.46,0,.46s.3-.46,0-.46h0Z"/><path class="v" d="M19.32,39.78c-.26,0-.26,.4,0,.4s.26-.4,0-.4h0Z"/><path class="v" d="M18.62,39.98c-.3,0-.3,.47,0,.47s.3-.47,0-.47h0Z"/><path class="v" d="M20.72,38.5c-.26,0-.49,.22-.49,.49s.22,.49,.49,.49,.49-.22,.49-.49-.22-.49-.49-.49h0Z"/><g><path class="n" d="M29.89,31.93c-.09,.71-.07,1.42,.04,2.13,.22,.01,.72,2.74,.84,2.84,.96,.76,1.05-.95,.89-.05-.05,.31-.62,.64-.42,.92,.12,.07,.66,.13,1.29-.19,.55-.28,.74-.71,.86-1.1,.12-.39,.04-.81-.33-1.16-.11-.11-.25-.21-.35-.33-.24-.27-.27-.57-.31-.87-.09-.7-.3-1.4-.51-2.09-.02-.07-.05-.16-.17-.21-.08-.03-.18-.04-.29-.05-.37-.03-.74-.05-1.12-.06-.1,0-.21,0-.29,.03-.11,.04-.13,.12-.14,.19Z"/><path class="v" d="M31.8,48.78c.03,.83,.02,1.26,.03,1.76,0,.18-.19,.38-.28,.28-.09-.09-.35-3.46-.85-3.37-.17,.03,.02,2.11-.05,3-.02,.23-.13,.49-.26,.46-.16-.03-.29-2.86-.57-3.24-.14-.19-.3,1.84-.47,2.73-.05,.23-.2,.59-.33,.41-.09-.12-.15-.74-.18-2.64-.02-1.02-.09-1.24,.19-1.68,.29-.44,.42-.16,.8-.45,.1-.08,.12-.47,.13-.6,.06-.99,.01-1.77,.07-2.76,.05-.78-.38-6.66-.43-7.34,0-.16-.02-.34,.06-.48,.08-.14,.25-.4,.36,1.48,.28,4.66,.31,5.4,.25,9.44,0,.14,.08,.31,.32,.37,.24,.06,.47-.14,.92,.52,.17,.25,.24,1.08,.28,2.12Z"/><path class="j" d="M32.26,39.91c-.15,.23-.5,.49-.77,.48-.62,0-1.02-.08-1.68-.16-.11-.01-.22-.07-.27-.17-.03-.06-.14-.35,.3-.48,.14-.04,.28-.05,.42-.05,.34,0,1.18,.13,1.21,0,.03-.16-1.5-.26-2-.57-.06-.04-.12-.08-.15-.14-.09-.18,.04-.34,.24-.4,.46-.14,1.09,.24,1.78,.26,.05,0,.07-.07,.02-.1-.64-.27-1.54-.53-1.86-1.04-.11-.17,.08-.38,.29-.4,.31-.03,1.22,.54,1.42,.49,.06-.01,.06-.14-.19-.27-.29-.15-.68-.41-.87-.59-.11-.1-.16-.26-.11-.39,.07-.2,.37-.08,.54-.07,.16,0,.63,.27,.86,.41,.19,.11,.12-.29,.11-.52-.02-.35,.01-.69,.19-.76,.34-.12,.71,.09,1.01,.3,.1,.06,.2,.13,.26,.23,.05,.08,.22,.45,.22,.54,.03,1.82-.27,2.3-.96,3.39Z"/><path class="t" d="M30.27,40.01c-.06-.15-.16-.19-.3-.25-.07-.02-.14-.04-.21-.05-.04,0-.09,0-.12,0-.02,0-.11,.05-.06,.03-.1,.04-.15,.12-.13,.23-.02-.09,.03,.08,.03,.09,.02,.03,.04,.06,.07,.09,.06,.06,.14,.08,.22,.11,.12,.03,.3,.04,.41-.04,.06-.04,.12-.13,.09-.21h0Z"/><path class="t" d="M29.88,38.67c-.14-.14-.29-.22-.49-.19-.2,.03-.27,.33-.12,.46,.12,.1,.28,.16,.44,.15,.09-.01,.16-.04,.21-.12,.06-.09,.04-.22-.04-.3h0Z"/><path class="t" d="M30.06,37.63s0-.1,0-.03c0,0-.05-.16-.02-.1-.03-.08-.08-.15-.14-.21-.09-.1-.2-.14-.33-.11-.09,.01-.18,.09-.19,.18-.02,.11,0,.22,.09,.3l.06,.04s-.02-.02,0,0c.04,.03,.08,.06,.12,.08,.15,.07,.4,.06,.42-.15h0Z"/><path class="t" d="M30.58,36.68c-.02-.07-.05-.12-.1-.19-.06-.09-.15-.18-.26-.2-.17-.03-.36,.1-.3,.3,.06,.19,.31,.4,.52,.32,.1-.04,.16-.13,.13-.23h0Z"/><path class="s" d="M32.27,39.95c.02-.07,.05-.14,.04-.21-.01-.13-.17-.14-.21-.03-.02,.06-.03,.12-.05,.17-.05,.14,.18,.21,.23,.06h0Z"/><path class="s" d="M32.36,39.18c.05-.09,.09-.2,.05-.3-.05-.15-.3-.14-.29,.04,0,.07,.02,.13,.01,.2-.01,.12,.17,.16,.23,.06h0Z"/><path class="s" d="M32.46,38.3c.02-.11,.03-.22-.04-.3-.05-.06-.18-.03-.19,.05-.01,.08,.01,.15,.01,.22,0,.13,.2,.16,.23,.03h0Z"/><path class="s" d="M32.43,37.27c-.03-.1-.07-.19-.16-.24-.09-.05-.23,.04-.19,.15,.03,.07,.07,.13,.1,.2,.07,.14,.29,.04,.25-.1h0Z"/><path class="v" d="M31.39,41.8c-.18-.27-.51-.42-.83-.44-.09,0-.18,0-.27,.03-.03,0-.05,.02-.07,.04-.04,.04-.03,.12,0,.17,.07,.17,.14,.46,.5,.66,.43,.24,.77,.33,.98,.31v-.03c-.11-.23-.16-.51-.32-.74Z"/><path class="v" d="M30.09,40.64s0,.04,0,.06c-.05,.32-.35,.55-.66,.64-.31,.09-.64,.08-.96,.12,.07-.15,.16-.29,.26-.42,.06-.07,.12-.14,.19-.2,.29-.26,.73-.36,1.1-.24,.02,0,.05,.02,.06,.04Z"/><path class="n" d="M29.08,28.61c-.57,.72-.58,1.95-.55,2.38,.04,.45,.07,.91,.22,1.34,.21,.61,.62,1.11,1.03,1.61,.14,.17,.05,.5,.22,.64,.7,.56,1.63-.1,2.52-.05,.05-.28,.23-.5,.42-.71,.53-.59,.97-.57,1.52-1.48,.79-1.29,.24-2.78-.66-3.96-.56-.74-1.76-.71-2.59-.69-.87,.02-1.6,.24-2.14,.92Z"/><path class="t" d="M30.09,32.67c-.16-.75-.19-1.5-.15-2.27,.03-.65,.6-1.08,.56-1.69-.02-.35-.52-.55-.71-.19-.34,.65-.63,1.12-.62,1.89,.01,.83,.22,1.67,.56,2.42,.09,.21,.4,.05,.36-.15h0Z"/><path class="t" d="M31.48,32.88c.35-.63,.43-1.31,.48-2.02,.04-.69-.18-1.37-.11-2.05,.05-.54-.81-.54-.84,0-.04,.6,.15,1.18,.17,1.77,.03,.74-.04,1.46-.05,2.2,0,.19,.26,.26,.36,.1h0Z"/><path class="t" d="M32.83,33c.5-.67,.65-1.44,.7-2.26,.04-.64-.12-1.64-.72-1.98-.13-.07-.28,0-.33,.13-.21,.56,.27,1.24,.29,1.84,.03,.7-.11,1.45-.29,2.12-.06,.22,.22,.31,.34,.14h0Z"/><path class="v" d="M30.01,33.83h0c.01,.05,.06,.11,.11,.12h0c.16,.03,.29-.15,.16-.28-.12-.12-.32,0-.28,.16h0Z"/><path class="v" d="M30.67,33.61c-.23,0-.23,.36,0,.36s.23-.36,0-.36h0Z"/><path class="v" d="M31.24,33.63c-.2,0-.2,.32,0,.32s.2-.32,0-.32h0Z"/><path class="v" d="M31.77,33.62c-.24,0-.24,.38,0,.38s.24-.38,0-.38h0Z"/><path class="v" d="M32.33,33.66c-.22,0-.22,.35,0,.35s.22-.35,0-.35h0Z"/></g><path class="v" d="M26.71,36.85c-.24,0-.24,.38,0,.38s.24-.38,0-.38h0Z"/><path class="v" d="M27.75,34.68v-.02c-.08-.16-.31-.1-.35,.05v.02c-.03,.12,.06,.24,.18,.24,.16,0,.22-.16,.16-.29h0Z"/><path class="v" d="M28.41,35.73c-.2,0-.2,.32,0,.32s.2-.32,0-.32h0Z"/><path class="v" d="M29.54,33.62c-.25,0-.25,.39,0,.39s.25-.39,0-.39h0Z"/><path class="v" d="M28.13,33.12h-.02c-.11-.06-.23,0-.23,.13v.02c0,.13,.15,.21,.25,.14,.1-.06,.12-.24,0-.29h0Z"/><path class="v" d="M26.18,35.18s0-.02,0-.03c-.04-.18-.33-.18-.37,0v.03c-.03,.12,.05,.25,.18,.25s.22-.13,.19-.25h0Z"/><path class="v" d="M24.63,36.54c-.3,0-.3,.46,0,.46s.3-.46,0-.46h0Z"/><path class="v" d="M23.33,34.72c-.25,0-.25,.39,0,.39s.25-.39,0-.39h0Z"/><path class="v" d="M22.05,36.62c-.24,0-.24,.37,0,.37s.24-.37,0-.37h0Z"/><path class="v" d="M24.51,33.63c.06-.07,.08-.13,.07-.22-.01-.07-.09-.12-.15-.12-.09,0-.15,.07-.16,.16v.02s.01-.05,.02-.08h0c-.15,.16,.09,.4,.23,.24h0Z"/><path class="v" d="M25.5,31.66c-.23,0-.23,.36,0,.36s.23-.36,0-.36h0Z"/><path class="v" d="M22.07,35.14c-.3,0-.3,.46,0,.46s.3-.46,0-.46h0Z"/><path class="v" d="M23.46,36.22h-.02c-.11-.08-.28,0-.27,.14v.02c.02,.14,.15,.24,.29,.16,.13-.07,.12-.25,0-.32h0Z"/><path class="v" d="M20.57,35.23c-.23,0-.23,.36,0,.36s.23-.36,0-.36h0Z"/><path class="v" d="M20.42,36.44c-.29,0-.29,.45,0,.45s.29-.45,0-.45h0Z"/><path class="v" d="M27.33,36.05s.04-.07,.03-.12c0-.19-.29-.24-.34-.05h0s.03-.04,.04-.07h-.02c-.19,.16,.12,.46,.28,.23h0Z"/><path class="v" d="M27.98,29.75c-.2,0-.2,.31,0,.31s.2-.31,0-.31h0Z"/><path class="v" d="M27.26,31.94c-.27,0-.27,.42,0,.42s.27-.42,0-.42h0Z"/><path class="v" d="M25.13,34.07c-.29,0-.29,.45,0,.45s.29-.45,0-.45h0Z"/><path class="v" d="M26.57,33.51v-.02c.1-.16-.05-.32-.21-.29-.06,.01-.11,.06-.13,.11-.04,.1-.03,.21,.07,.27,.09,.05,.22,.02,.27-.07h0Z"/><path class="v" d="M26.56,30.61h-.04c-.09-.01-.18,.07-.2,.15-.03,.1,.02,.18,.09,.23l.03,.02c.12,.08,.28,0,.32-.13,.04-.14-.07-.26-.21-.27h0Z"/><path class="v" d="M28.03,31.19v-.02c-.01-.07-.05-.14-.12-.16-.08-.02-.18,.03-.2,.11v.02c-.06,.26,.35,.27,.32,.04h0Z"/><path class="v" d="M32.93,26.2v-.02c0-.22-.33-.22-.34,0v.02c-.01,.22,.33,.22,.34,0h0Z"/><path class="v" d="M31.47,26.73c-.31,0-.31,.48,0,.48s.31-.48,0-.48h0Z"/><path class="v" d="M32.54,27.06c-.07-.03-.12,.05-.11,.11v.02c.02,.07,.12,.09,.17,.04,.06-.06,.02-.14-.04-.16h-.01Z"/><path class="s" d="M15.49,6.26c-1.13,1.15-1.18,7.26-1.18,7.41-.03,.73,.62,4.67,.32,5.37-.24,.56-.79,.82-1.12,1.34-.33,.51-.43,1.19-.17,1.74,.22,.48,.68,.82,1.17,1.01,1.23,.48,2.5,.3,3.66-.32,.19-.11,.53-.41,.69-.56,.17-.16,.3-.37,.39-.59,.2-.48,.21-1.01,.19-1.53-.08-1.64-.5-3.24-.93-4.83-.12-.44-.24-.9-.48-1.29-.57-.96,.92-8.37-2.54-7.75Z"/><path class="k" d="M16.13,9.59c-1.2,.86-2.28,3.59-.5,4.46,.09,.04,.2-.05,.14-.14-.46-.75-.74-1.32-.59-2.23,.12-.72,.55-1.46,1.03-2,.04-.05-.01-.14-.07-.1h0Z"/><path class="k" d="M15.67,13.99c.11,.31,.26,.59,.46,.86,.19,.26,.4,.61,.71,.74,.08,.03,.17-.02,.14-.11-.07-.29-.34-.52-.53-.74-.23-.26-.46-.53-.68-.81-.04-.05-.13,0-.11,.06h0Z"/><path class="k" d="M16.57,10.18c-1.21,.4-1.25,2.32-.11,2.83,.08,.04,.18-.04,.13-.13-.21-.36-.51-.63-.6-1.05-.12-.52,.17-1.24,.64-1.49,.09-.05,.03-.19-.07-.16h0Z"/><g class="r"><path class="k" d="M14.99,5.71c.53,.86,.71,1.84,.53,2.83-.18,.94-1.12,1.45-1.48,2.3-.71,1.69-.15,3.29,.87,4.73,.62,.87,.81,2.03,.81,3.08,0,.9-.36,1.77-.36,2.69,0,.64,.33,1.24,.7,1.73,.26,.35,.56,.64,.81,1.02,.27,.41,.3,.92,.51,1.36,.05,.11,.24,.03,.2-.08-.23-.73-.34-1.34-.76-1.99-.23-.35-.53-.64-.75-1-.41-.67-.33-1.44-.22-2.17,.26-1.75,.37-3.25-.6-4.84-.63-1.04-1.14-1.92-1.18-3.19-.03-1.23,1.04-2.03,1.59-3.01,.61-1.09,.18-2.65-.65-3.48-.02-.02-.05,0-.04,.03h0Z"/><path class="k" d="M14.34,6.49c.73,.32,.63,1.04,.27,1.61-.28,.44-.85,.79-.97,1.31-.02,.09,.07,.16,.16,.12,.58-.29,1.41-1.24,1.48-1.92,.06-.58-.26-1.24-.92-1.2-.04,0-.06,.06-.02,.08h0Z"/><path class="k" d="M13.01,15.09c.04,.16,.17,.24,.29,.34,.35,.29,.5,.61,.74,.99,.75,1.14,.79,2.28,.1,3.48-.86,1.49-.59,3.62,1,4.45,.09,.05,.21-.05,.15-.15-.34-.55-.83-.85-1.06-1.51-.22-.62-.14-1.45,.03-2.07,.19-.7,.66-1.18,.75-1.93,.09-.71,.09-1.5-.38-2.08-.26-.32-.44-.77-.71-1.06-.22-.24-.57-.3-.79-.53-.05-.05-.13,0-.11,.07h0Z"/><path class="k" d="M17.03,16.71c0,.97,.2,1.76-.27,2.67-.24,.48-.49,1.12-.48,1.66,.03,1.16,.96,2.07,1.88,2.67,.07,.04,.16-.04,.12-.11-.25-.36-.55-.66-.85-.99-.68-.73-.71-1.55-.47-2.48,.13-.51,.44-.92,.54-1.43,.13-.62-.19-1.4-.27-1.99-.02-.12-.2-.13-.2,0h0Z"/><path class="k" d="M17.99,17.98c.18,.8,.11,1.43-.16,2.19-.14,.39-.2,.85-.11,1.26,.18,.79,.62,1.54,1.38,1.88,.08,.04,.17-.06,.1-.13-.83-.88-1.43-1.66-1.11-2.94,.22-.88,.33-1.43,.11-2.33-.04-.14-.25-.08-.22,.06h0Z"/><path class="k" d="M18.71,17.93c.31,1.07-.33,2.27-.03,3.39,.19,.69,.7,1.51,1.49,1.53,.12,0,.16-.16,.06-.22-1.04-.69-1.27-1.75-1.22-2.93,.02-.46,.19-1.45-.24-1.8-.03-.02-.08,0-.06,.04h0Z"/></g><path class="n" d="M24.39,4.64c0-.07,.1-.08,.16-.07,.28,.06,.55,.15,.82,.25,.7,.27,1.37,.67,1.85,1.24,.87,1.03,1.06,2.47,1.1,3.83,.04,1.35,.24,2.79,.63,4.33,.02,.34-2.5,.34-2.96,.31-.14-2.01-.27-4.03-.59-6.02-.09-.57-.2-1.14-.46-1.66-.26-.52-.68-.98-1.22-1.16,.13-.5,.49-.95,.96-1.17l-.3,.13Z"/><path class="j" d="M16.65,7.07c-.83,1.08-1,2.61-.51,3.89,.05,.14,.11,.28,.1,.43-.03,.3-1.18,1.53-1.46,2.02-.06,.1-.11,.2-.11,.31,0,.27,.3,.45,.57,.49,.27,.04,.57,.02,.8,.17,.38,.24,.37,.79,.36,1.24-.04,1.05,.17,2.18,.92,2.91,.8,.77,2.08,.89,3.1,.46,1.02-.43,1.79-1.33,2.26-2.33,.18-.39,.33-.79,.45-1.2,.43-1.39,.7-2.83,.79-4.29,.04-.7,.05-1.41-.11-2.09-.16-.68-.49-1.34-1.03-1.78-.3-.25-.65-.42-1-.56-1.3-.51-2.76-.57-4.1-.17-.44,.13-.89,.32-1.19,.67l.17-.15Z"/><path class="s" d="M16.28,5.25c-.52,.36-.89,.93-1.01,1.55-.08,.43-.05,.87-.02,1.31,.35,.12,.64,.09,1.01,.06,2.02-.17,4.06-.16,6.08,.02-.44,2.84,.16,5.73,.14,8.61-.01,1.85-.17,2.74,.3,4.53,.43,1.63,1.34,1.7,2.51,1.68,1.1-.02,2.3-.21,3.13-.93,.83-.72,1.02-2.23,.61-3.24-.33-.8-1.13-1.31-1.96-1.55-.2-.06-.43-.12-.54-.29-.07-.11-.08-.24-.08-.37-.12-2.09-.24-4.19-.36-6.28-.05-.92-.22-1.67-.5-2.55-.28-.88-1.05-1.43-1.85-1.88-.74-.41-1.27-.93-2.12-.97-1.03-.05-2.06-.1-3.1-.15-.43-.02-.87-.04-1.28,.06l-.97,.4Z"/><path class="v" d="M16.07,16.68c-.01,.07-.01,.15,.02,.22,.04,.06,.31,.45,.76,.23,.1-.05,.39-.24,.49-.3,.72-.41,1.02-.54,1.53-.69-.57-.04-1.01-.2-1.33-.38-.26-.15-.46-.27-.73-.38-.27-.11-.64-.09-.8,.15-.03,.04-.06,.08-.06,.13,0,.4,.27,.49,.37,.58,.04,.04-.21,.21-.25,.44Z"/><path class="s" d="M21.44,9.07c-.88-.81-2.72-.78-3.61,.02-.06,.06-.02,.18,.07,.17,.56-.05,1.08-.31,1.64-.38,.64-.08,1.24,.06,1.83,.28,.06,.02,.1-.06,.06-.1h0Z"/><path class="s" d="M18.41,10.69c-.09-.13-.15-.27-.24-.4-.06-.1-.15-.25-.29-.22-.03,0-.05,.04-.05,.07,0,.06,.01,.09,.06,.13,.05,.05,.08,.11,.12,.17,.07,.12,.13,.26,.2,.38,.08,.13,.29,0,.2-.12h0Z"/><path class="s" d="M19.63,10.76c.14-.18,.12-.46,.2-.68,.06-.17,.13-.47-.04-.6-.03-.03-.07-.03-.1,0-.13,.12-.14,.4-.14,.56,0,.23,0,.48,.03,.71,0,.03,.04,.03,.06,0h0Z"/><path class="s" d="M19.16,10.74c.07-.19,.01-.38-.06-.56-.04-.1-.08-.2-.12-.3-.03-.09-.04-.16-.13-.2-.03-.01-.05,0-.07,0-.13,.11-.04,.32,0,.45,.06,.21,.14,.44,.26,.62,.04,.06,.11,.04,.13-.02h0Z"/><path class="s" d="M20.78,10.93c.34,0,.91-.23,.97-.62,0-.05-.03-.08-.07-.07-.15,.03-.29,.14-.4,.24-.16,.14-.34,.25-.52,.37-.04,.02-.02,.08,.02,.09h0Z"/><path class="s" d="M20.35,10.65c.26-.16,.55-.49,.54-.81,0-.05-.05-.09-.1-.07-.34,.09-.44,.55-.5,.84,0,.03,.03,.07,.06,.05h0Z"/><path class="s" d="M19.65,10.98c-.06,.17-.09,.36-.08,.54,0,.15,0,.35,.11,.46,.03,.03,.08,.03,.11,0,.12-.12,.07-.3,.05-.46-.02-.18-.09-.36-.13-.54,0-.04-.05-.03-.06,0h0Z"/><path class="s" d="M19.07,11.05c-.05,.14-.09,.29-.14,.43-.04,.12-.09,.29-.01,.41,.02,.03,.07,.05,.1,.03,.13-.07,.14-.23,.17-.36,.04-.16,.04-.32,.03-.48,0-.09-.12-.11-.15-.02h0Z"/><path class="s" d="M18.49,11.03c-.11,.11-.18,.23-.26,.37-.07,.12-.17,.23-.18,.37,0,.03,.03,.06,.05,.06,.16-.02,.23-.15,.3-.28,.08-.15,.13-.3,.19-.46,.02-.06-.06-.1-.1-.06h0Z"/><path class="s" d="M20.34,10.94c-.28,.14-.02,1.02,.27,.85,.16-.1-.01-.4-.06-.51-.02-.05-.11-.39-.21-.34h0Z"/><path class="s" d="M20.81,10.88c.01,.14,0,.27,.06,.4,.06,.14,.14,.26,.28,.31,.04,.01,.09,0,.12-.03,.11-.11-.04-.26-.11-.33-.05-.06-.09-.13-.14-.19-.05-.06-.11-.11-.16-.17-.01-.02-.05,0-.05,.02h0Z"/><path class="h" d="M17.47,10.98c.59-.48,1.35-.75,2.11-.77,.76-.02,1.53,.22,2.14,.67-.29,.21-.66,.29-1.02,.36-.31,.06-.75,.12-1.06,.13-.44,.01-.84-.02-1.27-.11-.33-.07-.57-.11-.9-.28Z"/><path class="s" d="M19.63,11.29c.24,0,.43-.2,.43-.43s-.2-.43-.43-.43-.43,.2-.43,.43,.2,.43,.43,.43h0Z"/><g class="u"><path class="k" d="M16.58,4.52c-.66,.39-.89,.98-.8,1.73,.04,.34,.18,.65,.36,.93,.61,.99,.25,1.63-.14,2.58-.03,.06,.06,.13,.12,.09,.73-.53,.86-1.28,.77-2.14-.04-.39-.29-.62-.49-.93-.42-.67-.3-1.65,.26-2.17,.05-.05-.01-.12-.07-.09h0Z"/><path class="k" d="M17.55,4.21c-.38,.41-.7,1.08-.54,1.66,.12,.42,.33,.75,.55,1.13,.58,.98-.07,1.79-.3,2.7-.03,.11,.11,.19,.19,.11,.57-.59,.78-1.37,.74-2.18-.02-.4-.25-.79-.45-1.12-.42-.69-.52-1.5-.12-2.24,.03-.05-.04-.1-.08-.06h0Z"/><path class="k" d="M18.74,4.58c-.43,.66-.37,1.26-.11,1.99,.15,.41,.42,.77,.58,1.17,.29,.74-.27,1.44-.38,2.15-.02,.1,.09,.18,.18,.1,.58-.54,.83-1.23,.77-2.01-.1-1.28-1.5-1.94-.98-3.37,.01-.04-.04-.06-.06-.03h0Z"/><path class="k" d="M19.59,4.47c-.24,.71,.02,1.21,.44,1.8,.39,.54,.58,.98,.61,1.66,.03,.71-.39,1.25-.51,1.91-.02,.09,.06,.14,.14,.11,.8-.36,.87-1.54,.83-2.31-.07-1.24-1.45-1.93-1.37-3.14,0-.08-.12-.09-.14-.02h0Z"/><path class="k" d="M20.59,4.25c-.09,.96,.31,1.63,.97,2.3,1.17,1.2-.11,2.53-.26,3.8-.01,.09,.12,.14,.18,.08,.66-.75,1.05-1.9,1.03-2.89,0-.35-.17-.8-.41-1.07-.64-.71-1.25-1.21-1.43-2.23,0-.04-.07-.03-.07,0h0Z"/><path class="k" d="M21.47,4.59c.15,.56,.7,1,.99,1.49,.69,1.18,.97,2.4,.66,3.74-.23,.98-.77,1.85-.98,2.84-.17,.81,.2,1.54,.45,2.29,.32,.94,.79,1.96,.89,2.95,.1,.97-.51,1.91-.84,2.79-.46,1.22-.15,2.7,.79,3.59,.07,.06,.18-.02,.13-.1-1.25-1.88-.48-3.33,.13-5.23,.49-1.53-.5-3.43-1.07-4.81-.77-1.87,.94-3.8,.96-5.72,0-.77-.32-1.51-.64-2.19-.35-.75-.93-1.03-1.36-1.67-.04-.06-.14-.02-.12,.05h0Z"/><path class="k" d="M21.08,15.34c.67,.67,1.18,1.4,1.29,2.36,.09,.78-.26,1.52-.27,2.29,0,.1,.14,.13,.19,.05,1.13-1.77,.47-3.66-1.06-4.85-.1-.08-.25,.05-.15,.15h0Z"/><path class="k" d="M23.37,4.87c.5,.65,.84,1.22,1.02,2.04,.25,1.13-.13,2.27-.48,3.33-.47,1.43-1.25,2.63-.5,4.17,.39,.79,.86,1.45,1.09,2.32,.34,1.28,.05,2.32-.45,3.51-.55,1.29-.74,2.76,.25,3.87,.07,.08,.22,0,.18-.1-.39-.99-.53-1.85-.26-2.9,.21-.83,.77-1.59,.86-2.45,.08-.81-.02-1.58-.22-2.36-.22-.87-.79-1.55-1.1-2.38-.7-1.85,.98-3.79,1.12-5.65,.09-1.27-.2-2.85-1.43-3.45-.04-.02-.11,.03-.08,.08h0Z"/><path class="k" d="M25.46,6.1c0,.96,.28,1.79,.05,2.77-.22,.95-.6,1.84-.9,2.77-.61,1.88,.32,3.32,.95,5.04,.36,.99,.55,1.93,.2,2.96-.29,.88-.82,1.59-1.02,2.51-.33,1.47,.55,2.38,1.67,3.12,.12,.08,.25-.07,.19-.19-.35-.67-.98-1.02-1.26-1.77-.39-1.06,.38-2.23,.81-3.14,.63-1.34,.32-2.64-.19-3.96-.31-.81-.76-1.56-1.03-2.39-.34-1.05,.02-2.11,.38-3.1,.29-.8,.56-1.61,.74-2.45,.17-.78-.23-1.46-.43-2.18-.03-.09-.16-.07-.16,.02h0Z"/><path class="k" d="M26.72,9.81c-.8,.96-1.12,2.13-.98,3.37,.11,1,.45,2.29,1.5,2.66,.12,.04,.25-.12,.17-.23-1.13-1.63-1.8-3.87-.53-5.67,.07-.1-.09-.22-.17-.13h0Z"/><path class="k" d="M26.62,16.86c.66,1.02,.88,1.98,.39,3.14-.36,.83-.82,1.47-.98,2.38-.21,1.21,.9,2.18,1.97,2.43,.12,.03,.22-.12,.13-.22-.56-.53-1.28-.85-1.54-1.64-.33-.99,.68-2.17,1.04-3.04,.47-1.13,.19-2.54-.89-3.17-.07-.04-.15,.04-.11,.11h0Z"/><path class="k" d="M27.85,17.21c.6,1.14,.74,2.21,.2,3.41-.27,.6-.53,1.08-.54,1.75-.02,.94,.91,1.88,1.8,1.98,.08,0,.11-.1,.06-.15-.48-.52-1.01-.83-1.29-1.53-.34-.83,.42-1.78,.67-2.55,.36-1.08-.08-2.14-.73-2.99-.07-.09-.21-.02-.16,.09h0Z"/></g><path class="i" d="M15.54,2.84c-.06-.21-.19-.58-.22-.85,0-.07,.06-.13,.13-.11,.15,.04,1.29,.98,1.76,1.3,.08,.05,.18,.02,.22-.06,.29-.68,.47-1.5,.62-2.23,.02-.09,.14-.12,.19-.04,.44,.63,.96,1.29,1.27,2,.02,.05,.08,.04,.1,0,.28-.74,.61-1.45,.98-2.15,.06-.11,.21-.1,.26,0,.32,.72,.37,1.4,.63,2.16,.03,.09,.08,.19,.17,.21,.1,.02,.18-.07,.23-.16,.19-.29,.91-1.63,1.27-1.96,.1-.09,.26-.04,.29,.09,.2,.82,.12,2.23,.38,2.4,.16,.11,1.43-1.4,1.99-1.4,.03,0,.03,.02,.04,.04,.15,.21-.26,1.7-.46,2.65-.03,.14-.37,2.19-.46,2.12-.47-.39-1.34-.84-2.46-1.13-2.25-.58-3.55-.54-5.85-.29-.11,.01-.23,.02-.33-.04-.07-.05-.11-.12-.14-.19-.18-.39-.32-1.19-.62-2.34Z"/><path class="v" d="M15.94,3.04c.11,.25,.25,.5,.4,.73,.17,.25,.58,0,.4-.24-.17-.22-.39-.41-.52-.65-.1-.19-.36-.02-.28,.16h0Z"/><path class="v" d="M18.12,2.26c.03,.37-.21,.9,.14,1.19,.24,.2,.63,.02,.54-.31-.04-.15-.13-.29-.17-.44-.05-.16-.11-.32-.16-.49-.05-.19-.37-.16-.35,.05h0Z"/><path class="v" d="M20.48,2.07c-.1,.35-.26,.68-.27,1.05-.02,.43,.65,.43,.66,0,.01-.35-.06-.71-.12-1.05-.02-.14-.24-.13-.28,0h0Z"/><path class="v" d="M22.8,2.49c-.15,.29-.36,.54-.44,.87-.07,.32,.41,.55,.55,.23,.14-.31,.12-.64,.22-.96,.06-.19-.23-.32-.33-.14h0Z"/><path class="v" d="M25.02,3.24c-.27,.34-1.08,.59-.79,1.17,.1,.2,.36,.2,.51,.07,.08-.07,.1-.17,.14-.25,.05-.1,.11-.19,.17-.28,.11-.17,.21-.33,.29-.52,.07-.17-.2-.33-.31-.18h0Z"/><path class="s" d="M16.31,4.55c.19,0,.19-.29,0-.29s-.19,.29,0,.29h0Z"/><path class="s" d="M16.85,4.43c.24,0,.24-.37,0-.37s-.24,.37,0,.37h0Z"/><path class="s" d="M17.4,4.3c.25,0,.25-.39,0-.39s-.25,.39,0,.39h0Z"/><path class="s" d="M18.09,4.17c.24,0,.24-.38,0-.38s-.25,.38,0,.38h0Z"/><path class="s" d="M18.84,4.12c.25,0,.25-.39,0-.39s-.25,.39,0,.39h0Z"/><path class="s" d="M19.55,4.1c.27,0,.27-.42,0-.42s-.27,.42,0,.42h0Z"/><path class="s" d="M20.33,4.13c.26,0,.26-.4,0-.4s-.26,.4,0,.4h0Z"/><path class="s" d="M21.09,4.24c.3,0,.3-.47,0-.47s-.3,.47,0,.47h0Z"/><path class="s" d="M21.86,4.38c.31,0,.31-.48,0-.48s-.31,.48,0,.48h0Z"/><path class="s" d="M22.64,4.59c.26,0,.26-.41,0-.41s-.27,.41,0,.41h0Z"/><path class="s" d="M23.29,4.84c.31,0,.31-.49,0-.49s-.31,.49,0,.49h0Z"/><path class="s" d="M23.89,5.07c.29,0,.29-.44,0-.44s-.29,.44,0,.44h0Z"/><path class="s" d="M24.53,5.21h.01c.14-.03,.14-.26,0-.28h-.01c-.24-.05-.24,.33,0,.28h0Z"/><path class="s" d="M25.05,5.35s.02-.03,0-.03-.02,.03,0,.03h0Z"/><path class="s" d="M25.01,5.49c.26,0,.26-.41,0-.41s-.26,.41,0,.41h0Z"/><path class="i" d="M25.45,6.09c.09,.09,.18,.19,.27,.28,.07,.07,.19,.16,.28,.07,.09-.09,0-.21-.08-.27-.1-.09-.19-.18-.29-.26-.12-.11-.3,.06-.18,.18h0Z"/><path class="i" d="M26.06,5.8c.08,.07,.15,.15,.22,.23,.08,.09,.15,.19,.27,.22,.08,.02,.15-.04,.16-.12,.03-.25-.3-.44-.49-.53-.12-.06-.26,.1-.15,.2h0Z"/><path class="i" d="M25.49,6.94c.05,.12,.11,.24,.19,.34,.11,.13,.33,0,.28-.17-.04-.11-.1-.21-.15-.32-.08-.18-.4-.05-.32,.14h0Z"/><path class="i" d="M26.51,6.93c.06,.17,.14,.37,.32,.44,.09,.04,.23-.03,.19-.15-.05-.15-.17-.27-.24-.4-.08-.14-.32-.04-.26,.11h0Z"/><path class="i" d="M26.26,7.86c.03,.14,.08,.28,.14,.41,.03,.07,.07,.12,.14,.16-.07-.03,.03,.02,.04,.02,.03,0,.05,.01,.08,0,.13-.04,.13-.23,.09-.33-.05-.13-.14-.25-.2-.38-.07-.17-.33-.04-.29,.12h0Z"/><path class="i" d="M26.24,9.25c.06,.18,.16,.41,.33,.51,.1,.06,.24-.04,.2-.15-.05-.17-.22-.29-.31-.45-.07-.12-.27-.04-.22,.09h0Z"/><path class="i" d="M27.25,8.17c.03,.15,.03,.32,.16,.42,.06,.05,.13,.07,.21,.03,.06-.04,.1-.12,.08-.19-.04-.11-.09-.22-.14-.33-.08-.19-.34-.12-.3,.08h0Z"/><path class="i" d="M27.39,9.4c.03,.16-.03,.37,.05,.51,.05,.09,.19,.09,.24,0,.05-.09,.04-.17,.03-.27,0-.11-.02-.21-.05-.32-.05-.18-.31-.1-.28,.08h0Z"/><path class="i" d="M27.4,7.22c.03,.14,.01,.28,.12,.4,.1,.11,.26,0,.23-.13-.02-.12-.1-.24-.18-.34-.06-.09-.2-.04-.18,.07h0Z"/><path class="i" d="M26.96,10.38c0,.12,0,.24,.02,.36,0,.08,.05,.2,.15,.2s.14-.12,.15-.2c0-.13-.06-.27-.09-.39-.03-.13-.24-.1-.23,.03h0Z"/><path class="i" d="M26.45,11.06c-.05,.19-.08,.5,.09,.64,.1,.09,.23,.05,.28-.07,.08-.19-.09-.38-.12-.56-.02-.13-.22-.11-.25,0h0Z"/><path class="i" d="M27.76,10.69c.03,.14,.04,.37,.19,.44,.03,.01,.07,.02,.09-.01,.11-.14,.03-.34,0-.5-.03-.19-.32-.11-.28,.08h0Z"/><path class="i" d="M27.44,11.95c.05,.12,.04,.28,.19,.33,.04,.01,.07-.01,.09-.05,.05-.12-.02-.29-.07-.4-.06-.14-.27-.02-.21,.12h0Z"/><path class="i" d="M26.77,12.6c0,.14,.02,.31,.08,.43,.04,.09,.2,.07,.22-.03,.03-.14-.04-.27-.03-.41,0-.17-.26-.17-.26,0h0Z"/><path class="i" d="M28.08,12.55c0,.07,.02,.14,.04,.21,.02,.07,.02,.15,.04,.21,.01,.04,.04,.08,.08,.08,.01,0,.02,0,.03,0,.05,0,.1-.04,.12-.09,.04-.15-.04-.31-.07-.46-.03-.13-.26-.1-.24,.03h0Z"/><path class="i" d="M27.57,13.3c.02,.13,0,.26,.06,.38,.05,.1,.23,.09,.25-.03,.02-.13,0-.29-.03-.42-.04-.18-.31-.1-.28,.08h0Z"/><path class="i" d="M26.71,13.79c.02,.13,.05,.26,.14,.36,.03,.04,.09,.05,.14,.04,.2-.07,.04-.34,.02-.48-.03-.2-.34-.12-.3,.08h0Z"/><path class="i" d="M28.19,13.86c.01,.1,.04,.19,.12,.25,.07,.05,.17-.02,.17-.1,0-.07-.03-.12-.03-.19-.02-.19-.29-.15-.26,.04h0Z"/><path class="v" d="M20.69,14.68c.49,0,.89-.4,.89-.89s-.41-.89-.89-.89-.89,.4-.89,.89,.41,.89,.89,.89h0Z"/><path class="v" d="M18.12,22.24c.3,0,.3-.47,0-.47s-.3,.47,0,.47h0Z"/><path class="v" d="M18.66,22.68c.25,0,.25-.39,0-.39s-.25,.39,0,.39h0Z"/><path class="v" d="M19.28,22.92c.28,0,.28-.43,0-.43s-.28,.43,0,.43h0Z"/><path class="v" d="M19.98,23.04c.27,0,.27-.42,0-.42s-.27,.42,0,.42h0Z"/><path class="v" d="M20.65,23.09c.29,0,.29-.45,0-.45s-.29,.45,0,.45h0Z"/><path class="v" d="M21.32,23.07c.29,0,.29-.46,0-.46s-.3,.46,0,.46h0Z"/><path class="v" d="M22.02,22.93c.26,0,.26-.4,0-.4s-.26,.4,0,.4h0Z"/><path class="v" d="M22.72,22.72c.3,0,.3-.47,0-.47s-.3,.47,0,.47h0Z"/><path class="v" d="M20.61,24.21c.27,0,.49-.22,.49-.49s-.22-.48-.49-.48-.48,.22-.48,.48,.22,.49,.48,.49h0Z"/><g><path class="n" d="M11.45,30.78c.09-.71,.07-1.42-.04-2.13-.22-.01-.82-2.51-.93-2.6-.96-.76-.96,.71-.8-.19,.05-.31,.62-.63,.42-.92-.12-.07-.66-.13-1.29,.19-.55,.28-.74,.71-.86,1.1-.12,.39-.04,.81,.33,1.16,.11,.11,.25,.21,.36,.33,.24,.27,.27,.58,.31,.87,.09,.7,.3,1.4,.51,2.09,.02,.08,.05,.16,.17,.21,.08,.03,.18,.04,.29,.05,.37,.03,.74,.05,1.12,.06,.1,0,.21,0,.29-.03,.11-.04,.13-.12,.14-.19Z"/><path class="v" d="M9.54,13.92c-.03-.83-.02-1.26-.03-1.76,0-.18,.19-.38,.28-.28,.09,.09,.35,3.46,.85,3.37,.17-.03-.02-2.11,.05-3,.02-.23,.13-.49,.26-.46,.16,.03,.29,2.86,.58,3.24,.14,.19,.29-1.84,.47-2.73,.05-.23,.2-.59,.33-.41,.09,.12,.15,.74,.18,2.64,.02,1.02,.09,1.24-.19,1.68-.29,.44-.42,.16-.8,.45-.1,.08-.12,.47-.13,.6-.06,.99-.01,1.77-.07,2.76-.05,.78,.38,6.66,.43,7.34,.01,.16,.02,.34-.06,.48-.08,.14-.25,.4-.36-1.48-.28-4.66-.31-5.4-.25-9.44,0-.14-.08-.31-.32-.37-.24-.06-.47,.14-.93-.52-.17-.25-.24-1.08-.28-2.12Z"/><path class="j" d="M9.07,22.8c.15-.23,.5-.49,.77-.48,.62,0,1.02,.08,1.68,.16,.11,.01,.22,.07,.27,.17,.03,.06,.14,.35-.3,.48-.14,.04-.28,.05-.42,.05-.34,0-1.18-.13-1.2,0-.03,.16,1.49,.26,2,.57,.06,.04,.12,.08,.15,.14,.09,.18-.04,.34-.24,.4-.46,.14-1.09-.24-1.78-.26-.05,0-.07,.07-.02,.1,.64,.27,1.54,.53,1.86,1.04,.11,.17-.08,.38-.29,.4-.31,.03-1.22-.54-1.42-.49-.06,.01-.06,.14,.19,.27,.29,.14,.68,.41,.87,.58,.11,.1,.16,.26,.11,.39-.07,.2-.37,.08-.54,.07-.16,0-.63-.27-.86-.41-.19-.11-.12,.3-.11,.52,.02,.35-.01,.69-.19,.76-.35,.12-.71-.09-1.01-.3-.1-.07-.2-.13-.26-.23-.05-.08-.22-.45-.22-.54-.03-1.82,.27-2.3,.96-3.39Z"/><path class="t" d="M11.06,22.7c.06,.15,.16,.19,.3,.25,.07,.02,.14,.04,.21,.05,.04,0,.08,0,.12,0,.02,0,.11-.05,.06-.03,.1-.04,.15-.12,.13-.23,.02,.09-.03-.08-.03-.09-.02-.03-.04-.06-.07-.09-.06-.06-.14-.08-.22-.11-.12-.03-.3-.04-.41,.04-.06,.05-.12,.13-.08,.21h0Z"/><path class="t" d="M11.45,24.03c.14,.14,.29,.22,.49,.19,.2-.03,.27-.33,.12-.46-.12-.1-.28-.16-.44-.15-.09,.01-.16,.04-.21,.12-.05,.09-.04,.22,.04,.3h0Z"/><path class="t" d="M11.27,25.08s0,.1,0,.03c0,0,.05,.16,.02,.09,.03,.08,.08,.15,.14,.21,.09,.1,.19,.14,.33,.11,.09-.01,.18-.09,.19-.18,.02-.11,0-.22-.09-.3-.02-.01-.04-.03-.06-.04,.02,.02,.02,.02,0,0-.04-.03-.08-.06-.12-.08-.15-.08-.4-.06-.42,.15h0Z"/><path class="t" d="M10.76,26.03c.02,.07,.05,.12,.1,.19,.06,.09,.15,.18,.26,.2,.17,.03,.36-.1,.3-.3-.06-.19-.31-.4-.52-.32-.1,.04-.16,.13-.13,.23h0Z"/><path class="s" d="M9.06,22.76c-.02,.07-.05,.14-.04,.21,.01,.13,.17,.14,.21,.03,.02-.06,.03-.12,.05-.17,.05-.14-.18-.21-.23-.06h0Z"/><path class="s" d="M8.97,23.53c-.05,.09-.09,.2-.05,.3,.05,.15,.3,.14,.29-.04,0-.07-.02-.13-.01-.2,.01-.12-.17-.16-.23-.06h0Z"/><path class="s" d="M8.87,24.41c-.02,.11-.03,.22,.04,.3,.05,.06,.18,.04,.19-.05,.01-.08-.01-.15-.01-.22,0-.13-.2-.16-.23-.03h0Z"/><path class="s" d="M8.9,25.44c.03,.1,.07,.19,.16,.24,.09,.05,.23-.04,.19-.15-.03-.07-.07-.13-.11-.2-.07-.14-.29-.04-.25,.1h0Z"/><path class="v" d="M9.95,20.91c.18,.27,.5,.42,.83,.44,.09,0,.18,0,.27-.03,.03,0,.05-.02,.07-.04,.04-.04,.03-.12,0-.17-.07-.17-.14-.46-.5-.66-.43-.24-.76-.33-.98-.31,0,.01,0,.01-.01,.03,.13,.23,.18,.51,.33,.74Z"/><path class="v" d="M11.24,22.06s0-.04,0-.06c.05-.32,.35-.55,.66-.64,.31-.09,.64-.08,.96-.12-.07,.15-.16,.29-.27,.42-.06,.07-.12,.14-.18,.2-.29,.26-.73,.36-1.1,.24-.02,0-.05-.02-.06-.04Z"/><path class="n" d="M12.25,34.1c.57-.72,.58-1.95,.55-2.38-.03-.45-.07-.91-.22-1.33-.21-.61-.62-1.11-1.03-1.61-.14-.17-.29-.57-.47-.71-.7-.56-1.39,.17-2.28,.11-.05,.28-.23,.5-.42,.71-.53,.59-1.61,.85-2.07,2.12-.51,1.42-.04,2.22,.86,3.4,.57,.74,2.1,.62,2.93,.61,.87-.02,1.6-.24,2.14-.92Z"/><path class="t" d="M11.24,30.04c.16,.75,.19,1.5,.15,2.27-.03,.65-.6,1.08-.56,1.69,.03,.35,.52,.55,.71,.19,.34-.65,.63-1.12,.62-1.89-.01-.83-.22-1.67-.56-2.42-.09-.21-.4-.05-.36,.15h0Z"/><path class="t" d="M9.85,29.82c-.35,.63-.43,1.31-.48,2.02-.04,.69,.18,1.37,.11,2.05-.05,.54,.81,.54,.84,0,.04-.6-.15-1.18-.17-1.77-.03-.73,.04-1.46,.05-2.2,0-.19-.26-.26-.36-.1h0Z"/><path class="t" d="M8.51,29.7c-.5,.67-.65,1.44-.7,2.26-.04,.64,.12,1.64,.72,1.98,.13,.07,.28,0,.33-.13,.21-.56-.27-1.24-.29-1.84-.03-.7,.11-1.45,.29-2.12,.06-.22-.22-.31-.34-.14h0Z"/><path class="v" d="M11.33,28.87h0c-.01-.06-.06-.11-.11-.12h0c-.16-.02-.29,.15-.16,.28,.12,.12,.32,0,.28-.16h0Z"/><path class="v" d="M10.66,29.1c.23,0,.23-.36,0-.36s-.23,.36,0,.36h0Z"/><path class="v" d="M10.1,29.07c.2,0,.2-.32,0-.32s-.2,.32,0,.32h0Z"/><path class="v" d="M9.56,29.09c.25,0,.25-.38,0-.38s-.24,.38,0,.38h0Z"/><path class="v" d="M9,29.04c.22,0,.22-.35,0-.35s-.22,.35,0,.35h0Z"/></g><path class="t" d="M20.76,30.3c.33-.47,.25-1.09,.27-1.64,.01-.5-.78-.5-.78,0,0,.55,.04,1.14,.28,1.64,.05,.1,.18,.08,.24,0h0Z"/><path class="t" d="M20.67,31.5c-.19,.27-.19,.62-.2,.94-.01,.39-.07,.82,.1,1.18,.1,.21,.47,.22,.57,0,.15-.33,.09-.68,.05-1.03-.04-.36-.04-.77-.24-1.09-.07-.11-.21-.1-.28,0h0Z"/><path class="t" d="M20.23,30.77c-.28-.22-.74-.21-1.07-.13-.37,.09-.29,.72,.09,.67,.31-.04,.73-.11,.98-.32,.06-.05,.06-.17,0-.22h0Z"/><path class="t" d="M21.38,30.78c.09,.15,.29,.18,.45,.2,.2,.02,.45,.08,.65,0,.18-.07,.27-.29,.12-.44-.17-.17-.41-.17-.63-.15-.19,.02-.48,.06-.58,.24-.03,.04-.03,.11,0,.15h0Z"/><path class="v" d="M20.84,31.07c.22,0,.22-.34,0-.34s-.22,.34,0,.34h0Z"/><path class="v" d="M14.62,25.85c.24,0,.24-.38,0-.38s-.24,.38,0,.38h0Z"/><path class="v" d="M13.58,28.03v.02c.08,.16,.31,.1,.35-.05v-.02c.03-.12-.06-.24-.18-.24-.16,0-.22,.16-.16,.29h0Z"/><path class="v" d="M12.93,26.98c.2,0,.2-.32,0-.32s-.2,.32,0,.32h0Z"/><path class="v" d="M11.79,29.09c.25,0,.25-.39,0-.39s-.25,.39,0,.39h0Z"/><path class="v" d="M12.68,29.42h.02c.11,.06,.23,0,.23-.13v-.02c0-.13-.15-.21-.25-.15-.1,.06-.12,.24,0,.29h0Z"/><path class="v" d="M15.16,27.52v.03c.05,.18,.33,.18,.37,0,0-.01,0-.02,0-.03,.03-.12-.06-.25-.19-.25s-.22,.13-.19,.25h0Z"/><path class="v" d="M16.7,26.17c.3,0,.3-.46,0-.46s-.3,.46,0,.46h0Z"/><path class="v" d="M17.02,27.72c.25,0,.25-.39,0-.39s-.25,.39,0,.39h0Z"/><path class="v" d="M19.28,26.08c.24,0,.24-.37,0-.37s-.24,.37,0,.37h0Z"/><path class="v" d="M16.82,29.07c-.06,.07-.08,.13-.07,.22,0,.07,.09,.12,.15,.12,.09,0,.15-.07,.16-.16v-.02s-.01,.05-.02,.08h0c.15-.16-.09-.4-.23-.24h0Z"/><path class="v" d="M15.83,31.04c.23,0,.23-.36,0-.36s-.23,.36,0,.36h0Z"/><path class="v" d="M20.18,27.42c.3,0,.3-.46,0-.46s-.3,.46,0,.46h0Z"/><path class="v" d="M12.83,25.19h.02c.11,.08,.28,0,.27-.14v-.02c-.02-.14-.15-.24-.29-.16-.13,.07-.12,.25,0,.32h0Z"/><path class="v" d="M18.03,25.04c.23,0,.23-.36,0-.36s-.23,.36,0,.36h0Z"/><path class="v" d="M21.18,25.88c.29,0,.29-.45,0-.45s-.29,.45,0,.45h0Z"/><path class="v" d="M22.5,33.7s-.04,.07-.04,.12c0,.19,.29,.24,.34,.05h0s-.03,.04-.05,.06h.02c.19-.16-.12-.46-.28-.23h0Z"/><path class="v" d="M15.85,25.09c.2,0,.2-.31,0-.31s-.2,.31,0,.31h0Z"/><path class="v" d="M14.08,30.76c.27,0,.27-.42,0-.42s-.27,.42,0,.42h0Z"/><path class="v" d="M14.89,29.24c.29,0,.29-.45,0-.45s-.29,.45,0,.45h0Z"/><path class="v" d="M24.16,32.33v.02c-.1,.16,.05,.32,.21,.29,.06-.01,.11-.06,.13-.11,.04-.1,.03-.21-.07-.27-.09-.05-.22-.02-.27,.07h0Z"/><path class="v" d="M18.25,27.82h.04c.09,.01,.18-.07,.2-.15,.03-.1-.02-.18-.09-.23l-.03-.02c-.11-.08-.28,0-.32,.13-.04,.14,.07,.26,.21,.27h0Z"/><path class="v" d="M28.31,37.06v.02c.01,.07,.05,.14,.12,.16,.08,.02,.18-.03,.2-.11v-.02c.06-.26-.35-.27-.32-.04h0Z"/><path class="v" d="M13.53,31.98v.02c0,.22,.33,.22,.34,0v-.02c.01-.22-.34-.22-.34,0h0Z"/><path class="v" d="M18.59,37.1c.31,0,.31-.48,0-.48s-.31,.48,0,.48h0Z"/><path class="v" d="M8.24,35.78c.26,0,.26-.41,0-.41s-.26,.41,0,.41h0Z"/><path class="v" d="M9.66,35.53h.01c.07,.03,.12-.04,.11-.1v-.02c-.02-.07-.12-.09-.17-.04-.06,.06-.02,.14,.04,.16h0Z"/></g><g><path class="s" d="M5.52,11.89c0,.1-.04,.24-.04,.35,0,.1,0,.2,.01,.31,.04,.35,.16,.68,.42,.91-.24,.01-.83,.01-1.06,0,.26-.23,.38-.56,.42-.91,.01-.1,.01-.2,.01-.31s-.04-.24-.04-.35h.27Z"/><path class="s" d="M5.45,12.14c.1,.02,.15,.11,.33,.3,.16,.18,.32,.36,.69,.41,.19,.02,.44-.08,.55-.23,.1-.13,.15-.28,.19-.44,.08-.29,.05-.58-.1-.84-.14-.26-.52-.38-.76-.24-.13,.08-.17,.17-.28,.19-.04,0-.07-.03-.06-.06,.05-.18,.17-.2,.23-.41,.07-.25,.11-.44-.25-.76-.27-.24-.94-.22-1.22,0-.29,.22-.32,.42-.25,.67,.05,.2,.17,.29,.22,.45,.02,.06-.04,.11-.09,.09-.08-.03-.13-.11-.24-.18-.24-.14-.62-.03-.76,.24-.14,.26-.17,.55-.1,.84,.04,.15,.09,.31,.19,.44,.11,.15,.36,.25,.55,.23,.37-.05,.53-.23,.69-.41,.18-.2,.24-.29,.34-.3h.13Z"/></g><path class="s" d="M5.05,8.24c-.74,0-1.32-.28-1.74-.85-.42-.56-.63-1.26-.63-2.1,0-.89,.22-1.62,.65-2.19,.43-.56,1-.85,1.71-.85s1.25,.27,1.7,.81c.44,.54,.66,1.25,.66,2.14,0,.74-.17,1.38-.5,1.93-.33,.55-.75,.9-1.27,1.03v.08c0,.42,.25,.63,.76,.63,.24,0,.46-.02,.66-.05v.58c-.19,.06-.39,.09-.59,.09-.44,0-.78-.09-1.02-.28-.24-.19-.37-.51-.4-.97Zm0-.59c.5,0,.9-.23,1.18-.69,.28-.46,.42-1.05,.42-1.77s-.15-1.32-.44-1.73-.68-.62-1.17-.62-.88,.22-1.17,.67c-.29,.45-.43,1.03-.43,1.75s.15,1.28,.44,1.72c.29,.44,.68,.66,1.17,.66Z"/><g><path class="s" d="M35.6,50.64c0-.1,.04-.24,.04-.35s0-.2-.01-.31c-.04-.35-.16-.68-.42-.91,.24-.01,.83-.01,1.06,0-.26,.23-.38,.56-.42,.91-.01,.1-.01,.2-.01,.31,0,.1,.04,.25,.04,.35h-.27Z"/><path class="s" d="M35.67,50.39c-.1-.02-.16-.11-.33-.31-.16-.18-.33-.36-.69-.41-.19-.02-.44,.08-.55,.23-.1,.13-.15,.28-.19,.44-.08,.29-.05,.58,.09,.84,.14,.26,.52,.38,.76,.24,.13-.08,.17-.17,.28-.19,.04,0,.07,.03,.06,.06-.05,.18-.17,.2-.23,.41-.07,.25-.11,.44,.25,.76,.27,.24,.94,.22,1.22,0,.29-.22,.32-.42,.25-.67-.05-.2-.17-.29-.22-.45-.02-.06,.04-.11,.09-.09,.08,.03,.13,.11,.24,.18,.24,.14,.62,.03,.76-.24,.14-.26,.17-.55,.09-.84-.04-.15-.09-.31-.19-.44-.11-.15-.36-.25-.55-.23-.37,.05-.53,.23-.69,.41-.18,.2-.24,.29-.33,.31h-.13Z"/></g><path class="s" d="M36.07,54.3c.74,0,1.32,.28,1.74,.84,.42,.56,.63,1.27,.63,2.11,0,.89-.22,1.62-.65,2.19-.44,.56-1,.85-1.71,.85s-1.25-.27-1.7-.81c-.44-.54-.66-1.25-.66-2.14,0-.74,.17-1.38,.5-1.93,.33-.55,.76-.9,1.27-1.03v-.08c0-.42-.25-.63-.76-.63-.25,0-.46,.02-.66,.05v-.58c.19-.06,.39-.09,.59-.09,.44,0,.78,.09,1.02,.28s.37,.51,.4,.97Zm0,.59c-.5,0-.89,.23-1.18,.69-.28,.46-.43,1.05-.43,1.77s.15,1.32,.44,1.73c.29,.41,.68,.62,1.17,.62s.88-.22,1.17-.67,.43-1.03,.43-1.75-.15-1.28-.44-1.72c-.29-.44-.68-.66-1.17-.66Z"/><g><path class="i" d="M14.67,59.24H6.29c-1.66,0-3-1.43-3-3.19V15.78c0-.05,.04-.09,.09-.09s.09,.04,.09,.09V56.05c0,1.66,1.26,3,2.82,3H14.67c.05,0,.09,.04,.09,.09s-.04,.09-.09,.09Z"/><path class="i" d="M32.87,59.24h-6.27c-.05,0-.09-.04-.09-.09s.04-.09,.09-.09h6.27c.05,0,.09,.04,.09,.09s-.04,.09-.09,.09Z"/><path class="i" d="M37.74,47.04c-.05,0-.09-.04-.09-.09V6.49c0-1.66-1.26-3-2.82-3h-8.26c-.05,0-.09-.04-.09-.09s.04-.09,.09-.09h8.26c1.66,0,3,1.43,3,3.19V46.95c0,.05-.04,.09-.09,.09Z"/><path class="i" d="M15.04,3.49h-6.5c-.05,0-.09-.04-.09-.09s.04-.09,.09-.09h6.5c.05,0,.09,.04,.09,.09s-.04,.09-.09,.09Z"/></g></g></g></g></svg>