<?xml version="1.0" encoding="UTF-8"?><svg xmlns="http://www.w3.org/2000/svg" viewBox="0 0 40.93 62.29"><defs><style>.d{fill:#fff;}.e{fill:#d6002b;}.f{fill:#2d2d2d;}</style></defs><g id="a"/><g id="b"><g id="c"><g><g><rect class="d" x=".09" y=".09" width="40.74" height="62.1" rx="3.45" ry="3.45"/><path class="f" d="M37.39,62.29H3.54c-1.95,0-3.54-1.59-3.54-3.55V3.54C0,1.59,1.59,0,3.54,0H37.39c1.95,0,3.54,1.59,3.54,3.54V58.74c0,1.96-1.59,3.55-3.54,3.55ZM3.54,.19C1.69,.19,.19,1.69,.19,3.54V58.74c0,1.85,1.51,3.36,3.36,3.36H37.39c1.85,0,3.36-1.51,3.36-3.36V3.54c0-1.85-1.51-3.36-3.36-3.36H3.54Z"/></g><path class="e" d="M5.29,12.71s.09-.01,.13-.04c.3-.2,1.07-1.02,1.3-1.24,.04-.04,.09-.1,.08-.16,0-.05-.04-.09-.08-.12-.34-.34-.69-.65-1.01-1.01-.14-.15-.3-.33-.4-.34h-.05c-.1,0-.26,.18-.4,.34-.32,.35-.67,.67-1.01,1.01-.03,.04-.07,.07-.08,.12,0,.06,.04,.12,.08,.16,.22,.23,1,1.04,1.3,1.24,.04,.03,.09,.04,.13,.04h0Z"/><path class="e" d="M35.66,52.24s.09-.01,.13-.04c.3-.2,1.07-1.02,1.3-1.24,.04-.04,.09-.1,.08-.16,0-.05-.04-.09-.08-.12-.34-.34-.69-.65-1.01-1.01-.14-.15-.3-.33-.4-.33h-.05c-.1,0-.26,.18-.4,.33-.32,.36-.67,.67-1.01,1.01-.03,.04-.07,.07-.08,.12,0,.06,.04,.11,.08,.16,.22,.23,1,1.05,1.3,1.24,.04,.03,.09,.04,.13,.04h0Z"/><path class="e" d="M6.96,8.29l-.69-.02,.04-1.37-2.84-.09,.02-.48,2.77-3.92,.89,.03-.13,3.93,.93,.03-.02,.57-.93-.03-.04,1.37Zm-.63-1.96l.09-2.71c0-.2,.02-.41,.03-.63-.13,.22-.24,.39-.33,.53l-1.89,2.75,2.1,.07Z"/><path class="e" d="M33.99,53.99l.69,.02-.04,1.37,2.84,.09-.02,.48-2.77,3.92-.89-.03,.13-3.93-.93-.03,.02-.57,.93,.03,.04-1.37Zm.63,1.96l-.09,2.72c0,.2-.02,.41-.03,.63,.13-.22,.24-.39,.33-.53l1.89-2.75-2.1-.07Z"/><g><path class="e" d="M14.1,13.21c.16,0,.31-.04,.44-.13,.99-.65,3.53-3.34,4.27-4.09,.14-.14,.28-.32,.26-.52-.02-.16-.14-.29-.25-.4-1.11-1.11-2.28-2.15-3.32-3.31-.45-.5-.98-1.08-1.32-1.1h-.17c-.33,.02-.87,.6-1.32,1.1-1.04,1.17-2.21,2.21-3.32,3.31-.11,.11-.23,.24-.25,.4-.02,.2,.12,.37,.26,.52,.74,.75,3.28,3.44,4.27,4.09,.13,.09,.28,.13,.44,.13h0Z"/><path class="e" d="M26.83,13.21c.16,0,.31-.04,.44-.13,.99-.65,3.53-3.34,4.27-4.09,.14-.14,.28-.32,.26-.52-.02-.16-.14-.29-.25-.4-1.11-1.11-2.28-2.15-3.32-3.31-.45-.5-.98-1.08-1.32-1.1h-.17c-.33,.02-.87,.6-1.32,1.1-1.04,1.17-2.21,2.21-3.32,3.31-.11,.11-.23,.24-.25,.4-.02,.2,.12,.37,.26,.52,.74,.75,3.28,3.44,4.27,4.09,.13,.09,.28,.13,.44,.13h0Z"/></g><g><path class="e" d="M26.83,49.08c-.16,0-.31,.04-.44,.13-.99,.66-3.53,3.34-4.27,4.09-.14,.14-.28,.32-.26,.52,.02,.16,.14,.29,.25,.4,1.11,1.11,2.28,2.15,3.32,3.31,.45,.5,.98,1.08,1.32,1.1h.17c.33-.02,.87-.6,1.32-1.1,1.04-1.16,2.21-2.21,3.32-3.31,.11-.11,.23-.24,.25-.4,.02-.2-.12-.37-.26-.52-.74-.75-3.28-3.44-4.27-4.09-.13-.09-.28-.13-.44-.13h0Z"/><path class="e" d="M14.1,49.08c-.16,0-.31,.04-.44,.13-.99,.66-3.53,3.34-4.27,4.09-.14,.14-.28,.32-.26,.52,.02,.16,.14,.29,.25,.4,1.11,1.11,2.28,2.15,3.32,3.31,.45,.5,.98,1.08,1.32,1.1h.17c.33-.02,.87-.6,1.32-1.1,1.04-1.16,2.21-2.21,3.32-3.31,.11-.11,.23-.24,.25-.4,.02-.2-.12-.37-.26-.52-.74-.75-3.28-3.44-4.27-4.09-.13-.09-.28-.13-.44-.13h0Z"/></g></g></g></g></svg>