<?xml version="1.0" encoding="UTF-8"?><svg xmlns="http://www.w3.org/2000/svg" xmlns:xlink="http://www.w3.org/1999/xlink" viewBox="0 0 40.93 62.29"><defs><style>.j{fill:#fff;}.k{fill:#d6002b;}.l{clip-path:url(#h);}.m{fill:#ffd6a1;}.n{fill:#b70027;}.o{clip-path:url(#e);}.p{clip-path:url(#d);}.q{fill:#222272;}.r{fill:none;}.s{fill:#2d2d2d;}.t{clip-path:url(#f);}.u{fill:#0c0a35;}.v{clip-path:url(#i);}.w{fill:#990028;}.x{clip-path:url(#g);}.y{fill:#f70032;}</style><clipPath id="d"><path class="r" d="M19.57,16.44c.07,0,.12-.05,.12-.12,0-.16-.09-.33-.18-.47-.25-.39-.5-.78-.75-1.17-.05-.08-.11-.17-.2-.23-.12-.08-.34-.16-.48-.16-.63,.03-1.04,0-1.67,.02-.13,0-.26,0-.37,.07-.09,.05-.16,.14-.23,.22-.3,.39-1.29,1.38-1.35,1.65-.05,.21,3.55,.16,5.11,.17Z"/></clipPath><clipPath id="e"><path class="r" d="M21.46,16.65c.13-.28,.11-.6,.21-.89,.09-.27,.35-.54,.62-.48,.03,0,.05,.03,.05,.06,.05,.62,.07,1.25,.06,1.87,0,.23-.02,.46-.11,.66-.09,.18-.5,.6-.89,1.02-.75,.8-1.12,.92-1.95,1.63-.52,.44-1.04,.88-1.55,1.32-.15,.13-.31,.26-.5,.33-.19,.07-.42,.06-.57-.07-.15-.13-.19-.33-.21-.52-.12-.98-.33-2.71-.44-3.64-.03-.22,.09,0,.58,.03,1.17,.06,2.25-.26,3.38-.54,.52-.13,1.1-.31,1.33-.79Z"/></clipPath><clipPath id="f"><path class="r" d="M23.6,12.53c.05,.52,.11,1.03,.16,1.55,.21,1.98,.41,3.95,.67,5.93,.01,.09,.04,.2,.12,.22,.06,.02,.12-.01,.17-.04,1.48-.78,2.96-1.55,4.35-2.47,.3-.2,.61-.43,.7-.78,.08-.33-.07-.67-.21-.97-.83-1.73-1.75-3.42-2.37-5.23-.17-.5-.32-1-.58-1.46-.08-.14-.16-.27-.29-.36-.13-.1-.29-.14-.44-.18-.94-.24-1.91-.37-2.89-.39-.04,.32,.05,.65,.12,.96,.25,1.06,.36,2.14,.48,3.23Z"/></clipPath><clipPath id="g"><path class="r" d="M21.81,45.84c-.07,0-.12,.05-.12,.12,0,.16,.09,.33,.18,.47,.25,.39,.5,.78,.75,1.17,.05,.09,.11,.17,.2,.23,.12,.08,.33,.16,.48,.16,.63-.02,1.04,0,1.67-.02,.13,0,.26-.01,.37-.07,.09-.05,.16-.14,.23-.22,.3-.39,1.29-1.38,1.35-1.65,.05-.21-3.55-.16-5.11-.17Z"/></clipPath><clipPath id="h"><path class="r" d="M19.92,45.63c-.13,.28-.11,.6-.21,.89-.09,.28-.35,.54-.62,.48-.03,0-.05-.04-.05-.06-.05-.62-.07-1.25-.06-1.87,0-.22,.02-.46,.11-.66,.09-.18,.5-.6,.9-1.02,.75-.8,1.12-.92,1.95-1.63,.52-.44,1.03-.88,1.55-1.33,.15-.13,.31-.26,.5-.33,.19-.07,.42-.06,.57,.07,.15,.13,.19,.33,.21,.52,.12,.98,.33,2.71,.44,3.64,.03,.22-.09,0-.58-.03-1.17-.06-2.25,.26-3.38,.54-.52,.13-1.1,.31-1.32,.79Z"/></clipPath><clipPath id="i"><path class="r" d="M17.78,49.76c-.05-.52-.11-1.03-.16-1.55-.21-1.98-.41-3.95-.67-5.92-.01-.09-.04-.2-.12-.22-.06-.02-.12,.01-.17,.04-1.48,.78-2.96,1.55-4.35,2.47-.3,.2-.61,.43-.7,.78-.08,.33,.07,.67,.21,.98,.83,1.72,1.75,3.42,2.37,5.23,.17,.5,.32,1,.58,1.46,.08,.14,.17,.27,.29,.36,.13,.09,.29,.14,.44,.18,.94,.24,1.91,.37,2.89,.39,.04-.32-.05-.65-.12-.96-.25-1.06-.36-2.14-.48-3.23Z"/></clipPath></defs><g id="a"/><g id="b"><g id="c"><g><g><path class="j" d="M3.54,.09H37.39c1.9,0,3.45,1.55,3.45,3.45V58.74c0,1.9-1.55,3.45-3.45,3.45H3.54c-1.9,0-3.45-1.55-3.45-3.45V3.54C.09,1.64,1.64,.09,3.54,.09Z"/><path class="s" d="M37.39,62.29H3.54c-1.95,0-3.54-1.59-3.54-3.54V3.54C0,1.59,1.59,0,3.54,0H37.39c1.95,0,3.54,1.59,3.54,3.54V58.74c0,1.95-1.59,3.54-3.54,3.54ZM3.54,.19C1.69,.19,.19,1.69,.19,3.54V58.74c0,1.85,1.51,3.36,3.36,3.36H37.39c1.85,0,3.36-1.51,3.36-3.36V3.54c0-1.85-1.5-3.36-3.36-3.36H3.54Z"/></g><g><path class="w" d="M21.64,20.19c.8,.01,1.56,.26,2.31,.49,1.8,.57,3.22,.72,4.94,1.38,3.73,1.43,8.13,2.08,7.63,9.93-.21,3.26-1.47,3.45-4,6.7-.55,.71-3.81-1.2-4.87-1.18-6.09,.12-10.62,.3-16.72,.43-.17,0-.57,.15-.66,.04-.4-.46-3.92-5.7-4.25-8.58-.2-1.74,.21-2.76,.79-3.76,.36-.62,1.91-1.75,2.57-2.18,1.1-.71,2.41-1.16,3.73-1.55,2.01-.59,4.46-.94,6.51-1.42,.66-.16,1.34-.31,2.03-.3Z"/><path class="w" d="M19.74,42.1c-.8-.02-1.56-.26-2.31-.49-1.8-.57-3.28-.06-5.02-.66-4.83-1.68-7.85-5-6.45-13.1,.56-3.22,2.08,.39,4.61-2.87,.55-.71,2.1-.19,3.16-.21,6.09-.12,10.63-.31,16.72-.43,.17,0,.57-.15,.66-.04,.4,.47,3.92,5.7,4.25,8.58,.2,1.74-.21,2.76-.79,3.76-.36,.62-1.92,1.75-2.57,2.18-1.1,.71-2.41,1.16-3.73,1.55-2.01,.59-4.46,.94-6.51,1.42-.66,.16-1.34,.31-2.03,.3Z"/><path class="u" d="M19.83,20.62c-1.47-.7-2.87-.38-4.29,.25-1.02,.45-1.25,1.93-.74,2.8,.57,.97,1.83,1.29,2.8,.74,.88-.5,1.72-.93,2.5-1.58,.67-.55,.49-1.84-.28-2.21h0Z"/><path class="u" d="M21.06,19.77c-.77,.45-1.28,1.23-1.65,2.02-.52,1.09-.33,2.23,.06,3.31,.45,1.29,2.25,1.68,3.36,1.12,1.27-.63,1.67-2.11,1.13-3.36,.29,.68,.06,.13,.03-.12-.05-.4-.22-.87-.37-1.23-.19-.49-.35-1.02-.73-1.4-.46-.46-1.21-.72-1.82-.36h0Z"/><path class="u" d="M21.86,22.09c.43,.58,.99,.85,1.61,1.19,.81,.44,1.77,.95,2.7,.9,.89-.05,1.68-.58,1.92-1.47,.26-.95-.19-1.7-.92-2.26-1.16-.89-4.12-.91-5.14,.25-.31,.36-.5,.96-.18,1.39h0Z"/><path class="n" d="M22.87,1.55c-.27,.36-.53,.73-.78,1.11-.07,0-.14-.05-.19-.1-.31-.34-.56-.6-.76-1.01-.04-.08-.09-.18-.05-.26,.04-.08,.53-.57,.71-.7,.07-.05,.14-.1,.22-.1,.11,0,.19,.08,.27,.15,.12,.12,.23,.24,.34,.37,.13,.14,.35,.38,.24,.53Z"/><path class="m" d="M24.74,18.22c-.02,.53-.05,1.06,0,1.58,.07,.78,0,1.11,.03,1.81,0,.12-.25,1.12-1.34,1.44-1.46,.43-2.46,.42-3.53-.12-.16-.08-.47-.25-.65-.52-.1-.15-.11-.73-.1-.91,.06-.86-.04-1.72-.3-2.54-.04-.11-.08-.23-.18-.3-.11-.07-.24-.06-.37-.05-.52,.04-1.04,0-1.54-.14-.16-.04-.33-.1-.44-.22-.17-.19-.17-.46-.16-.71,.04-1.08-.18-1.52,.24-3.22-.21,.04-.42,.07-.62,.01-.2-.06-.37-.26-.33-.46,.02-.13,.12-.23,.21-.32,.31-.32,.58-.66,.83-1.02,.12-.18,.24-.37,.28-.59,.04-.18,.01-.36,0-.54-.07-.56-.13-1.12-.2-1.69-.03-.25,.15-.36,.39-.43,1.6-.48,3.27-.69,4.94-.62,.22,0,.45,.02,.66,.1,.54,.19,.87,.73,1.07,1.27,.15,.41,.24,.83,.33,1.26,.17,.78,.34,1.56,.5,2.35,.22,1.01,.43,2.03,.41,3.06-.01,.52-.11,1.03-.13,1.54Z"/><path class="n" d="M19.57,16.44c.07,0,.12-.05,.12-.12,0-.16-.09-.33-.18-.47-.25-.39-.5-.78-.75-1.17-.05-.08-.11-.17-.2-.23-.12-.08-.34-.16-.48-.16-.63,.03-1.04,0-1.67,.02-.13,0-.26,0-.37,.07-.09,.05-.16,.14-.23,.22-.3,.39-1.29,1.38-1.35,1.65-.05,.21,3.55,.16,5.11,.17Z"/><path class="n" d="M21.46,16.65c.13-.28,.11-.6,.21-.89,.09-.27,.35-.54,.62-.48,.03,0,.05,.03,.05,.06,.05,.62,.07,1.25,.06,1.87,0,.23-.02,.46-.11,.66-.09,.18-.5,.6-.89,1.02-.75,.8-1.12,.92-1.95,1.63-.52,.44-1.04,.88-1.55,1.32-.15,.13-.31,.26-.5,.33-.19,.07-.42,.06-.57-.07-.15-.13-.19-.33-.21-.52-.12-.98-.33-2.71-.44-3.64-.03-.22,.09,0,.58,.03,1.17,.06,2.25-.26,3.38-.54,.52-.13,1.1-.31,1.33-.79Z"/><path class="j" d="M23.09,12c-.6,.37-1.19,.65-1.9,.69-.92,.04-1.86-.41-1.88-.48-.01-.05,.02-.11,.06-.15,.12-.15,.3-.26,.47-.34,.93-.44,2.07-.42,2.98,.06,.11,.05,.21,.12,.27,.23Z"/><path class="u" d="M23.07,10.62c-1.05-.47-2.29-.51-3.36-.08-.29,.12-.55,.29-.75,.52-.07,.08-.14,.18-.14,.28,0,.12,.08,.24,.19,.24,.07,0,.13-.04,.19-.08,1.03-.71,2.42-.87,3.58-.42,.1,.04,.22,0,.27-.1l.09-.18c.04-.07,0-.17-.07-.2Z"/><path class="u" d="M20.71,11.84c-.08,.13-.08,.31,0,.44,.06,.09,.16,.15,.27,.17,.18,.04,.38,.02,.53-.08,.13-.09,.2-.29,.14-.44-.04-.12-.1-.33-.52-.32-.15,0-.33,.1-.42,.23Z"/><path class="w" d="M23.6,12.53c.05,.52,.11,1.03,.16,1.55,.21,1.98,.41,3.95,.67,5.93,.01,.09,.04,.2,.12,.22,.06,.02,.12-.01,.17-.04,1.48-.78,2.96-1.55,4.35-2.47,.3-.2,.61-.43,.7-.78,.08-.33-.07-.67-.21-.97-.83-1.73-1.75-3.42-2.37-5.23-.17-.5-.32-1-.58-1.46-.08-.14-.16-.27-.29-.36-.13-.1-.29-.14-.44-.18-.94-.24-1.91-.37-2.89-.39-.04,.32,.05,.65,.12,.96,.25,1.06,.36,2.14,.48,3.23Z"/><path class="w" d="M25.23,6.02c.19,.3,.2,.68,.39,.98,.16,.26,.41,.51,.42,.82-.19,.14-.44,.15-.67,.15-2.62,0-5.24,0-7.86,0-.03,0-.07,0-.1-.01-.15-.05-.1-.27-.03-.41,.4-.78,2.34-3.4,2.88-3.93,.31-.3,.61-.6,.92-.9,.28-.28,.64-.58,1.02-.47,.11,.03,.91,.5,3.03,3.77Z"/><g class="p"><path class="u" d="M15.35,14.37c-.22,.33-.28,.77-.39,1.14-.2,.65-.5,1.34-.61,2-.01,.07,.08,.15,.14,.08,.68-.88,.56-2.19,.97-3.18,.03-.06-.07-.1-.11-.04h0Z"/><path class="u" d="M15.97,13.44c-.35,.54-.41,1.18-.52,1.8-.15,.83-.44,1.62-.62,2.45-.02,.09,.09,.13,.14,.06,.83-1.15,.74-2.95,1.06-4.28,0-.04-.04-.05-.06-.03h0Z"/><path class="u" d="M16.34,13.5c-.15,1.19-.38,2.36-.45,3.56,0,.04,.06,.07,.08,.03,.31-.38,.31-.94,.35-1.41,.06-.71,.19-1.46,.12-2.18,0-.07-.09-.06-.1,0h0Z"/><path class="u" d="M16.88,13.56c-.2,.63-.16,1.26-.18,1.92-.02,.63-.14,1.25-.16,1.88,0,.08,.11,.11,.14,.04,.63-1.12,.16-2.59,.32-3.8,.01-.08-.1-.12-.13-.04h0Z"/><path class="u" d="M17.51,13.21c-.13,.67-.14,1.31-.12,1.99,.02,.78-.1,1.64,.15,2.4,.02,.07,.12,.07,.14,0,.44-1.4-.22-2.95-.06-4.37,0-.06-.1-.08-.11-.02h0Z"/><path class="u" d="M18.23,13.6c-.14,1.09-.06,2.36,.21,3.42,.02,.06,.12,.07,.13,0,.24-1.09-.19-2.32-.23-3.42,0-.07-.1-.07-.11,0h0Z"/><path class="u" d="M19.02,14.22c-.12,.89-.21,1.91,.08,2.78,.01,.05,.09,.07,.11,.02,.17-.38,.11-.77,.06-1.18-.06-.54-.06-1.08-.13-1.62-.01-.08-.12-.08-.13,0h0Z"/></g><g class="o"><path class="u" d="M16.6,17.28c-.07,1.15,.1,2.36,.22,3.5,.08,.72,0,1.58,.37,2.23,.04,.07,.13,.02,.12-.05-.38-1.84-.38-3.81-.61-5.68,0-.06-.09-.06-.09,0h0Z"/><path class="u" d="M17.28,17.56c-.16,1.57-.01,3.61,.5,5.11,.02,.05,.09,.05,.1,0,.13-.68,.02-1.34-.07-2.02-.14-1.04-.28-2.07-.42-3.1,0-.07-.11-.04-.11,.01h0Z"/><path class="u" d="M18.13,17.48c-.02,1.63,.22,3.21,.52,4.8,.02,.08,.14,.08,.15,0,.15-.78-.09-1.53-.19-2.3-.11-.83-.31-1.67-.38-2.49,0-.06-.1-.06-.1,0h0Z"/><path class="u" d="M18.81,17.21c-.05,1.47,.12,3.21,.56,4.62,.05,.14,.3,.13,.28-.04-.16-1.54-.55-3.04-.69-4.58,0-.09-.14-.09-.14,0h0Z"/><path class="u" d="M19.54,17.08c-.06,1.22,.17,2.48,.6,3.62,.01,.03,.06,.03,.06,0-.04-1.21-.44-2.39-.55-3.61,0-.07-.11-.07-.12,0h0Z"/><path class="u" d="M20.27,16.86c-.13,1.34,.33,2.78,.57,4.09,.03,.15,.26,.11,.26-.04,.03-1.39-.71-2.68-.78-4.05,0-.04-.06-.04-.06,0h0Z"/><path class="u" d="M20.79,16.21c-.02,1.35,.18,2.86,.59,4.15,.02,.06,.11,.07,.13,0,.15-.54,.04-1.1-.07-1.65-.17-.84-.38-1.67-.58-2.51,0-.04-.07-.03-.07,0h0Z"/><path class="u" d="M21.27,15.83c.15,.56,.15,1.21,.26,1.79,.13,.65,.25,1.35,.55,1.95,.04,.09,.16,.04,.17-.05,.06-.76-.25-1.55-.42-2.28-.1-.44-.16-1.11-.48-1.45-.03-.03-.08,0-.07,.04h0Z"/><path class="u" d="M21.91,14.85c-.13,1.55,.4,2.98,.57,4.5,0,.04,.07,.06,.08,.01,.26-1.48-.33-3.06-.53-4.51,0-.07-.11-.07-.12,0h0Z"/></g><g class="t"><path class="u" d="M23.62,8.36c-.2,2.09,.22,4.34,.58,6.4,.19,1.09,.31,2.19,.46,3.28,.12,.88,.15,1.88,.58,2.68,.1,.19,.38,.06,.34-.14-.42-1.83-.6-3.7-.91-5.55-.21-1.22-.46-2.43-.61-3.67-.12-1.02-.09-2.02-.41-3,0-.02-.03-.01-.03,0h0Z"/><path class="u" d="M24.14,8.95c.32,1.83,.46,3.7,.79,5.53,.17,.96,.29,1.92,.48,2.88,.21,1.04,.52,2.01,.57,3.08,.12-.07,.24-.14,.37-.21-.02-.01-.05-.03-.07-.04-.08-.04-.16-.01-.21,.05-.02,.02-.04,.05-.05,.07-.24,.32,.48,.55,.45,.12-.04-.86-.23-1.68-.44-2.51-.27-1.06-.41-2.13-.62-3.2-.22-1.1-.49-2.18-.69-3.29-.15-.86-.17-1.7-.55-2.5,0-.02-.03,0-.03,.01h0Z"/><path class="u" d="M24.69,8.5c.02,.81,.3,1.59,.42,2.4,.14,.96,.31,1.92,.5,2.88,.2,.98,.46,1.95,.7,2.93,.25,1.01,.3,2.06,.63,3.05,.09,.28,.5,.17,.44-.12-.4-1.89-.83-3.74-1.31-5.61-.48-1.87-.64-3.74-1.37-5.53,0,0-.01,0-.01,0h0Z"/><path class="u" d="M25.38,8.83c.12,1.88,.75,3.77,1.21,5.59,.28,1.1,.65,2.17,.94,3.26,.22,.82,.24,1.75,.84,2.4,.13,.14,.41,0,.33-.19-.73-1.78-1.1-3.75-1.66-5.59-.31-1.01-.57-2.04-.87-3.05-.24-.79-.34-1.71-.75-2.43,0-.02-.04,0-.04,.01h0Z"/><path class="u" d="M26.07,9.18c-.04,.69,.14,1.31,.36,1.96,.35,1.06,.68,2.13,1.11,3.16,.35,.85,.76,1.68,1.13,2.52,.37,.86,.61,1.9,1.23,2.63,.07,.09,.2,0,.18-.1-.32-1.68-1.27-3.34-2.02-4.86-.44-.88-.77-1.8-1.1-2.72-.3-.83-.72-1.7-.79-2.59,0-.06-.08-.06-.09,0h0Z"/><path class="u" d="M26.75,9.17c-.74,.54,.78,3.2,1.04,3.75,.58,1.2,1.16,2.39,1.71,3.59,.31,.66,.72,1.72,1.34,2.15,.17,.12,.39-.11,.28-.28-.94-1.38-1.53-2.96-2.3-4.43-.49-.92-1-1.83-1.41-2.79-.22-.53-.75-1.36-.61-1.95,0-.03-.03-.06-.05-.04h0Z"/></g><path class="n" d="M29.14,7.27c-.55,1.03-1.17,2.02-1.87,2.96-.07,.09-.13,.18-.23,.22-.1,.04-.21,.03-.31,.02-3.39-.31-6.85-.85-10.18-.11-.56-1.02-1.22-1.98-1.96-2.87-.09-.11-.18-.22-.18-.36,0-.27,.33-.39,.6-.44,3.55-.58,7.18-.4,10.78-.22,1.13,.06,2.27,.12,3.38,.37,.11,.1,.05,.28-.02,.41Z"/><path class="y" d="M14.43,7.24c.19,.25,1.95,1.19,2.13,1.26,.4,.15,.45-.23,.55-.4,.34-.55,.76-1.06,1.06-1.38,.02-.03,.06-.03,.09-.02,.25,.12,.74,.57,.85,.72,.14,.21,.42,.44,.59,.63,.06,.06,.14,.13,.23,.13,.08,0,.15-.08,.2-.14,.34-.4,1.01-1.43,1.38-1.4,.3,.03,.35,.52,1.02,1.47,.13,.19,.25,.03,.75-.4,.49-.42,.76-.63,1.26-1,.04-.03,.09-.03,.13,0,.51,.31,.66,.99,1.05,1.46,.06,.07,.13,.14,.23,.15,.11,.01,.21-.06,.29-.12l1.22-.96s.11-.02,.14,.03c.3,.59,.6,1.68,.68,1.56,.4-.61,.69-.9,1-1.56,.17-.37-.05-.55-.11-.56-1.83-.31-6.46-.81-10.17-.83-1.64-.01-4.52,.48-4.67,.69-.14,.21-.06,.49,.09,.69Z"/><path class="y" d="M21.66,15.09c.49,0,.91-.41,.91-.9s-.41-.9-.91-.9-.9,.41-.9,.9,.41,.9,.9,.9h0Z"/><path class="u" d="M16.21,14.4c.44,.04,.88,.04,1.32,.01,.29-.02,.59-.05,.78-.29,.13-.16,.18-.43,.07-.62-.13-.21-.45-.35-.63-.14-.04,.04-.04,.11,0,.15,.11,.11,.41,.09,.42,.26,.02,.23-.23,.33-.42,.37-.51,.1-1.05,.06-1.56,.15-.07,.01-.04,.11,.01,.11h0Z"/><path class="n" d="M19.6,5.32c.13,0,.26,0,.38-.05,.09-.03,.3-.11,.26-.24-.04-.13-.18-.05-.26,0-.12,.07-.27,.13-.4,.18-.05,.02-.05,.1,.01,.1h0Z"/><path class="n" d="M20.27,4.41c.04,.08,.08,.15,.14,.21,.07,.07,.11,.11,.21,.11,.04,0,.06-.04,.06-.07-.01-.09-.05-.12-.12-.19-.06-.06-.13-.1-.2-.15-.06-.04-.11,.04-.09,.09h0Z"/><path class="n" d="M20.94,3.63c.09,.13,.2,.26,.36,.3,.04,0,.08-.03,.07-.07-.05-.17-.2-.26-.36-.32-.05-.02-.1,.05-.07,.09h0Z"/><path class="n" d="M21.57,4.65c.08,.02,.14,.08,.22,.08,.02,0,.05-.02,.05-.05-.01-.11-.14-.15-.23-.17-.1-.03-.14,.12-.04,.15h0Z"/><path class="n" d="M21.01,5.3c.06,.06,.13,.12,.21,.17,.07,.05,.16,.11,.24,.13,.1,.03,.17-.08,.13-.17-.08-.17-.33-.19-.48-.26-.08-.04-.15,.05-.09,.12h0Z"/><path class="n" d="M21.89,3.53c.13-.06,.28-.01,.38-.13,.03-.03,.02-.08-.02-.09-.15-.05-.32,.03-.43,.14-.05,.05,.01,.12,.07,.09h0Z"/><path class="n" d="M21.54,3c.11-.08,.38-.1,.39-.27,0-.02-.01-.04-.03-.06-.15-.1-.36,.14-.43,.25-.02,.04,.03,.11,.07,.07h0Z"/><path class="n" d="M22.83,3.36c.03,.08,.05,.15,.1,.23,.02,.04,.05,.07,.08,.1,.02,.03,.06,.02,.09,.03,.03,.01,.06-.03,.05-.05,0-.03,0-.05,0-.08-.02-.04-.04-.07-.07-.1-.06-.07-.12-.11-.2-.15-.02,0-.05,0-.04,.03h0Z"/><path class="n" d="M22.51,4.23c.07,.11,.16,.21,.24,.3,.02,.02,.06,.03,.08,.02,.02,0,.04-.02,.05-.04,.02-.04,.02-.07-.01-.11-.08-.09-.19-.16-.27-.26-.05-.05-.13,.01-.09,.07h0Z"/><path class="n" d="M22.53,5.35c.07,.07,.13,.13,.21,.19,.07,.06,.14,.12,.24,.09,.03,0,.05-.04,.05-.06,0-.1-.08-.15-.15-.21-.09-.06-.17-.11-.27-.14-.07-.03-.13,.08-.08,.13h0Z"/><path class="n" d="M23.58,4.29c-.02,.11-.05,.2-.08,.3-.03,.08-.04,.18,.02,.25,.02,.02,.05,.02,.08,0,.16-.09,.06-.41,.05-.55,0-.03-.06-.05-.06,0h0Z"/><path class="n" d="M24.04,5.27c-.02,.13-.09,.35,.04,.43,.01,0,.03,0,.04,0,.11-.08,.07-.26,.09-.39,.02-.11-.15-.16-.17-.05h0Z"/><path class="u" d="M16.98,9.36s.09-.03,.13-.06c.2-.13,.2-.42,0-.54-.04-.03-.09-.05-.13-.06-.22-.05-.43,.1-.43,.33s.22,.38,.43,.33h0Z"/><path class="u" d="M19.79,9.17c.18,0,.34-.15,.34-.34s-.15-.34-.34-.34-.34,.15-.34,.34,.16,.34,.34,.34h0Z"/><path class="u" d="M22.5,9.02h.01c.22,.11,.5-.06,.43-.33-.07-.26-.39-.27-.54-.07h0c-.08,.13-.03,.33,.1,.39h0Z"/><path class="u" d="M26.09,9.34h.02c.19-.12,.19-.4,0-.51h-.02c-.2-.13-.45,.02-.45,.25s.26,.38,.45,.26h0Z"/><path class="n" d="M15,24.67c.31,0,.57-.26,.57-.56s-.26-.56-.57-.56-.56,.26-.56,.56,.26,.56,.56,.56h0Z"/><path class="n" d="M21.8,27.1c.28,0,.51-.23,.51-.51s-.23-.51-.51-.51-.51,.23-.51,.51,.23,.51,.51,.51h0Z"/><path class="n" d="M27.99,23.61h.04c.27-.06,.38-.47,.17-.64,0,0-.02-.02-.03-.02-.22-.2-.58-.12-.67,.18-.04,.14,0,.29,.1,.39,.11,.11,.24,.12,.39,.1h0Z"/><path class="n" d="M21.61,24.99c-.11,.06-.17,.16-.17,.28,0,.19,.24,.36,.41,.23h.01s-.09,.02-.14,.03h.02s-.1-.03-.14-.04h.02c.1,.05,.2,.07,.3,0,.09-.05,.15-.15,.15-.26,0-.23-.25-.36-.45-.26h0Z"/><path class="n" d="M21.76,24.46c.21,0,.21-.32,0-.32s-.2,.32,0,.32h0Z"/><path class="n" d="M16.15,23.42h.01s-.07,.03-.1,.05c0,0,.01,0,.02,0,.08-.03,.13-.07,.16-.16,.02-.09-.01-.21-.1-.25-.03-.01-.06-.03-.09-.04-.18-.03-.35,.11-.3,.3,.05,.19,.27,.22,.4,.11h0Z"/><path class="n" d="M16.74,22.83c.16,0,.16-.26,0-.26s-.17,.26,0,.26h0Z"/><path class="n" d="M27.04,22.97c.34,0,.34-.53,0-.53s-.34,.53,0,.53h0Z"/><path class="n" d="M26.34,22.5c.25,0,.25-.38,0-.38s-.25,.38,0,.38h0Z"/><path class="y" d="M16.43,9.75c.06,.09,.08,.2,.11,.3,.04,.15,.28,.09,.24-.07-.04-.13-.09-.25-.19-.35-.08-.08-.22,.02-.15,.12h0Z"/><path class="y" d="M16.99,9.57c.04,.13,.08,.25,.15,.37,.02,.03,.07,.06,.11,.04,.02,0,.03-.01,.04-.03,.04-.03,.03-.08,.01-.12-.05-.11-.11-.22-.17-.33-.04-.07-.16-.03-.14,.06h0Z"/><path class="y" d="M17.63,9.37c-.09,.16,0,.44,.11,.58,.08,.1,.27,.02,.25-.11-.01-.12-.06-.21-.11-.31-.04-.09-.1-.16-.19-.19-.03,0-.06,0-.07,.03h0Z"/><path class="y" d="M18.23,9.4c0,.15,0,.33,.08,.47,.06,.11,.21,.05,.21-.06,0-.15-.07-.31-.13-.45-.04-.07-.16-.04-.15,.04h0Z"/><path class="y" d="M18.85,9.32c0,.16,0,.34,.08,.48,.07,.12,.26,.07,.26-.07,0-.15-.07-.3-.12-.44-.04-.11-.21-.1-.21,.03h0Z"/><path class="y" d="M19.48,9.38c0,.14-.03,.27,.03,.4,.05,.11,.23,.06,.23-.06,0-.12-.03-.25-.07-.37-.03-.1-.19-.09-.19,.03h0Z"/><path class="y" d="M20.16,9.26c-.08,.13-.07,.3-.02,.44,.06,.16,.33,.15,.32-.04,0-.15-.05-.32-.17-.41-.04-.03-.09-.03-.12,.01h0Z"/><path class="y" d="M20.81,9.35c-.02,.12-.04,.24,0,.36,.01,.05,.06,.08,.11,.08,.02,0,.04,0,.06-.01,.03-.02,.06-.06,.05-.09,0-.11-.04-.21-.05-.31,0-.09-.14-.12-.16-.02h0Z"/><path class="y" d="M21.28,9.35c0,.1,0,.19,0,.29,0,.09,.07,.25,.19,.21,.22-.08,.1-.42,.02-.56-.06-.1-.22-.06-.22,.06h0Z"/><path class="y" d="M22.06,9.33c-.04,.15-.11,.37,.02,.49,.05,.04,.13,.04,.17-.02,.07-.14,0-.33-.03-.47-.02-.08-.14-.08-.16,0h0Z"/><path class="y" d="M22.68,9.3c-.08,.16-.11,.41,0,.56,.05,.07,.15,.02,.17-.04,.05-.13-.02-.3,0-.44,.01-.1-.12-.18-.18-.07h0Z"/><path class="y" d="M23.23,9.4c0,.13-.11,.55,.13,.55,.1,0,.09-.14,.09-.2,0-.12,0-.23-.01-.35,0-.13-.19-.13-.2,0h0Z"/><path class="y" d="M23.77,9.42c-.06,.15-.18,.44-.02,.57,.07,.05,.14,.05,.2,0,.08-.07,.08-.18,.08-.29,0-.12-.02-.2-.06-.31-.04-.1-.17-.05-.2,.03h0Z"/><path class="y" d="M24.46,9.5c-.11,.15-.19,.48,0,.6,.04,.02,.09,.03,.13,0,.18-.12,.09-.4,.06-.58-.02-.09-.14-.09-.18-.02h0Z"/><path class="y" d="M25.07,9.55c-.03,.15-.07,.28-.08,.43-.01,.18,.28,.18,.28,0,0-.15,0-.29-.04-.43-.02-.08-.14-.08-.16,0h0Z"/><path class="y" d="M25.69,9.6c-.17,.09-.22,.39-.15,.56,.06,.12,.22,.07,.26-.04,.03-.09,.02-.2,.03-.29,0-.08-.02-.16-.07-.22-.02-.02-.05-.02-.07,0h0Z"/><path class="y" d="M26.14,9.75c-.05,.12-.12,.3-.08,.44,.03,.1,.15,.1,.2,.03,.09-.12,.02-.31,.02-.45,0-.09-.12-.09-.15-.02h0Z"/><path class="y" d="M26.72,9.75c-.1,.17-.24,.37-.15,.57,.04,.09,.19,.11,.25,.03,.12-.14,.12-.4,.08-.58-.02-.09-.15-.1-.19-.02h0Z"/><g><path class="n" d="M29.71,30.06c-.71-.13-.96-.45-1.24-.71-.29-.26-.59-.85-.67-1.23-.12-.63,.08-.98,.4-1.54,.43-.75,1.11-.92,1.92-1.24,1.16-.46,3.09-1.06,4.34-1.11,.61-.03,1.28,.07,1.71,.52,.33,.34,.46,.83,.46,1.3,.02,1.04-.24,1.95-1.1,2.52-.59,.39-1.54,.7-2.21,.91-2.2,.68-2.77,.73-3.61,.57Z"/><path class="u" d="M34.95,28.1c.57-.4,.77-1.06,.77-1.74,0-.57-.31-1.61-1.05-1.54-.23,.02-.39,.21-.34,.44,.09,.38,.35,.7,.45,1.1,.11,.44,.08,1.01-.19,1.39-.15,.21,.15,.5,.35,.35h0Z"/><path class="u" d="M34.05,28.15c.09-.83,.14-2.08-.57-2.66-.3-.25-.78-.02-.67,.39,.1,.39,.28,.76,.39,1.15,.12,.42,.22,.84,.43,1.23,.12,.22,.4,.09,.43-.12h0Z"/><path class="u" d="M32.81,28.52c.1-.43-.06-.96-.12-1.38-.08-.47-.26-1.31-.82-1.43-.38-.08-.78,.25-.66,.66,.06,.21,.17,.31,.27,.5,.13,.25,.24,.5,.36,.75,.17,.35,.34,.9,.74,1.04,.09,.04,.21-.04,.23-.13h0Z"/><path class="u" d="M31.71,28.59c-.36-.3-.58-.51-.69-.98-.1-.4-.03-.88-.23-1.24-.12-.21-.39-.17-.52,0-.55,.77,.28,2.95,1.42,2.45,.08-.04,.09-.17,.03-.23h0Z"/><path class="u" d="M30.16,29.09c-.16-.39-.46-.68-.58-1.09-.16-.53,.27-1,.12-1.5-.04-.13-.18-.23-.32-.18-1.21,.45-.62,2.82,.57,2.98,.11,.02,.27-.08,.21-.21h0Z"/><path class="y" d="M35.31,26.48c.21-.06,.12-.38-.09-.32s-.12,.38,.09,.32h0Z"/><path class="y" d="M33.55,26.98c.24-.06,.14-.44-.1-.37-.24,.07-.14,.44,.1,.37h0Z"/><path class="y" d="M32.25,27.1s0-.03,0-.02c-.02,0,0,.03,0,.02h0Z"/><path class="y" d="M32.06,26.96h-.01c-.18,.17,.09,.44,.27,.27,0,0,0,0,.01-.01,.17-.17-.09-.41-.27-.26h0Z"/><path class="y" d="M30.56,27.31h-.02c-.24,.01-.14,.39,.07,.27h.02c.12-.08,.07-.28-.07-.27h0Z"/><path class="y" d="M29.24,28.05c.29-.08,.17-.53-.12-.45s-.17,.53,.12,.45h0Z"/><path class="y" d="M34.42,28.51s-.02,.03-.04,.04c-.09,.11-.05,.24,.08,.29,.02,0,.03,.01,.05,.02,.16,.06,.3-.12,.26-.26-.04-.15-.26-.23-.36-.1h0Z"/><path class="y" d="M33.89,28.97c.22-.06,.13-.4-.09-.34-.22,.06-.13,.4,.09,.34h0Z"/><path class="y" d="M33.13,29.2c.24-.07,.14-.44-.1-.38-.24,.07-.14,.44,.1,.38h0Z"/><path class="y" d="M32.32,29.42c.24-.07,.14-.44-.1-.38-.24,.07-.14,.45,.1,.38h0Z"/><path class="y" d="M31.29,29.36h-.01c-.12,.17,.08,.37,.24,.33,.16-.05,.23-.32,.05-.39,0,0,0,0-.02,0-.11-.04-.19-.02-.26,.07h0Z"/><path class="y" d="M30.84,29.81c.23-.06,.13-.42-.1-.36-.23,.06-.13,.42,.1,.36h0Z"/><path class="y" d="M30.2,29.9c.18-.05,.11-.34-.08-.29-.18,.05-.11,.34,.08,.29h0Z"/><path class="y" d="M34.09,24.82c.15-.04,.09-.27-.06-.23-.15,.04-.08,.27,.06,.23h0Z"/><path class="y" d="M33.26,24.79h-.02c-.23,.04-.12,.44,.1,.35h.02c.21-.1,.13-.38-.09-.35h0Z"/><path class="y" d="M32.5,25.37c.23-.06,.13-.42-.1-.36-.23,.06-.13,.42,.1,.36h0Z"/><path class="y" d="M31.74,25.58c.23-.06,.13-.42-.1-.36s-.13,.42,.1,.36h0Z"/><path class="y" d="M30.77,25.52s0,0,0,.02c-.04,.08-.02,.18,.06,.22h.02c.13,.09,.3-.05,.26-.2-.04-.15-.25-.18-.33-.04h0Z"/><path class="y" d="M30.21,25.99c.23-.06,.13-.41-.09-.35-.23,.06-.13,.41,.09,.35h0Z"/><path class="y" d="M29.32,25.87l-.02,.02c-.09,.07-.06,.2,.06,.21,0,0,.02,0,.02,0,.21,.03,.11-.36-.06-.23h0Z"/></g><g><path class="n" d="M11.96,32.32c.71,.13,.96,.45,1.24,.71,.29,.26,.59,.85,.67,1.23,.12,.63-.08,.98-.4,1.54-.43,.75-1.11,.92-1.91,1.24-1.16,.45-3.09,1.06-4.34,1.11-.61,.02-1.29-.08-1.71-.52-.33-.34-.46-.83-.46-1.3-.01-1.04,.24-1.95,1.1-2.53,.59-.39,1.54-.7,2.21-.91,2.2-.68,2.77-.73,3.61-.57Z"/><path class="u" d="M6.72,34.28c-.56,.4-.76,1.06-.77,1.73,0,.57,.31,1.61,1.05,1.54,.23-.02,.4-.2,.34-.44-.1-.38-.36-.7-.45-1.1-.11-.44-.07-1.01,.19-1.39,.15-.21-.15-.5-.36-.35h0Z"/><path class="u" d="M7.62,34.23c-.09,.83-.14,2.08,.57,2.66,.3,.25,.78,.02,.67-.4-.1-.39-.28-.76-.39-1.15-.12-.42-.22-.84-.43-1.23-.12-.22-.4-.09-.43,.12h0Z"/><path class="u" d="M8.86,33.86c-.1,.43,.06,.96,.12,1.38,.08,.47,.26,1.31,.82,1.43,.38,.08,.78-.25,.66-.66-.06-.21-.17-.31-.27-.5-.13-.25-.24-.5-.36-.75-.17-.35-.34-.9-.74-1.04-.09-.04-.21,.04-.23,.13h0Z"/><path class="u" d="M9.96,33.79c.36,.3,.58,.51,.7,.99,.1,.4,.03,.87,.23,1.24,.12,.21,.39,.17,.52,0,.55-.77-.28-2.95-1.42-2.45-.08,.04-.09,.17-.03,.22h0Z"/><path class="u" d="M11.51,33.29c.16,.39,.45,.68,.58,1.08,.16,.53-.27,1-.12,1.5,.04,.13,.18,.23,.32,.18,1.21-.45,.62-2.82-.57-2.98-.11-.02-.27,.08-.21,.21h0Z"/><path class="y" d="M6.36,35.9c-.21,.06-.12,.38,.09,.32,.21-.06,.12-.38-.09-.32h0Z"/><path class="y" d="M8.12,35.39c-.24,.07-.14,.44,.1,.38,.24-.07,.14-.44-.1-.38h0Z"/><path class="y" d="M9.42,35.28s0,.03,0,.02c.01,0,0-.03,0-.02h0Z"/><path class="y" d="M9.61,35.41h.01c.18-.17-.09-.45-.27-.27h-.01c-.17,.18,.09,.43,.27,.27h0Z"/><path class="y" d="M11.11,35.07h.02c.24-.01,.14-.39-.07-.27,0,0-.01,0-.02,.01-.12,.06-.07,.27,.07,.26h0Z"/><path class="y" d="M12.44,34.33c-.29,.08-.17,.53,.12,.45,.29-.08,.17-.53-.12-.45h0Z"/><path class="y" d="M7.25,33.87s.02-.03,.04-.04c.09-.11,.05-.24-.08-.29-.02,0-.04-.01-.05-.02-.16-.06-.3,.12-.26,.26,.04,.15,.26,.23,.36,.09h0Z"/><path class="y" d="M7.78,33.4c-.22,.06-.13,.4,.09,.34,.22-.06,.13-.4-.09-.34h0Z"/><path class="y" d="M8.54,33.18c-.24,.07-.14,.44,.1,.37,.24-.07,.14-.44-.1-.37h0Z"/><path class="y" d="M9.35,32.96c-.24,.07-.14,.45,.1,.38,.24-.07,.14-.44-.1-.38h0Z"/><path class="y" d="M10.38,33.02v-.02c.13-.15-.07-.36-.23-.31-.16,.04-.23,.32-.05,.39h.02c.11,.05,.2,.03,.26-.06h0Z"/><path class="y" d="M10.83,32.57c-.23,.06-.13,.42,.1,.36,.23-.06,.13-.42-.1-.36h0Z"/><path class="y" d="M11.47,32.48c-.18,.05-.11,.34,.08,.29,.18-.05,.11-.34-.08-.29h0Z"/><path class="y" d="M7.58,37.56c-.15,.04-.09,.27,.06,.23,.15-.04,.09-.27-.06-.23h0Z"/><path class="y" d="M8.41,37.59h.02c.23-.04,.12-.44-.1-.35h-.02c-.21,.1-.13,.38,.09,.35h0Z"/><path class="y" d="M9.17,37.01c-.23,.06-.13,.42,.1,.36,.23-.06,.13-.42-.1-.36h0Z"/><path class="y" d="M9.93,36.8c-.23,.06-.13,.42,.1,.35,.23-.06,.13-.42-.1-.35h0Z"/><path class="y" d="M10.9,36.86v-.02c.05-.08,.03-.17-.05-.22h-.01c-.14-.09-.3,.04-.26,.2,.04,.15,.25,.18,.33,.04h0Z"/><path class="y" d="M11.46,36.39c-.23,.06-.13,.41,.1,.35,.23-.06,.13-.41-.1-.35h0Z"/><path class="y" d="M12.35,36.51l.02-.02c.09-.07,.06-.2-.06-.21h-.02c-.21-.03-.11,.36,.06,.23h0Z"/></g><path class="y" d="M24.75,25.79h.01c.06,.07,.15,.07,.22,.01h.01c.11-.12,.02-.31-.12-.31s-.24,.19-.12,.3h0Z"/><path class="y" d="M6.69,32.59h.01c.06,.07,.15,.07,.22,.01h.01c.11-.12,.02-.31-.12-.31s-.24,.19-.12,.29h0Z"/><path class="y" d="M15.19,26.44h.01c.06,.07,.15,.07,.22,.01h.01c.11-.12,.02-.31-.12-.31s-.24,.19-.12,.3h0Z"/><path class="y" d="M18.84,27.14h.01c.06,.07,.15,.07,.22,.01h.01c.11-.12,.02-.31-.12-.31s-.24,.19-.12,.29h0Z"/><path class="y" d="M27.28,26.79h.01c.05-.05,.05-.15,0-.19,0,0,0,0-.01-.01-.09-.08-.24-.03-.24,.1s.15,.18,.24,.1h0Z"/><path class="y" d="M10,31.74h.01c.05-.05,.05-.15,0-.19h-.01c-.09-.09-.24-.04-.24,.09s.15,.18,.24,.1h0Z"/><path class="y" d="M25.9,29.29h.01c.05-.05,.05-.15,0-.19,0,0,0,0-.01-.01-.09-.08-.24-.03-.24,.1s.15,.18,.24,.1h0Z"/><path class="y" d="M18.25,25.54h.01c.05-.05,.05-.15,0-.19,0,0,0,0-.01-.01-.09-.08-.24-.03-.24,.1s.15,.18,.24,.1h0Z"/><path class="y" d="M13.7,22.7h.01c.05-.05,.05-.15,0-.19h-.01c-.09-.09-.24-.04-.24,.09s.15,.18,.24,.1h0Z"/><path class="y" d="M13.05,24.54h.01c.05-.05,.05-.15,0-.19,0,0,0,0-.01-.01-.09-.08-.24-.03-.24,.1s.15,.18,.24,.1h0Z"/><path class="y" d="M28.6,24.83v.02c.05,.11,.19,.11,.23,0v-.02c.09-.2-.31-.2-.23,0h0Z"/><path class="y" d="M33.67,30.44v.02c.05,.11,.19,.11,.23,0v-.02c.09-.2-.31-.2-.23,0h0Z"/><path class="y" d="M30.76,24.44c.04-.09,.04-.16,0-.25-.07-.15-.29-.16-.39-.05-.1,.1-.1,.26,0,.35,.1,.11,.33,.1,.39-.05h0Z"/><path class="y" d="M22.61,29.39c.04-.1,.04-.16,0-.25-.07-.15-.29-.15-.39-.05-.09,.1-.09,.26,0,.36,.11,.1,.33,.1,.39-.05h0Z"/><path class="y" d="M24.11,27.96c.25,0,.25-.39,0-.39s-.25,.39,0,.39h0Z"/><path class="y" d="M7.01,30.59c.25,0,.25-.39,0-.39s-.25,.39,0,.39h0Z"/><path class="u" d="M21.55,41.66c1.47,.7,2.87,.38,4.29-.25,1.02-.45,1.25-1.92,.73-2.8-.57-.97-1.83-1.29-2.8-.73-.88,.5-1.72,.93-2.5,1.58-.66,.55-.49,1.84,.28,2.21h0Z"/><path class="u" d="M20.31,42.52c.77-.45,1.28-1.23,1.65-2.02,.52-1.09,.33-2.23-.06-3.31-.45-1.29-2.25-1.68-3.36-1.12-1.27,.63-1.67,2.11-1.12,3.36-.29-.67-.06-.13-.03,.12,.04,.4,.22,.87,.37,1.23,.19,.48,.35,1.02,.73,1.4,.46,.46,1.21,.72,1.82,.36h0Z"/><path class="u" d="M19.52,40.19c-.43-.58-.99-.85-1.61-1.19-.81-.44-1.77-.95-2.71-.9-.89,.05-1.68,.58-1.93,1.47-.26,.95,.19,1.7,.92,2.25,1.16,.89,4.12,.91,5.14-.25,.31-.35,.5-.96,.18-1.39h0Z"/><path class="n" d="M18.5,60.73c.27-.36,.53-.73,.78-1.11,.07-.01,.14,.05,.19,.1,.31,.34,.56,.6,.76,1.01,.04,.08,.09,.18,.05,.26-.04,.08-.53,.56-.71,.69-.07,.05-.14,.1-.22,.1-.11,0-.19-.08-.27-.15-.12-.12-.23-.24-.34-.37-.13-.14-.35-.38-.23-.53Z"/><path class="m" d="M16.64,44.06c.02-.53,.05-1.06,0-1.58-.07-.78,0-1.11-.03-1.81,0-.12,.25-1.12,1.34-1.44,1.46-.43,2.46-.42,3.53,.12,.16,.08,.47,.25,.65,.52,.1,.15,.11,.73,.1,.91-.06,.86,.04,1.72,.3,2.54,.04,.11,.08,.23,.18,.3,.11,.07,.24,.06,.37,.04,.52-.04,1.04,0,1.54,.14,.16,.04,.33,.1,.44,.22,.17,.19,.17,.46,.16,.71-.04,1.07,.18,1.52-.24,3.22,.21-.04,.42-.08,.62-.01,.2,.06,.37,.26,.33,.46-.02,.13-.12,.23-.21,.32-.3,.32-.58,.66-.83,1.02-.12,.18-.24,.37-.28,.59-.03,.18-.01,.36,0,.54,.07,.56,.13,1.13,.2,1.69,.03,.25-.15,.36-.39,.43-1.6,.47-3.27,.69-4.94,.62-.22,0-.45-.02-.66-.1-.54-.19-.87-.73-1.07-1.27-.15-.41-.24-.83-.33-1.26-.17-.78-.33-1.56-.5-2.35-.22-1.01-.43-2.03-.41-3.06,.01-.51,.11-1.02,.13-1.54Z"/><path class="n" d="M21.81,45.84c-.07,0-.12,.05-.12,.12,0,.16,.09,.33,.18,.47,.25,.39,.5,.78,.75,1.17,.05,.09,.11,.17,.2,.23,.12,.08,.33,.16,.48,.16,.63-.02,1.04,0,1.67-.02,.13,0,.26-.01,.37-.07,.09-.05,.16-.14,.23-.22,.3-.39,1.29-1.38,1.35-1.65,.05-.21-3.55-.16-5.11-.17Z"/><path class="n" d="M19.92,45.63c-.13,.28-.11,.6-.21,.89-.09,.28-.35,.54-.62,.48-.03,0-.05-.04-.05-.06-.05-.62-.07-1.25-.06-1.87,0-.22,.02-.46,.11-.66,.09-.18,.5-.6,.9-1.02,.75-.8,1.12-.92,1.95-1.63,.52-.44,1.03-.88,1.55-1.33,.15-.13,.31-.26,.5-.33,.19-.07,.42-.06,.57,.07,.15,.13,.19,.33,.21,.52,.12,.98,.33,2.71,.44,3.64,.03,.22-.09,0-.58-.03-1.17-.06-2.25,.26-3.38,.54-.52,.13-1.1,.31-1.32,.79Z"/><path class="j" d="M18.29,50.29c.6-.38,1.19-.65,1.9-.69,.92-.04,1.87,.4,1.88,.47,.01,.05-.02,.11-.05,.15-.12,.15-.3,.26-.47,.34-.93,.44-2.07,.42-2.98-.06-.11-.05-.21-.12-.27-.22Z"/><path class="u" d="M18.31,51.66c1.05,.47,2.29,.51,3.36,.08,.29-.12,.55-.29,.76-.52,.07-.08,.13-.18,.14-.28,0-.12-.08-.24-.19-.24-.07,0-.13,.04-.19,.08-1.03,.71-2.42,.87-3.58,.42-.1-.04-.22,0-.27,.1l-.09,.17c-.04,.08,0,.17,.07,.21Z"/><path class="u" d="M20.67,50.44c.08-.13,.08-.31,0-.44-.06-.09-.16-.15-.27-.17-.18-.04-.38-.02-.53,.08-.13,.09-.2,.29-.15,.44,.05,.12,.11,.33,.52,.32,.15,0,.33-.1,.42-.23Z"/><path class="w" d="M17.78,49.76c-.05-.52-.11-1.03-.16-1.55-.21-1.98-.41-3.95-.67-5.92-.01-.09-.04-.2-.12-.22-.06-.02-.12,.01-.17,.04-1.48,.78-2.96,1.55-4.35,2.47-.3,.2-.61,.43-.7,.78-.08,.33,.07,.67,.21,.98,.83,1.72,1.75,3.42,2.37,5.23,.17,.5,.32,1,.58,1.46,.08,.14,.17,.27,.29,.36,.13,.09,.29,.14,.44,.18,.94,.24,1.91,.37,2.89,.39,.04-.32-.05-.65-.12-.96-.25-1.06-.36-2.14-.48-3.23Z"/><path class="w" d="M16.15,56.26c-.19-.3-.2-.68-.39-.98-.16-.26-.41-.51-.42-.82,.19-.14,.44-.15,.67-.15,2.62,0,5.24,0,7.86,0,.03,0,.07,0,.1,.01,.15,.06,.1,.27,.03,.41-.4,.78-2.34,3.4-2.88,3.93-.31,.3-.61,.6-.92,.9-.28,.28-.64,.58-1.02,.47-.11-.03-.91-.5-3.03-3.77Z"/><g class="x"><path class="u" d="M26.03,47.91c.22-.33,.28-.77,.39-1.14,.2-.65,.5-1.34,.61-2,.01-.07-.08-.15-.14-.08-.68,.88-.56,2.19-.97,3.18-.03,.06,.07,.1,.11,.05h0Z"/><path class="u" d="M25.41,48.84c.35-.54,.41-1.18,.52-1.8,.15-.83,.44-1.62,.62-2.45,.02-.09-.09-.13-.14-.06-.83,1.15-.74,2.95-1.06,4.29,0,.04,.04,.05,.06,.02h0Z"/><path class="u" d="M25.04,48.78c.15-1.19,.38-2.36,.44-3.56,0-.04-.05-.07-.08-.03-.31,.39-.31,.94-.35,1.41-.06,.71-.2,1.46-.12,2.18,0,.06,.09,.06,.1,0h0Z"/><path class="u" d="M24.5,48.72c.2-.63,.16-1.26,.18-1.92,.02-.63,.14-1.25,.16-1.88,0-.08-.11-.11-.14-.04-.63,1.13-.16,2.59-.32,3.8,0,.08,.1,.12,.13,.03h0Z"/><path class="u" d="M23.87,49.07c.13-.67,.14-1.31,.12-1.99-.02-.79,.1-1.64-.15-2.4-.02-.07-.12-.07-.14,0-.44,1.4,.22,2.95,.06,4.37,0,.06,.1,.07,.11,.01h0Z"/><path class="u" d="M23.15,48.68c.14-1.09,.06-2.36-.21-3.43-.02-.06-.12-.07-.13,0-.24,1.09,.19,2.32,.23,3.43,0,.07,.1,.07,.11,0h0Z"/><path class="u" d="M22.36,48.06c.12-.89,.21-1.91-.08-2.78-.02-.05-.09-.07-.12-.01-.16,.38-.11,.77-.06,1.18,.06,.54,.06,1.08,.13,1.62,0,.08,.11,.08,.12,0h0Z"/></g><g class="l"><path class="u" d="M24.78,45c.07-1.15-.1-2.36-.22-3.5-.08-.72,0-1.58-.37-2.22-.04-.07-.13-.02-.12,.05,.38,1.84,.38,3.82,.61,5.68,0,.06,.09,.06,.09,0h0Z"/><path class="u" d="M24.1,44.72c.16-1.57,.01-3.61-.5-5.11-.02-.04-.09-.05-.1,0-.13,.68-.03,1.34,.07,2.02,.14,1.03,.28,2.07,.42,3.11,0,.07,.11,.04,.11-.02h0Z"/><path class="u" d="M23.25,44.8c.02-1.62-.22-3.21-.52-4.8-.02-.08-.14-.08-.15,0-.15,.78,.09,1.53,.19,2.3,.11,.82,.31,1.67,.38,2.49,0,.06,.1,.07,.1,0h0Z"/><path class="u" d="M22.57,45.07c.05-1.47-.12-3.21-.56-4.61-.04-.15-.29-.13-.28,.04,.16,1.54,.55,3.04,.69,4.58,0,.09,.14,.1,.14,0h0Z"/><path class="u" d="M21.84,45.2c.06-1.22-.17-2.48-.6-3.62-.01-.03-.06-.03-.06,0,.04,1.21,.44,2.39,.55,3.61,0,.07,.11,.07,.12,0h0Z"/><path class="u" d="M21.11,45.42c.13-1.34-.33-2.78-.57-4.09-.03-.15-.26-.11-.26,.04-.03,1.39,.71,2.67,.77,4.05,0,.04,.06,.04,.06,0h0Z"/><path class="u" d="M20.59,46.07c.02-1.36-.18-2.86-.59-4.15-.02-.06-.11-.07-.13,0-.15,.55-.03,1.1,.07,1.65,.17,.84,.38,1.67,.58,2.51,0,.04,.07,.03,.07,0h0Z"/><path class="u" d="M20.1,46.45c-.15-.56-.15-1.21-.26-1.79-.13-.65-.25-1.35-.55-1.95-.04-.09-.16-.04-.17,.04-.06,.76,.25,1.55,.42,2.28,.1,.44,.16,1.11,.48,1.46,.03,.03,.08,0,.07-.04h0Z"/><path class="u" d="M19.47,47.44c.13-1.55-.4-2.98-.57-4.5,0-.04-.07-.06-.08-.01-.26,1.48,.33,3.06,.53,4.51,0,.07,.11,.08,.12,0h0Z"/></g><g class="v"><path class="u" d="M17.76,53.93c.2-2.09-.22-4.34-.58-6.4-.19-1.09-.31-2.19-.46-3.28-.12-.88-.15-1.88-.58-2.68-.1-.19-.38-.06-.34,.14,.42,1.83,.6,3.7,.91,5.55,.21,1.22,.47,2.43,.61,3.66,.12,1.02,.09,2.02,.41,3,0,.02,.03,.01,.03,0h0Z"/><path class="u" d="M17.24,53.33c-.32-1.83-.46-3.7-.79-5.53-.17-.96-.29-1.92-.48-2.88-.21-1.04-.52-2.01-.57-3.08-.12,.07-.24,.14-.37,.21,.02,.01,.05,.03,.07,.04,.08,.04,.16,.01,.21-.05l.05-.07c.24-.32-.48-.55-.45-.12,.04,.86,.23,1.68,.44,2.51,.27,1.06,.41,2.13,.62,3.2,.22,1.1,.49,2.18,.69,3.29,.15,.86,.17,1.7,.55,2.5,0,.02,.03,0,.03-.01h0Z"/><path class="u" d="M16.69,53.78c-.02-.81-.3-1.59-.42-2.4-.14-.96-.31-1.92-.5-2.88-.2-.99-.46-1.96-.7-2.93-.25-1.01-.3-2.06-.63-3.05-.09-.28-.5-.17-.44,.12,.4,1.89,.83,3.73,1.31,5.6,.48,1.87,.64,3.74,1.37,5.53,0,0,.01,0,.01,0h0Z"/><path class="u" d="M16,53.45c-.12-1.89-.75-3.77-1.21-5.6-.28-1.1-.65-2.17-.94-3.26-.22-.82-.24-1.76-.84-2.4-.13-.14-.41,0-.33,.19,.72,1.78,1.1,3.75,1.66,5.59,.31,1.01,.57,2.04,.87,3.05,.24,.79,.33,1.71,.75,2.43,0,.02,.04,0,.04,0h0Z"/><path class="u" d="M15.3,53.11c.04-.69-.14-1.31-.36-1.96-.35-1.06-.68-2.13-1.11-3.17-.35-.85-.76-1.68-1.13-2.52-.37-.86-.61-1.9-1.23-2.62-.07-.09-.19,0-.18,.1,.32,1.68,1.27,3.34,2.02,4.86,.44,.88,.77,1.8,1.1,2.72,.3,.83,.72,1.7,.79,2.59,0,.06,.08,.06,.09,0h0Z"/><path class="u" d="M14.63,53.11c.74-.54-.78-3.2-1.04-3.75-.58-1.2-1.16-2.39-1.71-3.59-.31-.66-.72-1.72-1.34-2.15-.17-.12-.39,.11-.28,.28,.93,1.38,1.53,2.96,2.3,4.43,.49,.92,1,1.83,1.41,2.79,.22,.54,.75,1.36,.61,1.95,0,.03,.03,.06,.05,.04h0Z"/></g><path class="n" d="M12.24,55.01c.55-1.03,1.17-2.02,1.87-2.96,.06-.09,.13-.18,.23-.22,.1-.04,.21-.03,.31-.02,3.39,.31,6.85,.85,10.18,.11,.56,1.01,1.22,1.97,1.96,2.87,.09,.11,.18,.22,.18,.36,0,.27-.33,.39-.6,.43-3.55,.58-7.18,.4-10.78,.22-1.13-.06-2.27-.12-3.38-.37-.11-.1-.05-.28,.02-.41Z"/><path class="y" d="M26.95,55.04c-.19-.25-1.95-1.19-2.13-1.26-.4-.15-.45,.23-.55,.4-.33,.55-.76,1.06-1.06,1.38-.02,.02-.06,.03-.09,.01-.25-.12-.74-.57-.85-.72-.14-.21-.42-.44-.59-.62-.06-.07-.14-.14-.23-.13-.08,0-.15,.08-.2,.14-.34,.4-1.01,1.43-1.38,1.4-.3-.02-.35-.52-1.02-1.47-.13-.19-.25-.03-.75,.4-.49,.42-.76,.63-1.26,1-.04,.03-.09,.03-.13,0-.51-.31-.66-.99-1.05-1.46-.06-.07-.13-.14-.23-.15-.11-.01-.21,.06-.29,.13l-1.22,.96s-.11,.02-.14-.03c-.3-.59-.6-1.68-.68-1.56-.4,.6-.69,.9-1,1.56-.17,.37,.05,.55,.11,.56,1.83,.31,6.46,.81,10.17,.83,1.64,.01,4.52-.48,4.67-.68,.14-.21,.06-.49-.09-.69Z"/><path class="y" d="M19.71,47.19c-.49,0-.9,.41-.9,.9s.41,.91,.9,.91,.91-.41,.91-.91-.41-.9-.91-.9h0Z"/><path class="u" d="M25.17,47.88c-.44-.03-.88-.04-1.32-.01-.29,.02-.59,.05-.78,.3-.13,.16-.18,.43-.07,.62,.13,.21,.44,.35,.63,.14,.04-.04,.04-.11,0-.15-.11-.11-.41-.09-.42-.26-.02-.23,.23-.33,.42-.37,.51-.1,1.05-.06,1.56-.15,.07-.01,.04-.1-.01-.11h0Z"/><path class="n" d="M21.78,56.96c-.13,0-.26,0-.38,.04-.09,.03-.3,.11-.26,.24,.04,.13,.18,.05,.26,0,.12-.07,.27-.14,.4-.19,.05-.02,.05-.1-.01-.1h0Z"/><path class="n" d="M21.11,57.88c-.04-.08-.08-.15-.14-.21-.07-.07-.11-.11-.21-.11-.04,0-.06,.04-.05,.07,.01,.1,.05,.12,.12,.19,.06,.06,.13,.1,.2,.15,.05,.04,.11-.03,.08-.09h0Z"/><path class="n" d="M20.44,58.65c-.09-.13-.2-.26-.36-.29-.04,0-.08,.03-.07,.07,.05,.17,.2,.26,.36,.32,.05,.02,.1-.05,.07-.09h0Z"/><path class="n" d="M19.81,57.63c-.08-.02-.14-.08-.22-.07-.03,0-.05,.02-.05,.05,.01,.11,.14,.15,.23,.17,.1,.03,.14-.12,.04-.15h0Z"/><path class="n" d="M20.37,56.98c-.06-.07-.13-.12-.21-.17-.07-.05-.16-.11-.24-.13-.1-.03-.17,.08-.13,.17,.08,.18,.33,.19,.49,.26,.08,.04,.16-.05,.09-.12h0Z"/><path class="n" d="M19.49,58.75c-.13,.06-.28,.01-.38,.13-.03,.03-.02,.08,.02,.09,.15,.05,.32-.03,.43-.14,.05-.05-.01-.12-.07-.09h0Z"/><path class="n" d="M19.84,59.28c-.11,.08-.38,.1-.39,.27,0,.02,.01,.04,.03,.06,.15,.1,.36-.14,.43-.26,.02-.04-.03-.11-.07-.07h0Z"/><path class="n" d="M18.54,58.92c-.03-.08-.05-.15-.1-.23-.02-.04-.05-.07-.08-.1-.02-.03-.06-.02-.09-.03-.03-.01-.06,.02-.05,.05,0,.03,0,.05,0,.08,.02,.04,.05,.07,.07,.1,.06,.07,.12,.11,.2,.15,.02,0,.05,0,.04-.03h0Z"/><path class="n" d="M18.87,58.05c-.07-.11-.16-.21-.24-.3-.02-.02-.06-.03-.08-.02-.02,0-.04,.02-.05,.04-.02,.04-.02,.07,.01,.1,.08,.09,.19,.17,.27,.26,.05,.05,.13-.02,.09-.07h0Z"/><path class="n" d="M18.85,56.93c-.07-.07-.13-.13-.21-.19-.07-.06-.14-.12-.24-.09-.03,0-.05,.04-.05,.06,0,.1,.08,.15,.15,.21,.09,.06,.17,.1,.27,.14,.07,.03,.13-.08,.08-.13h0Z"/><path class="n" d="M17.8,57.99c.01-.11,.05-.21,.08-.31,.03-.08,.04-.18-.02-.24-.02-.02-.05-.03-.08-.01-.16,.1-.06,.41-.05,.55,0,.03,.06,.04,.06,0h0Z"/><path class="n" d="M17.33,57.01c.02-.13,.09-.35-.04-.43-.01,0-.03,0-.04,0-.11,.08-.07,.26-.09,.39-.02,.11,.15,.16,.17,.04h0Z"/><path class="u" d="M24.4,52.93s-.09,.03-.14,.06c-.2,.13-.2,.42,0,.55,.04,.03,.09,.04,.14,.05,.21,.05,.43-.1,.43-.33s-.22-.38-.43-.33h0Z"/><path class="u" d="M21.59,53.12c-.18,0-.34,.15-.34,.34s.15,.34,.34,.34,.34-.15,.34-.34-.15-.34-.34-.34h0Z"/><path class="u" d="M18.88,53.27h-.01c-.22-.12-.5,.06-.43,.32,.07,.26,.39,.27,.53,.07h0c.08-.13,.03-.33-.1-.39h0Z"/><path class="u" d="M15.28,52.95h-.02c-.19,.12-.19,.4,0,.51,0,0,.01,0,.02,0,.2,.12,.45-.03,.45-.26s-.26-.38-.45-.26h0Z"/><path class="n" d="M26.38,37.61c-.31,0-.56,.26-.56,.56s.26,.56,.56,.56,.56-.26,.56-.56-.26-.56-.56-.56h0Z"/><path class="n" d="M19.58,35.19c-.28,0-.51,.23-.51,.51s.23,.51,.51,.51,.51-.23,.51-.51-.23-.51-.51-.51h0Z"/><path class="n" d="M13.39,38.67s-.02,0-.04,0c-.27,.05-.38,.46-.17,.63l.03,.02c.22,.2,.58,.12,.66-.18,.04-.14,0-.29-.1-.39-.11-.11-.24-.12-.39-.1h0Z"/><path class="n" d="M19.76,37.3c.11-.06,.17-.16,.17-.29,0-.19-.24-.36-.41-.23h-.01s.09-.02,.14-.03c0,0-.01,0-.02,0,.05,.01,.1,.03,.15,.04h-.02c-.1-.05-.2-.07-.3,0-.09,.05-.15,.15-.15,.26,0,.23,.25,.36,.45,.26h0Z"/><path class="n" d="M19.61,37.82c-.21,0-.21,.32,0,.32s.2-.32,0-.32h0Z"/><path class="n" d="M25.23,38.86h-.01s.07-.03,.1-.05c0,0-.01,0-.02,0-.08,.03-.13,.07-.16,.16-.03,.09,.01,.21,.1,.25,.03,.01,.06,.03,.09,.04,.18,.03,.35-.11,.3-.3-.05-.19-.27-.22-.4-.11h0Z"/><path class="n" d="M24.64,39.45c-.16,0-.16,.26,0,.26s.17-.26,0-.26h0Z"/><path class="n" d="M14.34,39.31c-.34,0-.34,.52,0,.52s.34-.52,0-.52h0Z"/><path class="n" d="M15.04,39.78c-.25,0-.25,.38,0,.38s.25-.38,0-.38h0Z"/><path class="y" d="M24.95,52.54c-.06-.09-.08-.2-.11-.3-.04-.15-.28-.09-.24,.06,.04,.13,.09,.25,.19,.36,.08,.08,.22-.03,.16-.12h0Z"/><path class="y" d="M24.39,52.71c-.04-.12-.08-.25-.15-.37-.02-.04-.07-.06-.11-.05-.02,0-.03,.01-.04,.03-.03,.03-.03,.08-.01,.12,.05,.11,.11,.22,.17,.33,.04,.07,.17,.02,.14-.06h0Z"/><path class="y" d="M23.75,52.91c.09-.16,0-.44-.11-.58-.08-.1-.27-.02-.26,.11,.01,.12,.06,.21,.11,.31,.04,.08,.1,.16,.19,.19,.03,0,.06,0,.07-.03h0Z"/><path class="y" d="M23.15,52.88c0-.15,0-.33-.08-.47-.05-.11-.21-.05-.21,.06,0,.16,.07,.31,.13,.45,.03,.07,.15,.04,.15-.04h0Z"/><path class="y" d="M22.53,52.96c0-.16,0-.34-.08-.48-.07-.12-.26-.07-.26,.07,0,.15,.07,.3,.12,.44,.04,.11,.21,.1,.21-.03h0Z"/><path class="y" d="M21.9,52.91c0-.14,.03-.27-.03-.4-.05-.11-.23-.05-.23,.06,0,.12,.03,.25,.07,.37,.03,.1,.19,.08,.19-.03h0Z"/><path class="y" d="M21.22,53.02c.09-.13,.07-.3,.02-.45-.06-.16-.33-.15-.32,.04,.01,.15,.05,.32,.17,.42,.04,.03,.09,.03,.12-.02h0Z"/><path class="y" d="M20.56,52.93c.02-.12,.04-.25,0-.36-.01-.05-.06-.08-.11-.08-.02,0-.04,0-.05,.01-.03,.02-.06,.06-.05,.1,0,.1,.04,.21,.05,.31,0,.09,.14,.12,.16,.02h0Z"/><path class="y" d="M20.1,52.93c0-.1,0-.19,0-.29,0-.09-.07-.25-.19-.21-.22,.08-.1,.42-.02,.56,.06,.1,.22,.06,.22-.06h0Z"/><path class="y" d="M19.32,52.95c.04-.15,.11-.37-.02-.49-.05-.04-.14-.04-.17,.02-.07,.13,0,.32,.03,.46,.02,.08,.14,.08,.16,0h0Z"/><path class="y" d="M18.7,52.98c.08-.16,.11-.41,0-.56-.05-.07-.15-.02-.17,.04-.05,.13,.02,.3,0,.44-.01,.1,.12,.18,.18,.07h0Z"/><path class="y" d="M18.15,52.88c0-.13,.11-.55-.13-.55-.1,0-.09,.14-.09,.2,0,.12,0,.23,.01,.35,0,.13,.19,.13,.2,0h0Z"/><path class="y" d="M17.6,52.86c.06-.15,.19-.44,.03-.57-.07-.05-.14-.05-.21,0-.08,.07-.08,.18-.08,.28,0,.12,.02,.21,.06,.31,.04,.1,.17,.05,.2-.03h0Z"/><path class="y" d="M16.92,52.78c.11-.15,.19-.48,0-.6-.04-.02-.09-.02-.13,0-.17,.12-.09,.4-.06,.58,.02,.1,.14,.09,.18,.02h0Z"/><path class="y" d="M16.31,52.73c.04-.14,.08-.28,.08-.43,.01-.18-.28-.18-.28,0,0,.15,0,.29,.03,.43,.02,.08,.14,.08,.16,0h0Z"/><path class="y" d="M15.69,52.68c.17-.09,.22-.39,.15-.55-.06-.12-.22-.07-.26,.03-.03,.09-.02,.2-.03,.29,0,.08,.02,.16,.07,.22,.02,.02,.04,.02,.07,0h0Z"/><path class="y" d="M15.23,52.53c.05-.12,.12-.3,.08-.44-.03-.1-.15-.1-.2-.03-.09,.12-.02,.31-.02,.45,0,.09,.12,.09,.15,.02h0Z"/><path class="y" d="M14.65,52.54c.1-.17,.24-.37,.15-.57-.04-.09-.19-.11-.26-.03-.12,.15-.12,.4-.08,.58,.02,.09,.15,.1,.19,.03h0Z"/><path class="y" d="M16.63,36.49h-.01c-.06-.07-.15-.07-.22-.01h-.01c-.11,.12-.02,.31,.12,.31s.24-.19,.12-.3h0Z"/><path class="y" d="M21.23,34.7h-.01c-.06-.07-.15-.07-.22-.01h-.01c-.11,.12-.02,.31,.12,.31s.24-.19,.12-.3h0Z"/><path class="y" d="M14.1,35.49h-.01c-.05,.05-.05,.15,0,.19h.01c.09,.09,.24,.04,.24-.09s-.15-.18-.24-.1h0Z"/><path class="y" d="M25.28,35.53h-.01c-.05,.05-.05,.15,0,.19h.01c.09,.09,.24,.04,.24-.09s-.15-.18-.24-.1h0Z"/><path class="y" d="M30.03,38.55s0,0-.01,.01c-.05,.04-.05,.13,0,.18,0,0,0,0,.01,.01,.09,.08,.24,.03,.24-.1s-.15-.18-.24-.1h0Z"/><path class="y" d="M22.87,36.89h-.01c-.05,.05-.05,.15,0,.19h.01c.09,.09,.24,.04,.24-.09s-.15-.18-.24-.1h0Z"/><path class="y" d="M14.76,33.19h-.01c-.05,.05-.05,.15,0,.19h.01c.09,.09,.24,.04,.24-.09s-.15-.18-.24-.1h0Z"/><path class="y" d="M12.78,37.45v-.02c-.05-.11-.19-.11-.23,0,0,0,0,.02,0,.02-.08,.2,.32,.2,.24,0h0Z"/><path class="y" d="M10.56,38.49c-.04,.1-.04,.16,0,.25,.07,.15,.29,.15,.39,.05,.1-.1,.1-.26,0-.36-.11-.1-.33-.1-.39,.05h0Z"/><path class="y" d="M17.26,34.44c-.04,.09-.04,.16,0,.25,.07,.15,.29,.16,.39,.05,.1-.1,.1-.26,0-.35-.1-.11-.33-.1-.39,.05h0Z"/><path class="y" d="M27.41,36.44c-.04,.09-.04,.16,0,.25,.07,.15,.29,.16,.39,.05,.1-.1,.1-.26,0-.35-.1-.11-.33-.1-.39,.05h0Z"/><path class="y" d="M28.16,38.75c-.25,0-.25,.39,0,.39s.25-.39,0-.39h0Z"/><path class="q" d="M11.46,22.44c-.33,.87,.13,1.94,.7,2.68,.56,.74,1.37,1.25,2.17,1.71,3.61,2.05,7.66,3.32,11.79,3.69,1.6,.14,3.5,.49,5.08,.77,1.59,.28,2.63,.69,3.8,1.8,.29,.28,.75,.91,.85,1.3,.21,.8-.49,1.66-1,2.3-1.17,1.46-2.35,2.2-3.9,2.8,.5-.88,.2-1.2-.65-2.3-1.09-1.4-3.55-1.99-5.3-2.3-3.93-.69-5.98-1.05-9.75-2.35-1.19-.41-3.2-1.05-4.55-1.75-1.43-.74-2.64-1.23-3.7-2.45-.58-.67-1-1.63-.5-2.35,.17-.24,.6-1,1.45-1.6,1.36-.96,1.45-1.2,3.5-1.95Z"/><g><path class="u" d="M18.65,32.25s.01,.02,.02,.03c.16,.26,.37,.46,.64,.61,.4,.22,.83,.24,1.26,.14,.48-.11,.82-.45,1.07-.85,.22-.36,.25-.85,.14-1.25-.11-.4-.41-.83-.81-1.01-.27-.12-.58-.25-.88-.21-.3,0-.59,.09-.85,.24-.28,.17-.46,.37-.62,.65,.08-.12,.17-.23,.25-.35v.02c-.21,.21-.34,.45-.41,.73-.1,.42-.03,.87,.19,1.23h0Z"/><path class="u" d="M16.53,31.3c.57-.35,.76-1.11,.41-1.68-.35-.57-1.11-.76-1.68-.41-.57,.35-.75,1.11-.41,1.68,.34,.57,1.11,.76,1.68,.41h0Z"/><path class="u" d="M13.04,29c.8-.48,.05-1.72-.75-1.24-.8,.48-.05,1.72,.75,1.24h0Z"/><path class="u" d="M25.23,33.61c1.3-.79,.08-2.81-1.23-2.02-1.3,.79-.08,2.81,1.23,2.02h0Z"/><path class="u" d="M28.85,34.24c.77-.46,.05-1.66-.72-1.19-.77,.47-.05,1.66,.72,1.19h0Z"/><path class="w" d="M20.4,31.65c.16-.09,.21-.3,.11-.46-.09-.16-.3-.21-.46-.11-.16,.09-.21,.3-.11,.46,.09,.16,.3,.21,.46,.11h0Z"/><path class="w" d="M16.02,30.37c.23-.14,.01-.51-.22-.36s-.01,.5,.22,.36h0Z"/><path class="w" d="M24.78,32.66c.15-.09,0-.32-.14-.23-.15,.09,0,.32,.14,.23h0Z"/><path class="w" d="M14.1,29.45c.28-.17,.02-.6-.26-.43-.28,.17-.02,.6,.26,.43h0Z"/><path class="w" d="M18.05,30.87c.13-.08,.18-.26,.1-.39-.08-.13-.26-.18-.39-.1-.13,.08-.18,.26-.1,.39,.08,.13,.26,.18,.39,.1h0Z"/><path class="w" d="M22.26,32.37v.02c.08,.16,.31,.19,.45,.11,.19-.12,.19-.35,.05-.5l-.02-.02c-.09-.1-.27-.11-.38-.04-.16,.1-.18,.28-.11,.43h0Z"/><path class="w" d="M26.8,32.92s-.02,0-.03-.01c-.1-.04-.19-.05-.28,0-.09,.05-.14,.15-.14,.25,0,.22,.25,.35,.43,.24,0,0,.02-.01,.03-.02,.16-.1,.19-.39-.01-.47h0Z"/><path class="w" d="M12.73,28.58c.17-.11,.01-.38-.16-.27-.17,.11,0,.38,.16,.27h0Z"/><path class="w" d="M28.66,33.74c.19-.12,.01-.41-.18-.3-.19,.12-.01,.41,.18,.3h0Z"/></g></g><path class="k" d="M5.29,12.71s.09-.01,.13-.04c.3-.2,1.07-1.02,1.3-1.24,.04-.04,.09-.1,.08-.16,0-.05-.04-.09-.08-.12-.34-.34-.69-.65-1.01-1.01-.14-.15-.3-.33-.4-.34h-.05c-.1,0-.26,.18-.4,.34-.32,.35-.67,.67-1.01,1.01-.04,.04-.07,.07-.08,.12,0,.06,.04,.12,.08,.16,.22,.23,1,1.04,1.3,1.24,.04,.03,.09,.04,.13,.04h0Z"/><path class="k" d="M35.66,52.24s.09-.01,.13-.04c.3-.2,1.07-1.02,1.3-1.24,.04-.04,.09-.1,.08-.16,0-.05-.04-.09-.08-.12-.34-.34-.69-.65-1.01-1.01-.14-.15-.3-.33-.4-.33h-.05c-.1,0-.26,.18-.4,.33-.32,.36-.67,.67-1.01,1.01-.03,.03-.07,.07-.08,.12,0,.06,.04,.11,.08,.16,.22,.23,1,1.04,1.3,1.24,.04,.03,.09,.04,.13,.04h0Z"/><path class="k" d="M6.47,3v3.99c0,.7-.16,1.18-.47,1.46-.31,.28-.73,.41-1.25,.41-.28,0-.56-.04-.84-.12v-.59c.28,.06,.53,.09,.75,.09,.32,0,.56-.05,.71-.14,.15-.1,.25-.22,.3-.37,.05-.15,.08-.4,.08-.74V3h.72Z"/><path class="k" d="M34.46,59.29v-3.99c0-.7,.16-1.18,.47-1.46,.31-.27,.73-.41,1.25-.41,.28,0,.56,.04,.84,.12v.59c-.28-.06-.52-.09-.75-.09-.32,0-.56,.05-.71,.14-.15,.1-.25,.22-.3,.37-.05,.15-.08,.4-.08,.74v3.99h-.72Z"/><g><path class="k" d="M15.93,59.11H6.19c-1.66,0-3-1.43-3-3.19V15.66h.19V55.92c0,1.66,1.26,3,2.82,3H15.93v.19Z"/><rect class="k" x="22.58" y="58.93" width="10.2" height=".19"/><path class="k" d="M37.74,46.82h-.19V6.36c0-1.65-1.26-3-2.82-3h-9.63v-.19h9.63c1.66,0,3,1.43,3,3.19V46.82Z"/><rect class="k" x="8.45" y="3.17" width="10.2" height=".19"/></g></g></g></g></svg>