<?xml version="1.0" encoding="UTF-8"?><svg xmlns="http://www.w3.org/2000/svg" xmlns:xlink="http://www.w3.org/1999/xlink" viewBox="0 0 40.93 62.29"><defs><style>.l{fill:#fff;}.m{fill:#d6002b;}.n{clip-path:url(#h);}.o{fill:#ffd6a1;}.p{fill:#b70027;}.q{clip-path:url(#e);}.r{clip-path:url(#d);}.s{fill:#222272;}.t{fill:none;}.u{fill:#2d2d2d;}.v{clip-path:url(#f);}.w{clip-path:url(#j);}.x{fill:#0c0a35;}.y{clip-path:url(#i);}.a`{clip-path:url(#k);}.aa{fill:#990028;}.ab{clip-path:url(#g);}.ac{fill:#f70032;}</style><clipPath id="d"><path class="p" d="M24.95,27.55c-1.1,0-2.19,.36-3.14,.92-.95,.56-1.71,1.48-2.47,2.27-.13-.46-.53-1.02-.92-1.31s-.83-.48-1.27-.67c-.4-.17-.79-.35-1.19-.52-.61-.27-1.36-.25-1.75-.79-.12-.17-.17-.38-.22-.58-.59-2.44-1.17-5.09-.13-7.37-1.58-.28-3.26,.4-4.31,1.61-1.06,1.21-1.5,2.89-1.35,4.48,.07,.73,.26,1.45,.58,2.1,.35,.71,.85,1.35,1.41,1.91,1.47,1.48,3.4,2.5,5.45,2.89,1.06,.21,2.15,.24,3.24,.27,2.39,.06,4.85,.05,7.08-.8,.72-.28,1.41-.64,2.09-1,.55-.29,1.11-.59,1.52-1.04,.33-.37,.55-.81,.76-1.26,.53-1.14,.99-2.32,1.36-3.52,.23-.72,.43-1.47,.42-2.23-.02-1.36-.75-2.65-1.81-3.5s-2.44-1.24-3.79-1.25c-.62,0-1.33,.13-1.63,.66-.12,.21-.16,.45-.17,.69-.11,1.33,.33,2.65,.48,3.98,.15,1.33,.17,2.78-.23,4.06Z"/></clipPath><clipPath id="e"><path class="p" d="M15.38,19.55c.57,.46,1.43,.51,2.05,.14,.11-.06,.21-.14,.28-.24,.12-.17,.15-.39,.18-.6,.27-2.42,.21-4.88-.17-7.28-.07-.45-.16-.89-.36-1.29-.2-.4-.99-.78-1.42-.92-1.08,.71-1.52,1.73-1.86,2.98-.34,1.25-.16,2.75,.03,4.03,.09,.62,.21,1.24,.42,1.83,.18,.51,.43,1.01,.85,1.35Z"/></clipPath><clipPath id="f"><path class="t" d="M26.1,11.66c-.39-1.33-1.37-2.44-2.4-3.38-1.01-.93-2.44-1.67-4.17-1.98-.36-.1-.73-.17-1.1-.19-.7-.03-1.39,.18-1.96,.59-2.04,1.48-1.33,2.89-1.2,3.18,.56,1.24,1.35,2.38,2.32,3.35,.32,.31,.65,.61,1.02,.86,1.14,.76,2.56,1.01,3.94,.89,.01,.03,.02,.06,.03,.1,.42,1.51,.51,2.31,.48,3.27-.06,2.12-.35,2.73-.04,3.12,.3,.38,1.24-.46,1.64-1.07,.3-.46,.86-1.23,1.09-1.73,.85-1.84,1.09-4.39,.33-7.01Z"/></clipPath><clipPath id="g"><path class="t" d="M32.65,26.18c-.3,.47-.9,.45-1.42,.45-.72,0-1.52,0-2.06-.5-.31-.28-.48-.68-.66-1.05-.83-1.77-2.01-3.45-2.15-5.4,0-.1,0-.21,.05-.3,.25,.22,.57,.38,.88,.53,.25,.12,.55,.02,.69-.22,.21-.39,.43-.77,.64-1.16,.42,.37,.84,.72,1.27,1.08,.14,.11,.34,.1,.47-.02,.43-.4,.89-.78,1.39-1.11,.26,.4,.49,.77,.91,1.41,.03,.05,.07,.11,.13,.13,.07,.02,.14,0,.21-.04,.47-.23,.95-.47,1.42-.7l.17,1.37c.02,.12,.13,.2,.26,.17,.44-.11,.98-.18,1.38-.07-.28,.74-1,1.65-1.5,2.26-.43,.51-1.7,2.56-2.08,3.16Z"/></clipPath><clipPath id="h"><path class="p" d="M15.98,34.72c1.1,0,2.19-.36,3.14-.92,.95-.56,1.71-1.48,2.47-2.28,.13,.46,.53,1.02,.91,1.31,.39,.29,.83,.48,1.27,.67,.4,.17,.79,.35,1.19,.52,.61,.27,1.36,.25,1.75,.79,.12,.17,.17,.38,.22,.58,.59,2.44,1.17,5.09,.13,7.37,1.58,.28,3.26-.4,4.31-1.61,1.06-1.21,1.51-2.88,1.35-4.48-.07-.73-.26-1.45-.58-2.1-.35-.71-.85-1.35-1.41-1.91-1.47-1.48-3.4-2.5-5.45-2.89-1.06-.21-2.15-.24-3.24-.27-2.39-.06-4.85-.05-7.08,.8-.72,.28-1.41,.64-2.09,1-.55,.29-1.11,.59-1.52,1.04-.33,.37-.56,.81-.76,1.26-.53,1.14-.99,2.32-1.36,3.52-.23,.72-.43,1.47-.42,2.23,.02,1.36,.75,2.65,1.81,3.5,1.06,.84,2.44,1.24,3.79,1.25,.62,0,1.33-.13,1.63-.67,.12-.21,.16-.45,.18-.69,.11-1.33-.33-2.65-.48-3.98-.15-1.33-.17-2.78,.23-4.06Z"/></clipPath><clipPath id="i"><path class="p" d="M25.54,42.72c-.57-.46-1.43-.51-2.05-.14-.11,.06-.21,.14-.28,.24-.12,.17-.15,.39-.18,.6-.27,2.42-.21,4.88,.17,7.28,.07,.44,.16,.89,.36,1.29,.2,.4,.99,.78,1.42,.91,1.08-.71,1.52-1.73,1.86-2.98s.16-2.75-.02-4.03c-.09-.62-.21-1.24-.42-1.83-.18-.51-.43-1.01-.85-1.34Z"/></clipPath><clipPath id="j"><path class="t" d="M14.83,50.61c.39,1.33,1.37,2.44,2.39,3.38,1.01,.93,2.44,1.67,4.16,1.98,.36,.1,.73,.17,1.1,.19,.7,.03,1.39-.18,1.96-.59,2.04-1.48,1.33-2.89,1.2-3.18-.56-1.24-1.35-2.38-2.32-3.35-.32-.31-.65-.61-1.02-.86-1.14-.76-2.56-1.01-3.94-.89-.01-.03-.02-.06-.03-.1-.42-1.51-.51-2.3-.48-3.27,.06-2.12,.35-2.73,.04-3.12-.3-.38-1.24,.46-1.64,1.07-.3,.46-.86,1.23-1.09,1.73-.84,1.84-1.09,4.39-.33,7.01Z"/></clipPath><clipPath id="k"><path class="t" d="M8.28,36.09c.3-.47,.9-.45,1.42-.45,.72,0,1.52,0,2.06,.5,.31,.28,.48,.68,.66,1.05,.83,1.77,2.01,3.46,2.15,5.4,0,.1,0,.22-.05,.3-.25-.22-.57-.38-.88-.53-.25-.12-.56-.02-.69,.22-.21,.38-.43,.77-.64,1.16-.42-.37-.84-.73-1.27-1.08-.14-.11-.34-.11-.47,.02-.43,.4-.89,.78-1.39,1.11-.26-.41-.49-.77-.91-1.41-.03-.05-.07-.11-.13-.13-.07-.02-.14,0-.21,.04-.47,.23-.95,.47-1.42,.7l-.17-1.37c-.02-.12-.14-.2-.26-.17-.44,.12-.98,.19-1.39,.07,.28-.74,1-1.65,1.5-2.26,.42-.51,1.7-2.56,2.08-3.16Z"/></clipPath></defs><g id="a"/><g id="b"><g id="c"><g><g><rect class="l" x=".09" y=".09" width="40.75" height="62.1" rx="3.45" ry="3.45"/><path class="u" d="M37.39,62.29H3.54c-1.95,0-3.54-1.59-3.54-3.55V3.54C0,1.59,1.59,0,3.54,0H37.39c1.95,0,3.54,1.59,3.54,3.54V58.74c0,1.96-1.59,3.55-3.54,3.55ZM3.54,.19C1.69,.19,.19,1.69,.19,3.54V58.74c0,1.85,1.5,3.36,3.36,3.36H37.39c1.85,0,3.36-1.51,3.36-3.36V3.54c0-1.85-1.51-3.36-3.36-3.36H3.54Z"/></g><path class="aa" d="M35.25,28.94c-.09-.4-1.3-2.4-1.58-2.7-1.12-1.2-2.34-2.16-2.7-2.47-.96-.86-5.09,1.71-5.74,.6-1.25-2.17-1.09-4.9-2.17-7.15-.07-.14-.15-.29-.3-.35-.11-.04-.24-.02-.35,0-1.88,.38-3.64,1.35-4.98,2.73-.13,.14-.27,.29-.34,.47-.12,.32-.32,.67-.24,1,.26,1.15,.49,2.38,.02,3.45-.47,1.08-1.36,1.99-2.45,2.41-1.42,.55-3.1-4.69-4.52-4.14-.34,.13-2.07,1.62-2.33,1.88-.24,.23-1.43,1.5-2.03,3.38-.28,.89-.67,3.15,.13,5.29,.14,.38,1.3,2.4,1.58,2.7,1.12,1.2,2.34,2.16,2.7,2.47,.96,.86,5.09-1.71,5.73-.6,1.25,2.17,1.09,4.9,2.17,7.15,.07,.14,.15,.29,.3,.35,.11,.04,.24,.02,.35,0,1.88-.38,3.64-1.35,4.98-2.73,.14-.14,.27-.29,.34-.47,.12-.32,.32-.67,.24-1-.26-1.15-.49-2.38-.02-3.45,.47-1.08,1.36-1.98,2.46-2.41,1.42-.55,3.1,4.68,4.52,4.14,.34-.13,2.07-1.62,2.33-1.88,.24-.24,1.42-1.5,2.02-3.38,.28-.89,.34-3.24-.13-5.29Z"/><path class="aa" d="M26.15,15.34c.59-.23,1.05-.74,1.33-1.31,.28-.57,.4-1.21,.48-1.84,.32-2.46,.07-4.95-.17-7.41-.07-.66-.13-1.33-.41-1.94-.03-.06-.06-.12-.12-.15-.12-.05-.23,.07-.3,.18-.41,.6-.83,1.24-1.4,1.7-.06,.05-.15,.03-.19-.03-.42-.65-.8-1.5-1.31-2.07-.03-.04-.07-.07-.12-.08-.08,0-.14,.07-.18,.14-.41,.74-.75,1.33-1.18,2.03-.04,.06-.11,.09-.18,.06-.55-.26-1.6-1.54-2.18-1.95-.06-.04-.14,0-.14,.07-.02,.67,.12,2.66,.14,3.34,.02,.55,0,1.1,.04,1.65,.11,1.36,.58,2.68,1.26,3.87,.55,.97,1.24,1.85,1.95,2.71,.31,.38,.64,.76,1.08,.99,.43,.23,1.13,.21,1.59,.04Z"/><g><path class="p" d="M24.95,27.55c-1.1,0-2.19,.36-3.14,.92-.95,.56-1.71,1.48-2.47,2.27-.13-.46-.53-1.02-.92-1.31s-.83-.48-1.27-.67c-.4-.17-.79-.35-1.19-.52-.61-.27-1.36-.25-1.75-.79-.12-.17-.17-.38-.22-.58-.59-2.44-1.17-5.09-.13-7.37-1.58-.28-3.26,.4-4.31,1.61-1.06,1.21-1.5,2.89-1.35,4.48,.07,.73,.26,1.45,.58,2.1,.35,.71,.85,1.35,1.41,1.91,1.47,1.48,3.4,2.5,5.45,2.89,1.06,.21,2.15,.24,3.24,.27,2.39,.06,4.85,.05,7.08-.8,.72-.28,1.41-.64,2.09-1,.55-.29,1.11-.59,1.52-1.04,.33-.37,.55-.81,.76-1.26,.53-1.14,.99-2.32,1.36-3.52,.23-.72,.43-1.47,.42-2.23-.02-1.36-.75-2.65-1.81-3.5s-2.44-1.24-3.79-1.25c-.62,0-1.33,.13-1.63,.66-.12,.21-.16,.45-.17,.69-.11,1.33,.33,2.65,.48,3.98,.15,1.33,.17,2.78-.23,4.06Z"/><g class="r"><path class="aa" d="M7.38,24.34c1.37-.66,2.69-1.49,4.18-1.83,1-.23,2.54-.28,2.95-1.4,.07-.2-.08-.39-.26-.45-1.04-.36-2.72,.29-3.7,.65-1.35,.5-2.41,1.54-3.61,2.28-.48,.3-.06,.99,.44,.75h0Z"/><path class="aa" d="M7.2,28.37c.31-.8,1.97-1.36,2.66-1.79,1.06-.67,2.32-1.3,3.1-2.31,.15-.19-.05-.52-.29-.5-1.58,.13-2.91,1.43-4.18,2.27-.76,.51-1.83,1.16-2.02,2.13-.09,.48,.55,.65,.73,.2h0Z"/><path class="aa" d="M9.65,30.76c.81-.92,2.08-1.56,3.05-2.3,.87-.67,2.12-1.35,2.6-2.38,.13-.29-.08-.6-.41-.53-1.2,.27-2.31,1.38-3.26,2.12-.95,.74-1.93,1.6-2.53,2.66-.19,.34,.28,.73,.55,.43h0Z"/><path class="aa" d="M11.94,32.78c.82-.82,1.66-1.61,2.49-2.41,.81-.77,2.03-1.43,2.59-2.41,.16-.28-.04-.62-.36-.62-1.19-.04-2.2,1.05-2.98,1.82-.94,.93-1.65,2.07-2.23,3.25-.15,.31,.23,.64,.49,.38h0Z"/><path class="aa" d="M19.47,28.6c.43,.37,.66,.89,.98,1.36,.47,.69,1.04,1.31,1.51,1.99,.43,.63,.78,1.31,1.14,1.98,.32,.6,.55,1.23,1.28,1.35,.17,.03,.4,0,.48-.2,.27-.62,.1-1.04-.24-1.61-.48-.82-.98-1.63-1.56-2.38-.52-.67-1.1-1.25-1.69-1.86-.46-.47-.78-1.02-1.33-1.39-.45-.3-.98,.39-.57,.74h0Z"/><path class="aa" d="M21.53,27.5c.49,.29,.81,.76,1.2,1.16,.58,.6,1.25,1.1,1.84,1.7,.53,.54,1,1.15,1.47,1.75,.42,.54,.76,1.12,1.5,1.1,.18,0,.39-.08,.44-.28,.16-.65-.09-1.04-.52-1.54-.62-.72-1.25-1.43-1.96-2.07-.63-.56-1.31-1.04-1.99-1.53-.53-.38-.94-.86-1.56-1.13-.49-.21-.89,.56-.43,.83h0Z"/><path class="aa" d="M23.93,26.2c.49,.29,.81,.76,1.2,1.16,.58,.6,1.25,1.1,1.84,1.69,.53,.54,1,1.15,1.47,1.75,.42,.54,.76,1.12,1.5,1.1,.17,0,.39-.08,.44-.28,.16-.65-.09-1.04-.52-1.54-.62-.72-1.25-1.43-1.96-2.06-.63-.56-1.31-1.04-1.99-1.53-.54-.38-.94-.86-1.56-1.13-.49-.21-.89,.56-.43,.83h0Z"/><path class="aa" d="M28.01,21.76c1.36,.11,2.64,.54,3.91,1.04,.92,.36,2.17,1.1,3.18,.78,.19-.06,.32-.3,.2-.49-.6-.9-2.07-1.19-3.05-1.46-1.38-.37-2.8-.62-4.23-.6-.47,0-.46,.68,0,.72h0Z"/><path class="aa" d="M13.97,33.53c1.82-1.52,3.91-2.86,5.28-4.85,.17-.25-.11-.52-.36-.47-1.05,.22-1.92,1.1-2.63,1.86-.92,.99-1.93,1.89-2.8,2.93-.31,.37,.15,.83,.52,.52h0Z"/></g></g><path class="p" d="M16.61,24.69c.14-.48,.38-.94,.7-1.32,.67,.6,1.66,.77,2.55,.6,.89-.17,1.69-.63,2.42-1.16,.12,.28,.24,.55,.36,.83,.02,.05,.04,.1,.03,.15,0,.05-.04,.09-.08,.13-.72,.78-1.79,1.2-2.85,1.27-1.06,.08-2.13-.15-3.13-.51Z"/><path class="ac" d="M11.35,20.44c-.34,.54-.48,1.19-.55,1.82-.16,1.31-.09,2.69,.44,3.9,.53,1.22,1.54,2.26,2.81,2.62,.37,.11,.77,.15,1.15,.09,.36-.06,.69-.22,1.02-.38,.49-.24,.98-.52,1.32-.94,.6-.75,.58-1.82,.38-2.76-.21-.94-.58-1.84-.63-2.8-.03-.69,.11-1.37,.15-2.05,.04-.68-.02-1.41-.42-1.97-.24-.34-.59-.59-.99-.71-.18-.05-.37-.08-.55-.05-.13,.03-.26,.09-.38,.16-1.13,.6-2.16,1.36-3.07,2.26-.25,.25-.5,.51-.68,.81Z"/><path class="ac" d="M20.92,26.33c.15,.43,.3,.86,.55,1.24,.37,.53,.94,.9,1.53,1.16,1.37,.62,3.05,.72,4.35-.04,1.16-.67,1.87-1.91,2.38-3.14,.43-1.03,.77-2.13,.7-3.25-.07-1.12-.47-2.21-1-3.19-1.07-1.95-3.09-3.02-3.96-3.89-.35-.35-.59-.8-.9-1.19-.7-.89-1.63-1.59-2.68-2.01-.41-.16-.86-.28-1.29-.18-.43,.11-.81,.51-.75,.95,.04,.33,.3,.58,.52,.83,.67,.76,1.08,1.75,1.12,2.76,.1,2.09-1.26,4.01-1.36,6.1-.07,1.31,.37,2.6,.79,3.84Z"/><g><path class="p" d="M15.38,19.55c.57,.46,1.43,.51,2.05,.14,.11-.06,.21-.14,.28-.24,.12-.17,.15-.39,.18-.6,.27-2.42,.21-4.88-.17-7.28-.07-.45-.16-.89-.36-1.29-.2-.4-.99-.78-1.42-.92-1.08,.71-1.52,1.73-1.86,2.98-.34,1.25-.16,2.75,.03,4.03,.09,.62,.21,1.24,.42,1.83,.18,.51,.43,1.01,.85,1.35Z"/><g class="q"><path class="x" d="M15.64,10.11c-1.52,.94-1.43,3.84-1.37,5.35,.07,1.59,.46,4.32,2.39,4.74,.06,.01,.09-.06,.04-.1-.81-.56-1.43-1.11-1.72-2.09-.29-.94-.33-1.97-.38-2.94-.08-1.67,.21-3.4,1.23-4.77,.09-.12-.08-.26-.19-.19h0Z"/><path class="x" d="M15.74,10.96c-.57,.86-.74,1.88-.72,2.9,.01,.67-.03,1.75,.63,2.13,.07,.04,.18-.03,.15-.12-.55-1.63-.4-3.2,.1-4.84,.03-.11-.11-.16-.17-.07h0Z"/></g></g><path class="o" d="M15.18,8.77c-.25,1.23,.37,2.49,.2,3.73-.1,.68-.43,1.3-.76,1.91-.28,.52-.73,.83-1.11,1.28-.06,.06-.12,.15-.09,.23,.01,.04,.05,.08,.08,.11,.25,.2,.6,.21,.87,.37,.38,.21,.56,.66,.71,1.08,.19,.51,.37,1.03,.49,1.57,.09,.43,.14,.87,.26,1.29,.04,.15,.09,.31,.19,.43,.12,.15,.29,.25,.47,.32,1.02,.39,2.17-.09,3.02-.76,1.59-1.25,2.59-3.24,2.64-5.27,0-.25,0-.51-.05-.76-.07-.39-.23-.75-.41-1.1-.12-.24-.25-.48-.41-.71-.3-.43-.67-.79-1.05-1.15-.52-.49-1.04-.99-1.56-1.48-.32-.3-.64-.61-1.01-.84-.51-.32-1.12-.49-1.73-.48-.23,0-.7,.01-.75,.24Z"/><path class="ac" d="M17.01,17.97c-.16,0-.56,.16-.72,.16-.36,.01-.52-.03-.88,0-.15,.01-.28,0-.42-.06-.14-.06-.24-.22-.19-.37,.03-.08,.1-.13,.18-.17,.28-.12,.6-.02,.89,.1,.17,.06,.33,.13,.5,.19,.22,.08,.41,.19,.64,.15Z"/><path class="ac" d="M16.45,18.51c-.34,.44-.51,.49-.93,.52-.34,.02-.75-.33-.49-.61,.08-.09,.2-.12,.31-.16,.54-.17,1.1-.26,1.66-.26-.21,.1-.4,.32-.55,.51Z"/><path class="x" d="M19.88,18.86c.38,.46,.75,.55,1.19,.47,.14-.03,.26-.08,.39-.14,.19-.09,.76-.36,.63-1.38-.11-.8-.97-1.02-1.48-.92-.61,.12-.83,.61-.9,.82-.06,.16-.08,.33-.06,.5,.04,.35,.18,.59,.24,.66Z"/><path class="p" d="M21.53,18.35c.15-.21,.09-.57-.1-.75-.19-.19-.48-.24-.73-.18-.15,.04-.29,.12-.37,.24-.06,.1-.08,.23-.08,.35,0,.17,.06,.29,.16,.43,.23,.3,.56,.29,.82,.18,.14-.06,.21-.15,.3-.27Z"/><path class="l" d="M19.66,14.38c-.68,.4-1.43,.81-2.2,.7-.53-.07-1.57-.62-1.63-.66,.14-.23,.46-.41,.71-.51,.28-.11,.78-.28,1.32-.27,.19,0,.61,.05,.79,.11,.18,.06,.34,.17,.5,.28,.17,.12,.34,.23,.51,.35Z"/><path class="p" d="M19.27,15.32c-.27,.04-.51,.24-.59,.5-.08,.26,0,.57,.23,.73,.13,.09,.3,.13,.46,.14,.13,0,.26,0,.37-.05,.26-.1,.44-.38,.42-.66-.02-.28-.28-.75-.89-.66Z"/><path class="x" d="M18.35,14.16c-.12-.26-.3-.44-.75-.32-.18,.05-.31,.25-.31,.44,0,.31,.27,.62,.57,.59,.42-.04,.63-.44,.49-.71Z"/><path class="ac" d="M21.51,8.33c-.18-.26-.36-.52-.53-.78-.06-.08-.12-.17-.15-.26-.03-.1-.04-.2-.04-.3-.03-.65-.02-2.16,.1-2.18,.14-.02,1.38,1.46,1.71,2.16,.33,.71,.35,1.61-.12,2.23-.43-.11-.71-.5-.96-.87Z"/><path class="ac" d="M23.58,6.14c.18-.39,.35-.87,.53-1.27,.02-.04,.07-.04,.09-.02,.61,.68,1.13,1.54,1.51,2.36,.05,.1,.09,.21,.11,.32,.02,.19-.07,.37-.14,.55-.29,.67-.73,1.72-.87,2.44-.29-.03-.26-.71-.43-.88-.33-.32-.68-1.06-.88-1.47-.27-.55-.38-.51-.24-1.08,.06-.24,.22-.74,.33-.96Z"/><path class="ac" d="M26.96,9.82c.11,.29,.33,.87,.56,1.17,.03,.04,.1,.03,.12-.03,.17-.7,.1-1.6,.1-2.29,0-.97-.09-2.79-.45-3.75-.02-.04-.08-.05-.1-.01-.37,.5-.68,1.43-.91,2.12-.04,.12-.12,.32-.13,.44,0,.09,.02,.19,.04,.28,.21,.77,.49,1.33,.77,2.08Z"/><path class="p" d="M19.46,.98c.02-.09,.1-.12,.17-.07,.2,.14,.69,.56,.9,.75,.03,.03,.06,.05,.07,.09,0,.03,0,.06,0,.08-.06,.35-.15,.7-.26,1.04-.02,.04-.07,.06-.11,.04-.3-.17-.45-.33-.75-.54-.13-.09-.22-.18-.22-.22,.03-.23,.11-.71,.2-1.16Z"/><path class="p" d="M23.71,.6c.04-.08,.13-.09,.18-.02,.15,.2,.51,.73,.66,.97,.02,.03,.04,.07,.04,.11,0,.03-.01,.05-.02,.08-.15,.32-.33,.63-.54,.92-.03,.04-.08,.04-.11,0-.24-.25-.34-.45-.57-.73-.1-.12-.17-.23-.15-.28,.1-.21,.29-.65,.51-1.06Z"/><path class="p" d="M27.59,.84c.06-.07,.15-.06,.18,.03,.09,.23,.29,.84,.37,1.11,.01,.04,.02,.08,.01,.12,0,.03-.03,.05-.05,.07-.23,.27-.49,.52-.77,.74-.04,.03-.09,.02-.11-.02-.16-.3-.21-.52-.35-.86-.06-.14-.1-.27-.07-.31,.15-.18,.46-.54,.78-.88Z"/><path class="x" d="M16,14.42c.41-.29,.91-.45,1.4-.51,.38-.04,.85,.09,1.16-.17,.05-.04,.06-.13,.02-.19-.26-.44-1-.31-1.41-.22-.57,.12-.98,.49-1.31,.96-.05,.08,.05,.19,.13,.13h0Z"/><path class="p" d="M26.1,11.66c-.39-1.33-1.37-2.44-2.4-3.38-1.01-.93-2.44-1.67-4.17-1.98-.36-.1-.73-.17-1.1-.19-.7-.03-1.39,.18-1.96,.59-2.04,1.48-1.33,2.89-1.2,3.18,.56,1.24,1.35,2.38,2.32,3.35,.32,.31,.65,.61,1.02,.86,1.14,.76,2.56,1.01,3.94,.89,.01,.03,.02,.06,.03,.1,.42,1.51,.51,2.31,.48,3.27-.06,2.12-.35,2.73-.04,3.12,.3,.38,1.24-.46,1.64-1.07,.3-.46,.86-1.23,1.09-1.73,.85-1.84,1.09-4.39,.33-7.01Z"/><path class="x" d="M19.84,2.76v.02c-.01,.11,.07,.26,.17,.31h.02c.15,.08,.31,.07,.43-.05,.11-.11,.14-.29,.05-.43-.02-.04-.05-.07-.08-.1-.08-.09-.22-.12-.34-.09-.16,.05-.24,.18-.26,.34h0Z"/><path class="x" d="M23.93,3.03c.22,0,.4-.18,.4-.4s-.18-.4-.4-.4-.4,.18-.4,.4,.18,.4,.4,.4h0Z"/><path class="x" d="M27.31,3.17c.49,0,.49-.76,0-.76s-.49,.76,0,.76h0Z"/><g class="v"><path class="x" d="M15.32,7.72c-.36,.62,0,1.38,.23,1.98,.39,1.03,.91,1.91,1.62,2.75,1.17,1.38,2.94,3.85,4.97,3.87,.09,0,.12-.12,.04-.16-.76-.44-1.49-.78-2.16-1.36-.67-.57-1.22-1.27-1.81-1.91-.7-.76-1.37-1.5-1.85-2.42-.35-.68-1.01-1.93-1-2.74,0-.02-.03-.03-.04-.01h0Z"/><path class="x" d="M15.55,6.7c-.27,1.06,.43,2.32,.87,3.26,.33,.71,.91,1.31,1.42,1.9,.6,.7,1.21,1.42,1.88,2.05,.73,.69,2.02,1.25,2.5,2.16,.08,.16,.34,.08,.33-.09-.02-.6-.75-.99-1.17-1.32-.84-.65-1.6-1.32-2.32-2.1-1.54-1.67-3.19-3.47-3.43-5.86,0-.04-.06-.05-.07,0h0Z"/><path class="x" d="M15.95,6.42c-.14,1.11,.39,2.08,.97,2.99,.78,1.22,1.72,2.39,2.75,3.4,.94,.92,2.12,1.51,3.06,2.41,.68,.65,.83,1.54,.63,2.42-.16,.71-.81,.99-1.1,1.62-.03,.06,.03,.15,.11,.11,1.8-1.2,1.95-3.51,.18-4.84-2.76-2.08-5.66-4.58-6.48-8.12-.02-.08-.12-.05-.13,.02h0Z"/><path class="x" d="M22,15.53c-.02,.29,.2,.54,.34,.78,.28,.46,.12,.79-.06,1.27-.06,.15,.03,.39,.18,.46,.03,.01,.06,.03,.1,.04,.22,.07,.42-.08,.5-.28,.18-.51,.3-1.03,.06-1.53-.16-.34-.57-.86-.98-.87-.08,0-.14,.07-.14,.14h0Z"/><path class="x" d="M16.54,6.02c-.31,1.05,.58,2.08,1.04,2.95,.74,1.4,2,2.29,3.06,3.44,1.1,1.19,2.54,1.91,3.4,3.35,1.1,1.83-.57,3.03-1.51,4.34-.11,.15,.11,.28,.24,.18,.84-.66,1.94-1.79,2-2.93,.07-1.34-.61-2.26-1.5-3.18-.57-.59-1.21-1.07-1.85-1.58-.72-.57-1.36-1.31-2.02-1.96-1.29-1.28-2.09-2.95-2.76-4.62-.02-.05-.09-.06-.11,0h0Z"/><path class="x" d="M17.29,5.74c.13,1.37,.99,2.55,1.74,3.67,.89,1.34,2.14,2.17,3.32,3.21,1.48,1.3,2.71,2.77,2.62,4.84-.08,1.86-1.64,2.62-2.61,3.96-.14,.19,.15,.37,.3,.23,.98-.86,1.98-2.01,2.43-3.24,.55-1.51,.05-3.12-.88-4.36-1.01-1.34-2.49-2.13-3.58-3.37-.66-.75-1.26-1.51-1.78-2.37-.53-.85-.91-1.79-1.43-2.62-.04-.05-.14-.04-.13,.04h0Z"/><path class="x" d="M18.16,5.73c.35,1.38,1.37,2.68,2.1,3.89,.73,1.22,2.19,2.04,3.2,3.02,1.35,1.3,2.62,3.4,2.31,5.32-.3,1.87-1.96,2.89-3.16,4.12-.16,.16,.05,.45,.25,.32,1.21-.76,2.51-2.09,3.08-3.42,.72-1.71,.22-3.09-.65-4.62-.85-1.48-2.25-2.48-3.45-3.64-1.47-1.43-2.47-3.3-3.53-5.05-.04-.07-.15-.03-.13,.05h0Z"/><path class="x" d="M19.25,6.04c.64,1.9,2.29,3.64,3.58,5.14,.66,.77,1.58,1.29,2.25,2.05,.98,1.1,1.38,2.35,1.51,3.8,0,.08,.12,.08,.13,0,.22-2.12-.96-3.79-2.5-5.1-.92-.78-1.63-1.68-2.38-2.61-.86-1.05-1.77-2.19-2.53-3.32-.02-.03-.08-.01-.07,.03h0Z"/><path class="x" d="M19.94,5.7c.29,.37,.46,.81,.73,1.2,.27,.38,.6,.72,.87,1.11,.48,.69,1,1.39,1.54,2.04,.66,.8,1.35,1.58,2.11,2.3,.31,.29,.63,.54,.91,.87,.5,.58,.68,1.23,.96,1.91,.04,.09,.17,.08,.17-.02,.01-1.83-2.07-3.38-3.16-4.61-1.39-1.58-2.57-3.38-4.09-4.85-.03-.03-.08,.02-.05,.05h0Z"/><path class="x" d="M21.55,6.48c.8,1.28,1.72,2.3,2.73,3.4,.51,.55,1.04,1.07,1.58,1.6,.74,.73,1.02,1.45,1.36,2.38,.04,.11,.2,.12,.23,0,.34-1.45-1.42-2.74-2.31-3.6-1.25-1.21-2.31-2.59-3.51-3.85-.05-.05-.13,.01-.09,.07h0Z"/></g><path class="p" d="M23.61,7.31v.03c0,.37,.31,.68,.68,.68s.68-.31,.68-.68v-.03c0-.37-.31-.68-.68-.68s-.68,.31-.68,.68h0Z"/><path class="p" d="M27.02,7.93c.3,0,.55-.25,.55-.55s-.25-.55-.55-.55-.55,.25-.55,.55,.25,.55,.55,.55h0Z"/><path class="p" d="M22.7,5.46h.02s-.06,.02-.09,.04c-.02,0-.02,0,0,0,.09-.01,.18-.05,.2-.15,.03-.1-.03-.24-.15-.26-.14-.02-.28,.03-.31,.19-.03,.19,.17,.31,.32,.19h0Z"/><path class="p" d="M22.82,5.96s-.03,0-.04-.01c-.22-.13-.37,.25-.13,.31,.05,.01,.09,.02,.15,0,.16-.06,.16-.26,0-.32-.05-.02-.09-.02-.15,0-.24,.06-.09,.44,.13,.31,.01,0,.02-.01,.04-.01,.13-.04,.13-.23,0-.27h0Z"/><path class="p" d="M25.58,5.28c.23,0,.23-.36,0-.36s-.23,.36,0,.36h0Z"/><path class="p" d="M25.63,5.75l.02,.02c.14,.12,.33-.07,.2-.2l-.02-.02c-.12-.14-.35,.08-.21,.21h0Z"/><path class="p" d="M26.04,9.54s.01,0,.02,0c-.04-.03-.08-.06-.11-.09h0c.06,.12,.22,.14,.31,.05,.08-.09,.07-.25-.04-.31-.06-.03-.11-.04-.18-.02-.08,.02-.13,.1-.13,.18,0,.09,.06,.15,.13,.18h0Z"/><path class="p" d="M26.31,10.35c.27,0,.27-.42,0-.42s-.27,.42,0,.42h0Z"/><path class="p" d="M26.41,11.16c.24,0,.24-.37,0-.37s-.24,.37,0,.37h0Z"/><path class="p" d="M26.45,11.61v.03c-.05,.1,.05,.21,.15,.21s.2-.11,.16-.21v-.03c-.07-.15-.25-.15-.31,0h0Z"/><path class="p" d="M26.52,12.22c0,.06,.01,.11,.06,.15,.11,.1,.31-.03,.21-.16v.05c.06-.2-.25-.25-.27-.04h0Z"/><path class="p" d="M26.7,13.02s.06,.06,.11,.08c.14,.05,.2-.15,.09-.22h-.02s-.09-.04-.12-.01h-.02s-.08,.11-.04,.16h0Z"/><path class="p" d="M26.89,13.81c.15,0,.15-.23,0-.23s-.15,.23,0,.23h0Z"/><path class="p" d="M13.7,19.15c.02,.16,.07,.31,.12,.47,.02,.07,.07,.31,.2,.26,.3-.12-.05-.61-.11-.79-.05-.13-.23-.08-.21,.06h0Z"/><path class="p" d="M12.92,20.09c-.04,.25-.13,.52-.09,.77,.02,.15,.25,.13,.28,0,.06-.24,0-.51-.03-.75-.01-.08-.15-.12-.16-.02h0Z"/><path class="p" d="M14.1,20.84c.08,.07,.16,.13,.24,.2,.07,.05,.14,.11,.23,.1,.03,0,.07-.03,.07-.07-.02-.18-.24-.3-.36-.41-.12-.11-.29,.07-.17,.17h0Z"/><path class="p" d="M14.89,20.23c.12,0,.23,.03,.35,.07,.07,.02,.2,0,.2-.09,0-.25-.42-.24-.58-.21-.13,.02-.1,.23,.03,.23h0Z"/><path class="p" d="M15.7,21.33c-.01,.15,0,.29,.03,.44,.02,.15,.04,.3,.1,.43,.07,.14,.29,.1,.32-.04,.08-.29-.16-.57-.21-.86-.02-.14-.23-.1-.24,.03h0Z"/><path class="p" d="M14.71,22.16c-.12,.22-.34,.57-.2,.81,.06,.11,.2,.09,.27,0,.07-.09,.08-.22,.1-.33,.02-.13,.06-.25,.1-.38,.05-.15-.18-.25-.26-.11h0Z"/><path class="p" d="M13.09,21.92c-.09,.12-.18,.25-.27,.37-.08,.1-.2,.21-.14,.35,.01,.03,.03,.05,.07,.05,.14,0,.22-.14,.29-.24,.09-.14,.18-.27,.26-.41,.08-.13-.12-.24-.2-.12h0Z"/><path class="p" d="M11.78,21.59c-.05,.09-.1,.19-.14,.29-.04,.09-.08,.18-.07,.28,0,.04,.06,.04,.08,.02,.06-.06,.09-.14,.12-.22,.04-.1,.09-.19,.14-.29,.05-.09-.08-.16-.13-.08h0Z"/><path class="p" d="M11.71,23.3c.13,.13,.22,.3,.33,.44,.09,.12,.21,.29,.38,.28,.04,0,.08-.03,.08-.08,0-.16-.16-.29-.25-.4-.12-.15-.27-.28-.42-.39-.09-.07-.2,.08-.12,.16h0Z"/><path class="p" d="M11.85,24.93c.14,.15,.22,.36,.43,.42,.04,.01,.09-.02,.09-.06-.02-.21-.18-.39-.33-.54-.12-.12-.3,.06-.19,.19h0Z"/><path class="p" d="M13.71,23.97c.04,.13,.07,.27,.09,.4,.02,.11,0,.26,.12,.31,.04,.02,.07,.01,.1-.01,.1-.08,.06-.22,.04-.32-.02-.15-.06-.3-.11-.45-.05-.15-.29-.09-.25,.07h0Z"/><path class="p" d="M15.45,23.58c.05,.21,.13,.53,.35,.62,.04,.02,.1-.03,.09-.07,0-.11-.06-.19-.1-.29-.05-.1-.08-.21-.11-.33-.04-.15-.27-.09-.23,.06h0Z"/><path class="p" d="M16.45,22.93c.06,.07,.12,.13,.18,.19,.06,.06,.11,.08,.19,.08,.03,0,.06-.03,.06-.06,0-.08-.02-.12-.09-.19-.06-.06-.12-.12-.18-.19-.1-.12-.27,.05-.17,.17h0Z"/><path class="p" d="M16.9,24.29c0,.18-.04,.34-.08,.51-.02,.12-.03,.26,.09,.32,.02,.01,.05,.01,.07,0,.11-.07,.11-.22,.12-.34,.02-.18,.04-.34,.01-.52-.02-.12-.22-.09-.22,.03h0Z"/><path class="p" d="M14.97,25.15c-.01,.21,0,.48,.09,.67,.02,.04,.08,.04,.11,0,.12-.2,.02-.46,.03-.67,0-.15-.22-.15-.23,0h0Z"/><path class="p" d="M13.48,25.96c.09,0,.19,0,.28,0,.09,0,.2,.04,.28,0,.04-.02,.06-.05,.04-.1-.09-.18-.44-.11-.6-.1-.13,0-.13,.21,0,.21h0Z"/><path class="p" d="M12.44,26.5c0,.09,.02,.17,.03,.26,0,.08,0,.17,.07,.23,.02,.02,.05,.03,.08,0,.14-.11,.05-.35,.04-.5,0-.14-.23-.14-.22,0h0Z"/><path class="p" d="M13.86,27.62c.11-.02,.22,.02,.32,.06,.1,.04,.19,.05,.3,.06,.05,0,.06-.06,.04-.09-.09-.1-.17-.16-.31-.2-.13-.04-.27-.06-.4-.01-.12,.04-.07,.21,.05,.18h0Z"/><path class="p" d="M15.39,26.93c.08,.09,.17,.17,.26,.25,.09,.08,.17,.17,.28,.23,.11,.07,.21-.06,.17-.17-.05-.11-.15-.19-.25-.26-.1-.08-.22-.15-.32-.23-.11-.08-.22,.09-.14,.18h0Z"/><path class="p" d="M16.7,26.26c.08,.04,.16,.08,.24,.12,.08,.05,.16,.11,.25,.13,.14,.02,.22-.12,.13-.23-.12-.14-.38-.17-.55-.2-.11-.02-.18,.13-.08,.18h0Z"/><path class="p" d="M15.12,28.56c.13,.04,.25,.04,.38,.01,.1-.02,.27-.08,.25-.21-.01-.13-.17-.12-.26-.09-.12,.04-.25,.07-.37,.09-.11,.02-.09,.17,0,.2h0Z"/><path class="p" d="M22.16,16.97c.09,.16,.26,.44,.48,.38,.04,0,.05-.05,.04-.09-.04-.09-.12-.12-.2-.17-.08-.05-.17-.12-.23-.19-.04-.05-.11,.01-.08,.06h0Z"/><path class="p" d="M22.46,18.32c-.07,.08-.14,.18-.19,.27-.06,.1-.11,.2-.08,.32,0,.04,.05,.05,.08,.03,.09-.05,.12-.13,.16-.22,.05-.11,.11-.21,.17-.3,.06-.08-.08-.19-.14-.11h0Z"/><path class="p" d="M21.49,19.81c.06,.15,.04,.36,.17,.47,.04,.03,.09,.01,.09-.04,0-.09-.02-.16-.04-.25-.02-.08-.04-.16-.07-.24-.04-.08-.17-.02-.14,.06h0Z"/><path class="p" d="M22.37,19.79c-.06,.14-.1,.29-.17,.43-.02,.03,.02,.07,.05,.05,.15-.1,.16-.26,.23-.42,.03-.08-.08-.14-.12-.07h0Z"/><path class="p" d="M21.69,21.49c.13-.04,.29,0,.39-.09,.02-.02,.02-.05,0-.06-.1-.12-.31-.06-.44-.03-.12,.03-.07,.21,.05,.18h0Z"/><path class="p" d="M25.92,28.46c.13-.04,.29,0,.39-.09,.02-.02,.02-.05,0-.06-.1-.12-.31-.06-.44-.03-.12,.03-.07,.21,.05,.18h0Z"/><path class="p" d="M25.48,27.33c.13-.04,.29,0,.39-.09,.02-.02,.01-.05,0-.06-.1-.12-.31-.06-.44-.03-.12,.03-.07,.21,.05,.18h0Z"/><path class="p" d="M26.7,24.95c.04,.12,.03,.29,.12,.38,.02,.02,.05,0,.06,0,.11-.11,.03-.32-.01-.44-.04-.11-.22-.05-.18,.07h0Z"/><path class="p" d="M22.89,26.4c.13-.04,.29,0,.39-.09,.02-.02,.01-.05,0-.06-.1-.12-.31-.06-.44-.03-.12,.03-.07,.21,.05,.18h0Z"/><path class="p" d="M20.8,21.21c-.04,.18-.12,.53,.06,.66,.03,.02,.07,0,.08-.02,.04-.08,.02-.15,.02-.24,0-.12,0-.23,.02-.35,.02-.12-.16-.17-.19-.05h0Z"/><path class="p" d="M22.36,21.03s.02,.02,.03,.03c.01,.01,.03,0,.02-.02,0,0-.02-.02-.03-.03-.01-.02-.04,0-.02,.02h0Z"/><path class="p" d="M22.68,22.07c.02,.1,.06,.2,.11,.29,.04,.07,.09,.16,.18,.16,.03,0,.05-.02,.06-.04,.03-.06-.01-.13-.05-.19-.05-.09-.08-.18-.1-.28-.02-.13-.23-.08-.21,.06h0Z"/><path class="p" d="M21.78,22.55c-.01,.16,0,.37,.15,.46,.03,.02,.07,0,.08-.03,.02-.14-.02-.28,0-.43,.01-.14-.2-.14-.22,0h0Z"/><path class="p" d="M20.89,23.29c.03,.16,.07,.31,.16,.44,.01,.02,.05,.03,.06,0,.07-.17,0-.32-.03-.49-.02-.12-.21-.07-.19,.05h0Z"/><path class="p" d="M22.05,24.29c.16,0,.32,0,.48,0,.12,0,.25-.02,.32-.12,.02-.03,0-.09-.03-.1-.11-.05-.23,0-.35,0-.14,.02-.29,.02-.43,.02-.13,0-.13,.2,0,.2h0Z"/><path class="p" d="M22.99,27.73c.16,0,.32,0,.48,0,.12,0,.25-.02,.32-.12,.02-.03,0-.09-.03-.11-.12-.05-.23,0-.35,0-.14,.02-.29,.02-.43,.02-.13,0-.13,.2,0,.2h0Z"/><path class="p" d="M23.37,23.41c.1,.02,.21,.05,.3,.09,.1,.04,.18,.11,.28,.14,.1,.04,.16-.08,.13-.16-.1-.22-.48-.23-.69-.23-.1,0-.12,.15-.02,.17h0Z"/><path class="p" d="M23.4,24.85c-.12,.15-.23,.43-.18,.62,.03,.11,.18,.1,.21,0,.03-.08,.02-.17,.04-.25,.02-.1,.05-.19,.11-.27,.07-.11-.1-.2-.17-.1h0Z"/><path class="p" d="M21.72,25.31s-.02,.02-.03,.03c0,0,0,.02,0,0,.01,0,.02-.02,.03-.03,0,0,0-.02,0-.01h0Z"/><path class="p" d="M21.29,25.73c.14-.03,.26-.09,.39-.16,.11-.06,.29-.11,.33-.24,0-.03,0-.06-.03-.08-.12-.07-.24,.02-.34,.07-.14,.08-.27,.19-.4,.28-.06,.04-.02,.14,.05,.12h0Z"/><path class="p" d="M21.79,26.92c.01,.18,.05,.4,.19,.52,.04,.03,.08,0,.09-.04,.02-.17-.07-.32-.08-.48,0-.13-.21-.13-.2,0h0Z"/><path class="p" d="M24.35,22.38c.12-.06,.26-.08,.39-.12,.11-.03,.25-.05,.31-.15,.02-.03,0-.08-.04-.09-.12-.04-.26,.04-.37,.08-.12,.04-.25,.11-.35,.19-.05,.04,0,.12,.05,.1h0Z"/><path class="p" d="M25.03,21.08c.08,.1,.16,.2,.24,.3,.04,.05,.08,.09,.12,.13,.05,.04,.11,.05,.16,.07,.03,.01,.08-.03,.06-.06-.02-.05-.02-.09-.05-.14-.04-.06-.09-.11-.14-.15-.09-.09-.18-.18-.27-.27-.08-.08-.2,.04-.12,.12h0Z"/><path class="p" d="M25.72,22.46c.02,.15,.03,.33,.13,.45,.03,.04,.07,.04,.1,0,.09-.14,0-.29,0-.45-.01-.14-.24-.14-.22,0h0Z"/><path class="p" d="M24.85,23.73c.08,.16,.11,.39,.29,.46,.03,0,.07-.01,.07-.04,.04-.18-.1-.37-.2-.51-.07-.11-.23-.01-.17,.1h0Z"/><path class="p" d="M25.96,24.31c.16,0,.32,.02,.48,0,.13-.02,.11-.2,0-.23-.18-.05-.36,.04-.51,.13-.05,.03-.03,.11,.03,.11h0Z"/><path class="p" d="M26.04,26.15c.16,0,.32,.01,.48,0,.12-.02,.11-.2,0-.23-.18-.05-.36,.04-.51,.13-.05,.03-.03,.11,.03,.11h0Z"/><path class="p" d="M26.87,27.65c.04-.15,.11-.31,.12-.46,.02-.13-.16-.16-.22-.07-.1,.15-.06,.36-.01,.53,.02,.05,.1,.06,.11,0h0Z"/><path class="p" d="M25.17,24.81c.08,.11,.14,.23,.24,.32,.09,.09,.24-.03,.17-.13-.07-.12-.16-.22-.27-.3-.08-.06-.21,.02-.14,.11h0Z"/><path class="p" d="M24.27,26.35c.08,.11,.14,.23,.24,.33,.09,.09,.24-.03,.17-.13-.07-.12-.16-.22-.27-.3-.08-.06-.21,.02-.15,.11h0Z"/><path class="p" d="M25.61,20.35c.11,0,.22,0,.33,0,.09,0,.2,0,.26-.08,0-.02,0-.04,0-.05-.05-.08-.13-.08-.21-.08-.13,0-.25,0-.38,0-.14,0-.14,.21,0,.21h0Z"/><path class="p" d="M24.07,28.6c.11,0,.22,0,.33,0,.09,0,.2,0,.25-.08,0-.02,0-.04,0-.05-.05-.07-.13-.08-.21-.08-.13,0-.25,0-.38,0-.14,0-.14,.21,0,.21h0Z"/><path class="p" d="M26.62,18.55c-.03,.21,.07,.73,.34,.74,.04,0,.08-.03,.08-.06,.03-.12-.07-.26-.12-.37-.05-.12-.11-.27-.23-.34-.03-.02-.07,0-.08,.03h0Z"/><path class="p" d="M27.19,20.24c.09,.14,.23,.34,.39,.39,.03,0,.06-.02,.05-.05-.03-.08-.07-.12-.13-.17-.08-.07-.15-.15-.21-.23-.04-.06-.14,0-.1,.06h0Z"/><path class="p" d="M26.82,21.57c.07,.08,.15,.14,.23,.21,.08,.07,.15,.15,.24,.2,.03,.02,.06,0,.06-.04,.02-.22-.25-.38-.38-.52-.09-.1-.24,.05-.15,.15h0Z"/><path class="p" d="M27.66,18.6c.14,.02,.28,.06,.41,.1,.07,.02,.23,.1,.26-.02,.03-.13-.18-.17-.26-.18-.15-.02-.27,.02-.41,.05-.03,0-.02,.05,0,.05h0Z"/><path class="p" d="M26.86,17.67c.18,0,.39,.05,.54-.06,.03-.03,.03-.09,0-.12-.15-.12-.36-.07-.54-.06-.16,0-.16,.24,0,.25h0Z"/><path class="p" d="M28.27,19.88c.17,.02,.48,.04,.54-.16,0-.02,0-.06-.03-.07-.08-.04-.15-.02-.23,0-.1,.03-.21,.05-.31,.07-.1,.02-.06,.15,.02,.16h0Z"/><path class="p" d="M29.36,20.28c0,.09-.02,.18-.03,.27,0,.09-.03,.16-.02,.25,0,.04,.04,.07,.08,.05,.2-.11,.13-.4,.1-.58-.01-.08-.12-.05-.13,.02h0Z"/><path class="p" d="M28.35,21.17c-.01,.1,0,.19,0,.28,.01,.1,.01,.22,.05,.32,.01,.04,.04,.08,.09,.09,.33,.05,.08-.56,.08-.69,0-.14-.2-.14-.22,0h0Z"/><path class="p" d="M26.59,23.58c.1,.04,.2,.07,.3,.12,.08,.04,.19,.13,.28,.11,.02,0,.04-.02,.04-.04,.05-.24-.44-.27-.59-.29-.07,0-.1,.08-.03,.11h0Z"/><path class="p" d="M28.5,22.75c.13,0,.26,.04,.39,.06,.09,.02,.2,.07,.28,.02,.03-.02,.03-.04,.02-.07-.05-.1-.2-.1-.3-.12-.13-.02-.26-.02-.39-.01-.08,0-.08,.12,0,.13h0Z"/><path class="p" d="M29.71,21.9c.02,.1,.04,.2,.06,.3,.02,.08,.03,.17,.11,.21,.02,0,.05,0,.06,0,.06-.07,.04-.13,.02-.21-.03-.11-.07-.22-.12-.32-.04-.09-.16-.06-.14,.04h0Z"/><path class="p" d="M28.61,24.11c.15-.12,.35-.17,.46-.3,.02-.03,.02-.07-.02-.08-.21-.04-.41,.14-.54,.29-.06,.07,.03,.16,.1,.1h0Z"/><path class="p" d="M29.77,23.38c.08-.02,.43-.02,.37-.18-.07-.18-.33-.06-.44,0-.1,.05-.03,.21,.08,.18h0Z"/><path class="x" d="M18.1,23.97c.26,0,.26-.4,0-.4s-.26,.4,0,.4h0Z"/><path class="x" d="M18.61,24.1c.26,0,.26-.41,0-.41s-.26,.41,0,.41h0Z"/><path class="x" d="M19.16,24.22c.29,0,.29-.46,0-.46s-.29,.46,0,.46h0Z"/><path class="x" d="M19.77,24.16c.21,0,.21-.32,0-.32s-.21,.32,0,.32h0Z"/><path class="x" d="M18.36,25.38c.25,0,.25-.39,0-.39s-.25,.39,0,.39h0Z"/><path class="x" d="M18.9,25.43c.28,0,.28-.44,0-.44s-.28,.44,0,.44h0Z"/><path class="x" d="M19.45,25.41c.25,0,.25-.39,0-.39s-.25,.39,0,.39h0Z"/><path class="x" d="M19.99,25.43c.27,0,.27-.42,0-.42s-.27,.42,0,.42h0Z"/><path class="x" d="M17.62,22.62c.22,0,.22-.34,0-.34s-.22,.34,0,.34h0Z"/><path class="x" d="M18.16,22.66c.23,0,.23-.35,0-.35s-.23,.35,0,.35h0Z"/><path class="x" d="M18.65,22.7c.23,0,.23-.36,0-.36s-.23,.36,0,.36h0Z"/><path class="x" d="M19.19,22.74c.28,0,.28-.43,0-.43s-.28,.43,0,.43h0Z"/><path class="x" d="M14.52,16.33c.28,0,.28-.43,0-.43s-.28,.43,0,.43h0Z"/><path class="x" d="M19.78,22.65c.24,0,.24-.38,0-.38s-.24,.38,0,.38h0Z"/><path class="x" d="M17.3,28.53c.21,0,.21-.33,0-.33s-.21,.33,0,.33h0Z"/><path class="x" d="M17.97,28.6c.22,0,.22-.34,0-.34s-.22,.34,0,.34h0Z"/><path class="x" d="M18.61,28.6c.22,0,.22-.35,0-.35s-.22,.35,0,.35h0Z"/><path class="x" d="M19.29,28.56c.22,0,.22-.34,0-.34s-.22,.34,0,.34h0Z"/><path class="x" d="M19.87,28.57c.27,0,.27-.42,0-.42s-.27,.42,0,.42h0Z"/><path class="x" d="M20.51,28.6c.26,0,.26-.41,0-.41s-.26,.41,0,.41h0Z"/><path class="x" d="M21.15,28.55c.2,0,.2-.32,0-.32s-.2,.32,0,.32h0Z"/><path class="x" d="M21.63,28.47c.19,0,.19-.29,0-.29s-.19,.29,0,.29h0Z"/><g><path class="aa" d="M32.65,26.18c-.3,.47-.9,.45-1.42,.45-.72,0-1.52,0-2.06-.5-.31-.28-.48-.68-.66-1.05-.83-1.77-2.01-3.45-2.15-5.4,0-.1,0-.21,.05-.3,.25,.22,.57,.38,.88,.53,.25,.12,.55,.02,.69-.22,.21-.39,.43-.77,.64-1.16,.42,.37,.84,.72,1.27,1.08,.14,.11,.34,.1,.47-.02,.43-.4,.89-.78,1.39-1.11,.3,.47,.61,.94,.91,1.41,.03,.05,.07,.11,.13,.13,.07,.02,.14,0,.21-.04,.47-.23,.95-.47,1.42-.7l.17,1.37c.02,.12,.13,.2,.26,.17,.44-.11,.98-.18,1.38-.07-.28,.74-1,1.65-1.5,2.26-.43,.51-1.7,2.56-2.08,3.16Z"/><path class="o" d="M27.57,26.82c-.1,.16-.03,.38,.11,.52,.14,.13,.33,.19,.51,.24,.42,.12,.84,.25,1.26,.38,.28,.08,.39,.41,.22,.65-.06,.08-.11,.17-.14,.26-.12,.34,.09,.73,.4,.9,.31,.17,.7,.15,1.04,.04,.52-.18,.95-.57,1.26-1.02,.31-.45,.52-.97,.71-1.48,.27-.72,.5-1.55,.17-2.24-.33-.69-1.27-1.04-2-1.27-.71-.22-1.23-.38-2.09-.23-.15,.03-.28,.16-.28,.31,0,.15,.2,.26,.26,.28,.76,.22,1.41,.37,1.84,.55,.08,.03,.04,.15-.04,.13-.7-.13-1.69-.26-2.49-.34-.22-.02-.43,.14-.41,.38,0,.13,.13,.29,.26,.33,.54,.16,1.27,.33,1.91,.54,.33,.11,.55,.12,.52,.26-.02,.1-.24,.04-.6-.04-.57-.13-1.2-.29-1.72-.34-.26-.03-.54-.03-.64,.27-.14,.39,1.12,.65,2.12,.89,.21,.05,.44,.07,.42,.15-.04,.14-.34,.04-.56,0-.53-.11-1.03-.25-1.66-.27-.17,0-.29,.04-.38,.19Z"/><path class="x" d="M28.58,23.87c.05,.12,.2,.17,.31,.21,.19,.07,.37,.12,.54,0,.09-.06,.12-.22,.06-.31-.07-.12-.16-.18-.3-.19-.11-.01-.21,0-.32,0-.14,.02-.37,.11-.31,.29h0Z"/><path class="x" d="M27.77,24.98c.22,.15,.51,.3,.78,.19,.2-.09,.22-.34,.1-.5-.16-.2-.54-.27-.77-.21-.24,.06-.31,.36-.1,.51h0Z"/><path class="x" d="M27.44,25.93c.09,.29,.54,.39,.79,.27,.11-.05,.16-.2,.1-.31-.1-.2-.27-.25-.47-.28-.17-.03-.49,.09-.43,.32h0Z"/><path class="x" d="M27.33,26.97c.04,.31,.51,.39,.75,.37,.25-.02,.32-.42,.11-.53-.18-.1-.36-.11-.55-.09-.15,.01-.32,.08-.3,.26h0Z"/><path class="x" d="M32.93,24.94c-.04,.08-.18,.3-.04,.35,.15,.05,.17-.21,.18-.29,.01-.08-.11-.12-.15-.05h0Z"/><path class="x" d="M32.69,25.99c-.14-.05-.28,.16-.32,.27-.05,.15,.14,.29,.26,.18,.08-.07,.12-.17,.14-.27,0-.06-.01-.15-.08-.17h0Z"/><path class="x" d="M32.09,27.09c-.06,0-.11,.05-.14,.1-.04,.06-.1,.1-.14,.17-.08,.13,.05,.28,.19,.22,.11-.05,.17-.14,.21-.25,.03-.08,0-.25-.13-.23h0Z"/><path class="x" d="M31.3,28.07c-.07,.05-.13,.11-.18,.17-.12,.13,.07,.29,.18,.16,.05-.06,.1-.11,.16-.15,.11-.1-.04-.27-.15-.18h0Z"/><path class="p" d="M27.3,20.53s-.04-.04-.05-.06c-.12-.16-.38-.13-.49,.03-.04,.06-.06,.12-.07,.2-.01,.13,.08,.29,.22,.32h.01c.22,.06,.46-.11,.41-.36h0c-.03-.1-.04-.12-.01-.05-.03,.1-.07,.2-.1,.29h.02s-.09,.03-.13,.05c.02,0,.04,0,.05,0,.19-.02,.27-.29,.14-.42h0Z"/><path class="p" d="M29,20.47c.14-.09,.24-.2,.25-.38,.02-.29-.25-.52-.53-.46-.24,.05-.4,.29-.35,.53,.05,.26,.39,.47,.63,.31h0Z"/><path class="p" d="M29,21.12h-.01c-.19-.08-.39,.08-.4,.26-.01,.19,.14,.35,.34,.35,.3,0,.42-.36,.18-.54,.08,.06,0,0-.04-.03,.12,.09-.05-.03-.07-.04h0Z"/><path class="p" d="M29.05,22.35s0,0-.01,.01c-.13,.13-.07,.36,.12,.37,.21,.01,.29-.26,.13-.38h-.02c-.06-.06-.17-.05-.22,0h0Z"/><path class="p" d="M27.35,21.88c.18,.06,.27-.21,.09-.27-.18-.06-.27,.21-.09,.27h0Z"/><path class="p" d="M27.57,22.59s0,.06,0,.08c.04,.14,.27,.15,.27-.02h0c.08-.21-.28-.28-.28-.06h0Z"/><path class="p" d="M31.25,20.27c.24,.08,.51-.05,.6-.29,.08-.24-.05-.51-.29-.6-.24-.08-.51,.05-.6,.29-.08,.24,.05,.51,.29,.6h0Z"/><path class="p" d="M31.13,21.42c.16,.05,.35-.04,.4-.2,.05-.16-.03-.35-.2-.4-.16-.06-.35,.03-.4,.2-.05,.16,.04,.35,.2,.4h0Z"/><path class="p" d="M31.13,22.41h0c-.05,0-.1,.01-.16,.03h.02c.11,.03,.21-.04,.19-.16,0,.03,0,.02,0-.04,0-.04-.04-.09-.08-.12-.08-.06-.2-.04-.26,.05-.12,.17,.12,.4,.27,.24h0Z"/><path class="p" d="M33.93,20.6c-.03-.11-.09-.2-.21-.23-.17-.05-.36,.04-.41,.22-.04,.16,.02,.34,.19,.39,.16,.05,.34-.03,.39-.19,.02-.07,.03-.13,.02-.21,0,.05,0,.1-.01,.15-.02,.03-.04,.06-.06,.09,.06-.05,.1-.15,.08-.22h0Z"/><path class="p" d="M33.17,21.8c.25,.08,.38-.3,.13-.38-.25-.08-.38,.3-.13,.38h0Z"/><path class="p" d="M32.75,22.66s.06,.04,.09,.05c.18,.07,.3-.13,.25-.28-.03-.07-.08-.12-.15-.13-.23-.06-.36,.21-.18,.36h0Z"/><path class="p" d="M35.22,21.42s-.01,0-.02,0c-.21,.11-.19,.43,.03,.5,.23,.08,.44-.16,.33-.38v-.02c-.07-.12-.22-.18-.34-.11h0Z"/><path class="p" d="M34.67,22.78c.24,.08,.37-.29,.13-.37-.24-.08-.37,.29-.13,.37h0Z"/><path class="p" d="M34.17,23.51s.02,0,.03,0c.19,0,.27-.23,.12-.34l-.03-.02c-.1-.07-.26-.02-.3,.1-.04,.12,.05,.25,.17,.26h0Z"/><g class="ab"><path class="x" d="M27.53,19.16c-.18,1.23,.27,2.75,.87,3.83,.04,.07,.15,.04,.14-.05-.15-1.28-.86-2.48-.88-3.77,0-.08-.11-.09-.12,0h0Z"/><path class="x" d="M29.81,18.16c-.18,.68-.14,1.34-.08,2.03,.08,.9,.11,1.84,.34,2.71,.02,.09,.13,.07,.15-.01,.29-1.53-.55-3.13-.19-4.65,.04-.15-.18-.22-.22-.08h0Z"/><path class="x" d="M32.99,18.16c-.37,1.71-1,3.38-1.23,5.12,0,.05,.08,.09,.11,.04,.38-.71,.53-1.54,.7-2.33,.21-.93,.46-1.85,.61-2.79,.02-.11-.17-.15-.19-.04h0Z"/><path class="x" d="M35.37,19.67c-.84,1.31-2.14,2.53-2.64,4.04-.03,.09,.07,.14,.14,.09,.68-.47,1.11-1.25,1.5-1.96,.38-.7,.9-1.34,1.16-2.09,.03-.09-.1-.16-.15-.07h0Z"/></g></g><path class="ac" d="M19.9,32.29c.27,0,.5-.23,.5-.5s-.23-.5-.5-.5-.5,.23-.5,.5,.23,.5,.5,.5h0Z"/><path class="aa" d="M19.74,30.71s.02,0,.02,0c-.04-.02-.07-.04-.11-.06h.01c.16,.15,.44,.07,.44-.17s-.27-.32-.44-.18h-.01s.07-.03,.11-.05c0,0-.01,0-.02,0-.22,.07-.22,.38,0,.45h0Z"/><path class="aa" d="M18.29,32.19c.16,0,.29-.13,.29-.29s-.13-.29-.29-.29-.29,.13-.29,.29,.13,.29,.29,.29h0Z"/><path class="aa" d="M21.36,32.02c.22,0,.22-.34,0-.34s-.22,.34,0,.34h0Z"/><path class="aa" d="M19.96,33.22v.02c-.11,.2,.01,.44,.25,.44s.36-.25,.26-.44c0,0,0-.01,0-.02-.1-.18-.39-.18-.49,0h0Z"/><path class="aa" d="M14.77,46.94c-.59,.23-1.05,.74-1.33,1.31-.28,.57-.4,1.21-.48,1.84-.32,2.46-.07,4.95,.17,7.41,.07,.66,.13,1.33,.41,1.94,.03,.06,.06,.12,.12,.14,.12,.05,.23-.07,.3-.17,.41-.6,.83-1.25,1.4-1.7,.06-.05,.15-.03,.19,.03,.42,.65,.8,1.5,1.31,2.07,.03,.04,.07,.07,.12,.08,.08,0,.14-.07,.18-.14,.41-.74,.75-1.33,1.18-2.03,.04-.06,.12-.09,.18-.06,.55,.26,1.6,1.54,2.18,1.95,.06,.04,.14,0,.14-.07,.02-.67-.12-2.66-.14-3.34-.02-.55,0-1.1-.04-1.65-.11-1.36-.58-2.68-1.26-3.87-.55-.97-1.24-1.85-1.95-2.71-.31-.38-.64-.76-1.07-.99-.43-.23-1.13-.21-1.59-.03Z"/><g><path class="p" d="M15.98,34.72c1.1,0,2.19-.36,3.14-.92,.95-.56,1.71-1.48,2.47-2.28,.13,.46,.53,1.02,.91,1.31,.39,.29,.83,.48,1.27,.67,.4,.17,.79,.35,1.19,.52,.61,.27,1.36,.25,1.75,.79,.12,.17,.17,.38,.22,.58,.59,2.44,1.17,5.09,.13,7.37,1.58,.28,3.26-.4,4.31-1.61,1.06-1.21,1.51-2.88,1.35-4.48-.07-.73-.26-1.45-.58-2.1-.35-.71-.85-1.35-1.41-1.91-1.47-1.48-3.4-2.5-5.45-2.89-1.06-.21-2.15-.24-3.24-.27-2.39-.06-4.85-.05-7.08,.8-.72,.28-1.41,.64-2.09,1-.55,.29-1.11,.59-1.52,1.04-.33,.37-.56,.81-.76,1.26-.53,1.14-.99,2.32-1.36,3.52-.23,.72-.43,1.47-.42,2.23,.02,1.36,.75,2.65,1.81,3.5,1.06,.84,2.44,1.24,3.79,1.25,.62,0,1.33-.13,1.63-.67,.12-.21,.16-.45,.18-.69,.11-1.33-.33-2.65-.48-3.98-.15-1.33-.17-2.78,.23-4.06Z"/><g class="n"><path class="aa" d="M33.55,37.93c-1.37,.66-2.69,1.49-4.18,1.83-.99,.23-2.54,.28-2.95,1.4-.07,.2,.08,.39,.26,.45,1.04,.36,2.72-.29,3.7-.65,1.35-.5,2.41-1.54,3.61-2.28,.48-.3,.06-.99-.44-.75h0Z"/><path class="aa" d="M33.72,33.91c-.31,.8-1.97,1.35-2.66,1.79-1.06,.67-2.32,1.3-3.1,2.31-.15,.2,.05,.52,.29,.5,1.58-.13,2.91-1.42,4.18-2.27,.76-.51,1.83-1.16,2.02-2.13,.09-.48-.55-.65-.73-.2h0Z"/><path class="aa" d="M31.27,31.52c-.8,.92-2.08,1.56-3.05,2.3-.87,.67-2.12,1.35-2.6,2.38-.13,.29,.08,.6,.41,.53,1.2-.27,2.31-1.38,3.26-2.12,.95-.75,1.93-1.6,2.53-2.67,.19-.34-.28-.73-.55-.42h0Z"/><path class="aa" d="M28.99,29.49c-.82,.82-1.66,1.61-2.49,2.41-.81,.77-2.03,1.43-2.59,2.41-.16,.28,.04,.62,.36,.62,1.19,.04,2.2-1.05,2.98-1.82,.94-.93,1.65-2.07,2.23-3.25,.15-.31-.23-.64-.49-.38h0Z"/><path class="aa" d="M21.46,33.68c-.43-.37-.66-.89-.98-1.36-.47-.69-1.04-1.31-1.51-2-.43-.63-.78-1.31-1.14-1.98-.32-.6-.55-1.23-1.28-1.35-.17-.03-.4,0-.48,.2-.27,.62-.1,1.04,.24,1.61,.48,.82,.98,1.63,1.56,2.38,.52,.67,1.1,1.26,1.69,1.86,.46,.47,.77,1.01,1.33,1.38,.45,.3,.98-.39,.57-.74h0Z"/><path class="aa" d="M19.4,34.77c-.49-.29-.81-.76-1.2-1.16-.58-.6-1.25-1.1-1.84-1.7-.53-.54-1-1.15-1.47-1.75-.42-.54-.76-1.12-1.5-1.1-.18,0-.39,.08-.44,.28-.16,.65,.09,1.04,.52,1.54,.62,.72,1.25,1.43,1.95,2.07,.63,.56,1.31,1.04,1.99,1.53,.53,.38,.94,.86,1.56,1.12,.49,.21,.89-.56,.43-.83h0Z"/><path class="aa" d="M17,36.07c-.49-.29-.81-.76-1.2-1.16-.58-.6-1.25-1.1-1.84-1.69-.54-.54-1.01-1.15-1.47-1.75-.42-.54-.76-1.12-1.5-1.1-.18,0-.39,.08-.44,.28-.16,.65,.09,1.04,.52,1.54,.62,.72,1.25,1.43,1.96,2.06,.63,.56,1.31,1.04,1.99,1.53,.54,.38,.94,.86,1.56,1.12,.49,.21,.89-.56,.43-.83h0Z"/><path class="aa" d="M12.91,40.52c-1.36-.11-2.64-.54-3.91-1.04-.92-.36-2.17-1.1-3.18-.78-.19,.06-.32,.3-.2,.48,.59,.9,2.07,1.19,3.05,1.46,1.38,.37,2.8,.62,4.23,.6,.47,0,.46-.68,0-.72h0Z"/><path class="aa" d="M26.96,28.74c-1.82,1.52-3.91,2.86-5.28,4.85-.17,.25,.11,.52,.36,.47,1.06-.22,1.92-1.1,2.63-1.86,.92-.99,1.93-1.89,2.8-2.94,.31-.37-.16-.82-.52-.52h0Z"/></g></g><path class="p" d="M24.32,37.58c-.14,.48-.38,.94-.7,1.32-.67-.6-1.66-.77-2.55-.6-.89,.17-1.69,.63-2.42,1.16-.12-.28-.24-.55-.35-.83-.02-.05-.04-.1-.03-.15s.04-.09,.08-.13c.72-.78,1.79-1.2,2.85-1.28,1.06-.08,2.13,.15,3.13,.51Z"/><path class="ac" d="M29.58,41.83c.34-.54,.48-1.19,.55-1.82,.16-1.32,.08-2.69-.44-3.9-.53-1.22-1.54-2.26-2.81-2.62-.37-.11-.77-.15-1.15-.09-.36,.06-.69,.22-1.02,.38-.49,.24-.98,.52-1.32,.94-.6,.75-.58,1.82-.38,2.75,.21,.94,.58,1.84,.63,2.8,.03,.68-.11,1.36-.16,2.05-.04,.68,.03,1.41,.42,1.97,.24,.34,.59,.59,.99,.71,.18,.05,.37,.08,.55,.05,.13-.03,.26-.09,.38-.16,1.13-.6,2.16-1.36,3.07-2.26,.25-.25,.5-.51,.68-.81Z"/><path class="ac" d="M20.01,35.94c-.15-.43-.3-.87-.55-1.24-.37-.53-.93-.9-1.53-1.16-1.37-.61-3.04-.72-4.35,.04-1.16,.67-1.87,1.91-2.38,3.14-.43,1.03-.77,2.13-.7,3.25,.07,1.12,.46,2.2,1,3.19,1.07,1.95,3.09,3.01,3.96,3.89,.35,.35,.6,.8,.9,1.19,.7,.89,1.63,1.59,2.68,2,.41,.16,.86,.29,1.29,.18,.43-.11,.81-.51,.75-.95-.04-.33-.3-.58-.52-.83-.67-.76-1.08-1.75-1.13-2.76-.1-2.09,1.26-4.01,1.36-6.1,.07-1.31-.37-2.6-.79-3.84Z"/><g><path class="p" d="M25.54,42.72c-.57-.46-1.43-.51-2.05-.14-.11,.06-.21,.14-.28,.24-.12,.17-.15,.39-.18,.6-.27,2.42-.21,4.88,.17,7.28,.07,.44,.16,.89,.36,1.29,.2,.4,.99,.78,1.42,.91,1.08-.71,1.52-1.73,1.86-2.98s.16-2.75-.02-4.03c-.09-.62-.21-1.24-.42-1.83-.18-.51-.43-1.01-.85-1.34Z"/><g class="y"><path class="x" d="M25.29,52.16c1.52-.94,1.43-3.84,1.37-5.34-.07-1.59-.46-4.32-2.39-4.74-.06-.01-.09,.06-.04,.09,.82,.56,1.43,1.11,1.72,2.09,.29,.93,.33,1.97,.38,2.94,.08,1.67-.21,3.4-1.24,4.77-.08,.12,.08,.26,.19,.19h0Z"/><path class="x" d="M25.18,51.31c.57-.86,.74-1.88,.72-2.9-.02-.67,.03-1.75-.63-2.13-.07-.04-.18,.03-.15,.11,.55,1.63,.4,3.2-.1,4.84-.03,.1,.11,.16,.17,.07h0Z"/></g></g><path class="o" d="M25.75,53.5c.25-1.23-.37-2.49-.2-3.73,.1-.68,.43-1.3,.76-1.91,.28-.52,.73-.83,1.12-1.28,.05-.07,.11-.15,.09-.23-.01-.04-.05-.08-.08-.1-.25-.2-.6-.21-.87-.37-.38-.22-.56-.66-.71-1.08-.19-.52-.37-1.03-.49-1.57-.09-.43-.14-.87-.26-1.29-.04-.15-.09-.31-.19-.43-.12-.15-.29-.25-.47-.32-1.02-.39-2.17,.09-3.02,.76-1.59,1.26-2.59,3.24-2.64,5.27,0,.25,0,.51,.05,.76,.07,.39,.23,.75,.41,1.1,.12,.24,.25,.48,.41,.71,.29,.43,.67,.79,1.05,1.15,.52,.5,1.04,.99,1.56,1.48,.32,.3,.64,.61,1.01,.84,.51,.32,1.12,.49,1.73,.48,.23,0,.7,0,.75-.23Z"/><path class="ac" d="M23.91,44.3c.16,0,.56-.15,.72-.16,.36-.01,.52,.03,.88,0,.15-.01,.28,0,.42,.06,.14,.06,.24,.22,.19,.36-.03,.08-.1,.13-.18,.17-.28,.12-.6,.02-.89-.09-.17-.06-.33-.13-.5-.19-.22-.08-.41-.19-.64-.15Z"/><path class="ac" d="M24.48,43.77c.34-.44,.52-.49,.93-.52,.34-.02,.74,.33,.49,.61-.08,.09-.2,.12-.31,.16-.54,.17-1.1,.26-1.66,.26,.21-.1,.4-.32,.55-.51Z"/><path class="x" d="M21.04,43.41c-.38-.46-.75-.55-1.19-.47-.14,.03-.26,.08-.39,.14-.19,.09-.76,.36-.63,1.38,.11,.81,.97,1.02,1.48,.92,.61-.12,.83-.61,.9-.82,.06-.16,.08-.33,.06-.5-.04-.35-.18-.59-.24-.66Z"/><path class="p" d="M19.39,43.93c-.15,.21-.09,.57,.1,.76,.19,.19,.48,.24,.73,.18,.15-.04,.29-.12,.37-.24,.06-.1,.08-.23,.08-.35,0-.17-.06-.29-.16-.43-.23-.3-.56-.29-.82-.18-.14,.06-.21,.15-.3,.27Z"/><path class="l" d="M21.26,47.89c.68-.4,1.43-.81,2.2-.7,.53,.08,1.57,.62,1.63,.66-.14,.23-.46,.41-.71,.51-.28,.1-.78,.28-1.32,.26-.19,0-.61-.05-.79-.11-.18-.06-.34-.17-.5-.27-.17-.12-.34-.23-.51-.35Z"/><path class="p" d="M21.66,46.95c.27-.04,.51-.24,.59-.5,.08-.26,0-.57-.22-.73-.13-.09-.3-.13-.46-.14-.13,0-.25,0-.37,.05-.26,.1-.44,.38-.42,.66,.02,.28,.28,.75,.89,.66Z"/><path class="x" d="M22.58,48.11c.12,.26,.3,.44,.75,.32,.18-.05,.31-.25,.31-.44,0-.31-.27-.62-.57-.59-.42,.04-.63,.44-.49,.71Z"/><path class="ac" d="M19.42,53.95c.18,.26,.36,.52,.53,.78,.06,.08,.12,.17,.15,.27,.03,.1,.04,.2,.04,.3,.03,.65,.02,2.16-.1,2.18-.14,.02-1.38-1.46-1.71-2.16-.33-.71-.35-1.6,.12-2.22,.43,.11,.71,.5,.96,.87Z"/><path class="ac" d="M17.35,56.13c-.18,.39-.35,.87-.53,1.27-.02,.04-.07,.04-.09,.01-.61-.68-1.13-1.54-1.51-2.36-.05-.1-.09-.21-.11-.32-.02-.19,.06-.38,.14-.55,.29-.67,.73-1.72,.87-2.44,.29,.03,.26,.71,.43,.88,.33,.32,.68,1.06,.88,1.47,.27,.55,.38,.51,.24,1.08-.06,.24-.22,.74-.33,.96Z"/><path class="ac" d="M13.96,52.45c-.11-.29-.33-.87-.56-1.16-.03-.04-.1-.03-.12,.03-.17,.7-.1,1.6-.1,2.29,0,.97,.09,2.79,.45,3.75,.02,.04,.08,.05,.1,.01,.37-.5,.68-1.43,.91-2.12,.04-.12,.12-.32,.13-.44,0-.09-.02-.19-.04-.28-.21-.77-.49-1.34-.77-2.08Z"/><path class="p" d="M21.46,61.29c-.02,.09-.1,.12-.17,.07-.2-.14-.69-.56-.9-.75-.03-.03-.06-.06-.07-.1,0-.03,0-.06,0-.08,.06-.35,.15-.7,.27-1.04,.01-.04,.07-.06,.11-.04,.3,.17,.45,.34,.75,.54,.13,.09,.22,.18,.22,.22-.03,.23-.1,.71-.2,1.16Z"/><path class="p" d="M17.21,61.68c-.04,.08-.13,.09-.18,.02-.15-.19-.51-.73-.66-.97-.02-.04-.04-.07-.04-.11,0-.03,.01-.05,.03-.08,.15-.32,.33-.63,.54-.92,.03-.04,.08-.04,.11,0,.24,.24,.34,.45,.57,.73,.1,.12,.16,.23,.15,.28-.09,.21-.3,.65-.51,1.06Z"/><path class="p" d="M13.33,61.44c-.06,.06-.15,.05-.18-.03-.09-.23-.29-.84-.37-1.11-.01-.04-.02-.08,0-.12,0-.03,.03-.05,.04-.07,.24-.27,.5-.52,.77-.74,.03-.03,.09-.02,.11,.02,.16,.3,.2,.52,.35,.86,.06,.14,.1,.27,.07,.3-.15,.18-.46,.54-.78,.88Z"/><path class="x" d="M24.93,47.85c-.41,.29-.91,.45-1.4,.51-.38,.04-.85-.09-1.16,.17-.05,.04-.06,.13-.02,.19,.26,.44,.99,.31,1.41,.22,.57-.12,.98-.49,1.3-.96,.05-.08-.05-.19-.13-.13h0Z"/><path class="p" d="M14.83,50.61c.39,1.33,1.37,2.44,2.39,3.38,1.01,.93,2.44,1.67,4.16,1.98,.36,.1,.73,.17,1.1,.19,.7,.03,1.39-.18,1.96-.59,2.04-1.48,1.33-2.89,1.2-3.18-.56-1.24-1.35-2.38-2.32-3.35-.32-.31-.65-.61-1.02-.86-1.14-.76-2.56-1.01-3.94-.89-.01-.03-.02-.06-.03-.1-.42-1.51-.51-2.3-.48-3.27,.06-2.12,.35-2.73,.04-3.12-.3-.38-1.24,.46-1.64,1.07-.3,.46-.86,1.23-1.09,1.73-.84,1.84-1.09,4.39-.33,7.01Z"/><path class="x" d="M21.09,59.51s0-.01,0-.02c.01-.11-.08-.26-.18-.31h-.02c-.15-.08-.31-.07-.43,.05-.11,.11-.14,.29-.06,.43,.02,.04,.05,.07,.08,.1,.08,.09,.22,.12,.34,.09,.16-.04,.24-.18,.26-.34h0Z"/><path class="x" d="M17,59.25c-.22,0-.4,.18-.4,.4s.18,.4,.4,.4,.4-.18,.4-.4-.18-.4-.4-.4h0Z"/><path class="x" d="M13.62,59.1c-.49,0-.49,.76,0,.76s.49-.76,0-.76h0Z"/><g class="w"><path class="x" d="M25.61,54.55c.36-.62,0-1.38-.24-1.98-.39-1.03-.91-1.91-1.62-2.75-1.17-1.38-2.94-3.85-4.97-3.87-.09,0-.12,.12-.04,.16,.76,.44,1.49,.78,2.16,1.36,.67,.56,1.22,1.27,1.81,1.91,.7,.76,1.37,1.5,1.85,2.42,.35,.68,1,1.93,1,2.74,0,.02,.03,.03,.04,.01h0Z"/><path class="x" d="M25.38,55.58c.27-1.05-.43-2.32-.87-3.26-.33-.71-.92-1.31-1.42-1.9-.6-.7-1.21-1.42-1.88-2.05-.72-.69-2.02-1.25-2.5-2.16-.08-.16-.34-.08-.33,.09,.02,.6,.75,.99,1.17,1.32,.84,.65,1.6,1.32,2.32,2.1,1.54,1.67,3.19,3.47,3.43,5.85,0,.04,.06,.05,.07,0h0Z"/><path class="x" d="M24.98,55.86c.14-1.11-.39-2.08-.97-2.99-.78-1.22-1.72-2.39-2.75-3.4-.93-.92-2.12-1.51-3.06-2.41-.68-.65-.83-1.54-.63-2.42,.16-.71,.81-.99,1.1-1.62,.03-.06-.04-.15-.11-.11-1.8,1.2-1.95,3.51-.18,4.85,2.76,2.08,5.66,4.58,6.48,8.12,.02,.08,.12,.05,.12-.02h0Z"/><path class="x" d="M18.93,46.75c.02-.29-.2-.55-.34-.78-.28-.46-.12-.79,.06-1.27,.06-.16-.03-.39-.19-.46-.03-.01-.06-.03-.1-.04-.22-.08-.42,.08-.5,.28-.18,.51-.31,1.03-.06,1.53,.16,.34,.57,.86,.98,.87,.08,0,.14-.07,.14-.14h0Z"/><path class="x" d="M24.39,56.26c.31-1.05-.58-2.08-1.04-2.95-.74-1.4-2-2.29-3.06-3.44-1.1-1.19-2.54-1.91-3.4-3.35-1.1-1.83,.57-3.03,1.51-4.34,.11-.15-.12-.28-.24-.18-.85,.66-1.94,1.79-2,2.93-.07,1.34,.61,2.26,1.5,3.18,.57,.59,1.21,1.07,1.85,1.58,.72,.57,1.36,1.31,2.01,1.96,1.29,1.28,2.09,2.95,2.76,4.62,.02,.05,.09,.06,.11,0h0Z"/><path class="x" d="M23.63,56.53c-.13-1.37-.99-2.55-1.74-3.67-.89-1.34-2.14-2.17-3.32-3.21-1.48-1.3-2.71-2.77-2.62-4.84,.08-1.86,1.64-2.62,2.61-3.96,.14-.19-.15-.37-.3-.23-.98,.86-1.98,2.01-2.43,3.24-.56,1.51-.05,3.12,.88,4.36,1.01,1.34,2.49,2.13,3.58,3.37,.66,.75,1.26,1.52,1.78,2.37,.53,.85,.91,1.79,1.43,2.62,.03,.05,.14,.04,.13-.04h0Z"/><path class="x" d="M22.77,56.54c-.35-1.38-1.37-2.68-2.1-3.89-.74-1.22-2.19-2.04-3.2-3.02-1.34-1.3-2.62-3.4-2.31-5.32,.3-1.87,1.96-2.89,3.16-4.12,.16-.17-.05-.45-.25-.32-1.21,.76-2.51,2.09-3.07,3.42-.72,1.71-.22,3.09,.65,4.62,.85,1.48,2.25,2.48,3.45,3.65,1.47,1.43,2.47,3.3,3.53,5.05,.04,.07,.15,.02,.13-.05h0Z"/><path class="x" d="M21.67,56.23c-.64-1.9-2.29-3.64-3.58-5.14-.66-.77-1.58-1.29-2.25-2.05-.98-1.1-1.38-2.35-1.51-3.8,0-.08-.12-.08-.13,0-.22,2.12,.96,3.79,2.5,5.1,.92,.78,1.63,1.68,2.38,2.61,.86,1.05,1.77,2.19,2.53,3.32,.02,.03,.08,.01,.06-.03h0Z"/><path class="x" d="M20.99,56.57c-.29-.37-.46-.81-.73-1.2-.27-.38-.6-.72-.87-1.11-.48-.69-1-1.39-1.54-2.04-.67-.8-1.35-1.58-2.11-2.3-.31-.3-.63-.54-.91-.87-.49-.58-.68-1.23-.96-1.91-.03-.09-.17-.08-.17,.02-.01,1.83,2.07,3.38,3.16,4.61,1.39,1.58,2.57,3.38,4.09,4.85,.03,.03,.08-.01,.05-.05h0Z"/><path class="x" d="M19.38,55.79c-.8-1.28-1.72-2.3-2.73-3.4-.51-.55-1.04-1.07-1.58-1.6-.74-.73-1.02-1.45-1.36-2.38-.04-.11-.2-.12-.23,0-.34,1.45,1.41,2.74,2.31,3.6,1.25,1.21,2.31,2.59,3.51,3.85,.04,.05,.13-.02,.09-.07h0Z"/></g><path class="p" d="M17.32,54.96v-.03c0-.37-.31-.68-.68-.68s-.68,.31-.68,.68v.03c0,.37,.31,.68,.68,.68s.68-.31,.68-.68h0Z"/><path class="p" d="M13.91,54.35c-.3,0-.55,.25-.55,.55s.25,.55,.55,.55,.55-.25,.55-.55-.25-.55-.55-.55h0Z"/><path class="p" d="M18.23,56.81h-.02s.06-.02,.09-.04c.03,0,.02,0,0,0-.09,.01-.17,.05-.2,.15-.03,.1,.03,.24,.15,.26,.14,.02,.28-.03,.31-.19,.03-.19-.17-.31-.32-.19h0Z"/><path class="p" d="M18.11,56.31s.03,0,.04,.02c.22,.13,.37-.25,.13-.31-.05-.01-.1-.02-.15,0-.16,.06-.16,.27,0,.32,.05,.02,.09,.02,.15,0,.24-.06,.09-.44-.13-.31-.01,0-.02,.01-.04,.01-.13,.04-.13,.23,0,.26h0Z"/><path class="p" d="M15.35,56.99c-.23,0-.23,.36,0,.36s.24-.36,0-.36h0Z"/><path class="p" d="M15.29,56.52l-.02-.02c-.14-.12-.33,.06-.21,.21,0,0,.01,.01,.02,.02,.13,.14,.35-.08,.21-.21h0Z"/><path class="p" d="M14.89,52.73s-.01,0-.02,0c.04,.03,.08,.06,.11,.09h0c-.06-.13-.22-.14-.31-.05-.08,.09-.07,.25,.04,.31,.06,.03,.11,.04,.18,.02,.08-.02,.13-.1,.13-.18,0-.09-.06-.14-.13-.18h0Z"/><path class="p" d="M14.61,51.93c-.27,0-.27,.42,0,.42s.27-.42,0-.42h0Z"/><path class="p" d="M14.52,51.12c-.24,0-.24,.37,0,.37s.24-.37,0-.37h0Z"/><path class="p" d="M14.47,50.67v-.03c.05-.1-.05-.21-.15-.21s-.2,.11-.16,.21v.03c.07,.15,.25,.15,.31,0h0Z"/><path class="p" d="M14.4,50.05c0-.06-.01-.11-.06-.15-.11-.1-.31,.03-.21,.16,0-.02,0-.03,0-.05-.06,.19,.25,.25,.28,.04h0Z"/><path class="p" d="M14.22,49.26s-.06-.06-.11-.08c-.14-.05-.2,.15-.09,.22h.02s.09,.04,.12,.01h.02s.08-.11,.04-.16h0Z"/><path class="p" d="M14.04,48.46c-.15,0-.15,.23,0,.23s.15-.23,0-.23h0Z"/><path class="p" d="M27.23,43.12c-.03-.16-.07-.31-.12-.47-.02-.07-.07-.31-.2-.26-.3,.12,.05,.61,.11,.79,.05,.13,.23,.08,.21-.06h0Z"/><path class="p" d="M28.01,42.18c.04-.25,.13-.52,.09-.77-.02-.15-.25-.13-.28,0-.06,.24,0,.51,.03,.75,.01,.08,.15,.12,.16,.02h0Z"/><path class="p" d="M26.83,41.43c-.08-.07-.16-.13-.24-.2-.07-.06-.14-.11-.23-.1-.03,0-.07,.03-.07,.07,.01,.18,.24,.3,.36,.41,.12,.11,.29-.07,.17-.17h0Z"/><path class="p" d="M26.04,42.04c-.12,0-.23-.03-.35-.07-.07-.02-.2,0-.2,.09,0,.25,.42,.23,.58,.21,.13-.02,.1-.23-.03-.23h0Z"/><path class="p" d="M25.23,40.94c0-.15,0-.29-.03-.44-.02-.14-.04-.29-.1-.43-.07-.14-.29-.1-.32,.04-.08,.3,.16,.57,.21,.86,.02,.14,.23,.1,.24-.03h0Z"/><path class="p" d="M26.22,40.11c.12-.22,.34-.57,.2-.82-.06-.11-.2-.09-.27,0-.07,.09-.08,.22-.1,.33-.02,.13-.06,.25-.1,.38-.05,.15,.18,.25,.26,.11h0Z"/><path class="p" d="M27.83,40.36c.09-.12,.18-.25,.27-.37,.08-.1,.2-.21,.14-.35-.01-.03-.03-.05-.07-.05-.15,0-.22,.14-.29,.24-.09,.13-.18,.27-.26,.41-.08,.13,.12,.24,.2,.12h0Z"/><path class="p" d="M29.15,40.69c.05-.09,.1-.19,.14-.29,.04-.09,.08-.18,.07-.28,0-.04-.05-.04-.08-.02-.06,.06-.09,.14-.12,.22-.04,.1-.09,.19-.14,.29-.05,.09,.08,.16,.13,.08h0Z"/><path class="p" d="M29.22,38.97c-.13-.13-.22-.29-.33-.44-.09-.12-.21-.29-.38-.28-.04,0-.08,.03-.08,.08,0,.16,.16,.29,.26,.4,.12,.15,.27,.28,.42,.39,.09,.07,.19-.08,.12-.16h0Z"/><path class="p" d="M29.08,37.35c-.14-.15-.22-.36-.43-.42-.04-.01-.09,.02-.09,.07,.02,.21,.18,.39,.33,.54,.12,.12,.3-.06,.19-.19h0Z"/><path class="p" d="M27.22,38.31c-.04-.13-.07-.27-.09-.4-.02-.11,0-.26-.12-.31-.04-.02-.07-.01-.1,.01-.1,.08-.06,.22-.04,.32,.02,.15,.06,.3,.11,.44,.05,.16,.29,.09,.25-.07h0Z"/><path class="p" d="M25.48,38.69c-.05-.21-.13-.53-.35-.62-.04-.02-.1,.03-.1,.07,0,.11,.06,.19,.1,.28,.05,.1,.08,.21,.11,.32,.04,.15,.27,.09,.23-.06h0Z"/><path class="p" d="M24.48,39.35c-.06-.06-.12-.13-.18-.19-.06-.06-.11-.08-.2-.08-.03,0-.06,.03-.06,.06,0,.08,.02,.12,.09,.19,.06,.06,.12,.12,.18,.19,.1,.12,.27-.05,.17-.17h0Z"/><path class="p" d="M24.03,37.99c0-.18,.04-.34,.08-.51,.02-.12,.03-.26-.09-.32-.02-.01-.05-.01-.07,0-.11,.07-.11,.22-.12,.34-.02,.18-.04,.34-.01,.52,.02,.13,.22,.09,.22-.03h0Z"/><path class="p" d="M25.96,37.12c.01-.21,0-.48-.09-.67-.02-.04-.08-.04-.11,0-.12,.2-.02,.46-.03,.67,0,.15,.22,.14,.23,0h0Z"/><path class="p" d="M27.45,36.31c-.09,0-.19,0-.28,0-.09,0-.2-.04-.28,0-.04,.02-.06,.06-.04,.1,.09,.18,.44,.11,.6,.1,.13,0,.13-.21,0-.21h0Z"/><path class="p" d="M28.49,35.77c0-.09-.02-.17-.03-.26,0-.08,0-.17-.07-.23-.02-.02-.05-.03-.08,0-.14,.11-.05,.35-.04,.5,0,.14,.23,.14,.22,0h0Z"/><path class="p" d="M27.07,34.66c-.11,.02-.22-.02-.32-.06-.1-.04-.19-.05-.29-.06-.05,0-.07,.05-.04,.09,.09,.1,.18,.16,.31,.2,.13,.04,.27,.06,.4,.01,.12-.04,.07-.21-.05-.18h0Z"/><path class="p" d="M25.54,35.34c-.08-.09-.17-.17-.26-.25-.09-.08-.17-.17-.28-.23-.11-.07-.21,.06-.16,.17,.05,.11,.15,.19,.25,.26,.1,.08,.21,.15,.32,.23,.11,.08,.22-.09,.14-.18h0Z"/><path class="p" d="M24.22,36.01c-.08-.04-.16-.08-.24-.12-.08-.05-.16-.11-.25-.13-.14-.02-.22,.12-.13,.23,.12,.14,.38,.17,.55,.2,.11,.02,.18-.13,.08-.18h0Z"/><path class="p" d="M25.81,33.72c-.13-.04-.25-.04-.38-.01-.1,.02-.26,.08-.25,.21,.01,.13,.17,.12,.26,.09,.12-.04,.25-.07,.37-.09,.11-.02,.09-.17,0-.2h0Z"/><path class="p" d="M18.77,45.31c-.09-.16-.26-.44-.48-.38-.04,0-.05,.05-.04,.09,.04,.09,.12,.12,.2,.17,.08,.05,.17,.12,.23,.19,.04,.05,.11-.02,.08-.07h0Z"/><path class="p" d="M18.46,43.95c.07-.09,.14-.18,.19-.28,.06-.1,.11-.2,.08-.32,0-.04-.05-.05-.08-.03-.09,.05-.13,.12-.17,.22-.05,.11-.11,.21-.17,.3-.06,.08,.08,.19,.15,.11h0Z"/><path class="p" d="M19.44,42.46c-.06-.15-.03-.36-.17-.46-.04-.03-.09-.01-.09,.04,0,.09,.02,.16,.04,.25,.02,.08,.04,.16,.07,.24,.03,.08,.17,.02,.14-.06h0Z"/><path class="p" d="M18.55,42.48c.06-.14,.1-.29,.17-.43,.02-.03-.02-.07-.05-.05-.15,.1-.16,.26-.23,.42-.04,.08,.08,.14,.11,.07h0Z"/><path class="p" d="M19.24,40.78c-.13,.03-.29,0-.39,.09-.02,.02-.01,.04,0,.06,.1,.12,.31,.06,.44,.03,.12-.03,.07-.21-.05-.18h0Z"/><path class="p" d="M15,33.81c-.13,.03-.29,0-.39,.09-.02,.02-.02,.05,0,.06,.1,.12,.31,.06,.44,.03,.12-.03,.07-.21-.05-.18h0Z"/><path class="p" d="M15.45,34.94c-.13,.04-.29,0-.39,.09-.02,.02-.01,.04,0,.06,.1,.12,.31,.06,.44,.03,.12-.03,.07-.21-.05-.18h0Z"/><path class="p" d="M14.23,37.32c-.05-.12-.03-.29-.12-.38-.02-.02-.05,0-.06,0-.11,.11-.04,.32,.01,.44,.04,.12,.22,.05,.18-.06h0Z"/><path class="p" d="M18.03,35.88c-.13,.04-.29,0-.39,.09-.02,.02-.01,.04,0,.06,.1,.12,.31,.06,.44,.03,.12-.03,.07-.21-.05-.18h0Z"/><path class="p" d="M20.13,41.06c.04-.18,.12-.53-.06-.66-.03-.02-.07,0-.08,.02-.04,.08-.02,.15-.02,.23,.01,.12,0,.23-.02,.35-.02,.12,.16,.17,.19,.05h0Z"/><path class="p" d="M18.57,41.25l-.03-.03s-.03,0-.02,.02l.03,.04s.04,0,.02-.02h0Z"/><path class="p" d="M18.25,40.2c-.02-.1-.06-.2-.11-.29-.04-.07-.09-.16-.18-.16-.03,0-.05,.02-.06,.04-.03,.07,.01,.13,.05,.19,.05,.09,.08,.18,.1,.28,.02,.13,.23,.08,.21-.06h0Z"/><path class="p" d="M19.15,39.72c.01-.16,.01-.37-.15-.46-.03-.02-.07,0-.08,.03-.03,.14,.02,.29,0,.43-.01,.14,.21,.14,.22,0h0Z"/><path class="p" d="M20.03,38.99c-.03-.16-.07-.31-.16-.44-.01-.02-.05-.03-.06,0-.07,.17,0,.32,.03,.49,.02,.12,.21,.07,.19-.05h0Z"/><path class="p" d="M18.88,37.98c-.16,0-.32,0-.48,0-.12,0-.25,.02-.32,.12-.02,.03,0,.09,.03,.1,.11,.05,.23,0,.35,0,.14-.02,.29-.02,.43-.02,.13,0,.13-.2,0-.2h0Z"/><path class="p" d="M17.94,34.54c-.16,0-.32,0-.48,0-.12,0-.25,.02-.32,.12-.02,.03,0,.09,.03,.1,.11,.06,.23,0,.35,0,.14-.02,.29-.02,.43-.02,.13,0,.13-.2,0-.2h0Z"/><path class="p" d="M17.56,38.87c-.1-.02-.2-.05-.3-.09-.1-.04-.18-.11-.28-.14-.1-.04-.16,.08-.13,.16,.1,.22,.48,.23,.69,.23,.1,0,.12-.15,.02-.17h0Z"/><path class="p" d="M17.52,37.43c.12-.15,.23-.43,.18-.62-.03-.11-.18-.1-.21,0-.03,.08-.02,.17-.04,.25-.02,.1-.05,.19-.11,.27-.07,.11,.1,.2,.17,.1h0Z"/><path class="p" d="M19.21,36.96s.02-.02,.03-.03c0,0,0-.02,0,0-.01,0-.02,.02-.03,.03,0,0,0,.02,0,0h0Z"/><path class="p" d="M19.63,36.54c-.14,.03-.26,.09-.39,.16-.11,.06-.29,.11-.33,.24-.01,.03,0,.06,.03,.08,.12,.07,.24-.02,.34-.08,.14-.08,.27-.19,.4-.28,.06-.04,.03-.14-.05-.12h0Z"/><path class="p" d="M19.14,35.36c-.01-.18-.05-.39-.19-.52-.04-.03-.08,0-.09,.04-.02,.17,.07,.32,.08,.48,0,.13,.21,.13,.2,0h0Z"/><path class="p" d="M16.58,39.9c-.12,.06-.26,.08-.39,.12-.11,.03-.25,.05-.31,.15-.02,.04,0,.08,.04,.09,.12,.03,.26-.04,.37-.08,.12-.04,.25-.11,.35-.19,.05-.04,0-.12-.06-.09h0Z"/><path class="p" d="M15.89,41.2c-.08-.1-.16-.2-.24-.3-.04-.05-.08-.09-.12-.13-.05-.04-.1-.05-.16-.07-.03,0-.08,.03-.06,.06,.02,.05,.02,.1,.05,.14,.04,.06,.09,.11,.14,.15,.09,.09,.18,.18,.27,.27,.08,.08,.2-.04,.12-.12h0Z"/><path class="p" d="M15.21,39.81c-.02-.15-.03-.32-.13-.45-.03-.03-.07-.04-.1,0-.09,.14,0,.3,0,.45,.01,.14,.24,.14,.22,0h0Z"/><path class="p" d="M16.08,38.55c-.08-.16-.11-.39-.29-.46-.03,0-.07,.01-.07,.04-.04,.18,.1,.37,.2,.52,.07,.11,.23,.01,.17-.1h0Z"/><path class="p" d="M14.97,37.96c-.16,0-.32-.01-.48,.01-.13,.02-.11,.2,0,.23,.17,.05,.36-.04,.51-.13,.05-.03,.03-.11-.03-.11h0Z"/><path class="p" d="M14.89,36.12c-.16,0-.32-.02-.48,0-.12,.02-.11,.2,0,.23,.18,.05,.36-.04,.51-.13,.05-.03,.03-.11-.03-.11h0Z"/><path class="p" d="M14.06,34.62c-.04,.15-.1,.31-.12,.46-.02,.12,.16,.16,.22,.06,.1-.15,.06-.36,.01-.52-.02-.05-.1-.06-.11,0h0Z"/><path class="p" d="M15.75,37.46c-.08-.11-.14-.23-.24-.33-.09-.09-.24,.03-.17,.13,.07,.12,.16,.22,.27,.3,.08,.06,.21-.02,.14-.11h0Z"/><path class="p" d="M16.65,35.92c-.08-.11-.14-.23-.24-.33-.09-.09-.24,.03-.17,.13,.07,.12,.16,.22,.27,.3,.08,.06,.21-.02,.14-.11h0Z"/><path class="p" d="M15.32,41.92c-.11,0-.22,0-.34,0-.09,0-.2,0-.25,.08,0,.01,0,.04,0,.05,.05,.07,.13,.08,.21,.08,.13,0,.25,0,.38,0,.14,0,.14-.21,0-.21h0Z"/><path class="p" d="M16.85,33.67c-.11,0-.22,0-.34,0-.09,0-.2,0-.25,.08,0,.02,0,.04,0,.05,.05,.07,.13,.08,.21,.08,.13,0,.25,0,.38,0,.14,0,.14-.21,0-.21h0Z"/><path class="p" d="M14.31,43.73c.03-.21-.07-.73-.34-.74-.04,0-.08,.03-.08,.06-.03,.12,.07,.26,.12,.37,.05,.12,.11,.27,.23,.34,.03,.01,.07,0,.08-.03h0Z"/><path class="p" d="M13.73,42.03c-.09-.14-.22-.34-.39-.39-.03,0-.06,.02-.05,.05,.03,.07,.07,.12,.13,.17,.08,.07,.15,.15,.21,.23,.04,.06,.14,0,.1-.06h0Z"/><path class="p" d="M14.11,40.7c-.07-.08-.15-.14-.23-.21-.08-.07-.15-.15-.24-.2-.03-.02-.06,0-.06,.03-.02,.22,.25,.38,.38,.52,.09,.1,.24-.05,.15-.15h0Z"/><path class="p" d="M13.27,43.67c-.14-.02-.28-.06-.41-.1-.07-.02-.23-.1-.26,.02-.03,.13,.18,.17,.26,.18,.15,.02,.27-.02,.41-.05,.03,0,.02-.05,0-.05h0Z"/><path class="p" d="M14.07,44.6c-.18,0-.39-.05-.54,.06-.03,.03-.03,.09,0,.12,.15,.12,.36,.07,.54,.06,.16,0,.16-.24,0-.25h0Z"/><path class="p" d="M12.66,42.39c-.16-.02-.48-.04-.54,.16,0,.03,0,.06,.03,.07,.08,.03,.15,.02,.23,0,.1-.03,.2-.05,.31-.07,.1-.02,.06-.15-.02-.16h0Z"/><path class="p" d="M11.57,42c0-.09,.02-.18,.03-.27,0-.09,.03-.16,.02-.25,0-.04-.04-.07-.08-.05-.2,.11-.13,.4-.1,.58,.01,.08,.12,.05,.13-.02h0Z"/><path class="p" d="M12.57,41.1c.01-.1,0-.19,0-.28-.01-.1-.01-.22-.04-.32-.01-.04-.05-.08-.09-.09-.33-.05-.08,.56-.08,.69,0,.14,.2,.14,.22,0h0Z"/><path class="p" d="M14.33,38.7c-.1-.04-.2-.07-.3-.12-.08-.04-.19-.13-.28-.11-.02,0-.04,.02-.04,.04-.05,.24,.44,.28,.59,.29,.07,0,.1-.08,.03-.11h0Z"/><path class="p" d="M12.43,39.53c-.13,0-.26-.04-.39-.06-.09-.02-.2-.08-.28-.02-.03,.02-.03,.05-.02,.07,.05,.1,.2,.1,.3,.12,.13,.02,.26,.02,.39,.01,.08,0,.08-.12,0-.13h0Z"/><path class="p" d="M11.22,40.37c-.02-.1-.04-.2-.06-.3-.02-.08-.03-.17-.11-.21-.02,0-.05,0-.06,0-.06,.07-.04,.13-.02,.21,.03,.11,.07,.22,.12,.32,.04,.09,.16,.06,.14-.04h0Z"/><path class="p" d="M12.32,38.16c-.14,.11-.34,.17-.46,.3-.02,.03-.02,.07,.02,.08,.21,.04,.41-.14,.54-.28,.06-.07-.03-.16-.1-.1h0Z"/><path class="p" d="M11.16,38.89c-.08,.02-.43,.02-.37,.18,.07,.18,.33,.05,.44,0,.1-.05,.03-.21-.08-.18h0Z"/><path class="x" d="M22.83,38.3c-.26,0-.26,.4,0,.4s.26-.4,0-.4h0Z"/><path class="x" d="M22.31,38.17c-.26,0-.26,.41,0,.41s.26-.41,0-.41h0Z"/><path class="x" d="M21.77,38.05c-.29,0-.29,.45,0,.45s.29-.45,0-.45h0Z"/><path class="x" d="M21.16,38.12c-.21,0-.21,.32,0,.32s.21-.32,0-.32h0Z"/><path class="x" d="M22.57,36.89c-.25,0-.25,.39,0,.39s.25-.39,0-.39h0Z"/><path class="x" d="M22.03,36.84c-.28,0-.28,.43,0,.43s.28-.43,0-.43h0Z"/><path class="x" d="M21.48,36.86c-.25,0-.25,.39,0,.39s.25-.39,0-.39h0Z"/><path class="x" d="M20.93,36.84c-.27,0-.27,.43,0,.43s.27-.43,0-.43h0Z"/><path class="x" d="M23.31,39.65c-.22,0-.22,.34,0,.34s.22-.34,0-.34h0Z"/><path class="x" d="M22.76,39.61c-.23,0-.23,.35,0,.35s.23-.35,0-.35h0Z"/><path class="x" d="M22.28,39.57c-.23,0-.23,.35,0,.35s.23-.35,0-.35h0Z"/><path class="x" d="M21.74,39.54c-.28,0-.28,.43,0,.43s.28-.43,0-.43h0Z"/><path class="x" d="M26.4,45.94c-.28,0-.28,.43,0,.43s.28-.43,0-.43h0Z"/><path class="x" d="M21.14,39.63c-.24,0-.24,.37,0,.37s.24-.37,0-.37h0Z"/><path class="x" d="M23.63,33.75c-.21,0-.21,.33,0,.33s.21-.33,0-.33h0Z"/><path class="x" d="M22.96,33.68c-.22,0-.22,.34,0,.34s.22-.34,0-.34h0Z"/><path class="x" d="M22.31,33.68c-.22,0-.22,.35,0,.35s.22-.35,0-.35h0Z"/><path class="x" d="M21.64,33.71c-.22,0-.22,.34,0,.34s.22-.34,0-.34h0Z"/><path class="x" d="M21.06,33.7c-.27,0-.27,.42,0,.42s.27-.42,0-.42h0Z"/><path class="x" d="M20.42,33.68c-.26,0-.26,.41,0,.41s.26-.41,0-.41h0Z"/><path class="x" d="M19.78,33.72c-.21,0-.21,.32,0,.32s.2-.32,0-.32h0Z"/><path class="x" d="M19.3,33.8c-.19,0-.19,.29,0,.29s.19-.29,0-.29h0Z"/><g><path class="aa" d="M8.28,36.09c.3-.47,.9-.45,1.42-.45,.72,0,1.52,0,2.06,.5,.31,.28,.48,.68,.66,1.05,.83,1.77,2.01,3.46,2.15,5.4,0,.1,0,.22-.05,.3-.25-.22-.57-.38-.88-.53-.25-.12-.56-.02-.69,.22-.21,.38-.43,.77-.64,1.16-.42-.37-.84-.73-1.27-1.08-.14-.11-.34-.11-.47,.02-.43,.4-.89,.78-1.39,1.11-.3-.47-.61-.94-.91-1.41-.03-.05-.07-.11-.13-.13-.07-.02-.14,0-.21,.04-.47,.23-.95,.47-1.42,.7l-.17-1.37c-.02-.12-.14-.2-.26-.17-.44,.12-.98,.19-1.39,.07,.28-.74,1-1.65,1.5-2.26,.42-.51,1.7-2.56,2.08-3.16Z"/><path class="o" d="M13.35,35.45c.1-.16,.03-.38-.11-.51-.14-.13-.33-.19-.51-.24-.42-.12-.84-.25-1.25-.37-.28-.08-.39-.41-.22-.65,.06-.08,.11-.16,.14-.26,.12-.34-.09-.73-.4-.9-.31-.17-.7-.15-1.04-.04-.52,.18-.95,.57-1.26,1.02-.31,.45-.52,.97-.71,1.49-.27,.72-.5,1.55-.17,2.24,.33,.69,1.27,1.04,1.99,1.27,.71,.23,1.23,.38,2.09,.23,.15-.03,.28-.16,.28-.31,0-.15-.2-.26-.26-.28-.76-.22-1.41-.37-1.84-.55-.08-.03-.04-.15,.04-.13,.71,.13,1.69,.26,2.49,.34,.22,.02,.43-.14,.41-.38-.01-.13-.13-.29-.26-.33-.54-.16-1.27-.33-1.91-.54-.33-.11-.55-.12-.52-.25,.02-.1,.24-.04,.6,.04,.57,.13,1.2,.29,1.72,.34,.26,.03,.54,.04,.64-.27,.14-.39-1.12-.65-2.12-.89-.21-.05-.44-.07-.42-.15,.03-.14,.34-.04,.56,0,.53,.11,1.03,.25,1.66,.28,.17,0,.29-.05,.38-.19Z"/><path class="x" d="M12.35,38.41c-.04-.12-.2-.17-.31-.21-.19-.07-.37-.12-.54,0-.09,.06-.12,.22-.06,.31,.07,.12,.16,.18,.29,.19,.11,0,.21,0,.32,0,.14-.02,.37-.12,.31-.29h0Z"/><path class="x" d="M13.15,37.29c-.22-.16-.51-.31-.78-.19-.2,.09-.22,.34-.1,.49,.16,.2,.54,.27,.77,.21,.24-.06,.31-.36,.1-.51h0Z"/><path class="x" d="M13.49,36.34c-.09-.29-.54-.39-.79-.27-.11,.05-.16,.2-.1,.31,.1,.2,.27,.25,.47,.29,.17,.03,.49-.09,.43-.32h0Z"/><path class="x" d="M13.6,35.3c-.04-.31-.51-.39-.75-.37-.25,.02-.32,.42-.11,.53,.18,.1,.36,.11,.55,.09,.15-.01,.32-.08,.3-.26h0Z"/><path class="x" d="M7.99,37.34c.04-.07,.18-.29,.04-.35-.15-.05-.17,.21-.18,.3-.01,.08,.11,.12,.15,.05h0Z"/><path class="x" d="M8.24,36.28c.14,.05,.28-.16,.32-.27,.05-.15-.14-.28-.26-.18-.08,.07-.12,.17-.14,.27,0,.06,.01,.15,.08,.17h0Z"/><path class="x" d="M8.83,35.18c.06-.01,.1-.05,.14-.1,.04-.06,.1-.1,.14-.17,.08-.13-.05-.28-.19-.22-.11,.05-.17,.14-.21,.25-.03,.09,.01,.25,.13,.23h0Z"/><path class="x" d="M9.63,34.2c.07-.05,.13-.11,.18-.17,.12-.13-.06-.29-.18-.16-.05,.05-.1,.11-.16,.15-.12,.1,.03,.27,.15,.17h0Z"/><path class="p" d="M13.62,41.74s.04,.04,.05,.06c.12,.16,.38,.12,.49-.03,.04-.06,.06-.12,.07-.19,.01-.13-.09-.29-.22-.32h-.01c-.22-.06-.46,.11-.41,.36h0c.03,.1,.04,.12,.01,.05l.1-.29h-.02s.09-.03,.13-.05h-.05c-.19,.02-.27,.3-.14,.43h0Z"/><path class="p" d="M11.92,41.8c-.14,.09-.24,.2-.25,.37-.02,.29,.25,.52,.53,.46,.24-.05,.4-.29,.35-.53-.05-.26-.38-.47-.63-.31h0Z"/><path class="p" d="M11.93,41.16h.01c.19,.08,.39-.08,.4-.26,.01-.19-.14-.35-.33-.35-.3,0-.43,.36-.19,.54-.08-.06,0,.01,.04,.04-.12-.09,.05,.03,.07,.04h0Z"/><path class="p" d="M11.87,39.93v-.02c.14-.12,.08-.35-.11-.37-.21-.01-.29,.26-.13,.38h.02c.06,.06,.17,.05,.22,0h0Z"/><path class="p" d="M13.58,40.39c-.18-.06-.27,.21-.09,.27,.17,.06,.27-.21,.09-.27h0Z"/><path class="p" d="M13.36,39.68s0-.06,0-.09c-.04-.14-.27-.15-.27,.02h0c-.08,.21,.28,.28,.29,.06h0Z"/><path class="p" d="M9.67,42c-.24-.08-.51,.05-.6,.29-.08,.24,.05,.52,.29,.6,.24,.08,.51-.05,.6-.29s-.05-.52-.29-.6h0Z"/><path class="p" d="M9.8,40.85c-.16-.05-.35,.04-.4,.2-.06,.16,.03,.35,.2,.4,.16,.06,.35-.03,.4-.2,.06-.16-.03-.35-.2-.4h0Z"/><path class="p" d="M9.79,39.87h0c.05,0,.1-.01,.16-.02,0,0-.01,0-.02,0-.11-.02-.21,.05-.19,.17,0-.03,0-.02,0,.04,0,.05,.04,.09,.08,.12,.08,.06,.2,.03,.26-.05,.11-.17-.12-.4-.27-.24h0Z"/><path class="p" d="M7,41.68c.03,.11,.09,.2,.21,.23,.17,.05,.36-.04,.41-.22,.04-.16-.02-.34-.19-.39-.16-.05-.34,.03-.39,.19-.02,.07-.02,.13-.02,.21,0-.05,0-.1,0-.15,.02-.03,.04-.06,.06-.09-.06,.05-.1,.15-.08,.22h0Z"/><path class="p" d="M7.75,40.48c-.25-.09-.38,.3-.13,.38,.25,.08,.38-.3,.13-.38h0Z"/><path class="p" d="M8.18,39.61s-.06-.04-.09-.05c-.18-.07-.3,.13-.25,.28,.03,.07,.08,.12,.15,.13,.23,.06,.37-.22,.18-.36h0Z"/><path class="p" d="M5.71,40.86s.01,0,.02,0c.21-.11,.19-.43-.03-.5-.23-.08-.44,.16-.33,.38v.02c.07,.12,.22,.18,.35,.12h0Z"/><path class="p" d="M6.26,39.5c-.24-.08-.37,.29-.13,.37,.24,.08,.37-.29,.13-.37h0Z"/><path class="p" d="M6.76,38.76s-.02,0-.03,0c-.19,0-.27,.23-.12,.34l.03,.02c.1,.07,.25,.02,.29-.1,.04-.12-.04-.25-.17-.26h0Z"/><g class="a`"><path class="x" d="M13.39,43.11c.18-1.23-.27-2.75-.87-3.83-.04-.07-.15-.04-.14,.05,.15,1.28,.86,2.48,.89,3.77,0,.08,.11,.08,.12,0h0Z"/><path class="x" d="M11.11,44.11c.18-.68,.14-1.34,.08-2.03-.08-.9-.11-1.84-.34-2.71-.02-.09-.13-.07-.15,0-.29,1.53,.55,3.13,.19,4.66-.03,.15,.18,.22,.22,.08h0Z"/><path class="x" d="M7.94,44.11c.37-1.71,1-3.38,1.23-5.12,0-.05-.08-.09-.11-.04-.38,.71-.53,1.54-.7,2.33-.2,.93-.46,1.85-.61,2.79-.02,.11,.17,.15,.19,.04h0Z"/><path class="x" d="M5.55,42.61c.84-1.31,2.14-2.53,2.64-4.04,.03-.09-.07-.14-.14-.09-.68,.47-1.11,1.25-1.5,1.96-.38,.7-.9,1.34-1.16,2.09-.03,.09,.1,.16,.15,.08h0Z"/></g></g><path class="s" d="M35.61,34.56c-.54,2.03-1.48,3.07-2.56,4.01-.29,.26-.75,.14-.89-.22-.32-.8-.36-1.65-.79-2.48-1.24-2.4-4.11-3.67-6.8-3.93-2.49-.24-4.59,.24-7.09,.41-2.05,.13-3.6,.01-5.61-.41-2.18-.46-2.66-.46-5.51-2.17-.34-.2-.61-.5-.77-.85-.09-.19-.16-.39-.13-.6,.21-1.28,.45-2.96,2.25-4.52,.17-.15,.59,.02,.62,.24,.17,1.23,.17,1.99,1.16,3.29,.75,.98,2.61,1.74,3.83,1.96,.99,.18,1.99,.27,2.99,.26,1.37,0,2.73-.18,4.1-.26,4.45-.23,9.94,.92,12.78,2.3,1.75,.85,2.67,2.19,2.62,2.52-.03,.16-.14,.29-.18,.46Z"/><g><path class="x" d="M23.5,30.12c.18,.11,.21,.37,.05,.52-.85,.8-2.4,1.93-3.46,2.65-.2,.13-.46,.13-.65-.02-1.02-.79-2.04-1.6-3.05-2.39-.16-.12-.14-.37,.03-.46,1.03-.6,2.1-1.61,3.07-2.13,.17-.09,.37-.23,.54-.15,1.17,.55,2.56,1.43,3.46,1.99Z"/><path class="ac" d="M19.85,30.35c-.27,0-.5,.22-.5,.5s.23,.5,.5,.5,.5-.22,.5-.5-.23-.5-.5-.5h0Z"/><path class="aa" d="M20.01,31.93s-.02,0-.02,0c.04,.02,.07,.04,.11,.06h-.01c-.17-.15-.44-.07-.44,.17s.27,.32,.44,.18h.01s-.07,.03-.11,.05c0,0,.02,0,.02,0,.22-.07,.22-.38,0-.45h0Z"/><path class="aa" d="M21.46,30.45c-.16,0-.29,.13-.29,.29s.13,.29,.29,.29,.29-.13,.29-.29-.13-.29-.29-.29h0Z"/><path class="aa" d="M18.09,30.46c-.3,0-.3,.47,0,.47s.3-.47,0-.47h0Z"/><path class="aa" d="M20.04,29.48v-.02c.11-.2-.01-.44-.25-.44s-.36,.25-.26,.44v.02c.11,.19,.4,.19,.5,0h0Z"/></g><path class="aa" d="M15.17,31.1c.4,0,.4-.62,0-.62s-.4,.62,0,.62h0Z"/><path class="aa" d="M13.71,30.49l-.03,.05c-.12,.18,.14,.37,.29,.22,.01-.01,.03-.03,.04-.04,.2-.19-.14-.47-.3-.23h0Z"/><path class="aa" d="M12.68,30.25s-.02,0-.03-.02c-.19-.11-.42,.07-.36,.28,.06,.21,.34,.24,.45,.06l.02-.02c.06-.1,.02-.24-.08-.3h0Z"/><path class="aa" d="M11.32,30.21c.21,0,.21-.33,0-.33s-.21,.33,0,.33h0Z"/><path class="aa" d="M10.06,29.85c.12,.06,.27-.09,.16-.2-.14-.14-.32,.12-.16,.2h0Z"/><path class="aa" d="M9.12,29.38c.18,0,.18-.28,0-.28s-.18,.28,0,.28h0Z"/><path class="aa" d="M8.27,28.81c.15,0,.15-.23,0-.23s-.15,.23,0,.23h0Z"/><path class="aa" d="M24.62,30.71c.29,0,.29-.44,0-.44s-.29,.44,0,.44h0Z"/><path class="aa" d="M25.82,30.81c.29,0,.29-.44,0-.44s-.29,.44,0,.44h0Z"/><path class="aa" d="M26.92,31.01c.21,0,.21-.33,0-.33s-.21,.33,0,.33h0Z"/><path class="aa" d="M28.12,31.44c.32,0,.32-.49,0-.49s-.32,.49,0,.49h0Z"/><path class="aa" d="M29.42,31.95c.26,0,.26-.41,0-.41s-.26,.41,0,.41h0Z"/><path class="aa" d="M30.57,32.61c.15,0,.15-.24,0-.24s-.15,.24,0,.24h0Z"/><path class="aa" d="M31.67,33.49c.19,0,.19-.29,0-.29s-.19,.29,0,.29h0Z"/><path class="m" d="M5.29,12.71s.09-.01,.13-.04c.3-.2,1.07-1.02,1.3-1.24,.04-.04,.09-.1,.08-.16,0-.05-.04-.09-.08-.12-.34-.34-.69-.65-1.01-1.01-.14-.15-.3-.33-.4-.33h-.05c-.1,0-.26,.18-.4,.33-.32,.35-.67,.67-1.01,1.01-.03,.04-.07,.07-.08,.12,0,.06,.04,.12,.08,.16,.22,.23,1,1.04,1.3,1.24,.04,.03,.08,.04,.13,.04h0Z"/><path class="m" d="M35.66,52.24s.09-.01,.13-.04c.3-.2,1.07-1.02,1.3-1.24,.04-.04,.09-.1,.08-.16,0-.05-.04-.09-.08-.12-.34-.34-.69-.65-1.01-1.01-.14-.15-.3-.33-.4-.34h-.05c-.1,0-.26,.18-.4,.34-.32,.35-.67,.67-1.01,1.01-.03,.04-.07,.07-.08,.12,0,.06,.04,.11,.08,.16,.22,.23,1,1.04,1.3,1.24,.04,.03,.09,.04,.13,.04h0Z"/><path class="m" d="M4.96,8.11c-.74,0-1.32-.28-1.74-.85-.42-.56-.63-1.26-.63-2.11,0-.89,.22-1.62,.65-2.19,.43-.56,1-.85,1.71-.85s1.25,.27,1.69,.81c.44,.54,.66,1.25,.66,2.14,0,.74-.16,1.38-.5,1.93-.33,.55-.75,.9-1.27,1.04v.08c0,.42,.25,.63,.76,.63,.25,0,.46-.02,.66-.05v.58c-.19,.06-.39,.09-.59,.09-.44,0-.78-.09-1.02-.28-.24-.19-.37-.51-.4-.97Zm0-.59c.5,0,.9-.23,1.18-.69,.28-.46,.42-1.05,.42-1.77s-.15-1.32-.44-1.73c-.29-.41-.68-.62-1.17-.62s-.88,.22-1.17,.67c-.29,.45-.43,1.03-.43,1.75s.15,1.28,.44,1.72c.29,.44,.68,.66,1.17,.66Z"/><path class="m" d="M35.98,54.36c.74,0,1.32,.28,1.74,.85,.42,.56,.63,1.26,.63,2.11,0,.89-.22,1.62-.65,2.19-.44,.56-1,.85-1.71,.85s-1.25-.27-1.7-.81c-.44-.54-.66-1.25-.66-2.14,0-.74,.17-1.38,.5-1.93,.33-.55,.75-.9,1.27-1.03v-.08c0-.42-.25-.63-.76-.63-.24,0-.46,.02-.66,.05v-.58c.19-.06,.39-.09,.59-.09,.44,0,.78,.09,1.02,.28,.24,.19,.37,.51,.4,.97Zm0,.59c-.5,0-.9,.23-1.18,.69-.28,.46-.43,1.05-.43,1.77s.15,1.32,.44,1.73c.29,.41,.68,.62,1.17,.62s.88-.22,1.17-.67c.29-.45,.43-1.03,.43-1.75s-.15-1.28-.44-1.72c-.29-.44-.68-.66-1.17-.66Z"/><g><path class="m" d="M11.82,59.11H6.19c-1.66,0-3-1.43-3-3.19V15.66h.19V55.92c0,1.66,1.26,3,2.82,3h5.62v.19Z"/><rect class="m" x="22.21" y="58.93" width="10.57" height=".19"/><path class="m" d="M37.74,46.82h-.19V6.36c0-1.65-1.26-3-2.82-3h-5.7v-.19h5.7c1.66,0,3,1.43,3,3.19V46.82Z"/><rect class="m" x="8.45" y="3.17" width="10.01" height=".19"/></g></g></g></g></svg>