<?xml version="1.0" encoding="UTF-8"?><svg xmlns="http://www.w3.org/2000/svg" viewBox="0 0 40.93 62.29"><defs><style>.d{fill:#fff;}.e{fill:#d6002b;}.f{fill:#2d2d2d;}</style></defs><g id="a"/><g id="b"><g id="c"><g><g><path class="d" d="M3.54,.09H37.39c1.9,0,3.45,1.55,3.45,3.45V58.74c0,1.9-1.55,3.45-3.45,3.45H3.54c-1.9,0-3.45-1.55-3.45-3.45V3.54C.09,1.64,1.64,.09,3.54,.09Z"/><path class="f" d="M37.39,62.29H3.54c-1.95,0-3.54-1.59-3.54-3.55V3.54C0,1.59,1.59,0,3.54,0H37.39c1.95,0,3.54,1.59,3.54,3.54V58.74c0,1.96-1.59,3.55-3.54,3.55ZM3.54,.19C1.69,.19,.19,1.69,.19,3.54V58.74c0,1.85,1.5,3.36,3.36,3.36H37.39c1.85,0,3.36-1.51,3.36-3.36V3.54c0-1.85-1.51-3.36-3.36-3.36H3.54Z"/></g><path class="e" d="M5.29,12.71s.09-.01,.13-.04c.3-.2,1.07-1.02,1.3-1.24,.04-.04,.09-.1,.08-.16,0-.05-.04-.09-.08-.12-.34-.34-.69-.65-1.01-1.01-.14-.15-.3-.33-.4-.34h-.05c-.1,0-.26,.18-.4,.34-.32,.35-.67,.67-1.01,1.01-.03,.04-.07,.07-.08,.12,0,.06,.04,.12,.08,.16,.22,.23,1,1.04,1.3,1.24,.04,.03,.09,.04,.13,.04h0Z"/><path class="e" d="M35.66,52.24s.09-.01,.13-.04c.3-.2,1.07-1.02,1.3-1.24,.04-.04,.09-.1,.08-.16,0-.05-.04-.09-.08-.12-.34-.34-.69-.65-1.01-1.01-.14-.15-.3-.33-.4-.33h-.05c-.1,0-.26,.18-.4,.33-.32,.36-.67,.67-1.01,1.01-.04,.04-.07,.07-.08,.12,0,.06,.04,.11,.08,.16,.22,.23,1,1.05,1.3,1.24,.04,.03,.09,.04,.13,.04h0Z"/><path class="e" d="M4.28,5.76c-.73-.32-1.09-.78-1.09-1.38,0-.44,.18-.8,.54-1.08,.36-.28,.84-.42,1.44-.42s1.06,.13,1.41,.41c.35,.27,.52,.62,.52,1.06,0,.61-.37,1.04-1.12,1.31,.6,.28,.98,.55,1.13,.81,.15,.26,.23,.52,.23,.78,0,.46-.2,.85-.59,1.16-.39,.31-.92,.47-1.59,.47-.72,0-1.27-.16-1.66-.47-.39-.32-.59-.69-.59-1.13,0-.65,.46-1.15,1.37-1.5Zm.79,.3c-.97,.23-1.46,.64-1.46,1.22,0,.3,.13,.55,.4,.74,.27,.19,.66,.29,1.17,.29,.44,0,.79-.09,1.06-.28,.27-.19,.4-.43,.4-.72,0-.56-.52-.98-1.57-1.25Zm.08-.66c.48-.13,.82-.28,1.02-.45s.3-.38,.3-.63c0-.29-.12-.52-.36-.67-.24-.15-.55-.23-.94-.23s-.67,.08-.91,.24c-.24,.16-.35,.38-.35,.65s.13,.5,.39,.7c.26,.2,.54,.33,.84,.39Z"/><path class="e" d="M36.48,56.53c.73,.32,1.09,.78,1.09,1.38,0,.44-.18,.8-.54,1.08-.36,.28-.84,.42-1.44,.42s-1.06-.13-1.41-.41c-.35-.27-.52-.62-.52-1.06,0-.61,.37-1.04,1.12-1.31-.6-.28-.98-.55-1.13-.81-.15-.26-.23-.52-.23-.78,0-.46,.2-.85,.59-1.16,.39-.31,.92-.46,1.59-.46,.72,0,1.27,.16,1.66,.47,.39,.32,.59,.69,.59,1.13,0,.65-.46,1.15-1.37,1.5Zm-.79-.3c.97-.23,1.46-.64,1.46-1.22,0-.3-.13-.55-.4-.74-.27-.19-.66-.29-1.17-.29-.44,0-.79,.09-1.06,.28-.27,.19-.4,.43-.4,.72,0,.56,.52,.98,1.57,1.25Zm-.08,.66c-.48,.13-.82,.28-1.02,.45-.2,.17-.3,.38-.3,.63,0,.3,.12,.52,.36,.67,.24,.15,.55,.23,.94,.23s.67-.08,.91-.24c.24-.16,.35-.38,.35-.65s-.13-.5-.39-.7c-.26-.2-.54-.33-.84-.39Z"/><g><path class="e" d="M14.1,13.21c.16,0,.31-.04,.44-.13,.99-.65,3.53-3.34,4.27-4.09,.14-.14,.28-.32,.26-.52-.02-.16-.14-.29-.25-.4-1.11-1.11-2.28-2.15-3.32-3.31-.45-.5-.98-1.08-1.32-1.1h-.17c-.33,.02-.87,.6-1.32,1.1-1.04,1.17-2.21,2.21-3.32,3.31-.11,.11-.23,.24-.25,.4-.02,.2,.12,.37,.26,.52,.74,.75,3.28,3.44,4.27,4.09,.13,.09,.28,.13,.44,.13h0Z"/><path class="e" d="M26.83,13.21c.16,0,.31-.04,.44-.13,.99-.65,3.53-3.34,4.27-4.09,.14-.14,.28-.32,.26-.52-.02-.16-.14-.29-.25-.4-1.11-1.11-2.28-2.15-3.32-3.31-.45-.5-.98-1.08-1.32-1.1h-.17c-.33,.02-.87,.6-1.32,1.1-1.04,1.17-2.21,2.21-3.32,3.31-.11,.11-.23,.24-.25,.4-.02,.2,.12,.37,.26,.52,.74,.75,3.28,3.44,4.27,4.09,.13,.09,.28,.13,.44,.13h0Z"/></g><g><path class="e" d="M14.1,35.92c.16,0,.31-.04,.44-.13,.99-.66,3.53-3.34,4.27-4.09,.14-.14,.28-.32,.26-.52-.02-.16-.14-.29-.25-.4-1.11-1.1-2.28-2.15-3.32-3.31-.45-.5-.98-1.08-1.32-1.1h-.17c-.33,.02-.87,.6-1.32,1.1-1.04,1.17-2.21,2.21-3.32,3.31-.11,.12-.23,.24-.25,.4-.02,.2,.12,.38,.26,.52,.74,.75,3.28,3.44,4.27,4.09,.13,.09,.28,.13,.44,.13h0Z"/><path class="e" d="M26.83,35.92c.16,0,.31-.04,.44-.13,.99-.66,3.53-3.34,4.27-4.09,.14-.14,.28-.32,.26-.52-.02-.16-.14-.29-.25-.4-1.11-1.1-2.28-2.15-3.32-3.31-.45-.5-.98-1.08-1.32-1.1h-.17c-.33,.02-.87,.6-1.32,1.1-1.04,1.17-2.21,2.21-3.32,3.31-.11,.12-.23,.24-.25,.4-.02,.2,.12,.38,.26,.52,.74,.75,3.28,3.44,4.27,4.09,.13,.09,.28,.13,.44,.13h0Z"/></g><g><path class="e" d="M26.83,49.08c-.16,0-.31,.04-.44,.13-.99,.66-3.53,3.34-4.27,4.09-.14,.14-.28,.32-.26,.52,.02,.16,.14,.29,.25,.4,1.11,1.11,2.28,2.15,3.32,3.31,.45,.5,.98,1.08,1.32,1.1h.17c.33-.02,.87-.6,1.32-1.1,1.04-1.16,2.21-2.21,3.32-3.31,.11-.11,.23-.24,.25-.4,.02-.2-.12-.37-.26-.52-.74-.75-3.28-3.44-4.27-4.09-.13-.09-.28-.13-.44-.13h0Z"/><path class="e" d="M14.1,49.08c-.16,0-.31,.04-.44,.13-.99,.66-3.53,3.34-4.27,4.09-.14,.14-.28,.32-.26,.52,.02,.16,.14,.29,.25,.4,1.11,1.11,2.28,2.15,3.32,3.31,.45,.5,.98,1.08,1.32,1.1h.17c.33-.02,.87-.6,1.32-1.1,1.04-1.16,2.21-2.21,3.32-3.31,.11-.11,.23-.24,.25-.4,.02-.2-.12-.37-.26-.52-.74-.75-3.28-3.44-4.27-4.09-.13-.09-.28-.13-.44-.13h0Z"/></g><path class="e" d="M20.47,24.31c.16,0,.31-.04,.44-.13,.99-.66,3.53-3.34,4.27-4.09,.14-.14,.28-.32,.26-.52-.02-.16-.14-.29-.25-.4-1.11-1.11-2.28-2.15-3.32-3.31-.45-.5-.98-1.08-1.32-1.1h-.17c-.33,.02-.87,.6-1.31,1.1-1.04,1.17-2.21,2.21-3.32,3.31-.11,.11-.23,.24-.25,.4-.02,.2,.12,.37,.26,.52,.74,.75,3.28,3.43,4.27,4.09,.13,.09,.28,.13,.44,.13h0Z"/><path class="e" d="M20.47,47.15c.16,0,.31-.04,.44-.13,.99-.66,3.53-3.34,4.27-4.09,.14-.14,.28-.32,.26-.52-.02-.16-.14-.29-.25-.4-1.11-1.11-2.28-2.15-3.32-3.31-.45-.5-.98-1.08-1.32-1.1h-.17c-.33,.02-.87,.6-1.31,1.1-1.04,1.16-2.21,2.21-3.32,3.31-.11,.11-.23,.24-.25,.4-.02,.2,.12,.38,.26,.52,.74,.75,3.28,3.44,4.27,4.09,.13,.09,.28,.13,.44,.13h0Z"/></g></g></g></svg>