<?xml version="1.0" encoding="UTF-8"?><svg xmlns="http://www.w3.org/2000/svg" xmlns:xlink="http://www.w3.org/1999/xlink" viewBox="0 0 41.06 62.29"><defs><style>.j{fill:#fff;}.k{fill:#d6002b;}.l{clip-path:url(#h);}.m{fill:#ffd6a1;}.n{fill:#b70027;}.o{clip-path:url(#e);}.p{clip-path:url(#d);}.q{fill:#222272;}.r{fill:none;}.s{fill:#2d2d2d;}.t{clip-path:url(#f);}.u{fill:#0c0a35;}.v{clip-path:url(#i);}.w{fill:#990028;}.x{clip-path:url(#g);}.y{fill:#f70032;}</style><clipPath id="d"><path class="r" d="M22.9,13.5c-.99,.32-1.93,.81-2.77,1.43-.72,.54-1.61,.8-2.38,1.27-.77,.46-2.36,1.17-2.34-.29,0-.23-.58,.19-.81,.22-.19,.03-.32,.18-.43,.33-.3,.4-.52,.63-.45,1.13,.06,.46,.33,.9,.61,1.27,.29,.39,.52,.98,.74,1.41,.41,.8,.82,1.6,1.23,2.4,.12,.23,.24,.46,.43,.62,.19,.16,.48,.25,.7,.13,.12-.06,.21-.17,.3-.28,.5-.6,1.05-1.14,1.68-1.6,1.4-1.01,3.1-1.5,4.65-2.27,1.55-.77,3.05-1.97,3.42-3.66,.2-.94,.01-1.95-.51-2.75-.09-.14-.2-.28-.36-.35-.17-.07-.37-.05-.55,0-1.09,.21-2.09,.64-3.15,.98Z"/></clipPath><clipPath id="e"><path class="n" d="M13.26,16.82c.12-.38,.63-1.7,2.02-2.29,.41-.18,.82-.42,1.27-.38,.44,.04,.84,.28,1.21,.52,.65,.41,1.32,.84,1.74,1.48-1.17,.13-2.38-.08-3.44-.61-.8,.59-1.81,1.11-2.79,1.29Z"/></clipPath><clipPath id="f"><path class="n" d="M21.52,8.06c.23,1.05,.45,2.11,.68,3.16,.24,1.12,.48,2.25,.44,3.4,0,.14,.1,.24,.24,.21,2.33-.48,4.38-1.84,6.59-2.71,.12-.05,.16-.2,.07-.3-.99-1.03-1.65-2.38-1.85-3.79-.01-.09-.09-.16-.19-.16-1.92,.06-3.84,.13-5.77,.19-.17,0-.33-.11-.21,0Z"/></clipPath><clipPath id="g"><path class="r" d="M18.15,48.68c.99-.32,1.94-.81,2.77-1.43,.72-.54,1.61-.8,2.38-1.27,.77-.46,2.36-1.17,2.33,.29,0,.23,.58-.19,.81-.22,.19-.03,.32-.18,.43-.33,.3-.4,.52-.64,.45-1.13-.06-.46-.33-.9-.61-1.27-.29-.39-.52-.98-.74-1.41-.41-.8-.82-1.6-1.23-2.4-.12-.23-.24-.46-.43-.62-.19-.16-.48-.25-.7-.13-.12,.06-.21,.17-.3,.28-.49,.6-1.05,1.14-1.68,1.6-1.4,1.01-3.1,1.5-4.65,2.27-1.55,.77-3.05,1.97-3.42,3.66-.2,.94-.01,1.95,.51,2.75,.09,.14,.2,.28,.36,.35,.17,.07,.37,.04,.55,0,1.09-.21,2.09-.64,3.15-.98Z"/></clipPath><clipPath id="h"><path class="n" d="M27.79,45.37c-.12,.38-.63,1.7-2.02,2.29-.41,.18-.82,.42-1.27,.38-.44-.04-.84-.28-1.21-.52-.65-.41-1.32-.84-1.74-1.48,1.17-.13,2.38,.08,3.44,.61,.8-.59,1.81-1.11,2.79-1.29Z"/></clipPath><clipPath id="i"><path class="n" d="M19.53,54.13c-.23-1.05-.45-2.11-.68-3.16-.24-1.12-.48-2.25-.44-3.4,0-.14-.1-.24-.24-.21-2.33,.48-4.38,1.84-6.59,2.71-.12,.05-.16,.21-.07,.3,.99,1.03,1.65,2.38,1.85,3.79,.01,.09,.09,.16,.19,.16,1.92-.06,3.84-.13,5.77-.19,.17,0,.33,.11,.21,0Z"/></clipPath></defs><g id="a"/><g id="b"><g id="c"><g><g><path class="j" d="M37.39,62.19H3.54c-1.91,0-3.45-1.54-3.45-3.45V3.54C.09,1.64,1.64,.09,3.54,.09H37.39c1.9,0,3.45,1.54,3.57,3.39V58.68c-.12,1.97-1.67,3.51-3.57,3.51Z"/><path class="s" d="M37.39,62.29H3.54c-1.95,0-3.54-1.59-3.54-3.55V3.54C0,1.59,1.59,0,3.54,0H37.39c1.92,0,3.54,1.53,3.67,3.47V58.68c-.13,2.02-1.74,3.61-3.67,3.61ZM3.54,.19C1.69,.19,.19,1.69,.19,3.54V58.74c0,1.85,1.5,3.36,3.36,3.36H37.39c1.83,0,3.36-1.5,3.48-3.42V3.48c-.12-1.85-1.65-3.29-3.48-3.29H3.54Z"/></g><g><path class="y" d="M32,36.24c0-.23,1.46-2.88,2.47-4.19,1.32-1.71,1.27-4.8,.53-5.61-2.15-2.35-2.88-1.41-5.6-3.5-.53-.4-1.78-1.55-2.3-1.95-.55-.43,.47-.75-.15-1.06-1.51-.77-3.17-1.18-4.82-1.59-.53-.13-1.05-.26-1.59-.29-.51-.03-1.03,.04-1.54,.12-2.05,.32-4.93,1.81-6.64,2.98-1.71,1.17-1.02,.52-5.6,3.65-2.2,1.5-1.93,5.31-1.62,6.1,.85,2.17,4.3,4.55,4.47,5.55,5.83,.94,22.4,1.57,22.4-.2Z"/><path class="y" d="M9.03,26.02c0,.23-1.46,2.88-2.47,4.19-1.32,1.71-1.27,4.8-.53,5.61,2.15,2.35,2.88,1.41,5.6,3.5,.53,.4,1.78,1.54,2.3,1.95,.55,.43-.47,.75,.15,1.07,1.51,.77,3.17,1.18,4.82,1.59,.53,.13,1.05,.26,1.59,.29,.51,.03,1.03-.04,1.54-.12,2.05-.31,4.93-1.81,6.64-2.98,1.71-1.17,1.01-.52,5.6-3.65,2.2-1.5,1.93-5.31,1.62-6.1-.85-2.17-4.3-4.55-4.47-5.55-5.83-.94-22.4-1.57-22.4,.2Z"/><path class="w" d="M17.33,24.47c.52,.41,1.29,.11,1.81-.3,.52-.41,1.01-.95,1.66-1.02,.65-.07,1.25,.33,1.9,.4,.54,.05,1.1-.15,1.49-.54,.29-.29,.48-.68,.83-.88,.59-.34,1.33-.03,2.01-.09,.46-.04,1.14-.43,1.44-.79,.05-.06,.1-.12,.1-.2,.01-.14-.12-.26-.25-.33-.39-.2-.7-.35-1.85-1.68-.36-.42-.42-1.06-.87-1.39-.38-.28-.88-.33-1.36-.36-2.25-.12-4.52,.05-6.72,.52-.87,.18-1.75,.42-2.54,.83-.61,.32-1.17,.74-1.72,1.15-1.04,.78-2.61,1.7-3.17,2.87,.52-.41,1.57-.49,2.22-.35,.3,.06,.75,.03,.91,.28,.13,.2,.16,.44,.25,.66,.21,.46,.77,.73,1.26,.6,.43-.11,.79-.48,1.23-.47,.43,0,.77,.36,1.02,.7,.1,.14,.2,.28,.34,.39Z"/><path class="m" d="M23.84,8.74c-.45-.72-1.42-.86-2.27-.93-1.48-.12-3.01-.22-4.39,.31-.51,.2-1.01,.51-1.25,1-.13,.28-.17,.59-.25,.89-.15,.55-.45,1.06-.75,1.55-.57,.94-1.14,1.88-1.7,2.82-.04,.07-.08,.14-.07,.22,.02,.19,.28,.21,.47,.18,.68-.11,1.35-.21,2.03-.32-.04,.33-.3,.62-.33,.95-.07,.63-.31,1.12,0,1.68,.39,.68,1.67,1.22,2.45,1.11,.78-.11,1.47-.55,2.1-1.03,1.25-.95,2.35-2.09,3.24-3.38,.29-.42,.56-.86,.73-1.34,.25-.71,.25-1.47,.26-2.21,0-.51,0-1.06-.27-1.49Z"/><path class="n" d="M22.9,13.5c-.99,.32-1.93,.81-2.77,1.43-.72,.54-1.61,.8-2.38,1.27-.77,.46-2.36,1.17-2.34-.29,0-.23-.58,.19-.81,.22-.19,.03-.32,.18-.43,.33-.3,.4-.52,.63-.45,1.13,.06,.46,.33,.9,.61,1.27,.29,.39,.52,.98,.74,1.41,.41,.8,.82,1.6,1.23,2.4,.12,.23,.24,.46,.43,.62,.19,.16,.48,.25,.7,.13,.12-.06,.21-.17,.3-.28,.5-.6,1.05-1.14,1.68-1.6,1.4-1.01,3.1-1.5,4.65-2.27,1.55-.77,3.05-1.97,3.42-3.66,.2-.94,.01-1.95-.51-2.75-.09-.14-.2-.28-.36-.35-.17-.07-.37-.05-.55,0-1.09,.21-2.09,.64-3.15,.98Z"/><path class="w" d="M16.67,7.48c-.03-.1-.03-.2-.02-.3,.03-.28,.09-.56,.15-.84,.21-.95,.4-2.19,1.27-2.8,.28-.2,.62-.32,.95-.43,.73-.25,1.56-.56,2.29-.82-.13-.18-.17-.35-.27-.52-.07-.11-.06-.24,.01-.34,.16-.21,.33-.53,.45-.77,.05-.09,.18-.09,.22,0,.12,.23,.24,.5,.39,.71,.08,.11,.1,.26,.05,.39-.1,.23-.19,.51-.18,.54,.01,.04,1.66,.5,2.11,.67,.81,.29,1.67,.62,2.2,1.3,.28,.36,.44,.8,.6,1.23,.16,.44,.33,.88,.49,1.32-1.22,.07-2.45,.14-3.67,.21-.5,.03-.99,.05-1.49,.06-.38,0-.76-.01-1.15,0-1.42,.06-2.81,.52-4.23,.46-.05,0-.1-.02-.13-.05-.04-.04-.1-.02-.04-.04Z"/><path class="j" d="M17.34,10.9c.44-.49,1.03-.74,1.62-.85,1.04-.18,1.44,.17,1.88,.61-.78,.51-1.68,.71-2.58,.57-.31-.05-.63-.14-.92-.33Z"/><path class="u" d="M18.62,10.37c-.08,.15-.09,.28-.06,.44,.04,.22,.22,.33,.41,.41,.23,.09,.51-.06,.62-.25,.13-.23,.07-.47-.09-.67-.03-.04-.08-.08-.13-.11-.17-.07-.18-.07-.03-.01,.06,.07,.13,.13,.19,.2,0,0,0,0,0-.01-.11-.16-.26-.26-.46-.26-.18,0-.37,.1-.46,.26h0Z"/><g class="p"><path class="u" d="M14.56,14.94c-.04,.99-.19,1.96-.19,2.95,0,1,.12,1.99,.15,2.99,0,.08,.14,.11,.15,.02,.17-.88,.18-1.75,.14-2.63-.05-1.11,.05-2.21-.02-3.32,0-.15-.23-.15-.24,0h0Z"/><path class="u" d="M15.58,14.68c-.04,.69-.18,1.37-.22,2.07-.04,.85,0,1.71-.03,2.57-.05,1.49-.4,3.18-.01,4.64,.03,.1,.18,.11,.21,0,.29-1.36,.18-2.89,.21-4.29,.03-1.66,0-3.33,.01-4.99,0-.11-.16-.11-.17,0h0Z"/><path class="u" d="M16.21,14.93c-.15,3.68-.19,7.34,.51,10.97,.02,.09,.15,.06,.16-.02,.15-1.78-.18-3.65-.24-5.44-.06-1.84-.05-3.67-.23-5.51-.01-.12-.2-.13-.2,0h0Z"/><path class="u" d="M17.2,14.76c-.15,3.68-.2,7.34,.51,10.97,.02,.09,.15,.06,.16-.02,.15-1.78-.18-3.65-.24-5.44-.06-1.84-.05-3.67-.23-5.5-.01-.12-.19-.13-.2,0h0Z"/><path class="u" d="M17.86,14.79c-.16,1.96,.1,3.92,.35,5.87,.2,1.58,.25,3.37,.96,4.82,.03,.07,.15,.04,.14-.04-.11-1.7-.44-3.43-.63-5.12-.21-1.85-.38-3.71-.66-5.54-.01-.09-.15-.06-.16,.02h0Z"/><path class="u" d="M18.77,13.86c-.22,.86-.12,1.82-.1,2.7,.03,1.02,.11,2.05,.26,3.06,.17,1.11,.42,2.2,.61,3.31,.12,.74,0,1.65,.54,2.25,.06,.06,.19,.02,.18-.07-.21-1.64-.43-3.25-.74-4.88-.21-1.09-.33-2.2-.44-3.3-.1-.97-.33-2.1-.25-3.06,0-.04-.06-.04-.07,0h0Z"/><path class="u" d="M19.32,13.79c-.04,.92-.15,1.77-.03,2.69,.11,.8,.3,1.58,.45,2.37,.36,1.88,.72,3.9,1.42,5.68,.03,.08,.16,.08,.16-.02-.14-1.81-.69-3.65-1.06-5.43-.18-.89-.4-1.77-.58-2.66-.18-.88-.14-1.77-.3-2.64,0-.04-.06-.03-.06,0h0Z"/><path class="u" d="M20.32,13.61c-.41,1.31,.15,2.91,.49,4.18,.47,1.73,1.04,3.44,1.5,5.18,.02,.09,.17,.1,.19,0,.1-.54-.04-.99-.18-1.52-.21-.8-.43-1.59-.66-2.38-.24-.82-.51-1.63-.74-2.45-.26-.89-.7-2.04-.46-2.97,.02-.09-.11-.13-.14-.04h0Z"/><path class="u" d="M21.13,12.59c-.21,.62-.06,1.26,.03,1.88,.15,1.06,.43,2.09,.74,3.11,.58,1.87,1.16,3.84,1.98,5.62,.04,.08,.17,.04,.17-.04-.03-.79-.37-1.58-.59-2.34-.26-.91-.6-1.79-.92-2.68-.32-.89-.59-1.8-.83-2.72-.22-.88-.58-1.91-.5-2.81,0-.06-.08-.06-.09-.01h0Z"/><path class="u" d="M21.9,12.53c.05,1.58,.42,3.04,.92,4.53,.55,1.63,.91,3.43,1.74,4.94,.05,.1,.18,.03,.16-.07-.48-3.23-2.39-6.13-2.67-9.4,0-.1-.17-.11-.16,0h0Z"/><path class="u" d="M23.22,12.26c-.07,1.66,.43,3.23,.98,4.78,.27,.76,.61,1.49,.89,2.25,.22,.6,.19,1.23,.62,1.72,.08,.09,.2,0,.18-.11-.49-2.98-2.06-5.64-2.54-8.65-.01-.08-.14-.06-.14,.02h0Z"/><path class="u" d="M24.44,11.54c-.29,3.04,1.25,5.64,2.47,8.29,.04,.08,.15,.02,.14-.06-.22-1.42-.95-2.65-1.47-3.98-.54-1.37-.76-2.84-1.04-4.27-.01-.06-.09-.04-.1,.01h0Z"/><path class="u" d="M25.58,11.53c-.31,1.23,.31,2.79,.71,3.94,.47,1.38,.96,3.12,1.86,4.29,.05,.07,.21,.06,.19-.05-.16-1.27-.84-2.52-1.3-3.7-.26-.67-.5-1.35-.73-2.02-.26-.75-.65-1.63-.55-2.44,.01-.1-.15-.12-.17-.02h0Z"/><path class="u" d="M26.59,11.34c-.18,2.43,1.57,4.7,2.53,6.8,.04,.08,.15,.02,.14-.06-.15-1.07-.71-1.97-1.19-2.91-.61-1.18-1.16-2.52-1.34-3.84-.01-.08-.13-.06-.14,.02h0Z"/></g><g><path class="n" d="M13.26,16.82c.12-.38,.63-1.7,2.02-2.29,.41-.18,.82-.42,1.27-.38,.44,.04,.84,.28,1.21,.52,.65,.41,1.32,.84,1.74,1.48-1.17,.13-2.38-.08-3.44-.61-.8,.59-1.81,1.11-2.79,1.29Z"/><g class="o"><path class="u" d="M14.41,13.07c-.63,1.73-1.33,3.64-1.37,5.5,0,.1,.14,.12,.16,.02,.47-1.83,.78-3.67,1.36-5.48,.03-.1-.12-.14-.15-.04h0Z"/><path class="u" d="M15.14,12.98c-1.01,1.88-1.31,4.03-1.46,6.11,0,.09,.14,.14,.18,.05,.35-.81,.37-1.71,.55-2.57,.26-1.17,.34-2.42,.87-3.51,.04-.09-.09-.17-.14-.08h0Z"/><path class="u" d="M15.93,12.57c-.36,.98-.62,1.97-.88,2.98-.25,1.01-.6,2.03-.73,3.07-.01,.11,.15,.14,.2,.05,1.05-1.71,1.21-4.12,1.55-6.06,.02-.1-.11-.13-.15-.04h0Z"/><path class="u" d="M16.27,12.35c.01,1.96-.02,3.97,.33,5.9,.02,.1,.16,.06,.17-.02,.21-1.95-.19-3.93-.32-5.88,0-.12-.18-.12-.18,0h0Z"/><path class="u" d="M17.04,12.46c-.03,1.23,.14,2.43,.22,3.65,.06,.91,.13,1.87,.63,2.66,.06,.09,.19,.03,.17-.07-.2-.96-.27-1.92-.35-2.89-.1-1.12-.35-2.23-.48-3.36-.01-.12-.18-.12-.19,0h0Z"/><path class="u" d="M17.78,13.21c.01,1.08,.28,2.1,.5,3.15,.22,1.03,.1,2.26,.58,3.21,.05,.09,.19,.05,.19-.05,0-2.15-.92-4.19-1.06-6.31,0-.14-.22-.14-.22,0h0Z"/><path class="u" d="M18.66,13.77c.01,1.08,.28,2.1,.5,3.15,.22,1.03,.1,2.26,.58,3.21,.05,.1,.2,.05,.2-.05,0-2.15-.92-4.19-1.06-6.31,0-.14-.22-.14-.22,0h0Z"/></g></g><g><path class="n" d="M21.52,8.06c.23,1.05,.45,2.11,.68,3.16,.24,1.12,.48,2.25,.44,3.4,0,.14,.1,.24,.24,.21,2.33-.48,4.38-1.84,6.59-2.71,.12-.05,.16-.2,.07-.3-.99-1.03-1.65-2.38-1.85-3.79-.01-.09-.09-.16-.19-.16-1.92,.06-3.84,.13-5.77,.19-.17,0-.33-.11-.21,0Z"/><g class="t"><path class="u" d="M21.81,7.28c.16,1.78,.61,3.62,.96,5.38,.26,1.3,.22,3.45,1.31,4.38,.09,.08,.22,0,.2-.12-.11-.67-.44-1.31-.61-1.98-.2-.79-.31-1.6-.46-2.4-.18-.92-.37-1.83-.56-2.75-.18-.87-.54-1.67-.74-2.52-.01-.06-.11-.05-.1,.01h0Z"/><path class="u" d="M22.57,6.94c.02,1.76,.44,3.39,.9,5.08,.43,1.57,.39,3.58,1.31,4.97,.06,.09,.22,.09,.24-.03,.11-.55-.12-1.02-.29-1.55-.3-.91-.39-1.9-.61-2.84-.43-1.88-1.17-3.69-1.36-5.63-.01-.12-.19-.12-.19,0h0Z"/><path class="u" d="M23.43,6.71c.43,1.74,.62,3.51,1.19,5.23,.3,.9,.55,1.82,.82,2.73,.16,.52,.31,1.07,.78,1.39,.07,.04,.17-.03,.14-.11-.53-1.47-.83-3.01-1.33-4.49-.52-1.54-.63-3.4-1.43-4.82-.05-.1-.2-.03-.17,.07h0Z"/><path class="u" d="M24.64,6.51c-.11,1.64,.33,3.24,.85,4.78,.3,.88,.61,1.75,.88,2.64,.24,.79,.44,1.62,.92,2.3,.09,.13,.26,.05,.24-.1-.25-1.58-.86-3.17-1.41-4.66-.6-1.63-1-3.28-1.29-4.99-.02-.12-.19-.08-.2,.03h0Z"/><path class="u" d="M25.67,6.38c.03,1.96,.79,3.69,1.43,5.51,.42,1.21,.3,3.42,1.47,4.18,.08,.05,.16-.03,.15-.11-.14-.68-.41-1.33-.55-2.02-.15-.75-.3-1.47-.55-2.19-.61-1.78-1.46-3.47-1.65-5.36-.02-.19-.3-.19-.29,0h0Z"/><path class="u" d="M26.88,6.36c-.25,1.55,.14,2.92,.72,4.35,.32,.79,.66,1.56,.98,2.35,.31,.76,.5,1.68,1.06,2.29,.08,.08,.19,.01,.2-.08,.13-1.24-.88-2.82-1.37-3.93-.67-1.52-1.54-3.25-1.36-4.96,.01-.13-.21-.16-.23-.03h0Z"/></g></g><path class="y" d="M14.57,6.46c.23-.58,.45-2.02,.45-2.09,0-.08,.07-.17,.14-.14,.02,0,.03,.03,.05,.04,.81,.91,1.56,1.88,2.25,2.88,.02,.03,.07,.03,.09,0l1.72-3.01s.04-.07,.08-.06c.47,.71,.9,1.47,1.26,2.25,.12,.25,.26,.53,.51,.63,.04,.02,.09,0,.12-.03,.74-.85,1.52-1.77,2.14-2.71,.47,.84,.93,1.67,1.4,2.51,.04,.06,.09,.14,.16,.11,.03,0,.05-.03,.06-.05,.71-.84,1.36-1.86,2.05-2.74,.03-.04,.08-.02,.08,.02,.03,.19,.2,.42,.29,.56,.29,.47,.87,1.65,.93,1.72,.12,.14,.14,.34,.06,.5-.12,.26-.24,1.53-.55,1.72-.13,.08-.59,.07-.75,.06-2.17-.15-4.34,.27-6.52,.2-.71-.03-1.42-.1-2.12-.08-.99,.03-1.68,.23-2.64,.46-.42-.28-1.1-.72-1.5-1.11-.42-.4,.06-1.22,.24-1.66Z"/><g><path class="n" d="M14.84,2.4c.04-.08,.11-.19,.19-.16,.03,0,.05,.03,.06,.05,.22,.24,.42,.49,.6,.75,.08,.12,.26,.37,.27,.62,0,.12-.22,.28-.37,.49-.11,.14-.27,.37-.32,.4-.12,.09-.27,0-.38-.1-.21-.17-.42-.34-.62-.51-.05-.05-.18-.22-.16-.29,.06-.23,.57-.88,.73-1.26Z"/><path class="u" d="M15.01,2.93s.05-.09,.09-.08c.01,0,.02,.02,.03,.03,.11,.12,.21,.24,.29,.37,.04,.06,.12,.18,.13,.3,0,.06-.11,.13-.18,.24-.05,.07-.13,.18-.15,.2-.06,.04-.13,0-.19-.05-.1-.08-.2-.17-.3-.25-.03-.02-.09-.11-.08-.14,.03-.11,.28-.43,.36-.61Z"/></g><g><path class="n" d="M19.09,2.17c.04-.08,.11-.19,.19-.16,.03,0,.04,.03,.06,.05,.22,.24,.42,.49,.6,.76,.08,.12,.26,.37,.27,.62,0,.12-.22,.28-.37,.49-.11,.14-.27,.37-.32,.4-.12,.08-.27,0-.39-.1-.21-.17-.41-.34-.62-.51-.05-.05-.18-.22-.16-.29,.06-.23,.57-.88,.73-1.26Z"/><path class="u" d="M19.26,2.7s.05-.09,.09-.08c.01,0,.02,.02,.03,.03,.11,.12,.21,.24,.29,.37,.04,.06,.13,.18,.13,.3,0,.06-.11,.13-.18,.24-.05,.07-.13,.18-.15,.19-.06,.04-.13,0-.19-.05-.1-.08-.2-.16-.3-.25-.03-.02-.09-.11-.08-.14,.03-.11,.28-.43,.36-.61Z"/></g><g><path class="n" d="M22.99,2.32c.04-.08,.11-.19,.19-.16,.03,0,.05,.03,.06,.05,.22,.24,.42,.49,.6,.75,.08,.12,.26,.37,.27,.62,0,.12-.22,.28-.37,.49-.11,.14-.27,.37-.32,.4-.12,.09-.28,0-.39-.1-.21-.17-.41-.34-.62-.51-.05-.04-.18-.22-.16-.29,.06-.23,.57-.88,.73-1.26Z"/><path class="u" d="M23.16,2.85s.05-.09,.09-.08c.01,0,.02,.01,.03,.02,.11,.12,.2,.24,.29,.37,.04,.06,.13,.18,.13,.3,0,.06-.11,.14-.18,.24-.05,.07-.13,.18-.16,.19-.06,.04-.13,0-.19-.05-.1-.08-.2-.17-.3-.25-.03-.02-.09-.11-.08-.14,.03-.11,.28-.43,.36-.61Z"/></g><g><path class="n" d="M26.75,2.24c.04-.09,.11-.19,.19-.16,.03,0,.05,.03,.07,.05,.22,.24,.42,.49,.6,.75,.08,.12,.26,.37,.27,.62,0,.12-.22,.28-.37,.49-.1,.14-.27,.37-.32,.4-.12,.08-.28,0-.39-.1-.21-.17-.41-.34-.62-.51-.05-.04-.18-.22-.16-.29,.06-.23,.57-.88,.73-1.26Z"/><path class="u" d="M26.92,2.77s.05-.09,.1-.08c.01,0,.02,.02,.03,.02,.11,.12,.21,.24,.29,.37,.04,.06,.13,.18,.13,.3,0,.06-.11,.14-.18,.24-.05,.07-.13,.18-.15,.2-.06,.04-.13,0-.19-.05-.1-.08-.2-.17-.3-.25-.03-.02-.09-.11-.08-.14,.03-.11,.28-.43,.36-.61Z"/></g><path class="y" d="M19.87,11.6c-.09,.03-.17,.07-.26,.11-.18,.11-.26,.21-.38,.39-.09,.16-.14,.34-.14,.53,0,.28,.11,.55,.31,.74,.32,.32,.88,.42,1.28,.16h.02c.23-.16,.4-.36,.47-.63,.07-.27,.03-.55-.1-.79-.11-.2-.22-.28-.4-.4,.16,.21,.32,.41,.48,.62h0c-.09-.27-.23-.48-.47-.62-.22-.13-.54-.19-.79-.1h0Z"/><path class="u" d="M14.97,14.59c.65-.11,1.85-.05,2.16-.81,.14-.34,.1-.68-.25-.87-.31-.17-.79-.06-.94,.26-.03,.06,0,.15,.08,.14,.23-.02,.49-.12,.71-.01,.25,.13,.09,.52-.08,.63-.19,.12-.45,.17-.66,.22-.37,.09-.7,.22-1.05,.35-.05,.02-.03,.09,.02,.08h0Z"/><path class="u" d="M20.93,9.41c-.61-.55-3.61-1.02-3.62,.28,0,.1,.07,.18,.16,.21,.39,.13,.86-.16,1.25-.24,.62-.13,1.43-.11,2.04,.05,.17,.04,.31-.17,.17-.29h0Z"/><path class="u" d="M15.16,5.15c-.11,.41-.06,.83,0,1.25,.04,.31,.18,.62,.18,.93,0,.59,.85,.57,.9,0,.03-.33-.15-.66-.28-.94-.19-.41-.24-.87-.46-1.28-.08-.14-.3-.11-.34,.05h0Z"/><path class="u" d="M19.1,5.06c-.2,.29-.23,.68-.27,1.02-.05,.39-.2,.78-.13,1.18,.09,.53,1,.41,.95-.13-.07-.67,.02-1.36-.17-2.02-.05-.18-.27-.19-.37-.05h0Z"/><path class="u" d="M23.11,5.27c-.14,.63-.46,1.2-.53,1.85-.08,.7,1.16,.69,1.08,0-.07-.61,.1-1.26-.09-1.85-.07-.21-.4-.24-.45,0h0Z"/><path class="u" d="M26.94,5.23c-.2,.22-.3,.46-.4,.74-.11,.31-.29,.6-.37,.93-.14,.6,.78,.86,.93,.26,.07-.29,.15-.58,.18-.88,.04-.27-.02-.55,.04-.81,.05-.21-.22-.4-.39-.22h0Z"/><path class="w" d="M15.67,8.71c.04,.11,.12,.19,.17,.29,.08,.17,.34,.02,.25-.15-.04-.08-.12-.14-.16-.22-.07-.16-.33-.1-.27,.07h0Z"/><path class="w" d="M16.19,8.44c-.07,.14-.08,.31,.01,.45,.06,.08,.15,.12,.25,.1,.16-.04,.19-.22,.12-.35-.05-.09-.12-.16-.19-.23-.05-.05-.16-.05-.19,.03h0Z"/><path class="w" d="M16.76,8.3c0,.08,.01,.17,.04,.25,.03,.1,.06,.21,.16,.25,.1,.05,.24,.02,.27-.11,.04-.19-.13-.45-.31-.51-.08-.03-.15,.05-.16,.12h0Z"/><path class="w" d="M17.36,8.18c-.03,.17-.06,.4,.1,.51,.06,.04,.17,.03,.22-.03,.08-.1,.09-.22,.02-.34-.05-.09-.11-.16-.2-.21-.05-.03-.13,0-.14,.06h0Z"/><path class="w" d="M18.07,8.07c-.1,.03-.14,.14-.16,.22-.03,.14-.01,.29,.12,.37,.09,.05,.22,.02,.26-.07,.06-.12,.02-.23-.01-.34-.03-.09-.1-.21-.21-.18h0Z"/><path class="w" d="M18.65,8c-.12,.05-.14,.23-.14,.34,0,.17,.14,.4,.33,.29,.15-.09,.13-.27,.08-.41-.04-.11-.12-.27-.26-.21h0Z"/><path class="w" d="M19.27,7.97c-.21,.09-.24,.52-.03,.62,.05,.03,.13,.04,.18,0,.14-.1,.13-.23,.09-.39-.02-.09-.12-.29-.24-.24h0Z"/><path class="w" d="M19.81,8.01c-.12,.15-.12,.38-.03,.54,.12,.22,.47,.07,.41-.17-.04-.12-.1-.26-.18-.37-.04-.05-.15-.05-.2,0h0Z"/><path class="w" d="M20.44,7.99c-.1,.04-.12,.18-.12,.27,0,.12,0,.24,.09,.34,.09,.09,.27,.08,.33-.04,.06-.13,.04-.25,0-.38-.04-.12-.16-.24-.29-.18h0Z"/><path class="w" d="M21.05,8.05c-.16,.11-.21,.45-.06,.58,.06,.05,.17,.07,.23,0,.07-.08,.1-.2,.05-.31-.03-.09-.06-.19-.12-.26-.02-.03-.07-.03-.1-.01h0Z"/><path class="w" d="M21.51,8.13c-.05,.15-.1,.3-.02,.45,.07,.13,.31,.12,.34-.04,.03-.17-.05-.29-.12-.43-.04-.1-.18-.05-.21,.03h0Z"/><path class="w" d="M22.18,8.05c-.09,.04-.12,.14-.13,.23-.03,.15,.01,.31,.14,.39,.12,.08,.24,0,.29-.12,.05-.13-.09-.59-.3-.5h0Z"/><path class="w" d="M22.79,8.09c-.11,.12-.13,.38-.03,.51,.1,.14,.29,.12,.35-.05,.06-.17-.03-.44-.22-.49-.03-.01-.08,0-.11,.03h0Z"/><path class="w" d="M23.45,8.07c-.12,.11-.12,.41,.04,.49,.07,.03,.15,.02,.19-.05,.07-.13,0-.38-.15-.45-.03-.02-.06-.01-.09,0h0Z"/><path class="w" d="M24.01,7.99c-.12,.13-.16,.45,0,.54,.04,.02,.09,.03,.13,0,.11-.08,.1-.17,.08-.29-.01-.09-.06-.19-.13-.25-.02-.03-.07-.03-.09,0h0Z"/><path class="w" d="M24.57,7.98s-.03,.13-.04,.18c-.02,.11-.02,.25,.08,.32,.09,.07,.18,.07,.26,0,.1-.08,.1-.23,.06-.34-.04-.12-.09-.2-.2-.24-.07-.03-.13,.03-.16,.09h0Z"/><path class="w" d="M25.21,7.92s-.07,.14-.08,.21c-.02,.12-.02,.24,.07,.33,.08,.07,.24,.05,.26-.07,.01-.09,0-.17-.02-.26-.02-.08-.04-.14-.07-.21-.03-.08-.13-.08-.16,0h0Z"/><path class="w" d="M25.89,7.81c-.18,.07-.18,.31-.16,.47,.01,.07,.08,.12,.14,.14,.06,.02,.1,0,.15-.02,.06-.03,.09-.11,.1-.17,0-.1,0-.22-.06-.31-.03-.05-.1-.13-.17-.11h0Z"/><path class="w" d="M26.46,7.91c-.05,.14-.18,.37-.03,.49,.05,.04,.1,.05,.15,.02,.19-.09,.12-.39,.04-.53-.04-.07-.14-.05-.16,.02h0Z"/><path class="w" d="M27.03,7.86c-.11,.13-.27,.4-.09,.55,.05,.04,.12,.06,.18,.02,.18-.12,.16-.41,.05-.56-.03-.04-.1-.06-.14-.02h0Z"/><path class="w" d="M27.58,7.96c-.07,.11-.14,.2-.16,.33-.04,.22,.27,.31,.34,.09,.04-.14,.02-.27-.03-.4-.02-.06-.11-.08-.14-.02h0Z"/><path class="y" d="M15.52,7.29c.09,.29,.53,.17,.45-.12-.08-.29-.54-.16-.45,.12h0Z"/><path class="y" d="M15.6,6.84c.25,0,.25-.39,0-.39s-.25,.39,0,.39h0Z"/><path class="y" d="M15.48,6.26c.18,0,.18-.28,0-.28s-.18,.28,0,.28h0Z"/><path class="y" d="M19.18,7.36c.34,0,.34-.52,0-.52s-.34,.52,0,.52h0Z"/><path class="y" d="M19.19,6.7c.24,0,.24-.37,0-.37s-.24,.37,0,.37h0Z"/><path class="y" d="M19.22,6.2c.15,0,.15-.23,0-.23s-.15,.23,0,.23h0Z"/><path class="y" d="M23.11,7.41c.33,0,.33-.51,0-.51s-.33,.51,0,.51h0Z"/><path class="y" d="M23.22,6.7c.21,0,.21-.33,0-.33s-.21,.33,0,.33h0Z"/><path class="y" d="M23.24,6.2c.12,0,.12-.18,0-.18s-.12,.18,0,.18h0Z"/><path class="y" d="M26.66,7.17c.27,0,.27-.42,0-.42s-.27,.42,0,.42h0Z"/><path class="y" d="M26.84,6.63c.2,0,.2-.3,0-.3s-.2,.3,0,.3h0Z"/><path class="y" d="M26.98,6.04h-.01c-.12-.05-.12,.2,.02,.13h0c.06-.03,.03-.11-.02-.13h0Z"/><path class="y" d="M13.91,20.01c-.34,0-.58,.29-.81,.51-.31,.3-.66,.57-.89,.95-.23,.4,.35,.88,.65,.5,.42-.53,.88-1.11,1.19-1.71,.06-.11-.01-.25-.15-.25h0Z"/><path class="y" d="M14.81,21.36c-.05,.11-.18,.19-.26,.28-.13,.13-.25,.26-.36,.4-.21,.27-.51,.66-.37,1.02,.16,.41,.75,.46,.88,0,.14-.48,.35-.97,.58-1.43,.16-.31-.31-.59-.47-.28h0Z"/><path class="y" d="M18.32,22.9c-.17,.24-.14,.62-.07,.88,.1,.39,.69,.3,.69-.09,0-.29-.17-.55-.31-.79-.07-.12-.23-.11-.31,0h0Z"/><path class="y" d="M22.13,20.8c-.11,.46,.18,.84,.29,1.26,.12,.48,.42,1.07,1,.94,.3-.06,.43-.38,.37-.66-.03-.15-.16-.29-.21-.37-.08-.12-.13-.26-.21-.38-.21-.33-.55-.64-.85-.89-.13-.11-.36-.08-.41,.11h0Z"/><path class="y" d="M25.05,19.43c-.05,.38,.22,.77,.42,1.08,.27,.44,.63,.79,1.04,1.1,.25,.19,.64,.04,.79-.21,.17-.29,.05-.61-.21-.79-.33-.23-.62-.52-.92-.78-.25-.22-.57-.55-.92-.55-.08,0-.18,.06-.19,.15h0Z"/><path class="u" d="M18.71,24.93c.17,0,.32-.14,.32-.32s-.14-.32-.32-.32-.32,.14-.32,.32,.14,.32,.32,.32h0Z"/><path class="u" d="M13.91,24.12c.17,0,.32-.15,.32-.32s-.15-.32-.32-.32-.32,.15-.32,.32,.15,.32,.32,.32h0Z"/><path class="u" d="M10.31,22.85c.17,0,.32-.14,.32-.32s-.15-.32-.32-.32-.32,.15-.32,.32,.15,.32,.32,.32h0Z"/><path class="u" d="M23.59,23.87c.22,0,.41-.19,.41-.41s-.19-.41-.41-.41-.41,.19-.41,.41,.19,.41,.41,.41h0Z"/><path class="u" d="M27.05,22.54c.14,.05,.3,0,.41-.11,.19-.19,.15-.52-.08-.65-.2-.11-.45-.04-.57,.15-.14,.25,0,.52,.25,.61h0Z"/><path class="u" d="M28.64,21.49c.14,.05,.3,0,.4-.11,.19-.19,.15-.52-.08-.65-.2-.12-.45-.05-.57,.15-.15,.25,0,.52,.25,.61h0Z"/><path class="y" d="M19.54,23.13s-.07,.04-.08,.08c-.07,.15,.07,.32,.23,.23h-.11c.11,.04,.23-.04,.23-.16,0-.14-.15-.21-.27-.15h0Z"/><path class="y" d="M20.28,23.1c.21,0,.21-.33,0-.33s-.21,.33,0,.33h0Z"/><path class="y" d="M21.07,23.01c.25,0,.25-.39,0-.39s-.25,.39,0,.39h0Z"/><path class="y" d="M21.69,23.05s.02,0,.03,0c.1,.03,.2-.05,.2-.15,0-.09-.1-.19-.2-.15h-.03c-.13,.06-.15,.25,0,.29h0Z"/><path class="y" d="M22.15,22.98v.02c-.05,.08-.04,.17,.02,.23h.01c.1,.12,.26,.05,.3-.07,.02-.05,.01-.09,0-.14-.03-.16-.26-.17-.33-.04h0Z"/><path class="y" d="M24.19,22.58c.18,0,.18-.29,0-.29s-.18,.29,0,.29h0Z"/><path class="y" d="M24.54,22.14c.21,0,.21-.33,0-.33s-.21,.33,0,.33h0Z"/><path class="y" d="M25.24,21.78s.01,0,.02,0h-.06c.13,.02,.26-.13,.14-.24-.03-.03-.06-.04-.1-.06-.1-.04-.2,.06-.2,.15,0,.11,.1,.17,.2,.15h0Z"/><path class="y" d="M25.89,21.83c.22,0,.22-.34,0-.34s-.22,.34,0,.34h0Z"/><path class="y" d="M28.07,21.14c.21,0,.21-.32,0-.32s-.2,.32,0,.32h0Z"/><path class="y" d="M17.97,24.2c.14,0,.14-.21,0-.21s-.14,.21,0,.21h0Z"/><path class="y" d="M17.31,23.97v.02c.12,.11,.31,.03,.31-.12s-.19-.24-.3-.12v.02c-.07,.06-.08,.16-.01,.21h0Z"/><path class="y" d="M15.88,23.14c.2,0,.2-.31,0-.31s-.2,.31,0,.31h0Z"/><path class="y" d="M15.18,23.23c.25,0,.25-.38,0-.38s-.25,.38,0,.38h0Z"/><path class="y" d="M13.49,22.34c.2,0,.2-.31,0-.31s-.2,.31,0,.31h0Z"/><path class="y" d="M11.58,21.66h0s.09-.03,.13-.05h0c-.17,.02-.27,.21-.14,.34,.12,.12,.33,.03,.34-.14,0-.06-.02-.11-.06-.15-.06-.08-.19-.06-.25,0h0Z"/><g><path class="w" d="M29.42,27.12c.44-.25,.85-.61,1.23-.94,.38-.33,.23-1.17,.52-1.85,.05-.11,.21-.12,.33-.14,1.23-.16,2.73,.64,3.51,1.6,.78,.96,1.12,2.23,1.12,3.46,0,.43-.04,.86-.17,1.27-.14,.44-1.45,1.13-1.63,1.55-.46,1.08-.35,2.5,.02,3.62-1.3,.28-1.74-.1-3.07-.17-.11,0-.22-.01-.32-.06-.2-.11-.27-.35-.29-.58-.04-.65,.25-1.32,0-1.92-.21-.51-1.69-.46-2.78-1.66-.59-.64-.71-1.63-.33-2.41,.37-.79,1.1-1.35,1.86-1.77Z"/><path class="u" d="M30.26,29.75c.09,.49,.02,.78-.1,1.27-.11,.47-.14,.55-.25,.52-.03,0-.05-.02-.08-.04-.39-.28-.78-.56-1.18-.84-.16-.11-.33-.24-.37-.44-.03-.16,.03-.32,.09-.47,.18-.43,.36-.86,.54-1.29,.01-.03,.02-.06,.04-.08,.07-.1,.22-.1,.33-.04,.11,.06,.91,1.04,.98,1.41Z"/><path class="u" d="M31.06,30.78c-.25-.41-.57-.85-.49-1.32,.02-.11,.39-.85,.63-1.31,.08-.15,.29-.16,.38-.03,.26,.37,.45,.95,.68,1.29,.04,.05,.05,.12,.04,.18-.15,.73-.3,1.17-.45,1.92h0c-.05,.22-.35,.24-.43,.04-.1-.27-.23-.52-.37-.76Z"/><path class="u" d="M32.95,31.23c-.04-.41-.08-.82-.12-1.23-.01-.11-.02-.22-.02-.34,.02-.4,.7-1.12,1.06-1.44,.1-.09,.26-.04,.3,.08,.11,.34,.21,.74,.31,1.1,.08,.26,.02,.54-.15,.75-.38,.46-.79,.87-1.12,1.39-.05,.08-.17,.07-.21-.02-.04-.09-.05-.2-.06-.3Z"/><path class="y" d="M29.19,29.54h-.02c-.23,.16-.25,.5,0,.65,.11,.07,.26,.07,.37,0,.12-.07,.17-.18,.18-.32,0,0,0-.01,0-.02,.03-.27-.33-.45-.54-.31h0Z"/><path class="y" d="M31.44,30.05c.19,0,.36-.16,.36-.36s-.16-.35-.36-.35-.35,.16-.35,.35,.16,.36,.35,.36h0Z"/><path class="y" d="M33.68,30.11c.5,0,.5-.78,0-.78s-.5,.78,0,.78h0Z"/><path class="n" d="M29.36,28.21c.38,0,.38-.6,0-.6s-.38,.6,0,.6h0Z"/><path class="n" d="M31.34,27.92c.38,0,.38-.59,0-.59s-.38,.59,0,.59h0Z"/><path class="n" d="M33.95,28.07c.21,0,.38-.17,.38-.38s-.17-.38-.38-.38-.38,.17-.38,.38,.17,.38,.38,.38h0Z"/><path class="n" d="M30.02,32.12c.33,0,.33-.51,0-.51s-.33,.51,0,.51h0Z"/><path class="n" d="M31.7,32.41c.36,0,.36-.56,0-.56s-.36,.56,0,.56h0Z"/><path class="n" d="M33.08,32.33c.41,0,.41-.63,0-.63s-.41,.63,0,.63h0Z"/></g><path class="n" d="M21.19,2.89c.08,.09,.13,.19,.19,.28,.04,.06,.11,.17,.2,.12,.03-.02,.05-.05,.05-.08-.02-.19-.22-.32-.37-.41-.06-.03-.12,.04-.07,.09h0Z"/><path class="n" d="M20.78,3.92c-.01,.15,0,.28,.1,.4,.02,.02,.07,.02,.09-.01,.02-.05,.04-.1,.04-.16,0-.07-.03-.16-.03-.23,0-.13-.19-.13-.2,0h0Z"/><path class="n" d="M21.78,4.29c.03,.12,.09,.29,.22,.33,.03,0,.07-.02,.06-.05-.01-.11-.1-.21-.14-.32-.03-.09-.16-.05-.14,.04h0Z"/><path class="n" d="M20.91,5.22c.08,.13,.15,.32,.3,.39,.09,.04,.22-.03,.18-.13-.06-.16-.23-.27-.37-.37-.07-.05-.15,.04-.11,.11h0Z"/><path class="n" d="M18.07,4.47c.13-.04,.26,0,.39-.05,.03-.01,.03-.05,0-.07-.13-.04-.29-.02-.41,.03-.05,.02-.03,.1,.02,.08h0Z"/><path class="n" d="M17.85,5.45c-.1,.05-.17,.12-.24,.21-.05,.06-.14,.2-.06,.28,.13,.13,.32-.35,.37-.42,.03-.04-.03-.09-.07-.06h0Z"/><path class="n" d="M24.49,4.43s-.08-.04-.12-.03c0,0,0,0,0,0,.05-.01,.09,0,.12,.03h0Z"/><path class="n" d="M24.46,4.35c.1,.03,.19,.05,.29,.07,.04,0,.09,.02,.13,.04,.04,0,.07-.01,.11-.03,.02,0,.03-.03,.02-.05-.07-.19-.37-.17-.53-.16-.07,0-.09,.11-.02,.13h0Z"/><path class="n" d="M25.51,4.1c-.02,.12-.02,.23,0,.35,.02,.1,.04,.28,.17,.29,.11,0,.12-.13,.09-.21-.04-.13-.09-.27-.1-.4,0-.09-.15-.13-.17-.02h0Z"/><path class="n" d="M24.81,5.19c-.03,.1-.02,.22,0,.32,.02,.11,.04,.24,.15,.29,.06,.03,.15,0,.16-.07,.02-.11-.03-.2-.06-.3-.03-.1-.07-.21-.15-.28-.04-.03-.1-.02-.11,.03h0Z"/><path class="n" d="M24.46,3.6c.05,0,.09,0,.13-.04,.02-.02,.02-.06,0-.07-.04-.04-.07-.04-.13-.03-.09,0-.09,.15,0,.15h0Z"/><path class="w" d="M23.72,37.72c-.52-.41-1.29-.11-1.81,.3-.52,.41-1.01,.95-1.66,1.02-.65,.07-1.25-.34-1.9-.4-.54-.05-1.1,.15-1.48,.54-.29,.29-.48,.68-.84,.88-.59,.34-1.33,.03-2.01,.09-.46,.04-1.14,.43-1.44,.79-.05,.06-.1,.12-.1,.2-.01,.14,.12,.26,.25,.33,.39,.2,.7,.35,1.85,1.68,.36,.42,.42,1.06,.87,1.39,.38,.28,.89,.33,1.36,.36,2.25,.13,4.52-.05,6.72-.51,.87-.18,1.75-.42,2.54-.83,.61-.32,1.17-.73,1.72-1.15,1.04-.78,2.61-1.7,3.17-2.87-.52,.41-1.57,.49-2.22,.35-.3-.06-.75-.02-.91-.28-.12-.2-.15-.45-.25-.66-.21-.46-.77-.73-1.26-.6-.43,.11-.79,.48-1.23,.48-.43,0-.77-.36-1.02-.7-.1-.14-.2-.28-.34-.39Z"/><path class="m" d="M17.21,53.44c.45,.72,1.42,.86,2.27,.93,1.48,.12,3.01,.23,4.39-.31,.51-.2,1.01-.51,1.25-1,.13-.28,.17-.59,.25-.89,.15-.55,.45-1.05,.75-1.55,.57-.94,1.13-1.88,1.7-2.82,.04-.07,.08-.14,.07-.21-.02-.19-.29-.21-.47-.18-.68,.11-1.35,.21-2.03,.32,.04-.34,.3-.62,.33-.95,.07-.63,.31-1.12,0-1.68-.39-.69-1.67-1.22-2.45-1.11-.78,.12-1.47,.55-2.1,1.03-1.25,.95-2.35,2.1-3.24,3.38-.29,.42-.56,.86-.73,1.34-.24,.71-.25,1.47-.26,2.22,0,.51,0,1.06,.27,1.49Z"/><path class="n" d="M18.15,48.68c.99-.32,1.94-.81,2.77-1.43,.72-.54,1.61-.8,2.38-1.27,.77-.46,2.36-1.17,2.33,.29,0,.23,.58-.19,.81-.22,.19-.03,.32-.18,.43-.33,.3-.4,.52-.64,.45-1.13-.06-.46-.33-.9-.61-1.27-.29-.39-.52-.98-.74-1.41-.41-.8-.82-1.6-1.23-2.4-.12-.23-.24-.46-.43-.62-.19-.16-.48-.25-.7-.13-.12,.06-.21,.17-.3,.28-.49,.6-1.05,1.14-1.68,1.6-1.4,1.01-3.1,1.5-4.65,2.27-1.55,.77-3.05,1.97-3.42,3.66-.2,.94-.01,1.95,.51,2.75,.09,.14,.2,.28,.36,.35,.17,.07,.37,.04,.55,0,1.09-.21,2.09-.64,3.15-.98Z"/><path class="w" d="M24.37,54.71c.03,.1,.03,.2,.02,.3-.04,.28-.09,.56-.15,.84-.21,.95-.41,2.19-1.27,2.8-.28,.2-.62,.32-.95,.43-.73,.25-1.56,.56-2.29,.82,.12,.18,.17,.35,.27,.52,.07,.11,.06,.24-.01,.34-.16,.22-.33,.53-.45,.78-.05,.09-.17,.09-.22,0-.12-.23-.24-.5-.39-.71-.08-.12-.1-.26-.05-.39,.09-.23,.19-.51,.18-.54-.01-.04-1.66-.5-2.11-.67-.81-.29-1.67-.62-2.2-1.3-.28-.36-.45-.8-.6-1.23-.16-.44-.33-.88-.49-1.32,1.22-.07,2.45-.14,3.67-.21,.5-.03,.99-.05,1.49-.06,.38,0,.76,.01,1.15,0,1.42-.06,2.81-.52,4.23-.46,.05,0,.1,.02,.13,.05,.04,.04,.1,.03,.04,.04Z"/><path class="j" d="M23.71,51.29c-.44,.49-1.03,.74-1.62,.84-1.04,.18-1.44-.17-1.88-.61,.78-.51,1.68-.71,2.58-.57,.31,.05,.63,.14,.92,.33Z"/><path class="u" d="M22.43,51.82c.08-.15,.09-.28,.06-.45-.04-.22-.22-.33-.41-.41-.23-.09-.51,.06-.62,.25-.13,.23-.07,.47,.09,.67,.03,.04,.08,.08,.13,.11,.17,.07,.18,.07,.03,.01-.06-.06-.13-.13-.19-.19h0c.11,.17,.26,.27,.46,.27,.18,0,.37-.1,.46-.26h0Z"/><g class="x"><path class="u" d="M26.49,47.24c.05-.98,.19-1.96,.19-2.95,0-1-.12-1.99-.15-2.99,0-.08-.13-.11-.15-.02-.17,.88-.18,1.75-.14,2.64,.05,1.11-.05,2.21,.02,3.32,0,.15,.23,.15,.24,0h0Z"/><path class="u" d="M25.46,47.5c.04-.69,.18-1.37,.22-2.07,.04-.85,0-1.71,.03-2.57,.05-1.49,.4-3.18,0-4.64-.03-.1-.18-.11-.21,0-.29,1.36-.18,2.9-.21,4.29-.03,1.66,0,3.33-.01,4.99,0,.11,.16,.11,.17,0h0Z"/><path class="u" d="M24.84,47.25c.15-3.68,.2-7.34-.51-10.97-.02-.09-.15-.06-.16,.02-.15,1.78,.18,3.65,.24,5.44,.06,1.84,.05,3.67,.23,5.5,.01,.13,.19,.13,.2,0h0Z"/><path class="u" d="M23.85,47.43c.15-3.68,.19-7.34-.51-10.97-.02-.09-.15-.06-.16,.02-.15,1.78,.18,3.65,.24,5.44,.06,1.84,.05,3.67,.23,5.51,.01,.13,.2,.13,.2,0h0Z"/><path class="u" d="M23.19,47.39c.16-1.96-.1-3.92-.35-5.87-.2-1.58-.25-3.37-.96-4.82-.03-.07-.15-.04-.14,.04,.11,1.7,.44,3.43,.63,5.12,.21,1.85,.38,3.71,.66,5.54,.01,.09,.15,.06,.16-.02h0Z"/><path class="u" d="M22.28,48.33c.22-.86,.12-1.82,.1-2.7-.03-1.02-.11-2.05-.26-3.06-.17-1.11-.42-2.2-.61-3.31-.13-.74,0-1.65-.54-2.25-.06-.06-.19-.02-.18,.07,.21,1.64,.43,3.25,.74,4.88,.21,1.09,.33,2.19,.44,3.29,.1,.97,.33,2.1,.25,3.06,0,.04,.06,.04,.07,0h0Z"/><path class="u" d="M21.72,48.39c.04-.92,.15-1.77,.03-2.69-.11-.8-.3-1.58-.45-2.37-.36-1.88-.72-3.9-1.42-5.68-.03-.08-.16-.08-.16,.02,.14,1.81,.69,3.65,1.06,5.43,.18,.89,.4,1.77,.58,2.66,.18,.88,.14,1.77,.3,2.64,0,.03,.06,.02,.06,0h0Z"/><path class="u" d="M20.73,48.58c.41-1.31-.15-2.91-.5-4.18-.47-1.73-1.04-3.44-1.5-5.17-.02-.09-.17-.1-.19,0-.1,.54,.04,.99,.18,1.51,.21,.8,.43,1.59,.66,2.39,.24,.82,.51,1.63,.74,2.45,.26,.89,.7,2.04,.46,2.97-.02,.09,.11,.13,.14,.04h0Z"/><path class="u" d="M19.92,49.6c.21-.62,.06-1.26-.03-1.88-.15-1.06-.43-2.09-.74-3.11-.58-1.87-1.15-3.84-1.98-5.62-.04-.08-.17-.04-.17,.04,.03,.79,.37,1.58,.59,2.34,.26,.91,.59,1.79,.92,2.68,.32,.89,.59,1.8,.83,2.72,.22,.88,.58,1.91,.5,2.81,0,.06,.08,.06,.09,.01h0Z"/><path class="u" d="M19.15,49.65c-.04-1.58-.42-3.04-.92-4.53-.55-1.63-.91-3.43-1.74-4.94-.05-.1-.18-.03-.17,.07,.49,3.23,2.39,6.13,2.67,9.4,0,.1,.17,.11,.16,0h0Z"/><path class="u" d="M17.83,49.92c.07-1.66-.43-3.23-.98-4.78-.27-.76-.61-1.49-.89-2.25-.22-.59-.19-1.23-.62-1.72-.08-.09-.2,0-.19,.11,.49,2.98,2.06,5.64,2.54,8.65,.01,.09,.14,.06,.14-.02h0Z"/><path class="u" d="M16.61,50.64c.29-3.04-1.25-5.64-2.47-8.29-.04-.08-.15-.02-.14,.06,.23,1.42,.95,2.65,1.47,3.98,.54,1.37,.76,2.83,1.04,4.27,.01,.06,.09,.04,.1-.01h0Z"/><path class="u" d="M15.47,50.66c.31-1.23-.32-2.79-.71-3.94-.47-1.38-.96-3.12-1.86-4.3-.05-.07-.2-.06-.19,.05,.16,1.27,.84,2.52,1.3,3.7,.26,.67,.5,1.34,.73,2.02,.26,.75,.65,1.63,.55,2.44-.01,.1,.15,.12,.17,.02h0Z"/><path class="u" d="M14.46,50.85c.18-2.43-1.58-4.7-2.53-6.8-.04-.08-.15-.02-.14,.06,.14,1.07,.71,1.97,1.19,2.91,.61,1.18,1.16,2.53,1.34,3.84,.01,.08,.13,.05,.14-.02h0Z"/></g><g><path class="n" d="M27.79,45.37c-.12,.38-.63,1.7-2.02,2.29-.41,.18-.82,.42-1.27,.38-.44-.04-.84-.28-1.21-.52-.65-.41-1.32-.84-1.74-1.48,1.17-.13,2.38,.08,3.44,.61,.8-.59,1.81-1.11,2.79-1.29Z"/><g class="l"><path class="u" d="M26.64,49.12c.63-1.73,1.33-3.64,1.37-5.5,0-.1-.14-.12-.16-.02-.47,1.83-.78,3.67-1.36,5.48-.03,.1,.12,.14,.15,.04h0Z"/><path class="u" d="M25.91,49.2c1.01-1.87,1.31-4.03,1.46-6.11,0-.09-.14-.14-.18-.05-.35,.81-.37,1.71-.55,2.57-.26,1.17-.34,2.42-.87,3.51-.04,.09,.09,.18,.14,.08h0Z"/><path class="u" d="M25.12,49.62c.36-.98,.62-1.97,.88-2.98,.25-1.01,.61-2.03,.73-3.07,.01-.11-.15-.14-.2-.05-1.05,1.71-1.21,4.12-1.55,6.06-.02,.1,.11,.13,.15,.04h0Z"/><path class="u" d="M24.78,49.83c-.01-1.96,.02-3.96-.33-5.9-.02-.1-.16-.06-.17,.02-.21,1.95,.19,3.93,.32,5.88,0,.12,.18,.12,.18,0h0Z"/><path class="u" d="M24.01,49.72c.03-1.23-.14-2.43-.22-3.65-.06-.91-.13-1.88-.63-2.66-.06-.09-.19-.03-.17,.07,.2,.96,.27,1.92,.35,2.89,.1,1.12,.35,2.23,.48,3.36,.01,.12,.18,.12,.19,0h0Z"/><path class="u" d="M23.27,48.98c-.01-1.08-.28-2.1-.5-3.15-.22-1.03-.1-2.26-.58-3.21-.05-.09-.19-.05-.19,.05,0,2.15,.92,4.19,1.06,6.31,0,.14,.22,.14,.22,0h0Z"/><path class="u" d="M22.39,48.42c-.01-1.08-.28-2.1-.5-3.15-.22-1.03-.1-2.26-.58-3.21-.05-.09-.19-.05-.19,.05,0,2.15,.92,4.19,1.06,6.31,0,.14,.22,.14,.22,0h0Z"/></g></g><g><path class="n" d="M19.53,54.13c-.23-1.05-.45-2.11-.68-3.16-.24-1.12-.48-2.25-.44-3.4,0-.14-.1-.24-.24-.21-2.33,.48-4.38,1.84-6.59,2.71-.12,.05-.16,.21-.07,.3,.99,1.03,1.65,2.38,1.85,3.79,.01,.09,.09,.16,.19,.16,1.92-.06,3.84-.13,5.77-.19,.17,0,.33,.11,.21,0Z"/><g class="v"><path class="u" d="M19.24,54.9c-.16-1.78-.61-3.62-.96-5.38-.26-1.3-.22-3.45-1.31-4.37-.09-.08-.22,0-.2,.12,.11,.67,.44,1.31,.61,1.98,.2,.79,.3,1.6,.46,2.4,.18,.92,.37,1.83,.56,2.75,.18,.87,.54,1.67,.74,2.52,.01,.06,.11,.05,.1-.01h0Z"/><path class="u" d="M18.48,55.25c-.02-1.76-.44-3.39-.9-5.08-.43-1.57-.39-3.58-1.31-4.97-.06-.09-.22-.09-.24,.03-.11,.55,.12,1.02,.29,1.55,.3,.92,.39,1.91,.61,2.84,.43,1.88,1.17,3.69,1.36,5.63,.01,.12,.19,.12,.19,0h0Z"/><path class="u" d="M17.62,55.48c-.43-1.74-.62-3.51-1.19-5.23-.3-.9-.55-1.82-.82-2.73-.16-.52-.31-1.07-.78-1.39-.07-.05-.17,.03-.14,.11,.53,1.47,.83,3.01,1.33,4.49,.52,1.54,.63,3.4,1.43,4.82,.05,.1,.2,.03,.17-.07h0Z"/><path class="u" d="M16.41,55.68c.11-1.64-.33-3.24-.85-4.78-.3-.88-.61-1.75-.88-2.64-.24-.79-.44-1.62-.92-2.3-.09-.13-.26-.05-.24,.1,.25,1.58,.86,3.17,1.41,4.66,.6,1.62,1,3.28,1.29,4.99,.02,.12,.19,.08,.2-.03h0Z"/><path class="u" d="M15.38,55.8c-.03-1.96-.79-3.69-1.43-5.51-.42-1.21-.3-3.42-1.47-4.18-.08-.05-.16,.03-.15,.11,.14,.68,.41,1.33,.55,2.02,.15,.75,.3,1.47,.55,2.19,.61,1.78,1.46,3.47,1.65,5.36,.02,.19,.3,.19,.29,0h0Z"/><path class="u" d="M14.17,55.83c.25-1.55-.14-2.92-.72-4.35-.32-.79-.66-1.56-.98-2.35-.31-.76-.5-1.68-1.06-2.29-.07-.08-.19-.01-.2,.08-.13,1.23,.88,2.81,1.37,3.92,.67,1.52,1.54,3.25,1.36,4.96-.01,.13,.21,.16,.23,.03h0Z"/></g></g><path class="y" d="M26.48,55.73c-.23,.58-.45,2.02-.45,2.09s-.07,.17-.14,.14c-.02,0-.03-.03-.05-.04-.81-.92-1.56-1.88-2.25-2.89-.02-.03-.07-.03-.09,0l-1.72,3.01s-.04,.06-.08,.06c-.48-.71-.9-1.47-1.26-2.25-.12-.25-.26-.53-.5-.63-.04-.02-.09,0-.12,.03-.74,.85-1.52,1.77-2.14,2.71-.47-.84-.93-1.67-1.4-2.51-.04-.06-.1-.14-.16-.11-.03,0-.05,.03-.06,.05-.71,.84-1.36,1.87-2.04,2.74-.03,.03-.08,.02-.08-.03-.03-.18-.2-.42-.29-.56-.29-.47-.87-1.65-.93-1.73-.12-.14-.14-.34-.07-.5,.12-.26,.24-1.53,.55-1.72,.13-.08,.59-.07,.75-.06,2.17,.15,4.34-.27,6.52-.19,.71,.02,1.42,.1,2.12,.08,.99-.03,1.67-.23,2.63-.46,.42,.28,1.1,.72,1.5,1.11,.42,.4-.06,1.22-.24,1.66Z"/><g><path class="n" d="M26.21,59.78c-.04,.09-.11,.19-.19,.16-.03,0-.05-.03-.06-.05-.22-.24-.42-.49-.6-.75-.08-.12-.26-.37-.27-.62,0-.12,.22-.28,.37-.49,.1-.14,.27-.37,.32-.4,.12-.08,.27,0,.39,.1,.21,.17,.42,.34,.62,.51,.05,.04,.18,.22,.16,.29-.06,.23-.57,.88-.73,1.26Z"/><path class="u" d="M26.04,59.26s-.05,.09-.09,.08c-.01,0-.02-.02-.03-.03-.11-.11-.21-.24-.29-.37-.04-.06-.12-.18-.13-.3,0-.06,.11-.14,.18-.24,.05-.07,.13-.18,.16-.2,.06-.04,.13,0,.19,.05,.1,.08,.2,.17,.3,.25,.03,.02,.09,.11,.08,.14-.03,.11-.28,.43-.36,.62Z"/></g><g><path class="n" d="M21.96,60.01c-.04,.08-.11,.19-.19,.16-.03,0-.05-.03-.07-.05-.22-.23-.42-.49-.6-.75-.08-.12-.26-.37-.27-.62,0-.12,.22-.28,.37-.49,.11-.14,.27-.37,.32-.4,.12-.08,.28,0,.39,.1,.21,.17,.41,.34,.62,.51,.05,.04,.18,.22,.16,.29-.06,.23-.57,.88-.73,1.26Z"/><path class="u" d="M21.79,59.48s-.05,.09-.09,.08c-.01,0-.02-.02-.03-.03-.11-.12-.21-.24-.29-.37-.04-.06-.13-.18-.13-.3,0-.06,.11-.14,.18-.24,.05-.07,.13-.18,.16-.2,.06-.04,.13,0,.19,.05,.1,.08,.2,.16,.3,.25,.03,.02,.09,.11,.08,.14-.03,.11-.28,.43-.36,.61Z"/></g><g><path class="n" d="M18.06,59.87c-.04,.08-.11,.19-.19,.16-.03,0-.05-.03-.06-.05-.22-.24-.42-.49-.6-.75-.08-.12-.26-.37-.27-.62,0-.12,.22-.28,.37-.49,.11-.14,.27-.37,.32-.4,.12-.09,.28,0,.39,.1,.21,.17,.41,.34,.62,.51,.05,.04,.18,.22,.16,.29-.06,.23-.57,.88-.73,1.26Z"/><path class="u" d="M17.89,59.34s-.05,.09-.09,.08c-.01,0-.02-.01-.03-.02-.11-.12-.21-.24-.29-.37-.04-.06-.13-.18-.13-.3,0-.06,.11-.14,.18-.24,.05-.07,.13-.18,.15-.2,.06-.04,.13,0,.19,.05,.1,.08,.2,.17,.3,.25,.03,.02,.09,.11,.08,.14-.03,.11-.28,.43-.36,.61Z"/></g><g><path class="n" d="M14.3,59.94c-.04,.09-.11,.19-.19,.16-.03,0-.05-.03-.07-.05-.22-.24-.42-.49-.6-.75-.08-.12-.26-.37-.26-.62,0-.12,.22-.28,.37-.49,.1-.14,.27-.37,.32-.4,.12-.09,.27,0,.39,.1,.21,.17,.42,.34,.62,.51,.05,.04,.18,.22,.16,.29-.06,.23-.57,.88-.73,1.26Z"/><path class="u" d="M14.13,59.41s-.05,.09-.09,.08c-.01,0-.02-.01-.03-.02-.11-.12-.21-.24-.29-.37-.04-.06-.13-.18-.13-.3,0-.06,.11-.14,.18-.24,.05-.07,.13-.18,.16-.19,.06-.04,.13,0,.19,.05,.1,.08,.2,.17,.3,.25,.03,.02,.09,.11,.08,.14-.03,.11-.28,.43-.36,.61Z"/></g><path class="y" d="M21.18,50.58c.09-.03,.17-.07,.25-.11,.18-.11,.26-.22,.38-.39,.09-.16,.14-.34,.14-.53,0-.28-.11-.55-.31-.74-.32-.32-.88-.43-1.28-.17,0,0-.01,0-.02,.01-.23,.15-.4,.35-.47,.62-.07,.27-.03,.55,.1,.79,.11,.2,.22,.28,.4,.41-.16-.21-.32-.41-.48-.62h0c.09,.27,.23,.48,.47,.62,.22,.13,.54,.19,.79,.1h0Z"/><path class="u" d="M26.08,47.6c-.65,.11-1.85,.05-2.16,.81-.14,.34-.09,.68,.25,.87,.31,.17,.79,.06,.94-.26,.03-.06,0-.15-.08-.14-.23,.02-.49,.12-.71,.01-.25-.13-.09-.52,.08-.63,.19-.12,.44-.17,.66-.22,.37-.09,.7-.22,1.05-.35,.05-.02,.03-.09-.02-.08h0Z"/><path class="u" d="M20.12,52.78c.61,.55,3.61,1.02,3.62-.28,0-.1-.07-.18-.16-.21-.39-.13-.86,.16-1.25,.24-.62,.13-1.43,.11-2.04-.05-.17-.04-.31,.17-.17,.3h0Z"/><path class="u" d="M25.89,57.03c.11-.41,.06-.83,0-1.25-.04-.31-.18-.62-.18-.93,0-.59-.86-.57-.91,0-.03,.33,.15,.66,.28,.94,.19,.41,.24,.87,.46,1.28,.08,.14,.3,.11,.34-.04h0Z"/><path class="u" d="M21.95,57.12c.2-.29,.23-.68,.27-1.02,.05-.39,.2-.78,.13-1.18-.09-.53-1-.41-.95,.13,.07,.67-.02,1.36,.17,2.02,.05,.18,.27,.19,.37,.05h0Z"/><path class="u" d="M17.94,56.92c.14-.63,.46-1.2,.53-1.85,.08-.7-1.16-.69-1.08,0,.07,.61-.1,1.26,.09,1.85,.07,.21,.4,.24,.45,0h0Z"/><path class="u" d="M14.11,56.96c.2-.22,.3-.46,.4-.74,.11-.31,.29-.6,.37-.93,.14-.6-.78-.86-.93-.26-.07,.29-.14,.58-.18,.88-.04,.27,.02,.54-.04,.81-.05,.21,.22,.41,.39,.22h0Z"/><path class="w" d="M25.38,53.48c-.04-.11-.12-.19-.17-.29-.08-.17-.34-.02-.25,.15,.04,.08,.12,.14,.16,.22,.06,.16,.33,.1,.27-.07h0Z"/><path class="w" d="M24.86,53.74c.07-.14,.08-.31-.01-.45-.06-.08-.15-.12-.25-.1-.16,.04-.19,.22-.12,.35,.05,.09,.12,.16,.19,.23,.05,.05,.16,.05,.19-.03h0Z"/><path class="w" d="M24.29,53.88c0-.08-.01-.17-.04-.25-.03-.1-.06-.21-.16-.25-.1-.05-.24-.02-.27,.11-.04,.19,.13,.45,.31,.51,.08,.03,.15-.05,.16-.12h0Z"/><path class="w" d="M23.69,54c.03-.17,.06-.4-.1-.51-.06-.04-.17-.03-.22,.03-.08,.1-.09,.22-.02,.34,.05,.09,.11,.16,.2,.21,.05,.03,.13,0,.14-.06h0Z"/><path class="w" d="M22.98,54.12c.1-.03,.14-.14,.16-.22,.03-.14,.01-.29-.12-.37-.09-.05-.22-.02-.26,.07-.06,.12-.02,.23,.01,.35,.03,.09,.1,.21,.21,.18h0Z"/><path class="w" d="M22.4,54.19c.12-.05,.14-.23,.14-.34,.01-.17-.14-.4-.33-.29-.15,.09-.13,.27-.08,.41,.04,.11,.12,.27,.26,.21h0Z"/><path class="w" d="M21.78,54.21c.21-.09,.24-.52,.04-.63-.05-.03-.13-.04-.18,0-.14,.1-.13,.24-.09,.39,.02,.09,.12,.29,.24,.24h0Z"/><path class="w" d="M21.24,54.17c.12-.15,.12-.38,.03-.54-.12-.22-.48-.07-.41,.17,.04,.12,.1,.26,.18,.37,.04,.05,.16,.05,.2,0h0Z"/><path class="w" d="M20.61,54.19c.1-.05,.12-.18,.12-.27,0-.12,0-.24-.09-.34-.09-.09-.27-.08-.32,.04-.06,.13-.04,.25,0,.38,.04,.12,.16,.24,.29,.18h0Z"/><path class="w" d="M20,54.13c.16-.11,.21-.45,.06-.58-.06-.05-.17-.07-.23,0-.07,.08-.1,.2-.06,.31,.03,.09,.06,.19,.12,.26,.02,.03,.07,.03,.1,.01h0Z"/><path class="w" d="M19.54,54.05c.05-.15,.1-.3,.02-.45-.07-.13-.31-.12-.34,.04-.03,.17,.05,.29,.12,.43,.04,.1,.18,.05,.21-.03h0Z"/><path class="w" d="M18.87,54.13c.09-.04,.12-.14,.13-.23,.03-.15-.01-.31-.14-.39-.12-.08-.24,0-.29,.12-.05,.13,.09,.59,.3,.5h0Z"/><path class="w" d="M18.26,54.1c.11-.12,.13-.38,.03-.51-.1-.14-.29-.12-.35,.04-.06,.17,.03,.44,.21,.5,.04,0,.08,0,.11-.03h0Z"/><path class="w" d="M17.6,54.12c.12-.11,.12-.41-.04-.49-.07-.03-.15-.02-.19,.05-.07,.13,0,.38,.15,.45,.03,.01,.06,.01,.09-.01h0Z"/><path class="w" d="M17.04,54.19c.12-.13,.16-.45,0-.55-.04-.02-.09-.03-.13,0-.11,.08-.1,.17-.08,.3,.01,.09,.06,.19,.13,.25,.03,.02,.07,.03,.09,0h0Z"/><path class="w" d="M16.48,54.2s.03-.13,.04-.18c.02-.11,.02-.25-.08-.32-.09-.07-.18-.07-.26,0-.1,.08-.1,.23-.06,.35,.04,.11,.09,.19,.2,.24,.07,.03,.13-.03,.16-.09h0Z"/><path class="w" d="M15.84,54.27s.07-.14,.08-.21c.02-.12,.02-.24-.07-.33-.08-.07-.24-.05-.26,.07-.01,.09,0,.17,.02,.26,.02,.08,.04,.14,.07,.21,.03,.08,.13,.08,.16,0h0Z"/><path class="w" d="M15.16,54.38c.18-.07,.18-.31,.16-.47,0-.07-.08-.12-.14-.14-.06-.02-.1,0-.15,.02-.07,.03-.09,.11-.1,.17,0,.1,0,.22,.06,.31,.03,.05,.1,.13,.17,.11h0Z"/><path class="w" d="M14.59,54.28c.05-.14,.18-.37,.03-.49-.05-.04-.1-.05-.16-.02-.19,.09-.12,.39-.04,.53,.04,.07,.14,.05,.16-.02h0Z"/><path class="w" d="M14.02,54.33c.11-.13,.27-.4,.09-.55-.05-.04-.12-.06-.18-.02-.17,.12-.15,.4-.04,.56,.03,.04,.1,.06,.14,.02h0Z"/><path class="w" d="M13.47,54.23c.07-.11,.14-.2,.16-.33,.04-.22-.27-.31-.34-.09-.04,.14-.02,.27,.03,.4,.03,.06,.11,.08,.15,.02h0Z"/><path class="y" d="M25.53,54.89c-.09-.29-.53-.17-.45,.12,.08,.29,.54,.16,.45-.12h0Z"/><path class="y" d="M25.45,55.34c-.25,0-.25,.39,0,.39s.25-.39,0-.39h0Z"/><path class="y" d="M25.57,55.93c-.18,0-.18,.28,0,.28s.18-.28,0-.28h0Z"/><path class="y" d="M21.87,54.83c-.34,0-.34,.52,0,.52s.34-.52,0-.52h0Z"/><path class="y" d="M21.86,55.48c-.24,0-.24,.37,0,.37s.23-.37,0-.37h0Z"/><path class="y" d="M21.83,55.98c-.15,0-.15,.23,0,.23s.15-.23,0-.23h0Z"/><path class="y" d="M17.93,54.77c-.33,0-.33,.51,0,.51s.33-.51,0-.51h0Z"/><path class="y" d="M17.83,55.49c-.21,0-.21,.33,0,.33s.21-.33,0-.33h0Z"/><path class="y" d="M17.81,55.99c-.12,0-.12,.18,0,.18s.12-.18,0-.18h0Z"/><path class="y" d="M14.39,55.02c-.27,0-.27,.42,0,.42s.27-.42,0-.42h0Z"/><path class="y" d="M14.21,55.56c-.2,0-.2,.3,0,.3s.2-.3,0-.3h0Z"/><path class="y" d="M14.07,56.15h0c.12,.05,.12-.2-.02-.13h0c-.06,.04-.03,.11,.02,.13h0Z"/><path class="y" d="M27.14,42.18c.34,0,.58-.29,.81-.51,.31-.29,.66-.57,.89-.95,.23-.4-.35-.88-.65-.5-.42,.53-.88,1.11-1.19,1.71-.06,.11,.01,.26,.15,.25h0Z"/><path class="y" d="M26.24,40.83c.05-.11,.18-.19,.26-.28,.13-.13,.25-.26,.36-.41,.21-.27,.51-.66,.37-1.02-.16-.41-.75-.46-.88,0-.14,.48-.35,.97-.58,1.43-.16,.31,.31,.59,.47,.28h0Z"/><path class="y" d="M22.73,39.29c.17-.24,.14-.62,.08-.88-.1-.39-.69-.3-.69,.09,0,.29,.17,.55,.31,.79,.07,.12,.23,.11,.31,0h0Z"/><path class="y" d="M18.92,41.38c.11-.46-.18-.84-.29-1.26-.12-.48-.42-1.07-1-.94-.3,.06-.43,.38-.37,.66,.03,.15,.16,.29,.21,.37,.08,.12,.13,.26,.21,.38,.21,.33,.55,.64,.85,.89,.13,.11,.36,.08,.41-.11h0Z"/><path class="y" d="M16,42.76c.05-.38-.22-.77-.42-1.08-.28-.44-.63-.79-1.04-1.1-.25-.19-.64-.04-.79,.21-.17,.29-.05,.61,.21,.79,.33,.23,.62,.52,.92,.78,.25,.22,.57,.55,.92,.55,.08,0,.18-.06,.19-.15h0Z"/><path class="u" d="M22.34,37.26c-.17,0-.32,.14-.32,.31s.14,.32,.32,.32,.32-.14,.32-.32-.14-.31-.32-.31h0Z"/><path class="u" d="M27.14,38.06c-.18,0-.32,.15-.32,.32s.15,.32,.32,.32,.32-.15,.32-.32-.15-.32-.32-.32h0Z"/><path class="u" d="M30.74,39.33c-.17,0-.32,.14-.32,.32s.15,.32,.32,.32,.32-.14,.32-.32-.15-.32-.32-.32h0Z"/><path class="u" d="M17.46,38.32c-.22,0-.41,.19-.41,.41s.19,.41,.41,.41,.41-.19,.41-.41-.19-.41-.41-.41h0Z"/><path class="u" d="M14,39.65c-.14-.05-.3,0-.4,.11-.19,.19-.15,.52,.08,.65,.2,.12,.45,.04,.57-.15,.15-.25,0-.52-.25-.61h0Z"/><path class="u" d="M12.41,40.7c-.14-.05-.3,0-.4,.11-.19,.19-.15,.52,.08,.65,.2,.12,.45,.05,.57-.15,.15-.25,0-.52-.25-.61h0Z"/><path class="y" d="M21.51,39.06s.07-.05,.08-.08c.07-.15-.07-.32-.23-.23h-.01s.09,0,.13,0c0,0-.01,0-.02,0-.11-.02-.23,.05-.23,.17,0,.14,.15,.21,.27,.16h0Z"/><path class="y" d="M20.77,39.09c-.21,0-.21,.33,0,.33s.21-.33,0-.33h0Z"/><path class="y" d="M19.98,39.17c-.25,0-.25,.4,0,.4s.25-.4,0-.4h0Z"/><path class="y" d="M19.36,39.13s-.02,0-.03,0c-.1-.03-.2,.05-.2,.15,0,.09,.1,.19,.2,.15,0,0,.02,0,.03-.01,.13-.05,.15-.24,0-.28h0Z"/><path class="y" d="M18.89,39.2v-.02c.05-.08,.04-.16-.02-.23h0c-.1-.12-.26-.05-.3,.07-.02,.05,0,.09,0,.14,.03,.16,.26,.17,.33,.04h0Z"/><path class="y" d="M16.86,39.6c-.18,0-.18,.29,0,.29s.18-.29,0-.29h0Z"/><path class="y" d="M16.51,40.04c-.21,0-.21,.33,0,.33s.21-.33,0-.33h0Z"/><path class="y" d="M15.81,40.41s-.01,0-.02,0h.06c-.13-.02-.26,.13-.14,.24,.03,.03,.06,.05,.1,.06,.1,.04,.2-.06,.2-.15,0-.11-.1-.17-.2-.15h0Z"/><path class="y" d="M15.16,40.36c-.22,0-.22,.34,0,.34s.22-.34,0-.34h0Z"/><path class="y" d="M12.98,41.04c-.21,0-.21,.32,0,.32s.2-.32,0-.32h0Z"/><path class="y" d="M23.08,37.99c-.14,0-.14,.21,0,.21s.14-.21,0-.21h0Z"/><path class="y" d="M23.74,38.21v-.02c-.12-.11-.31-.03-.31,.12s.19,.24,.3,.12v-.02c.07-.06,.08-.16,.01-.21h0Z"/><path class="y" d="M25.17,39.05c-.2,0-.2,.31,0,.31s.2-.31,0-.31h0Z"/><path class="y" d="M25.87,38.96c-.25,0-.25,.38,0,.38s.25-.38,0-.38h0Z"/><path class="y" d="M27.55,39.85c-.2,0-.2,.31,0,.31s.2-.31,0-.31h0Z"/><path class="y" d="M29.47,40.52h0s-.09,.03-.13,.04h0c.16-.02,.27-.21,.14-.34-.12-.12-.33-.03-.34,.14,0,.06,.02,.11,.06,.15,.06,.08,.19,.06,.25,0h0Z"/><g><path class="w" d="M11.63,35.07c-.44,.25-.85,.61-1.23,.94-.38,.33-.36,1.11-.65,1.79-.05,.11-.21,.12-.33,.14-1.23,.16-2.6-.58-3.38-1.54-.78-.96-1.12-2.23-1.12-3.46,0-.43,.04-.86,.17-1.27,.14-.44,1.45-1.13,1.63-1.55,.46-1.08,.49-1.82,.12-2.94,1.3-.28,1.6-.58,2.92-.51,.11,0,.22,.01,.32,.06,.2,.11,.27,.36,.28,.58,.04,.65-.25,1.32,0,1.92,.21,.51,1.69,.46,2.78,1.66,.59,.64,.71,1.63,.33,2.41-.38,.79-1.1,1.35-1.86,1.77Z"/><path class="u" d="M10.79,32.44c-.09-.49-.02-.78,.1-1.27,.11-.47,.14-.55,.25-.52,.03,0,.05,.03,.08,.04,.39,.28,.78,.56,1.18,.84,.16,.11,.33,.24,.37,.44,.03,.16-.03,.32-.09,.47-.18,.43-.36,.86-.54,1.29-.01,.03-.02,.06-.04,.08-.07,.1-.22,.1-.33,.04-.1-.06-.91-1.04-.98-1.41Z"/><path class="u" d="M9.99,31.41c.25,.41,.57,.85,.49,1.32-.02,.11-.39,.85-.63,1.31-.08,.15-.29,.16-.39,.03-.26-.37-.45-.95-.68-1.29-.04-.05-.05-.12-.04-.18,.15-.73,.3-1.17,.45-1.92h0c.04-.22,.35-.24,.43-.04,.1,.26,.23,.52,.37,.77Z"/><path class="u" d="M8.1,30.95c.04,.41,.08,.82,.12,1.23,0,.11,.02,.22,.02,.34-.02,.4-.7,1.12-1.06,1.44-.1,.09-.26,.04-.3-.08-.11-.34-.21-.74-.31-1.1-.08-.26-.02-.54,.15-.74,.38-.46,.79-.87,1.12-1.39,.05-.08,.17-.07,.21,.02,.04,.09,.05,.2,.06,.3Z"/><path class="y" d="M11.86,32.65h.02c.22-.16,.25-.5,0-.65-.11-.07-.26-.07-.37,0-.12,.07-.17,.18-.18,.32v.02c-.03,.27,.33,.45,.54,.31h0Z"/><path class="y" d="M9.61,32.13c-.19,0-.36,.16-.36,.36s.16,.36,.36,.36,.36-.16,.36-.36-.16-.36-.36-.36h0Z"/><path class="y" d="M7.37,32.08c-.5,0-.5,.78,0,.78s.5-.78,0-.78h0Z"/><path class="n" d="M11.69,33.97c-.38,0-.38,.6,0,.6s.38-.6,0-.6h0Z"/><path class="n" d="M9.71,34.27c-.38,0-.38,.59,0,.59s.38-.59,0-.59h0Z"/><path class="n" d="M7.1,34.12c-.21,0-.38,.17-.38,.38s.17,.38,.38,.38,.38-.17,.38-.38-.17-.38-.38-.38h0Z"/><path class="n" d="M11.03,30.07c-.33,0-.33,.51,0,.51s.33-.51,0-.51h0Z"/><path class="n" d="M9.35,29.78c-.36,0-.36,.56,0,.56s.36-.56,0-.56h0Z"/><path class="n" d="M7.97,29.86c-.41,0-.41,.63,0,.63s.41-.63,0-.63h0Z"/></g><path class="n" d="M19.86,59.3c-.08-.09-.13-.19-.19-.28-.04-.06-.11-.17-.2-.11-.03,.02-.05,.05-.05,.08,.02,.18,.22,.32,.37,.41,.06,.03,.12-.04,.07-.09h0Z"/><path class="n" d="M20.27,58.27c.01-.15,0-.28-.1-.4-.02-.02-.07-.02-.09,0-.02,.05-.04,.1-.04,.16,0,.07,.03,.16,.03,.23,0,.13,.19,.13,.2,0h0Z"/><path class="n" d="M19.26,57.89c-.03-.12-.09-.28-.22-.33-.03,0-.07,.02-.06,.05,.01,.12,.1,.21,.14,.32,.03,.09,.17,.05,.14-.04h0Z"/><path class="n" d="M20.14,56.96c-.08-.13-.15-.32-.3-.39-.08-.04-.22,.03-.18,.14,.06,.16,.23,.27,.37,.36,.07,.05,.15-.04,.11-.11h0Z"/><path class="n" d="M22.98,57.71c-.13,.04-.26,0-.39,.05-.03,.01-.03,.06,0,.07,.13,.04,.29,.02,.41-.04,.05-.02,.03-.1-.02-.08h0Z"/><path class="n" d="M23.2,56.73c.1-.05,.17-.12,.24-.21,.05-.06,.14-.2,.06-.28-.13-.13-.33,.35-.37,.42-.03,.04,.03,.09,.07,.06h0Z"/><path class="n" d="M16.56,57.76s.08,.04,.12,.03c0,0,0,0,0,0-.05,.01-.09,0-.12-.03h0Z"/><path class="n" d="M16.58,57.84c-.1-.03-.19-.05-.29-.07-.04,0-.09-.02-.13-.03-.04-.01-.07,0-.11,.03-.02,0-.03,.03-.02,.05,.07,.19,.37,.17,.53,.16,.07,0,.09-.11,.02-.13h0Z"/><path class="n" d="M15.54,58.08c.02-.12,.02-.23,0-.35-.02-.1-.04-.28-.17-.29-.11,0-.12,.13-.09,.21,.04,.13,.09,.27,.1,.4,0,.09,.15,.13,.17,.02h0Z"/><path class="n" d="M16.24,57c.03-.1,.02-.22,0-.32-.02-.11-.05-.24-.15-.29-.06-.03-.15,0-.16,.07-.02,.11,.03,.2,.06,.3,.03,.1,.07,.21,.15,.29,.04,.03,.1,.02,.11-.03h0Z"/><path class="n" d="M16.59,58.59c-.05,0-.09,0-.13,.04-.02,.02-.02,.05,0,.07,.04,.04,.07,.04,.13,.03,.09,0,.09-.15,0-.14h0Z"/><path class="q" d="M6.87,27.29c-.67-.22-1.33-.74-1.28-.97,.26-1.13,1.86-2.68,2.78-3.08,1.15-.5,1.69-.02,2.32,.35,.81,.48,6.22,3.32,9.08,4.79,2.78,1.42,5.7,3.11,7.54,4.16,1.29,.74,3.92,1.59,5.16,2.15,2.32,1.05,2.92,1.4,2.8,1.62-.6,1.09-1.46,1.98-2.17,2.79-.19,.22-.4,.45-.68,.53-.28,.08-.6,.03-.86-.1-4.29-2.15-8.48-4.79-12.88-7.21-4.01-2.21-7.44-3.57-11.81-5.03Z"/><g><path class="u" d="M17.9,31.11c-.1-.06-.12-.2-.04-.28,.44-.47,1.27-1.13,1.83-1.56,.11-.08,.25-.08,.36,0,.58,.4,1.17,.83,1.75,1.23,.09,.06,.09,.2,0,.26-.55,.36-1.11,.95-1.63,1.26-.09,.05-.2,.14-.29,.1-.66-.27-1.46-.72-1.97-1Z"/><path class="y" d="M19.95,31.22c.29,0,.54-.25,.54-.54s-.25-.54-.54-.54-.54,.24-.54,.54,.25,.54,.54,.54h0Z"/><path class="y" d="M20.01,32.8c.31,0,.31-.48,0-.48s-.31,.48,0,.48h0Z"/><path class="y" d="M19.82,28.99c.2,0,.2-.31,0-.31s-.2,.31,0,.31h0Z"/><path class="y" d="M17.32,31.2c.11,0,.2-.09,.2-.2s-.09-.2-.2-.2-.2,.09-.2,.2,.09,.2,.2,.2h0Z"/><path class="y" d="M22.14,30.54c-.02,.09,0,.19,.06,.26,.08,.08,.21,.1,.31,.03,.07-.05,.11-.11,.11-.2,0-.08-.04-.16-.11-.2-.05-.03-.1-.03-.15-.04,.04,0,.08,.02,.11,.03l.02,.02c-.11-.11-.32-.06-.35,.09h0Z"/></g><path class="u" d="M16.35,28.1c.02,.13,.05,.48,.25,.44,.09-.02,.06-.15,.04-.2-.04-.1-.06-.2-.08-.3-.03-.13-.22-.07-.2,.05h0Z"/><path class="u" d="M22.72,32.75c.02,.13,.05,.48,.25,.44,.09-.02,.06-.15,.04-.2-.04-.09-.06-.2-.08-.29-.03-.13-.22-.07-.2,.05h0Z"/><path class="u" d="M32.19,35.22c.02,.13,.05,.48,.25,.44,.09-.02,.06-.15,.04-.2-.04-.1-.06-.2-.08-.3-.03-.13-.22-.07-.2,.05h0Z"/><path class="u" d="M9.52,23.8c.02,.13,.05,.48,.25,.44,.09-.02,.06-.15,.04-.2-.04-.1-.06-.2-.08-.3-.03-.13-.22-.07-.2,.06h0Z"/><path class="u" d="M29.1,35.51c-.08,.1-.31,.37-.15,.48,.08,.06,.15-.06,.17-.11,.04-.1,.1-.18,.16-.27,.08-.11-.1-.21-.18-.11h0Z"/><path class="u" d="M14.92,26.52c.02,.13,.05,.48,.25,.44,.09-.02,.06-.15,.04-.2-.04-.09-.06-.2-.08-.29-.03-.13-.22-.07-.2,.05h0Z"/><path class="u" d="M11.1,26.82c.02,.13,.05,.48,.25,.44,.09-.02,.06-.15,.04-.2-.04-.1-.06-.2-.08-.3-.03-.13-.22-.07-.2,.05h0Z"/><path class="u" d="M28.71,34c.02,.13,.05,.48,.25,.44,.09-.02,.06-.15,.04-.2-.04-.09-.06-.2-.08-.29-.03-.13-.22-.07-.2,.05h0Z"/><path class="u" d="M9.27,26.45c.02,.13,.05,.48,.25,.44,.09-.02,.06-.15,.04-.2-.04-.1-.06-.2-.08-.3-.03-.13-.22-.07-.2,.06h0Z"/><path class="u" d="M6.42,25.56c-.05,.12-.2,.44-.01,.51,.09,.03,.12-.1,.13-.16,.01-.1,.05-.2,.08-.3,.04-.13-.15-.18-.2-.05h0Z"/><path class="u" d="M15.42,29.4c.02,.13,.05,.48,.25,.44,.09-.02,.06-.15,.04-.2-.04-.1-.06-.2-.08-.29-.03-.13-.22-.07-.2,.05h0Z"/><path class="u" d="M13.89,29.15c.02,.11,.04,.4,.2,.37,.08-.01,.05-.12,.03-.17-.03-.08-.05-.16-.07-.24-.02-.11-.18-.06-.16,.04h0Z"/><path class="u" d="M27.44,36.29c.02,.11,.04,.4,.2,.36,.08-.01,.05-.12,.03-.17-.03-.08-.05-.16-.07-.24-.02-.11-.18-.06-.16,.05h0Z"/><path class="u" d="M26.21,35.31c-.09,.06-.35,.2-.25,.33,.04,.06,.13,0,.17-.04,.06-.06,.13-.11,.19-.16,.09-.06-.02-.19-.11-.13h0Z"/><path class="u" d="M24.11,32.96c.02,.11,.04,.4,.21,.37,.08-.01,.05-.12,.03-.17-.03-.08-.05-.16-.07-.24-.02-.11-.18-.06-.16,.04h0Z"/><path class="u" d="M24.88,34.61c.02,.11,.04,.4,.21,.37,.08-.01,.05-.12,.03-.17-.03-.08-.05-.16-.07-.24-.02-.11-.18-.06-.16,.04h0Z"/><path class="u" d="M30.34,34.64c.02,.11,.04,.4,.2,.37,.08-.01,.05-.12,.03-.17-.03-.08-.05-.16-.07-.25-.02-.11-.18-.06-.16,.05h0Z"/><path class="u" d="M17.39,29.51c.11,.04,.19,.12,.31,.09,.03,0,.04-.04,.04-.07-.03-.13-.18-.18-.29-.22-.12-.05-.17,.15-.05,.19h0Z"/><path class="u" d="M21.32,31.92c.11,.04,.19,.12,.31,.09,.03,0,.04-.04,.04-.07-.03-.13-.18-.18-.29-.22-.12-.05-.17,.15-.05,.2h0Z"/><path class="u" d="M23.25,34.21c.11,.04,.19,.12,.31,.09,.03,0,.04-.04,.04-.07-.03-.13-.18-.18-.29-.22-.12-.05-.17,.15-.05,.19h0Z"/><path class="u" d="M21.47,33.22c.11,.04,.19,.11,.31,.09,.03,0,.04-.04,.04-.07-.03-.13-.18-.18-.29-.22-.12-.05-.17,.15-.05,.2h0Z"/><path class="u" d="M14.72,28.01c.11,.04,.19,.12,.31,.09,.03,0,.04-.04,.04-.07-.03-.13-.18-.18-.29-.22-.12-.05-.17,.15-.05,.19h0Z"/><path class="u" d="M27.24,34.76c.11,.04,.19,.12,.31,.09,.03,0,.04-.04,.04-.07-.03-.13-.18-.18-.29-.22-.12-.05-.17,.15-.05,.19h0Z"/><path class="u" d="M29.62,37.51c.11,.04,.19,.12,.31,.09,.03,0,.04-.04,.04-.07-.03-.13-.18-.18-.29-.22-.12-.05-.17,.15-.05,.19h0Z"/><path class="u" d="M10.57,25.34c.11,.04,.19,.11,.31,.09,.03,0,.04-.04,.04-.07-.03-.13-.18-.18-.29-.22-.12-.05-.17,.15-.05,.2h0Z"/><path class="u" d="M27.02,33.27c.11,.04,.19,.12,.31,.09,.03,0,.04-.04,.04-.07-.03-.13-.18-.18-.29-.22-.12-.05-.17,.15-.05,.2h0Z"/><path class="u" d="M30.72,36.19c.11,.04,.19,.11,.31,.09,.03,0,.04-.04,.04-.07-.03-.13-.18-.18-.29-.22-.12-.05-.17,.15-.05,.2h0Z"/><path class="u" d="M12.27,25.41c.11,.04,.19,.12,.31,.09,.03,0,.04-.04,.04-.07-.03-.13-.18-.18-.29-.22-.12-.05-.17,.15-.05,.19h0Z"/><path class="u" d="M8.37,24.79c.11,.04,.19,.12,.31,.09,.03,0,.04-.04,.04-.07-.03-.13-.18-.18-.29-.22-.12-.05-.17,.15-.05,.19h0Z"/><path class="u" d="M7.4,24.57c.11,.04,.19,.11,.31,.09,.03,0,.04-.04,.04-.07-.03-.13-.18-.18-.29-.22-.12-.05-.17,.15-.05,.2h0Z"/><path class="u" d="M13.09,26.66c.11,.04,.19,.12,.31,.09,.03,0,.04-.04,.04-.07-.03-.13-.18-.18-.29-.22-.12-.05-.17,.15-.05,.19h0Z"/><path class="u" d="M33.42,36.92c.11,.04,.19,.12,.31,.09,.03,0,.04-.04,.04-.07-.03-.13-.18-.18-.29-.22-.12-.05-.17,.15-.05,.2h0Z"/><path class="u" d="M25.85,33.77c.11,.04,.19,.12,.31,.09,.03,0,.05-.04,.04-.07-.03-.13-.18-.18-.29-.22-.12-.05-.17,.15-.05,.2h0Z"/><path class="u" d="M7.69,26.19c.11,.04,.19,.12,.31,.09,.03,0,.04-.04,.04-.07-.03-.13-.18-.18-.29-.22-.12-.04-.17,.15-.05,.2h0Z"/><path class="u" d="M18.32,28.46c.11,.04,.19,.11,.31,.09,.03,0,.04-.04,.04-.07-.03-.13-.18-.18-.29-.22-.12-.05-.17,.15-.05,.2h0Z"/><path class="u" d="M23.52,31.59c.11,.04,.19,.11,.31,.09,.03,0,.04-.04,.04-.07-.03-.13-.18-.18-.29-.22-.12-.04-.17,.15-.05,.2h0Z"/><path class="u" d="M25.52,32.44c.11,.04,.19,.12,.31,.09,.03,0,.04-.04,.04-.07-.03-.13-.18-.18-.29-.22-.12-.05-.17,.15-.05,.19h0Z"/><path class="u" d="M12.89,28.26c.11,.04,.19,.12,.31,.09,.03,0,.04-.04,.04-.07-.03-.13-.18-.18-.29-.22-.12-.05-.17,.15-.05,.19h0Z"/><path class="u" d="M8.47,27.38c.11,.04,.19,.12,.31,.09,.03,0,.04-.04,.04-.07-.03-.13-.18-.18-.29-.22-.12-.05-.17,.15-.05,.19h0Z"/><path class="u" d="M11.37,28.39c.11,.04,.19,.11,.31,.09,.03,0,.04-.04,.04-.07-.03-.13-.18-.18-.29-.22-.12-.05-.17,.15-.05,.2h0Z"/><path class="u" d="M31.59,37.84c.11,.04,.19,.11,.31,.09,.03,0,.04-.04,.04-.07-.03-.13-.18-.18-.29-.22-.12-.05-.17,.15-.05,.2h0Z"/></g><path class="k" d="M5.29,12.71s.09-.01,.13-.04c.3-.2,1.07-1.02,1.3-1.24,.04-.04,.08-.1,.08-.16,0-.05-.04-.09-.08-.12-.34-.34-.69-.65-1.01-1.01-.14-.15-.3-.33-.4-.34h-.05c-.1,0-.26,.18-.4,.34-.32,.35-.67,.67-1.01,1.01-.04,.04-.07,.07-.08,.12,0,.06,.04,.12,.08,.16,.22,.23,1,1.04,1.3,1.24,.04,.03,.09,.04,.13,.04h0Z"/><path class="k" d="M35.66,52.24s.09-.01,.13-.04c.3-.2,1.07-1.02,1.3-1.24,.04-.04,.09-.1,.08-.16,0-.05-.04-.09-.08-.12-.34-.34-.69-.65-1.01-1.01-.14-.15-.3-.33-.4-.33h-.05c-.1,0-.26,.18-.4,.33-.32,.36-.67,.67-1.01,1.01-.03,.04-.07,.07-.08,.12,0,.06,.04,.11,.08,.16,.22,.23,1,1.05,1.3,1.24,.04,.03,.08,.04,.13,.04h0Z"/><path class="k" d="M7.87,8.74h-.79l-1.72-3.18-1.32,1.64v1.53h-.72V3h.72v3.33l2.6-3.33h.78l-1.56,2.01,2,3.74Z"/><path class="k" d="M33.06,53.54h.79l1.72,3.18,1.32-1.64v-1.53h.72v5.75h-.72v-3.33l-2.6,3.33h-.78l1.56-2.01-2-3.74Z"/><g><path class="k" d="M12.25,59.11H6.19c-1.66,0-3-1.43-3-3.19V15.66h.19V55.92c0,1.66,1.26,3,2.82,3h6.05v.19Z"/><rect class="k" x="27.62" y="58.93" width="5.16" height=".19"/><path class="k" d="M37.74,46.82h-.19V6.36c0-1.65-1.26-3-2.82-3h-5.89v-.19h5.89c1.66,0,3,1.43,3,3.19V46.82Z"/><rect class="k" x="8.45" y="3.17" width="4.8" height=".19"/></g><path class="n" d="M20.64,25.87c.03,.16,.11,.28,.28,.32,.09,.02,.15-.07,.12-.15-.05-.11-.13-.19-.21-.28-.08-.09-.2,0-.18,.11h0Z"/><path class="n" d="M23.1,27.37c.15,.07,.27,.12,.43,.09,.1-.02,.11-.15,.06-.21-.14-.16-.32-.15-.49-.04-.06,.04-.07,.13,0,.16h0Z"/><path class="n" d="M24.81,25.79c.22-.08,.5-.07,.69-.21,.07-.05,.07-.15-.02-.18-.27-.08-.51,.15-.71,.31-.04,.03,0,.09,.04,.08h0Z"/><path class="n" d="M26.96,23.36c.07,.17,.14,.29,.29,.39,.07,.04,.13-.04,.1-.11-.07-.14-.16-.25-.26-.37-.05-.06-.17,0-.14,.08h0Z"/><path class="n" d="M28.04,25.2c.1,.15,.16,.32,.32,.41,.06,.03,.12,0,.12-.07,.01-.19-.12-.32-.22-.46-.09-.12-.3,0-.21,.12h0Z"/><path class="n" d="M29.91,24.49c.12,.04,.2,.11,.32,.14,.07,.02,.12-.04,.11-.11-.04-.19-.18-.25-.34-.32-.18-.07-.26,.22-.08,.29h0Z"/><path class="n" d="M26.16,28.19c0,.15,.01,.22,.1,.34,.03,.04,.1,0,.09-.04-.01-.1-.02-.2-.01-.3,0-.12-.17-.12-.18,0h0Z"/><path class="n" d="M24.32,29.54c.01,.17,.04,.3,.21,.36,.04,.01,.07-.02,.08-.06,0-.1-.03-.2-.03-.3,0-.16-.27-.16-.25,0h0Z"/><path class="n" d="M26.49,30.98c.08,.04,.13,.1,.2,.17,.06,.06,.15,0,.13-.08-.03-.13-.1-.21-.22-.27-.12-.06-.23,.13-.11,.18h0Z"/><path class="n" d="M16.67,25.56c.03,.1,.04,.19,.09,.28,.03,.06,.12,.07,.16,.02,.02-.02,.03-.03,.05-.05,.04-.04,.05-.1,.04-.15-.03-.14-.11-.22-.26-.21-.05,0-.1,.05-.08,.1h0Z"/><path class="n" d="M20.26,27.67c.05,.07,.06,.08,.14,.12,.04,.02,.09,.02,.12,0,.02-.01,.04-.02,.06-.04,.04-.02,.05-.09,.02-.12-.05-.04-.14-.09-.17-.13-.11-.11-.25,.05-.16,.16h0Z"/><path class="n" d="M15.87,32.99c.13-.04,.26-.03,.4-.06,.1-.02,.08-.15,0-.19-.17-.07-.31-.02-.48,.05-.11,.05-.03,.22,.08,.19h0Z"/><path class="n" d="M5.95,28.66s-.02,0-.03,0c-.06,0-.12,.04-.13,.1-.05,.19,.02,.34,.19,.41,.06,.02,.12-.04,.12-.09,0-.12-.01-.29-.08-.39-.01-.02-.04-.04-.07-.04h0Z"/><path class="n" d="M34.77,33.03c.19,.07,.33,.11,.49-.02,.03-.03,.03-.09,0-.12-.16-.14-.3-.09-.49-.02-.08,.03-.08,.14,0,.17h0Z"/><path class="n" d="M34.96,34.74c0,.13-.02,.19,.05,.3,.03,.05,.12,.07,.16,.02l.05-.05c.05-.05,.06-.12,.02-.19-.05-.08-.07-.11-.15-.16-.06-.04-.13,.01-.13,.08h0Z"/><path class="n" d="M29.26,33c.12-.03,.23,0,.35-.05,.05-.02,.06-.09,.01-.11-.15-.08-.27-.05-.41,.05-.05,.04-.02,.12,.04,.1h0Z"/><path class="n" d="M14.25,31.16c-.05,.17-.07,.33-.02,.5,.02,.04,.08,.07,.12,.03,.13-.16,.15-.33,.1-.53-.02-.11-.17-.09-.2,0h0Z"/><path class="n" d="M13.96,35.01c.09,.03,.16,.09,.26,.12,.05,.02,.12-.03,.11-.09-.01-.19-.15-.28-.34-.27-.14,0-.16,.2-.03,.24h0Z"/><path class="n" d="M16.61,35.39c.08,.15,.17,.3,.34,.38,.07,.03,.17-.04,.12-.12-.08-.13-.2-.23-.29-.35-.07-.1-.23-.01-.17,.1h0Z"/><path class="n" d="M14.5,37.22c.05,.2,.04,.45,.22,.58,.03,.02,.07,0,.08-.02,.1-.2-.02-.42-.1-.61-.05-.12-.24-.08-.2,.05h0Z"/><path class="n" d="M12.06,37.05c-.02,.09-.05,.17-.08,.26-.03,.08,.07,.19,.16,.15,.18-.07,.25-.22,.21-.41-.04-.14-.24-.14-.28,0h0Z"/><path class="n" d="M12.75,39.01l.16,.08s.11-.03,.07-.07c-.06-.08-.06-.09-.15-.14-.09-.06-.18,.1-.08,.14h0Z"/><path class="n" d="M19.21,34.2c.13,.07,.21,.2,.36,.22,.06,0,.1-.02,.11-.08,.02-.26-.25-.32-.45-.27-.06,.02-.07,.1-.02,.13h0Z"/><path class="n" d="M19.75,37.44c.18-.02,.33-.06,.45-.19,.04-.05,.01-.12-.05-.12-.17-.01-.31,.05-.45,.14-.07,.05-.05,.19,.05,.18h0Z"/><path class="n" d="M22.86,35.71c.05,.16,.1,.32,.29,.32,.04,0,.08-.03,.09-.07,.03-.19-.1-.25-.24-.35-.07-.04-.15,.03-.13,.1h0Z"/><path class="n" d="M25.2,37.65c.17,0,.34-.01,.49-.09,.06-.03,.05-.11,0-.15-.17-.12-.38-.09-.55,.03-.09,.06-.06,.21,.06,.21h0Z"/><path class="n" d="M28.76,38.97c.12,.09,.22,.19,.36,.25,.06,.03,.11-.04,.1-.1-.04-.18-.18-.27-.35-.34-.11-.04-.2,.12-.11,.19h0Z"/><path class="n" d="M11.17,35.93c.08-.05,.16-.08,.24-.1,.04-.01,.03-.06,0-.07-.13,0-.18,.02-.28,.11-.03,.03,.01,.09,.05,.06h0Z"/></g></g></g></svg>