<?xml version="1.0" encoding="UTF-8"?><svg xmlns="http://www.w3.org/2000/svg" viewBox="0 0 40.93 62.29"><defs><style>.d{fill:#fff;}.e{fill:#d6002b;}.f{fill:#2d2d2d;}</style></defs><g id="a"/><g id="b"><g id="c"><g><g><path class="d" d="M3.54,.09H37.39c1.9,0,3.45,1.55,3.45,3.45V58.74c0,1.9-1.55,3.45-3.45,3.45H3.54c-1.9,0-3.45-1.55-3.45-3.45V3.54C.09,1.64,1.64,.09,3.54,.09Z"/><path class="f" d="M37.39,62.29H3.54c-1.95,0-3.54-1.59-3.54-3.54V3.54C0,1.59,1.59,0,3.54,0H37.39c1.95,0,3.54,1.59,3.54,3.54V58.75c0,1.95-1.59,3.54-3.54,3.54ZM3.54,.19C1.69,.19,.19,1.69,.19,3.54V58.75c0,1.85,1.5,3.36,3.36,3.36H37.39c1.85,0,3.36-1.51,3.36-3.36V3.54c0-1.85-1.51-3.36-3.36-3.36H3.54Z"/></g><path class="e" d="M5.75,12.62c.17-.15,.35-.27,.53-.4,.2-.15,.41-.28,.57-.46,.13-.15,.19-.31,.26-.5,.07-.19,.07-.6-.03-.78-.31-.5-1.17-.93-1.74,.16,0,.02-.02,.02-.04,.02h0s-.03,0-.04-.02c-.57-1.09-1.43-.66-1.74-.16-.11,.17-.1,.58-.03,.78,.06,.19,.13,.34,.26,.5,.16,.19,.37,.32,.57,.46,.18,.13,.37,.25,.53,.4,.08,.08,.46,.48,.46,.48,0,0,.37-.4,.46-.48Z"/><path class="e" d="M35.22,49.56c-.17,.15-.35,.27-.53,.4-.2,.15-.41,.28-.57,.46-.13,.15-.19,.31-.26,.5-.07,.19-.07,.61,.03,.78,.31,.5,1.17,.93,1.74-.16,0-.02,.02-.03,.04-.03h0s.03,0,.04,.03c.57,1.09,1.43,.66,1.74,.16,.11-.17,.1-.58,.03-.78-.06-.19-.12-.34-.26-.5-.16-.19-.37-.32-.57-.46-.18-.13-.37-.25-.53-.4-.08-.08-.46-.48-.46-.48,0,0-.37,.4-.46,.48Z"/><path class="e" d="M4.28,5.67c-.73-.32-1.09-.78-1.09-1.38,0-.44,.18-.8,.54-1.08,.36-.28,.84-.42,1.44-.42s1.06,.14,1.41,.41c.35,.27,.52,.62,.52,1.06,0,.61-.37,1.04-1.12,1.31,.6,.28,.98,.55,1.13,.81,.15,.26,.23,.52,.23,.78,0,.46-.2,.85-.59,1.16-.39,.31-.92,.47-1.59,.47-.72,0-1.27-.16-1.66-.47-.39-.32-.59-.69-.59-1.13,0-.65,.46-1.15,1.37-1.5Zm.79,.31c-.97,.23-1.46,.64-1.46,1.22,0,.3,.13,.55,.4,.74,.27,.19,.66,.29,1.17,.29,.44,0,.79-.09,1.06-.28s.4-.43,.4-.72c0-.56-.52-.98-1.57-1.25Zm.08-.66c.48-.13,.82-.28,1.02-.45,.2-.17,.3-.38,.3-.63,0-.29-.12-.52-.36-.67-.24-.15-.55-.23-.94-.23s-.67,.08-.91,.24c-.24,.16-.35,.38-.35,.65s.13,.5,.39,.7c.26,.2,.54,.33,.84,.39Z"/><path class="e" d="M36.48,56.43c.73,.32,1.09,.78,1.09,1.38,0,.44-.18,.8-.54,1.08-.36,.28-.84,.42-1.44,.42s-1.06-.13-1.41-.41c-.35-.27-.52-.62-.52-1.06,0-.61,.37-1.04,1.12-1.31-.6-.28-.98-.55-1.13-.81-.15-.26-.23-.52-.23-.78,0-.46,.2-.85,.59-1.16,.39-.31,.92-.47,1.59-.47,.72,0,1.27,.16,1.66,.47,.39,.32,.59,.69,.59,1.13,0,.65-.46,1.15-1.37,1.5Zm-.79-.3c.97-.23,1.46-.64,1.46-1.22,0-.3-.13-.55-.4-.75-.27-.19-.66-.29-1.17-.29-.44,0-.79,.1-1.06,.28-.27,.19-.4,.43-.4,.72,0,.56,.52,.97,1.57,1.25Zm-.08,.66c-.48,.13-.82,.28-1.02,.45-.2,.17-.3,.38-.3,.63,0,.29,.12,.52,.36,.67,.24,.15,.55,.23,.94,.23s.67-.08,.91-.24c.24-.16,.35-.38,.35-.65s-.13-.5-.39-.7c-.26-.2-.54-.33-.84-.39Z"/><g><path class="e" d="M15.08,11.86c.47-.43,.99-.75,1.5-1.13,.56-.41,1.15-.78,1.6-1.31,.37-.43,.54-.86,.72-1.4,.18-.54,.2-1.7-.1-2.18-.87-1.39-3.3-2.61-4.9,.46-.02,.04-.07,.07-.11,.07h0s-.09-.03-.11-.07c-1.6-3.07-4.03-1.85-4.9-.46-.3,.48-.28,1.64-.1,2.18,.18,.54,.35,.97,.72,1.4,.45,.53,1.04,.89,1.6,1.31,.51,.38,1.03,.71,1.5,1.13,.24,.21,1.29,1.35,1.29,1.35,0,0,1.05-1.13,1.29-1.35Z"/><path class="e" d="M28.43,11.86c.47-.43,.99-.75,1.5-1.13,.55-.41,1.15-.78,1.6-1.31,.37-.43,.54-.86,.72-1.4,.18-.54,.2-1.7-.1-2.18-.87-1.39-3.3-2.61-4.89,.46-.02,.04-.07,.07-.12,.07h0s-.09-.03-.12-.07c-1.6-3.07-4.02-1.85-4.9-.46-.3,.48-.28,1.64-.1,2.18,.18,.54,.35,.97,.72,1.4,.45,.53,1.04,.89,1.6,1.31,.51,.38,1.03,.71,1.5,1.13,.24,.21,1.29,1.35,1.29,1.35,0,0,1.05-1.13,1.29-1.35Z"/></g><g><path class="e" d="M15.08,34.12c.47-.43,.99-.75,1.5-1.13,.56-.41,1.15-.78,1.6-1.31,.37-.44,.54-.86,.72-1.4,.18-.54,.2-1.7-.1-2.18-.87-1.39-3.3-2.61-4.9,.46-.02,.04-.07,.07-.11,.07h0s-.09-.03-.11-.07c-1.6-3.07-4.03-1.85-4.9-.46-.3,.48-.28,1.64-.1,2.18,.18,.54,.35,.97,.72,1.4,.45,.53,1.04,.89,1.6,1.31,.51,.38,1.03,.71,1.5,1.13,.24,.21,1.29,1.35,1.29,1.35,0,0,1.05-1.13,1.29-1.35Z"/><path class="e" d="M28.43,34.12c.47-.43,.99-.75,1.5-1.13,.55-.41,1.15-.78,1.6-1.31,.37-.44,.54-.86,.72-1.4,.18-.54,.2-1.7-.1-2.18-.87-1.39-3.3-2.61-4.89,.46-.02,.04-.07,.07-.12,.07h0s-.09-.03-.12-.07c-1.6-3.07-4.02-1.85-4.9-.46-.3,.48-.28,1.64-.1,2.18,.18,.54,.35,.97,.72,1.4,.45,.53,1.04,.89,1.6,1.31,.51,.38,1.03,.71,1.5,1.13,.24,.21,1.29,1.35,1.29,1.35,0,0,1.05-1.13,1.29-1.35Z"/></g><g><path class="e" d="M25.85,50.24c-.47,.43-.99,.75-1.5,1.13-.55,.41-1.15,.78-1.6,1.31-.37,.43-.54,.86-.72,1.4-.18,.54-.21,1.7,.1,2.18,.87,1.39,3.3,2.61,4.9-.46,.02-.04,.07-.07,.12-.07h0s.09,.03,.12,.07c1.6,3.07,4.02,1.85,4.89,.46,.3-.48,.28-1.64,.1-2.18-.18-.54-.35-.97-.72-1.4-.45-.53-1.04-.89-1.6-1.31-.51-.38-1.03-.7-1.5-1.13-.24-.21-1.29-1.34-1.29-1.34,0,0-1.05,1.13-1.29,1.34Z"/><path class="e" d="M12.5,50.24c-.47,.43-.99,.75-1.5,1.13-.56,.41-1.15,.78-1.6,1.31-.37,.43-.54,.86-.72,1.4-.18,.54-.2,1.7,.1,2.18,.87,1.39,3.3,2.61,4.9-.46,.02-.04,.07-.07,.11-.07h0s.09,.03,.11,.07c1.6,3.07,4.03,1.85,4.9,.46,.3-.48,.28-1.64,.1-2.18-.18-.54-.35-.97-.72-1.4-.45-.53-1.04-.89-1.6-1.31-.51-.38-1.03-.7-1.5-1.13-.24-.21-1.29-1.34-1.29-1.34,0,0-1.05,1.13-1.29,1.34Z"/></g><path class="e" d="M21.75,23.08c.47-.43,.99-.75,1.5-1.13,.56-.41,1.15-.78,1.6-1.31,.37-.44,.54-.86,.72-1.4,.18-.54,.2-1.7-.1-2.18-.87-1.39-3.3-2.61-4.9,.46-.02,.04-.07,.07-.11,.07h0s-.09-.03-.12-.07c-1.6-3.07-4.02-1.85-4.9-.46-.3,.48-.28,1.64-.1,2.18,.18,.54,.35,.97,.72,1.4,.45,.53,1.04,.89,1.6,1.31,.51,.38,1.03,.7,1.5,1.13,.24,.21,1.29,1.34,1.29,1.34,0,0,1.05-1.13,1.29-1.34Z"/><path class="e" d="M19.18,38.46c-.47,.43-.99,.75-1.5,1.13-.55,.41-1.15,.78-1.6,1.31-.37,.43-.54,.86-.72,1.4-.18,.54-.2,1.7,.1,2.18,.87,1.39,3.3,2.61,4.9-.46,.02-.04,.07-.07,.12-.07h0s.09,.03,.11,.07c1.6,3.07,4.03,1.85,4.9,.46,.3-.48,.28-1.64,.1-2.18-.18-.54-.35-.97-.72-1.4-.45-.53-1.04-.89-1.6-1.31-.51-.38-1.03-.71-1.5-1.13-.24-.21-1.29-1.34-1.29-1.34,0,0-1.05,1.13-1.29,1.34Z"/></g></g></g></svg>