<?xml version="1.0" encoding="UTF-8"?><svg xmlns="http://www.w3.org/2000/svg" xmlns:xlink="http://www.w3.org/1999/xlink" viewBox="0 0 40.93 62.29"><defs><style>.n{fill:#fff;}.o{clip-path:url(#l);}.p{fill:#d6002b;}.q{clip-path:url(#h);}.r{fill:#ffd6a1;}.s{clip-path:url(#m);}.t{clip-path:url(#e);}.u{clip-path:url(#d);}.v{fill:#222272;}.w{fill:none;}.x{fill:#fcc07e;}.y{fill:#2d2d2d;}.a`{clip-path:url(#f);}.aa{clip-path:url(#j);}.ab{fill:#0c0a35;}.ac{clip-path:url(#i);}.ad{clip-path:url(#k);}.ae{fill:#990028;}.af{clip-path:url(#g);}.ag{fill:#f70032;}</style><clipPath id="d"><path class="p" d="M26.84,20.88c-.16,2.4-.71,4.75-2.73,6.05-1.27,.81-3.28,1.21-4.76,1.45-.52,.08-1.04,.16-1.57,.16-.76,0-1.51-.18-2.26-.35-.11-.02-.22-.05-.3-.12-.17-.15-.14-.42-.09-.64,.09-.42,.21-.84,.35-1.25,.53-1.51,.59-2.18,.52-4.62,0-.12-.15-.85-.11-.97,.08-.24,.32-.04,.57-.07,2.94-.35,6.09,.56,9.01,.09,.26-.04,.53-.09,.79-.06,.26,.04,.58,.07,.57,.34Z"/></clipPath><clipPath id="e"><path class="w" d="M24.27,21.82c-.51-.56-1.03-1.27-.86-2.01,.11-.48,.49-.85,.78-1.24,.29-.4,.5-.95,.24-1.37-.2-.33-.62-.44-.93-.67-.5-.37-.72-1.08-.5-1.67,.12-.34,.37-.62,.53-.95,.33-.68,.23-1.5-.12-2.17-.35-.67-.92-1.19-1.53-1.62,.94,.05,1.84,.03,2.79,.08,.51,.02,1.02,.05,1.51,.2,.89,.27,1.65,.96,2,1.83,.21,.51,.28,1.07,.47,1.59,.15,.4,.37,.77,.57,1.15,1.11,2.06,1.71,4.38,3,6.33,.08,.13,.17,.3,.08,.43-.05,.07-.15,.1-.24,.11-1.02,.17-2.07,.01-3.1,.04-1.03,.03-2.04,.25-3.06,.32-.6,.04-1.21,.1-1.62-.35Z"/></clipPath><clipPath id="f"><path class="p" d="M15.27,18.55c-.16,.65-.05,1.36,.29,1.94,.11,.18,.25,.36,.45,.42,.17,.05,.36,.01,.53-.05,.76-.29,1.31-1.06,1.33-1.88,.25,1.02,1.33,1.62,2.37,1.8,1.03,.18,2.1,.06,3.14,.23-.1-.62-.49-1.15-.87-1.66-.37-.49-.75-.99-1.29-1.28-.55-.3-1.2-.34-1.82-.37-1.15-.06-2.31-.12-3.43,.13-.13,.03-.26,.06-.37,.14-.19,.13-.28,.36-.33,.58Z"/></clipPath><clipPath id="g"><path class="w" d="M16.35,21.86c.58,.58,1.48,.69,2.31,.73,.49,.03,.99,.04,1.48,.05,.34,0,.69,0,1.02-.06,.48-.09,.92-.31,1.35-.53,.83-.42,1.65-.88,2.45-1.35,.23-.14,.46-.28,.65-.46,.42-.41,.61-.99,.73-1.56,.41-2.02,.04-4.1-.34-6.12-.05-.28-.11-.57-.24-.82-.29-.52-.88-.79-1.45-.94-.93-.25-1.92-.26-2.88-.22-1.59,.07-3.18,.31-4.66,.89,.02,.43,.04,.86,.07,1.29,0,.09,0,.18-.02,.26-.05,.15-.17,.25-.29,.35-1.02,.85-1.65,2.06-2.25,3.24-.26,.5-.53,1.04-.48,1.6,.26,.13,.58,.14,.84,.02,.25-.11,.5-.33,.75-.23,.24,.09,.29,.4,.29,.65,.01,.56-.03,1.13,.03,1.69,.06,.56,.25,1.13,.65,1.53Z"/></clipPath><clipPath id="h"><path class="w" d="M6.85,14.63c-1,.12-1.79,1.04-1.99,2.03-.2,.99,.09,2.03,.54,2.93,.03,.05,.05,.1,.09,.13,.53-.62,3.44-3.12,4-4.08-.19-.25-.44-.41-.72-.56-.65-.35-1.2-.54-1.93-.45Z"/></clipPath><clipPath id="i"><path class="p" d="M13.83,41.33c.16-2.4,.71-4.75,2.73-6.05,1.27-.81,3.28-1.21,4.76-1.44,.52-.08,1.04-.16,1.57-.16,.76,0,1.51,.18,2.26,.35,.11,.02,.22,.05,.3,.12,.17,.15,.14,.42,.09,.64-.09,.42-.21,.84-.35,1.25-.53,1.51-.59,2.18-.52,4.62,0,.12,.15,.85,.11,.97-.08,.24-.32,.04-.57,.07-2.94,.35-6.09-.56-9.01-.09-.26,.04-.53,.09-.79,.05-.26-.04-.58-.07-.57-.34Z"/></clipPath><clipPath id="j"><path class="w" d="M16.4,40.39c.51,.56,1.04,1.27,.86,2.01-.11,.48-.49,.84-.78,1.24-.29,.4-.5,.95-.24,1.37,.21,.33,.62,.44,.93,.67,.5,.37,.72,1.08,.5,1.67-.12,.34-.37,.62-.53,.95-.33,.68-.23,1.5,.12,2.17,.35,.67,.92,1.19,1.53,1.62-.94-.05-1.84-.03-2.78-.08-.51-.03-1.02-.05-1.51-.2-.89-.27-1.65-.96-2-1.83-.21-.51-.28-1.07-.47-1.59-.15-.4-.37-.77-.57-1.15-1.11-2.06-1.71-4.38-3-6.33-.08-.13-.17-.3-.08-.43,.05-.07,.15-.09,.24-.11,1.02-.17,2.07-.01,3.1-.04,1.03-.03,2.04-.25,3.06-.32,.6-.04,1.21-.1,1.62,.35Z"/></clipPath><clipPath id="k"><path class="p" d="M25.4,43.67c.16-.65,.05-1.36-.29-1.94-.11-.18-.25-.36-.45-.42-.17-.05-.36,0-.53,.05-.76,.29-1.31,1.06-1.33,1.88-.25-1.02-1.33-1.62-2.37-1.8-1.04-.18-2.1-.05-3.14-.23,.1,.62,.49,1.15,.87,1.66,.37,.49,.75,.99,1.29,1.28,.55,.3,1.2,.34,1.82,.37,1.15,.06,2.31,.12,3.43-.13,.13-.03,.26-.07,.37-.14,.19-.13,.28-.36,.33-.58Z"/></clipPath><clipPath id="l"><path class="w" d="M24.32,40.35c-.58-.58-1.48-.69-2.31-.73-.49-.03-.99-.04-1.48-.05-.34,0-.69,0-1.02,.06-.48,.09-.92,.31-1.35,.53-.83,.42-1.65,.88-2.45,1.36-.23,.14-.46,.28-.65,.46-.42,.41-.61,.99-.73,1.56-.41,2.02-.04,4.1,.34,6.12,.05,.28,.11,.57,.24,.82,.29,.52,.88,.79,1.45,.94,.93,.25,1.92,.26,2.88,.22,1.59-.07,3.18-.31,4.66-.89-.02-.43-.04-.86-.07-1.3,0-.09,0-.17,.02-.26,.05-.15,.17-.25,.29-.35,1.01-.85,1.65-2.06,2.25-3.24,.26-.5,.53-1.04,.48-1.6-.26-.13-.58-.13-.85-.02-.25,.11-.5,.33-.75,.23-.24-.09-.29-.4-.29-.65-.01-.56,.03-1.13-.03-1.69s-.25-1.13-.65-1.53Z"/></clipPath><clipPath id="m"><path class="w" d="M33.82,47.58c1-.12,1.79-1.04,1.99-2.03,.2-.99-.09-2.03-.54-2.93-.03-.05-.05-.1-.09-.13-.53,.62-3.44,3.12-4,4.08,.19,.25,.44,.41,.72,.56,.65,.35,1.2,.54,1.93,.45Z"/></clipPath></defs><g id="a"/><g id="b"><g id="c"><g><g><path class="n" d="M3.54,.09H37.39c1.9,0,3.45,1.55,3.45,3.45V58.74c0,1.9-1.55,3.45-3.45,3.45H3.54c-1.9,0-3.45-1.55-3.45-3.45V3.54C.09,1.64,1.64,.09,3.54,.09Z"/><path class="y" d="M37.39,62.29H3.54c-1.96,0-3.54-1.59-3.54-3.54V3.54C0,1.59,1.59,0,3.54,0H37.39c1.95,0,3.54,1.59,3.54,3.54V58.75c0,1.95-1.59,3.54-3.54,3.54ZM3.54,.19C1.69,.19,.19,1.69,.19,3.54V58.75c0,1.85,1.5,3.36,3.36,3.36H37.39c1.85,0,3.36-1.51,3.36-3.36V3.54c0-1.85-1.5-3.36-3.36-3.36H3.54Z"/></g><g><path class="ae" d="M17.9,20.42c-.84,.12-1.68,.27-2.47,.53-1.7,.56-3.04,1.64-3.96,2.87-.92,1.23-1.45,2.6-1.86,3.99-1.34,.48-2.92,2.5-3.19,3.61-1.03,4.36-.25,6.17,4.5,8.55,1.05,.52,16.2,3.08,20.33-.15,2.64-2.06,3.66-3.16,3.75-6.53,.09-3.36,1.45-6.94-.59-9.91-.39-.57-.86-1.11-1.45-1.56-1.77-1.35-4.42-1.72-6.91-1.81-2.73-.11-5.47,.03-8.15,.42Z"/><path class="ae" d="M22.76,41.79c.84-.12,1.68-.27,2.47-.53,1.7-.56,3.04-1.64,3.96-2.87,.92-1.23,1.45-2.6,1.86-3.99,1.34-.48,2.92-2.5,3.19-3.61,1.03-4.36,.25-6.17-4.5-8.55-1.05-.52-13.48-3.58-20.83,.84-1.17,.7-3.06,2.09-3.15,5.46-.09,3.36-1.55,7.31,.5,10.29,.39,.57,.86,1.11,1.45,1.56,1.77,1.35,4.42,1.72,6.91,1.81,2.72,.11,5.47-.04,8.15-.42Z"/><path class="v" d="M9.48,32.94c-1.48,.85-2.92,.55-4.4,1.4-.53,.98-.23,3.63,.38,4.62,1.27,2.05,4.68,2.33,5.69,1.98,2.17-.75,2.82-2.05,4.8-3.21,4.36-2.56,9.14-4.4,13.29-7.28,2.09-1.45,4.69-1.09,6.06-3.23,.67-1.05-.08-2.85-1.13-4.27-.81-1.1-1.79-2.28-3.15-2.4-1.41-.12-3.84,.69-5.03,1.46-1.19,.77-2.24,1.75-3.38,2.59-2.77,2.03-6.07,3.24-8.81,5.31-.78,.59-1.51,1.25-2.32,1.81-.64,.45-1.32,.85-2,1.24Z"/><path class="ag" d="M13.99,36.36c.79-.6,1.6-1.6,1.63-2.59,.02-.73-.16-1.88-.84-2.78-.32-.42-.68-.65-.68-1.36,.04-.15,.07-.26,.08-.32,.91-4.68,.13-4.81-1.06-5.36-.84-.39-1.31,.29-1.52,.5-1.18,1.19-1.54,1.7-1.71,2.51-.07,.32-.02,.69-.23,.93-.14,.17-.37,.23-.56,.33-.15,.07-.33,.19-.5,.31-.83,.45-1.57,1.13-1.77,1.28-.31,.22-.64,.36-1.21,1-.8,.89-.94,2.42-.92,2.79,.07,1.35,.77,2.28,1.64,2.75,1.41,.73,5.25,1.86,7.67,.01Z"/><path class="ag" d="M26.79,26c-.79,.59-1.61,1.59-1.65,2.58-.03,.73,.14,1.88,.82,2.78,.32,.42,.67,.65,.67,1.37-.04,.15-.07,.26-.08,.32-.95,4.68-.16,4.81,1.02,5.37,.84,.4,1.32-.28,1.53-.49,1.19-1.18,1.55-1.68,1.73-2.49,.07-.32,.02-.69,.24-.93,.14-.17,.37-.23,.57-.33,.15-.07,.33-.18,.51-.31,.83-.44,1.57-1.12,1.78-1.26,.32-.22,.65-.36,1.22-.99,.81-.88,.96-2.41,.94-2.78-.06-1.35-.75-2.29-1.62-2.76-1.4-.75-5.23-1.9-7.67-.08Z"/><path class="r" d="M16.35,21.86c.58,.58,1.48,.69,2.31,.73,.49,.03,.99,.04,1.48,.05,.34,0,.69,0,1.02-.06,.48-.09,.92-.31,1.35-.53,.83-.42,1.65-.88,2.45-1.35,.23-.14,.46-.28,.65-.46,.42-.41,.61-.99,.73-1.56,.41-2.02,.04-4.1-.34-6.12-.05-.28-.11-.57-.24-.82-.29-.52-.88-.79-1.45-.94-.93-.25-1.92-.26-2.88-.22-1.59,.07-3.18,.31-4.66,.89,.02,.43,.04,.86,.07,1.29,0,.09,0,.18-.02,.26-.05,.15-.17,.25-.29,.35-1.02,.85-1.65,2.06-2.25,3.24-.26,.5-.53,1.04-.48,1.6,.26,.13,.58,.14,.84,.02,.25-.11,.5-.33,.75-.23,.24,.09,.29,.4,.29,.65,.01,.56-.03,1.13,.03,1.69,.06,.56,.25,1.13,.65,1.53Z"/><path class="ab" d="M17.69,13.92c-.12-.55-.18-1.09-.08-1.47,.02-.07,.02-.16,.07-.21,.07-.09,.21-.11,.32-.11,1.08-.06,2.16-.33,3.23-.19,2.05,.28,1.92,1.04,1.94,1.27,0,.08-.14,.08-.21,.13-.02,.02-.06,.02-.08,.03-.9,.16-1.8,.33-2.7,.49-.31,.06-.62,.11-.94,.16-.44,.06-.82,.24-1.27,.24-.05,0-.21,.02-.29-.33Z"/><path class="n" d="M19.33,12.99c1.23-.53,2.61-.31,3.84,.22,0,.13-.08,.25-.17,.35-.62,.73-1.52,1.21-2.47,1.33-.95,.12-1.94-.12-2.72-.67,.1-.26,.55-.81,1.52-1.23Z"/><path class="ab" d="M20.44,14.52c.3-.02,.62-.17,.76-.47,.18-.37,0-.9-.34-1.04-.17-.07-.36-.06-.54-.03-.3,.05-.64,.18-.76,.51-.1,.27,0,.59,.18,.79,.19,.19,.45,.27,.71,.25Z"/><g><path class="p" d="M26.84,20.88c-.16,2.4-.71,4.75-2.73,6.05-1.27,.81-3.28,1.21-4.76,1.45-.52,.08-1.04,.16-1.57,.16-.76,0-1.51-.18-2.26-.35-.11-.02-.22-.05-.3-.12-.17-.15-.14-.42-.09-.64,.09-.42,.21-.84,.35-1.25,.53-1.51,.59-2.18,.52-4.62,0-.12-.15-.85-.11-.97,.08-.24,.32-.04,.57-.07,2.94-.35,6.09,.56,9.01,.09,.26-.04,.53-.09,.79-.06,.26,.04,.58,.07,.57,.34Z"/><g class="u"><path class="ab" d="M14.59,28.71c.6-.15,.89-.54,1.19-1.06,.39-.7,.85-1.47,.99-2.27,.15-.88,.18-1.84,.26-2.74,.08-.94-.26-1.83-.09-2.77,.03-.16-.18-.27-.27-.11-.24,.44-.18,.9-.13,1.38,.11,.99,.09,1.84-.06,2.83-.14,.91-.07,1.65-.52,2.5-.4,.75-.66,1.61-1.44,2.06-.1,.06-.03,.21,.08,.18h0Z"/><path class="ab" d="M15.34,29.17c.55-.48,1.08-.81,1.52-1.42,.52-.71,.79-1.61,.98-2.46,.43-1.89,.22-3.7-.09-5.58-.02-.15-.23-.12-.27,0-.23,.6-.04,1.17,.08,1.78,.21,1.05,.05,2.3-.12,3.35-.15,.95-.47,1.85-.98,2.67-.36,.58-1,.94-1.25,1.57-.03,.08,.07,.12,.12,.07h0Z"/><path class="ab" d="M16.6,29.27c1.46-.91,2.07-2.34,2.46-3.98,.21-.9,.35-1.81,.38-2.73,.04-1.1-.46-2.08-.31-3.18,.03-.18-.19-.29-.3-.13-.31,.49-.21,1-.1,1.55,.24,1.2,.29,2.21,.09,3.44-.31,1.88-.98,3.54-2.29,4.96-.04,.04,0,.1,.06,.08h0Z"/><path class="ab" d="M17.65,29.61c1.5-.95,2.21-2.62,2.5-4.3,.3-1.78,.52-3.78,.01-5.54-.03-.1-.18-.11-.21,0-.16,.7,.01,1.41,.06,2.12,.07,.99-.07,2.02-.2,3-.12,.84-.26,1.67-.63,2.44-.4,.83-1.16,1.4-1.62,2.18-.04,.06,.04,.13,.09,.1h0Z"/><path class="ab" d="M19.01,29.47c1.5-.83,2-2.36,2.35-3.92,.2-.86,.3-1.71,.31-2.59,0-.97-.23-1.89-.28-2.84-.01-.26-.36-.3-.44-.06-.21,.61,.05,1.24,.11,1.87,.09,.94,.06,1.87-.08,2.8-.12,.78-.28,1.56-.5,2.32-.29,1-1.06,1.49-1.56,2.33-.04,.06,.04,.13,.1,.09h0Z"/><path class="ab" d="M20.32,29.46c1.34-.51,1.86-2.3,2.16-3.56,.21-.87,.29-1.78,.38-2.67,.1-1.13,.27-2.47-.05-3.57-.03-.1-.17-.1-.2,0-.22,.77-.15,1.59-.18,2.39-.04,1.07-.11,2.14-.26,3.2-.24,1.66-.82,2.86-1.9,4.12-.03,.04,0,.11,.05,.09h0Z"/><path class="ab" d="M21.76,29.15c1.31-.76,1.86-2.13,2.04-3.61,.25-2.06,.68-4.28,.36-6.35-.02-.11-.18-.12-.23-.03-.3,.52-.17,1.06-.17,1.64,0,1.02-.08,2.05-.2,3.06-.23,1.98-.36,3.73-1.84,5.24-.03,.03,0,.07,.04,.05h0Z"/><path class="ab" d="M23.66,28.34c.99-.95,1.48-2.43,1.69-3.75,.11-.69,.13-1.39,.08-2.09-.05-.71,.03-1.49-.3-2.13-.07-.14-.24-.05-.26,.07-.16,1.26,.1,2.5-.01,3.76-.07,.75-.25,1.49-.5,2.2-.21,.61-.34,1.41-.73,1.93-.01,.02,.02,.04,.03,.02h0Z"/><path class="ab" d="M25.68,26.56c.66-.96,.79-1.94,.91-3.08,.11-1.04,.18-2.38-.27-3.34-.04-.09-.18-.06-.21,.03-.25,.93,0,1.99-.03,2.95-.04,1.17-.43,2.27-.47,3.43,0,.04,.05,.05,.07,.02h0Z"/></g></g><path class="p" d="M24.27,21.82c-.51-.56-1.03-1.27-.86-2.01,.11-.48,.49-.85,.78-1.24,.29-.4,.5-.95,.24-1.37-.2-.33-.62-.44-.93-.67-.5-.37-.72-1.08-.5-1.67,.12-.34,.37-.62,.53-.95,.33-.68,.23-1.5-.12-2.17-.35-.67-.92-1.19-1.53-1.62,.94,.05,1.84,.03,2.79,.08,.51,.02,1.02,.05,1.51,.2,.89,.27,1.65,.96,2,1.83,.21,.51,.28,1.07,.47,1.59,.15,.4,.37,.77,.57,1.15,1.11,2.06,1.71,4.38,3,6.33,.08,.13,.17,.3,.08,.43-.05,.07-.15,.1-.24,.11-1.02,.17-2.07,.01-3.1,.04-1.03,.03-2.04,.25-3.06,.32-.6,.04-1.21,.1-1.62-.35Z"/><path class="ag" d="M26.75,9.17c.11-1.19,0-2.99-.19-4.46-.12-.92-.38-1.85-.44-2.5-.11-1.08-.83-.87-.86-.54-.25,2.44-.09,3.65-.54,5.6-.11,.47-.82,.43-.93,.07-.28-.94-.32-1.78-.43-2.73-.22-1.79-.39-2.83-.72-3.23-.15-.18-.47-.2-.55,.02-.74,2.09,.21,5.83-.98,6.27-.23,.09-.48-.08-.54-.32-.42-1.92,.1-4.09-.83-5.83-.06-.11-.14-.23-.26-.25-.18-.03-.32,.17-.39,.34-.8,1.92,.13,5.55-.62,6.21-.28,.25-.5,.1-.54-.27-.31-3.27-.6-5.46-1.27-5.73-.37-.15-.54,1-.52,1.44,.07,2.33,.2,4.66,.33,6.99-.01-.05,0-.09,.02-.04,.03,.04,.09,.05,.14,.04,3.19-.23,6.38-.45,9.58-.68,.12,0,.24-.05,.34-.11,.1-.06,.2-.2,.21-.32Z"/><path class="ab" d="M16.42,11.46c.33,.41,8.58-.45,10.35-.54,.17,0,.32-.11,.39-.27,.15-.36,.05-.68-.04-1.06-.02-.08-.04-.16-.1-.21-.09-.09-.24-.09-.37-.08-2.56,.16-5.12,.33-7.67,.49l-2.19,.14c-.17,.01-.33,.05-.47,.14-.37,.22-.3,.52-.23,.79,.06,.23,.18,.43,.33,.62Z"/><path class="ab" d="M16.58,1.87c.16,0,.3-.14,.3-.3s-.14-.3-.3-.3-.3,.14-.3,.3,.14,.3,.3,.3h0Z"/><path class="ab" d="M19.44,1.47c.38,0,.38-.6,0-.6s-.38,.6,0,.6h0Z"/><path class="ab" d="M22.35,1.35c.17,0,.31-.14,.31-.31s-.14-.31-.31-.31-.31,.14-.31,.31,.14,.31,.31,.31h0Z"/><path class="ab" d="M25.61,1.59c.17,0,.32-.15,.32-.32s-.15-.32-.32-.32-.32,.15-.32,.32,.15,.32,.32,.32h0Z"/><path class="ab" d="M16.95,7.14c-.16,.78,.04,1.57,.09,2.36,.02,.27,.4,.27,.42,0,.05-.79-.26-1.55-.33-2.33,0-.1-.16-.14-.18-.02h0Z"/><path class="ab" d="M19.55,7.03c-.11,.43-.15,.87-.13,1.31,.02,.34,0,.84,.28,1.09,.11,.1,.29,.06,.33-.09,.1-.34-.07-.79-.1-1.15-.03-.39-.07-.78-.17-1.16-.03-.11-.19-.11-.21,0h0Z"/><path class="ab" d="M22.5,6.88c.09,.7,.11,1.41,.15,2.12,.02,.33,.51,.33,.51,0,.02-.73-.18-1.45-.36-2.16-.04-.16-.33-.13-.3,.04h0Z"/><path class="ab" d="M25.77,6.84c-.35,.47-.32,1.28-.27,1.83,.03,.38,.57,.38,.59,0,.01-.28,0-.56-.02-.84-.02-.31,0-.61-.01-.92-.01-.15-.19-.19-.28-.08h0Z"/><g class="t"><path class="ab" d="M23.78,10.73c.32,.38,.49,1.06,.61,1.52,.24,.88-.2,1.65-.36,2.49-.18,.92,.81,1.4,1.36,1.93,1.26,1.22-1.16,2.88-1.3,4.13-.11,.94,.76,2.14,1.53,2.59,.07,.04,.17-.05,.12-.12-.42-.57-.92-.99-1.2-1.67-.45-1.09,.38-1.73,.94-2.51,.48-.67,.96-1.79,.32-2.53-.34-.39-.79-.65-1.16-1.01-.65-.62,.15-1.66,.17-2.34,.02-.86-.19-2.03-.99-2.5-.02,0-.03,.01-.02,.02h0Z"/><path class="ab" d="M24.9,10.84c1.4,.9,.24,2.16,.39,3.35,.04,.27,.3,.52,.48,.71,.54,.58,1.1,.97,1.35,1.77,.51,1.62-1.2,2.47-1.69,3.8-.33,.92-.04,1.86,.83,2.38,.1,.06,.24-.06,.17-.17-.14-.22-.3-.43-.46-.64-.5-.67-.16-1.33,.21-1.95,.35-.59,.89-1.03,1.21-1.64,.47-.92,.29-2.19-.38-2.96-.44-.5-1.41-1.02-1.26-1.81,.09-.5,.29-.89,.3-1.41,0-.68-.31-1.57-1.12-1.53-.06,0-.08,.08-.03,.12h0Z"/><path class="ab" d="M26.06,10.57c.27,.2,.61,.98,.73,1.26,.2,.49-.2,1.45-.13,2.02,.05,.43,.3,.7,.62,.97,.63,.55,1.19,.92,1.45,1.77,.78,2.47-3.26,4.78-.46,6.88,.15,.11,.37-.11,.26-.26-.65-.92-1.04-1.55-.54-2.7,.25-.57,.64-1.07,.85-1.66,.42-1.18,.51-2.29-.23-3.35-.33-.47-.84-.77-1.25-1.15-.74-.69,.03-1.61-.13-2.38-.09-.42-.58-1.58-1.17-1.47-.04,0-.03,.05,0,.07h0Z"/><path class="ab" d="M28.42,10.62c-.84,.17-.75,1.47-.73,2.12,.03,1.39,1.21,1.81,2.07,2.7,.51,.52,.33,1.25,.28,1.9-.08,1.07-.54,1.95-.92,2.93-.44,1.15-.15,3.02,1.33,3.19,.12,.01,.14-.13,.08-.2-.69-.87-1.26-1.31-1.01-2.54,.15-.72,.57-1.4,.78-2.11,.25-.85,.49-2.12,.17-2.98-.29-.77-1.24-1.23-1.85-1.7-.53-.41-.55-.99-.57-1.58,0-.34-.08-1.53,.37-1.68,.04-.01,.02-.06-.01-.06h0Z"/><path class="ab" d="M32.19,18.25c-1.21-.84-2.86,3.85-1.05,4.92,.07,.04,.17-.04,.12-.11-.6-.84-.66-1.78-.44-2.76,.16-.69,.63-1.68,1.36-1.88,.08-.02,.08-.12,.02-.16h0Z"/><path class="ab" d="M32.73,19.34c-.57-.11-1.05,.58-1.23,1.05-.31,.81-.16,1.71,.41,2.36,.04,.05,.13,.01,.13-.05-.07-.64-.37-1.18-.26-1.84,.11-.65,.55-.98,.98-1.42,.03-.03,.02-.09-.03-.1h0Z"/></g><g><path class="p" d="M15.27,18.55c-.16,.65-.05,1.36,.29,1.94,.11,.18,.25,.36,.45,.42,.17,.05,.36,.01,.53-.05,.76-.29,1.31-1.06,1.33-1.88,.25,1.02,1.33,1.62,2.37,1.8,1.03,.18,2.1,.06,3.14,.23-.1-.62-.49-1.15-.87-1.66-.37-.49-.75-.99-1.29-1.28-.55-.3-1.2-.34-1.82-.37-1.15-.06-2.31-.12-3.43,.13-.13,.03-.26,.06-.37,.14-.19,.13-.28,.36-.33,.58Z"/><g class="a`"><path class="ab" d="M17.26,17.2c-.05,.33-.03,.61-.01,.94,.05,.83-.43,1.56-.97,2.13-.59,.61-.96,1.23-.9,2.11,0,.1,.12,.13,.18,.05,.37-.51,.44-1.12,.86-1.61,.27-.31,.55-.59,.79-.92,.63-.87,.42-1.76,.13-2.69,0-.03-.07-.04-.07,0h0Z"/><path class="ab" d="M16.59,17.23c-.04,.31-.05,.61-.06,.93,0,.65-.52,1.13-.92,1.59-.41,.48-.85,1.1-.72,1.76,.02,.08,.15,.11,.19,.02,.34-.79,.8-1.35,1.32-2.03,.61-.81,.43-1.31,.3-2.25,0-.06-.11-.09-.12-.02h0Z"/><path class="ab" d="M16.18,17.34c-.11,.28-.18,.56-.27,.85-.12,.41-.42,.65-.74,.89-.31,.23-.65,.48-.74,.88-.02,.07,.06,.11,.11,.07,.39-.38,.88-.61,1.27-.99,.45-.45,.36-1.1,.44-1.67,0-.05-.05-.06-.07-.02h0Z"/><path class="ab" d="M17.91,17.2c-.28,.97,.62,1.91,1.16,2.63,.55,.73,1.7,1.8,2.7,1.64,.09-.02,.09-.15,.02-.19-.87-.54-1.69-.92-2.38-1.72-.6-.7-1.2-1.45-1.44-2.36,0-.03-.06-.03-.06,0h0Z"/><path class="ab" d="M18.59,17.09c-.37,.58,.72,1.58,1,1.98,.32,.45,.68,.91,1.15,1.22,.42,.28,.87,.53,1.27,.86,.31,.25,.51,.61,.82,.87,.07,.06,.19,0,.16-.09-.3-1.01-1.2-1.46-2.02-2.01-.6-.4-1-1.02-1.44-1.58-.3-.38-.76-.74-.86-1.23,0-.03-.05-.03-.06,0h0Z"/><path class="ab" d="M19.7,17.12c-.24,.88,.64,1.58,1.23,2.09,.48,.42,.93,.84,1.36,1.32,.53,.59,.81,1.13,1.16,1.82,.04,.07,.16,.06,.18-.02,.25-1.11-.52-1.66-1.21-2.41-.82-.89-2.3-1.56-2.59-2.8-.02-.07-.11-.06-.13,0h0Z"/></g></g><g class="af"><path class="ab" d="M14.58,18.54c.61-.42,1.28-.72,2.03-.76,.41-.02,.85-.15,1.14-.46,.49-.53-.06-1.2-.64-1.31-.16-.03-.22,.2-.07,.24,.33,.08,.67,.21,.68,.61,.01,.43-.54,.61-.87,.69-.46,.1-.87,.07-1.31,.26-.38,.17-.74,.36-.98,.7,0,.01,0,.03,.02,.02h0Z"/></g><path class="ab" d="M16.92,6.56c.21,0,.21-.33,0-.33s-.21,.33,0,.33h0Z"/><path class="ab" d="M16.81,5.96h.03c.2-.03,.2-.29,0-.32h-.03c-.21-.03-.21,.35,0,.32h0Z"/><path class="ab" d="M16.75,5.36c.19,0,.19-.3,0-.3s-.19,.3,0,.3h0Z"/><path class="ab" d="M19.66,6.49c.27,0,.27-.41,0-.41s-.27,.41,0,.41h0Z"/><path class="ab" d="M19.66,5.75h-.01s-.09,.02-.14,.03h.02c.15,.03,.29-.09,.25-.25-.04-.14-.24-.2-.34-.09-.08,.09-.09,.22,0,.31,.07,.06,.15,.06,.22,0h0Z"/><path class="ab" d="M19.55,5.14c.25,0,.25-.39,0-.39s-.25,.39,0,.39h0Z"/><path class="ab" d="M22.65,6.23h.02c.14-.06,.23-.19,.19-.34-.04-.14-.19-.23-.33-.19h-.02c-.14,.05-.23,.19-.19,.34,.04,.13,.19,.24,.33,.19h0Z"/><path class="ab" d="M22.71,5.41v-.02c.12-.21-.14-.41-.31-.25l-.02,.02c-.23,.21,.18,.53,.33,.26h0Z"/><path class="ab" d="M22.66,4.71v-.02c.1-.26-.4-.26-.31,0v.02c.06,.15,.25,.15,.31,0h0Z"/><path class="ab" d="M25.79,6.3c.36,0,.36-.56,0-.56s-.36,.56,0,.56h0Z"/><path class="ab" d="M25.79,5.49c.28,0,.28-.44,0-.44s-.29,.44,0,.44h0Z"/><path class="ab" d="M25.75,4.88h.02c.1,.05,.22-.05,.22-.15s-.11-.21-.22-.17h-.02c-.15,.07-.15,.26,0,.32h0Z"/><path class="ab" d="M10.64,31.31h-.09s-.06-.02-.09-.04c.05,.04,.11,.06,.18,.06-.03,0-.07-.01-.1-.02h.02c.15,.09,.29-.07,.25-.21h0c-.01-.1-.1-.19-.22-.18-.12,.01-.2,.09-.21,.21-.01,.13,.14,.29,.27,.18h0Z"/><path class="ab" d="M10.52,32.2h.02c.34-.05,.3-.53-.04-.53h-.02c-.34,0-.3,.58,.04,.53h0Z"/><path class="ab" d="M10.37,33.16c.07,.02,.13,0,.19-.04,.11-.08,.13-.3-.02-.35h-.01c-.09-.04-.18-.03-.25,.05-.08,.09-.06,.21,.02,.3,.02,.02,.05,.04,.08,.04h0Z"/><path class="ab" d="M10.26,33.98h.03c.23,.05,.3-.3,.07-.35h-.03c-.23-.05-.3,.31-.07,.35h0Z"/><path class="ab" d="M10.18,34.69c.17,.03,.22-.23,.05-.26-.17-.03-.22,.23-.05,.26h0Z"/><path class="ab" d="M12.13,35.22l.03-.02c.1-.08,0-.23-.11-.17-.01,0-.02,.01-.04,.02-.12,.06,.01,.26,.12,.17h0Z"/><path class="ab" d="M12.35,34.67s.09,.06,.14,.07c.23,.06,.31-.33,.07-.36-.06,0-.1,0-.16,.02-.11,.05-.14,.18-.05,.27h0Z"/><path class="ab" d="M12.87,34.1c.29,.06,.37-.39,.09-.44-.29-.06-.37,.39-.09,.44h0Z"/><path class="ab" d="M13.1,33.2c.27,.05,.36-.37,.08-.42-.27-.05-.36,.37-.08,.42h0Z"/><path class="ab" d="M13.25,32.45c.26,.05,.34-.35,.08-.4-.26-.05-.34,.35-.08,.4h0Z"/><path class="ae" d="M12.01,36.75c-.34-.04-.44-.42-.02-1.62,.42-1.2,.46-2.21,.28-2.92-.17-.71-.4-1.86,.18-1.85,.57,.02,1.01,1,1.1,1.99,.09,1.03-.13,1.85-.33,2.62-.2,.77-.85,1.82-1.21,1.78Z"/><path class="ae" d="M9.62,36.44c-.41,.02-.75-.17-.58-1.71s.73-4.56,1.34-4.73c.61-.17,.75,.17,.75,.72,0,.55-.74,5.68-1.5,5.71Z"/><path class="ab" d="M12.59,35.14c-.06-.03-.11-.04-.17-.04-.19,0-.25,.3-.07,.37,.06,.02,.11,.04,.17,.03,.19-.01,.24-.28,.07-.36h0Z"/><path class="ab" d="M12.64,34.6c.16,.03,.31-.07,.34-.23,.03-.16-.07-.31-.23-.34-.16-.03-.31,.07-.34,.23-.03,.16,.07,.31,.23,.34h0Z"/><path class="ab" d="M13.03,32.96l-.03-.02c-.16-.09-.37,.03-.4,.2-.03,.17,.12,.36,.3,.34h.03c.27-.04,.34-.39,.1-.52h0Z"/><path class="ab" d="M13.06,31.93c-.11-.11-.28-.13-.41-.04-.11,.07-.14,.22-.06,.33,.09,.13,.25,.18,.39,.12,.17-.07,.21-.27,.08-.4h0Z"/><path class="ab" d="M12.75,30.91s-.07-.03-.12-.04c-.25-.03-.31,.31-.07,.38,.04,.01,.08,.01,.12,0,.18-.02,.23-.26,.07-.35h0Z"/><path class="ab" d="M10.36,30.46h-.01c-.12,.11-.14,.31,.02,.38h.01c.15,.08,.34-.04,.32-.21-.01-.16-.22-.28-.35-.17h0Z"/><path class="ab" d="M10.25,31.3h-.01c-.1,.1-.12,.21-.06,.33v.02c.11,.2,.42,.1,.46-.09,.04-.2-.21-.4-.38-.25h0Z"/><path class="ab" d="M10.09,32.22s-.08,.04-.12,.06c-.12,.06-.16,.23-.12,.35,.05,.13,.17,.2,.3,.2,.02,0,.04,0,.06,0,.16-.03,.3-.15,.28-.33-.02-.2-.22-.34-.41-.27h0Z"/><path class="ab" d="M10,33.82c.39,.08,.5-.52,.12-.6-.39-.08-.5,.52-.12,.6h0Z"/><path class="ab" d="M9.81,34.76c.29,.06,.38-.4,.09-.46-.3-.06-.38,.4-.09,.46h0Z"/><path class="ab" d="M9.68,35.45c.24,.05,.32-.33,.07-.38-.24-.05-.32,.33-.07,.38h0Z"/><path class="ab" d="M12.19,36.08c.21,.04,.27-.28,.06-.32-.2-.04-.27,.28-.06,.32h0Z"/><path class="ae" d="M6.48,35.74c.34,.03,.57-.23,.63-1.5,.06-1.27,.41-2.22,.83-2.81,.43-.6,1.07-1.58,.53-1.78-.54-.2-1.31,.55-1.77,1.43-.48,.92-.56,1.77-.68,2.56-.13,.84,.07,2.07,.45,2.1Z"/><path class="ab" d="M6.55,34.03c.06,0,.11,0,.17,.03,.18,.07,.12,.37-.07,.37-.06,0-.11,0-.17-.04-.17-.08-.12-.35,.07-.36h0Z"/><path class="ab" d="M6.7,33.5c-.16-.03-.26-.19-.23-.34,.03-.16,.18-.26,.34-.23,.16,.03,.26,.19,.23,.34-.03,.16-.18,.26-.34,.23h0Z"/><path class="ab" d="M6.95,31.84h.04c.18-.03,.33,.16,.3,.33-.03,.17-.24,.29-.4,.2l-.03-.02c-.24-.13-.17-.48,.1-.51h0Z"/><path class="ab" d="M7.31,30.87c.15-.06,.3-.02,.39,.12,.07,.11,.04,.26-.06,.33-.13,.09-.29,.07-.41-.04-.13-.13-.09-.33,.08-.4h0Z"/><path class="ab" d="M7.98,30.04s.08,0,.12,0c.24,.07,.17,.41-.07,.38-.04,0-.08-.02-.12-.04-.16-.09-.12-.33,.07-.35h0Z"/><path class="ab" d="M6.57,35.04c-.2-.04-.14-.36,.06-.32,.2,.04,.14,.36-.06,.32h0Z"/><g><path class="ab" d="M24.14,27.77c-.6-.5-1.47,.27-1.82,.76-.23,.32-.31,.82,.09,1.05,.37,.21,.82,.06,1.17-.14,.4-.23,.81-.53,1.1-.89,.29-.36,.41-.96-.12-1.18-.55-.22-1.05,.14-1.46,.47-.37,.3-.87,.79-.87,1.31,0,.47,.66,.61,.88,.21,.24-.44,.63-.96,1.12-1.11-.03,0-.13-.02-.02,0-.17-.04-.2-.41-.22-.34,.03-.11-.02,.01-.03,.04,.01-.02-.09,.1-.11,.12-.19,.2-.41,.36-.64,.52-.21,.14-.24,.18-.46,.18,.12,0,.2,.1,.25,.21,0,.02-.01,.17,0,.08,.02-.08,.03-.1,.1-.22,.12-.2,.29-.37,.45-.54,.06-.06,.37-.41,.47-.37,.1,.05,.22-.09,.12-.17h0Z"/><path class="ab" d="M18.09,32c-.4-.12-.98,.25-1.29,.47-.43,.3-.79,.68-.84,1.22-.02,.2,.13,.43,.33,.48,1,.25,2.29-.8,2.58-1.73,.08-.26-.06-.54-.32-.62-.52-.16-1.04,.11-1.45,.41-.38,.29-.93,.79-.92,1.32,0,.33,.38,.67,.72,.45,.02-.01,.04-.02,.06-.04,.23-.15,.32-.46,.12-.68l-.04-.05c.04,.16,.07,.32,.11,.48,.12-.27,.28-.45,.5-.64,.14-.12,.49-.36,.61-.32-.11-.21-.21-.41-.32-.62-.09,.3-.36,.53-.59,.73-.15,.13-.54,.44-.75,.4,.11,.16,.22,.32,.33,.48,.02-.69,1.08-.89,1.32-1.45,.05-.11-.04-.25-.14-.28h0Z"/><path class="ab" d="M20.01,29.58c-.33,.22-.49,.37-.66,.73-.17,.39-.16,.89,0,1.28,.31,.76,1.12,.99,1.85,.72,.6-.23,.93-.9,1.03-1.5,.11-.71-.35-1.31-.98-1.57-.65-.27-1.53-.14-1.97,.44-.37,.49-.32,1.14-.1,1.68,.21,.54,.75,.95,1.34,.97,.82,.02,1.35-.66,1.47-1.4,.1-.56-.22-1.06-.72-1.28-.49-.21-1.23,.05-1.46,.53-.2,.41-.18,1.04,.26,1.3,.54,.33,1.02-.09,1.18-.61,.15-.48-.37-.93-.82-.69-.26,.14-.45,.33-.62,.56-.18,.24-.08,.66,.17,.8,.02,0,.04,.02,.05,.03,.32,.17,.68,.05,.81-.29-.08,.2,.04-.16,.02-.26-.01-.05-.03-.1-.05-.15,.23,.51-.16,.51,.16,.33-.27-.23-.55-.46-.82-.69-.07,.24,.25-.27,.63,.07,.08,.07,.05,.16,.05,.08,0,.1-.02,.06-.02,.07-.05,.04,.07,0,.1,.01-.09-.02-.1-.14-.07-.01,.01,.05-.02,.15-.04,.22-.04,.14-.14,.19-.23,.22-.08,.02,.01,.01-.12,0,.06,0,.04,.01-.05-.04-.07-.04-.11-.11-.18-.25-.04-.08-.07-.21-.06-.31,0-.15-.02-.02,.03-.16-.02,.05,.03-.05,.04-.06,.03-.03,.06-.04,.04-.03,.11-.04,.16-.04,.28-.03,.16,0,.37,.06,.44,.13,.08,.08,.09,.16,.09,.25,0,.15-.05,.28-.13,.42-.15,.24-.3,.3-.5,.2-.39-.2-.43-1.1-.19-1.41,.11-.15-.09-.37-.25-.27h0Z"/><path class="ag" d="M20.59,31c.46,.02,.49-.7,.03-.72-.46-.02-.49,.7-.03,.72h0Z"/><path class="ag" d="M19.67,29.7c.11,0,.11-.16,0-.16-.11,0-.11,.16,0,.16h0Z"/><path class="ag" d="M19.39,30.26c.1,0,.11-.15,0-.16-.1,0-.11,.15,0,.16h0Z"/><path class="ag" d="M19.38,30.9c.14,0,.14-.21,0-.21-.14,0-.14,.21,0,.21h0Z"/><path class="ag" d="M19.64,31.49c.13,0,.14-.2,0-.21-.13,0-.14,.2,0,.21h0Z"/><path class="ag" d="M20.1,32.01h.02c.07-.03,.08-.12,0-.15h-.02c-.13-.07-.14,.2,0,.15h0Z"/><path class="ag" d="M20.76,32.17h.02c.1-.02,.1-.17,0-.2h-.02c-.17-.06-.18,.23,0,.2h0Z"/><path class="ag" d="M21.4,31.9c.11,0,.12-.17,0-.17-.11,0-.12,.17,0,.17h0Z"/><path class="ag" d="M21.81,31.37c.1,0,.11-.16,0-.16-.11,0-.11,.16,0,.16h0Z"/><path class="ag" d="M21.95,30.62c.1,0,.1-.15,0-.15-.1,0-.11,.15,0,.15h0Z"/><path class="ag" d="M21.72,30c.13,0,.13-.19,0-.2s-.13,.19,0,.2h0Z"/><path class="ag" d="M21.16,29.59c.15,0,.16-.22,0-.23-.15,0-.16,.22,0,.23h0Z"/><path class="ag" d="M20.46,29.49h.02c.11,0,.12-.16,0-.18h-.02c-.11-.02-.12,.18,0,.18h0Z"/></g><g><g><path class="ae" d="M12.45,12.25c-.06,.02-.12,.06-.17,.11-.14,.14-.21,.34-.19,.54,.02,.19,.12,.38,.29,.49,.09,.06,.19,.1,.3,.09,.24-.03,.36-.29,.42-.52,.04-.15,.07-.37-.18-.57-.13-.1-.3-.18-.46-.13Z"/><path class="ae" d="M12.92,12.64c.3,.05,.6,.11,.9,.2-.33,.2-.72,.29-1.1,.25,.05-.14-.1-.33,.01-.42,.05-.04,.12-.04,.19-.03Z"/><g><path class="ae" d="M9.89,17.28c.64,.15,1.34,.13,1.92-.2,.57-.33,.97-.99,.86-1.64-.04-.25-.15-.49-.31-.68-.16-.19-.33-.39-.57-.48-1.09-.39-2.58,.29-3.05,.9-.1,.13-.18,.27-.23,.42-.12,.39,.03,.83,.32,1.13,.28,.3,.67,.46,1.07,.56Z"/><path class="ae" d="M6.85,14.63c-1,.12-1.79,1.04-1.99,2.03-.2,.99,.09,2.03,.54,2.93,.03,.05,.05,.1,.09,.13,.53-.62,3.44-3.12,4-4.08-.19-.25-.44-.41-.72-.56-.65-.35-1.2-.54-1.93-.45Z"/><path class="ae" d="M12.14,16.07c-.08-.01-.15-.06-.21-.12-.56-.45-1.43-.92-1.55-1.63,.59-.34,1.6-1.5,2.04-2.02,.23,.86,.32,2.56,.25,3.44-.01,.14-.12,0-.19,.12-.07,.12-.2,.22-.34,.19Z"/><path class="ae" d="M12.08,11.97c-.05-.15-.23-.2-.39-.21-.14,0-.29,.03-.37,.14-.06,.09-.05,.21,0,.31,.05,.1,.13,.17,.22,.23-.16-.07-.39,.01-.43,.18-.03,.15,.08,.29,.21,.37,.13,.07,.29,.1,.43,.15,.16,.06,.29,.15,.43,.25,.13-.25,.26-.5,.38-.74,.06-.11,.12-.22,.17-.34,.05-.12,.1-.25,.1-.38,0-.13-.04-.27-.13-.36-.03-.03-.07-.05-.12-.07-.15-.06-.33-.05-.45,.05-.12,.1-.16,.3-.06,.42Z"/><path class="ab" d="M9.42,15.85c.47,.46,1.09,.85,1.75,.51,.45-.23,1.09-.79,.84-1.35-.03-.06-.12-.06-.15,0-.2,.42-.31,.76-.73,1.03-.54,.34-1.17,.08-1.63-.27-.06-.05-.14,.03-.08,.08h0Z"/><g class="q"><path class="ab" d="M7.76,15.29c-.97-.72-1.82,.46-2.13,1.3-.42,1.12,0,2.6,.94,3.33,.06,.05,.14-.03,.12-.1-.26-.77-.73-1.33-.77-2.18-.06-1.04,.63-2.38,1.82-2.27,.04,0,.05-.05,.02-.08h0Z"/><path class="ab" d="M7.74,15.79c-1.47,.12-1.43,2.65-.37,3.27,.07,.04,.15-.02,.13-.1-.13-.46-.37-.88-.46-1.36-.14-.72,.16-1.27,.73-1.68,.05-.04,.04-.14-.04-.13h0Z"/><path class="ab" d="M7.96,16.27c-.75,.52-.58,1.74,.29,2.05,.08,.03,.13-.07,.1-.13-.27-.61-.86-1.12-.28-1.78,.06-.07-.02-.21-.11-.14h0Z"/></g><path class="x" d="M12.63,28.93c.13,.01,.25,.02,.38,0,.26-.07,.45-.32,.53-.58,.08-.26,.08-.54,.11-.81,.04-.38,.13-.76,.27-1.11,.13-.32,.31-.63,.35-.98,.09-.72-.4-1.38-.87-1.92-.49-.56-1.02-.67-1.51-1.91-.25-.63-.34-.95-.47-1.02-.2-.11-.38,.14-.46,.25-.08,.44-.13,.47,.02,1.18,.09,.43,.02,.61,.43,1.65,.14,.35,.09,.15,.28,.47-.32,.33-.65,.07-1.07,.24-.42,.17-.55,.69-.59,1.14-.04,.49-.03,.98,.03,1.47,.07,.57,.23,1.17,.68,1.52,.37,.28,.85,.33,1.3,.36,.2,.02,.4,.03,.6,.05Z"/><path class="ab" d="M11.31,25.09c.23,.28,.67,.59,.59,1-.07,.38-.61,.15-.82,.11-.06,0-.09,.04-.07,.09,.16,.33,.84,.26,1.03,0,.15-.21,.09-.48-.02-.7-.13-.28-.41-.43-.67-.56-.04-.02-.07,.03-.05,.06h0Z"/><path class="ab" d="M11.18,26.42c.12,.14,.3,.19,.43,.31,.15,.14,.25,.43,.1,.61-.2,.23-.58,.09-.82,.05-.05,0-.08,.03-.06,.08,.17,.34,.79,.22,1.01,0,.14-.14,.14-.41,.06-.58-.06-.12-.13-.22-.23-.31-.12-.11-.29-.13-.42-.23-.05-.04-.12,.02-.07,.07h0Z"/><path class="ab" d="M11.17,28.44c.29,.08,.63,.03,.71-.3,.08-.33-.16-.53-.44-.63-.07-.02-.39-.1-.35,.08,.04,.17,.29,.2,.43,.25,.16,.06,.25,.21,.12,.37-.09,.11-.33,.14-.47,.18-.02,0-.03,.04,0,.05h0Z"/><path class="ae" d="M11.34,24.42c-.24,.01-.51-.36-.54-.58-.04-.35,.03-.14-.02-.49-.13-.97-.3-2.5-.32-3.48-.02-.84-.14-1.68-.07-2.52,.01-.13,.14-.28,.2-.39,.07-.12,.21-.21,.35-.19-.18,1.87-.01,3.31,.09,5.69,.03,.65,.32,1.3,.3,1.95Z"/><path class="r" d="M12.04,24.66c-.07,.23-.3,.4-.54,.4-.21,0-.41-.11-.59-.22-.15-.09-.29-.17-.44-.26-.26-.15-.53-.31-.72-.55-.19-.24-.28-.58-.15-.85,.09-.18,.35-.8,1.05-.45,.37,.19,.9,.87,1.29,1.37,.11,.14,.15,.39,.1,.56Z"/><path class="ab" d="M11.07,24.96c.16,.23,.63,.35,.88,.22,.29-.15,.37-.54,.15-.78-.02-.02-.06,0-.05,.02,.02,.18,0,.51-.21,.58-.2,.07-.52,0-.7-.1-.04-.02-.1,.02-.07,.07h0Z"/></g></g><path class="ab" d="M12.47,12.88c.18,0,.18-.27,0-.27s-.18,.27,0,.27h0Z"/></g><path class="r" d="M24.32,40.35c-.58-.58-1.48-.69-2.31-.73-.49-.03-.99-.04-1.48-.05-.34,0-.69,0-1.02,.06-.48,.09-.92,.31-1.35,.53-.83,.42-1.65,.88-2.45,1.36-.23,.14-.46,.28-.65,.46-.42,.41-.61,.99-.73,1.56-.41,2.02-.04,4.1,.34,6.12,.05,.28,.11,.57,.24,.82,.29,.52,.88,.79,1.45,.94,.93,.25,1.92,.26,2.88,.22,1.59-.07,3.18-.31,4.66-.89-.02-.43-.04-.86-.07-1.3,0-.09,0-.17,.02-.26,.05-.15,.17-.25,.29-.35,1.01-.85,1.65-2.06,2.25-3.24,.26-.5,.53-1.04,.48-1.6-.26-.13-.58-.13-.85-.02-.25,.11-.5,.33-.75,.23-.24-.09-.29-.4-.29-.65-.01-.56,.03-1.13-.03-1.69s-.25-1.13-.65-1.53Z"/><path class="ab" d="M22.98,48.29c.12,.55,.18,1.09,.08,1.46-.02,.07-.02,.16-.07,.21-.07,.09-.21,.11-.32,.11-1.08,.06-2.16,.33-3.23,.19-2.05-.28-1.92-1.04-1.94-1.27,0-.08,.14-.08,.21-.13,.03-.02,.06-.02,.09-.03,.9-.16,1.8-.33,2.7-.49,.31-.06,.62-.11,.94-.16,.44-.06,.82-.24,1.27-.24,.05,0,.22-.02,.29,.33Z"/><path class="n" d="M21.33,49.22c-1.23,.53-2.61,.31-3.84-.22,0-.13,.08-.25,.17-.35,.62-.73,1.52-1.21,2.47-1.33,.95-.12,1.94,.12,2.72,.67-.1,.26-.55,.81-1.52,1.23Z"/><path class="ab" d="M20.22,47.69c-.3,.02-.62,.17-.76,.47-.18,.37,0,.9,.34,1.04,.17,.07,.36,.06,.54,.03,.3-.05,.64-.18,.76-.51,.1-.27,0-.59-.18-.79-.19-.19-.46-.27-.71-.25Z"/><g><path class="p" d="M13.83,41.33c.16-2.4,.71-4.75,2.73-6.05,1.27-.81,3.28-1.21,4.76-1.44,.52-.08,1.04-.16,1.57-.16,.76,0,1.51,.18,2.26,.35,.11,.02,.22,.05,.3,.12,.17,.15,.14,.42,.09,.64-.09,.42-.21,.84-.35,1.25-.53,1.51-.59,2.18-.52,4.62,0,.12,.15,.85,.11,.97-.08,.24-.32,.04-.57,.07-2.94,.35-6.09-.56-9.01-.09-.26,.04-.53,.09-.79,.05-.26-.04-.58-.07-.57-.34Z"/><g class="ac"><path class="ab" d="M26.08,33.5c-.6,.15-.89,.54-1.19,1.06-.39,.7-.85,1.47-.99,2.27-.15,.88-.18,1.84-.26,2.74-.09,.94,.26,1.83,.09,2.77-.03,.15,.18,.27,.27,.11,.24-.44,.18-.9,.13-1.39-.11-.99-.09-1.84,.06-2.83,.14-.91,.07-1.65,.52-2.5,.4-.75,.66-1.61,1.44-2.06,.1-.06,.03-.21-.08-.18h0Z"/><path class="ab" d="M25.33,33.04c-.55,.48-1.08,.81-1.52,1.42-.52,.71-.79,1.61-.98,2.46-.43,1.89-.22,3.7,.08,5.58,.03,.15,.23,.12,.27,0,.23-.6,.04-1.17-.08-1.78-.21-1.05-.05-2.3,.12-3.35,.15-.95,.47-1.85,.98-2.67,.36-.58,.99-.94,1.25-1.57,.03-.08-.08-.12-.12-.07h0Z"/><path class="ab" d="M24.07,32.94c-1.46,.91-2.07,2.34-2.46,3.98-.21,.9-.35,1.81-.38,2.73-.04,1.09,.46,2.08,.31,3.18-.02,.18,.19,.29,.3,.12,.31-.49,.21-1,.1-1.55-.24-1.2-.3-2.21-.09-3.44,.31-1.88,.98-3.54,2.29-4.96,.04-.04-.01-.11-.06-.08h0Z"/><path class="ab" d="M23.02,32.6c-1.5,.95-2.21,2.62-2.5,4.3-.3,1.78-.52,3.78-.01,5.54,.03,.1,.18,.11,.21,0,.16-.7-.01-1.41-.06-2.12-.07-.99,.07-2.02,.21-3,.12-.84,.26-1.67,.63-2.45,.4-.83,1.16-1.4,1.62-2.18,.04-.06-.04-.13-.09-.1h0Z"/><path class="ab" d="M21.65,32.74c-1.5,.83-2,2.36-2.35,3.93-.2,.86-.3,1.71-.31,2.58-.01,.97,.23,1.89,.28,2.84,.02,.26,.36,.3,.44,.06,.21-.61-.05-1.24-.11-1.87-.09-.94-.06-1.87,.08-2.8,.12-.78,.28-1.56,.5-2.32,.29-1,1.06-1.49,1.56-2.33,.04-.06-.04-.13-.1-.1h0Z"/><path class="ab" d="M20.35,32.75c-1.34,.51-1.86,2.3-2.16,3.56-.21,.88-.29,1.78-.38,2.67-.1,1.13-.27,2.47,.05,3.57,.03,.1,.17,.1,.2,0,.22-.77,.15-1.59,.18-2.39,.04-1.07,.11-2.14,.26-3.2,.24-1.66,.82-2.86,1.9-4.12,.03-.04,0-.11-.05-.09h0Z"/><path class="ab" d="M18.91,33.06c-1.31,.76-1.86,2.13-2.04,3.61-.25,2.06-.68,4.29-.36,6.35,.02,.11,.18,.12,.23,.03,.3-.52,.17-1.06,.17-1.64,0-1.02,.08-2.05,.2-3.06,.23-1.98,.37-3.73,1.84-5.24,.03-.03,0-.07-.04-.05h0Z"/><path class="ab" d="M17.01,33.87c-.99,.95-1.47,2.43-1.69,3.75-.11,.69-.13,1.39-.08,2.09,.05,.71-.03,1.49,.3,2.13,.07,.13,.24,.05,.26-.07,.16-1.25-.1-2.5,.01-3.75,.07-.75,.25-1.49,.5-2.2,.21-.61,.34-1.41,.73-1.93,.01-.02-.02-.04-.03-.02h0Z"/><path class="ab" d="M14.98,35.65c-.66,.96-.79,1.94-.91,3.08-.11,1.04-.18,2.38,.27,3.34,.04,.09,.18,.06,.21-.03,.25-.93,0-1.99,.04-2.95,.04-1.17,.43-2.28,.47-3.43,0-.04-.05-.05-.07-.02h0Z"/></g></g><path class="p" d="M16.4,40.39c.51,.56,1.04,1.27,.86,2.01-.11,.48-.49,.84-.78,1.24-.29,.4-.5,.95-.24,1.37,.21,.33,.62,.44,.93,.67,.5,.37,.72,1.08,.5,1.67-.12,.34-.37,.62-.53,.95-.33,.68-.23,1.5,.12,2.17,.35,.67,.92,1.19,1.53,1.62-.94-.05-1.84-.03-2.78-.08-.51-.03-1.02-.05-1.51-.2-.89-.27-1.65-.96-2-1.83-.21-.51-.28-1.07-.47-1.59-.15-.4-.37-.77-.57-1.15-1.11-2.06-1.71-4.38-3-6.33-.08-.13-.17-.3-.08-.43,.05-.07,.15-.09,.24-.11,1.02-.17,2.07-.01,3.1-.04,1.03-.03,2.04-.25,3.06-.32,.6-.04,1.21-.1,1.62,.35Z"/><path class="ag" d="M13.91,53.04c-.11,1.19,0,2.99,.19,4.46,.12,.92,.38,1.85,.44,2.49,.11,1.08,.83,.87,.86,.54,.25-2.44,.09-3.65,.54-5.6,.11-.47,.82-.43,.93-.07,.28,.94,.32,1.78,.43,2.73,.22,1.79,.39,2.83,.72,3.23,.15,.18,.47,.2,.55-.03,.74-2.09-.21-5.83,.98-6.27,.23-.09,.49,.08,.54,.32,.42,1.92-.1,4.08,.83,5.83,.06,.11,.14,.23,.26,.25,.18,.03,.32-.17,.39-.34,.8-1.92-.13-5.55,.62-6.21,.28-.25,.5-.1,.54,.27,.31,3.27,.6,5.46,1.27,5.72,.37,.15,.54-1,.52-1.44-.07-2.33-.2-4.66-.33-6.99,.01,.05,0,.09-.02,.04-.03-.04-.09-.05-.14-.04-3.19,.22-6.38,.45-9.58,.67-.12,0-.23,.05-.34,.11-.1,.06-.2,.2-.21,.32Z"/><path class="ab" d="M24.25,50.76c-.33-.41-8.58,.45-10.35,.54-.17,0-.32,.11-.39,.27-.15,.36-.05,.68,.04,1.06,.02,.08,.04,.16,.1,.21,.09,.09,.24,.09,.37,.08,2.56-.16,5.12-.32,7.67-.49l2.19-.14c.16,0,.33-.05,.47-.14,.37-.22,.3-.52,.23-.79-.06-.23-.18-.43-.33-.62Z"/><path class="ab" d="M24.09,60.34c-.16,0-.3,.13-.3,.3s.14,.3,.3,.3,.3-.14,.3-.3-.13-.3-.3-.3h0Z"/><path class="ab" d="M21.22,60.74c-.38,0-.38,.6,0,.6s.38-.6,0-.6h0Z"/><path class="ab" d="M18.32,60.86c-.17,0-.31,.14-.31,.32s.14,.31,.31,.31,.31-.14,.31-.31-.14-.32-.31-.32h0Z"/><path class="ab" d="M15.06,60.62c-.17,0-.32,.15-.32,.32s.15,.32,.32,.32,.32-.15,.32-.32-.15-.32-.32-.32h0Z"/><path class="ab" d="M23.72,55.07c.17-.78-.04-1.58-.09-2.36-.02-.27-.41-.27-.42,0-.05,.79,.26,1.55,.33,2.33,0,.1,.16,.13,.18,.03h0Z"/><path class="ab" d="M21.11,55.18c.11-.43,.15-.87,.13-1.31-.02-.34,0-.84-.28-1.09-.11-.1-.29-.06-.33,.09-.1,.35,.07,.79,.1,1.15,.03,.39,.07,.78,.17,1.16,.03,.11,.19,.11,.21,0h0Z"/><path class="ab" d="M18.17,55.33c-.09-.71-.11-1.41-.15-2.12-.02-.33-.51-.33-.51,0-.02,.73,.18,1.45,.36,2.16,.04,.16,.32,.13,.3-.04h0Z"/><path class="ab" d="M14.89,55.37c.35-.46,.32-1.28,.27-1.83-.03-.38-.57-.38-.59,0-.01,.28,0,.56,.02,.84,.02,.3,0,.61,.01,.92,.01,.16,.19,.2,.28,.08h0Z"/><g class="aa"><path class="ab" d="M16.89,51.48c-.32-.38-.49-1.06-.61-1.51-.24-.88,.2-1.65,.36-2.49,.18-.92-.81-1.4-1.36-1.93-1.26-1.22,1.16-2.88,1.3-4.13,.11-.94-.76-2.14-1.53-2.59-.07-.04-.17,.04-.12,.12,.42,.57,.92,.99,1.2,1.67,.45,1.09-.38,1.73-.94,2.51-.48,.67-.96,1.79-.32,2.53,.34,.39,.79,.65,1.16,1.01,.65,.62-.15,1.66-.17,2.34-.02,.86,.19,2.03,.99,2.5,.02,0,.03,0,.02-.02h0Z"/><path class="ab" d="M15.77,51.37c-1.4-.9-.24-2.16-.39-3.35-.04-.27-.3-.52-.48-.71-.54-.58-1.1-.97-1.35-1.77-.51-1.62,1.2-2.47,1.69-3.8,.33-.92,.04-1.86-.83-2.38-.1-.06-.24,.06-.17,.17,.14,.22,.3,.43,.46,.64,.5,.67,.16,1.33-.21,1.95-.35,.59-.89,1.03-1.21,1.64-.47,.92-.29,2.19,.38,2.96,.44,.5,1.41,1.02,1.26,1.81-.09,.5-.29,.88-.3,1.41,0,.68,.31,1.57,1.12,1.53,.06,0,.08-.08,.03-.12h0Z"/><path class="ab" d="M14.61,51.64c-.27-.2-.61-.98-.73-1.26-.2-.49,.19-1.44,.12-2.02-.05-.43-.3-.7-.62-.97-.64-.55-1.19-.92-1.45-1.77-.78-2.47,3.26-4.78,.46-6.88-.15-.12-.37,.11-.26,.26,.65,.92,1.04,1.55,.54,2.7-.25,.57-.64,1.07-.85,1.66-.42,1.18-.51,2.29,.23,3.35,.33,.47,.84,.77,1.25,1.15,.74,.69-.03,1.61,.13,2.38,.09,.42,.58,1.59,1.17,1.46,.04,0,.03-.05,0-.07h0Z"/><path class="ab" d="M12.24,51.59c.84-.17,.74-1.47,.73-2.12-.03-1.39-1.21-1.82-2.07-2.7-.51-.52-.33-1.25-.28-1.91,.08-1.07,.54-1.95,.92-2.93,.44-1.15,.15-3.02-1.33-3.19-.12-.01-.14,.13-.08,.2,.69,.87,1.26,1.32,1.01,2.54-.15,.72-.57,1.4-.78,2.11-.25,.85-.49,2.12-.17,2.98,.29,.77,1.24,1.23,1.85,1.7,.53,.41,.55,.99,.57,1.58,0,.34,.08,1.53-.37,1.68-.04,.01-.02,.06,.02,.06h0Z"/><path class="ab" d="M8.48,43.96c1.21,.83,2.86-3.85,1.05-4.92-.07-.04-.16,.04-.11,.12,.6,.84,.66,1.78,.44,2.76-.16,.69-.63,1.68-1.36,1.88-.08,.02-.08,.12-.02,.16h0Z"/><path class="ab" d="M7.93,42.87c.57,.11,1.05-.58,1.23-1.05,.31-.81,.16-1.71-.41-2.36-.04-.05-.13-.01-.13,.05,.07,.64,.37,1.18,.26,1.84-.11,.65-.55,.98-.98,1.42-.03,.03-.02,.09,.02,.1h0Z"/></g><g><path class="p" d="M25.4,43.67c.16-.65,.05-1.36-.29-1.94-.11-.18-.25-.36-.45-.42-.17-.05-.36,0-.53,.05-.76,.29-1.31,1.06-1.33,1.88-.25-1.02-1.33-1.62-2.37-1.8-1.04-.18-2.1-.05-3.14-.23,.1,.62,.49,1.15,.87,1.66,.37,.49,.75,.99,1.29,1.28,.55,.3,1.2,.34,1.82,.37,1.15,.06,2.31,.12,3.43-.13,.13-.03,.26-.07,.37-.14,.19-.13,.28-.36,.33-.58Z"/><g class="ad"><path class="ab" d="M23.41,45.01c.05-.33,.03-.61,.01-.94-.05-.83,.43-1.56,.97-2.13,.59-.61,.96-1.23,.9-2.11,0-.1-.12-.13-.18-.05-.37,.51-.44,1.12-.86,1.61-.27,.31-.55,.59-.79,.92-.63,.87-.42,1.77-.13,2.69,.01,.03,.07,.04,.07,0h0Z"/><path class="ab" d="M24.08,44.98c.04-.31,.05-.61,.06-.92,0-.66,.52-1.13,.92-1.59,.41-.48,.85-1.1,.72-1.76-.02-.08-.15-.11-.19-.03-.34,.79-.8,1.35-1.32,2.04-.61,.81-.43,1.31-.3,2.25,0,.06,.11,.09,.12,.02h0Z"/><path class="ab" d="M24.49,44.87c.11-.28,.18-.56,.27-.85,.12-.41,.41-.65,.74-.89,.31-.23,.65-.49,.74-.88,.02-.07-.06-.11-.11-.07-.39,.38-.88,.61-1.27,.99-.45,.44-.36,1.1-.44,1.67,0,.05,.05,.06,.07,.02h0Z"/><path class="ab" d="M22.76,45.01c.27-.97-.62-1.91-1.16-2.63-.55-.73-1.7-1.8-2.7-1.64-.09,.02-.09,.15-.03,.19,.87,.54,1.69,.92,2.38,1.72,.6,.7,1.2,1.45,1.44,2.36,0,.03,.06,.03,.07,0h0Z"/><path class="ab" d="M22.08,45.13c.37-.58-.72-1.58-1-1.98-.32-.45-.68-.91-1.15-1.22-.43-.28-.87-.53-1.27-.86-.31-.25-.51-.61-.82-.87-.07-.06-.19,0-.16,.09,.3,1.01,1.2,1.46,2.02,2.01,.6,.4,1.01,1.02,1.44,1.58,.3,.38,.76,.74,.86,1.23,0,.03,.05,.03,.06,0h0Z"/><path class="ab" d="M20.96,45.09c.24-.88-.64-1.57-1.23-2.09-.48-.42-.93-.84-1.36-1.32-.53-.59-.81-1.13-1.16-1.82-.04-.07-.16-.06-.18,.02-.25,1.11,.52,1.67,1.21,2.41,.82,.89,2.3,1.56,2.59,2.8,.02,.07,.11,.06,.13,0h0Z"/></g></g><g class="o"><path class="ab" d="M26.08,43.67c-.61,.42-1.28,.72-2.03,.76-.41,.02-.85,.15-1.14,.46-.49,.53,.06,1.2,.64,1.31,.16,.03,.23-.2,.07-.24-.33-.08-.67-.21-.68-.61-.01-.43,.54-.61,.87-.69,.46-.1,.87-.07,1.31-.26,.38-.17,.74-.36,.98-.7,0-.01,0-.03-.02-.02h0Z"/></g><path class="ab" d="M23.75,55.65c-.21,0-.21,.33,0,.33s.21-.33,0-.33h0Z"/><path class="ab" d="M23.86,56.25h-.03c-.2,.03-.2,.29,0,.32h.03c.21,.03,.21-.35,0-.32h0Z"/><path class="ab" d="M23.91,56.85c-.19,0-.19,.3,0,.3s.19-.3,0-.3h0Z"/><path class="ab" d="M21.01,55.72c-.27,0-.27,.41,0,.41s.27-.41,0-.41h0Z"/><path class="ab" d="M21.01,56.46h.01l.14-.03h-.02c-.15-.03-.29,.09-.25,.25,.04,.14,.24,.2,.34,.09,.08-.09,.09-.22,0-.31-.07-.06-.15-.06-.22,0h0Z"/><path class="ab" d="M21.12,57.07c-.25,0-.25,.39,0,.39s.25-.39,0-.39h0Z"/><path class="ab" d="M18.01,55.98h-.02c-.14,.05-.23,.19-.19,.34,.04,.14,.19,.23,.33,.19h.02c.14-.05,.23-.19,.19-.34-.04-.13-.19-.24-.33-.19h0Z"/><path class="ab" d="M17.95,56.8v.02c-.12,.21,.14,.41,.31,.25,0,0,.01,0,.02-.02,.23-.21-.18-.53-.33-.26h0Z"/><path class="ab" d="M18.01,57.5s0,.02,0,.03c-.09,.26,.41,.26,.31,0v-.03c-.06-.14-.25-.14-.3,0h0Z"/><path class="ab" d="M14.87,55.92c-.36,0-.36,.56,0,.56s.36-.56,0-.56h0Z"/><path class="ab" d="M14.87,56.73c-.28,0-.28,.44,0,.44s.29-.44,0-.44h0Z"/><path class="ab" d="M14.92,57.33s-.02,0-.02,0c-.11-.04-.22,.06-.22,.17s.11,.21,.22,.16c0,0,.02,0,.02,0,.15-.06,.15-.25,0-.31h0Z"/><path class="ab" d="M30.1,31.08h0s.07,0,.1,0h-.01s.06,.03,.09,.04c-.05-.04-.11-.06-.18-.06,.03,0,.07,.01,.1,.02h-.02c-.15-.1-.29,.06-.25,.21h0c.01,.1,.1,.19,.22,.18,.12-.01,.2-.09,.21-.21,.01-.13-.14-.29-.27-.18h0Z"/><path class="ab" d="M30.22,30.19h-.02c-.34,.05-.31,.53,.04,.53h.02c.34,0,.31-.58-.04-.53h0Z"/><path class="ab" d="M30.38,29.23c-.07-.02-.13,0-.19,.04-.11,.08-.13,.3,.02,.35h.01c.09,.04,.18,.03,.25-.04,.08-.09,.06-.21-.02-.3-.02-.02-.05-.04-.08-.05h0Z"/><path class="ab" d="M30.49,28.41h-.03c-.23-.05-.3,.3-.07,.35h.03c.23,.06,.3-.31,.07-.35h0Z"/><path class="ab" d="M30.58,27.7c-.17-.03-.22,.23-.05,.26,.17,.03,.22-.23,.05-.26h0Z"/><path class="ab" d="M28.64,27.15s-.02,.02-.03,.02c-.1,.08,0,.23,.11,.17l.03-.02c.12-.06-.01-.26-.12-.18h0Z"/><path class="ab" d="M28.41,27.7s-.08-.06-.14-.07c-.23-.06-.31,.33-.07,.36,.06,0,.1,0,.16-.01,.12-.05,.14-.18,.05-.27h0Z"/><path class="ab" d="M27.89,28.27c-.29-.06-.37,.38-.09,.44,.29,.06,.37-.38,.09-.44h0Z"/><path class="ab" d="M27.65,29.17c-.27-.06-.36,.37-.09,.42,.27,.06,.36-.37,.09-.42h0Z"/><path class="ab" d="M27.5,29.92c-.26-.05-.34,.35-.08,.4,.26,.05,.34-.35,.08-.4h0Z"/><path class="ae" d="M28.77,25.62c.33,.04,.44,.43,0,1.62-.43,1.19-.47,2.2-.3,2.92,.17,.71,.39,1.87-.19,1.84-.58-.02-1-1.01-1.08-2-.09-1.04,.14-1.85,.35-2.62,.21-.77,.86-1.81,1.22-1.77Z"/><path class="ae" d="M31.16,25.95c.41-.02,.75,.18,.57,1.71s-.77,4.55-1.38,4.71c-.61,.16-.75-.18-.74-.73,0-.55,.79-5.67,1.55-5.7Z"/><path class="ab" d="M28.18,27.23c.06,.03,.11,.04,.17,.04,.19,0,.25-.29,.07-.37-.06-.02-.11-.04-.17-.03-.19,.01-.24,.28-.07,.36h0Z"/><path class="ab" d="M28.12,27.77c-.16-.03-.31,.07-.34,.23-.03,.16,.07,.31,.23,.34,.16,.03,.31-.07,.34-.23,.03-.16-.07-.31-.23-.34h0Z"/><path class="ab" d="M27.72,29.41l.03,.02c.16,.09,.37-.02,.4-.2,.04-.17-.11-.36-.3-.34h-.03c-.27,.03-.34,.38-.1,.52h0Z"/><path class="ab" d="M27.68,30.44c.11,.11,.27,.13,.41,.04,.11-.07,.14-.22,.07-.33-.09-.13-.24-.18-.39-.12-.17,.07-.21,.27-.08,.4h0Z"/><path class="ab" d="M27.98,31.46s.07,.03,.12,.04c.25,.03,.32-.31,.08-.38-.04-.01-.08-.01-.12,0-.18,.02-.23,.26-.07,.35h0Z"/><path class="ab" d="M30.37,31.93h.01c.12-.11,.14-.31-.02-.38h-.01c-.15-.08-.34,.04-.33,.21,.01,.16,.21,.28,.35,.17h0Z"/><path class="ab" d="M30.48,31.09h.01c.1-.1,.13-.21,.06-.33v-.02c-.11-.2-.42-.11-.46,.09-.04,.2,.21,.4,.38,.26h0Z"/><path class="ab" d="M30.65,30.17s.08-.04,.12-.06c.12-.06,.16-.23,.12-.34-.04-.13-.17-.2-.3-.2-.02,0-.04,0-.06,0-.16,.03-.3,.15-.29,.33,.01,.2,.22,.34,.41,.27h0Z"/><path class="ab" d="M30.76,28.57c-.39-.08-.51,.52-.12,.6,.39,.08,.51-.52,.12-.6h0Z"/><path class="ab" d="M30.95,27.64c-.29-.06-.39,.4-.09,.46,.29,.06,.39-.4,.09-.46h0Z"/><path class="ab" d="M31.09,26.94c-.24-.05-.32,.33-.08,.38,.24,.05,.32-.33,.08-.38h0Z"/><path class="ab" d="M31.24,26.65h.02s.06-.11,.03-.16v-.02c-.07-.09-.22-.06-.24,.04-.02,.11,.1,.19,.2,.13h0Z"/><path class="ab" d="M28.59,26.3c-.2-.04-.27,.27-.06,.32,.2,.04,.27-.27,.06-.32h0Z"/><path class="ae" d="M34.29,26.68c-.34-.03-.57,.22-.64,1.49-.07,1.27-.42,2.21-.86,2.81-.43,.59-1.08,1.57-.54,1.77,.54,.2,1.32-.54,1.78-1.42,.48-.92,.57-1.77,.7-2.55,.13-.84-.05-2.07-.44-2.1Z"/><path class="ab" d="M34.21,28.39c-.06,0-.11,0-.17-.03-.17-.07-.12-.37,.07-.37,.06,0,.11,0,.17,.04,.17,.08,.12,.35-.07,.36h0Z"/><path class="ab" d="M34.05,28.92c.16,.03,.26,.19,.23,.34-.03,.16-.19,.26-.34,.23-.16-.03-.26-.19-.23-.34,.03-.16,.19-.26,.34-.23h0Z"/><path class="ab" d="M33.79,30.58h-.03c-.18,.03-.33-.16-.3-.33,.04-.17,.24-.29,.4-.2l.03,.02c.24,.13,.17,.48-.1,.51h0Z"/><path class="ab" d="M33.42,31.55c-.15,.06-.3,.01-.39-.12-.07-.11-.04-.26,.07-.33,.13-.09,.29-.07,.41,.04,.13,.13,.09,.33-.08,.4h0Z"/><path class="ab" d="M32.74,32.37s-.08,0-.12,0c-.24-.07-.17-.41,.08-.38,.04,0,.08,.02,.12,.04,.16,.09,.11,.33-.07,.35h0Z"/><path class="ab" d="M34.2,27.38c.2,.04,.14,.36-.06,.32-.2-.04-.14-.36,.06-.32h0Z"/><g><g><path class="ae" d="M28.22,49.96c.07-.02,.12-.06,.17-.11,.14-.14,.21-.34,.19-.54-.02-.2-.12-.38-.29-.49-.09-.06-.19-.1-.3-.09-.24,.03-.36,.29-.42,.52-.04,.15-.07,.37,.18,.57,.13,.1,.3,.18,.46,.13Z"/><path class="ae" d="M27.75,49.57c-.3-.05-.6-.11-.9-.2,.33-.2,.72-.29,1.1-.25-.05,.14,.1,.33-.01,.42-.05,.04-.12,.04-.19,.03Z"/><g><path class="ae" d="M30.78,44.93c-.64-.15-1.34-.13-1.92,.2-.57,.33-.97,.99-.86,1.64,.04,.25,.15,.49,.31,.68,.16,.19,.33,.39,.57,.48,1.09,.39,2.58-.29,3.05-.9,.1-.13,.19-.27,.23-.42,.12-.39-.03-.83-.32-1.13s-.68-.46-1.07-.56Z"/><path class="ae" d="M33.82,47.58c1-.12,1.79-1.04,1.99-2.03,.2-.99-.09-2.03-.54-2.93-.03-.05-.05-.1-.09-.13-.53,.62-3.44,3.12-4,4.08,.19,.25,.44,.41,.72,.56,.65,.35,1.2,.54,1.93,.45Z"/><path class="ae" d="M28.53,46.14c.08,.01,.15,.06,.21,.12,.56,.45,1.43,.92,1.55,1.63-.59,.34-1.6,1.5-2.04,2.02-.23-.86-.32-2.56-.25-3.44,.01-.14,.12,0,.19-.12s.2-.22,.34-.19Z"/><path class="ae" d="M28.59,50.24c.06,.15,.23,.2,.39,.21,.14,0,.29-.03,.37-.14,.06-.09,.06-.21,0-.31-.05-.1-.13-.17-.22-.22,.16,.07,.39-.01,.43-.18,.03-.15-.08-.29-.21-.37-.13-.07-.29-.1-.43-.15-.16-.06-.29-.15-.43-.25-.13,.25-.25,.5-.38,.74-.06,.11-.12,.22-.17,.34-.05,.12-.1,.25-.1,.38,0,.13,.04,.27,.13,.36,.03,.03,.07,.05,.12,.07,.14,.06,.33,.05,.45-.05,.12-.1,.16-.3,.06-.42Z"/><path class="ab" d="M31.25,46.36c-.47-.46-1.09-.85-1.75-.51-.45,.23-1.09,.79-.84,1.35,.03,.06,.12,.06,.15,0,.2-.42,.31-.76,.73-1.03,.54-.34,1.17-.08,1.63,.27,.06,.05,.14-.03,.08-.08h0Z"/><g class="s"><path class="ab" d="M32.91,46.93c.97,.72,1.82-.46,2.13-1.3,.42-1.12,0-2.61-.94-3.33-.06-.04-.14,.03-.12,.1,.26,.77,.73,1.33,.77,2.18,.06,1.04-.63,2.38-1.82,2.27-.04,0-.05,.05-.02,.08h0Z"/><path class="ab" d="M32.93,46.42c1.47-.12,1.43-2.65,.37-3.27-.07-.04-.15,.03-.13,.1,.13,.46,.37,.88,.46,1.36,.14,.72-.16,1.27-.73,1.68-.05,.04-.04,.14,.04,.13h0Z"/><path class="ab" d="M32.71,45.95c.75-.52,.58-1.74-.29-2.04-.08-.03-.12,.07-.1,.13,.27,.61,.86,1.12,.28,1.78-.07,.07,.02,.21,.11,.14h0Z"/></g><path class="x" d="M28.04,33.28c-.13-.01-.25-.02-.38,0-.26,.07-.45,.32-.53,.58-.08,.26-.08,.54-.11,.81-.04,.38-.13,.75-.27,1.11-.13,.32-.31,.63-.35,.98-.09,.72,.4,1.38,.87,1.92,.49,.56,1.02,.67,1.51,1.91,.25,.63,.34,.95,.47,1.02,.2,.11,.38-.13,.47-.25,.08-.45,.13-.47-.02-1.18-.09-.43-.02-.61-.43-1.65-.13-.35-.09-.15-.28-.47,.32-.33,.65-.07,1.08-.24,.42-.17,.55-.69,.59-1.14,.04-.49,.03-.98-.03-1.47-.07-.57-.23-1.17-.68-1.52-.37-.28-.85-.32-1.3-.36-.2-.02-.4-.04-.6-.05Z"/><path class="ab" d="M29.35,37.12c-.23-.28-.67-.59-.59-1,.07-.38,.61-.15,.82-.11,.06,0,.09-.04,.07-.09-.16-.33-.84-.26-1.03,0-.15,.21-.09,.48,.02,.7,.13,.28,.41,.43,.67,.56,.04,.02,.07-.03,.05-.06h0Z"/><path class="ab" d="M29.49,35.79c-.12-.14-.3-.19-.43-.31-.15-.14-.25-.43-.11-.61,.2-.24,.58-.09,.82-.05,.05,0,.08-.04,.06-.08-.17-.34-.79-.22-1.01,0-.15,.14-.14,.41-.06,.58,.05,.12,.13,.22,.23,.31,.12,.11,.29,.13,.42,.23,.05,.04,.12-.02,.07-.07h0Z"/><path class="ab" d="M29.5,33.77c-.29-.09-.63-.03-.71,.3-.08,.33,.16,.53,.44,.63,.07,.02,.39,.1,.35-.08-.04-.17-.29-.2-.43-.25-.16-.06-.25-.21-.12-.37,.09-.11,.33-.14,.47-.18,.02,0,.02-.04,0-.05h0Z"/><path class="ae" d="M29.32,37.79c.24-.01,.51,.36,.54,.58,.04,.35-.03,.14,.01,.48,.13,.97,.3,2.5,.32,3.48,.02,.84,.14,1.68,.07,2.52-.01,.13-.14,.28-.2,.39-.07,.12-.21,.21-.35,.19,.18-1.87,.01-3.31-.09-5.69-.03-.65-.32-1.3-.3-1.96Z"/><path class="r" d="M28.63,37.55c.07-.23,.3-.4,.54-.41,.21,0,.41,.11,.59,.22,.15,.09,.29,.17,.44,.26,.26,.16,.53,.32,.72,.55,.19,.24,.28,.58,.15,.85-.09,.18-.35,.8-1.05,.45-.38-.19-.9-.87-1.29-1.37-.11-.14-.15-.39-.1-.56Z"/><path class="ab" d="M29.6,37.25c-.16-.23-.63-.35-.88-.22-.29,.15-.37,.54-.15,.78,.02,.02,.06,0,.05-.02-.02-.18,0-.51,.21-.58,.2-.07,.52,0,.71,.1,.04,.02,.1-.02,.07-.07h0Z"/></g></g><path class="ab" d="M28.2,49.34c-.18,0-.18,.27,0,.27s.18-.27,0-.27h0Z"/></g><path class="ab" d="M27.81,24.41l-.03-.02c-.16-.09-.37,.03-.4,.2-.03,.17,.12,.36,.3,.34h.04c.27-.04,.34-.39,.1-.52h0Z"/><path class="ab" d="M11.18,38.25l-.03-.02c-.16-.09-.37,.03-.4,.2-.03,.17,.12,.36,.3,.34h.03c.27-.04,.34-.39,.1-.52h0Z"/><path class="ab" d="M8.63,39.38l-.03-.02c-.16-.09-.37,.03-.4,.2-.03,.17,.12,.36,.3,.34,.01,0,.02,0,.03,0,.27-.03,.34-.38,.1-.51h0Z"/><path class="ab" d="M12.36,37.64l-.03-.02c-.16-.09-.37,.02-.4,.2-.03,.17,.12,.36,.3,.34,.01,0,.02,0,.03,0,.27-.03,.34-.38,.1-.51h0Z"/><path class="ab" d="M9.98,38.85s-.02-.01-.03-.02c-.16-.09-.37,.03-.4,.2-.03,.17,.12,.36,.3,.34,.01,0,.02,0,.03,0,.27-.03,.34-.38,.1-.51h0Z"/><path class="ab" d="M29.08,23.61l-.03-.02c-.16-.09-.37,.02-.4,.2-.03,.17,.12,.36,.3,.34h.04c.27-.04,.34-.39,.1-.52h0Z"/><path class="ab" d="M30.36,22.86l-.03-.02c-.16-.09-.37,.02-.4,.2-.03,.17,.11,.36,.3,.34h.03c.27-.04,.34-.39,.1-.52h0Z"/><path class="ab" d="M31.56,22.26l-.03-.02c-.16-.09-.37,.02-.4,.2-.03,.17,.12,.36,.3,.34h.03c.27-.04,.34-.39,.1-.52h0Z"/></g><path class="p" d="M5.66,12.43c.17-.15,.35-.27,.53-.4,.2-.15,.41-.28,.57-.46,.13-.15,.19-.31,.26-.5,.06-.19,.07-.6-.04-.78-.31-.5-1.17-.93-1.74,.16,0,.02-.02,.02-.04,.02h0s-.03,0-.04-.02c-.57-1.09-1.43-.66-1.74-.16-.11,.17-.1,.58-.03,.78,.06,.19,.12,.34,.26,.5,.16,.19,.37,.32,.57,.46,.18,.13,.37,.25,.53,.4,.08,.08,.46,.48,.46,.48,0,0,.37-.4,.46-.48Z"/><path class="p" d="M35.13,49.37c-.17,.15-.35,.27-.53,.4-.2,.15-.41,.28-.57,.46-.13,.15-.19,.31-.26,.5-.06,.19-.07,.6,.03,.78,.31,.49,1.17,.93,1.74-.16,0-.02,.02-.03,.04-.03h0s.03,0,.04,.03c.57,1.09,1.43,.66,1.74,.16,.11-.17,.1-.58,.03-.78-.06-.19-.12-.35-.26-.5-.16-.19-.37-.32-.57-.46-.18-.13-.37-.25-.53-.4-.08-.08-.46-.48-.46-.48,0,0-.37,.4-.46,.48Z"/><path class="p" d="M7.77,8.46h-.79l-1.72-3.17-1.32,1.64v1.53h-.72V2.72h.72v3.33l2.6-3.33h.78l-1.56,2.01,2,3.74Z"/><path class="p" d="M32.97,53.26h.79l1.72,3.18,1.32-1.64v-1.53h.72v5.75h-.72v-3.33l-2.6,3.33h-.78l1.56-2.01-2-3.74Z"/><g><path class="p" d="M13.18,58.83H6.1c-1.66,0-3-1.43-3-3.19V15.38h.19V55.64c0,1.66,1.26,3,2.82,3h7.08v.19Z"/><rect class="p" x="25.61" y="58.65" width="7.08" height=".19"/><path class="p" d="M37.65,46.54h-.19V6.08c0-1.66-1.26-3-2.82-3h-7.16v-.19h7.16c1.66,0,3,1.43,3,3.19V46.54Z"/><rect class="p" x="8.35" y="2.89" width="6.43" height=".19"/></g></g></g></g></svg>