<?xml version="1.0" encoding="UTF-8"?><svg xmlns="http://www.w3.org/2000/svg" xmlns:xlink="http://www.w3.org/1999/xlink" viewBox="0 0 40.93 62.29"><defs><style>.j{fill:#fff;}.k{fill:#d6002b;}.l{clip-path:url(#h);}.m{fill:#ffd6a1;}.n{fill:#b70027;}.o{clip-path:url(#e);}.p{clip-path:url(#d);}.q{fill:#222272;}.r{fill:none;}.s{fill:#2d2d2d;}.t{clip-path:url(#f);}.u{fill:#0c0a35;}.v{clip-path:url(#i);}.w{fill:#990028;}.x{clip-path:url(#g);}.y{fill:#f70032;}</style><clipPath id="d"><path class="w" d="M14.59,20.53c.13-.12,.22-.28,.38-.37,.22-.13,.49-.07,.73,.03,.23,.1,.45,.24,.7,.28,.41,.07,.82-.17,1.12-.47,.29-.3,.5-.67,.77-.99,.19-.23,.41-.43,.59-.66,.57-.72,.76-1.72,.53-2.6-.24-.89-.9-1.65-1.73-2.02-.08-.04-.16-.07-.25-.07-.11,0-.2,.06-.29,.11-.24,.14-.47,.27-.69,.43-.72,.51-1.29,1.23-1.62,2.05-.1,.25-.18,.52-.37,.71-.22,.24-.55,.33-.83,.48-.59,.29-1.06,.82-1.29,1.44-.21,.58-.14,1.34,.38,1.67,.18,.12,.4,.16,.62,.2,.44,.08,.95,.09,1.28-.21Z"/></clipPath><clipPath id="e"><path class="r" d="M27.7,14.92c.02,.6,.05,1.21-.15,1.77-.1,.27-.24,.53-.31,.81-.07,.28-.05,.61,.15,.82,.11,.12,.27,.18,.4,.29,.36,.29,.4,.85,.2,1.27-.2,.42-.59,.71-1,.94-.73,.41-1.56,.66-2.39,.59-.83-.07-1.65-.5-2.08-1.21-.17-.29-.29-.62-.27-.95,.02-.33,.1-.71,.35-.94,.69-.62,1.32-.39,1.3-1.05-.01-.48-.67-.54-.91-.56-.76-.09-2.19-1.08-.91-2.45,.32-.34,.71-.59,1.09-.84,.1-.06,.2-.14,.26-.24,.19-.32-.15-.72-.5-.83-.35-.11-.75-.09-1.07-.27-.39-.23-.56-.71-.59-1.16-.03-.45,.04-.91-.02-1.35-.05-.41-.22-.81-.48-1.14-.11-.14-.25-.28-.42-.35-.15-.07-.33-.09-.49-.1-.59-.05-1.18-.07-1.78-.07-.31,0-.64,0-.91,.15-.91,.46-.99,2.02-1.88,2.53-.4,.23-.94,.23-1.38,.1-.57-.16-.89-.58-1.1-1.13-.28-.73,.23-1.58,.94-1.91,.37-.17,.87-.2,1.08-.55,.32-.5-.01-.68,.11-1.02,.19-.53,.93-.97,1.49-1.01,.54-.04,1.16-.02,1.39,.48,.05,.11,.08,.23,.14,.34,.22,.41,.77,.56,1.23,.45,.46-.1,.85-.39,1.23-.66,.38-.27,.8-.53,1.27-.56,.39-.03,.78,.11,1.12,.3,1.24,.69,1.95,2.04,2.58,3.31,.47,.94,.93,1.9,1.25,2.9,.36,1.12,1,2.15,1.05,3.33Z"/></clipPath><clipPath id="f"><path class="r" d="M27.34,16.9c.36,.04,.59-.33,.81-.62,.59-.78,.95-1.25,1.83-2.14,.22-.22,.44-.43,.61-.7,.05-.08,.1-.18,.1-.28,0-.14-.1-.25-.2-.34-.55-.55-1.17-1.01-1.66-1.61-.5-.6-1.28-1.87-1.36-2.15-.45-1.55-.58-2.24,.34-4.82,.09-.25-.08-.53-.35-.54-.85-.04-1.74-.1-2.58-.14-.11,0-.23,.03-.3,.12-.23,.26-.39,.71-.55,.98-.16,.29-.66,.79-.93,1.51-.75,1.96-.4,3.69,.45,5.61,.57,1.3,1.21,2.27,2.5,3.62,.19,.2,1.24,1.39,1.3,1.49Z"/></clipPath><clipPath id="g"><path class="w" d="M27.37,41.94c-.13,.12-.22,.28-.38,.37-.22,.13-.49,.07-.73-.03-.23-.1-.45-.24-.7-.28-.41-.06-.82,.17-1.12,.47-.29,.3-.5,.67-.77,.99-.19,.23-.41,.43-.59,.66-.57,.72-.76,1.72-.53,2.6s.9,1.65,1.73,2.02c.08,.04,.16,.07,.25,.07,.11,0,.2-.06,.29-.11,.24-.13,.47-.27,.69-.43,.72-.51,1.29-1.23,1.62-2.05,.1-.25,.18-.52,.37-.71,.22-.24,.55-.33,.84-.47,.59-.29,1.06-.82,1.28-1.44,.21-.58,.14-1.34-.38-1.67-.18-.12-.4-.16-.62-.2-.44-.08-.95-.09-1.28,.21Z"/></clipPath><clipPath id="h"><path class="r" d="M14.26,47.55c-.02-.6-.05-1.21,.15-1.77,.1-.27,.24-.53,.31-.81,.07-.28,.05-.61-.15-.82-.12-.12-.27-.18-.4-.29-.36-.29-.4-.85-.2-1.27,.2-.42,.59-.71,1-.94,.73-.41,1.56-.66,2.39-.59,.83,.07,1.65,.5,2.08,1.21,.17,.29,.29,.62,.27,.95-.02,.34-.1,.71-.35,.94-.69,.62-1.32,.39-1.3,1.05,.01,.48,.67,.54,.91,.57,.76,.09,2.19,1.08,.91,2.45-.32,.34-.7,.59-1.09,.84-.1,.07-.2,.14-.27,.24-.19,.32,.15,.72,.5,.83,.35,.11,.75,.09,1.07,.27,.39,.23,.56,.71,.59,1.16,.03,.45-.04,.9,.02,1.35,.05,.41,.22,.81,.48,1.13,.11,.14,.25,.28,.42,.35,.15,.07,.33,.09,.49,.1,.59,.04,1.18,.07,1.78,.07,.31,0,.64,0,.91-.15,.91-.46,.99-2.03,1.88-2.53,.4-.23,.93-.23,1.38-.1,.57,.16,.89,.58,1.1,1.13,.28,.73-.23,1.58-.94,1.91-.37,.17-.87,.21-1.08,.55-.32,.5,.01,.68-.11,1.02-.19,.53-.93,.97-1.49,1.01-.54,.04-1.16,.02-1.39-.48-.05-.11-.08-.23-.14-.34-.22-.42-.77-.55-1.23-.45-.46,.1-.84,.39-1.23,.66-.38,.27-.8,.53-1.27,.56-.39,.03-.78-.11-1.12-.3-1.24-.7-1.95-2.04-2.58-3.31-.47-.94-.92-1.9-1.25-2.9-.36-1.12-1-2.15-1.05-3.33Z"/></clipPath><clipPath id="i"><path class="r" d="M14.62,45.56c-.36-.04-.59,.33-.81,.62-.59,.78-.95,1.25-1.83,2.14-.22,.22-.44,.43-.6,.7-.05,.08-.1,.18-.1,.28,0,.14,.1,.25,.19,.34,.55,.55,1.17,1.01,1.66,1.61,.5,.6,1.28,1.87,1.36,2.15,.45,1.55,.58,2.24-.34,4.82-.09,.26,.08,.53,.35,.54,.85,.04,1.74,.1,2.58,.14,.11,0,.23-.04,.3-.12,.23-.26,.39-.71,.54-.98,.16-.29,.66-.79,.93-1.51,.75-1.96,.4-3.7-.45-5.61-.58-1.3-1.2-2.27-2.5-3.62-.19-.2-1.24-1.39-1.3-1.49Z"/></clipPath></defs><g id="a"/><g id="b"><g id="c"><g><g><path class="j" d="M3.54,.09H37.39c1.9,0,3.45,1.55,3.45,3.45V58.74c0,1.9-1.55,3.45-3.45,3.45H3.54c-1.9,0-3.45-1.55-3.45-3.45V3.54C.09,1.64,1.64,.09,3.54,.09Z"/><path class="s" d="M37.39,62.29H3.54c-1.95,0-3.54-1.59-3.54-3.54V3.54C0,1.59,1.59,0,3.54,0H37.39c1.95,0,3.54,1.59,3.54,3.54V58.75c0,1.95-1.59,3.54-3.54,3.54ZM3.54,.19C1.69,.19,.19,1.69,.19,3.54V58.75c0,1.85,1.5,3.36,3.36,3.36H37.39c1.85,0,3.36-1.51,3.36-3.36V3.54c0-1.85-1.51-3.36-3.36-3.36H3.54Z"/></g><path class="m" d="M31.37,38.73c.03,.13-.36,.46-.48,.52-.85,.35-3.81,.53-4.7,.75-.89,.22-2.06,.75-2.43,1.59-.27,.62-.2,1.33,0,1.97,.06,.19,.13,.38,.12,.58,0,.22-.1,.43-.22,.62-.34,.54-.87,.93-1.41,1.27-.92,.57-1.97,1.01-3.05,.9-.42-.04-.84-.17-1.16-.44-.71-.58-.8-1.6-.85-2.52-.05-.91,.13-2.44-.66-2.89-.74-.43-5.78-1.17-2.99-1.23,.12,0,2.04-.1,2.1-.2,.61-.98,1.9-.55,2.7-1.39,.6-.63,1.28-1.23,2.1-1.53,.81-.3,1.71-.29,2.57-.28,.48,0,.96,.02,1.42,.16,1.15,.36,1.92,1.49,3.05,1.9,.42,.16,3.88,.15,3.89,.21Z"/><path class="n" d="M7.67,25.74c.41,1.44,.53,2.92,.37,4.38-.03,.3-.08,.6-.2,.89-.34,.83-1.22,1.49-1.58,2.31-.29,.67-.21,1.41,.23,2.03,.44,.62,1.22,1.12,2.15,1.35,.1,.03,.21,.05,.3,.1,.14,.08,.19,.21,.24,.33,.18,.47,.31,.63,.49,1.1,.16,.42,.46,.76,.75,1.15,.29,.39,.73,.64,1.26,.86,.91,.38,1.7,.49,2.73,.31,.72-.12,1.28-.23,1.93-.48,.64-.25,3.48-1.56,4.04-1.93,1.35-.89,3.63-.92,5.07-.1,.62,.36,1.08,.84,1.75,1.15,.83,.38,1.52,.63,2.52,.62,1.18,0,2.32-.56,2.61-.73,.97-.56,1.33-1.04,1.64-1.9,.3-.83,.6-1.65,.9-2.48,.2-.54,.39-1.09,.48-1.64,.07-.46,.07-.92,.07-1.38,0-1.65,0-3.3-.24-4.94-.03-.21-.07-.43-.23-.61s-.48-.3-.76-.23c-1.31,.33-2.96,.26-4.34,.4-1.78,.18-3.59,.1-5.38,.01-1.95-.09-3.91-.18-5.86-.26-1.82-.08-3.64-.16-5.46-.25-.64-.03-1.28-.06-1.9-.16-.42-.07-.82-.17-1.24-.22-.76-.09-1.61,.08-2.31,.31Z"/><g><path class="w" d="M14.59,20.53c.13-.12,.22-.28,.38-.37,.22-.13,.49-.07,.73,.03,.23,.1,.45,.24,.7,.28,.41,.07,.82-.17,1.12-.47,.29-.3,.5-.67,.77-.99,.19-.23,.41-.43,.59-.66,.57-.72,.76-1.72,.53-2.6-.24-.89-.9-1.65-1.73-2.02-.08-.04-.16-.07-.25-.07-.11,0-.2,.06-.29,.11-.24,.14-.47,.27-.69,.43-.72,.51-1.29,1.23-1.62,2.05-.1,.25-.18,.52-.37,.71-.22,.24-.55,.33-.83,.48-.59,.29-1.06,.82-1.29,1.44-.21,.58-.14,1.34,.38,1.67,.18,.12,.4,.16,.62,.2,.44,.08,.95,.09,1.28-.21Z"/><g class="p"><path class="u" d="M12.68,21.6c-.3-.76-.32-1.66,.07-2.39,.38-.71,1.33-1.08,1.96-1.54,.97-.71,1.19-1.73,1.35-2.86,0-.04-.05-.07-.07-.03-.48,.85-.43,1.76-1.19,2.5-.57,.55-1.33,.85-1.92,1.38-.78,.71-.95,2.18-.25,2.97,.02,.02,.06,0,.05-.03h0Z"/><path class="u" d="M13.15,21.26c-.06-.87,.11-1.53,.84-2.07,.49-.37,1.02-.69,1.54-1.02,.71-.47,1.32-1.13,1.24-2.03,0-.09-.12-.1-.15-.02-.35,.87-.71,1.37-1.49,1.9-.51,.35-1.02,.68-1.5,1.06-.71,.55-.9,1.38-.56,2.2,.02,.04,.09,.04,.09-.01h0Z"/><path class="u" d="M13.56,21.48c.26-1.31,1.1-1.82,2.15-2.51,.68-.44,1.3-.98,1.43-1.82,.01-.09-.09-.14-.14-.06-.39,.57-.58,1.03-1.16,1.46-.47,.35-1.05,.6-1.49,.99-.57,.51-.99,1.14-.87,1.93,0,.04,.08,.04,.08,0h0Z"/><path class="u" d="M14.58,21.44c.23-1.07,.82-1.63,1.8-2.04,.63-.26,1.03-.84,1.27-1.46,.02-.06-.06-.11-.11-.08-.36,.25-.49,.67-.79,.99-.36,.39-.97,.42-1.37,.76-.51,.43-1.02,1.14-.87,1.84,0,.04,.06,.04,.07,0h0Z"/><path class="u" d="M15.61,21.47c.17-1.55,2.32-1.82,2.54-3.46,0-.06-.08-.11-.11-.05-.25,.44-.46,.86-.8,1.23-.29,.31-.66,.53-.99,.79-.41,.32-1.11,.95-.69,1.51,.02,.03,.06,.02,.06-.02h0Z"/></g></g><path class="m" d="M10.59,23.73c-.03-.13,.36-.46,.48-.52,.85-.35,3.81-.53,4.7-.75,.89-.22,2.06-.75,2.43-1.59,.27-.61,.2-1.33,0-1.97-.06-.19-.12-.38-.12-.58,0-.22,.1-.43,.22-.62,.34-.54,.87-.93,1.41-1.27,.92-.57,1.97-1.01,3.05-.9,.42,.04,.84,.17,1.16,.44,.71,.58,.8,1.6,.85,2.52,.05,.91-.13,2.44,.66,2.9,.75,.43,5.79,1.17,3,1.23-.12,0-2.04,.1-2.1,.2-.61,.98-1.9,.55-2.7,1.38-.6,.63-1.28,1.23-2.1,1.53-.81,.3-1.71,.29-2.57,.28-.48,0-.96-.02-1.42-.16-1.15-.36-1.92-1.49-3.05-1.9-.42-.15-3.88-.15-3.89-.21Z"/><path class="n" d="M34.29,36.73c-.41-1.44-.53-2.92-.37-4.38,.03-.3,.08-.6,.2-.89,.33-.83,1.22-1.49,1.58-2.31,.29-.66,.21-1.41-.23-2.03-.44-.62-1.22-1.12-2.15-1.35-.1-.03-.21-.05-.29-.1-.14-.08-.19-.21-.24-.33-.18-.47-.31-.63-.49-1.1-.16-.43-.45-.77-.75-1.15-.29-.39-.73-.64-1.26-.86-.91-.38-1.7-.49-2.73-.31-.72,.12-1.29,.23-1.93,.48-.64,.25-3.48,1.56-4.04,1.93-1.35,.89-3.63,.92-5.07,.1-.62-.36-1.08-.84-1.75-1.15-.84-.39-1.52-.63-2.52-.63-1.18,0-2.31,.56-2.61,.73-.97,.56-1.33,1.04-1.64,1.9-.3,.83-.6,1.65-.9,2.48-.2,.54-.39,1.09-.48,1.65-.07,.46-.07,.92-.07,1.38,0,1.65,0,3.3,.24,4.94,.03,.21,.07,.43,.23,.61,.16,.18,.48,.3,.76,.23,1.31-.33,2.96-.27,4.34-.4,1.78-.18,3.59-.1,5.38-.01,1.96,.09,3.91,.18,5.86,.26,1.82,.08,3.64,.16,5.46,.25,.64,.03,1.28,.06,1.9,.16,.42,.07,.82,.17,1.24,.22,.76,.1,1.61-.08,2.31-.31Z"/><path class="w" d="M23.05,18.41c.18,.32,.37,.7,.23,1.05-.07,.17-.21,.31-.36,.42-1.33,1.09-3.16,1.53-4.84,1.17,.29-.39,.3-1.05,.36-1.04,1.62,.21,3.45-.46,4.42-1.78,.09,.01,.14,.1,.19,.18Z"/><path class="u" d="M19.69,23.95c-.17,.12-.42,.08-.57-.07-.15-.14-.21-.36-.2-.56,0-.21,.07-.41,.13-.6,.08-.25,.16-.51,.24-.76,.08-.24,.16-.49,.33-.68,.03-.03,.08-.06,.12-.03,.01,.01,.02,.03,.02,.05,.16,.74,.32,1.51,.15,2.25-.04,.15-.09,.31-.22,.41Z"/><path class="u" d="M16.73,22.63c-.12-.13-.12-.34-.03-.49,.09-.15,.24-.26,.39-.36,.28-.2,.62-.41,.87-.65,.14-.13,.19,.02,.19,.14-.04,.32-.16,.52-.3,.82-.14,.3-.38,.56-.7,.64-.15,.04-.32,.02-.43-.09Z"/><path class="u" d="M21.83,22.74c.19,.11,.45,.04,.62-.1,.12-.11,.11-.47,.08-.62-.11-.64-.41-.84-.76-1.15-.07-.06-.17-.12-.23-.05-.03,.03-.03,.08-.03,.13,0,.34-.02,.68,0,1.02,.02,.44,.11,.66,.32,.78Z"/><path class="m" d="M16.31,7.72c-.06-.05-.16,.02-.21,.09-.53,.75-.28,1.78-.41,2.69-.07,.5-.32,1.07-.62,1.48-.39,.53-.91,.92-1.03,1.54-.02,.12,.07,.2,.19,.23,.27,.08,.68,.03,.87,.19,.08,.07,.08,.21,.08,.32,.02,.52-.16,1.05-.05,1.56,.14,.62,.68,1.06,.92,1.65,.12,.29,.16,.61,.23,.91,.11,.42,.29,.83,.54,1.19,.22,.32,.72,.46,1.09,.32,.61-.24,1.14-.63,1.67-1.02,.73-.54,1.49-1.11,1.9-1.92,.12-.23,.2-.47,.32-.7,.32-.64,.87-1.14,1.25-1.75,.5-.81,.69-1.78,.78-2.73,.04-.44,.07-.89-.01-1.32-.13-.75-.56-1.44-1.14-1.93-.58-.5-1.31-.81-2.06-.95-.64-.12-1.3-.12-1.96-.13-.55,0-1.09,0-1.64,0-.22,0-.68,.07-.71,.28Z"/><path class="u" d="M20.26,8.09s.04,.04,.06,.06c.14,.21,.28,.43,.42,.64-.68,.34-1.43,.55-2.19,.52-.76-.02-1.52-.3-2.06-.83,.19-.18,.39-.35,.58-.53,.91,.53,2.08,.6,3.05,.17,.05-.02,.1-.04,.15-.02Z"/><path class="y" d="M21.29,12.67c-.17-.15-.39-.25-.61-.28-.25-.03-.51,.05-.73,.18-.33,.2-.59,.56-.58,.94,.02,.47,.44,.84,.89,1,.33,.11,.72,.13,.99-.07,.19-.14,.3-.36,.37-.58,.09-.26,.17-.75-.34-1.19Z"/><path class="y" d="M15.51,14.98c.11-.28,.25-.51,.55-.53,.31-.03,.52,.31,.47,.57-.15,.76-.38,1.32-.72,2.01-.21-.12-1.12-1.34-1.1-1.91,0-.15,.04-.32,.14-.43,.11-.11,.29-.15,.43-.09,.14,.06,.24,.22,.23,.38Z"/><path class="k" d="M27.7,14.92c.02,.6,.05,1.21-.15,1.77-.1,.27-.24,.53-.31,.81-.07,.28-.05,.61,.15,.82,.11,.12,.27,.18,.4,.29,.36,.29,.4,.85,.2,1.27-.2,.42-.59,.71-1,.94-.73,.41-1.56,.66-2.39,.59-.83-.07-1.65-.5-2.08-1.21-.17-.29-.29-.62-.27-.95,.02-.33,.1-.71,.35-.94,.69-.62,1.32-.39,1.3-1.05-.01-.48-.67-.54-.91-.56-.76-.09-2.19-1.08-.91-2.45,.32-.34,.71-.59,1.09-.84,.1-.06,.2-.14,.26-.24,.19-.32-.15-.72-.5-.83-.35-.11-.75-.09-1.07-.27-.39-.23-.56-.71-.59-1.16-.03-.45,.04-.91-.02-1.35-.05-.41-.22-.81-.48-1.14-.11-.14-.25-.28-.42-.35-.15-.07-.33-.09-.49-.1-.59-.05-1.18-.07-1.78-.07-.31,0-.64,0-.91,.15-.91,.46-.99,2.02-1.88,2.53-.4,.23-.94,.23-1.38,.1-.57-.16-.89-.58-1.1-1.13-.28-.73,.23-1.58,.94-1.91,.37-.17,.87-.2,1.08-.55,.32-.5-.01-.68,.11-1.02,.19-.53,.93-.97,1.49-1.01,.54-.04,1.16-.02,1.39,.48,.05,.11,.08,.23,.14,.34,.22,.41,.77,.56,1.23,.45,.46-.1,.85-.39,1.23-.66,.38-.27,.8-.53,1.27-.56,.39-.03,.78,.11,1.12,.3,1.24,.69,1.95,2.04,2.58,3.31,.47,.94,.93,1.9,1.25,2.9,.36,1.12,1,2.15,1.05,3.33Z"/><path class="u" d="M14.79,15.6c.23,.37,.9,.25,1.25,.19,.5-.09,1.12-.33,1.43-.75,.02-.02-.01-.07-.04-.05-.41,.17-.79,.4-1.22,.52-.49,.13-.92,.04-1.4,.06-.02,0-.03,.02-.02,.04h0Z"/><path class="u" d="M18.32,19.8c.92-.25,1.62-.96,2.32-1.57,.55-.48,.92-1.09,1.07-1.8,0-.05-.05-.06-.07-.02-.28,.74-.61,1.12-1.19,1.64-.37,.33-.73,.66-1.12,.96-.33,.26-.73,.41-1.07,.65-.07,.05-.03,.17,.06,.15h0Z"/><path class="u" d="M16.61,10.1c.03,.14,.09,.34,.27,.31,.03,0,.03-.04,.02-.05-.05-.11-.17-.18-.24-.28-.02-.03-.06,0-.05,.02h0Z"/><path class="u" d="M18.39,9.46c-.04,.06-.04,.13-.04,.2,0,.12,.2,.12,.19,0,0-.07,0-.14-.04-.2-.03-.04-.09-.04-.12,0h0Z"/><path class="u" d="M17.37,9.72c-.01,.08,.04,.15,.09,.21,.08,.09,.23-.03,.17-.13-.04-.07-.09-.13-.17-.14-.05,0-.08,.02-.08,.06h0Z"/><path class="u" d="M20.16,10.43c.07,.04,.12-.02,.18-.06,.08-.06,.13-.13,.15-.23,0-.04-.04-.05-.07-.04-.07,.03-.11,.08-.16,.14-.04,.05-.11,.08-.12,.16,0,.01,0,.03,.02,.04h0Z"/><path class="u" d="M19.39,9.9c.05-.09,.13-.16,.15-.27,0-.03-.02-.05-.04-.04-.14,.03-.23,.11-.28,.24-.04,.1,.12,.16,.17,.07h0Z"/><path class="u" d="M17.04,11.58c.05-.08,.11-.14,.17-.21,.05-.05,.08-.08,.09-.15,0-.02-.02-.04-.04-.04-.16,0-.26,.23-.3,.36-.01,.05,.05,.07,.08,.03h0Z"/><path class="u" d="M17.89,11.83c.07-.09,.12-.25,.07-.36-.01-.03-.04-.04-.08-.03-.13,.06-.14,.25-.12,.37,.01,.06,.09,.06,.12,.02h0Z"/><path class="u" d="M18.59,11.91c.07-.09,.14-.26,.04-.34-.03-.03-.07-.03-.1,0-.11,.09-.04,.26,.04,.34,0,0,.02,0,.02,0h0Z"/><path class="u" d="M19.75,11.59c0-.07-.03-.13-.06-.19-.03-.07-.04-.12-.12-.14-.02,0-.04,0-.05,.02-.04,.07-.02,.11,.01,.18,.03,.07,.05,.14,.12,.18,.04,.02,.1,0,.1-.06h0Z"/><path class="u" d="M20.5,11.37c.04-.1-.09-.25-.17-.29-.09-.05-.18,.05-.14,.14,.03,.07,.25,.32,.31,.15h0Z"/><path class="j" d="M20.75,10.8c-1.24,.93-3.05,1-4.37,.18,.29-.52,.78-.93,1.35-1.11,.57-.18,1.2-.13,1.74,.13,.17,.08,.34,.19,.5,.29,.26,.17,.52,.34,.78,.5Z"/><path class="u" d="M18.94,10.41c-.14-.18-.41-.29-.69-.23-.22,.04-.45,.28-.45,.51,0,.22,.18,.41,.38,.51,.16,.08,.36,.11,.53,.05,.17-.06,.58-.41,.24-.84Z"/><g class="o"><path class="u" d="M15.56,5.63c-.24,.23-.22,.5-.23,.83-.03,1.24-.99,1.46-1.91,1.92-.89,.45-.81,1.51-.44,2.26,.04,.07,.14,.02,.12-.05-.18-.92-.26-1.76,.86-2.19,.39-.15,.68-.26,1.01-.52,.83-.66,.34-1.38,.69-2.19,.03-.06-.06-.1-.11-.06h0Z"/><path class="u" d="M16.06,6.06c-.11,1.02-.43,1.69-1.25,2.31-.4,.3-.85,.5-1.23,.84-.56,.52-.5,1.54-.07,2.09,.05,.06,.13,0,.12-.07-.24-1.04-.17-1.72,.84-2.3,.34-.19,.65-.41,.95-.65,.7-.56,.78-1.39,.71-2.23,0-.05-.07-.05-.08,0h0Z"/><path class="u" d="M16.86,5.69c-.28,.86-.15,1.68-.64,2.5-.4,.67-1.17,.96-1.72,1.47-.5,.46-.81,1.55-.33,2.1,.08,.1,.24-.03,.18-.14-.81-1.44,1.16-2.22,1.89-3.04,.74-.83,.73-1.85,.71-2.89,0-.05-.07-.06-.09-.01h0Z"/><path class="u" d="M14.81,11.53c-.12-1.21,1.69-2.22,2.35-3.09,.58-.76,.55-1.95,.5-2.85-.01-.18-.26-.18-.27,0-.03,.63,0,1.24-.11,1.86-.16,.88-.87,1.52-1.48,2.12-.58,.57-1.26,1.07-1.08,1.97,.01,.05,.1,.04,.1-.01h0Z"/><path class="u" d="M18.18,5.56c-.22,.36-.1,.87-.11,1.28-.02,.66-.48,1.26-.42,1.91,0,.08,.1,.11,.15,.04,.47-.71,.91-2.45,.41-3.22,0,0-.02,0-.03,0h0Z"/><path class="u" d="M19.14,5.67c-.3,.33-.38,.73-.43,1.16-.05,.52-.16,1.16,.15,1.61,.03,.05,.12,.03,.11-.03-.06-.43-.08-.84-.04-1.27,.04-.49,0-.98,.28-1.41,.03-.04-.04-.09-.07-.05h0Z"/><path class="u" d="M20.19,5.79c-.41,.18-.45,.84-.5,1.22-.12,.78-.15,1.48,.34,2.15,.04,.06,.14,.02,.12-.05-.06-.26-.17-.49-.25-.74-.12-.38-.02-.9,.04-1.29,.05-.36,.05-.94,.31-1.23,.03-.03,0-.08-.05-.06h0Z"/><path class="u" d="M21.21,6.13c-.42-.28-.56,.62-.59,.85-.12,.76-.25,1.92,.37,2.5,.04,.03,.1,0,.09-.05-.21-.67-.27-1.26-.23-1.97,.02-.32-.03-1.21,.36-1.32,0,0,0,0,0-.01h0Z"/><path class="u" d="M21.79,6.29c-.11,1.42-.42,3.37,.21,4.71,.42,.89,1.39,1.35,2.32,.91,.07-.03,.03-.14-.04-.14-.49,0-.96,0-1.42-.2-.63-.27-.78-1.19-.83-1.78-.11-1.16-.12-2.34-.21-3.51,0-.02-.04-.02-.04,0h0Z"/><path class="u" d="M22.41,6.44c-.43,1.04-.16,2.25,.03,3.32,.18,1,1.18,1.55,2.12,1.43,.05,0,.06-.08,.01-.09-1.15-.24-1.83-.67-2-1.94-.12-.9-.28-1.8-.14-2.71,0-.02-.03-.03-.03,0h0Z"/><path class="u" d="M24.84,12.92c-.82,.34-2.35,1-2.41,2.08-.07,1.25,1.41,1.08,2.13,1.67,.95,.78-1.05,1.92-1.47,2.28-.32,.27-.56,.73-.6,1.15-.07,.95,.46,1.84,1.44,2,.06,0,.09-.06,.04-.09-1.4-.86-1.41-2.23-.09-3.18,.59-.43,1.2-.88,1.23-1.66,.03-.66-.63-.98-1.15-1.14-.3-.09-.57-.16-.86-.29-.93-.42-.14-1.29,.18-1.6,.46-.46,1.08-.75,1.56-1.19,0,0,0-.01,0,0h0Z"/><path class="u" d="M25.46,13.17c-.86-.01-1.7,.73-2.02,1.49-.24,.56,.41,.87,.82,1.04,1.08,.44,2.26,1.38,1.11,2.6-.43,.46-1,.72-1.41,1.2-.7,.83-.27,1.84,.38,2.54,.07,.07,.16-.02,.13-.1-.46-.93-.81-1.67,.1-2.57,.31-.31,.71-.55,1.04-.84,.5-.44,.61-1.04,.49-1.66-.11-.6-.67-1.04-1.19-1.25-.39-.16-1.47-.28-1.14-1.03,.28-.63,1.09-1.09,1.72-1.29,.07-.02,.06-.12-.02-.12h0Z"/><path class="u" d="M25.29,13.78c-.52,.14-1.13,.45-.82,1.06,.12,.25,.63,.4,.84,.51,.83,.45,1.19,.91,1.25,1.89,.09,1.59-1.13,1.9-1.76,3.07-.43,.81,.28,1.72,.79,2.28,.06,.06,.14-.02,.11-.08-.38-.71-.92-1.36-.47-2.2,.2-.38,.67-.67,.98-.96,.53-.49,.68-1.13,.73-1.82,.04-.58-.04-1.38-.48-1.82-.23-.22-.47-.39-.76-.54-.16-.09-.34-.16-.51-.23-.69-.27-.46-.84,.1-1.14,.01,0,0-.03-.01-.03h0Z"/><path class="u" d="M26.25,22.02c-.23-.41-.26-.83-.11-1.25,.09-.37,.31-.7,.52-1.02,.31-.46,.78-.8,1.11-1.25,.5-.68,.34-1.54-.01-2.23-.03-.06-.13-.03-.13,.03,.11,.93,.24,1.68-.44,2.45-.33,.37-.65,.68-.91,1.09-.44,.68-.68,1.61-.14,2.28,.02,.03,.08,.02,.1-.01,.02-.05,.02-.04,.02-.1h0Z"/><path class="u" d="M27,21.62c-.15-.17-.02-.85,0-1.02,.08-.48,.47-.85,.81-1.15,.55-.5,.85-1,.87-1.77,0-.05-.07-.07-.1-.03-.26,.51-.36,1.02-.79,1.44-.34,.34-.68,.61-.91,1.04-.2,.37-.33,1.17-.04,1.52,.02,.02,.05,.02,.07,.02l.07-.02s.02-.03,.01-.04h0Z"/></g><path class="n" d="M27.34,16.9c.36,.04,.59-.33,.81-.62,.59-.78,.95-1.25,1.83-2.14,.22-.22,.44-.43,.61-.7,.05-.08,.1-.18,.1-.28,0-.14-.1-.25-.2-.34-.55-.55-1.17-1.01-1.66-1.61-.5-.6-1.28-1.87-1.36-2.15-.45-1.55-.58-2.24,.34-4.82,.09-.25-.08-.53-.35-.54-.85-.04-1.74-.1-2.58-.14-.11,0-.23,.03-.3,.12-.23,.26-.39,.71-.55,.98-.16,.29-.66,.79-.93,1.51-.75,1.96-.4,3.69,.45,5.61,.57,1.3,1.21,2.27,2.5,3.62,.19,.2,1.24,1.39,1.3,1.49Z"/><path class="u" d="M27.12,4.62c.18,0,.33-.15,.33-.33s-.15-.33-.33-.33-.33,.15-.33,.33,.15,.33,.33,.33h0Z"/><path class="u" d="M26.67,5.75c.18,0,.32-.15,.32-.32s-.15-.32-.32-.32-.32,.15-.32,.32,.15,.32,.32,.32h0Z"/><path class="u" d="M26.44,6.96c.4,0,.4-.62,0-.62s-.4,.62,0,.62h0Z"/><path class="u" d="M26.43,8.28c.44,0,.44-.69,0-.69s-.44,.69,0,.69h0Z"/><path class="u" d="M26.66,9.47c.18,0,.33-.15,.33-.33s-.15-.32-.33-.32-.33,.15-.33,.32,.15,.33,.33,.33h0Z"/><path class="u" d="M27.08,10.53c.16,0,.29-.13,.29-.29s-.13-.29-.29-.29-.29,.13-.29,.29,.13,.29,.29,.29h0Z"/><path class="u" d="M27.63,11.5c.42,0,.42-.64,0-.64s-.41,.64,0,.64h0Z"/><path class="u" d="M28.28,12.36c.19,0,.34-.16,.34-.34s-.16-.34-.34-.34-.34,.16-.34,.34,.16,.34,.34,.34h0Z"/><path class="u" d="M29.03,13.1c.19,0,.35-.16,.35-.35s-.16-.35-.35-.35-.35,.16-.35,.35,.16,.35,.35,.35h0Z"/><path class="u" d="M30.07,13.55h0c.11-.09,.11-.32,0-.41h0c-.08-.07-.17-.11-.28-.08-.12,.03-.21,.15-.21,.28,0,.1,.06,.2,.14,.25,.12,.07,.25,.04,.35-.05h0Z"/><g class="t"><path class="u" d="M23.14,4.56c-1.27,2.38-.69,5.03,.22,7.42,.43,1.13,1.01,2.05,1.91,2.85,.86,.76,1.44,2.02,2.47,2.56,.26,.13,.53,.1,.74-.1,.03-.03,.06-.06,.09-.08,.19-.17,.2-.53,0-.7-.75-.63-1.34-1.36-1.98-2.1-.35-.4-1.56-2.02-1.75-2.51-.65-1.6-1.07-2.88-1.08-4.05-.03-1.55,.14-2.24-.03-3.43-.03-.19-.52,0-.6,.15h0Z"/></g><path class="y" d="M14.87,6.55c-.12-.18-.23-.55-.73-1.67-.26-.58-.41-1.23-.38-1.86,.03-.58,.18-.72,.35-.92,.16-.19,.45-.22,.69-.15,.24,.06,.46,.2,.69,.28,.5,.17,1.09,.07,1.5-.26,.46-.37,.72-.99,1.25-1.25,.63-.31,1.44,.05,1.84,.64,.11,.16,.2,.34,.35,.45,.28,.2,.78,.23,1.09,.09,.31-.14,.54-.34,.88-.4,.37-.06,.83-.07,1.15,.12,1.52,.88,1.19,1.95,1.1,2.36-.09,.43-.61,1.08-1.3,2.29-.41,.72-.54,1.14-.73,1.08-1.83-.5-3.03-.65-5.33-.75-.54-.02-2.3,.13-2.43-.05Z"/><path class="u" d="M18.6,2.1c.6-.23,1.03,.23,1.13,.72,.07,.35,0,.71-.07,1.06-.08,.39-.17,.77-.28,1.16-.05,.2-.11,.4-.24,.57h0c-.19,.25-.58,.19-.71-.09-.25-.54-.42-1.13-.49-1.72-.06-.49-.04-1.02,.29-1.42,.1-.12,.23-.21,.37-.27Z"/><path class="u" d="M23.21,3.09c.25,.11,.34,.44,.26,.7s-.28,.47-.48,.65c-.29,.27-1.18,1.31-1.51,1.51h0c-.18,.11-.39-.08-.31-.27,.29-.71,.88-1.76,1.21-2.2,.1-.13,.21-.26,.36-.34,.15-.08,.33-.11,.48-.04Z"/><path class="u" d="M15.02,2.93c.14-.06,.29-.09,.43-.04,.15,.05,.36,.13,.44,.72,.06,.46,.22,2.15-.03,2.19-.34,.06-1.02-1.87-1.08-2.49,0-.08,0-.16,.03-.23,.04-.07,.12-.12,.2-.15Z"/><path class="y" d="M17.2,22.41c.29,0,.29-.44,0-.44s-.29,.44,0,.44h0Z"/><path class="y" d="M19.44,23.65c.33,0,.33-.51,0-.51s-.33,.51,0,.51h0Z"/><path class="y" d="M22.05,22.47c.32,0,.32-.5,0-.5s-.32,.5,0,.5h0Z"/><path class="y" d="M18.51,21.41c.24,0,.24-.38,0-.38s-.24,.38,0,.38h0Z"/><path class="y" d="M19.09,21.44c.27,0,.27-.42,0-.42s-.27,.42,0,.42h0Z"/><path class="y" d="M20.33,21.34c.29,0,.29-.44,0-.44s-.29,.44,0,.44h0Z"/><path class="y" d="M20.99,21.18c.29,0,.29-.45,0-.45s-.29,.45,0,.45h0Z"/><path class="u" d="M20.59,25.48c-.74-.06-1.55,.42-1.35,1.25,.21,.88,1.39,.92,2.04,.61,.35-.17,.67-.57,.63-.97-.04-.54-.53-.86-1.03-.92-.37-.05-.84,.11-1.09,.4-.17,.19-.25,.44-.17,.69,.09,.29,.35,.45,.62,.54,.27,.09,.57-.1,.64-.36,.08-.29-.1-.55-.36-.64-.12-.04,0,0,.02,.03,.09,.07,.1,.23,.08,.33,0,.02-.11,.17-.04,.1-.09,.09,.02,0,.06-.03-.11,.06,.02,0,.04,0,.03,0,.06-.02,.09-.02-.06,0-.07,0,0,0,.03,0,.16,.02,.03,0,.03,0,.07,.02,.1,.03-.04-.01-.03,0,.02,.02,.12,.07-.05-.06,.03,.03-.02-.02-.08-.17-.05-.08,0-.02,0-.05-.01-.07,0,.06,0,.04,0-.04-.02,.05-.01,.04,.01-.03-.03,.05-.02,.04,.02-.01-.02,.03-.06,.06-.08,.09,.09-.08-.05,.02-.08,.04,.1-.05-.04,.01-.05,.02-.03,0-.06,.02-.09,.02,.05,0,.04,0-.02,0-.05,0-.1,0-.15,0-.02,0-.17-.02-.04,0-.04,0-.08-.02-.12-.03-.09-.03,.09,.05-.04-.02-.03-.02-.11-.09,0,0-.1-.09,.03,.06-.01,0-.02-.04-.05-.12,0,.03-.05-.12,0,.1,0,.01,0-.1-.03,.13,0,.04,0-.04,.05-.11-.02,.03,.02-.04,.08-.1-.02,.02,.09-.1-.06,.03,0-.01,.03-.02,.13-.06,0,0,.05-.02,.1-.03,.15-.04-.13,.03,0,0,.03,0,.07,0,.13,0,.2,0,.28,.02,.52-.26,.52-.52,0-.3-.24-.5-.52-.52h0Z"/><path class="y" d="M20.59,26.89c.21,.02,.35-.09,.46-.25,.08-.12,.08-.33,0-.45-.11-.16-.26-.27-.46-.25-.26,.02-.47,.2-.47,.47s.22,.45,.47,.47h0Z"/><path class="u" d="M18.5,26.02c-.18-.08-.32-.08-.5,0-.3,.14-.31,.58-.1,.79,.19,.19,.51,.19,.71,0,.21-.21,.2-.65-.1-.79h0Z"/><path class="u" d="M16.5,26.24h.01c.19,.12,.44,.01,.5-.2,.07-.25-.17-.49-.42-.42h-.01c-.28,.09-.33,.46-.08,.62h0Z"/><path class="u" d="M15.23,25.79c.4,0,.4-.61,0-.61s-.4,.61,0,.61h0Z"/><path class="u" d="M13.82,25.33c.35,0,.35-.54,0-.54s-.35,.54,0,.54h0Z"/><path class="u" d="M12.68,24.96c.26,0,.26-.41,0-.41s-.26,.41,0,.41h0Z"/><path class="u" d="M22.83,26.28c.08-.05,.17-.13,.21-.21,.11-.24,.02-.48-.23-.57-.13-.04-.29-.02-.41,.05-.2,.12-.27,.38-.15,.58,.12,.19,.38,.27,.58,.15h0Z"/><path class="u" d="M24.08,25.75h.03c.21,0,.38-.18,.38-.38s-.17-.38-.38-.38h-.03c-.2,0-.37,.17-.37,.38s.17,.37,.37,.38h0Z"/><path class="u" d="M25.64,25.23h.02c.19-.16,.19-.39,0-.53h-.02c-.2-.16-.48,.04-.48,.26s.28,.42,.48,.27h0Z"/><path class="u" d="M27.03,24.76h.03c.31-.09,.31-.55,0-.63h-.03c-.21-.06-.42,.09-.42,.31s.21,.38,.42,.32h0Z"/><path class="u" d="M28.14,24.33c.33,0,.33-.51,0-.51s-.33,.51,0,.51h0Z"/><path class="u" d="M29.29,23.88c.33,0,.33-.51,0-.51s-.33,.51,0,.51h0Z"/><path class="u" d="M30.58,23.63c.33,0,.33-.51,0-.51s-.33,.51,0,.51h0Z"/><g><path class="m" d="M11.22,29.06s-.01,.04-.02,.06c.26,.11,.42,.41,.45,.69s-.04,.57-.11,.84c-.35,1.29-.84,2.54-1.45,3.73-.27,.07-.56,0-.83-.07l-3.1-.77c-.14-.04-.3-.08-.4-.18-.16-.17-.15-.43-.12-.66,.14-1.17,.41-2.32,.78-3.44,.16-.48,.41-1.02,.89-1.17,.27-.08,.55-.03,.83,.02,1.12,.22,2.08,.38,3.08,.94Z"/><path class="y" d="M9.87,24.03c-.7-.12-1.54-.28-2.21-.02-.67,.26-1.22,.78-1.56,1.41-.22,.4-.34,.91-.11,1.31,.18,.31,.54,.47,.83,.69,.29,.22-.04,.98-.21,1.3,1.05,.42,2.25,.75,3.34,1.07,1.19,.35,1.73,.84,1.82,.42,.13-.64,.26-1.09,.43-1.35,.28-.42,.64-.53,1.03-.85,.45-.37,.52-1.07,.3-1.61-.23-.54-.69-.94-1.17-1.26-.59-.39-1.48-.95-2.48-1.12Z"/><path class="w" d="M8.91,24.34c-.71-.36-1.55,.53-1.91,1.06-.35,.52-.39,1.76,.28,2.02,.41,.16,.81-.24,.73-.65-.04-.22-.2-.64-.08-.89,.27-.53,.66-.85,1.02-1.3,.06-.07,.04-.21-.05-.25h0Z"/><path class="w" d="M10.05,24.53c-.47,.03-.79,.48-1.06,.83-.4,.52-.65,1.16-.77,1.81-.11,.62,.96,.84,1.1,.21,.11-.5,.23-.98,.41-1.46,.14-.39,.47-.75,.52-1.17,.01-.11-.09-.23-.2-.23h0Z"/><path class="w" d="M10.8,24.97c-.37,.86-.7,1.75-1.06,2.62-.26,.62,.75,.97,.99,.34,.21-.58,.4-1.16,.52-1.76,.08-.4,.16-.93-.16-1.25-.09-.1-.24-.06-.29,.06h0Z"/><path class="w" d="M11.86,25.53c0,.47,.17,.88,.01,1.34-.13,.36-.41,.66-.67,.94-.13,.13-.24,.33-.18,.52,.07,.2,.14,.35,.36,.41,.17,.05,.41,.04,.54-.11,.4-.44,.83-.96,.88-1.58,.04-.63-.18-1.33-.79-1.61-.06-.03-.15,.03-.15,.1h0Z"/><path class="w" d="M7.2,28.13c-.08,.04-.13,.15-.16,.23-.05,.11-.07,.22-.03,.34,.04,.1,.19,.1,.24,.02,.08-.13,.15-.47,0-.58-.02-.01-.04-.01-.06,0h0Z"/><path class="w" d="M7.77,28.33c-.08-.03-.18,.06-.23,.12-.07,.11-.12,.27-.07,.4,.05,.11,.19,.1,.26,.02,.06-.07,.08-.23,.09-.32,0-.05,0-.19-.06-.22h0Z"/><path class="w" d="M8.21,28.49c-.1,0-.16,.06-.2,.15-.04,.08-.07,.2-.07,.29,0,.14,.2,.24,.29,.1,.05-.07,.05-.15,.07-.24,.01-.07,.03-.15,0-.22-.01-.04-.05-.08-.09-.08h0Z"/><path class="w" d="M8.67,28.66c-.19,0-.24,.31-.27,.45-.03,.19,.28,.21,.3,.02,.01-.09,.15-.46-.03-.46h0Z"/><path class="w" d="M9.05,28.87c-.11,.1-.22,.37-.09,.49,.07,.06,.14,.07,.22,.02,.08-.06,.07-.16,.09-.24,.01-.09,0-.17-.05-.25-.04-.05-.12-.05-.16-.01h0Z"/><path class="w" d="M9.65,29c-.19,0-.25,.26-.24,.41,.01,.16,.24,.14,.29,.02,.03-.07,.12-.43-.05-.43h0Z"/><path class="w" d="M10.04,29.17c-.11,.07-.15,.21-.15,.33,0,.21,.28,.21,.31,.02,.02-.12,.02-.26-.08-.34-.02-.01-.05-.02-.07,0h0Z"/><path class="w" d="M10.5,29.36c-.1,.09-.16,.29-.1,.41,.02,.05,.09,.07,.15,.05,.14-.07,.19-.29,.12-.43-.03-.06-.11-.08-.16-.03h0Z"/><path class="w" d="M10.92,29.5c-.11,.12-.14,.33-.04,.46,.05,.07,.16,.07,.21,.02,.12-.11,.13-.35,0-.46-.05-.04-.13-.07-.18-.01h0Z"/><path class="w" d="M11.48,29.69c-.13-.02-.21,.2-.22,.3-.02,.12,.17,.19,.23,.08,.04-.07,.14-.35-.02-.37h0Z"/></g><path class="w" d="M20.99,29.17c.1,.03,.18,.02,.27-.03,.17-.09,.17-.35,0-.45-.09-.05-.17-.07-.27-.03-.25,.09-.25,.42,0,.51h0Z"/><path class="w" d="M23.85,31.14v-.02c.13-.15,.13-.3,.01-.45,0,0-.01-.01-.01-.02-.08-.09-.23-.12-.34-.09-.15,.04-.26,.18-.26,.34,0,.12,.07,.24,.17,.3,.12,.07,.33,.07,.42-.05h0Z"/><path class="w" d="M25.58,28.5c.05,0,.1,0,.15-.02,.29-.1,.29-.47,0-.58-.05-.02-.1-.02-.15-.02-.4,0-.4,.63,0,.62h0Z"/><path class="w" d="M28.52,30.77c.19,0,.34-.16,.34-.34s-.16-.34-.34-.34-.34,.16-.34,.34,.16,.34,.34,.34h0Z"/><path class="w" d="M29.46,27.07c.08,.12,.19,.19,.34,.17,.28-.02,.35-.34,.14-.51-.07-.05-.15-.08-.24-.07-.1,.01-.18,.04-.23,.13-.05,.08-.05,.2,0,.27h0Z"/><path class="w" d="M31.67,29.39c.28,0,.28-.43,0-.43s-.28,.43,0,.43h0Z"/><path class="w" d="M24.93,35.29c.37,0,.37-.57,0-.57s-.37,.57,0,.57h0Z"/><path class="w" d="M26.54,33.94c.37,0,.37-.57,0-.57s-.37,.57,0,.57h0Z"/><path class="w" d="M27.11,35.66c.37,0,.37-.57,0-.57s-.37,.57,0,.57h0Z"/><path class="u" d="M15.23,13.72c.16,0,.16-.25,0-.25s-.16,.25,0,.25h0Z"/><g><path class="w" d="M27.37,41.94c-.13,.12-.22,.28-.38,.37-.22,.13-.49,.07-.73-.03-.23-.1-.45-.24-.7-.28-.41-.06-.82,.17-1.12,.47-.29,.3-.5,.67-.77,.99-.19,.23-.41,.43-.59,.66-.57,.72-.76,1.72-.53,2.6s.9,1.65,1.73,2.02c.08,.04,.16,.07,.25,.07,.11,0,.2-.06,.29-.11,.24-.13,.47-.27,.69-.43,.72-.51,1.29-1.23,1.62-2.05,.1-.25,.18-.52,.37-.71,.22-.24,.55-.33,.84-.47,.59-.29,1.06-.82,1.28-1.44,.21-.58,.14-1.34-.38-1.67-.18-.12-.4-.16-.62-.2-.44-.08-.95-.09-1.28,.21Z"/><g class="x"><path class="u" d="M29.28,40.87c.3,.76,.32,1.66-.07,2.39-.38,.71-1.33,1.08-1.96,1.54-.97,.71-1.19,1.73-1.35,2.86,0,.04,.05,.07,.07,.03,.48-.85,.43-1.76,1.19-2.5,.57-.55,1.33-.85,1.92-1.38,.78-.71,.95-2.18,.25-2.97-.02-.02-.06,0-.05,.03h0Z"/><path class="u" d="M28.81,41.21c.06,.87-.11,1.53-.84,2.07-.49,.37-1.02,.69-1.53,1.03-.71,.47-1.32,1.13-1.24,2.03,0,.09,.12,.1,.15,.02,.35-.87,.71-1.37,1.49-1.9,.51-.35,1.02-.68,1.5-1.06,.71-.55,.9-1.38,.56-2.2-.02-.04-.09-.04-.09,.01h0Z"/><path class="u" d="M28.4,40.99c-.26,1.31-1.1,1.82-2.15,2.51-.68,.44-1.3,.98-1.43,1.82-.01,.09,.09,.14,.14,.06,.39-.57,.58-1.03,1.16-1.46,.48-.35,1.05-.6,1.49-.99,.57-.51,.99-1.14,.87-1.93,0-.04-.08-.04-.08,0h0Z"/><path class="u" d="M27.38,41.02c-.23,1.07-.82,1.63-1.8,2.04-.63,.26-1.03,.83-1.27,1.46-.02,.06,.05,.11,.1,.08,.36-.25,.49-.67,.79-.99,.36-.39,.97-.42,1.37-.76,.51-.43,1.02-1.14,.87-1.84,0-.04-.06-.04-.07,0h0Z"/><path class="u" d="M26.35,41c-.17,1.55-2.32,1.82-2.54,3.46,0,.06,.07,.11,.11,.05,.25-.44,.46-.86,.8-1.23,.29-.31,.66-.53,.99-.79,.41-.32,1.11-.95,.69-1.5-.02-.03-.06-.02-.06,.02h0Z"/></g></g><path class="w" d="M18.91,44.06c-.18-.32-.37-.7-.23-1.04,.07-.17,.21-.31,.36-.42,1.33-1.09,3.16-1.53,4.84-1.17-.29,.39-.3,1.05-.36,1.04-1.62-.21-3.45,.46-4.42,1.78-.09-.01-.15-.1-.19-.18Z"/><path class="u" d="M22.27,38.52c.17-.12,.42-.08,.57,.07,.15,.14,.21,.36,.2,.57,0,.21-.07,.41-.13,.6-.08,.25-.16,.51-.24,.76-.08,.24-.16,.49-.33,.68-.03,.03-.08,.06-.12,.03-.01-.01-.02-.03-.02-.05-.16-.74-.32-1.51-.15-2.25,.04-.15,.09-.31,.22-.41Z"/><path class="u" d="M25.24,39.84c.12,.13,.11,.34,.02,.5-.09,.15-.24,.26-.38,.36-.28,.2-.62,.41-.87,.65-.14,.13-.19-.02-.19-.14,.04-.32,.16-.52,.3-.82,.13-.3,.38-.56,.7-.64,.15-.04,.32-.02,.43,.08Z"/><path class="u" d="M20.13,39.73c-.19-.11-.45-.04-.62,.1-.12,.1-.11,.46-.08,.62,.11,.64,.4,.84,.76,1.15,.07,.06,.17,.12,.23,.05,.03-.03,.03-.08,.03-.13,0-.34,.02-.68,0-1.02-.03-.44-.11-.66-.32-.78Z"/><path class="m" d="M25.66,54.74c.07,.05,.16-.02,.2-.09,.53-.75,.28-1.78,.41-2.69,.07-.5,.32-1.07,.62-1.48,.39-.53,.91-.91,1.02-1.54,.02-.12-.07-.2-.19-.23-.27-.08-.68-.03-.87-.19-.08-.07-.08-.21-.08-.32-.02-.52,.16-1.05,.05-1.56-.14-.62-.68-1.06-.92-1.65-.12-.29-.16-.61-.23-.91-.11-.42-.29-.83-.54-1.19-.22-.32-.72-.46-1.09-.32-.61,.24-1.14,.63-1.67,1.02-.73,.54-1.49,1.11-1.9,1.92-.12,.23-.2,.47-.32,.7-.33,.64-.87,1.14-1.25,1.75-.5,.81-.69,1.78-.78,2.73-.04,.44-.06,.89,.01,1.32,.13,.75,.56,1.44,1.14,1.94s1.31,.81,2.06,.95c.64,.12,1.31,.12,1.96,.13,.55,0,1.09,0,1.64,0,.22,0,.68-.07,.71-.29Z"/><path class="u" d="M21.7,54.38s-.04-.04-.05-.06c-.14-.21-.28-.43-.42-.64,.68-.34,1.43-.55,2.19-.52,.76,.03,1.52,.3,2.06,.83-.19,.18-.39,.35-.58,.53-.91-.54-2.08-.6-3.05-.17-.05,.02-.1,.04-.15,.02Z"/><path class="y" d="M20.67,49.8c.17,.15,.39,.25,.61,.28,.25,.03,.51-.05,.73-.18,.33-.2,.59-.56,.58-.94-.02-.47-.44-.84-.89-.99-.33-.11-.72-.13-.99,.07-.19,.14-.3,.36-.37,.58-.09,.26-.17,.75,.34,1.19Z"/><path class="y" d="M26.45,47.48c-.11,.28-.25,.51-.55,.53-.31,.03-.52-.31-.47-.57,.15-.76,.38-1.32,.72-2.01,.21,.12,1.12,1.34,1.1,1.91,0,.15-.04,.32-.14,.43-.11,.11-.29,.15-.43,.09-.14-.06-.24-.22-.23-.38Z"/><path class="k" d="M14.26,47.55c-.02-.6-.05-1.21,.15-1.77,.1-.27,.24-.53,.31-.81,.07-.28,.05-.61-.15-.82-.12-.12-.27-.18-.4-.29-.36-.29-.4-.85-.2-1.27,.2-.42,.59-.71,1-.94,.73-.41,1.56-.66,2.39-.59,.83,.07,1.65,.5,2.08,1.21,.17,.29,.29,.62,.27,.95-.02,.34-.1,.71-.35,.94-.69,.62-1.32,.39-1.3,1.05,.01,.48,.67,.54,.91,.57,.76,.09,2.19,1.08,.91,2.45-.32,.34-.7,.59-1.09,.84-.1,.07-.2,.14-.27,.24-.19,.32,.15,.72,.5,.83,.35,.11,.75,.09,1.07,.27,.39,.23,.56,.71,.59,1.16,.03,.45-.04,.9,.02,1.35,.05,.41,.22,.81,.48,1.13,.11,.14,.25,.28,.42,.35,.15,.07,.33,.09,.49,.1,.59,.04,1.18,.07,1.78,.07,.31,0,.64,0,.91-.15,.91-.46,.99-2.03,1.88-2.53,.4-.23,.93-.23,1.38-.1,.57,.16,.89,.58,1.1,1.13,.28,.73-.23,1.58-.94,1.91-.37,.17-.87,.21-1.08,.55-.32,.5,.01,.68-.11,1.02-.19,.53-.93,.97-1.49,1.01-.54,.04-1.16,.02-1.39-.48-.05-.11-.08-.23-.14-.34-.22-.42-.77-.55-1.23-.45-.46,.1-.84,.39-1.23,.66-.38,.27-.8,.53-1.27,.56-.39,.03-.78-.11-1.12-.3-1.24-.7-1.95-2.04-2.58-3.31-.47-.94-.92-1.9-1.25-2.9-.36-1.12-1-2.15-1.05-3.33Z"/><path class="u" d="M27.17,46.87c-.23-.37-.9-.25-1.25-.19-.5,.09-1.12,.33-1.43,.75-.02,.02,.01,.07,.04,.05,.41-.17,.79-.4,1.22-.52,.48-.13,.92-.04,1.4-.06,.02,0,.03-.02,.02-.04h0Z"/><path class="u" d="M23.65,42.67c-.93,.25-1.62,.96-2.32,1.57-.55,.48-.92,1.09-1.08,1.8,0,.05,.05,.06,.07,.02,.28-.73,.61-1.12,1.19-1.64,.37-.33,.73-.66,1.12-.95,.33-.26,.73-.41,1.07-.65,.07-.05,.03-.17-.06-.15h0Z"/><path class="u" d="M25.35,52.37c-.03-.14-.09-.34-.27-.31-.03,0-.03,.03-.02,.05,.05,.11,.17,.18,.24,.28,.02,.03,.06,0,.05-.02h0Z"/><path class="u" d="M23.57,53.01c.04-.06,.04-.13,.04-.2,0-.12-.2-.12-.19,0,0,.07,0,.14,.04,.2,.03,.04,.08,.04,.12,0h0Z"/><path class="u" d="M24.6,52.74c.01-.08-.04-.15-.09-.21-.08-.09-.23,.03-.17,.13,.04,.06,.09,.13,.17,.14,.05,0,.08-.02,.08-.06h0Z"/><path class="u" d="M21.8,52.03c-.07-.04-.12,.02-.18,.06-.08,.06-.13,.13-.14,.23,0,.04,.04,.05,.07,.04,.07-.03,.11-.08,.16-.14,.04-.05,.11-.08,.12-.16,0-.02,0-.03-.02-.04h0Z"/><path class="u" d="M22.57,52.57c-.05,.09-.13,.16-.15,.27,0,.03,.02,.05,.04,.04,.14-.03,.23-.11,.28-.24,.04-.1-.12-.16-.17-.07h0Z"/><path class="u" d="M24.92,50.89c-.05,.07-.11,.14-.17,.2-.05,.05-.08,.08-.09,.15,0,.02,.02,.04,.04,.04,.16,0,.26-.23,.3-.36,.01-.05-.05-.07-.08-.03h0Z"/><path class="u" d="M24.08,50.64c-.07,.09-.11,.25-.07,.36,.01,.03,.04,.04,.08,.03,.13-.06,.14-.25,.12-.37-.01-.06-.09-.06-.12-.02h0Z"/><path class="u" d="M23.37,50.56c-.07,.09-.14,.26-.04,.34,.03,.03,.07,.03,.1,0,.11-.09,.04-.26-.04-.34,0,0-.02,0-.02,0h0Z"/><path class="u" d="M22.21,50.88c0,.07,.03,.13,.06,.19,.03,.07,.04,.12,.12,.13,.02,0,.04,0,.05-.02,.04-.07,.02-.11-.01-.18-.03-.07-.05-.14-.12-.18-.04-.02-.1,0-.1,.06h0Z"/><path class="u" d="M21.46,51.1c-.04,.1,.09,.25,.17,.29,.1,.05,.18-.05,.14-.14-.03-.07-.25-.32-.31-.15h0Z"/><path class="j" d="M21.21,51.67c1.24-.93,3.05-1,4.37-.18-.29,.52-.78,.93-1.35,1.11-.57,.18-1.2,.13-1.74-.12-.17-.08-.34-.19-.5-.29-.26-.17-.52-.34-.78-.5Z"/><path class="u" d="M23.02,52.06c.14,.18,.4,.29,.69,.23,.22-.05,.45-.28,.45-.51,0-.22-.18-.41-.38-.51-.16-.08-.36-.11-.53-.05-.17,.06-.58,.41-.24,.84Z"/><g class="l"><path class="u" d="M26.4,56.84c.24-.23,.22-.51,.23-.83,.03-1.24,.99-1.46,1.91-1.92,.89-.45,.81-1.51,.44-2.26-.04-.07-.14-.02-.12,.05,.18,.92,.26,1.76-.86,2.19-.39,.15-.68,.26-1.01,.52-.83,.66-.34,1.38-.69,2.19-.03,.06,.06,.1,.11,.06h0Z"/><path class="u" d="M25.9,56.41c.11-1.02,.43-1.69,1.25-2.3,.4-.3,.85-.5,1.22-.84,.56-.52,.5-1.54,.07-2.09-.05-.06-.13,0-.12,.07,.24,1.04,.17,1.72-.84,2.29-.34,.19-.65,.4-.95,.65-.7,.56-.78,1.39-.71,2.22,0,.05,.07,.05,.08,0h0Z"/><path class="u" d="M25.11,56.78c.28-.86,.15-1.68,.64-2.5,.4-.67,1.17-.96,1.72-1.47,.5-.46,.81-1.55,.33-2.1-.08-.1-.24,.03-.18,.14,.81,1.44-1.16,2.22-1.89,3.04-.74,.83-.73,1.85-.71,2.89,0,.05,.07,.06,.09,0h0Z"/><path class="u" d="M27.16,50.93c.12,1.21-1.69,2.22-2.35,3.09-.58,.76-.55,1.95-.5,2.85,0,.18,.26,.18,.27,0,.03-.63,0-1.24,.11-1.87,.16-.88,.87-1.52,1.48-2.12,.58-.57,1.26-1.07,1.08-1.97-.01-.05-.1-.04-.1,.01h0Z"/><path class="u" d="M23.78,56.9c.22-.36,.1-.87,.11-1.28,.02-.66,.48-1.26,.42-1.9,0-.08-.1-.11-.15-.04-.47,.71-.91,2.45-.41,3.22,0,0,.02,0,.03,0h0Z"/><path class="u" d="M22.82,56.8c.3-.33,.38-.72,.43-1.16,.06-.52,.16-1.16-.15-1.61-.03-.04-.12-.04-.11,.03,.05,.43,.08,.84,.04,1.28-.04,.49,0,.98-.28,1.41-.03,.04,.03,.09,.07,.05h0Z"/><path class="u" d="M21.78,56.67c.41-.18,.44-.84,.5-1.22,.12-.79,.15-1.48-.34-2.15-.04-.06-.14-.03-.12,.05,.06,.26,.17,.49,.25,.74,.12,.38,.02,.9-.03,1.29-.05,.36-.05,.94-.31,1.23-.03,.04,0,.08,.05,.06h0Z"/><path class="u" d="M20.75,56.33c.42,.28,.56-.62,.59-.85,.12-.76,.25-1.92-.37-2.5-.04-.03-.1,0-.09,.05,.22,.67,.27,1.27,.23,1.97-.02,.32,.03,1.21-.36,1.32,0,0,0,0,0,.01h0Z"/><path class="u" d="M20.18,56.17c.11-1.41,.42-3.36-.21-4.7-.42-.89-1.39-1.36-2.32-.91-.07,.03-.03,.14,.04,.13,.49,0,.96,0,1.42,.2,.63,.27,.77,1.19,.83,1.78,.11,1.16,.12,2.34,.21,3.5,0,.03,.04,.03,.04,0h0Z"/><path class="u" d="M19.55,56.02c.43-1.04,.16-2.25-.03-3.32-.18-1-1.18-1.55-2.13-1.43-.05,0-.07,.08-.01,.09,1.15,.24,1.83,.68,2,1.94,.12,.9,.28,1.8,.14,2.71,0,.02,.02,.03,.03,0h0Z"/><path class="u" d="M17.12,49.54c.82-.34,2.35-1,2.41-2.08,.07-1.25-1.41-1.08-2.13-1.67-.95-.78,1.06-1.92,1.47-2.28,.32-.27,.56-.73,.59-1.15,.07-.95-.46-1.84-1.44-2-.05,0-.09,.06-.04,.09,1.4,.86,1.41,2.23,.09,3.18-.59,.43-1.2,.88-1.23,1.66-.03,.66,.63,.98,1.15,1.14,.3,.09,.57,.16,.86,.29,.93,.42,.14,1.29-.18,1.6-.46,.46-1.08,.75-1.56,1.19,0,0,0,.01,0,0h0Z"/><path class="u" d="M16.5,49.29c.86,.01,1.7-.73,2.02-1.49,.24-.56-.41-.87-.82-1.04-1.08-.44-2.25-1.38-1.11-2.6,.43-.46,1-.72,1.41-1.2,.7-.83,.27-1.84-.38-2.54-.07-.07-.16,.02-.13,.1,.46,.93,.81,1.67-.1,2.57-.31,.31-.71,.55-1.04,.84-.5,.44-.61,1.04-.49,1.66,.11,.6,.67,1.04,1.19,1.25,.39,.16,1.47,.28,1.14,1.03-.28,.63-1.09,1.09-1.72,1.29-.07,.02-.06,.12,.02,.12h0Z"/><path class="u" d="M16.67,48.69c.52-.14,1.13-.45,.82-1.06-.12-.25-.62-.4-.84-.51-.83-.45-1.19-.91-1.25-1.89-.09-1.59,1.14-1.9,1.76-3.07,.43-.81-.28-1.72-.79-2.28-.05-.06-.14,.02-.11,.08,.38,.71,.92,1.36,.47,2.2-.2,.38-.67,.67-.98,.95-.53,.49-.68,1.13-.73,1.82-.04,.58,.04,1.38,.48,1.82,.23,.22,.47,.39,.76,.54,.16,.09,.34,.16,.51,.23,.69,.27,.45,.84-.1,1.14-.02,0,0,.03,.01,.03h0Z"/><path class="u" d="M15.71,40.45c.23,.41,.26,.83,.11,1.25-.09,.37-.31,.71-.52,1.02-.31,.46-.78,.8-1.11,1.25-.5,.68-.34,1.54,.01,2.23,.03,.06,.14,.03,.13-.03-.11-.93-.24-1.69,.44-2.45,.33-.37,.65-.68,.91-1.09,.43-.68,.68-1.61,.13-2.28-.02-.03-.08-.02-.1,.01-.02,.05-.02,.04-.02,.09h0Z"/><path class="u" d="M14.96,40.85c.15,.17,.02,.85,0,1.02-.08,.48-.47,.84-.81,1.15-.55,.5-.85,1-.86,1.77,0,.05,.07,.07,.1,.03,.25-.51,.36-1.02,.79-1.45,.34-.34,.68-.61,.91-1.04,.2-.37,.33-1.17,.04-1.52-.02-.02-.05-.02-.07-.02-.02,0-.05,0-.07,.01-.02,0-.02,.03-.01,.04h0Z"/></g><path class="n" d="M14.62,45.56c-.36-.04-.59,.33-.81,.62-.59,.78-.95,1.25-1.83,2.14-.22,.22-.44,.43-.6,.7-.05,.08-.1,.18-.1,.28,0,.14,.1,.25,.19,.34,.55,.55,1.17,1.01,1.66,1.61,.5,.6,1.28,1.87,1.36,2.15,.45,1.55,.58,2.24-.34,4.82-.09,.26,.08,.53,.35,.54,.85,.04,1.74,.1,2.58,.14,.11,0,.23-.04,.3-.12,.23-.26,.39-.71,.54-.98,.16-.29,.66-.79,.93-1.51,.75-1.96,.4-3.7-.45-5.61-.58-1.3-1.2-2.27-2.5-3.62-.19-.2-1.24-1.39-1.3-1.49Z"/><path class="u" d="M14.85,57.85c-.18,0-.33,.15-.33,.33s.15,.33,.33,.33,.33-.15,.33-.33-.15-.33-.33-.33h0Z"/><path class="u" d="M15.29,56.72c-.18,0-.32,.15-.32,.32s.15,.33,.32,.33,.32-.15,.32-.33-.15-.32-.32-.32h0Z"/><path class="u" d="M15.52,55.5c-.4,0-.4,.62,0,.62s.4-.62,0-.62h0Z"/><path class="u" d="M15.53,54.19c-.44,0-.44,.69,0,.69s.44-.69,0-.69h0Z"/><path class="u" d="M15.31,53c-.18,0-.33,.15-.33,.33s.15,.32,.33,.32,.32-.15,.32-.32-.15-.33-.32-.33h0Z"/><path class="u" d="M14.88,51.93c-.16,0-.29,.13-.29,.29s.13,.29,.29,.29,.29-.13,.29-.29-.13-.29-.29-.29h0Z"/><path class="u" d="M14.33,50.97c-.42,0-.42,.64,0,.64s.41-.64,0-.64h0Z"/><path class="u" d="M13.69,50.1c-.19,0-.34,.16-.34,.34s.16,.34,.34,.34,.34-.16,.34-.34-.16-.34-.34-.34h0Z"/><path class="u" d="M12.93,49.37c-.19,0-.35,.16-.35,.35s.16,.35,.35,.35,.35-.16,.35-.35-.16-.35-.35-.35h0Z"/><path class="u" d="M11.89,48.92h0c-.11,.09-.11,.32,0,.41h0c.08,.07,.17,.11,.28,.08,.12-.03,.21-.15,.21-.28,0-.1-.06-.2-.14-.25-.12-.07-.25-.04-.35,.05h0Z"/><g class="v"><path class="u" d="M18.82,57.91c1.27-2.38,.69-5.03-.22-7.42-.43-1.13-1.01-2.05-1.91-2.85-.86-.76-1.44-2.02-2.48-2.55-.26-.13-.53-.1-.74,.09-.03,.03-.06,.06-.09,.08-.19,.17-.2,.54,0,.7,.75,.63,1.33,1.36,1.98,2.1,.35,.4,1.56,2.02,1.75,2.51,.65,1.6,1.07,2.88,1.08,4.05,.03,1.55-.14,2.24,.03,3.44,.03,.19,.52,0,.6-.15h0Z"/></g><path class="y" d="M27.09,55.92c.12,.18,.23,.55,.73,1.67,.26,.58,.41,1.23,.38,1.86-.03,.58-.18,.71-.35,.92-.16,.19-.45,.21-.69,.15-.24-.06-.46-.2-.69-.28-.5-.17-1.09-.07-1.5,.26-.46,.37-.72,.99-1.25,1.25-.64,.31-1.45-.05-1.84-.63-.11-.16-.2-.34-.35-.46-.28-.2-.78-.23-1.09-.09-.31,.14-.54,.34-.88,.4-.37,.06-.83,.07-1.15-.12-1.51-.88-1.19-1.95-1.1-2.36,.1-.43,.61-1.08,1.3-2.29,.41-.72,.54-1.14,.73-1.09,1.83,.5,3.03,.65,5.33,.75,.54,.02,2.3-.13,2.43,.05Z"/><path class="u" d="M23.36,60.37c-.6,.24-1.03-.23-1.13-.72-.07-.35,0-.71,.07-1.06,.08-.39,.17-.77,.27-1.16,.05-.2,.11-.4,.24-.57h0c.19-.25,.58-.19,.71,.09,.25,.54,.42,1.13,.49,1.72,.06,.49,.04,1.02-.29,1.42-.1,.12-.23,.21-.37,.27Z"/><path class="u" d="M18.75,59.38c-.25-.11-.34-.44-.26-.7,.08-.26,.28-.47,.48-.65,.29-.27,1.18-1.31,1.51-1.51h0c.18-.11,.39,.08,.31,.27-.29,.71-.88,1.76-1.21,2.21-.1,.13-.21,.26-.36,.34-.15,.08-.33,.11-.48,.04Z"/><path class="u" d="M26.94,59.54c-.14,.06-.29,.09-.43,.04-.15-.05-.36-.13-.44-.72-.06-.46-.22-2.15,.03-2.19,.34-.06,1.02,1.87,1.08,2.49,0,.08,0,.16-.03,.22-.04,.07-.12,.12-.2,.15Z"/><path class="y" d="M24.76,40.06c-.29,0-.29,.44,0,.44s.29-.44,0-.44h0Z"/><path class="y" d="M22.52,38.82c-.33,0-.33,.51,0,.51s.33-.51,0-.51h0Z"/><path class="y" d="M19.91,39.99c-.32,0-.32,.5,0,.5s.32-.5,0-.5h0Z"/><path class="y" d="M23.45,41.05c-.24,0-.24,.38,0,.38s.24-.38,0-.38h0Z"/><path class="y" d="M22.87,41.03c-.27,0-.27,.42,0,.42s.27-.42,0-.42h0Z"/><path class="y" d="M21.63,41.12c-.29,0-.29,.45,0,.45s.29-.45,0-.45h0Z"/><path class="y" d="M20.97,41.29c-.29,0-.29,.45,0,.45s.29-.45,0-.45h0Z"/><path class="u" d="M21.37,36.99c.74,.06,1.55-.42,1.35-1.25-.21-.88-1.39-.92-2.04-.61-.35,.17-.66,.57-.63,.97,.04,.54,.53,.86,1.03,.92,.37,.05,.84-.11,1.09-.4,.17-.19,.25-.44,.18-.69-.09-.29-.35-.45-.62-.54-.27-.09-.57,.1-.64,.36-.08,.29,.09,.55,.36,.64,.12,.04,0,0-.02-.03-.09-.07-.1-.23-.08-.33,0-.02,.11-.17,.04-.1,.09-.09-.02,0-.06,.03,.11-.06-.02,0-.04,.01-.03,0-.06,.01-.09,.02,.06,0,.07,0,0,0-.03,0-.16-.02-.03,0-.03,0-.07-.02-.1-.03,.04,.02,.03,.01-.02-.02-.12-.07,.06,.06-.03-.03,.02,.02,.08,.17,.05,.08,0,.03,0,.05,0,.07,0-.06,0-.04,0,.04,.02-.05,.01-.04-.01,.03,.03-.05,.02-.04-.02,.01,.03-.03,.05-.06,.08-.09-.09,.08,.05-.03,.08-.04-.1,.05,.04-.01,.05-.02,.03,0,.06-.02,.1-.02-.05,0-.05,0,.02,0,.05,0,.1,0,.15,0,.02,0,.17,.02,.04,0,.04,0,.08,.02,.12,.03,.09,.03-.09-.05,.04,.02,.03,.02,.11,.09,0,0,.1,.09-.03-.06,.01,0,.02,.04,.05,.12,0-.03,.05,.12,0-.1,0-.01,0,.1,.03-.13,0-.04,0,.04-.05,.11,.02-.03-.02,.04-.08,.1,.02-.02-.09,.1,.06-.03,0,.02-.03,.02-.13,.06,0,0-.05,.02-.1,.03-.15,.04,.13-.03,0,0-.03,0-.07,0-.13,0-.2,0-.28-.02-.52,.26-.52,.52,0,.3,.24,.5,.52,.52h0Z"/><path class="y" d="M21.37,35.58c-.21-.02-.35,.09-.46,.25-.08,.12-.08,.33,0,.45,.11,.16,.26,.27,.46,.25,.26-.02,.47-.2,.47-.47s-.22-.45-.47-.47h0Z"/><path class="u" d="M23.46,36.45c.18,.08,.32,.08,.5,0,.3-.14,.31-.58,.1-.79-.19-.19-.52-.19-.71,0-.21,.21-.2,.65,.1,.79h0Z"/><path class="u" d="M25.46,36.22h-.01c-.19-.12-.44-.01-.5,.2-.07,.25,.17,.49,.42,.42h.01c.28-.08,.33-.46,.08-.62h0Z"/><path class="u" d="M26.73,36.68c-.4,0-.4,.61,0,.61s.4-.61,0-.61h0Z"/><path class="u" d="M28.14,37.13c-.35,0-.35,.54,0,.54s.35-.54,0-.54h0Z"/><path class="u" d="M29.29,37.51c-.26,0-.26,.41,0,.41s.26-.41,0-.41h0Z"/><path class="u" d="M19.13,36.18c-.08,.05-.17,.13-.21,.21-.11,.24-.02,.48,.23,.57,.13,.04,.29,.02,.4-.05,.2-.12,.27-.38,.15-.58-.11-.2-.38-.28-.58-.15h0Z"/><path class="u" d="M17.89,36.72h-.04c-.21,0-.38,.18-.38,.38s.17,.38,.38,.38h.04c.21,0,.38-.17,.38-.38s-.17-.37-.38-.38h0Z"/><path class="u" d="M16.32,37.23s-.01,0-.02,.01c-.19,.14-.19,.38,0,.52h.02c.2,.16,.48-.04,.48-.26s-.28-.42-.48-.27h0Z"/><path class="u" d="M14.94,37.71h-.03c-.31,.09-.31,.55,0,.63,.01,0,.02,0,.03,0,.21,.05,.42-.1,.42-.32s-.21-.38-.42-.32h0Z"/><path class="u" d="M13.83,38.14c-.33,0-.33,.51,0,.51s.33-.51,0-.51h0Z"/><path class="u" d="M12.68,38.59c-.33,0-.33,.51,0,.51s.33-.51,0-.51h0Z"/><path class="u" d="M11.38,38.84c-.33,0-.33,.51,0,.51s.33-.51,0-.51h0Z"/><g><path class="m" d="M30.74,33.4l.02-.06c-.26-.11-.42-.41-.45-.69-.03-.28,.04-.57,.11-.84,.35-1.29,.84-2.54,1.45-3.74,.27-.07,.56,0,.83,.07,1.03,.26,2.07,.52,3.1,.77,.15,.04,.3,.08,.4,.18,.16,.17,.15,.43,.12,.66-.14,1.17-.41,2.32-.78,3.44-.16,.48-.41,1.02-.9,1.17-.27,.08-.55,.03-.83-.02-1.12-.22-2.08-.38-3.08-.94Z"/><path class="y" d="M32.09,38.44c.7,.12,1.54,.28,2.21,.02,.67-.26,1.22-.78,1.56-1.41,.22-.4,.34-.92,.11-1.31-.18-.31-.54-.47-.83-.69-.29-.22,.04-.98,.21-1.3-1.05-.42-2.25-.75-3.34-1.07-1.19-.35-1.73-.84-1.82-.43-.13,.64-.26,1.09-.43,1.35-.28,.42-.64,.53-1.03,.85-.45,.37-.52,1.07-.3,1.61,.23,.54,.69,.94,1.17,1.26,.59,.39,1.48,.95,2.48,1.12Z"/><path class="w" d="M33.06,38.13c.71,.36,1.55-.53,1.91-1.06,.35-.52,.39-1.76-.28-2.02-.41-.16-.81,.25-.73,.65,.04,.22,.2,.64,.08,.89-.27,.53-.67,.85-1.02,1.3-.06,.07-.03,.21,.05,.25h0Z"/><path class="w" d="M31.91,37.94c.47-.04,.79-.48,1.06-.83,.4-.52,.65-1.16,.77-1.81,.11-.62-.97-.83-1.1-.21-.11,.5-.23,.98-.41,1.46-.14,.39-.47,.75-.52,1.17-.02,.1,.09,.23,.2,.23h0Z"/><path class="w" d="M31.16,37.5c.37-.86,.7-1.75,1.06-2.62,.26-.62-.75-.97-.99-.33-.21,.58-.4,1.16-.52,1.76-.08,.4-.16,.93,.16,1.25,.09,.1,.24,.06,.29-.06h0Z"/><path class="w" d="M30.1,36.94c0-.46-.17-.88-.01-1.34,.13-.36,.41-.66,.67-.94,.13-.13,.24-.33,.18-.52-.07-.2-.14-.34-.36-.41-.17-.05-.41-.04-.54,.11-.4,.44-.83,.96-.88,1.58-.04,.63,.18,1.33,.79,1.61,.06,.03,.14-.03,.14-.1h0Z"/><path class="w" d="M34.76,34.33c.08-.04,.13-.15,.16-.23,.05-.11,.07-.22,.03-.34-.04-.1-.19-.1-.24-.02-.08,.13-.15,.47,0,.58,.02,.01,.04,.01,.06,0h0Z"/><path class="w" d="M34.19,34.13c.08,.03,.19-.06,.23-.12,.07-.11,.12-.27,.06-.4-.05-.12-.19-.1-.26-.02-.06,.07-.08,.23-.09,.32,0,.05,0,.19,.06,.21h0Z"/><path class="w" d="M33.75,33.97c.1,0,.16-.06,.21-.15,.04-.08,.07-.2,.07-.29,0-.15-.2-.24-.29-.1-.05,.07-.05,.15-.07,.23-.01,.08-.03,.15,0,.22,.01,.04,.05,.08,.09,.08h0Z"/><path class="w" d="M33.29,33.8c.19,0,.24-.31,.27-.45,.03-.19-.28-.21-.3-.02-.01,.09-.15,.46,.03,.46h0Z"/><path class="w" d="M32.91,33.6c.11-.1,.22-.37,.1-.49-.07-.06-.14-.07-.22-.02-.08,.06-.08,.16-.09,.24-.01,.09,0,.17,.05,.25,.04,.05,.12,.05,.16,.01h0Z"/><path class="w" d="M32.31,33.47c.18,0,.25-.26,.24-.41-.01-.16-.24-.14-.29-.02-.03,.07-.12,.43,.05,.43h0Z"/><path class="w" d="M31.93,33.3c.11-.07,.15-.21,.15-.33,0-.21-.28-.21-.31-.02-.02,.12-.02,.26,.08,.34,.02,.01,.05,.02,.07,0h0Z"/><path class="w" d="M31.46,33.11c.1-.09,.16-.29,.1-.41-.03-.06-.09-.07-.15-.05-.14,.07-.19,.29-.12,.43,.03,.06,.11,.08,.17,.03h0Z"/><path class="w" d="M31.04,32.96c.11-.12,.14-.33,.04-.46-.05-.07-.16-.07-.21-.01-.12,.11-.13,.35,0,.46,.04,.04,.13,.07,.18,.01h0Z"/><path class="w" d="M30.48,32.77c.13,.02,.21-.2,.22-.3,.02-.12-.17-.19-.23-.08-.04,.07-.14,.35,.02,.37h0Z"/></g><path class="w" d="M20.98,33.3c-.1-.04-.18-.02-.27,.03-.17,.09-.17,.36,0,.45,.09,.05,.17,.07,.27,.03,.25-.09,.25-.42,0-.51h0Z"/><path class="w" d="M18.11,31.33l-.02,.02c-.12,.15-.12,.3,0,.45l.02,.02c.07,.09,.23,.12,.34,.09,.15-.04,.26-.18,.26-.34,0-.12-.07-.24-.17-.3-.12-.07-.33-.07-.42,.05h0Z"/><path class="w" d="M16.38,33.97c-.05,0-.1,0-.15,.02-.29,.1-.29,.47,0,.58,.05,.02,.1,.02,.15,.02,.4,0,.4-.63,0-.62h0Z"/><path class="w" d="M13.45,31.7c-.19,0-.34,.16-.34,.34s.16,.34,.34,.34,.34-.16,.34-.34-.16-.34-.34-.34h0Z"/><path class="w" d="M12.5,35.39c-.08-.12-.19-.19-.33-.17-.28,.03-.36,.34-.14,.51,.07,.05,.15,.08,.24,.07,.1-.01,.18-.05,.23-.13,.05-.08,.05-.2,0-.27h0Z"/><path class="w" d="M9.82,32.54c-.28,0-.28,.43,0,.43s.28-.43,0-.43h0Z"/><path class="w" d="M15.94,28.79c-.37,0-.37,.57,0,.57s.37-.57,0-.57h0Z"/><path class="w" d="M15.04,27.14c-.37,0-.37,.57,0,.57s.36-.57,0-.57h0Z"/><path class="w" d="M13.73,28.98c-.36,0-.36,.57,0,.57s.37-.57,0-.57h0Z"/><path class="u" d="M26.73,48.74c-.16,0-.16,.25,0,.25s.16-.25,0-.25h0Z"/><path class="q" d="M5.63,36.46c-.4-1.43-.53-3.32,0-3.62,1.81-1.08,3.81-1.46,5.84-2.04,3.02-.86,5.4-1.32,8.45-2.09,1.65-.41,3.12-1.02,4.42-1.46,3.08-1.05,5.55-2.55,7.76-3.79,.94-.53,4.24,2.85,4.35,5.4,0,.11,0,.23-.04,.34-.08,.16-.25,.24-.41,.31-4.6,1.99-8.44,2.97-13.3,4.19-1.27,.32-3.65,1.1-4.91,1.46-2.76,.79-5.37,1.67-7.88,3.07-.33,.18-.67,.38-1.04,.42-.46,.05-.91-.14-1.33-.35-.82-.39-1.65-.96-1.89-1.84Z"/><path class="y" d="M21.66,29.82c.33-.27,.78-.54,1.16-.35,.29,.14,.65,.62,.61,.94-.04,.32-.21,.61-.38,.88-.41,.63-1.11,1.1-1.63,1.63-.06,.06-.13,.13-.22,.14-.07,0-.14-.02-.21-.06-.59-.3-1.09-.75-1.47-1.29-.24-.35-.43-.75-.43-1.18,0-.42,.2-.87,.58-1.06,.31-.15,.71-.11,1,.08,.29,.19,.48,.52,.54,.86,.05-.24,.24-.43,.43-.58Z"/><path class="u" d="M21.19,31.57c.3,0,.3-.46,0-.46s-.3,.46,0,.46h0Z"/><path class="u" d="M18.03,30.69c-.84-.28-2.15-.92-2.86-.04-.12,.15-.05,.39,.16,.4,.42,0,.81-.15,1.24-.16,.48,0,.95,.01,1.43,.05,.15,.01,.16-.21,.03-.25h0Z"/><path class="u" d="M17.75,31.82c-.86,.2-1.71,.36-2.55,.63-.55,.17-1.3,.36-1.52,.95-.04,.11,.06,.2,.16,.21,.57,.06,1.25-.3,1.79-.47,.76-.25,1.47-.62,2.25-.85,.3-.09,.17-.53-.13-.46h0Z"/><path class="u" d="M25.12,29.99c.85-.21,1.7-.39,2.54-.67,.54-.18,1.3-.38,1.5-.97,.04-.11-.06-.2-.16-.21-.57-.05-1.24,.32-1.77,.5-.76,.27-1.46,.65-2.24,.89-.29,.09-.17,.54,.13,.46h0Z"/><path class="u" d="M18.45,33.07c-.36,.36-.87,.61-1.35,.79-.42,.16-.95,.3-1.13,.76-.05,.13,.06,.25,.17,.29,.48,.19,1.12-.18,1.53-.4,.52-.28,.87-.65,1.11-1.19,.1-.21-.15-.43-.33-.26h0Z"/><path class="u" d="M24.36,28.93c.37-.22,.74-.45,1.12-.66,.39-.22,.78-.34,1.05-.72,.05-.07,0-.2-.09-.22-.49-.09-.89,.12-1.3,.35-.46,.26-.82,.58-.95,1.11-.02,.1,.08,.19,.17,.14h0Z"/><path class="u" d="M25.09,31.02c.24,.43,1,.42,1.44,.44,.52,.02,1.45-.11,1.78-.54,.06-.08,.07-.19-.03-.24-.51-.27-1.2,.13-1.75,.16-.45,.03-1.11-.28-1.44,.14,0,0,0,.03,0,.04h0Z"/><path class="w" d="M13.01,34c.53,0,.53-.82,0-.82s-.53,.82,0,.82h0Z"/><path class="w" d="M11.7,34.37c.52,0,.52-.8,0-.8s-.52,.8,0,.8h0Z"/><path class="w" d="M10.5,34.73c.41,0,.41-.63,0-.63s-.41,.63,0,.63h0Z"/><path class="w" d="M9.45,35.08c.38,0,.38-.59,0-.59s-.38,.59,0,.59h0Z"/><path class="w" d="M8.47,35.44c.35,0,.35-.55,0-.55s-.35,.55,0,.55h0Z"/><path class="w" d="M30.25,28.23s0-.03,0-.05c-.04-.47-.69-.46-.72,0,0,.02,0,.03,0,.05-.04,.47,.77,.47,.73,0h0Z"/><path class="w" d="M30.97,28.1c.46,0,.46-.72,0-.72s-.46,.72,0,.72h0Z"/><path class="w" d="M32.19,27.48s.01-.02,.02-.03c.11-.16-.04-.38-.22-.38s-.33,.22-.22,.38c0,0,.01,.02,.02,.03,.1,.15,.3,.15,.4,0h0Z"/><path class="w" d="M32.96,27.34c.35,0,.35-.55,0-.55s-.35,.55,0,.55h0Z"/><path class="w" d="M33.97,26.91c.28,0,.28-.44,0-.44s-.28,.44,0,.44h0Z"/><path class="k" d="M5.75,12.71c.17-.15,.35-.27,.53-.4,.2-.15,.41-.28,.57-.46,.13-.15,.19-.31,.26-.5,.06-.19,.07-.6-.04-.78-.31-.5-1.17-.93-1.74,.16,0,.02-.02,.03-.04,.03h0s-.03,0-.04-.03c-.57-1.09-1.43-.66-1.74-.16-.11,.17-.1,.58-.04,.78,.07,.19,.13,.34,.26,.5,.16,.19,.37,.32,.57,.46,.18,.13,.37,.25,.53,.4,.08,.08,.46,.48,.46,.48,0,0,.37-.4,.46-.48Z"/><path class="k" d="M35.22,49.65c-.17,.15-.35,.27-.53,.4-.2,.15-.41,.28-.57,.46-.13,.15-.19,.31-.26,.5-.06,.19-.07,.6,.04,.78,.31,.5,1.17,.93,1.74-.16,0-.01,.02-.02,.04-.02h0s.03,0,.04,.02c.57,1.09,1.43,.66,1.74,.16,.11-.17,.1-.58,.03-.78-.06-.19-.13-.34-.26-.5-.16-.19-.37-.32-.57-.46-.18-.13-.37-.25-.53-.4-.08-.08-.46-.48-.46-.48,0,0-.37,.4-.46,.48Z"/><path class="k" d="M4.96,7.93c-.74,0-1.32-.28-1.74-.84-.42-.56-.63-1.27-.63-2.1,0-.89,.22-1.62,.65-2.19,.43-.57,1-.85,1.71-.85s1.25,.27,1.69,.81c.44,.54,.66,1.25,.66,2.14,0,.74-.16,1.38-.5,1.93-.33,.55-.75,.9-1.27,1.03v.08c0,.42,.25,.63,.76,.63,.24,0,.46-.02,.66-.05v.58c-.19,.06-.39,.09-.59,.09-.44,0-.78-.09-1.02-.28-.24-.19-.37-.51-.4-.97Zm0-.59c.5,0,.9-.23,1.18-.69,.28-.46,.42-1.05,.42-1.77s-.15-1.32-.44-1.73c-.29-.41-.68-.62-1.17-.62s-.88,.22-1.17,.67c-.29,.45-.43,1.03-.43,1.75s.15,1.28,.44,1.72c.29,.44,.68,.66,1.17,.66Z"/><path class="k" d="M35.98,54.36c.74,0,1.32,.28,1.74,.85,.42,.56,.63,1.26,.63,2.11,0,.89-.22,1.62-.65,2.19-.43,.57-1,.85-1.71,.85s-1.25-.27-1.7-.81c-.44-.54-.66-1.25-.66-2.14,0-.74,.17-1.38,.5-1.93,.33-.55,.75-.9,1.27-1.03v-.08c0-.42-.25-.63-.76-.63-.24,0-.46,.02-.66,.05v-.58c.19-.06,.39-.09,.59-.09,.44,0,.78,.09,1.02,.28,.24,.19,.37,.51,.4,.97Zm0,.59c-.5,0-.9,.23-1.18,.69-.28,.46-.43,1.05-.43,1.77s.15,1.32,.44,1.73c.29,.41,.68,.62,1.17,.62s.88-.22,1.17-.67c.29-.45,.43-1.03,.43-1.75s-.15-1.28-.44-1.72c-.29-.44-.68-.66-1.17-.66Z"/><g><path class="k" d="M13.47,59.11H6.19c-1.66,0-3-1.43-3-3.19V15.66h.19V55.92c0,1.66,1.26,3,2.82,3h7.28v.19Z"/><rect class="k" x="28.95" y="58.93" width="3.83" height=".19"/><path class="k" d="M37.74,46.82h-.19V6.36c0-1.66-1.26-3-2.82-3h-5.79v-.19h5.79c1.66,0,3,1.43,3,3.19V46.82Z"/><rect class="k" x="8.45" y="3.17" width="4.43" height=".19"/></g></g></g></g></svg>