<?xml version="1.0" encoding="UTF-8"?><svg xmlns="http://www.w3.org/2000/svg" viewBox="0 0 40.93 62.29"><defs><style>.d{fill:#fff;}.e{fill:#d6002b;}.f{fill:#2d2d2d;}</style></defs><g id="a"/><g id="b"><g id="c"><g><g><path class="d" d="M3.54,.09H37.39c1.9,0,3.45,1.55,3.45,3.45V58.74c0,1.9-1.55,3.45-3.45,3.45H3.54c-1.9,0-3.45-1.55-3.45-3.45V3.54C.09,1.64,1.64,.09,3.54,.09Z"/><path class="f" d="M37.39,62.29H3.54c-1.95,0-3.54-1.59-3.54-3.54V3.54C0,1.59,1.59,0,3.54,0H37.39c1.95,0,3.54,1.59,3.54,3.54V58.75c0,1.95-1.59,3.54-3.54,3.54ZM3.54,.19C1.69,.19,.19,1.69,.19,3.54V58.75c0,1.85,1.5,3.36,3.36,3.36H37.39c1.85,0,3.36-1.51,3.36-3.36V3.54c0-1.85-1.51-3.36-3.36-3.36H3.54Z"/></g><path class="e" d="M5.75,12.71c.17-.15,.35-.27,.53-.4,.2-.15,.41-.28,.57-.46,.13-.15,.19-.31,.26-.5,.06-.19,.07-.6-.03-.78-.31-.5-1.17-.93-1.74,.16,0,.02-.02,.03-.04,.03h0s-.03,0-.04-.03c-.57-1.09-1.43-.66-1.74-.16-.11,.17-.1,.58-.03,.78,.06,.19,.13,.34,.26,.5,.16,.19,.37,.32,.57,.46,.18,.13,.37,.25,.53,.4,.08,.08,.46,.48,.46,.48,0,0,.37-.4,.46-.48Z"/><path class="e" d="M35.22,49.65c-.17,.15-.35,.27-.53,.4-.2,.15-.41,.28-.57,.46-.13,.15-.19,.31-.26,.5-.06,.19-.07,.61,.03,.78,.31,.5,1.17,.93,1.74-.16,0-.02,.02-.03,.04-.03h0s.03,0,.04,.03c.57,1.09,1.43,.66,1.74,.16,.11-.17,.1-.58,.04-.78-.06-.19-.13-.34-.26-.5-.16-.19-.37-.32-.57-.46-.18-.13-.37-.25-.53-.4-.08-.08-.46-.48-.46-.48,0,0-.37,.4-.46,.48Z"/><path class="e" d="M4.46,6.04v-.57h.66c.48,0,.82-.1,1.03-.3,.21-.2,.31-.44,.31-.72,0-.31-.12-.56-.35-.74-.23-.18-.52-.27-.87-.27-.65,0-1.09,.31-1.34,.94l-.65-.19c.37-.88,1.06-1.32,2.06-1.32,.56,0,1.01,.15,1.36,.45,.35,.3,.52,.66,.52,1.08,0,.33-.1,.61-.31,.85-.21,.24-.47,.4-.8,.46,.36,.05,.68,.21,.94,.46,.26,.25,.39,.58,.39,.98,0,.48-.2,.88-.59,1.21-.39,.33-.93,.49-1.6,.49-.54,0-1-.13-1.38-.38-.38-.26-.65-.6-.79-1.02l.67-.22c.2,.69,.7,1.04,1.49,1.04,.52,0,.89-.11,1.11-.33s.34-.48,.34-.79c0-.33-.14-.6-.41-.81-.27-.21-.65-.31-1.14-.31h-.66Z"/><path class="e" d="M36.49,56.25v.57h-.66c-.48,0-.82,.1-1.03,.3-.21,.2-.31,.44-.31,.72,0,.31,.12,.56,.35,.74,.23,.18,.52,.27,.87,.27,.65,0,1.09-.31,1.34-.94l.65,.19c-.37,.88-1.06,1.32-2.05,1.32-.56,0-1.02-.15-1.36-.45-.35-.3-.52-.66-.52-1.08,0-.33,.1-.61,.31-.85,.21-.24,.47-.4,.8-.46-.36-.05-.68-.21-.94-.46-.26-.25-.39-.58-.39-.98,0-.48,.19-.88,.59-1.21,.39-.33,.93-.49,1.6-.49,.54,0,1,.13,1.38,.38,.38,.26,.65,.6,.79,1.02l-.67,.22c-.2-.7-.7-1.04-1.5-1.04-.52,0-.89,.11-1.11,.33-.23,.22-.34,.48-.34,.79,0,.33,.14,.6,.41,.8s.65,.31,1.14,.31h.66Z"/><path class="e" d="M21.75,11.58c.47-.43,.99-.75,1.5-1.13,.56-.41,1.15-.78,1.6-1.31,.37-.44,.54-.86,.72-1.4,.18-.54,.2-1.7-.1-2.18-.87-1.39-3.3-2.61-4.9,.46-.02,.04-.07,.07-.11,.07h0s-.09-.03-.11-.07c-1.6-3.07-4.02-1.85-4.9-.46-.3,.48-.28,1.64-.1,2.18,.18,.54,.35,.97,.72,1.4,.45,.53,1.04,.89,1.6,1.31,.51,.38,1.03,.71,1.5,1.13,.24,.21,1.29,1.35,1.29,1.35,0,0,1.05-1.13,1.29-1.35Z"/><path class="e" d="M19.18,50.71c-.47,.43-.99,.75-1.5,1.13-.56,.41-1.15,.78-1.6,1.31-.37,.43-.54,.86-.72,1.4-.18,.54-.2,1.7,.1,2.18,.87,1.39,3.3,2.61,4.9-.46,.02-.04,.07-.07,.11-.07h0s.09,.03,.11,.07c1.6,3.07,4.03,1.85,4.9,.46,.3-.48,.28-1.64,.1-2.18-.18-.54-.35-.97-.72-1.4-.45-.53-1.04-.9-1.6-1.31-.51-.38-1.03-.71-1.5-1.13-.24-.21-1.29-1.35-1.29-1.35,0,0-1.05,1.13-1.29,1.35Z"/><path class="e" d="M21.75,34.21c.47-.42,.99-.75,1.5-1.13,.56-.41,1.15-.78,1.6-1.31,.37-.43,.54-.86,.72-1.4,.18-.54,.2-1.7-.1-2.18-.87-1.39-3.3-2.61-4.9,.46-.02,.04-.07,.07-.11,.07h0s-.09-.03-.11-.07c-1.6-3.07-4.02-1.85-4.9-.46-.3,.48-.28,1.64-.1,2.18,.18,.54,.35,.97,.72,1.4,.45,.53,1.04,.9,1.6,1.31,.51,.38,1.03,.71,1.5,1.13,.24,.21,1.29,1.35,1.29,1.35,0,0,1.05-1.13,1.29-1.35Z"/></g></g></g></svg>