<?xml version="1.0" encoding="UTF-8"?><svg xmlns="http://www.w3.org/2000/svg" viewBox="0 0 40.97 62.31"><defs><style>.d{fill:#fff;}.e{fill:#d6002b;}.f{fill:#2d2d2d;}</style></defs><g id="a"/><g id="b"><g id="c"><g><g><path class="d" d="M37.39,62.22l-33.85-.02c-1.9,0-3.45-1.55-3.45-3.45L.13,3.54C.13,1.64,1.68,.09,3.58,.09l33.85,.02c1.91,0,3.45,1.55,3.45,3.45l-.04,55.2c0,1.9-1.55,3.45-3.45,3.45Z"/><path class="f" d="M37.39,62.31h0l-33.85-.02C1.59,62.29,0,60.7,0,58.74L.04,3.54c0-1.95,1.59-3.54,3.54-3.54L37.43,.02c1.95,0,3.54,1.59,3.54,3.55l-.04,55.2c0,1.95-1.59,3.54-3.54,3.54ZM3.58,.19C1.73,.19,.23,1.69,.23,3.54l-.04,55.2c0,1.85,1.5,3.36,3.35,3.36l33.85,.02v0c1.85,0,3.36-1.51,3.36-3.35l.04-55.2c0-.9-.35-1.74-.98-2.37-.63-.63-1.48-.98-2.37-.98L3.58,.19Z"/></g><path class="e" d="M5.77,12.72c.17-.15,.35-.27,.53-.4,.2-.15,.41-.28,.57-.46,.13-.15,.19-.31,.26-.5,.06-.19,.07-.6-.04-.78-.31-.5-1.17-.93-1.74,.16,0,.02-.02,.03-.04,.03h0s-.03,0-.04-.03c-.57-1.09-1.43-.66-1.74-.16-.11,.17-.1,.58-.03,.78,.06,.19,.13,.34,.26,.5,.16,.19,.37,.32,.57,.46,.18,.13,.37,.25,.53,.4,.08,.08,.46,.48,.46,.48,0,0,.37-.4,.46-.48Z"/><path class="e" d="M35.24,49.66c-.17,.15-.35,.27-.53,.4-.2,.15-.41,.28-.57,.46-.13,.15-.19,.31-.26,.5-.06,.19-.07,.61,.04,.78,.31,.5,1.17,.93,1.74-.16,0-.02,.02-.03,.04-.03h0s.03,0,.04,.03c.57,1.09,1.43,.66,1.74,.16,.11-.17,.1-.58,.03-.78-.06-.19-.13-.34-.26-.5-.16-.19-.37-.32-.57-.46-.18-.13-.37-.25-.53-.4-.08-.08-.46-.48-.46-.48,0,0-.37,.4-.46,.48Z"/><path class="e" d="M7.03,3.01l-.06,.62h-2.83l-.12,1.87c.43-.42,.9-.63,1.41-.63,.54,0,1,.19,1.4,.56,.39,.37,.59,.85,.59,1.43s-.21,1.07-.64,1.45c-.43,.38-.95,.57-1.56,.57-.48,0-.91-.13-1.29-.38-.38-.25-.62-.58-.74-.98l.61-.21c.25,.67,.73,1,1.43,1,.46,0,.82-.14,1.09-.41,.27-.27,.4-.62,.4-1.04s-.13-.79-.4-1.03c-.27-.25-.59-.37-.96-.37-.54,0-1,.26-1.35,.78l-.57-.12,.19-3.11h3.41Z"/><path class="e" d="M33.96,59.3l.06-.62h2.83l.12-1.87c-.43,.42-.9,.63-1.41,.63-.54,0-1-.19-1.4-.56-.39-.38-.59-.85-.59-1.43s.21-1.07,.64-1.45c.43-.38,.95-.56,1.56-.56,.48,0,.91,.13,1.29,.38,.38,.25,.62,.58,.74,.98l-.61,.21c-.25-.67-.73-1-1.43-1-.46,0-.82,.14-1.09,.41-.27,.27-.4,.62-.4,1.04s.13,.79,.4,1.03c.27,.25,.59,.37,.96,.37,.54,0,1-.26,1.35-.78l.57,.12-.19,3.11h-3.41Z"/><g><path class="e" d="M15.1,11.97c.47-.43,.99-.75,1.5-1.13,.56-.41,1.15-.78,1.6-1.31,.37-.43,.54-.86,.72-1.4,.18-.54,.2-1.7-.1-2.18-.87-1.39-3.3-2.61-4.9,.46-.02,.04-.07,.07-.11,.07h0s-.09-.03-.11-.07c-1.6-3.07-4.03-1.85-4.9-.46-.3,.48-.28,1.64-.1,2.18,.18,.54,.35,.97,.72,1.4,.45,.53,1.04,.89,1.6,1.31,.51,.38,1.03,.71,1.5,1.13,.24,.21,1.29,1.34,1.29,1.34,0,0,1.05-1.13,1.29-1.34Z"/><path class="e" d="M28.45,11.97c.47-.43,.99-.75,1.5-1.13,.56-.41,1.15-.78,1.6-1.31,.37-.43,.54-.86,.72-1.4,.18-.54,.2-1.7-.1-2.18-.87-1.39-3.3-2.61-4.9,.46-.02,.04-.07,.07-.11,.07h0s-.09-.03-.11-.07c-1.6-3.07-4.03-1.85-4.9-.46-.3,.48-.28,1.64-.1,2.18,.18,.54,.35,.97,.72,1.4,.45,.53,1.04,.89,1.6,1.31,.51,.38,1.03,.71,1.5,1.13,.24,.21,1.29,1.34,1.29,1.34,0,0,1.05-1.13,1.29-1.34Z"/></g><g><path class="e" d="M25.87,50.34c-.47,.43-.99,.75-1.5,1.13-.56,.41-1.15,.78-1.6,1.31-.37,.44-.54,.86-.72,1.4-.18,.54-.2,1.7,.1,2.18,.87,1.39,3.3,2.61,4.9-.46,.02-.04,.07-.07,.11-.07h0s.09,.03,.11,.07c1.6,3.07,4.02,1.85,4.9,.46,.3-.48,.28-1.64,.1-2.18-.18-.54-.35-.97-.72-1.4-.45-.53-1.04-.89-1.6-1.31-.51-.38-1.03-.71-1.5-1.13-.24-.21-1.29-1.34-1.29-1.34,0,0-1.05,1.13-1.29,1.34Z"/><path class="e" d="M12.52,50.34c-.47,.43-.99,.75-1.5,1.13-.56,.41-1.15,.78-1.6,1.31-.37,.44-.54,.86-.72,1.4-.18,.54-.2,1.7,.1,2.18,.87,1.39,3.3,2.61,4.9-.46,.02-.04,.07-.07,.11-.07h0s.09,.03,.11,.07c1.6,3.07,4.02,1.85,4.9,.46,.3-.48,.28-1.64,.1-2.18-.18-.54-.35-.97-.72-1.4-.45-.53-1.04-.89-1.6-1.31-.51-.38-1.03-.71-1.5-1.13-.23-.21-1.29-1.34-1.29-1.34,0,0-1.05,1.13-1.29,1.34Z"/></g><path class="e" d="M21.77,34.22c.47-.42,.99-.75,1.5-1.13,.56-.41,1.15-.78,1.6-1.31,.37-.43,.54-.86,.72-1.4,.18-.54,.2-1.7-.1-2.18-.87-1.39-3.3-2.61-4.9,.46-.02,.04-.07,.07-.11,.07h0s-.09-.03-.11-.07c-1.6-3.07-4.03-1.85-4.9-.46-.3,.48-.28,1.64-.1,2.18,.18,.54,.35,.97,.72,1.4,.45,.53,1.04,.9,1.6,1.31,.51,.38,1.03,.71,1.5,1.13,.24,.21,1.29,1.35,1.29,1.35,0,0,1.05-1.13,1.29-1.35Z"/></g></g></g></svg>