<?xml version="1.0" encoding="UTF-8"?><svg xmlns="http://www.w3.org/2000/svg" xmlns:xlink="http://www.w3.org/1999/xlink" viewBox="0 0 40.93 62.29"><defs><style>.h{fill:#fff;}.i{fill:#d6002b;}.j{fill:#ffd6a1;}.k{fill:#e20c3f;}.l{fill:#b70027;}.m{clip-path:url(#e);}.n{clip-path:url(#d);}.o{fill:#222272;}.p{fill:none;}.q{fill:#2d2d2d;}.r{clip-path:url(#f);}.s{fill:#0c0a35;}.t{fill:#990028;}.u{clip-path:url(#g);}.v{fill:#f70032;}</style><clipPath id="d"><path class="p" d="M19.57,15.54c.07-.04-.15-.36,.34-.45,.22-.04,.34,.03,.38,.25,.05,.28-.21,.75-.58,.97-.37,.23-.69,.36-1.12,.34-1.19-.06-2.36-.53-3.27-1.3-.32-.27-.97-.81-1.13-.75-.16,.05-.47,.46-1.07,1.24-.36,.48-.96,1.06-1.55,1.04-.29,0-.52-.17-.65-.44-.12-.27-.08-.57,.16-.74,.34-.24,.49,.01,.62,.07,.08,.03,.03-.23-.01-.3-.33-.51-.94-.36-1.29-.12-.35,.24-.5,.64-.58,1.05-.06,.33-.02,.72,.1,1.03,.25,.68,1.08,.81,1.8,.84,.91,.04,1.74-.46,2.03-1.12,.54-1.23,.44-1.38,.58-1.36,.09,.01,.23,.94,.43,1.28,1,1.7,3.29,1.56,4.31,1.3,1.02-.26,1.74-.87,2.11-1.86,.36-.95,.06-1.46-.34-1.94-.25-.3-.66-.42-1.04-.37-.28,.04-.52,.3-.55,.58-.07,.5,.24,.79,.33,.74Z"/></clipPath><clipPath id="e"><path class="p" d="M24.85,8.33c.33,.45,.97,1.6,1.29,2.05,.63,.87,.88,1.88,1.84,2.36,.46,.23,1.07,.36,1.58,.47s.85,.34,1.09,.81c.28,.54,.38,1.08,.05,1.97-.13,.35-.74,1.09-2.43,1.26-.46,.05-1.16,.11-2.01,.06-1.06-.07-.99-.09-2.05-.09-.74,0-.74-.04-1.02-.7-.19-.45-.49-2.12-.7-2.88-.08-.27-1.02-4.25-1.18-4.84-.13-.46-.25-.92-.38-1.38-.07-.25-.14-.53-.02-.77,.17-.35,.63-.42,1.03-.44,.27-.01,.54-.03,.81-.04,.11,0,.22-.01,.33,.02,.13,.04,.06,.34,.15,.44,.74,.76,1.01,.85,1.63,1.7Z"/></clipPath><clipPath id="f"><path class="p" d="M20.97,46.92c-.07,.04,.14,.36-.34,.45-.22,.04-.34-.03-.38-.25-.05-.28,.21-.75,.58-.98,.37-.23,.69-.36,1.12-.34,1.19,.06,2.36,.53,3.27,1.3,.32,.27,.97,.81,1.13,.75,.16-.05,.47-.46,1.07-1.24,.36-.48,.96-1.06,1.55-1.04,.29,0,.52,.17,.65,.43,.12,.27,.08,.57-.16,.74-.34,.24-.49-.01-.62-.07-.08-.03-.03,.23,.01,.3,.33,.51,.94,.36,1.29,.12,.35-.24,.5-.64,.58-1.05,.07-.33,.02-.72-.1-1.03-.25-.68-1.08-.81-1.8-.84-.91-.04-1.74,.46-2.03,1.12-.54,1.22-.44,1.38-.58,1.36-.09-.01-.23-.94-.43-1.28-1-1.7-3.29-1.56-4.31-1.3-1.02,.26-1.74,.87-2.11,1.86-.36,.95-.06,1.46,.34,1.94,.25,.3,.66,.42,1.04,.37,.28-.04,.52-.3,.55-.58,.07-.5-.24-.79-.33-.74Z"/></clipPath><clipPath id="g"><path class="p" d="M15.68,54.13c-.33-.45-.97-1.6-1.29-2.05-.62-.88-.88-1.88-1.84-2.36-.47-.23-1.07-.37-1.58-.47-.51-.11-.85-.35-1.09-.81-.28-.54-.38-1.07-.05-1.97,.13-.35,.74-1.09,2.43-1.26,.46-.05,1.16-.11,2.01-.06,1.07,.07,.99,.09,2.06,.09,.74,0,.74,.03,1.02,.7,.19,.45,.49,2.12,.7,2.88,.08,.27,1.02,4.25,1.18,4.84,.13,.46,.25,.92,.38,1.38,.07,.25,.13,.53,.02,.77-.17,.36-.64,.42-1.03,.44-.27,.02-.54,.03-.81,.04-.11,0-.22,.01-.33-.02-.13-.04-.06-.34-.15-.44-.74-.76-1.01-.85-1.63-1.7Z"/></clipPath></defs><g id="a"/><g id="b"><g id="c"><g><g><path class="h" d="M3.54,.09H37.39c1.9,0,3.45,1.55,3.45,3.45V58.74c0,1.9-1.55,3.45-3.45,3.45H3.54c-1.9,0-3.45-1.55-3.45-3.45V3.54C.09,1.64,1.64,.09,3.54,.09Z"/><path class="q" d="M37.39,62.29H3.54c-1.95,0-3.54-1.59-3.54-3.54V3.54C0,1.59,1.59,0,3.54,0H37.39c1.95,0,3.54,1.59,3.54,3.54V58.75c0,1.95-1.59,3.54-3.54,3.54ZM3.54,.19C1.69,.19,.19,1.69,.19,3.54V58.75c0,1.85,1.51,3.36,3.36,3.36H37.39c1.85,0,3.36-1.51,3.36-3.36V3.54c0-1.85-1.5-3.36-3.36-3.36H3.54Z"/></g><g><path class="i" d="M33.43,27.17c.57,1.41,.76,2.78,.8,4.25,.05,1.76-.15,2.49-.1,4.25,.01,.43-1.74,2.22-2.03,2.59-.49,.64-.88,1.19-1.48,1.23-3.6,.25-6.43,1.09-10.05,.98-3.35-.1-5.53-.86-8.85-.51-.21,.02-.13,.28-.29,.17-1.7-1.13-4.41-2.22-5.12-4.07-1.24-3.26-2.16-3.71-1.4-7.05,.27-1.19,1.6-3.75,5.4-5.15,1.77-.65,3.55-2.12,5.73-2.33,2.87-.29,5.81-.18,8.62,.3,2.35,.4,6.21,2.11,7.61,3.55,.52,.54,.88,1.15,1.14,1.78Z"/><path class="i" d="M7.1,35.29c-.57-1.41-.76-2.78-.8-4.25-.05-1.76,.15-2.49,.1-4.25-.01-.43,1.74-2.22,2.03-2.59,.49-.64,.88-1.19,1.48-1.23,3.6-.25,6.43-1.09,10.05-.98,3.35,.1,5.53,.86,8.85,.51,.21-.02,.13-.28,.29-.17,1.7,1.13,4.42,2.22,5.12,4.07,1.24,3.26,2.16,3.71,1.4,7.05-.27,1.19-1.6,3.75-5.4,5.15-1.77,.65-3.55,2.12-5.73,2.34-2.87,.29-5.81,.18-8.62-.3-2.35-.41-6.21-2.11-7.61-3.55-.52-.54-.88-1.15-1.14-1.78Z"/><path class="s" d="M5.56,27.51c.22-1.8,1.23-3.19,3.22-4.57,1.72-1.2,3.75-1.46,4.35-1.27,1.84,.55,1.66,2.71,3.4,3.52,1.82,.84,4.83,1.63,6.57,2.63,4.53,2.61,7.64,4.52,12.75,5.62-1.18,3.15-3.27,6.42-6.63,6.73-1.71,.15-3.15-1.09-4.77-1.62-2.66-.87-18.97-10.46-18.9-11.03Z"/><path class="s" d="M19.37,.82c.13-.04,.28,.04,.36,.15,.18,.23,.17,.55,.16,.84,0,.03,0,.07-.03,.09-.02,.02-.04,.02-.07,.02-.17,.01-.34,0-.51-.03-.08-.2-.12-.41-.13-.62,0-.18,.05-.4,.22-.45Z"/><path class="t" d="M12.17,22.13c-.57,.46-1.22,.81-1.78,1.28-.37,.32-.71,.72-.9,1.16-.1,.25,.14,.52,.4,.42,.36-.13,.73-.18,1.04,.01,.4,.24,.51,.77,.73,1.18,.45,.84,1.52,1.3,2.44,1.04,1-.28,1.76-1.29,2.8-1.32,1.24-.04,2.2,1.33,3.44,1.26,1.07-.06,1.83-1.17,2.89-1.29,1.18-.14,2.34,1,3.45,.58,.16-.06,.3-.16,.42-.28,1.38-1.29,.94-2.01,2.78-1.55,.04,0,.08,0,.12-.01,.78-.46-1.89-2.53-3.1-3.56-1.12-.96-2.03-2.25-2.22-3.72-.11-.84,0-1.79-.54-2.44-.07-.08-.14-.16-.23-.21-.49-.3-1.09,.1-1.56,.43-1.6,1.11-3.56,1.56-5.48,1.88-.85,.14-1.71,.26-2.52,.58-.15,.06-.28,.18-.33,.33-.08,.25,.13,.32,.2,.48,.04,.09,.02,.19,0,.29-.25,1.35-1,2.6-2.07,3.46Z"/><path class="j" d="M16.88,6.15c-.77,.5-1.93,1.16-2.25,2.01-.32,.86-.53,1.76-.95,2.57-.4,.76-.97,1.41-1.5,2.08-.28,.35-.55,.83-.31,1.2,.21,.31,.66,.33,1.02,.26s.77-.18,1.1,0c-.08,1-.12,1.93-.21,2.93-.03,.42-.07,.85,.08,1.24,.31,.86,1.33,1.24,2.24,1.29,1.95,.12,3.86-.73,5.4-1.95,.37-.29,.73-.61,1.03-.97,.54-.64,.9-1.4,1.25-2.16,.17-.37,.35-.74,.44-1.14,.1-.46,.09-.93,.06-1.39-.08-1.12-.29-2.25-.75-3.27-.47-1.02-1.21-1.94-2.19-2.49-.55-.31-1.17-.49-1.8-.59-1.09-.17-1.72-.22-2.65,.38Z"/><path class="v" d="M18.92,1.27c.46-.05,.92,0,1.36,.14,.95,.28,1.81,.91,2.33,1.75,.53,.84,.73,1.89,.51,2.86-2.42-.51-4.96-.5-7.38,.04-.12-1.06,.05-2.17,.61-3.08,.55-.91,1.51-1.6,2.56-1.71Z"/><path class="s" d="M21.35,10.33s-.13,.03-.23,.02c-1.24-.08-2.93-.35-4.08-.07-.14,.03-.31,.03-.42,.08-.08,.04-.05,.18-.12,.14-.16-.08-.31-1.35-.29-1.98,0-.06,.04-.11,.09-.13,.46-.14,1.14-.11,1.6-.08,.58,.04,1.4,.21,1.8,.42,.45,.24,1.17,.62,1.64,1.59Z"/><path class="h" d="M16.45,10.46s0-.03,0-.04c.26-.38,.61-.74,1.49-.97,1.23-.32,2.54-.05,3.4,.88-1.28,.67-2.18,.74-4.26,.41-.21-.03-.57-.09-.64-.28Z"/><path class="i" d="M19.57,15.54c.07-.04-.15-.36,.34-.45,.22-.04,.34,.03,.38,.25,.05,.28-.21,.75-.58,.97-.37,.23-.69,.36-1.12,.34-1.19-.06-2.36-.53-3.27-1.3-.32-.27-.97-.81-1.13-.75-.16,.05-.47,.46-1.07,1.24-.36,.48-.96,1.06-1.55,1.04-.29,0-.52-.17-.65-.44-.12-.27-.08-.57,.16-.74,.34-.24,.49,.01,.62,.07,.08,.03,.03-.23-.01-.3-.33-.51-.94-.36-1.29-.12-.35,.24-.5,.64-.58,1.05-.06,.33-.02,.72,.1,1.03,.25,.68,1.08,.81,1.8,.84,.91,.04,1.74-.46,2.03-1.12,.54-1.23,.44-1.38,.58-1.36,.09,.01,.23,.94,.43,1.28,1,1.7,3.29,1.56,4.31,1.3,1.02-.26,1.74-.87,2.11-1.86,.36-.95,.06-1.46-.34-1.94-.25-.3-.66-.42-1.04-.37-.28,.04-.52,.3-.55,.58-.07,.5,.24,.79,.33,.74Z"/><path class="k" d="M24.85,8.33c.33,.45,.97,1.6,1.29,2.05,.63,.87,.88,1.88,1.84,2.36,.46,.23,1.07,.36,1.58,.47s.85,.34,1.09,.81c.28,.54,.38,1.08,.05,1.97-.13,.35-.74,1.09-2.43,1.26-.46,.05-1.16,.11-2.01,.06-1.06-.07-.99-.09-2.05-.09-.74,0-.74-.04-1.02-.7-.19-.45-.49-2.12-.7-2.88-.08-.27-1.02-4.25-1.18-4.84-.13-.46-.25-.92-.38-1.38-.07-.25-.14-.53-.02-.77,.17-.35,.63-.42,1.03-.44,.27-.01,.54-.03,.81-.04,.11,0,.22-.01,.33,.02,.13,.04,.06,.34,.15,.44,.74,.76,1.01,.85,1.63,1.7Z"/><path class="s" d="M18.66,10.72c.74,.04,.75-.52,.75-.7,0-.27-.25-.5-.52-.53-.31-.03-.62,.21-.67,.51-.06,.3,.14,.7,.45,.72Z"/><g class="n"><path class="s" d="M14.72,14.21c-.51-.25-.88,.27-1.06,.69-.11,.26-.22,.53-.17,.82,.16,.83,.39,1.34,.02,2.17-.02,.04,.03,.08,.06,.05,.42-.41,.53-.84,.45-1.41-.05-.39-.28-.71-.27-1.13,.02-.57,.31-1.12,.95-1.16,.02,0,.04-.04,.01-.05h0Z"/><path class="s" d="M14.56,14.55c.5,.96-.14,1.38-.15,2.29,0,.61,.26,1.29,.72,1.69,.03,.03,.09,0,.08-.04-.11-.38-.26-.75-.38-1.12-.18-.56,.17-1.15,.3-1.67,.13-.52-.09-.9-.48-1.2-.04-.03-.11,0-.08,.06h0Z"/><path class="s" d="M13.17,15.19c-.5,.23-.46,.86-.4,1.32,.08,.55,.18,1.09-.22,1.54-.29,.33-.73,.27-1.09,.45-.1,.05-.06,.17,.03,.21,.62,.26,1.29-.32,1.53-.85,.15-.33,.12-.7,.08-1.04-.08-.6-.13-.98,.17-1.52,.04-.07-.04-.14-.1-.1h0Z"/><path class="s" d="M12.44,15.84c-.41,.21-.49,.62-.54,1.06-.05,.41-.11,.75-.32,1.11-.23,.39-.64,.58-.99,.85-.04,.04,0,.1,.05,.09,.57-.12,1.02-.63,1.28-1.12,.31-.59,.09-1.38,.59-1.89,.05-.05-.01-.13-.07-.1h0Z"/><path class="s" d="M11.81,16.09c-.54-.06-.67,.74-.84,1.09-.34,.68-1.11,.79-1.76,.93-.06,.01-.07,.09-.03,.12,.35,.38,1.14-.08,1.48-.29,.25-.15,.43-.36,.58-.61,.18-.31,.22-1,.59-1.13,.07-.02,.05-.11-.02-.12h0Z"/><path class="s" d="M11.25,15.84c-.31,.53-.89,.59-1.35,.93-.31,.23-.71,.66-.71,1.07,0,.06,.07,.09,.11,.05,.19-.2,.29-.47,.47-.68,.21-.24,.47-.39,.76-.51,.37-.16,.78-.38,.79-.83,0-.04-.06-.06-.08-.02h0Z"/><path class="s" d="M11.85,15.67c-.4-.36-.93-.52-1.45-.29-.71,.32-.96,1.02-1.61,1.42-.06,.04-.04,.14,.04,.14,.39,0,.63-.26,.85-.55,.59-.78,1.19-.95,2.15-.69,.02,0,.03-.02,.02-.03h0Z"/><path class="s" d="M15.35,14.99c.15,.1,.23,.65,.28,.82,.18,.57,.04,1.07-.11,1.62-.13,.48,.13,.85,.44,1.18,.06,.06,.14,0,.13-.07-.09-.47-.34-.73-.19-1.26,.1-.36,.19-.7,.13-1.07-.06-.38-.15-1.25-.63-1.36-.09-.02-.14,.1-.06,.14h0Z"/><path class="s" d="M16.46,15.72c.55,.58,.1,1.58,.28,2.3,.13,.52,.6,1.08,1.14,1.19,.07,.01,.12-.05,.09-.12-.17-.3-.45-.51-.65-.79-.26-.35-.29-.79-.28-1.2,0-.56-.06-1.07-.55-1.41-.02-.01-.04,.02-.03,.03h0Z"/><path class="s" d="M17.46,15.99c.31,.64,.03,1.36,.31,2.02,.18,.42,.61,.94,1.05,1.07,.04,.01,.09-.03,.07-.07-.21-.55-.78-.85-.96-1.45-.19-.6,.03-1.09-.41-1.62-.03-.04-.09,.01-.07,.05h0Z"/><path class="s" d="M18.21,16.01c.57,.04,.45,1.18,.56,1.58,.15,.51,.55,1.14,1.12,1.2,.06,0,.1-.07,.07-.12-.23-.34-.58-.55-.81-.9-.19-.29-.23-.6-.29-.93-.06-.36-.21-.91-.66-.91-.05,0-.05,.07,0,.08h0Z"/><path class="s" d="M19.19,15.9c.39,.17,.5,.98,.7,1.34,.24,.43,.61,.9,1.14,.89,.08,0,.1-.09,.06-.14-.18-.22-.41-.39-.61-.59-.21-.23-.36-.51-.5-.79-.15-.31-.37-.78-.77-.79-.04,0-.06,.06-.02,.08h0Z"/><path class="s" d="M19.68,14.07c-.26,.58-.11,1.03,.26,1.54,.23,.31,.57,.54,.83,.82,.4,.44,.34,.94,.5,1.46,.02,.07,.13,.09,.16,.02,.25-.51,.03-1.07-.27-1.52-.55-.83-1.53-1.13-1.46-2.31,0,0-.01-.01-.02,0h0Z"/><path class="s" d="M20.26,13.89c-.06,.57,.15,.92,.54,1.34,.31,.33,.69,.47,.87,.93,.11,.26,.12,.48,.32,.67,.05,.05,.15,.02,.15-.06-.01-.44-.18-.87-.46-1.21-.48-.58-1.21-.84-1.37-1.67,0-.04-.06-.02-.06,0h0Z"/></g><g class="m"><path class="s" d="M21.19,6.68c1.06,.81,.53,1.44,.53,2.37,0,.2,.15,.53,.33,.63,1.52,.82,.3,2.15,.57,3.38,.08,.36,.53,.79,.72,1.07,.64,.91,.41,1.67,.18,2.63-.17,.74,.22,1.45,.82,1.85,.07,.05,.18-.03,.15-.12-.25-.69-.66-1.12-.48-1.93,.1-.43,.34-.84,.25-1.3-.12-.61-.38-1.1-.75-1.61-.42-.57-.69-.62-.53-1.57,.06-.33,.22-.64,.25-.97,.1-1.25-1.36-1.76-1.09-2.92,.16-.73-.15-1.51-.93-1.61-.05,0-.05,.06-.02,.09h0Z"/><path class="s" d="M22.46,6.6c.44,.09-.12,1.81,.32,2.25,.59,.59,1.33,1.06,1.03,2.09-.13,.43-.33,.91-.21,1.38,.35,1.4,1.68,1.84,1.25,3.55-.21,.82-.55,1.73,.23,2.33,.07,.05,.14-.04,.11-.11-.68-1.26,.47-2.56-.02-3.9-.13-.35-.42-.66-.66-.94-.71-.83-.56-1.56-.29-2.55,.23-.84-.23-1.31-.87-1.75-1.05-.72,.09-1.96-.69-2.53-.03-.02-.08-.02-.11,0-.03,.02-.07,.04-.1,.06-.04,.02-.04,.1,.01,.11h0Z"/><path class="s" d="M23.61,6.38c-.59,.47-.09,1.32,.24,1.81,.34,.51,.83,.74,1.04,1.38,.26,.8-.3,1.45-.21,2.23,.17,1.47,2.05,1.79,1.47,3.57-.42,1.27-1.09,2.1-.36,3.43,.03,.06,.13,.03,.12-.03-.06-.86-.21-1.55,.25-2.38,.28-.49,.49-.96,.59-1.51,.14-.78-.44-1.47-.91-2.02-.56-.66-.83-1.26-.53-2.11,.15-.41,.06-.89-.02-1.3-.21-1.08-2.16-1.67-1.58-2.98,.03-.08-.05-.14-.12-.09h0Z"/><path class="s" d="M26.37,9.66c-1.03,1.29-.18,2.72,.8,3.67,1.32,1.27,.12,2.44-.4,3.7-.25,.6-.24,1.44,.35,1.79,.07,.04,.18-.03,.15-.11-.73-1.8,1.28-2.88,.83-4.72-.13-.54-.66-.96-1.04-1.31-.89-.83-.83-1.85-.55-2.94,.02-.08-.09-.15-.14-.08h0Z"/><path class="s" d="M27.46,11.91c.06,.49,.29,.81,.63,1.16,.78,.8,1.18,1.55,.56,2.59-.42,.72-1.15,1.52-.55,2.35,.05,.07,.16,.05,.16-.04,0-.76,.22-1.26,.64-1.88,.22-.33,.5-.76,.51-1.17,.04-1.51-1.15-1.87-1.84-3.03-.03-.05-.11-.03-.1,.03h0Z"/><path class="s" d="M29.2,12.46c.57,.79,1.07,1.39,.82,2.43-.17,.69-.67,1.23-.8,1.95-.12,.65,.06,1.47,.75,1.67,.08,.02,.15-.09,.08-.15-1.22-1.09,.14-2.5,.38-3.67,.21-.99-.45-1.7-1.14-2.29-.04-.04-.13,.01-.09,.07h0Z"/></g><path class="t" d="M23.78,7.52c.08,.02,.16,.03,.23,0,.06-.03,.1-.09,.14-.15,.38-.58,.58-1.12,.92-1.7,.06-.1,.01-.22-.1-.25-3.3-.94-7.94-.69-10.58-.09-.07,.02-.14,.04-.18,.1-.08,.11,0,.26,.08,.37,.28,.4,.56,.8,.84,1.19,.07,.1,.15,.2,.26,.24s6.75-.05,8.4,.28Z"/><path class="s" d="M15.69,6.6c.28,0,.51-.23,.51-.51s-.23-.51-.51-.51-.51,.23-.51,.51,.23,.51,.51,.51h0Z"/><path class="s" d="M17.32,6.48c.23,.16,.6,.11,.78-.11,.13-.16,.2-.34,.15-.55-.05-.2-.2-.33-.39-.39-.23-.07-.48,0-.64,.16-.27,.27-.18,.68,.11,.88h0Z"/><path class="s" d="M20.2,6.34v-.02c.19-.34,.04-.78-.35-.89-.36-.1-.79,.19-.76,.58v.03c.02,.27,.17,.5,.44,.58,.25,.07,.55-.04,.67-.27h0Z"/><path class="s" d="M21.75,6.65c.29,0,.54-.25,.54-.54s-.24-.54-.54-.54-.54,.25-.54,.54,.24,.54,.54,.54h0Z"/><path class="s" d="M23.67,6.78c.23,0,.42-.19,.42-.42s-.19-.42-.42-.42-.42,.19-.42,.42,.19,.42,.42,.42h0Z"/><path class="s" d="M17.24,3.11c-.01,.13-.09,.26-.05,.38,.03,.08,.14,.1,.18,.02,.08-.12,.04-.29,0-.43-.02-.09-.14-.06-.15,.02h0Z"/><path class="s" d="M18.75,3.88c-.05,.09-.04,.16-.05,.26,0,.15,.25,.15,.24,0,0-.1-.02-.18-.07-.26-.03-.04-.09-.04-.11,0h0Z"/><path class="s" d="M18.43,1.8c-.05,.16-.09,.33-.07,.5,.02,.11,.21,.11,.23,0,.03-.17-.01-.34-.07-.5-.02-.05-.08-.05-.09,0h0Z"/><path class="s" d="M19.83,2.66c-.02,.13-.07,.33,.05,.42,.03,.02,.06,0,.08-.02,.07-.1,0-.29-.02-.4,0-.06-.11-.06-.11,0h0Z"/><path class="s" d="M20.71,1.84c-.07,.12-.07,.23-.04,.36,.03,.16,.28,.12,.28-.04,0-.05-.01-.1-.03-.15-.02-.06-.07-.1-.09-.16-.02-.05-.08-.06-.11-.01h0Z"/><path class="s" d="M21.03,4.11c-.02,.1-.04,.2-.04,.29,0,.14,.23,.14,.22,0,0-.1-.04-.2-.06-.29-.01-.06-.11-.06-.13,0h0Z"/><path class="s" d="M21.85,3.06s-.02,.04-.03,.06c-.01,.04-.02,.09-.02,.13,0,.09,0,.19,.07,.26,.06,.06,.16,.05,.2-.03,.05-.09,.03-.18,0-.27-.02-.09-.07-.14-.14-.19-.04-.03-.08,0-.09,.04h0Z"/><path class="s" d="M22.62,4.31c.01,.13-.04,.3,.04,.41,.07,.11,.25,.04,.22-.09-.02-.07-.06-.11-.09-.17-.03-.05-.06-.12-.09-.17-.02-.04-.09-.02-.08,.02h0Z"/><path class="s" d="M16.39,4.3c-.02,.14-.11,.38,.02,.49,.02,.02,.06,.02,.08,0,.13-.11,.04-.35,.02-.49,0-.06-.1-.06-.11,0h0Z"/><path class="v" d="M15.71,6.24c.21,0,.21-.32,0-.32s-.21,.32,0,.32h0Z"/><path class="v" d="M17.67,6.09c.18,0,.18-.28,0-.28s-.18,.28,0,.28h0Z"/><path class="v" d="M19.71,6.25c.25,0,.25-.39,0-.39s-.25,.39,0,.39h0Z"/><path class="v" d="M21.77,6.3c.24,0,.24-.37,0-.37s-.24,.37,0,.37h0Z"/><path class="v" d="M23.65,6.54c.24,0,.24-.36,0-.36s-.23,.36,0,.36h0Z"/><path class="v" d="M15.38,20.96c-.53,1.25-.86,2.81-1.84,3.82-.57,.59,.33,1.49,.9,.9,1.04-1.09,1.46-3.24,1.26-4.68-.02-.14-.26-.17-.31-.04h0Z"/><path class="v" d="M19.76,21.03c-.37,1.49-.36,3.55,.31,4.96,.34,.71,1.36,.09,1.05-.61-.57-1.28-.81-2.91-.97-4.29-.02-.21-.33-.29-.39-.05h0Z"/><path class="v" d="M23.26,20.27c-.1,.97,.27,1.88,.7,2.73,.33,.65,1.07,2.05,1.92,1.96,.27-.03,.45-.19,.48-.48,.05-.69-.83-1.35-1.21-1.86-.57-.77-.99-1.63-1.44-2.47-.12-.23-.42-.1-.44,.12h0Z"/><path class="s" d="M13.7,14.19c.47,0,.98,.04,1.44-.1,.32-.1,.63-.44,.56-.79-.06-.32-.31-.56-.64-.6-.22-.03-.78,.18-.56,.49,.03,.04,.06,.05,.1,.04,.19-.03,.24-.23,.48-.2,.37,.06,.46,.41,.22,.68-.38,.42-1.14,.13-1.61,.42-.02,.01-.01,.05,.01,.05h0Z"/><path class="s" d="M17.42,20.65c-.25,.73-.4,1.44-.5,2.2-.09,.69-.29,1.43-.2,2.13,.07,.55,.96,.81,1.07,.15,.25-1.45,.05-2.95,.06-4.41,0-.26-.36-.29-.44-.06h0Z"/><path class="s" d="M14.25,20.64c-.49,1.26-1.84,2.19-2.8,3.08-.53,.49,.25,1.24,.78,.78,.92-.79,2.89-2.44,2.35-3.86-.06-.17-.27-.16-.33,0h0Z"/><path class="s" d="M21.18,20.21c-.2,1.11,.05,2.16,.34,3.23,.2,.73,.54,1.96,1.29,2.27,.64,.26,.95-.62,.6-1.04-.35-.43-.58-1.19-.82-1.69-.43-.89-.74-1.83-.98-2.78-.05-.21-.39-.22-.43,0h0Z"/><path class="s" d="M25.04,20.5c-.12,.91,.49,1.53,1.09,2.13,.53,.52,.97,1.31,1.78,1.37,.78,.06,.79-1.24,0-1.22-.29,0-.74-.58-.98-.75-.45-.34-1.41-.9-1.48-1.53-.03-.27-.38-.26-.41,0h0Z"/><path class="s" d="M19.95,22.62c.32,0,.32-.49,0-.49s-.32,.49,0,.49h0Z"/><path class="s" d="M20.03,23.73c.36,0,.36-.55,0-.55s-.35,.55,0,.55h0Z"/><path class="s" d="M20.36,24.66h0c.11-.12,.11-.31,0-.41h0c-.18-.19-.51-.06-.51,.2s.32,.39,.51,.21h0Z"/><path class="s" d="M20.35,25.28h-.01c-.08,.08-.08,.22,0,.29h.01c.14,.14,.37,.05,.37-.14s-.23-.28-.37-.15h0Z"/><path class="s" d="M23.69,21.29c.3,0,.3-.46,0-.46s-.3,.46,0,.46h0Z"/><path class="s" d="M24.01,22.19c.34,0,.34-.53,0-.53s-.34,.53,0,.53h0Z"/><path class="s" d="M24.54,23.17c.19,0,.35-.16,.35-.35s-.16-.35-.35-.35-.35,.16-.35,.35,.16,.35,.35,.35h0Z"/><path class="s" d="M25.19,23.96c.17,0,.32-.15,.32-.32s-.15-.32-.32-.32-.32,.15-.32,.32,.14,.32,.32,.32h0Z"/><path class="s" d="M25.75,24.47c.3,0,.3-.47,0-.47s-.3,.47,0,.47h0Z"/><path class="s" d="M15.37,22.28c.3,0,.3-.46,0-.46s-.3,.46,0,.46h0Z"/><path class="s" d="M15.18,23.26c.37,0,.37-.57,0-.57s-.37,.57,0,.57h0Z"/><path class="s" d="M14.84,24.19c.38,0,.38-.6,0-.6s-.39,.6,0,.6h0Z"/><path class="s" d="M14.42,24.94c.32,0,.32-.5,0-.5s-.32,.5,0,.5h0Z"/><path class="s" d="M13.92,25.59c.24,0,.24-.37,0-.37s-.24,.37,0,.37h0Z"/><path class="o" d="M26.91,33.75c.1,.11,.21,.2,.33,.29,.08,.06,.23,.18,.32,.09,.1-.1-.1-.18-.16-.21-.14-.07-.26-.16-.37-.27-.07-.07-.18,.04-.11,.11h0Z"/><path class="o" d="M29.46,35.63c.1,.11,.21,.2,.33,.29,.08,.06,.23,.18,.32,.09,.1-.1-.1-.18-.16-.21-.14-.07-.26-.16-.37-.27-.07-.07-.18,.04-.11,.11h0Z"/><path class="o" d="M18.5,33.73c.1,.11,.21,.2,.33,.29,.08,.06,.23,.18,.32,.09,.1-.1-.1-.18-.16-.21-.14-.07-.26-.16-.37-.27-.07-.07-.18,.04-.11,.11h0Z"/><path class="o" d="M33.54,33.96c.1,.11,.21,.2,.32,.29,.08,.05,.23,.18,.32,.09,.1-.1-.1-.18-.16-.21-.14-.07-.26-.16-.37-.27-.07-.07-.18,.04-.11,.11h0Z"/><path class="o" d="M24.24,33.79c-.08,.19-.1,.42-.07,.63,.02,.14,.25,.11,.25-.03,0-.2-.04-.41-.12-.59-.01-.03-.05-.03-.06,0h0Z"/><path class="o" d="M16.04,31.65c-.08,.19-.1,.42-.07,.63,.02,.15,.25,.11,.25-.03,0-.2-.04-.41-.12-.59-.01-.03-.05-.03-.06,0h0Z"/><path class="o" d="M7.96,27.19c-.08,.19-.1,.42-.07,.63,.02,.15,.25,.11,.25-.03,0-.2-.04-.41-.12-.59-.01-.03-.05-.03-.06,0h0Z"/><path class="o" d="M22.14,34.31c-.08,.19-.1,.42-.07,.63,.02,.14,.25,.11,.25-.04,0-.2-.04-.41-.12-.59-.01-.03-.05-.03-.06,0h0Z"/><path class="o" d="M23.6,28.98c.1-.03,.22-.04,.33-.04,.09,0,.23,0,.27-.11,0-.02,0-.04-.01-.06-.08-.07-.22-.02-.32-.01-.12,.02-.24,.03-.33,.13-.04,.04,0,.1,.05,.09h0Z"/><path class="o" d="M11.08,28.68c.1-.03,.23-.04,.33-.04,.09,0,.23,0,.27-.11,0-.02,0-.04-.01-.06-.08-.07-.22-.02-.32-.01-.12,.02-.24,.03-.33,.13-.04,.04,0,.11,.05,.09h0Z"/><path class="o" d="M16.83,27.43c.1-.03,.23-.03,.33-.04,.09,0,.23,0,.27-.11,0-.02,0-.04-.01-.06-.08-.07-.22-.02-.31-.01-.12,.02-.24,.03-.33,.13-.04,.04,0,.1,.05,.09h0Z"/><path class="o" d="M24.25,30.47c.11,.02,.21,.09,.31,.14,.08,.04,.2,.12,.29,.05,.02-.01,.02-.04,.02-.06-.03-.1-.18-.13-.26-.17-.12-.05-.22-.09-.35-.06-.05,.01-.06,.09,0,.1h0Z"/><path class="o" d="M31.95,37.05c.11,.02,.21,.09,.31,.14,.08,.04,.2,.12,.29,.05,.02-.01,.02-.04,.02-.05-.03-.1-.18-.13-.26-.17-.12-.05-.22-.09-.35-.06-.05,.01-.05,.09,0,.1h0Z"/><path class="o" d="M9.1,23.51c.1-.04,.22-.05,.33-.06,.09-.01,.23-.02,.27-.12,0-.02,0-.04-.02-.06-.08-.07-.22-.01-.31,0-.12,.02-.24,.04-.32,.14-.03,.04,0,.1,.06,.09h0Z"/><path class="o" d="M31.76,35.43c.11,.02,.21,.09,.31,.14,.08,.04,.2,.12,.29,.05,.01-.01,.02-.04,.02-.06-.03-.1-.18-.13-.26-.17-.12-.05-.22-.09-.35-.06-.05,.01-.05,.09,0,.1h0Z"/><path class="o" d="M30,34.2c.11,.02,.21,.09,.31,.14,.08,.04,.2,.12,.29,.05,.02-.01,.02-.04,.02-.06-.03-.1-.18-.13-.27-.17-.11-.05-.22-.09-.35-.06-.05,.01-.05,.09,0,.1h0Z"/><path class="o" d="M24.94,32.6c.05,.1,.17,.11,.27,.09,.07-.01,.15-.05,.22-.07,.08-.02,.16-.03,.23-.08,.06-.04,.08-.14,0-.18-.13-.06-.25,0-.37,.05-.12,.05-.23,.09-.34,.15-.01,0-.02,.02,0,.04h0Z"/><path class="o" d="M10.14,26.99c.05,.1,.17,.11,.27,.09,.07-.01,.15-.04,.22-.07,.08-.02,.16-.03,.23-.08,.06-.04,.08-.14,0-.18-.13-.06-.25,0-.37,.05-.12,.05-.23,.09-.34,.15-.01,0-.02,.02,0,.04h0Z"/><path class="o" d="M14.52,28.78c.05,.1,.17,.11,.27,.09,.07-.01,.15-.04,.22-.07,.08-.02,.16-.03,.23-.08,.06-.04,.08-.14,0-.18-.13-.06-.25,0-.37,.05-.12,.05-.23,.09-.34,.15-.01,0-.02,.02,0,.04h0Z"/><path class="o" d="M21.11,28.3c.05,.1,.17,.11,.27,.09,.07-.01,.15-.04,.22-.07,.08-.02,.16-.03,.23-.08,.06-.04,.08-.14,0-.18-.13-.06-.25,0-.37,.05-.12,.05-.23,.09-.34,.15-.01,0-.02,.02,0,.04h0Z"/><path class="o" d="M7.92,25.63c.05,.1,.17,.11,.27,.09,.07-.01,.15-.05,.22-.07,.08-.02,.16-.03,.23-.08,.06-.04,.08-.14,0-.18-.13-.06-.25,0-.37,.05-.12,.05-.23,.09-.34,.15-.01,0-.02,.02,0,.04h0Z"/><g><path class="s" d="M25.69,24.59c.08,.07,.16,.13,.23,.2,.06,.06,.12,.13,.22,.11,.04,0,.06-.04,.06-.08,0-.09-.09-.13-.16-.18-.08-.06-.16-.12-.25-.18-.08-.06-.18,.06-.1,.13h0Z"/><path class="s" d="M28.4,25.42c.04-.1,.09-.2,.15-.29,.05-.09,.09-.17,.04-.27-.01-.03-.05-.05-.08-.03-.1,.05-.12,.12-.15,.22-.04,.11-.08,.22-.1,.33-.01,.08,.11,.11,.13,.04h0Z"/><path class="s" d="M27.6,27.2c.12-.04,.24-.07,.36-.11,.11-.03,.25-.08,.33-.15,.1-.08,.06-.23-.06-.25-.28-.04-.48,.25-.7,.37-.08,.05,0,.17,.08,.14h0Z"/><path class="s" d="M35.17,28.73c.05-.13,.1-.26,.16-.39,.05-.11,.11-.22,.07-.34-.01-.04-.06-.05-.1-.04-.12,.03-.18,.17-.21,.28-.05,.13-.08,.27-.12,.41-.04,.14,.15,.23,.21,.09h0Z"/><path class="v" d="M26.92,23.53c-.8,.87-1.75,1.68-2.07,2.82-.19,.69-.08,1.43,.1,2.12,.2,.8,.49,1.59,.95,2.28,.46,.69,1.45,1.62,2.22,1.92,1.17,.46,2.37,.76,3.62,.62,1.45-.16,2.72-1.34,3.36-2.65,.64-1.31,1.06-3.23,.6-4.61-.05-.16-.11-.31-.17-.46-.6-1.59-2.1-2.96-3.7-3.5-1.14-.39-2.78-.84-4.89,1.46Z"/><path class="l" d="M24.66,26.58c-.01,.76,.09,1.43,.47,1.95,.8,1.09,2.35,2.21,3.46,2.99,.09,.06,.19,.13,.3,.14,.11,.02,.24-.04,.28-.14,0-.01,0-.03,0-.04,.03-.24-.06-.47-.2-.66-.9-1.24-1.28-1.26-2.46-2.93-.33-.47,.38-.74,.63-.5,.81,.77,1.23,1.22,2.04,1.99,.38,.36,.95,.77,1.42,.97,.19,.08,.45-.26,.38-.46-.22-.61-.72-1.19-1.25-1.61-.52-.42-1.53-1.08-1.83-1.63-.25-.46,.18-.86,.23-.82,1.39,.96,2.44,1.85,3.58,2.34,.29,.12,.93-.43-.16-1.29-1.26-1-1.85-1.18-2.8-2.09-.26-.25,.18-.76,.52-.66,.11,.03,1.56,1.22,3.07,1.8,.23,.09,.76,.17,.81-.05,.11-.49-.62-1.11-1.21-1.49-.64-.41-1.64-1.15-2.32-1.49-.51-.25-1.5-.48-2.99,.38-.61,.35-1.07,.84-1.42,1.45-.35,.61-.57,1.14-.58,1.84Z"/><path class="s" d="M34.29,26.87c.15-.19,.11-.47-.07-.62-.19-.15-.47-.11-.62,.07-.15,.19-.11,.47,.07,.62,.19,.15,.47,.11,.62-.07h0Z"/><path class="s" d="M34.39,27.54l.02,.02c.1,.11,.3,.09,.41,0,.13-.1,.2-.34,.07-.48l-.02-.02c-.13-.13-.31-.19-.48-.07-.07,.05-.12,.14-.13,.23-.02,.13,.04,.23,.13,.31h0Z"/><path class="s" d="M35.33,28.12c.16-.2-.15-.44-.31-.24-.16,.2,.15,.44,.31,.24h0Z"/><path class="s" d="M33.11,28.82c.14-.18,.11-.45-.07-.59-.18-.14-.45-.11-.59,.07-.14,.18-.11,.45,.07,.59,.18,.14,.45,.11,.59-.07h0Z"/><path class="s" d="M33.89,29.4c.27-.34-.26-.76-.53-.42-.27,.34,.26,.76,.53,.42h0Z"/><path class="s" d="M34.5,29.69c.12-.16-.12-.35-.24-.19-.12,.15,.12,.35,.24,.19h0Z"/><path class="s" d="M31.52,30.19h-.02c-.13,.08-.23,.18-.26,.34-.02,.14,.04,.29,.15,.38,.11,.09,.27,.11,.4,.06,.15-.06,.22-.18,.26-.32v-.03c.07-.28-.28-.56-.53-.42h0Z"/><path class="s" d="M32.7,31.15c.09-.12,.07-.29-.05-.39-.12-.09-.29-.07-.38,.05-.09,.12-.07,.29,.05,.39,.12,.09,.29,.07,.38-.05h0Z"/><path class="s" d="M30.3,32.33c.12-.15,.09-.38-.06-.5-.15-.12-.38-.09-.5,.06-.12,.15-.09,.38,.06,.5,.15,.12,.38,.09,.5-.06h0Z"/><path class="s" d="M31.1,32.53c.19-.24-.18-.52-.37-.29-.19,.24,.18,.52,.37,.29h0Z"/><path class="s" d="M31.91,32.6c.15-.19-.15-.42-.29-.23-.15,.19,.14,.42,.29,.23h0Z"/><path class="s" d="M27.11,25.93c.26-.13,.43-.22,.55-.5,.13-.28,.07-.62-.04-.89-.27-.67-.97-.97-1.64-.79-.66,.18-1.08,1-1.09,1.64,0,.82,.53,1.38,1.36,1.33,1.19-.06,2.11-2.24,.86-2.85-.78-.38-1.5,.23-1.69,.98-.09,.36-.05,.72,.15,1.03,.2,.32,.68,.56,1.01,.27,.31-.27,.41-.69,.44-1.09,.05-.72-1.06-.88-1.11-.15,0,.03,0,.06-.01,.09,.04-.09,.08-.18,.11-.27-.09,.14-.12,.25-.12,.41,0,.65,1.01,.62,1.11,.01,0-.03,0-.06,.01-.09-.37-.05-.74-.1-1.11-.15,0,.12-.03,.25-.06,.37,.02-.09-.03,.07-.03,.07,.11-.27,.78,.19,.65-.13-.01-.03,.07-.22,.1-.28,0-.01,.08-.08,.04-.05-.04,.02,.09,.03,.01,0-.03-.01-.06-.1-.05-.01,0,.05-.02,.17-.04,.24-.05,.15-.09,.22-.17,.32-.07,.09-.05,.07-.1,.11-.03,.02-.06,.05-.09,.07,.05-.03,.04-.02-.01,0,.1-.04-.01,0-.06,0-.12,0-.01,.03-.09-.03,.08,.06-.02-.07-.02-.11,0-.25,.11-.57,.33-.67,.08-.04,.14-.01,.18,0,.06,.02,.21,.13,.27,.2,.15,.16,.2,.45,.08,.57-.15,.16,.06,.44,.26,.35h0Z"/><path class="t" d="M26.5,25.38c.25-.31-.24-.69-.48-.38-.25,.31,.24,.69,.48,.38h0Z"/><path class="t" d="M27.29,25.19c.17-.21-.16-.46-.32-.26-.16,.21,.16,.46,.32,.26h0Z"/><path class="t" d="M26.85,24.54c.15-.19-.14-.42-.29-.23-.15,.19,.14,.42,.29,.23h0Z"/><path class="t" d="M25.68,24.29h-.01c-.1,.1-.08,.23,.03,.29h.02c.12,.08,.26-.05,.24-.17-.01-.12-.18-.22-.28-.12h0Z"/><path class="t" d="M25.48,25.38c.14-.18-.13-.39-.28-.22-.14,.18,.14,.4,.28,.22h0Z"/><path class="t" d="M25.8,26.13c.13-.17-.13-.38-.26-.21-.13,.17,.13,.38,.26,.21h0Z"/><path class="t" d="M26.71,26.16c.14-.17-.13-.38-.27-.21-.14,.17,.13,.39,.27,.21h0Z"/></g><path class="s" d="M21.43,61.67c-.13,.04-.27-.04-.36-.15-.18-.23-.17-.55-.16-.84,0-.03,0-.07,.03-.09,.02-.02,.04-.02,.07-.02,.17-.01,.34,0,.51,.03,.08,.2,.12,.41,.13,.62,0,.18-.05,.4-.22,.45Z"/><path class="t" d="M28.37,40.33c.57-.46,1.22-.81,1.78-1.28,.37-.32,.71-.72,.9-1.17,.11-.25-.14-.52-.4-.42-.36,.13-.73,.18-1.04-.01-.4-.24-.51-.76-.73-1.18-.45-.84-1.52-1.3-2.44-1.04-1,.28-1.76,1.29-2.8,1.32-1.24,.04-2.2-1.33-3.44-1.26-1.07,.06-1.83,1.17-2.89,1.29-1.18,.14-2.34-1-3.45-.58-.16,.06-.3,.16-.42,.28-1.38,1.29-.94,2.01-2.78,1.55-.04,0-.08,0-.11,.01-.78,.46,1.89,2.53,3.1,3.56,1.12,.96,2.03,2.25,2.22,3.72,.11,.84,0,1.79,.54,2.44,.07,.08,.14,.16,.23,.21,.49,.3,1.09-.1,1.56-.43,1.6-1.11,3.56-1.56,5.48-1.88,.85-.14,1.71-.27,2.52-.58,.15-.06,.28-.18,.33-.33,.08-.25-.13-.32-.2-.48-.04-.09-.02-.19,0-.29,.25-1.35,1-2.6,2.07-3.47Z"/><path class="j" d="M23.66,56.31c.77-.5,1.93-1.16,2.25-2.01,.32-.86,.53-1.76,.95-2.57,.4-.76,.97-1.41,1.5-2.08,.28-.35,.55-.83,.31-1.2-.21-.31-.66-.32-1.02-.26-.37,.07-.77,.18-1.1,0,.08-1,.12-1.93,.21-2.93,.03-.42,.07-.85-.08-1.24-.31-.86-1.33-1.24-2.24-1.3-1.95-.12-3.86,.73-5.4,1.95-.37,.29-.73,.61-1.03,.97-.54,.64-.89,1.4-1.25,2.16-.17,.37-.35,.74-.44,1.14-.1,.45-.09,.93-.05,1.39,.08,1.12,.29,2.25,.75,3.27,.47,1.02,1.21,1.94,2.19,2.49,.55,.31,1.17,.49,1.8,.59,1.09,.17,1.72,.22,2.65-.38Z"/><path class="v" d="M21.62,61.18c-.46,.05-.92,0-1.36-.14-.95-.28-1.81-.9-2.33-1.75-.53-.84-.73-1.89-.51-2.86,2.42,.51,4.96,.5,7.38-.04,.12,1.06-.05,2.17-.6,3.08-.55,.91-1.51,1.6-2.56,1.71Z"/><path class="s" d="M19.19,52.13s.13-.03,.23-.02c1.24,.08,2.93,.35,4.08,.07,.14-.04,.31-.03,.41-.08,.08-.04,.05-.18,.12-.14,.16,.08,.31,1.35,.29,1.98,0,.06-.04,.11-.09,.13-.46,.14-1.14,.11-1.6,.08-.58-.04-1.4-.21-1.81-.42-.45-.24-1.17-.62-1.64-1.59Z"/><path class="h" d="M24.08,52s0,.03,0,.04c-.26,.38-.61,.74-1.49,.97-1.22,.32-2.54,.05-3.4-.88,1.28-.67,2.18-.74,4.26-.42,.21,.03,.57,.09,.64,.28Z"/><path class="i" d="M20.97,46.92c-.07,.04,.14,.36-.34,.45-.22,.04-.34-.03-.38-.25-.05-.28,.21-.75,.58-.98,.37-.23,.69-.36,1.12-.34,1.19,.06,2.36,.53,3.27,1.3,.32,.27,.97,.81,1.13,.75,.16-.05,.47-.46,1.07-1.24,.36-.48,.96-1.06,1.55-1.04,.29,0,.52,.17,.65,.43,.12,.27,.08,.57-.16,.74-.34,.24-.49-.01-.62-.07-.08-.03-.03,.23,.01,.3,.33,.51,.94,.36,1.29,.12,.35-.24,.5-.64,.58-1.05,.07-.33,.02-.72-.1-1.03-.25-.68-1.08-.81-1.8-.84-.91-.04-1.74,.46-2.03,1.12-.54,1.22-.44,1.38-.58,1.36-.09-.01-.23-.94-.43-1.28-1-1.7-3.29-1.56-4.31-1.3-1.02,.26-1.74,.87-2.11,1.86-.36,.95-.06,1.46,.34,1.94,.25,.3,.66,.42,1.04,.37,.28-.04,.52-.3,.55-.58,.07-.5-.24-.79-.33-.74Z"/><path class="k" d="M15.68,54.13c-.33-.45-.97-1.6-1.29-2.05-.62-.88-.88-1.88-1.84-2.36-.47-.23-1.07-.37-1.58-.47-.51-.11-.85-.35-1.09-.81-.28-.54-.38-1.07-.05-1.97,.13-.35,.74-1.09,2.43-1.26,.46-.05,1.16-.11,2.01-.06,1.07,.07,.99,.09,2.06,.09,.74,0,.74,.03,1.02,.7,.19,.45,.49,2.12,.7,2.88,.08,.27,1.02,4.25,1.18,4.84,.13,.46,.25,.92,.38,1.38,.07,.25,.13,.53,.02,.77-.17,.36-.64,.42-1.03,.44-.27,.02-.54,.03-.81,.04-.11,0-.22,.01-.33-.02-.13-.04-.06-.34-.15-.44-.74-.76-1.01-.85-1.63-1.7Z"/><path class="s" d="M21.88,51.74c-.74-.04-.75,.52-.75,.7,0,.27,.25,.5,.52,.53,.31,.03,.62-.21,.67-.51,.05-.3-.14-.7-.45-.72Z"/><g class="r"><path class="s" d="M25.82,48.25c.51,.25,.88-.28,1.06-.7,.11-.26,.22-.53,.17-.82-.16-.83-.39-1.34-.03-2.17,.02-.04-.03-.08-.06-.05-.42,.41-.53,.84-.45,1.41,.05,.39,.28,.71,.27,1.12-.02,.57-.31,1.12-.95,1.16-.02,0-.04,.04-.01,.05h0Z"/><path class="s" d="M25.98,47.91c-.5-.96,.14-1.38,.15-2.29,0-.61-.26-1.29-.72-1.7-.03-.03-.09,0-.08,.05,.11,.38,.27,.75,.38,1.12,.18,.56-.17,1.15-.31,1.67-.13,.52,.09,.9,.48,1.2,.04,.03,.11,0,.08-.06h0Z"/><path class="s" d="M27.37,47.26c.5-.23,.46-.86,.4-1.32-.08-.55-.18-1.09,.22-1.55,.29-.33,.73-.27,1.09-.45,.1-.05,.05-.17-.03-.21-.63-.26-1.29,.32-1.53,.85-.15,.33-.12,.7-.08,1.04,.08,.6,.13,.97-.17,1.52-.04,.07,.04,.14,.11,.11h0Z"/><path class="s" d="M28.1,46.62c.41-.21,.49-.62,.54-1.06,.05-.41,.11-.75,.32-1.11,.23-.39,.64-.58,.98-.85,.05-.04,0-.1-.05-.09-.57,.12-1.02,.63-1.28,1.12-.31,.59-.09,1.38-.59,1.89-.05,.05,.01,.13,.07,.1h0Z"/><path class="s" d="M28.73,46.36c.54,.06,.67-.74,.84-1.09,.34-.68,1.11-.79,1.76-.93,.06-.01,.07-.08,.03-.12-.35-.38-1.14,.08-1.48,.29-.25,.15-.43,.36-.58,.61-.18,.31-.22,1-.59,1.13-.07,.02-.05,.11,.02,.12h0Z"/><path class="s" d="M29.29,46.61c.31-.53,.89-.59,1.35-.93,.31-.23,.7-.66,.71-1.07,0-.05-.07-.08-.11-.04-.19,.2-.29,.47-.47,.68-.21,.24-.47,.39-.76,.51-.37,.16-.78,.38-.79,.83,0,.04,.06,.05,.08,.02h0Z"/><path class="s" d="M28.69,46.79c.4,.36,.92,.52,1.45,.29,.71-.32,.96-1.02,1.61-1.42,.06-.04,.04-.14-.04-.14-.39,0-.63,.26-.85,.55-.59,.78-1.19,.95-2.15,.69-.02,0-.03,.02-.02,.03h0Z"/><path class="s" d="M25.18,47.47c-.15-.09-.23-.65-.28-.82-.18-.57-.04-1.07,.11-1.62,.13-.49-.13-.85-.44-1.19-.06-.06-.14,0-.13,.07,.09,.47,.34,.73,.19,1.26-.1,.36-.19,.7-.13,1.07,.06,.38,.15,1.25,.63,1.36,.09,.02,.14-.1,.06-.15h0Z"/><path class="s" d="M24.08,46.74c-.55-.58-.1-1.58-.28-2.3-.13-.52-.6-1.08-1.14-1.19-.07-.01-.13,.05-.09,.12,.17,.3,.45,.51,.65,.79,.26,.35,.29,.79,.28,1.2,0,.56,.06,1.07,.55,1.41,.02,.01,.04-.02,.03-.03h0Z"/><path class="s" d="M23.07,46.47c-.31-.64-.03-1.36-.31-2.02-.18-.42-.61-.94-1.05-1.07-.04-.01-.09,.03-.07,.07,.21,.55,.78,.85,.96,1.45,.19,.6-.03,1.09,.41,1.62,.03,.04,.09-.01,.07-.05h0Z"/><path class="s" d="M22.32,46.45c-.57-.04-.45-1.17-.56-1.58-.15-.51-.55-1.14-1.12-1.2-.06,0-.1,.07-.07,.12,.22,.34,.58,.55,.81,.9,.19,.29,.23,.6,.29,.93,.06,.36,.21,.91,.66,.91,.05,0,.05-.07,0-.08h0Z"/><path class="s" d="M21.35,46.56c-.39-.17-.5-.98-.7-1.34-.24-.43-.61-.9-1.14-.89-.08,0-.1,.09-.06,.14,.18,.22,.41,.38,.61,.59,.21,.23,.36,.51,.5,.79,.15,.31,.37,.78,.77,.8,.04,0,.06-.06,.02-.08h0Z"/><path class="s" d="M20.86,48.39c.26-.58,.11-1.03-.26-1.54-.23-.31-.57-.54-.83-.82-.4-.44-.34-.94-.5-1.46-.02-.07-.13-.09-.16-.02-.25,.51-.03,1.07,.27,1.52,.55,.83,1.53,1.13,1.46,2.31,0,0,.01,.02,.02,0h0Z"/><path class="s" d="M20.27,48.57c.06-.57-.15-.93-.54-1.34-.31-.33-.68-.47-.87-.93-.11-.26-.12-.48-.32-.67-.05-.05-.16-.02-.15,.06,.01,.44,.18,.87,.46,1.21,.48,.58,1.21,.84,1.37,1.67,0,.04,.06,.02,.06,0h0Z"/></g><g class="u"><path class="s" d="M19.34,55.77c-1.06-.81-.53-1.44-.53-2.37,0-.2-.15-.54-.33-.63-1.52-.82-.3-2.15-.57-3.38-.08-.35-.53-.79-.72-1.07-.64-.91-.41-1.66-.19-2.63,.17-.74-.22-1.45-.82-1.85-.07-.05-.18,.03-.15,.12,.25,.69,.66,1.12,.48,1.93-.1,.43-.34,.84-.25,1.3,.12,.61,.38,1.1,.75,1.61,.42,.57,.69,.62,.53,1.57-.06,.33-.22,.64-.25,.97-.1,1.25,1.36,1.76,1.09,2.93-.16,.73,.15,1.51,.93,1.61,.05,0,.05-.06,.02-.09h0Z"/><path class="s" d="M18.07,55.86c-.44-.09,.12-1.81-.32-2.25-.59-.59-1.33-1.06-1.03-2.09,.13-.43,.33-.91,.21-1.38-.35-1.4-1.68-1.84-1.25-3.55,.21-.82,.55-1.73-.23-2.33-.06-.05-.14,.04-.1,.1,.68,1.26-.47,2.56,.02,3.9,.13,.35,.42,.66,.66,.94,.71,.83,.56,1.56,.29,2.55-.23,.84,.23,1.31,.87,1.75,1.05,.72-.09,1.96,.69,2.53,.03,.02,.08,.02,.11,0,.04-.02,.07-.04,.1-.06,.04-.02,.04-.1-.01-.11h0Z"/><path class="s" d="M16.92,56.08c.59-.47,.09-1.32-.24-1.81-.34-.51-.83-.74-1.04-1.38-.26-.79,.3-1.45,.2-2.22-.17-1.47-2.05-1.8-1.47-3.57,.42-1.27,1.09-2.1,.36-3.43-.03-.06-.13-.03-.12,.03,.06,.86,.21,1.55-.25,2.38-.28,.49-.49,.96-.59,1.51-.14,.78,.44,1.47,.91,2.02,.56,.66,.83,1.26,.53,2.1-.15,.41-.06,.89,.02,1.3,.21,1.08,2.16,1.67,1.58,2.98-.04,.08,.05,.14,.12,.09h0Z"/><path class="s" d="M14.17,52.79c1.03-1.29,.18-2.72-.8-3.67-1.31-1.27-.12-2.44,.4-3.7,.24-.6,.24-1.44-.35-1.79-.07-.04-.18,.03-.15,.11,.73,1.8-1.28,2.88-.83,4.71,.13,.54,.66,.96,1.04,1.31,.89,.83,.83,1.85,.55,2.94-.02,.08,.09,.15,.14,.08h0Z"/><path class="s" d="M13.08,50.54c-.06-.49-.29-.81-.63-1.16-.78-.8-1.18-1.55-.56-2.6,.42-.72,1.15-1.52,.55-2.35-.05-.06-.16-.05-.16,.04,0,.76-.22,1.26-.64,1.88-.22,.33-.5,.75-.51,1.17-.04,1.51,1.15,1.87,1.84,3.03,.03,.04,.11,.03,.1-.03h0Z"/><path class="s" d="M11.33,50c-.57-.79-1.07-1.39-.82-2.43,.17-.69,.67-1.23,.8-1.95,.12-.65-.06-1.47-.75-1.67-.08-.02-.15,.09-.08,.15,1.22,1.1-.13,2.5-.38,3.67-.21,1,.45,1.7,1.14,2.29,.05,.04,.13-.01,.09-.07h0Z"/></g><path class="t" d="M16.76,54.93c-.08-.01-.16-.03-.23,0-.06,.03-.1,.09-.14,.15-.38,.58-.58,1.12-.92,1.7-.06,.1-.01,.22,.1,.25,3.3,.94,7.94,.69,10.58,.09,.07-.02,.14-.04,.18-.1,.08-.11,0-.26-.08-.37-.28-.4-.56-.8-.84-1.2-.07-.1-.15-.2-.26-.24s-6.75,.05-8.4-.28Z"/><path class="s" d="M24.84,55.86c-.28,0-.51,.23-.51,.51s.23,.51,.51,.51,.51-.23,.51-.51-.23-.51-.51-.51h0Z"/><path class="s" d="M23.21,55.98c-.23-.16-.6-.11-.78,.11-.13,.16-.2,.33-.14,.54,.05,.2,.2,.33,.39,.39,.23,.07,.48,0,.64-.17,.27-.27,.18-.67-.11-.88h0Z"/><path class="s" d="M20.33,56.12s0,.02-.01,.02c-.18,.34-.03,.78,.36,.89,.36,.1,.79-.19,.76-.58v-.03c-.02-.27-.17-.5-.44-.58-.25-.07-.55,.04-.67,.27h0Z"/><path class="s" d="M18.79,55.81c-.29,0-.54,.25-.54,.54s.24,.54,.54,.54,.54-.25,.54-.54-.25-.54-.54-.54h0Z"/><path class="s" d="M16.87,55.68c-.23,0-.42,.19-.42,.42s.19,.42,.42,.42,.42-.19,.42-.42-.19-.42-.42-.42h0Z"/><path class="s" d="M23.29,59.34c.01-.13,.09-.26,.05-.38-.03-.08-.14-.1-.18-.03-.08,.12-.04,.3,0,.43,.02,.09,.14,.06,.14-.02h0Z"/><path class="s" d="M21.79,58.57c.05-.09,.04-.16,.05-.26,0-.15-.25-.15-.23,0,0,.1,.02,.17,.07,.26,.03,.04,.09,.04,.11,0h0Z"/><path class="s" d="M22.11,60.66c.06-.16,.09-.33,.07-.5-.02-.11-.21-.11-.23,0-.02,.18,.01,.34,.07,.5,.02,.05,.08,.05,.09,0h0Z"/><path class="s" d="M20.71,59.79c.02-.13,.07-.33-.05-.42-.03-.02-.06,0-.08,.02-.07,.1,0,.29,.02,.4,0,.06,.1,.06,.11,0h0Z"/><path class="s" d="M19.82,60.61c.07-.12,.07-.23,.04-.36-.03-.16-.29-.12-.28,.04,0,.05,.01,.1,.03,.15,.02,.06,.07,.1,.09,.16,.02,.05,.08,.07,.11,.02h0Z"/><path class="s" d="M19.5,58.35c.02-.09,.04-.2,.04-.29,0-.14-.23-.14-.22,0,0,.1,.04,.2,.06,.29,.01,.06,.12,.06,.13,0h0Z"/><path class="s" d="M18.69,59.4s.02-.04,.03-.06c.01-.04,.02-.09,.02-.13,0-.09,0-.19-.07-.26-.06-.06-.16-.05-.2,.03-.05,.09-.03,.18,0,.27,.02,.09,.07,.14,.14,.2,.04,.03,.09,0,.09-.04h0Z"/><path class="s" d="M17.92,58.15c-.01-.13,.04-.3-.04-.41-.07-.11-.25-.05-.22,.09,.02,.06,.06,.11,.09,.17,.03,.06,.06,.12,.09,.17,.02,.04,.08,.02,.08-.02h0Z"/><path class="s" d="M24.15,58.16c.02-.14,.11-.38-.02-.49-.02-.02-.05-.02-.08,0-.13,.12-.04,.35-.02,.49,0,.06,.1,.06,.11,0h0Z"/><path class="v" d="M24.83,56.22c-.21,0-.21,.32,0,.32s.21-.32,0-.32h0Z"/><path class="v" d="M22.87,56.37c-.18,0-.18,.28,0,.28s.18-.28,0-.28h0Z"/><path class="v" d="M20.82,56.21c-.25,0-.25,.39,0,.39s.25-.39,0-.39h0Z"/><path class="v" d="M18.77,56.16c-.24,0-.24,.37,0,.37s.24-.37,0-.37h0Z"/><path class="v" d="M16.88,55.92c-.23,0-.23,.36,0,.36s.23-.36,0-.36h0Z"/><path class="v" d="M20.78,41.43c.37-1.49,.36-3.55-.31-4.96-.34-.71-1.36-.09-1.05,.61,.57,1.28,.81,2.91,.97,4.29,.02,.21,.33,.29,.39,.05h0Z"/><path class="v" d="M17.28,42.18c.1-.97-.27-1.88-.7-2.73-.33-.65-1.07-2.05-1.93-1.96-.27,.03-.45,.2-.47,.47-.05,.69,.83,1.35,1.21,1.86,.57,.77,.99,1.63,1.44,2.47,.12,.23,.42,.1,.44-.12h0Z"/><path class="s" d="M23.12,41.8c.25-.72,.4-1.44,.5-2.2,.1-.69,.29-1.42,.2-2.13-.07-.55-.96-.81-1.08-.15-.25,1.45-.05,2.95-.06,4.41,0,.26,.36,.29,.44,.06h0Z"/><path class="s" d="M19.35,42.25c.2-1.11-.05-2.16-.34-3.24-.2-.73-.54-1.96-1.29-2.27-.64-.26-.95,.62-.6,1.04,.35,.43,.58,1.19,.82,1.69,.43,.89,.74,1.83,.98,2.78,.05,.2,.39,.22,.43,0h0Z"/><path class="s" d="M15.5,41.96c.12-.91-.49-1.54-1.09-2.13-.53-.52-.97-1.31-1.78-1.37-.78-.06-.79,1.24,0,1.22,.29,0,.74,.58,.98,.75,.45,.34,1.41,.9,1.48,1.54,.03,.27,.38,.26,.41,0h0Z"/><path class="s" d="M20.58,39.84c-.32,0-.32,.49,0,.49s.32-.49,0-.49h0Z"/><path class="s" d="M20.51,38.73c-.36,0-.36,.55,0,.55s.36-.55,0-.55h0Z"/><path class="s" d="M20.18,37.79h0c-.11,.11-.11,.3,0,.41h0c.18,.19,.51,.06,.51-.2s-.32-.39-.51-.21h0Z"/><path class="s" d="M20.19,37.18h.01c.08-.08,.08-.22,0-.29h-.01c-.14-.14-.37-.05-.37,.14s.23,.28,.37,.15h0Z"/><path class="s" d="M16.84,41.17c-.3,0-.3,.46,0,.46s.3-.46,0-.46h0Z"/><path class="s" d="M16.52,40.27c-.34,0-.34,.53,0,.53s.34-.53,0-.53h0Z"/><path class="s" d="M16,39.28c-.19,0-.35,.16-.35,.35s.16,.35,.35,.35,.35-.16,.35-.35-.16-.35-.35-.35h0Z"/><path class="s" d="M15.34,38.5c-.17,0-.32,.14-.32,.32s.14,.32,.32,.32,.32-.14,.32-.32-.15-.32-.32-.32h0Z"/><path class="s" d="M14.78,37.99c-.3,0-.3,.47,0,.47s.3-.47,0-.47h0Z"/><g><path class="s" d="M14.85,37.87c-.08-.07-.16-.13-.23-.2-.06-.05-.12-.13-.22-.11-.04,0-.06,.04-.06,.08,0,.09,.09,.13,.16,.18,.08,.06,.16,.12,.25,.18,.08,.06,.18-.06,.1-.13h0Z"/><path class="s" d="M12.14,37.04c-.04,.1-.09,.2-.15,.29-.05,.09-.09,.17-.04,.26,.01,.03,.05,.05,.08,.03,.1-.05,.12-.12,.15-.22,.04-.11,.08-.22,.1-.33,.01-.08-.11-.11-.13-.04h0Z"/><path class="s" d="M12.93,35.26c-.12,.04-.24,.07-.35,.11-.11,.03-.25,.08-.33,.15-.1,.08-.06,.23,.06,.25,.28,.04,.48-.25,.7-.37,.08-.05,0-.17-.08-.14h0Z"/><path class="s" d="M5.36,33.73c-.05,.13-.1,.26-.16,.39-.05,.11-.11,.22-.07,.34,.01,.04,.06,.05,.1,.04,.12-.03,.18-.17,.21-.28,.05-.13,.08-.27,.12-.41,.04-.14-.15-.23-.21-.09h0Z"/><path class="v" d="M13.62,38.93c.79-.87,1.75-1.69,2.07-2.82,.19-.69,.08-1.43-.1-2.12-.2-.8-.49-1.59-.95-2.28-.46-.69-1.45-1.62-2.22-1.92-1.17-.46-2.37-.76-3.62-.62-1.45,.16-2.72,1.34-3.36,2.65-.64,1.31-1.06,3.23-.6,4.61,.05,.16,.11,.31,.17,.46,.6,1.59,2.1,2.95,3.7,3.5,1.14,.39,2.78,.84,4.89-1.46Z"/><path class="l" d="M15.88,35.88c0-.76-.09-1.43-.47-1.95-.8-1.1-2.35-2.21-3.46-2.99-.09-.06-.19-.13-.3-.14-.11-.02-.24,.04-.28,.14,0,.01,0,.03,0,.04-.03,.24,.06,.47,.2,.66,.9,1.24,1.28,1.26,2.46,2.93,.33,.46-.38,.74-.63,.5-.81-.77-1.23-1.22-2.04-1.99-.38-.36-.95-.77-1.42-.97-.19-.08-.45,.26-.38,.46,.22,.61,.72,1.19,1.25,1.61,.52,.42,1.53,1.08,1.83,1.63,.25,.46-.18,.85-.23,.82-1.39-.96-2.44-1.85-3.58-2.34-.29-.12-.93,.43,.16,1.29,1.26,1,1.86,1.18,2.8,2.09,.26,.25-.18,.76-.52,.66-.11-.03-1.56-1.22-3.07-1.8-.23-.09-.76-.17-.81,.05-.11,.49,.62,1.11,1.21,1.49,.64,.42,1.64,1.15,2.32,1.49,.51,.25,1.5,.48,2.99-.38,.61-.35,1.07-.84,1.42-1.45,.35-.61,.57-1.14,.58-1.84Z"/><path class="s" d="M6.25,35.59c-.15,.19-.12,.47,.07,.62,.19,.15,.47,.11,.62-.07,.15-.19,.12-.47-.07-.62-.19-.15-.47-.11-.62,.07h0Z"/><path class="s" d="M6.15,34.92l-.02-.02c-.1-.11-.3-.09-.41,0-.13,.1-.2,.34-.07,.47l.02,.02c.13,.13,.31,.19,.47,.07,.07-.05,.12-.14,.14-.23,.02-.13-.04-.23-.13-.31h0Z"/><path class="s" d="M5.2,34.34c-.16,.2,.15,.44,.31,.24,.16-.2-.15-.44-.31-.24h0Z"/><path class="s" d="M7.43,33.64c-.14,.18-.11,.45,.07,.59,.18,.14,.45,.11,.59-.07,.14-.18,.11-.45-.07-.59-.18-.14-.45-.11-.59,.07h0Z"/><path class="s" d="M6.65,33.06c-.27,.34,.26,.75,.53,.41,.27-.34-.26-.75-.53-.41h0Z"/><path class="s" d="M6.03,32.77c-.12,.16,.12,.35,.24,.19,.12-.16-.12-.35-.24-.19h0Z"/><path class="s" d="M9.02,32.27h.02c.13-.08,.23-.18,.26-.34,.02-.14-.04-.29-.15-.38-.11-.09-.27-.11-.4-.06-.15,.06-.22,.18-.26,.32,0,0,0,.02,0,.03-.07,.28,.28,.56,.54,.42h0Z"/><path class="s" d="M7.84,31.31c-.09,.12-.07,.29,.04,.39,.12,.09,.29,.07,.38-.05,.09-.12,.07-.29-.04-.38-.12-.09-.29-.07-.38,.05h0Z"/><path class="s" d="M10.24,30.13c-.12,.15-.09,.38,.06,.5,.15,.12,.38,.09,.5-.06,.12-.15,.09-.38-.06-.5-.15-.12-.38-.09-.5,.06h0Z"/><path class="s" d="M9.44,29.93c-.19,.23,.18,.52,.37,.29,.19-.24-.18-.52-.37-.29h0Z"/><path class="s" d="M8.63,29.86c-.15,.19,.15,.42,.3,.23,.15-.19-.15-.42-.3-.23h0Z"/><path class="s" d="M13.42,36.53c-.26,.13-.43,.22-.56,.49-.13,.28-.07,.62,.05,.89,.27,.67,.97,.97,1.64,.79,.66-.18,1.08-1,1.09-1.63,0-.82-.53-1.38-1.36-1.33-1.19,.06-2.11,2.24-.86,2.86,.78,.38,1.5-.23,1.69-.98,.09-.36,.05-.72-.15-1.03-.2-.32-.68-.56-1.01-.27-.31,.27-.41,.69-.44,1.09-.05,.71,1.06,.88,1.11,.15,0-.03,0-.06,.01-.09-.04,.09-.08,.18-.12,.27,.09-.14,.12-.24,.12-.41,0-.65-1.01-.62-1.11-.01,0,.03,0,.06-.01,.09,.37,.05,.74,.1,1.11,.15,0-.12,.03-.25,.05-.37-.02,.09,.03-.07,.03-.07-.11,.28-.78-.19-.65,.13,0,.03-.07,.22-.1,.28,0,0-.08,.08-.04,.05,.04-.02-.09-.03-.01,0,.03,.01,.06,.1,.05,.01,0-.05,.02-.17,.04-.24,.05-.15,.09-.22,.17-.32,.07-.09,.05-.07,.1-.12,.03-.02,.06-.05,.09-.07-.05,.03-.04,.03,.02,0-.1,.04,.01,0,.06,0,.12,0,.01-.03,.09,.03-.08-.06,.02,.07,.02,.11,0,.25-.11,.57-.33,.67-.08,.04-.14,.01-.18,0-.06-.02-.21-.13-.27-.2-.15-.16-.2-.45-.08-.57,.15-.16-.06-.44-.26-.35h0Z"/><path class="t" d="M14.04,37.08c-.25,.31,.24,.69,.48,.38,.25-.31-.24-.69-.48-.38h0Z"/><path class="t" d="M13.25,37.27c-.16,.21,.16,.46,.32,.25,.16-.21-.16-.46-.32-.25h0Z"/><path class="t" d="M13.68,37.91c-.15,.19,.14,.42,.29,.23,.15-.19-.14-.42-.29-.23h0Z"/><path class="t" d="M14.86,38.17s0,0,.01-.01c.09-.09,.08-.21-.03-.28h-.02c-.12-.08-.26,.05-.24,.17,.01,.12,.18,.21,.28,.12h0Z"/><path class="t" d="M15.05,37.07c-.14,.18,.14,.4,.28,.22,.14-.18-.14-.39-.28-.22h0Z"/><path class="t" d="M14.73,36.32c-.13,.17,.13,.38,.26,.21,.13-.17-.13-.38-.26-.21h0Z"/><path class="t" d="M13.83,36.3c-.14,.17,.13,.39,.27,.21,.14-.17-.13-.38-.27-.21h0Z"/></g><g><path class="o" d="M17.56,30.17c.39,1.25,2.17,1.94,3.16,2.66,.75,.54,1.71,.65,2.39-.09,.77-.83,.49-2.1-.46-2.65-1.15-.67-2.34-1.3-3.55-1.85-2.06-.93-3.58,1.97-1.62,3.11,1.15,.67,2.4,1.18,3.61,1.74,.38-1.05,.76-2.1,1.13-3.15-.69-.22-1.39-.41-2.09-.56-.67-.14-1.39-.4-2.07-.17-.39,.13-.62,.55-.5,.96h0Z"/><path class="l" d="M19.93,31.39h.03c.31,.09,.66-.09,.8-.37,.14-.28,.1-.67-.15-.87l-.02-.02c-.16-.13-.33-.21-.54-.2-.26,.01-.5,.17-.62,.4-.09,.17-.11,.38-.05,.56,.08,.26,.29,.43,.55,.5h0Z"/><path class="l" d="M18.85,30.02c.28-.54-.56-.98-.84-.44s.56,.98,.84,.44h0Z"/><path class="l" d="M22.26,31.59c.25-.48-.5-.87-.75-.39-.25,.48,.5,.87,.75,.39h0Z"/></g></g><path class="i" d="M5.75,12.71c.17-.15,.35-.27,.53-.4,.2-.15,.41-.28,.57-.46,.13-.15,.19-.31,.26-.5,.06-.19,.07-.6-.04-.78-.31-.5-1.17-.93-1.74,.16,0,.02-.02,.03-.04,.03h0s-.03,0-.04-.03c-.57-1.09-1.43-.66-1.74-.16-.11,.17-.1,.58-.03,.78,.07,.19,.13,.34,.26,.5,.16,.19,.37,.32,.57,.46,.18,.13,.37,.25,.53,.4,.08,.08,.46,.48,.46,.48,0,0,.37-.4,.46-.48Z"/><path class="i" d="M35.22,49.65c-.17,.15-.35,.27-.53,.4-.2,.15-.41,.28-.57,.46-.13,.15-.19,.31-.26,.5-.07,.19-.07,.61,.04,.78,.31,.5,1.17,.93,1.74-.16,0-.02,.02-.03,.04-.03h0s.03,0,.04,.03c.57,1.09,1.43,.66,1.74,.16,.11-.17,.1-.58,.04-.78-.07-.19-.12-.34-.26-.5-.16-.19-.37-.32-.57-.46-.18-.13-.37-.25-.53-.4-.08-.08-.46-.48-.46-.48,0,0-.37,.4-.46,.48Z"/><path class="i" d="M6.47,3v3.99c0,.7-.16,1.18-.47,1.46-.31,.28-.73,.41-1.25,.41-.28,0-.56-.04-.84-.12v-.59c.28,.06,.53,.09,.75,.09,.32,0,.56-.05,.71-.14,.15-.1,.25-.22,.3-.37,.05-.15,.08-.4,.08-.74V3h.72Z"/><path class="i" d="M34.46,59.29v-4c0-.7,.16-1.18,.47-1.46,.31-.28,.73-.41,1.25-.41,.28,0,.56,.04,.84,.12v.59c-.28-.06-.52-.09-.75-.09-.32,0-.56,.05-.71,.14-.15,.1-.25,.22-.3,.37-.05,.15-.08,.4-.08,.74v4h-.72Z"/><g><path class="i" d="M16.84,59.11H6.19c-1.66,0-3-1.43-3-3.19V15.66h.19V55.92c0,1.66,1.26,3,2.82,3h10.64v.19Z"/><rect class="i" x="25.39" y="58.93" width="7.39" height=".19"/><path class="i" d="M37.74,46.82h-.19V6.36c0-1.66-1.26-3-2.82-3h-10.97v-.19h10.97c1.66,0,3,1.43,3,3.19V46.82Z"/><rect class="i" x="8.45" y="3.17" width="6.84" height=".19"/></g></g></g></g></svg>