<?xml version="1.0" encoding="UTF-8"?><svg xmlns="http://www.w3.org/2000/svg" viewBox="0 0 40.93 62.29"><defs><style>.d{fill:#fff;}.e{fill:#d6002b;}.f{fill:#2d2d2d;}</style></defs><g id="a"/><g id="b"><g id="c"><g><g><path class="d" d="M3.54,.09H37.39c1.9,0,3.45,1.55,3.45,3.45V58.74c0,1.9-1.55,3.45-3.45,3.45H3.54c-1.9,0-3.45-1.55-3.45-3.45V3.54C.09,1.64,1.64,.09,3.54,.09Z"/><path class="f" d="M37.39,62.29H3.54c-1.95,0-3.54-1.59-3.54-3.54V3.54C0,1.59,1.59,0,3.54,0H37.39c1.95,0,3.54,1.59,3.54,3.54V58.75c0,1.95-1.59,3.54-3.54,3.54ZM3.54,.19C1.69,.19,.19,1.69,.19,3.54V58.75c0,1.85,1.51,3.36,3.36,3.36H37.39c1.85,0,3.36-1.51,3.36-3.36V3.54c0-1.85-1.51-3.36-3.36-3.36H3.54Z"/></g><path class="e" d="M5.75,12.71c.17-.15,.35-.27,.53-.4,.2-.15,.41-.28,.57-.46,.13-.15,.19-.31,.26-.5,.06-.19,.07-.6-.03-.78-.31-.5-1.17-.93-1.74,.16,0,.02-.02,.03-.04,.03h0s-.03,0-.04-.03c-.57-1.09-1.43-.66-1.74-.16-.11,.17-.1,.58-.03,.78,.06,.19,.13,.34,.26,.5,.16,.19,.37,.32,.57,.46,.18,.13,.37,.25,.53,.4,.08,.08,.46,.48,.46,.48,0,0,.37-.4,.46-.48Z"/><path class="e" d="M35.22,49.65c-.17,.15-.35,.27-.53,.4-.2,.15-.41,.28-.57,.46-.13,.15-.19,.31-.26,.5-.06,.19-.07,.61,.03,.78,.31,.5,1.17,.93,1.74-.16,0-.02,.02-.03,.04-.03h0s.03,0,.04,.03c.57,1.09,1.43,.66,1.74,.16,.11-.17,.1-.58,.03-.78-.06-.19-.13-.34-.26-.5-.16-.19-.37-.32-.57-.46-.18-.13-.37-.25-.53-.4-.08-.08-.46-.48-.46-.48,0,0-.37,.4-.46,.48Z"/><path class="e" d="M7.22,4.17l-.65,.18c-.22-.58-.63-.88-1.21-.88-1.08,0-1.63,.89-1.65,2.67,.17-.4,.41-.69,.73-.88,.31-.19,.65-.29,1-.29,.53,0,.98,.19,1.34,.56,.36,.37,.54,.82,.54,1.34s-.19,1.01-.58,1.4c-.38,.39-.87,.59-1.47,.59-.68,0-1.22-.26-1.62-.77-.4-.51-.6-1.21-.6-2.09s.19-1.6,.57-2.21c.38-.61,.97-.91,1.77-.91,.92,0,1.53,.43,1.84,1.29Zm-1.97,4.11c.41,0,.74-.13,1-.4,.26-.27,.39-.59,.39-.97s-.13-.69-.38-.96c-.25-.27-.57-.4-.95-.4s-.73,.14-1.02,.42c-.29,.28-.43,.6-.43,.98,0,.35,.13,.65,.39,.92,.26,.27,.59,.41,1,.41Z"/><path class="e" d="M33.54,58.12l.65-.18c.22,.58,.63,.88,1.21,.88,1.08,0,1.63-.89,1.66-2.67-.17,.4-.41,.69-.73,.88-.31,.19-.65,.29-1,.29-.53,0-.98-.19-1.34-.56-.36-.37-.54-.82-.54-1.34s.19-1.01,.57-1.4,.87-.59,1.47-.59c.68,0,1.22,.26,1.62,.77,.4,.51,.6,1.21,.6,2.09s-.19,1.6-.57,2.21c-.38,.61-.97,.91-1.77,.91-.92,0-1.53-.43-1.84-1.29Zm1.97-4.12c-.41,0-.74,.13-1,.4-.26,.27-.39,.59-.39,.97s.13,.69,.38,.96c.25,.27,.57,.4,.95,.4s.73-.14,1.02-.42c.29-.28,.43-.61,.43-.98,0-.35-.13-.65-.39-.92-.26-.27-.59-.41-1-.41Z"/><g><path class="e" d="M15.08,11.95c.47-.43,.99-.75,1.5-1.13,.56-.41,1.15-.78,1.6-1.31,.37-.43,.54-.86,.72-1.4,.18-.54,.2-1.7-.1-2.18-.87-1.39-3.3-2.61-4.9,.46-.02,.04-.07,.07-.11,.07h0s-.09-.03-.11-.07c-1.6-3.07-4.03-1.85-4.9-.46-.3,.48-.28,1.64-.1,2.18,.18,.54,.35,.97,.72,1.4,.45,.53,1.04,.89,1.6,1.31,.51,.38,1.03,.71,1.5,1.13,.24,.21,1.29,1.34,1.29,1.34,0,0,1.05-1.13,1.29-1.34Z"/><path class="e" d="M28.43,11.95c.47-.43,.99-.75,1.5-1.13,.56-.41,1.15-.78,1.6-1.31,.37-.43,.54-.86,.72-1.4,.18-.54,.2-1.7-.1-2.18-.87-1.39-3.3-2.61-4.9,.46-.02,.04-.07,.07-.11,.07h0s-.09-.03-.11-.07c-1.6-3.07-4.03-1.85-4.9-.46-.3,.48-.28,1.64-.1,2.18,.18,.54,.35,.97,.72,1.4,.45,.53,1.04,.89,1.6,1.31,.51,.38,1.03,.71,1.5,1.13,.24,.21,1.29,1.34,1.29,1.34,0,0,1.05-1.13,1.29-1.34Z"/></g><g><path class="e" d="M15.08,34.21c.47-.42,.99-.75,1.5-1.13,.56-.41,1.15-.78,1.6-1.31,.37-.43,.54-.86,.72-1.4,.18-.54,.2-1.7-.1-2.18-.87-1.39-3.3-2.61-4.9,.46-.02,.04-.07,.07-.11,.07h0s-.09-.03-.11-.07c-1.6-3.07-4.03-1.85-4.9-.46-.3,.48-.28,1.64-.1,2.18,.18,.54,.35,.97,.72,1.4,.45,.53,1.04,.9,1.6,1.31,.51,.38,1.03,.71,1.5,1.13,.24,.21,1.29,1.35,1.29,1.35,0,0,1.05-1.13,1.29-1.35Z"/><path class="e" d="M28.43,34.21c.47-.42,.99-.75,1.5-1.13,.56-.41,1.15-.78,1.6-1.31,.37-.43,.54-.86,.72-1.4,.18-.54,.2-1.7-.1-2.18-.87-1.39-3.3-2.61-4.9,.46-.02,.04-.07,.07-.11,.07h0s-.09-.03-.11-.07c-1.6-3.07-4.03-1.85-4.9-.46-.3,.48-.28,1.64-.1,2.18,.18,.54,.35,.97,.72,1.4,.45,.53,1.04,.9,1.6,1.31,.51,.38,1.03,.71,1.5,1.13,.24,.21,1.29,1.35,1.29,1.35,0,0,1.05-1.13,1.29-1.35Z"/></g><g><path class="e" d="M25.85,50.33c-.47,.43-.99,.75-1.5,1.13-.56,.41-1.15,.78-1.6,1.31-.37,.44-.54,.86-.72,1.4-.18,.54-.2,1.7,.1,2.18,.87,1.39,3.3,2.61,4.9-.46,.02-.04,.07-.07,.11-.07h0s.09,.03,.11,.07c1.6,3.07,4.03,1.85,4.9,.46,.3-.48,.28-1.64,.1-2.18-.18-.54-.35-.97-.72-1.4-.45-.53-1.04-.89-1.6-1.31-.51-.38-1.03-.71-1.5-1.13-.24-.21-1.29-1.34-1.29-1.34,0,0-1.05,1.13-1.29,1.34Z"/><path class="e" d="M12.5,50.33c-.47,.43-.99,.75-1.5,1.13-.56,.41-1.15,.78-1.6,1.31-.37,.44-.54,.86-.72,1.4-.18,.54-.2,1.7,.1,2.18,.87,1.39,3.3,2.61,4.9-.46,.02-.04,.07-.07,.11-.07h0s.09,.03,.11,.07c1.6,3.07,4.02,1.85,4.9,.46,.3-.48,.28-1.64,.1-2.18-.18-.54-.35-.97-.72-1.4-.45-.53-1.04-.89-1.6-1.31-.51-.38-1.03-.71-1.5-1.13-.24-.21-1.29-1.34-1.29-1.34,0,0-1.05,1.13-1.29,1.34Z"/></g></g></g></g></svg>