<?xml version="1.0" encoding="UTF-8"?><svg xmlns="http://www.w3.org/2000/svg" viewBox="0 0 40.93 62.29"><defs><style>.d{fill:#fff;}.e{fill:#d6002b;}.f{fill:#2d2d2d;}</style></defs><g id="a"/><g id="b"><g id="c"><g><g><path class="d" d="M3.54,.09H37.39c1.9,0,3.45,1.55,3.45,3.45V58.74c0,1.9-1.55,3.45-3.45,3.45H3.54c-1.9,0-3.45-1.55-3.45-3.45V3.54C.09,1.64,1.64,.09,3.54,.09Z"/><path class="f" d="M37.39,62.29H3.54c-1.95,0-3.54-1.59-3.54-3.54V3.54C0,1.59,1.59,0,3.54,0H37.39c1.95,0,3.54,1.59,3.54,3.54V58.75c0,1.95-1.59,3.54-3.54,3.54ZM3.54,.19C1.69,.19,.19,1.69,.19,3.54V58.75c0,1.85,1.51,3.36,3.36,3.36H37.39c1.85,0,3.36-1.51,3.36-3.36V3.54c0-1.85-1.5-3.36-3.36-3.36H3.54Z"/></g><path class="e" d="M5.75,12.71c.17-.15,.35-.27,.53-.4,.2-.15,.41-.28,.57-.46,.13-.15,.19-.31,.26-.5,.06-.19,.07-.6-.04-.78-.31-.5-1.17-.93-1.74,.16,0,.02-.02,.03-.04,.03h0s-.03,0-.04-.03c-.57-1.09-1.43-.66-1.74-.16-.11,.17-.1,.58-.03,.78,.06,.19,.12,.34,.26,.5,.16,.19,.37,.32,.57,.46,.18,.13,.37,.25,.53,.4,.08,.08,.46,.48,.46,.48,0,0,.37-.4,.46-.48Z"/><path class="e" d="M35.22,49.65c-.17,.15-.35,.27-.53,.4-.2,.15-.41,.28-.57,.46-.13,.15-.19,.31-.26,.5-.06,.19-.07,.61,.04,.78,.31,.5,1.17,.93,1.74-.16,0-.02,.02-.03,.04-.03h0s.03,0,.04,.03c.57,1.09,1.43,.66,1.74,.16,.11-.17,.1-.58,.03-.78-.06-.19-.12-.34-.26-.5-.16-.19-.37-.32-.57-.46-.18-.13-.37-.25-.53-.4-.08-.08-.46-.48-.46-.48,0,0-.37,.4-.46,.48Z"/><path class="e" d="M3.28,7.7l.58-.21c.24,.53,.64,.8,1.2,.8s.96-.23,1.24-.69c.28-.46,.42-1.08,.43-1.87-.38,.69-.94,1.04-1.7,1.04-.53,0-.98-.18-1.34-.55-.36-.36-.54-.81-.54-1.35s.19-1.01,.57-1.4c.38-.39,.87-.58,1.46-.58,.72,0,1.28,.25,1.66,.76,.38,.51,.58,1.2,.58,2.09,0,.93-.2,1.69-.61,2.27-.41,.58-.99,.87-1.74,.87-.88,0-1.47-.39-1.77-1.16Zm1.91-1.52c.4,0,.73-.14,1-.42,.27-.28,.4-.6,.4-.97s-.13-.67-.38-.93c-.25-.26-.59-.39-1-.39s-.75,.13-1,.4c-.24,.27-.37,.59-.37,.97,0,.41,.13,.74,.41,.97,.27,.24,.58,.36,.94,.36Z"/><path class="e" d="M37.48,54.59l-.58,.21c-.24-.53-.64-.8-1.2-.8s-.96,.23-1.24,.69c-.28,.46-.42,1.09-.43,1.88,.38-.69,.94-1.04,1.7-1.04,.53,0,.98,.18,1.34,.55,.36,.36,.54,.81,.54,1.35s-.19,1.01-.57,1.4c-.38,.39-.87,.58-1.45,.58-.72,0-1.27-.25-1.66-.76-.38-.51-.58-1.2-.58-2.09s.2-1.69,.61-2.26c.41-.58,.99-.87,1.74-.87,.88,0,1.47,.39,1.77,1.16Zm-1.91,1.52c-.4,0-.73,.14-1,.41-.27,.28-.4,.6-.4,.97s.13,.67,.38,.93c.25,.26,.59,.39,1,.39s.75-.13,1-.4,.37-.59,.37-.97c0-.41-.14-.74-.41-.97-.27-.24-.58-.36-.94-.36Z"/><g><path class="e" d="M15.08,11.95c.47-.43,.99-.75,1.5-1.13,.55-.41,1.15-.78,1.6-1.31,.37-.43,.54-.86,.72-1.4,.18-.54,.2-1.7-.1-2.18-.87-1.39-3.3-2.61-4.9,.46-.02,.04-.07,.07-.11,.07h0s-.09-.03-.12-.07c-1.6-3.07-4.03-1.85-4.9-.46-.3,.48-.28,1.64-.1,2.18,.18,.54,.35,.97,.72,1.4,.45,.53,1.04,.89,1.6,1.31,.51,.38,1.03,.71,1.5,1.13,.24,.21,1.29,1.34,1.29,1.34,0,0,1.05-1.13,1.29-1.34Z"/><path class="e" d="M28.43,11.95c.47-.43,.99-.75,1.5-1.13,.56-.41,1.15-.78,1.6-1.31,.37-.43,.54-.86,.72-1.4,.18-.54,.2-1.7-.1-2.18-.87-1.39-3.3-2.61-4.9,.46-.02,.04-.07,.07-.11,.07h0s-.09-.03-.12-.07c-1.6-3.07-4.03-1.85-4.9-.46-.3,.48-.28,1.64-.1,2.18,.18,.54,.35,.97,.72,1.4,.45,.53,1.04,.89,1.6,1.31,.51,.38,1.03,.71,1.5,1.13,.24,.21,1.29,1.34,1.29,1.34,0,0,1.05-1.13,1.29-1.34Z"/></g><g><path class="e" d="M15.08,23.75c.47-.43,.99-.75,1.5-1.13,.55-.41,1.15-.78,1.6-1.31,.37-.44,.54-.86,.72-1.4,.18-.54,.2-1.7-.1-2.18-.87-1.39-3.3-2.61-4.9,.46-.02,.04-.07,.07-.11,.07h0s-.09-.03-.12-.07c-1.6-3.07-4.03-1.85-4.9-.46-.3,.48-.28,1.64-.1,2.18,.18,.54,.35,.97,.72,1.4,.45,.53,1.04,.89,1.6,1.31,.51,.38,1.03,.71,1.5,1.13,.24,.21,1.29,1.34,1.29,1.34,0,0,1.05-1.13,1.29-1.34Z"/><path class="e" d="M28.43,23.75c.47-.43,.99-.75,1.5-1.13,.56-.41,1.15-.78,1.6-1.31,.37-.44,.54-.86,.72-1.4,.18-.54,.2-1.7-.1-2.18-.87-1.39-3.3-2.61-4.9,.46-.02,.04-.07,.07-.11,.07h0s-.09-.03-.12-.07c-1.6-3.07-4.03-1.85-4.9-.46-.3,.48-.28,1.64-.1,2.18,.18,.54,.35,.97,.72,1.4,.45,.53,1.04,.89,1.6,1.31,.51,.38,1.03,.71,1.5,1.13,.24,.21,1.29,1.34,1.29,1.34,0,0,1.05-1.13,1.29-1.34Z"/></g><g><path class="e" d="M25.85,50.33c-.47,.43-.99,.75-1.5,1.13-.55,.41-1.15,.78-1.6,1.31-.37,.44-.54,.86-.72,1.4-.18,.54-.2,1.7,.1,2.18,.87,1.39,3.3,2.61,4.9-.46,.02-.04,.07-.07,.12-.07h0s.09,.03,.11,.07c1.6,3.07,4.03,1.85,4.9,.46,.3-.48,.28-1.64,.1-2.18-.18-.54-.35-.97-.72-1.4-.45-.53-1.04-.89-1.6-1.31-.51-.38-1.03-.71-1.5-1.13-.24-.21-1.29-1.34-1.29-1.34,0,0-1.05,1.13-1.29,1.34Z"/><path class="e" d="M12.5,50.33c-.47,.43-.99,.75-1.5,1.13-.55,.41-1.15,.78-1.6,1.31-.37,.44-.54,.86-.72,1.4-.18,.54-.21,1.7,.1,2.18,.87,1.39,3.3,2.61,4.9-.46,.02-.04,.07-.07,.12-.07h0s.09,.03,.11,.07c1.6,3.07,4.03,1.85,4.9,.46,.3-.48,.28-1.64,.1-2.18-.18-.54-.35-.97-.72-1.4-.45-.53-1.04-.89-1.6-1.31-.51-.38-1.03-.71-1.5-1.13-.24-.21-1.29-1.34-1.29-1.34,0,0-1.05,1.13-1.29,1.34Z"/></g><g><path class="e" d="M25.85,38.35c-.47,.43-.99,.75-1.5,1.13-.55,.41-1.15,.78-1.6,1.31-.37,.43-.54,.86-.72,1.4-.18,.54-.2,1.7,.1,2.18,.87,1.39,3.3,2.61,4.9-.46,.02-.04,.07-.07,.12-.07h0s.09,.03,.11,.07c1.6,3.07,4.03,1.85,4.9,.46,.3-.48,.28-1.64,.1-2.18-.18-.54-.35-.97-.72-1.4-.45-.53-1.04-.9-1.6-1.31-.51-.38-1.03-.71-1.5-1.13-.24-.21-1.29-1.34-1.29-1.34,0,0-1.05,1.13-1.29,1.34Z"/><path class="e" d="M12.5,38.35c-.47,.43-.99,.75-1.5,1.13-.55,.41-1.15,.78-1.6,1.31-.37,.43-.54,.86-.72,1.4-.18,.54-.21,1.7,.1,2.18,.87,1.39,3.3,2.61,4.9-.46,.02-.04,.07-.07,.12-.07h0s.09,.03,.11,.07c1.6,3.07,4.03,1.85,4.9,.46,.3-.48,.28-1.64,.1-2.18-.18-.54-.35-.97-.72-1.4-.45-.53-1.04-.9-1.6-1.31-.51-.38-1.03-.71-1.5-1.13-.24-.21-1.29-1.34-1.29-1.34,0,0-1.05,1.13-1.29,1.34Z"/></g><path class="e" d="M21.75,34.21c.47-.42,.99-.75,1.5-1.13,.56-.41,1.15-.78,1.6-1.31,.37-.43,.54-.86,.72-1.4,.18-.54,.2-1.7-.1-2.18-.87-1.39-3.3-2.61-4.9,.46-.02,.04-.07,.07-.11,.07h0s-.09-.03-.11-.07c-1.6-3.07-4.03-1.85-4.9-.46-.3,.48-.28,1.64-.1,2.18,.18,.54,.35,.97,.72,1.4,.45,.53,1.04,.9,1.6,1.31,.51,.38,1.03,.71,1.5,1.13,.24,.21,1.29,1.35,1.29,1.35,0,0,1.05-1.13,1.29-1.35Z"/></g></g></g></svg>