<?xml version="1.0" encoding="UTF-8"?><svg xmlns="http://www.w3.org/2000/svg" viewBox="0 0 40.93 62.29"><defs><style>.d{fill:#fff;}.e{fill:#2d2d2d;}.f{fill:#0c0a35;}</style></defs><g id="a"/><g id="b"><g id="c"><g><g><path class="d" d="M3.54,.09H37.39c1.9,0,3.45,1.55,3.45,3.45V58.74c0,1.9-1.55,3.45-3.45,3.45H3.54c-1.9,0-3.45-1.55-3.45-3.45V3.54C.09,1.64,1.64,.09,3.54,.09Z"/><path class="e" d="M37.39,62.29H3.54c-1.95,0-3.54-1.59-3.54-3.54V3.54C0,1.59,1.59,0,3.54,0H37.39c1.95,0,3.54,1.59,3.54,3.54V58.74c0,1.95-1.59,3.54-3.54,3.54ZM3.54,.19C1.69,.19,.19,1.69,.19,3.54V58.74c0,1.85,1.51,3.36,3.36,3.36H37.39c1.85,0,3.36-1.51,3.36-3.36V3.54c0-1.85-1.51-3.36-3.36-3.36H3.54Z"/></g><g><g><path class="f" d="M14.6,8.19c0,.26-.1,.62-.1,.88,0,.26,0,.52,.03,.78,.1,.88,.42,1.73,1.08,2.32-.6,.04-2.11,.04-2.71,0,.66-.59,.98-1.44,1.08-2.32,.03-.26,.03-.52,.03-.78,0-.26-.1-.62-.1-.88h.7Z"/><path class="f" d="M14.38,9.16c.53,.82,1.47,1.39,2.45,1.36,.98-.03,1.92-.74,2.11-1.7,.17-.84-.24-1.71-.83-2.34-.58-.63-1.39-1.04-2.1-1.52-.73-.48-1.76-1.68-1.76-1.68,0,0-1.12,1.17-1.75,1.65-.68,.52-1.53,.92-2.11,1.54-.58,.63-.99,1.49-.83,2.34,.19,.96,1.14,1.67,2.11,1.7,.98,.03,1.92-.54,2.45-1.36h.25Z"/></g><g><path class="f" d="M27.03,8.19c0,.26-.1,.62-.1,.88,0,.26,0,.52,.03,.78,.1,.88,.42,1.73,1.08,2.32-.6,.04-2.11,.04-2.71,0,.66-.59,.98-1.44,1.08-2.32,.03-.26,.03-.52,.03-.78,0-.26-.1-.62-.1-.88h.7Z"/><path class="f" d="M26.81,9.16c.53,.82,1.47,1.39,2.45,1.36,.97-.03,1.92-.74,2.11-1.7,.17-.84-.24-1.71-.83-2.34-.58-.63-1.39-1.04-2.1-1.52-.73-.48-1.76-1.68-1.76-1.68,0,0-1.12,1.17-1.75,1.65-.68,.52-1.53,.92-2.11,1.54-.58,.63-.99,1.49-.83,2.34,.19,.96,1.14,1.67,2.11,1.7,.98,.03,1.92-.54,2.45-1.36h.25Z"/></g></g><g><path class="f" d="M35.44,50.65c0-.1,.04-.25,.04-.35,0-.1,0-.21-.01-.31-.04-.35-.17-.69-.43-.93,.24-.01,.84-.01,1.08,0-.27,.24-.39,.57-.43,.93-.01,.11-.01,.21-.01,.31,0,.1,.04,.25,.04,.35h-.28Z"/><path class="f" d="M35.53,50.26c-.21-.33-.59-.55-.98-.54-.39,.01-.77,.3-.84,.68-.07,.34,.1,.68,.33,.93,.23,.25,.55,.42,.84,.61,.29,.19,.7,.67,.7,.67,0,0,.45-.47,.7-.66,.27-.21,.61-.37,.84-.62,.23-.25,.4-.6,.33-.93-.08-.38-.45-.67-.84-.68-.39-.01-.77,.21-.98,.54h-.1Z"/></g><g><path class="f" d="M5.36,11.36c0,.1-.04,.25-.04,.35s0,.21,.01,.31c.04,.36,.17,.69,.43,.93-.24,.01-.84,.01-1.08,0,.27-.24,.39-.57,.43-.93,.01-.1,.01-.21,.01-.31s-.04-.25-.04-.35h.28Z"/><path class="f" d="M5.27,11.75c.21,.33,.59,.55,.98,.54,.39-.01,.77-.3,.84-.68,.07-.34-.1-.68-.33-.93-.23-.25-.55-.42-.84-.61-.29-.19-.7-.67-.7-.67,0,0-.45,.47-.7,.66-.27,.21-.61,.37-.84,.62-.23,.25-.4,.6-.33,.93,.08,.38,.45,.67,.84,.68,.39,.01,.77-.21,.98-.54h.1Z"/></g><path class="f" d="M6.96,8.29l-.69-.02,.04-1.37-2.84-.09,.02-.48,2.77-3.92,.89,.03-.13,3.93,.93,.03-.02,.57-.93-.03-.04,1.37Zm-.63-1.96l.09-2.71c0-.2,.02-.41,.03-.63-.13,.22-.24,.39-.33,.53l-1.89,2.75,2.1,.07Z"/><path class="f" d="M33.99,54l.69,.02-.04,1.37,2.84,.09-.02,.48-2.77,3.93-.89-.03,.13-3.93-.93-.03,.02-.57,.93,.03,.04-1.37Zm.63,1.96l-.09,2.71c0,.2-.02,.41-.03,.63,.13-.22,.24-.39,.33-.53l1.89-2.75-2.1-.07Z"/><g><g><path class="f" d="M26.33,54.1c0-.26,.1-.63,.1-.88,0-.26,0-.52-.03-.78-.1-.89-.42-1.73-1.08-2.32,.6-.04,2.11-.04,2.71,0-.66,.59-.98,1.44-1.08,2.32-.03,.26-.03,.52-.03,.78,0,.26,.1,.63,.1,.88h-.7Z"/><path class="f" d="M26.55,53.12c-.53-.82-1.47-1.39-2.45-1.36-.98,.03-1.92,.74-2.11,1.7-.17,.84,.24,1.71,.83,2.34,.58,.63,1.39,1.04,2.1,1.52,.73,.48,1.76,1.68,1.76,1.68,0,0,1.12-1.17,1.75-1.65,.68-.52,1.53-.92,2.11-1.54,.58-.63,.99-1.49,.83-2.34-.19-.96-1.14-1.67-2.11-1.7-.98-.03-1.92,.54-2.45,1.36h-.25Z"/></g><g><path class="f" d="M13.9,54.1c0-.26,.1-.63,.1-.88,0-.26,0-.52-.03-.78-.1-.89-.42-1.73-1.08-2.32,.6-.04,2.11-.04,2.71,0-.66,.59-.98,1.44-1.08,2.32-.03,.26-.03,.52-.03,.78,0,.26,.1,.63,.1,.88h-.7Z"/><path class="f" d="M14.12,53.12c-.53-.82-1.47-1.39-2.45-1.36-.98,.03-1.92,.74-2.11,1.7-.17,.84,.24,1.71,.83,2.34,.58,.63,1.39,1.04,2.1,1.52,.73,.48,1.76,1.68,1.76,1.68,0,0,1.12-1.17,1.75-1.65,.68-.52,1.53-.92,2.11-1.54,.58-.63,.99-1.49,.83-2.34-.19-.96-1.14-1.67-2.11-1.7-.97-.03-1.92,.54-2.45,1.36h-.25Z"/></g></g></g></g></g></svg>