<?xml version="1.0" encoding="UTF-8"?><svg xmlns="http://www.w3.org/2000/svg" xmlns:xlink="http://www.w3.org/1999/xlink" viewBox="0 0 40.93 62.29"><defs><style>.h{fill:#fff;}.i{fill:#191956;}.j{fill:#ffd6a1;}.k{clip-path:url(#e);}.l{clip-path:url(#d);}.m{fill:#222272;}.n{fill:none;}.o{fill:#fcc07e;}.p{fill:#2d2d2d;}.q{clip-path:url(#f);}.r{fill:#141247;}.s{fill:#0c0a35;}.t{fill:#990028;}.u{clip-path:url(#g);}.v{fill:#f70032;}</style><clipPath id="d"><path class="n" d="M25.8,55.04c.15-.7,.25-1.41,.29-2.12,.03-.4,.04-.81,0-1.21-.04-.36-.13-.71-.18-1.06-.11-.73-.06-1.48-.02-2.22,.14-2.62,.15-5.24,.03-7.86-.03-.62,0-1.25,.08-1.87,.08-.67,.13-1.36,.36-2,.22-.61,.59-1.46,1.17-1.51,.02-.02,.03-.04,.05-.06,0-.1-.29-.18-.47-.16-2.14,.19-2.79,1.21-3.17,2.57-.48,1.69-.64,2.78-.78,4.18-.15,1.54-.26,3.08-.13,4.62,.11,1.34,.4,2.67,.69,3.98,.12,.54,.24,1.08,.36,1.62,.15,.7,.31,1.41,.55,2.08,.18,.51,.56,1.08,1.1,1.01,.02-.06,.04-.13,.06-.19l.02,.2Z"/></clipPath><clipPath id="e"><path class="n" d="M16.36,43.06c-.08,.76-.22,1.51-.31,2.27-.12,1.05-.13,2.11-.13,3.16,0,.82,.01,1.64,.03,2.46,0,.48,.02,.95,.11,1.42,.29,1.62,1.51,3.04,3.07,3.58,.47,.16,1.1,.2,1.36-.23,.24-.39,0-.88-.12-1.31-.12-.44-.13-.89-.13-1.34-.06-5.56,.13-11.14-.67-16.64-.11-.74-.25-1.52-.71-2.11-.36-.46-.89-.77-1.44-.96-.79-.27-1.65-.32-2.46-.13,.63,.73,.8,1.75,.95,2.7,.35,2.36,.71,4.75,.45,7.13Z"/></clipPath><clipPath id="f"><path class="n" d="M15.43,7.28c-.15,.7-.25,1.41-.29,2.12-.03,.4-.04,.81,0,1.21,.04,.36,.13,.71,.18,1.06,.11,.73,.06,1.48,.02,2.22-.14,2.62-.15,5.24-.03,7.86,.03,.62,0,1.25-.08,1.86-.08,.67-.13,1.36-.36,2-.22,.61-.59,1.47-1.17,1.51-.02,.02-.03,.04-.05,.06,0,.1,.29,.18,.47,.16,2.14-.19,2.79-1.21,3.17-2.57,.48-1.69,.64-2.78,.78-4.18,.15-1.54,.26-3.08,.13-4.62-.11-1.35-.4-2.67-.69-3.99-.12-.54-.24-1.08-.36-1.62-.15-.7-.31-1.41-.55-2.08-.18-.51-.57-1.08-1.1-1.01-.02,.06-.04,.13-.06,.19l-.02-.2Z"/></clipPath><clipPath id="g"><path class="n" d="M24.87,19.26c.08-.76,.22-1.51,.31-2.27,.12-1.05,.13-2.11,.13-3.16,0-.82,0-1.64-.03-2.46,0-.48-.02-.96-.11-1.43-.29-1.62-1.51-3.04-3.07-3.58-.47-.16-1.1-.19-1.36,.23-.24,.39,0,.88,.12,1.31,.12,.43,.13,.89,.13,1.34,.06,5.56-.13,11.14,.67,16.64,.11,.74,.25,1.52,.71,2.11,.36,.46,.89,.77,1.44,.96,.79,.27,1.65,.31,2.46,.13-.64-.73-.8-1.75-.95-2.7-.35-2.36-.71-4.75-.45-7.13Z"/></clipPath></defs><g id="a"/><g id="b"><g id="c"><g><g><path class="h" d="M3.54,.09H37.39c1.9,0,3.45,1.55,3.45,3.45V58.74c0,1.9-1.55,3.45-3.45,3.45H3.54c-1.9,0-3.45-1.55-3.45-3.45V3.54C.09,1.64,1.64,.09,3.54,.09Z"/><path class="p" d="M37.39,62.29H3.54c-1.95,0-3.54-1.59-3.54-3.54V3.54C0,1.59,1.59,0,3.54,0H37.39c1.95,0,3.54,1.59,3.54,3.54V58.74c0,1.95-1.59,3.54-3.54,3.54ZM3.54,.19C1.69,.19,.19,1.69,.19,3.54V58.74c0,1.85,1.51,3.36,3.36,3.36H37.39c1.85,0,3.36-1.51,3.36-3.36V3.54c0-1.85-1.51-3.36-3.36-3.36H3.54Z"/></g><g><path class="m" d="M17.09,34.68c.57-.3,1.14-.61,1.7-.91,2.47-1.32,4.98-2.67,6.92-4.48,1.33-1.24,2.36-2.68,3.37-4.1,.7-.97,1.39-1.95,2.09-2.92,.17-.01,.1,.24,.27,.22,.41,1.07,2.04,1.4,2.72,2.38,.31,.44,.47,.94,.62,1.44,.51,1.74,.98,6.56,.35,13.77-.38,4.34-2.8,5.1-3.83,4.52-.82-.45-3.21-5.88-4.21-5.82-2.73,.18-5.5-.35-7.94-1.36-.63-.26-1.26-.57-1.7-1.02-.44-.45-.63-1.2-.35-1.72Z"/><path class="m" d="M7.15,25.51c-.58,.74-.82,1.62-1,2.48-.5,2.39-.27,4.82-.02,7.24,.76,7.5,1.58,9.16,2.7,9.3,2.99,.39,4.56-5.73,7.58-5.69,2.83,.04,5.75,.33,8.43-.39,.12-.39-.28-.75-.64-1.03-.94-.71-1.89-1.42-2.94-2.02-2.69-1.53-5.89-2.18-8.72-4.42-3.02-2.4-4.27-5.1-5.39-5.47Z"/><path class="m" d="M24.14,27.64c-.57,.3-1.14,.61-1.7,.91-2.47,1.32-4.98,2.67-6.92,4.48-1.33,1.24-2.36,2.68-3.37,4.1-.7,.97-1.39,1.95-2.09,2.92-.17,.01-.1-.24-.27-.22-.41-1.07-2.04-1.4-2.72-2.38-.31-.45-.47-.94-.62-1.44-.51-1.74-.92-6.9-.29-14.11,.38-4.34,3.37-4.35,3.77-4.18,1.83,.77,3.21,5.89,4.21,5.82,2.73-.18,5.51,.35,7.95,1.36,.63,.26,1.26,.56,1.7,1.02,.44,.45,.63,1.2,.35,1.72Z"/><path class="m" d="M34.08,36.81c.58-.74,.82-1.62,1-2.48,.5-2.39,.27-4.82,.02-7.24-.76-7.5-.74-9.41-2.74-9.51-3.44-.17-4.52,5.93-7.54,5.89-2.83-.04-5.75-.33-8.43,.39-.12,.39,.27,.75,.64,1.03,.94,.71,1.89,1.42,2.94,2.02,2.68,1.53,5.89,2.18,8.71,4.42,3.02,2.4,4.27,5.1,5.39,5.47Z"/><path class="o" d="M20.93,17.2c.36-.07,.74-.13,1.09-.04,.38,.09,.69,.33,.94,.58,.29,.29,.54,.6,.74,.94,.1,.17,.19,.34,.36,.47,.22,.18,.54,.25,.83,.31,1.62,.37,3.19,.89,4.66,1.55,.76,.34,1.51,.74,1.97,1.34,.07,.09,.13,.18,.13,.29,.01,.27-.34,.44-.63,.56-3.58,1.51-5.51,4.75-8.73,6.72-.9,.55-2.1,1.01-3.12,.63-.39-.14-.7-.4-1.01-.64-1.51-1.23-3.03-2.46-4.54-3.69-.51-.42-1.03-.83-1.63-1.16-.82-.44-1.8-.7-2.49-1.26-.22-.18-.51-.4-.78-.28-.08-.18,.06-.36,.21-.51,1.64-1.66,4.3-2.54,6.94-2.62,.29,0,.61-.01,.85-.16,.52-.32,.25-.99,.51-1.47,.16-.28,.5-.47,.83-.63,.89-.42,1.86-.74,2.87-.94Z"/><path class="v" d="M7.64,32.82c.06,.05,.13,.1,.15,.17,.04,.12-.05,.23-.11,.34-.23,.43-.03,1.01,.37,1.3,.4,.29,.94,.32,1.41,.2,.48-.12,.91-.38,1.32-.63,1.71-1.04,3.38-2.13,5.02-3.28,.09-.06,.19-.15,.18-.26,0-.09-.08-.16-.15-.21-2.14-1.76-4.34-3.55-6.97-4.43-.46-.15-1.04-.24-1.35,.12-.15,.18-.19,.42-.2,.65-.02,.46,.07,.93,.26,1.35-.68,.58-1.08,1.46-1.07,2.35,.01,.89,.43,1.77,1.12,2.33Z"/><path class="v" d="M33.82,32.82c-.06,.05-.12,.1-.15,.17-.04,.12,.05,.23,.11,.34,.23,.43,.03,1.01-.37,1.3-.4,.29-.94,.32-1.41,.2-.48-.12-.9-.38-1.32-.63-1.7-1.04-3.38-2.13-5.02-3.28-.09-.06-.19-.15-.19-.26,0-.09,.08-.16,.15-.21,2.14-1.76,4.34-3.55,6.97-4.43,.46-.15,1.04-.24,1.35,.12,.15,.18,.19,.42,.2,.65,.02,.46-.07,.93-.26,1.35,.68,.58,1.08,1.46,1.07,2.35-.01,.89-.44,1.77-1.13,2.33Z"/><path class="t" d="M19.94,30.32s-.1,.05-.15,.05c-.07,0-.13-.03-.18-.06-1.05-.63-1.85-1.52-2.27-2.51,1.62,0,3.25-.36,4.85-.15-.48,.62-.95,1.23-1.43,1.85-.23,.3-.47,.61-.83,.82Z"/><path class="r" d="M6.97,25.13c-.17-.45,.02-.92,.3-1.35,.38-.6,1.1-1.17,2.18-1.36,.41-.07,.85-.08,1.29-.07,1.76,.06,3.4,.51,4.62,1.22,1.87,1.09,2.37,1.8,3.59,3.23,.12,.14,.34,.37,.57,.54,.1,.07,.3,.06,.36-.03,.46-.61,.96-1.23,1.63-1.77,1.6-1.31,4.08-2.52,6.57-3.28,2.4-.72,3.6-.36,4.09-.21,1.21,.37,2.09,1.53,1.94,2.35-.05,.27-.61,1.27-.79,1.53-.73,1.05-1.55,1.64-3,2.75-.81,.62-2.34,1.41-2.97,1.72-1.92,.95-4.87,1.66-7.42,1.48-2.55-.18-4.39-.79-6.24-1.79-.54-.29-2.13-1.24-2.62-1.56-1-.66-3.68-2.29-4.1-3.39Z"/><path class="t" d="M7.94,28.86c-.36,1.01-.48,2.74,.31,3.6,.11,.12,.27,.12,.41,.05,.39-.18-.03-.77-.1-1-.24-.77-.4-1.76-.2-2.54,.07-.27-.32-.36-.41-.11h0Z"/><path class="t" d="M9.17,30.09c-.26,.59-.19,1.64,.33,2.08,.24,.2,.62-.05,.45-.35-.27-.48-.56-1.08-.51-1.65,.01-.14-.22-.21-.27-.07h0Z"/><path class="t" d="M10.56,31.13c.05,.35,.07,.88,.43,1.07,.18,.09,.41-.06,.35-.27-.05-.17-.19-.3-.29-.44-.1-.14-.19-.29-.26-.45-.06-.14-.25-.03-.23,.1h0Z"/><path class="t" d="M33.11,29.01c.2,.81,0,1.73-.2,2.52-.06,.24-.49,.81-.1,.99,.13,.06,.3,.06,.4-.05,.78-.86,.66-2.57,.3-3.56-.09-.25-.47-.15-.4,.11h0Z"/><path class="t" d="M31.85,30.58c.05,.57-.24,1.16-.5,1.64-.16,.29,.2,.54,.45,.34,.52-.44,.59-1.47,.33-2.05-.06-.13-.28-.07-.27,.07h0Z"/><path class="t" d="M30.56,31.41c-.07,.16-.16,.3-.26,.44-.1,.14-.24,.27-.29,.44-.06,.21,.17,.36,.35,.27,.36-.18,.38-.71,.42-1.05,.02-.12-.17-.24-.23-.1h0Z"/><g><path class="t" d="M20.59,34.59c1.28,0,2.35-1.07,2.35-2.35s-1.07-2.35-2.35-2.35-2.35,1.07-2.35,2.35,1.07,2.35,2.35,2.35h0Z"/><path class="s" d="M20.61,32.7c.74,0,.74-1.15,0-1.15s-.74,1.15,0,1.15h0Z"/><path class="v" d="M19.19,31.3h0c.07-.15,.01-.32-.14-.36-.15-.04-.3,.07-.3,.23h0c0,.24,.32,.35,.44,.13h0Z"/><path class="v" d="M19.69,31.89c.35,0,.35-.54,0-.54s-.35,.54,0,.54h0Z"/><path class="v" d="M21.44,31.87c.32,0,.32-.5,0-.5s-.32,.5,0,.5h0Z"/><path class="v" d="M22.03,31.41c.36,0,.36-.55,0-.55s-.36,.55,0,.55h0Z"/><path class="v" d="M19.9,33.19c.16,0,.29-.13,.29-.29s-.13-.29-.29-.29-.29,.13-.29,.29,.13,.29,.29,.29h0Z"/><path class="v" d="M19.27,33.79c.33,0,.33-.51,0-.51s-.33,.51,0,.51h0Z"/><path class="v" d="M21.52,33.19h.02c.16-.1,.16-.34,0-.44h-.02c-.17-.11-.39,.02-.39,.21s.22,.32,.39,.22h0Z"/><path class="v" d="M22.1,33.38s-.02-.01-.02-.02c-.12-.09-.29,.03-.29,.17s.17,.26,.29,.17c0,0,.02-.01,.02-.02,.11-.08,.11-.23,0-.31h0Z"/></g><path class="t" d="M16.8,31.14c.44,0,.44-.54,0-.54s-.44,.54,0,.54h0Z"/><path class="t" d="M17.54,31.88c.47,0,.47-.58,0-.58s-.47,.58,0,.58h0Z"/><path class="t" d="M23.4,32.22c.37,0,.37-.46,0-.46s-.37,.46,0,.46h0Z"/><path class="t" d="M24.31,31.68c.29,0,.29-.37,0-.37s-.29,.37,0,.37h0Z"/><path class="t" d="M25.08,31.22c.4,0,.4-.5,0-.5s-.4,.5,0,.5h0Z"/><path class="o" d="M20.3,45.12c-.36,.07-.74,.12-1.09,.04-.38-.09-.69-.33-.94-.58-.29-.29-.54-.6-.74-.94-.1-.17-.19-.34-.36-.47-.22-.18-.54-.24-.83-.31-1.62-.37-3.19-.89-4.66-1.55-.76-.34-1.51-.74-1.97-1.34-.07-.09-.13-.18-.13-.28-.01-.27,.34-.44,.63-.56,3.58-1.51,5.51-4.75,8.73-6.72,.9-.55,2.09-1.01,3.12-.63,.39,.14,.7,.4,1.01,.64,1.51,1.23,3.03,2.46,4.54,3.69,.51,.42,1.03,.83,1.63,1.16,.82,.44,1.8,.7,2.49,1.26,.22,.18,.51,.4,.78,.28,.08,.17-.06,.36-.21,.51-1.64,1.66-4.3,2.54-6.94,2.62-.29,0-.61,.01-.85,.16-.52,.31-.25,.99-.51,1.47-.16,.28-.5,.47-.83,.62-.89,.42-1.86,.74-2.87,.94Z"/><path class="t" d="M21.29,31.99s.09-.05,.15-.05c.07,0,.12,.03,.18,.06,1.05,.63,1.85,1.52,2.27,2.52-1.62,0-3.25,.36-4.85,.14,.48-.62,.95-1.23,1.43-1.85,.23-.3,.47-.61,.83-.82Z"/><path class="t" d="M32.24,31.55c.26-.59,.19-1.62-.33-2.06-.24-.2-.61,.05-.45,.34,.27,.48,.56,1.07,.5,1.64-.01,.14,.21,.21,.27,.07h0Z"/><path class="t" d="M30.86,30.51c-.05-.34-.07-.88-.42-1.05-.18-.09-.41,.06-.35,.27,.05,.17,.19,.3,.29,.44,.1,.14,.19,.29,.26,.45,.06,.14,.24,.03,.23-.1h0Z"/><path class="r" d="M34.27,37.15c.17,.49-.02,1.01-.3,1.48-.38,.65-1.1,1.28-2.18,1.49-.41,.08-.86,.09-1.29,.08-1.76-.06-3.4-.55-4.62-1.34-1.87-1.2-2.37-1.97-3.59-3.54-.12-.16-.34-.41-.57-.59-.1-.08-.3-.06-.36,.03-.46,.67-.96,1.35-1.63,1.94-1.6,1.43-4.08,2.77-6.57,3.59-2.4,.79-3.6,.4-4.09,.23-1.21-.4-2.09-1.67-1.94-2.58,.05-.3,.61-1.4,.79-1.68,.73-1.15,1.55-1.79,3-3.01,.81-.69,2.34-1.54,2.96-1.88,1.92-1.05,4.87-1.82,7.42-1.62,2.55,.2,4.39,.87,6.24,1.96,.54,.32,2.13,1.36,2.62,1.71,1,.72,3.68,2.51,4.1,3.72Z"/><path class="v" d="M34.46,23.82c.11,.15,.13,.46-.07,.71-.1,.12-.17,.25-.29,.35-3.24,2.65-6.06,3.58-10.16,6.25-1.08,.71-2.54,1.56-3.66,2.22-1.22,.71-2.37,1.55-3.55,2.32-1.78,1.21-3.56,2.41-5.33,3.61-.69,.49-1.44,.93-2.04,1.53-.2,.19-.43,.42-.7,.38-.16-.03-.29-.15-.4-.26-.67-.69-.9-1.36-1.13-2.91-.03-.2-.04-.37,.13-.51,4.22-3.79,8.49-6.37,13.35-9.35,.91-.56,1.83-1.11,2.75-1.65,2.59-1.55,4.89-2.75,7.48-4.3,.27-.16,.55-.32,.86-.29,.27,.03,.61,0,1.11,.31,.75,.45,1.05,.75,1.67,1.61Z"/><g><path class="t" d="M20.74,28.18c-1.28,0-2.35,1.07-2.35,2.35s1.07,2.35,2.35,2.35,2.35-1.07,2.35-2.35-1.07-2.35-2.35-2.35h0Z"/><path class="s" d="M20.72,30.07c-.74,0-.74,1.15,0,1.15s.74-1.15,0-1.15h0Z"/><path class="v" d="M22.15,31.47h0c-.07,.15-.01,.32,.14,.36,.15,.04,.3-.07,.3-.23h0c0-.24-.32-.34-.44-.13h0Z"/><path class="v" d="M21.64,30.88c-.35,0-.35,.54,0,.54s.35-.54,0-.54h0Z"/><path class="v" d="M19.9,30.9c-.32,0-.32,.5,0,.5s.32-.5,0-.5h0Z"/><path class="v" d="M19.3,31.36c-.36,0-.36,.55,0,.55s.36-.55,0-.55h0Z"/><path class="v" d="M21.43,29.58c-.16,0-.29,.13-.29,.29s.13,.29,.29,.29,.29-.13,.29-.29-.13-.29-.29-.29h0Z"/><path class="v" d="M22.06,28.98c-.33,0-.33,.51,0,.51s.33-.51,0-.51h0Z"/><path class="v" d="M19.82,29.58h-.02c-.16,.1-.16,.34,0,.43h.02c.17,.11,.39-.01,.39-.21s-.22-.32-.39-.22h0Z"/><path class="v" d="M19.23,29.38s.02,0,.02,.02c.13,.09,.29-.03,.29-.17s-.17-.25-.29-.17c0,0-.02,0-.02,.02-.11,.08-.11,.23,0,.31h0Z"/></g><path class="t" d="M9.56,31.06c-.05-.58,.24-1.17,.51-1.66,.17-.3-.21-.55-.45-.35-.53,.44-.59,1.49-.33,2.08,.06,.13,.29,.07,.27-.07h0Z"/><path class="t" d="M10.87,30.23c.07-.16,.16-.3,.26-.45,.1-.15,.24-.27,.29-.44,.06-.21-.17-.37-.35-.27-.36,.18-.38,.72-.43,1.06-.02,.13,.17,.24,.23,.1h0Z"/><path class="m" d="M19.77,43.11c.01-.24,0-.49-.02-.73,1.3-.19,2.62-.23,3.93-.13-.04,.17-.09,.33-.16,.49-.01,.03-.02,.06-.04,.08-.04,.04-.09,.04-.14,.04-1.19,.08-2.38,.17-3.57,.25Z"/><path class="s" d="M21.99,39.42c-.26,.04-.53,.05-.8,.03,.03,.36,.07,.7,.2,1.04-.12-.1-.15-.14-.3-.19-.15-.05-.33-.02-.42,.11-.06,.08-.09,.2-.06,.3,.12,.45,.75,1.14,1.06,1.51,.25-.37,.49-.75,.74-1.12,.07-.11,.15-.22,.21-.33,.14-.25,.03-.49-.3-.55-.1-.02-.22,.04-.31,.09-.09,.05-.14,.13-.19,.15-.03,.01,.07-.19,.09-.33,.04-.23,.14-.6,.08-.7Z"/><path class="s" d="M25.8,55.04c.15-.7,.25-1.41,.29-2.12,.03-.4,.04-.81,0-1.21-.04-.36-.13-.71-.18-1.06-.11-.73-.06-1.48-.02-2.22,.14-2.62,.15-5.24,.03-7.86-.03-.62,0-1.25,.08-1.87,.08-.67,.13-1.36,.36-2,.22-.61,.59-1.46,1.17-1.51,.02-.02,.03-.04,.05-.06,0-.1-.29-.18-.47-.16-2.14,.19-2.79,1.21-3.17,2.57-.48,1.69-.64,2.78-.78,4.18-.15,1.54-.26,3.08-.13,4.62,.11,1.34,.4,2.67,.69,3.98,.12,.54,.24,1.08,.36,1.62,.15,.7,.31,1.41,.55,2.08,.18,.51,.56,1.08,1.1,1.01,.02-.06,.04-.13,.06-.19l.02,.2Z"/><path class="s" d="M16.36,43.06c-.08,.76-.22,1.51-.31,2.27-.12,1.05-.13,2.11-.13,3.16,0,.82,.01,1.64,.03,2.46,0,.48,.02,.95,.11,1.42,.29,1.62,1.51,3.04,3.07,3.58,.47,.16,1.1,.2,1.36-.23,.24-.39,0-.88-.12-1.31-.12-.44-.13-.89-.13-1.34-.06-5.56,.13-11.14-.67-16.64-.11-.74-.25-1.52-.71-2.11-.36-.46-.89-.77-1.44-.96-.79-.27-1.65-.32-2.46-.13,.63,.73,.8,1.75,.95,2.7,.35,2.36,.71,4.75,.45,7.13Z"/><g class="l"><path class="v" d="M28.13,34.83c-1.5,.19-2.34,1.05-2.91,2.42-.39,.94-.43,2-.47,3-.06,1.39-.04,2.82,.05,4.21,0,.11,.16,.11,.16,0,.2-3.1-1.05-8.64,3.18-9.49,.08-.02,.06-.15-.02-.14h0Z"/><path class="v" d="M26.74,34.72c-1.34-.18-2.3,1.74-2.66,2.77-.16,.45-.11,.99-.14,1.46-.03,.5-.15,.99-.19,1.5-.1,1.19-.2,2.47-.16,3.66,0,.06,.09,.07,.1,.02,.25-1.62,.21-3.26,.4-4.88,.12-1.01,.19-1.83,.69-2.74,.45-.81,1.03-1.5,1.97-1.71,.04,0,.03-.06,0-.07h0Z"/></g><g class="k"><path class="v" d="M18.94,48.55c.5-1.12,.41-2.68,.54-3.9,.2-1.79,.1-3.63-.02-5.42-.14-2.18-.61-5.99-3.09-6.8-.03-.01-.05,.03-.02,.05,2.41,1.67,2.77,4.82,2.91,7.54,.08,1.42,.13,2.85,.03,4.27-.06,.73-.16,1.47-.24,2.2-.07,.63,0,1.44-.16,2.04,0,.03,.04,.05,.05,.02h0Z"/><path class="v" d="M18.1,48.05c.55-1.47,.61-3.34,.63-4.89,.02-1.67-.11-3.34-.36-4.98-.34-2.2-1.15-4.98-3.7-5.31-.07,0-.09,.1-.04,.13,1.22,.56,2.1,1.29,2.62,2.56,.46,1.12,.7,2.4,.86,3.59,.39,3.03,.11,5.88-.15,8.89,0,.09,.12,.09,.14,.02h0Z"/><path class="v" d="M16.99,47.5c.63-.14,.6-1.19,.65-1.69,.19-1.88,.14-3.71-.08-5.59-.35-2.96-1.17-5.8-3.78-7.5-.09-.06-.18,.06-.14,.14,.19,.4,.48,.64,.82,.92,.55,.45,.99,.96,1.37,1.56,.78,1.22,1.07,2.79,1.32,4.2,.26,1.45,.33,2.93,.3,4.4,0,.67-.07,1.33-.14,2-.04,.49,.01,1.11-.37,1.48-.03,.03,0,.09,.04,.08h0Z"/><path class="v" d="M16.58,46.29c.53-2.49,.49-5.4-.75-7.7-.02-.04-.1-.01-.08,.04,.94,2.38,.81,5.14,.72,7.64,0,.06,.09,.08,.11,.02h0Z"/></g><path class="j" d="M19.65,55.08c.4,.41,.82,.83,1.36,1.02,.25,.09,.52,.12,.78,.16,1.15,.15,2.37,.3,3.44-.16,.12-.05,.24-.11,.33-.2,.1-.1,.17-.23,.22-.37,.43-1.11,.16-2.37-.29-3.48-.05-.14-.11-.28-.12-.42-.01-.26,.13-.49,.27-.71,.83-1.3,1.6-2.7,1.8-4.22,.01-.08-.03-.17-.11-.19-.23-.08-.5,.02-.73,.12-.41,.18-.82,.36-1.24,.55-.04-1.31-.27-2.62-.68-3.86-.06-.2-.14-.41-.3-.54-.31-.27-.79-.16-1.16,.02-.61,.29-1.14,.72-1.66,1.15-.35,.29-.71,.58-.99,.94-.31,.4-.52,.86-.71,1.33-.91,2.32-1.26,4.87-1,7.35,.02,.21,.05,.43,.13,.64,.13,.35,.4,.62,.66,.89Z"/><path class="v" d="M23.73,46.02c.23-.02,1.26,.03,1.54,.15,.19,.08,.31-.07,.36-.14,.06-.09-.04-.21-.15-.24-.11-.03-.13-.03-.23-.09,.1-.12,.2-.17,.2-.32,0-.11-.13-.19-.24-.18s-.21,.07-.31,.13c-.41,.26-.73,.52-1.18,.69Z"/><path class="s" d="M23.95,46.94c-.12-.18-.34-.15-.45-.03-.12,.12,0,.35,.16,.36,.17,0,.3-.16,.29-.33Z"/><path class="h" d="M20.41,51.85c.31-.2,.61-.39,.95-.53,.9-.36,1.97-.24,2.77,.31-.18,.39-.6,.63-1.01,.76-.92,.28-2,.11-2.71-.54Z"/><path class="s" d="M22.12,51.47c-.19,.04-.33,.24-.3,.44,.03,.2,.22,.35,.42,.33,.13-.01,.56-.1,.45-.52-.04-.14-.21-.21-.36-.24-.07-.01-.14-.02-.2,0Z"/><path class="s" d="M20.42,53.71c.42,.33,.97,.4,1.5,.42,.53,.02,1-.06,1.49-.2,.23-.07,.83-.29,1.09-.53,.32-.29,.27-.41,.08-.73-.04-.06-.11-.1-.18-.08-.17,.04-.35,.2-.48,.3-.75,.55-2.22,.86-3.35,.54-.18-.05-.29,.18-.15,.29Z"/><path class="m" d="M20.71,58.02c.12,.1,.25,.24,.18,.38-.04,.07-.03,.18-.11,.2-.96,.25-2.08,.18-3.02-.15-.94-.32-1.77-.98-2.23-1.85-.43-.8-.54-1.72-.59-2.62-.2-3.19,1.22-6.27-.64-9.94,1,.05,1.88,.73,2.6,1.42,.69,.67,1.05,.81,1.83,1.81,.08,.09,.62,.5,.6,.62-.08,.42-.23,.54-.35,1.56-.1,.86,.03,.97-.02,1.84-.08,1.19,.17,2.35,.25,3.54,.02,.33,.05,.66,.13,.98,.2,.86,.71,1.65,1.39,2.21Z"/><path class="v" d="M14.48,43.48c-.16-.07-.35-.05-.48,.05-.13,.11-.19,.3-.14,.46,.07,.2,.31,.31,.51,.24,.11-.04,.2-.13,.25-.24,.07-.13,.08-.29,0-.41-.04-.05-.08-.08-.14-.11Z"/><path class="r" d="M18.93,50.01c-.21,1.57-.33,3.14-.35,4.72,0,.55,0,1.1,.11,1.63,.1,.48,.3,.94,.49,1.4,.35,.83,.7,1.67,1.05,2.5,.63-.92,1.24-1.84,1.83-2.78,.24,1.04,.68,2.04,1.28,2.93,.32-.81,.74-2.02,1.06-2.83,.43,.64,.89,1.59,1.54,2.01,.25-1.45,.58-2.03,.47-3.93,0-.18-.3-1.26-.47-1.21-.05,.27-.09,.55-.21,.8-.07,.14-.16,.29-.31,.36-.21,.1-.48-.02-.63-.2-.15-.18-.21-.42-.27-.65-.3,.61-.91,1.04-1.57,1.16-.67,.12-1.38-.09-1.9-.51-.78-.63-1.1-1.66-1.38-2.62-.28-.95-.48-1.84-.75-2.79Z"/><path class="v" d="M26.04,60.88s.04-.04,.06-.07c.22-.4,.36-.84,.44-1.29-.38,.04-.76,.07-1.14,.11-.08,0,.62,1.26,.64,1.24Z"/><path class="v" d="M23.27,61.69s.05-.04,.06-.07c.24-.38,.42-.81,.52-1.25-.38,.01-.76,.03-1.14,.04-.08,0,.54,1.29,.56,1.29Z"/><path class="v" d="M20.03,61.5s.05-.04,.07-.06c.27-.37,.48-.78,.62-1.21-.38-.02-.76-.04-1.14-.05-.08,0,.43,1.33,.46,1.32Z"/><path class="s" d="M25.47,46.88c-.11,.07-.22,.1-.34,.18-.12,.08-.23,.17-.35,.25-.22,.17-.41,.39-.43,.68-.01,.19,.09,.4,.26,.49,.18,.1,.43,0,.43-.21,0-.04-.03-.07-.06-.09-.11-.03-.24,.06-.32-.05-.14-.19,.06-.42,.18-.55,.12-.12,.27-.22,.41-.33,.14-.11,.18-.19,.27-.34,.02-.04-.02-.08-.06-.06h0Z"/><path class="s" d="M21.39,47.78c-1.57-.36-2.57,1.19-2.5,2.61,0,.04,.07,.06,.08,0,.17-.76,.32-1.5,.91-2.06,.39-.37,.97-.52,1.49-.45,.06,0,.07-.09,.02-.11h0Z"/><path class="t" d="M25.21,56.41c.05,.25,.06,.52,.08,.77,.01,.22-.05,.43,0,.65,.07,.32,.61,.25,.57-.08-.06-.51-.23-.94-.42-1.41-.05-.14-.26-.09-.22,.06h0Z"/><path class="t" d="M23.4,56.61c-.16,.51-.36,1.07-.35,1.61,0,.2,.29,.36,.43,.18,.16-.21,.13-.43,.15-.68,.02-.35,.1-.71,.13-1.06,.02-.21-.31-.24-.37-.05h0Z"/><path class="t" d="M20.87,56.2c-.3,.24-.38,.55-.55,.88-.16,.33-.38,.63-.3,1.01,.08,.36,.54,.29,.66,0,.23-.59,.41-1.15,.44-1.79,0-.14-.16-.18-.25-.11h0Z"/><path class="v" d="M18.12,57.69c0-.07,0-.14-.03-.21-.05-.13-.23-.05-.17,.07,.02,.04,.02,.09,.02,.14,0,.12,.18,.12,.18,0h0Z"/><path class="v" d="M16.76,56.21c.01-.1,.01-.2-.02-.3-.06-.18-.33-.07-.25,.1,.03,.05,.03,.11,.03,.16,0,.13,.22,.17,.24,.03h0Z"/><path class="v" d="M17.9,54.32c.03-.1,.01-.2,0-.3-.03-.2-.34-.12-.3,.08,.02,.1,.05,.19,.11,.27,.06,.07,.17,.02,.19-.05h0Z"/><path class="v" d="M15.55,54.22c.03-.09,0-.21,0-.31-.02-.16-.27-.09-.24,.07,.01,.09,.04,.21,.1,.28,.05,.05,.12,.02,.14-.04h0Z"/><path class="v" d="M16.44,52.31c.04-.12,.04-.28-.03-.4-.04-.07-.17-.04-.16,.05,0,.11,.05,.2,.01,.3-.04,.11,.14,.16,.18,.05h0Z"/><path class="v" d="M18.03,51.38c.01-.13,.07-.26,.02-.39-.04-.12-.25-.15-.27,0-.03,.16,.02,.32,.13,.44,.05,.05,.12,0,.12-.05h0Z"/><path class="v" d="M16.81,49.24c.03-.12,.06-.25,.03-.38-.03-.13-.23-.13-.26,0-.04,.15,0,.3,.1,.41,.04,.05,.12,.02,.13-.04h0Z"/><path class="v" d="M18.75,47.78c.02-.11,.02-.2,0-.32-.01-.08-.12-.13-.19-.11-.09,.02-.12,.11-.11,.19,.02,.11,.07,.2,.16,.27,.04,.03,.12,.03,.13-.03h0Z"/><path class="v" d="M15.48,50.27c0-.12,.03-.21-.04-.31-.02-.03-.06-.03-.09,0-.07,.1-.08,.2-.09,.31-.02,.14,.21,.14,.22,0h0Z"/><path class="v" d="M15.88,46.37c-.04-.14,.03-.29-.02-.43-.04-.11-.17-.1-.21,0-.06,.15,0,.36,.08,.49,.05,.08,.17,.03,.15-.06h0Z"/><path class="v" d="M22.63,42.67h.02c.11,.05,.21-.07,.18-.17-.03-.1-.17-.15-.25-.06h-.01c-.07,.09-.04,.2,.06,.24h0Z"/><path class="v" d="M22.14,42.39c-.23,0-.23,.35,0,.35s.23-.35,0-.35h0Z"/><path class="v" d="M21.62,42.42c-.22,0-.22,.35,0,.35s.22-.35,0-.35h0Z"/><path class="v" d="M21.02,42.47c-.25,0-.25,.39,0,.39s.25-.39,0-.39h0Z"/><path class="v" d="M20.47,42.51c-.22,0-.22,.35,0,.35s.22-.35,0-.35h0Z"/><path class="v" d="M26.03,55.17c-.15,0-.15,.24,0,.24s.15-.24,0-.24h0Z"/><path class="v" d="M25.73,55.64c-.16,0-.16,.26,0,.26s.17-.26,0-.26h0Z"/><path class="v" d="M25.15,55.82c-.19,0-.19,.3,0,.3s.19-.3,0-.3h0Z"/><path class="v" d="M24.62,55.68c-.23,0-.23,.35,0,.35s.23-.35,0-.35h0Z"/><path class="v" d="M24.48,55.24c-.2,0-.2,.31,0,.31s.2-.31,0-.31h0Z"/><path class="v" d="M24.07,55.61c-.19,0-.19,.3,0,.3s.2-.3,0-.3h0Z"/><path class="v" d="M23.57,55.87c-.24,0-.24,.37,0,.37s.24-.37,0-.37h0Z"/><path class="v" d="M23.02,56.03c-.22,0-.22,.34,0,.34s.22-.34,0-.34h0Z"/><path class="v" d="M22.42,56.12c-.22,0-.22,.35,0,.35s.23-.35,0-.35h0Z"/><path class="v" d="M21.84,56c-.22,0-.22,.34,0,.34s.22-.34,0-.34h0Z"/><path class="v" d="M21.27,55.76c-.26,0-.26,.41,0,.41s.26-.41,0-.41h0Z"/><path class="v" d="M20.75,55.5c-.23,0-.23,.36,0,.36s.24-.36,0-.36h0Z"/><path class="v" d="M20.32,55.06c-.21,0-.21,.32,0,.32s.21-.32,0-.32h0Z"/><path class="v" d="M20.05,54.63c-.18,0-.18,.28,0,.28s.18-.28,0-.28h0Z"/><path class="v" d="M19.82,54.07c-.19,0-.19,.3,0,.3s.19-.3,0-.3h0Z"/><path class="v" d="M19.64,53.57c-.2,0-.2,.32,0,.32s.2-.32,0-.32h0Z"/><path class="v" d="M19.5,53.02c-.17,0-.17,.27,0,.27s.17-.27,0-.27h0Z"/><path class="v" d="M19.34,52.5c-.15,0-.15,.23,0,.23s.15-.23,0-.23h0Z"/><path class="v" d="M19.15,51.84c-.23,0-.23,.36,0,.36s.23-.36,0-.36h0Z"/><path class="v" d="M18.98,51.35c-.18,0-.18,.28,0,.28s.18-.28,0-.28h0Z"/><path class="r" d="M20.16,52.03c.3,0,.77,.27,1.06,.38,.39,.16,.77,.21,1.19,.22,.72,.02,1.5-.26,1.85-.92,.07-.13-.11-.23-.2-.12-.69,.99-1.94,.84-2.93,.46-.34-.13-.65-.29-.99-.09-.03,.02-.01,.06,.02,.06h0Z"/><path class="m" d="M21.46,19.21c-.01,.24,0,.48,.02,.73-1.3,.19-2.62,.23-3.93,.13,.04-.17,.09-.33,.16-.49,.01-.03,.02-.05,.05-.08,.04-.03,.09-.04,.14-.04,1.19-.08,2.38-.17,3.57-.25Z"/><path class="s" d="M19.24,22.9c.26-.04,.53-.05,.8-.03-.03-.36-.07-.7-.2-1.04,.12,.1,.15,.14,.3,.19,.15,.04,.33,.02,.42-.11,.06-.09,.09-.2,.06-.3-.12-.45-.75-1.14-1.06-1.51-.25,.37-.49,.75-.74,1.12-.07,.11-.15,.22-.21,.33-.14,.25-.03,.49,.3,.55,.1,.02,.22-.04,.31-.09,.09-.05,.14-.13,.19-.15,.03-.01-.07,.19-.09,.33-.04,.23-.14,.6-.08,.7Z"/><path class="s" d="M15.43,7.28c-.15,.7-.25,1.41-.29,2.12-.03,.4-.04,.81,0,1.21,.04,.36,.13,.71,.18,1.06,.11,.73,.06,1.48,.02,2.22-.14,2.62-.15,5.24-.03,7.86,.03,.62,0,1.25-.08,1.86-.08,.67-.13,1.36-.36,2-.22,.61-.59,1.47-1.17,1.51-.02,.02-.03,.04-.05,.06,0,.1,.29,.18,.47,.16,2.14-.19,2.79-1.21,3.17-2.57,.48-1.69,.64-2.78,.78-4.18,.15-1.54,.26-3.08,.13-4.62-.11-1.35-.4-2.67-.69-3.99-.12-.54-.24-1.08-.36-1.62-.15-.7-.31-1.41-.55-2.08-.18-.51-.57-1.08-1.1-1.01-.02,.06-.04,.13-.06,.19l-.02-.2Z"/><path class="s" d="M24.87,19.26c.08-.76,.22-1.51,.31-2.27,.12-1.05,.13-2.11,.13-3.16,0-.82,0-1.64-.03-2.46,0-.48-.02-.96-.11-1.43-.29-1.62-1.51-3.04-3.07-3.58-.47-.16-1.1-.19-1.36,.23-.24,.39,0,.88,.12,1.31,.12,.43,.13,.89,.13,1.34,.06,5.56-.13,11.14,.67,16.64,.11,.74,.25,1.52,.71,2.11,.36,.46,.89,.77,1.44,.96,.79,.27,1.65,.31,2.46,.13-.64-.73-.8-1.75-.95-2.7-.35-2.36-.71-4.75-.45-7.13Z"/><g class="q"><path class="v" d="M13.1,27.49c1.5-.19,2.34-1.05,2.91-2.42,.39-.94,.43-2,.47-3,.06-1.39,.04-2.82-.05-4.21,0-.11-.16-.11-.16,0-.2,3.1,1.05,8.65-3.18,9.49-.08,.02-.06,.15,.02,.14h0Z"/><path class="v" d="M14.49,27.6c1.34,.18,2.3-1.74,2.66-2.77,.16-.45,.11-.99,.14-1.46,.03-.5,.15-1,.19-1.5,.1-1.19,.2-2.47,.16-3.67,0-.06-.09-.07-.1-.01-.25,1.62-.21,3.26-.4,4.88-.12,1.01-.19,1.83-.69,2.74-.45,.81-1.03,1.5-1.97,1.71-.04,0-.03,.06,0,.07h0Z"/></g><g class="u"><path class="v" d="M22.29,13.77c-.5,1.12-.41,2.68-.54,3.9-.2,1.79-.1,3.63,.02,5.42,.15,2.18,.61,5.99,3.09,6.8,.03,0,.05-.04,.02-.05-2.41-1.67-2.77-4.82-2.91-7.54-.08-1.42-.14-2.86-.03-4.27,.06-.73,.16-1.47,.24-2.2,.07-.63,0-1.44,.16-2.04,0-.03-.04-.05-.05-.02h0Z"/><path class="v" d="M23.13,14.27c-.55,1.46-.61,3.34-.63,4.89-.02,1.67,.11,3.34,.36,4.98,.34,2.2,1.15,4.98,3.7,5.31,.07,0,.09-.1,.03-.13-1.22-.56-2.1-1.29-2.62-2.56-.45-1.12-.7-2.4-.86-3.58-.39-3.03-.11-5.88,.15-8.89,0-.09-.12-.09-.14-.02h0Z"/><path class="v" d="M24.25,14.82c-.63,.13-.6,1.19-.65,1.69-.19,1.88-.14,3.71,.08,5.59,.35,2.96,1.17,5.8,3.78,7.5,.09,.06,.18-.05,.14-.14-.19-.4-.48-.64-.82-.92-.55-.45-.99-.96-1.37-1.56-.78-1.22-1.07-2.79-1.32-4.2-.26-1.45-.33-2.93-.3-4.4,0-.67,.07-1.33,.14-2,.05-.49-.01-1.11,.37-1.49,.03-.03,0-.08-.04-.07h0Z"/><path class="v" d="M24.65,16.03c-.53,2.49-.49,5.4,.75,7.69,.02,.05,.1,.01,.08-.03-.94-2.38-.81-5.14-.72-7.65,0-.06-.09-.07-.11-.01h0Z"/></g><path class="j" d="M21.59,7.24c-.4-.41-.82-.83-1.36-1.02-.25-.09-.52-.12-.78-.16-1.15-.16-2.37-.3-3.44,.16-.12,.05-.24,.11-.33,.2-.1,.1-.17,.23-.22,.37-.43,1.11-.16,2.37,.29,3.48,.06,.14,.11,.28,.12,.42,.01,.26-.13,.49-.27,.71-.83,1.3-1.6,2.7-1.8,4.22-.01,.08,.03,.17,.11,.19,.22,.08,.5-.02,.73-.12,.41-.18,.83-.36,1.24-.54,.04,1.31,.27,2.61,.68,3.86,.06,.2,.14,.41,.3,.55,.31,.27,.79,.16,1.16-.02,.61-.29,1.14-.72,1.66-1.15,.35-.29,.71-.58,.99-.94,.31-.4,.52-.86,.71-1.33,.91-2.32,1.26-4.87,1-7.35-.02-.22-.05-.43-.13-.64-.13-.35-.4-.62-.66-.89Z"/><path class="v" d="M17.51,16.3c-.23,.02-1.26-.03-1.54-.15-.19-.08-.31,.07-.36,.14-.06,.09,.04,.21,.15,.24,.11,.03,.13,.03,.23,.09-.1,.12-.2,.17-.2,.32,0,.11,.13,.19,.24,.19,.11,0,.21-.07,.31-.13,.41-.26,.73-.52,1.18-.69Z"/><path class="s" d="M17.29,15.38c.12,.18,.34,.15,.45,.04,.12-.12,0-.35-.16-.36-.16-.01-.3,.16-.29,.33Z"/><path class="h" d="M20.82,10.47c-.31,.2-.61,.39-.95,.53-.9,.36-1.97,.24-2.77-.31,.18-.39,.6-.63,1.01-.76,.92-.29,2-.11,2.71,.54Z"/><path class="s" d="M19.11,10.84c.19-.04,.33-.24,.3-.44-.03-.19-.23-.35-.42-.33-.13,.01-.56,.1-.45,.52,.04,.14,.21,.21,.36,.24,.07,.01,.14,.02,.2,0Z"/><path class="s" d="M20.81,8.61c-.42-.33-.97-.4-1.5-.42-.53-.01-1,.06-1.49,.21-.23,.07-.83,.29-1.09,.53-.32,.29-.27,.4-.08,.73,.04,.06,.11,.1,.18,.08,.17-.04,.35-.21,.49-.3,.75-.55,2.22-.86,3.35-.53,.18,.05,.29-.18,.15-.29Z"/><path class="m" d="M20.52,4.3c-.12-.1-.25-.24-.18-.38,.04-.07,.03-.18,.12-.2,.96-.25,2.08-.18,3.02,.15,.94,.32,1.77,.98,2.23,1.85,.43,.8,.54,1.72,.59,2.62,.2,3.19-1.21,6.27,.64,9.94-1-.05-1.88-.73-2.6-1.42-.69-.67-1.05-.81-1.83-1.81-.07-.1-.62-.5-.6-.62,.08-.42,.23-.54,.35-1.55,.1-.87-.03-.97,.02-1.84,.08-1.19-.17-2.35-.25-3.54-.02-.33-.05-.66-.13-.98-.2-.86-.71-1.64-1.39-2.21Z"/><path class="v" d="M26.76,18.84c.16,.07,.35,.05,.48-.05,.13-.11,.19-.3,.14-.46-.07-.2-.32-.31-.51-.24-.11,.04-.2,.13-.26,.24-.06,.13-.08,.3,0,.41,.04,.05,.08,.08,.14,.11Z"/><path class="r" d="M22.3,12.31c.21-1.56,.33-3.14,.35-4.72,0-.55,0-1.1-.11-1.63-.11-.48-.3-.94-.49-1.4-.35-.83-.7-1.67-1.05-2.5-.63,.91-1.24,1.84-1.83,2.78-.24-1.04-.68-2.04-1.28-2.93-.32,.81-.74,2.02-1.06,2.83-.43-.64-.89-1.59-1.54-2.01-.25,1.45-.59,2.03-.47,3.93,.01,.18,.3,1.26,.47,1.21,.05-.27,.09-.55,.21-.8,.07-.14,.16-.29,.31-.36,.21-.1,.48,.01,.63,.2,.15,.18,.21,.42,.27,.65,.3-.61,.91-1.04,1.57-1.16,.67-.12,1.37,.08,1.9,.51,.78,.63,1.1,1.66,1.38,2.62,.28,.95,.48,1.84,.75,2.79Z"/><path class="v" d="M15.19,1.43s-.04,.04-.06,.07c-.22,.4-.36,.84-.44,1.29,.38-.04,.76-.08,1.13-.11,.08,0-.62-1.26-.64-1.25Z"/><path class="v" d="M17.96,.63s-.05,.04-.06,.07c-.24,.39-.42,.81-.52,1.26,.38-.01,.76-.03,1.14-.04,.08,0-.54-1.29-.56-1.28Z"/><path class="v" d="M21.21,.82s-.05,.04-.07,.06c-.27,.37-.48,.78-.62,1.21,.38,.02,.76,.03,1.14,.05,.08,0-.43-1.33-.46-1.32Z"/><path class="s" d="M15.76,15.43c.11-.07,.22-.1,.34-.18,.12-.08,.23-.17,.35-.25,.22-.17,.41-.39,.43-.68,.01-.19-.09-.4-.26-.49-.18-.1-.43,0-.43,.21,0,.04,.03,.07,.06,.08,.11,.03,.24-.06,.32,.04,.14,.19-.06,.42-.18,.55-.12,.12-.27,.22-.41,.33-.14,.11-.18,.19-.27,.34-.02,.04,.02,.08,.06,.06h0Z"/><path class="s" d="M19.84,14.54c1.57,.36,2.57-1.2,2.5-2.61,0-.05-.07-.06-.08-.01-.17,.76-.32,1.5-.91,2.06-.39,.37-.97,.52-1.5,.46-.06,0-.07,.09-.01,.11h0Z"/><path class="t" d="M16.02,5.91c-.06-.25-.06-.52-.08-.77-.01-.22,.05-.43,0-.65-.07-.31-.6-.25-.57,.08,.06,.51,.23,.94,.42,1.4,.05,.14,.26,.09,.22-.06h0Z"/><path class="t" d="M17.83,5.71c.15-.51,.36-1.07,.35-1.62,0-.2-.29-.36-.43-.18-.16,.21-.13,.43-.15,.68-.02,.35-.1,.71-.13,1.06-.02,.22,.31,.25,.37,.05h0Z"/><path class="t" d="M20.37,6.12c.3-.24,.38-.55,.55-.88,.16-.33,.38-.63,.3-1.01-.08-.36-.55-.29-.66,0-.23,.59-.41,1.15-.44,1.79,0,.14,.16,.18,.25,.11h0Z"/><path class="v" d="M23.11,4.63c0,.07,0,.14,.04,.21,.05,.13,.23,.05,.17-.07-.02-.05-.02-.09-.02-.14,0-.12-.18-.12-.18,0h0Z"/><path class="v" d="M24.48,6.11c-.01,.1-.01,.2,.02,.3,.06,.18,.33,.07,.25-.1-.03-.05-.03-.11-.03-.17,0-.13-.22-.17-.24-.03h0Z"/><path class="v" d="M23.33,8c-.03,.1-.01,.2,0,.3,.03,.2,.34,.12,.3-.08-.02-.1-.05-.19-.11-.26-.06-.07-.17-.03-.19,.05h0Z"/><path class="v" d="M25.68,8.1c-.03,.09,0,.21,0,.31,.02,.16,.27,.09,.24-.07-.02-.09-.04-.21-.1-.28-.05-.05-.12-.02-.14,.04h0Z"/><path class="v" d="M24.79,10.01c-.04,.12-.04,.28,.03,.4,.04,.07,.17,.04,.16-.04-.01-.11-.05-.2-.01-.3,.04-.11-.14-.16-.18-.05h0Z"/><path class="v" d="M22.94,11.21c-.01,.13-.07,.26-.02,.39,.04,.12,.25,.15,.27,0,.03-.16-.02-.32-.13-.44-.05-.05-.12,0-.12,.05h0Z"/><path class="v" d="M24.42,13.08c-.03,.12-.06,.25-.03,.38,.03,.13,.23,.13,.26,0,.04-.15,0-.3-.1-.41-.04-.05-.12-.02-.13,.04h0Z"/><path class="v" d="M22.48,14.54c-.02,.11-.02,.2,0,.31,.01,.08,.11,.13,.19,.11,.09-.02,.12-.11,.11-.19-.02-.11-.07-.2-.16-.27-.04-.03-.12-.03-.13,.04h0Z"/><path class="v" d="M25.75,12.05c0,.12-.03,.21,.04,.31,.02,.03,.06,.03,.09,0,.07-.1,.08-.2,.09-.31,.02-.14-.21-.14-.22,0h0Z"/><path class="v" d="M25.35,15.95c.03,.14-.03,.29,.02,.43,.04,.11,.17,.1,.21,0,.06-.14,0-.36-.08-.49-.05-.08-.17-.03-.15,.06h0Z"/><path class="v" d="M18.6,19.65h-.02c-.11-.05-.21,.07-.18,.17,.03,.1,.17,.15,.24,.06h.01c.07-.1,.04-.2-.06-.24h0Z"/><path class="v" d="M19.09,19.93c.23,0,.23-.35,0-.35s-.23,.35,0,.35h0Z"/><path class="v" d="M19.62,19.9c.22,0,.22-.34,0-.34s-.22,.34,0,.34h0Z"/><path class="v" d="M20.21,19.85c.25,0,.25-.39,0-.39s-.25,.39,0,.39h0Z"/><path class="v" d="M20.76,19.8c.22,0,.22-.34,0-.34s-.22,.34,0,.34h0Z"/><path class="v" d="M15.2,7.15c.15,0,.15-.24,0-.24s-.15,.24,0,.24h0Z"/><path class="v" d="M15.5,6.68c.16,0,.16-.26,0-.26s-.16,.26,0,.26h0Z"/><path class="v" d="M16.09,6.5c.19,0,.19-.3,0-.3s-.19,.3,0,.3h0Z"/><path class="v" d="M16.61,6.64c.23,0,.23-.36,0-.36s-.23,.36,0,.36h0Z"/><path class="v" d="M16.76,7.08c.2,0,.2-.31,0-.31s-.2,.31,0,.31h0Z"/><path class="v" d="M17.16,6.71c.19,0,.19-.3,0-.3s-.2,.3,0,.3h0Z"/><path class="v" d="M17.66,6.46c.24,0,.24-.38,0-.38s-.24,.38,0,.38h0Z"/><path class="v" d="M18.22,6.29c.22,0,.22-.33,0-.33s-.22,.33,0,.33h0Z"/><path class="v" d="M18.81,6.2c.22,0,.22-.35,0-.35s-.23,.35,0,.35h0Z"/><path class="v" d="M19.39,6.32c.22,0,.22-.34,0-.34s-.22,.34,0,.34h0Z"/><path class="v" d="M19.96,6.55c.26,0,.26-.41,0-.41s-.26,.41,0,.41h0Z"/><path class="v" d="M20.48,6.82c.23,0,.23-.36,0-.36s-.24,.36,0,.36h0Z"/><path class="v" d="M20.91,7.25c.21,0,.21-.32,0-.32s-.21,.32,0,.32h0Z"/><path class="v" d="M21.18,7.69c.18,0,.18-.28,0-.28s-.18,.28,0,.28h0Z"/><path class="v" d="M21.41,8.25c.19,0,.19-.3,0-.3s-.19,.3,0,.3h0Z"/><path class="v" d="M21.59,8.75c.2,0,.2-.32,0-.32s-.21,.32,0,.32h0Z"/><path class="v" d="M21.73,9.29c.17,0,.17-.26,0-.26s-.17,.26,0,.26h0Z"/><path class="v" d="M21.89,9.81c.15,0,.15-.23,0-.23s-.15,.23,0,.23h0Z"/><path class="v" d="M22.08,10.48c.23,0,.23-.35,0-.35s-.23,.35,0,.35h0Z"/><path class="v" d="M22.25,10.97c.18,0,.18-.28,0-.28s-.18,.28,0,.28h0Z"/><path class="r" d="M21.08,10.29c-.31,0-.77-.27-1.06-.38-.39-.15-.77-.21-1.19-.22-.72-.02-1.5,.26-1.85,.92-.07,.13,.11,.23,.2,.12,.69-.99,1.94-.84,2.93-.46,.34,.13,.65,.29,.99,.08,.03-.02,.02-.06-.01-.06h0Z"/><path class="r" d="M4.62,16.24s0,0,0,0c0,0,0,0,0,0h0Z"/><path class="r" d="M5.22,16.39h0s0,0,0,0h0Z"/><path class="r" d="M8.66,19.46s0,.02-.01,.03c-.06,.1-.02,.23,.08,.29l.03,.02c.18,.12,.41-.08,.35-.27-.06-.2-.33-.24-.44-.06h0Z"/><path class="r" d="M9.79,19.97s0,.04,0,.06c-.05,.29,.37,.42,.45,.12,0-.02,0-.04,.02-.06,.08-.3-.41-.42-.46-.12h0Z"/><path class="r" d="M9.77,19.12c.24,0,.24-.37,0-.37s-.24,.37,0,.37h0Z"/><path class="r" d="M8.22,21.39h-.01c.05,.04,.14,0,.17-.05v-.03c.05-.06,.04-.17-.04-.2-.01,0-.03-.01-.04-.02-.24-.1-.33,.28-.08,.3h0Z"/><path class="r" d="M7.57,20.32h.04c.17-.04,.15-.25,.04-.33,0,0-.02-.02-.03-.02-.26-.19-.45,.42-.05,.35h0Z"/><path class="r" d="M9.41,21.32l-.03,.02c-.09,.07-.04,.22,.07,.25,.01,0,.02,0,.04,0,.33,.08,.2-.51-.07-.28h0Z"/><path class="r" d="M8.8,20.71s.03-.02,.04-.03c.22-.12-.06-.44-.21-.21,0,.01-.02,.03-.03,.04-.09,.12,.08,.27,.2,.2h0Z"/><path class="r" d="M11.17,20.84s.01-.02,0-.02-.01,.02,0,.02h0Z"/><path class="r" d="M11.12,21.11c.23,0,.23-.36,0-.36s-.23,.36,0,.36h0Z"/><path class="r" d="M10.87,19.76c.22,0,.22-.35,0-.35s-.22,.35,0,.35h0Z"/><path class="r" d="M8.12,18.8s.03,.02,.04,.03c.03,.02,.09,.02,.12,0l.04-.03c.15-.11,.11-.37-.1-.37s-.25,.26-.1,.37h0Z"/><path class="r" d="M7.18,22.26c.28,0,.28-.43,0-.43s-.28,.43,0,.43h0Z"/><path class="r" d="M8.22,22.4s0,.04-.02,.06c-.01,.05,.04,.1,.09,.09,.02,0,.04-.01,.06-.02,.22-.06-.08-.36-.13-.13h0Z"/><path class="r" d="M6.77,23.52h-.05c-.22-.03-.22,.37,0,.34h.05c.22-.03,.22-.32,0-.34h0Z"/><path class="r" d="M6.62,27.4c.21,0,.21-.33,0-.33s-.21,.33,0,.33h0Z"/><path class="r" d="M7.02,28.05c.22,0,.22-.34,0-.34s-.22,.34,0,.34h0Z"/><path class="r" d="M6.55,28.62h-.1c-.05,.02-.05,.11,0,.12,.03,0,.06,0,.1,.01,.11,.02,.11-.15,0-.13h0Z"/><path class="r" d="M6.77,25.79s-.03,0-.04,0c-.24,.03-.16,.38,.04,.3,.01,0,.03,0,.04-.01,.15-.06,.14-.31-.04-.29h0Z"/><path class="r" d="M6.7,32.98s0-.03,0-.05c-.05-.46-.63,.13-.17,.17,.02,0,.03,0,.05,0,.06,0,.13-.06,.13-.13h0Z"/><path class="r" d="M7.17,33.56c.17,0,.17-.26,0-.26s-.17,.26,0,.26h0Z"/><path class="r" d="M6.67,34.77c.24,0,.24-.37,0-.37s-.24,.37,0,.37h0Z"/><path class="r" d="M7.36,35.24s.02-.02,.04-.02c.1-.06,.1-.19,0-.26-.01,0-.02-.02-.04-.03-.33-.22-.33,.53,0,.31h0Z"/><path class="r" d="M8.04,35.17s.02,.06,.03,.09c.03,.09,.16,.09,.2,0,.01-.03,.02-.06,.03-.09,.08-.22-.34-.22-.26,0h0Z"/><path class="r" d="M7.52,36.33c.19,0,.19-.3,0-.3s-.19,.3,0,.3h0Z"/><path class="r" d="M6.82,36.01c.16,0,.16-.25,0-.25s-.16,.25,0,.25h0Z"/><path class="r" d="M6.83,36.82h-.04c-.21,.04-.12,.4,.09,.33h.04c.21-.08,.12-.36-.09-.33h0Z"/><path class="r" d="M7.72,41.15c.21,0,.21-.33,0-.33s-.21,.33,0,.33h0Z"/><path class="r" d="M8.22,42.1c.21,0,.21-.33,0-.33s-.21,.33,0,.33h0Z"/><path class="r" d="M9.02,41.9c.21,0,.21-.33,0-.33s-.21,.33,0,.33h0Z"/><path class="r" d="M9.82,41.38c.19,0,.19-.3,0-.3s-.19,.3,0,.3h0Z"/><path class="r" d="M9.92,42.32c.18,0,.18-.28,0-.28s-.18,.28,0,.28h0Z"/><path class="r" d="M9.17,43.03c.19,0,.19-.3,0-.3s-.19,.3,0,.3h0Z"/><path class="r" d="M8.22,43.34c.2,0,.2-.31,0-.31s-.2,.31,0,.31h0Z"/><path class="r" d="M9.07,43.97c.17,0,.17-.27,0-.27s-.17,.27,0,.27h0Z"/><path class="r" d="M10.07,43.68c.19,0,.19-.29,0-.29s-.18,.29,0,.29h0Z"/><path class="r" d="M10.77,43.11c.22,0,.22-.34,0-.34s-.22,.34,0,.34h0Z"/><path class="r" d="M10.82,42.03c.18,0,.18-.29,0-.29s-.19,.29,0,.29h0Z"/><path class="r" d="M11.47,42.46c.16,0,.16-.24,0-.24s-.16,.24,0,.24h0Z"/><path class="r" d="M11.67,41.94c.14,0,.14-.22,0-.22s-.14,.22,0,.22h0Z"/><path class="r" d="M30.12,20.25c.28,0,.28-.43,0-.43s-.28,.43,0,.43h0Z"/><path class="r" d="M30.82,19.43c.25,0,.25-.39,0-.39s-.25,.39,0,.39h0Z"/><path class="r" d="M31.62,20.3c.28,0,.28-.43,0-.43s-.28,.43,0,.43h0Z"/><path class="r" d="M31.12,21.08c.25,0,.25-.39,0-.39s-.25,.39,0,.39h0Z"/><path class="r" d="M31.97,19.1c.15,0,.15-.24,0-.24s-.15,.24,0,.24h0Z"/><path class="r" d="M31.97,18.45c.15,0,.15-.23,0-.23s-.15,.23,0,.23h0Z"/><path class="r" d="M32.89,18.14s-.02,.01-.03,.02c-.13,.09-.07,.26,.08,.28,.01,0,.03,0,.04,0,.27,.04,.16-.47-.08-.31h0Z"/><path class="r" d="M33.07,19.42c.24,0,.24-.37,0-.37s-.24,.37,0,.37h0Z"/><path class="r" d="M32.51,19.95v.06c-.02,.05,.02,.1,.08,.09h.06c.24-.06-.09-.39-.14-.15h0Z"/><path class="r" d="M32.37,21.2c.28,0,.28-.43,0-.43s-.28,.43,0,.43h0Z"/><path class="r" d="M33.42,21.26c.23,0,.23-.35,0-.35s-.23,.35,0,.35h0Z"/><path class="r" d="M33.72,20.45c.28,0,.28-.43,0-.43s-.28,.43,0,.43h0Z"/><path class="r" d="M33.95,22.05s-.05,.02-.08,.04c-.07,.03-.07,.16,0,.2,.03,.01,.05,.02,.08,.04,.29,.14,.29-.4,0-.27h0Z"/><path class="r" d="M32.62,21.91c.17,0,.17-.26,0-.26s-.17,.26,0,.26h0Z"/><path class="r" d="M34.24,25.51s-.04,0-.06,0c-.39,.06,.16,.6,.21,.21v-.06c.03-.11-.05-.18-.15-.16h0Z"/><path class="r" d="M34.55,26.55c-.04,.14,.16,.22,.23,.1,.09-.16-.18-.27-.23-.1h0Z"/><path class="r" d="M34.79,27.95s0-.04-.01-.05c0-.05-.05-.09-.1-.1,0,0-.02,0-.03,0-.15-.04-.24,.14-.15,.25,.01,.02,.03,.03,.05,.03,.04,.01,.11,.04,.07,.01,.09,.06,.19-.04,.17-.13h0Z"/><path class="r" d="M34.93,32.45c-.05,.16,.18,.26,.27,.11,.11-.18-.2-.32-.27-.11h0Z"/><path class="r" d="M34.52,33.3c.15,0,.15-.24,0-.24s-.15,.24,0,.24h0Z"/><path class="r" d="M34.87,34.33c.19,0,.19-.3,0-.3s-.19,.3,0,.3h0Z"/><path class="r" d="M34.17,34.96c.23,0,.23-.35,0-.35s-.23,.35,0,.35h0Z"/><path class="r" d="M33.72,35.54c.14,0,.14-.22,0-.22s-.14,.22,0,.22h0Z"/><path class="r" d="M34.42,36.23c.25,0,.25-.39,0-.39s-.25,.39,0,.39h0Z"/><path class="r" d="M34.97,35.42c.18,0,.18-.28,0-.28s-.18,.28,0,.28h0Z"/><path class="r" d="M34.84,36.96s-.06,.02-.09,.03c-.09,.03-.09,.16,0,.19,.03,0,.06,.02,.09,.03,.21,.07,.21-.32,0-.25h0Z"/><path class="r" d="M34.72,38.75c.21,0,.21-.33,0-.33s-.21,.33,0,.33h0Z"/><path class="r" d="M34.22,39.53c.19,0,.19-.3,0-.3s-.19,.3,0,.3h0Z"/><path class="r" d="M34.68,40.17l.03,.02s.09,.04,.13,0c0,0,.02-.02,.03-.02,.27-.25-.45-.25-.18,0h0Z"/><path class="r" d="M33.82,40.49c.26,0,.26-.4,0-.4s-.26,.4,0,.4h0Z"/><path class="r" d="M32.57,40.75c.22,0,.22-.34,0-.34s-.22,.34,0,.34h0Z"/><path class="r" d="M33.12,41.66c.29,0,.29-.45,0-.45s-.29,.45,0,.45h0Z"/><path class="r" d="M34.17,41.66c.22,0,.22-.35,0-.35s-.22,.35,0,.35h0Z"/><path class="r" d="M33.43,42.47s-.02,.01-.03,.02c-.16,.09-.08,.32,.09,.32,.01,0,.03,0,.04,0,.3,.02,.19-.5-.09-.35h0Z"/><path class="r" d="M32.12,42.54c.26,0,.26-.41,0-.41s-.27,.41,0,.41h0Z"/><path class="r" d="M31.85,41.4c-.04,.13,.15,.22,.23,.1,.09-.15-.17-.27-.23-.1h0Z"/><path class="r" d="M31.02,42.06c.29,0,.29-.45,0-.45s-.29,.45,0,.45h0Z"/><path class="r" d="M31.62,43.47c.31,0,.31-.48,0-.48s-.31,.48,0,.48h0Z"/><path class="r" d="M30.82,42.85c.21,0,.21-.33,0-.33s-.21,.33,0,.33h0Z"/><path class="r" d="M32.52,43.94c.2,0,.2-.31,0-.31s-.2,.31,0,.31h0Z"/><path class="r" d="M30.37,41.82c.25,0,.25-.38,0-.38s-.25,.38,0,.38h0Z"/></g><g><path class="s" d="M35.44,50.65c0-.1,.04-.25,.04-.35s0-.21-.01-.31c-.04-.35-.16-.69-.43-.93,.24-.01,.84-.01,1.08,0-.27,.24-.39,.57-.43,.93-.01,.11-.01,.21-.01,.31,0,.1,.04,.25,.04,.35h-.28Z"/><path class="s" d="M35.53,50.26c-.21-.33-.59-.55-.98-.54-.39,.01-.77,.3-.84,.68-.07,.34,.1,.68,.33,.93,.23,.25,.55,.42,.84,.61,.29,.19,.7,.67,.7,.67,0,0,.45-.47,.7-.66,.27-.21,.61-.37,.84-.62,.23-.25,.4-.6,.33-.93-.08-.38-.45-.67-.84-.68-.39-.01-.76,.21-.98,.54h-.1Z"/></g><g><path class="s" d="M5.36,11.36c0,.1-.04,.25-.04,.35s0,.21,.01,.31c.04,.36,.16,.69,.43,.93-.24,.01-.84,.01-1.08,0,.27-.24,.39-.57,.43-.93,.01-.1,.01-.21,.01-.31,0-.1-.04-.25-.04-.35h.28Z"/><path class="s" d="M5.27,11.75c.21,.33,.59,.55,.98,.54,.39-.01,.77-.3,.84-.68,.07-.34-.1-.68-.33-.93-.23-.25-.55-.42-.84-.61-.29-.19-.7-.67-.7-.67,0,0-.45,.47-.7,.66-.27,.21-.61,.37-.84,.62-.23,.25-.4,.6-.33,.93,.08,.38,.45,.67,.84,.68,.39,.01,.76-.21,.98-.54h.1Z"/></g><path class="s" d="M4.96,7.93c-.74,0-1.32-.28-1.74-.85-.42-.56-.63-1.26-.63-2.1,0-.89,.22-1.62,.65-2.19,.43-.56,1-.85,1.71-.85s1.25,.27,1.69,.81c.44,.54,.66,1.25,.66,2.14,0,.74-.16,1.38-.5,1.93-.33,.55-.75,.9-1.27,1.03v.08c0,.42,.25,.63,.76,.63,.25,0,.46-.02,.66-.05v.58c-.19,.06-.39,.09-.59,.09-.44,0-.78-.09-1.02-.28-.24-.19-.37-.51-.4-.97Zm0-.59c.5,0,.9-.23,1.18-.69,.28-.46,.42-1.05,.42-1.77s-.15-1.32-.44-1.73c-.29-.41-.68-.62-1.17-.62s-.88,.22-1.17,.67c-.29,.45-.43,1.03-.43,1.75s.15,1.28,.44,1.72c.29,.44,.68,.66,1.17,.66Z"/><path class="s" d="M35.98,54.36c.74,0,1.32,.28,1.74,.85,.42,.56,.63,1.27,.63,2.11,0,.89-.22,1.62-.65,2.19-.44,.56-1.01,.85-1.71,.85s-1.25-.27-1.69-.81c-.44-.54-.66-1.25-.66-2.14,0-.74,.17-1.38,.5-1.93,.33-.55,.75-.9,1.27-1.03v-.08c0-.42-.25-.63-.76-.63-.24,0-.46,.02-.66,.05v-.58c.19-.06,.39-.09,.59-.09,.44,0,.78,.09,1.02,.28,.24,.19,.37,.51,.4,.97Zm0,.59c-.5,0-.89,.23-1.18,.69-.28,.46-.43,1.05-.43,1.77s.15,1.32,.44,1.73c.29,.41,.68,.62,1.17,.62s.88-.22,1.17-.67c.29-.45,.43-1.03,.43-1.75s-.15-1.28-.44-1.72c-.29-.44-.68-.66-1.17-.66Z"/><g><path class="i" d="M16.38,59.11H6.19c-1.66,0-3-1.43-3-3.19V15.66c0-.05,.04-.09,.09-.09s.09,.04,.09,.09V55.92c0,1.66,1.26,3,2.82,3h10.19c.05,0,.09,.04,.09,.09s-.04,.09-.09,.09Z"/><path class="i" d="M32.78,59.11h-5.52c-.05,0-.09-.04-.09-.09s.04-.09,.09-.09h5.52c.05,0,.09,.04,.09,.09s-.04,.09-.09,.09Z"/><path class="i" d="M37.65,46.92c-.05,0-.09-.04-.09-.09V6.36c0-1.66-1.26-3-2.82-3h-10.68c-.05,0-.09-.04-.09-.09s.04-.09,.09-.09h10.68c1.66,0,3,1.43,3,3.19V46.82c0,.05-.04,.09-.09,.09Z"/><path class="i" d="M13.78,3.36h-5.33c-.05,0-.09-.04-.09-.09s.04-.09,.09-.09h5.33c.05,0,.09,.04,.09,.09s-.04,.09-.09,.09Z"/></g></g></g></g></svg>