<?xml version="1.0" encoding="UTF-8"?><svg xmlns="http://www.w3.org/2000/svg" xmlns:xlink="http://www.w3.org/1999/xlink" viewBox="0 0 40.93 62.29"><defs><style>.j{fill:#fff;}.k{fill:#191956;}.l{clip-path:url(#h);}.m{fill:#ffd6a1;}.n{fill:#b70027;}.o{clip-path:url(#e);}.p{clip-path:url(#d);}.q{fill:#222272;}.r{fill:none;}.s{fill:#fcc07e;}.t{fill:#2d2d2d;}.u{clip-path:url(#f);}.v{fill:#141247;}.w{fill:#0c0a35;}.x{clip-path:url(#i);}.y{clip-path:url(#g);}.a`{fill:#f70032;}</style><clipPath id="d"><path class="w" d="M23.24,15.1c-.29-.36-.77-.54-1.24-.55-.46-.01-.92,.12-1.35,.3-.69,.28-1.34,.68-1.84,1.23-.5,.55-.86,1.25-.91,1.99-.73-.44-1.83-.68-2.51-.17-.3,.22-.48,.57-.62,.91-1.06,2.45-1.19,5.19-1.29,7.86-.02,.65-.05,1.31-.28,1.91-.14,.36-.34,.7-.37,1.09,0,.07,0,.15,.04,.21,.09,.12,.27,.07,.41,0,1.19-.52,2.38-1.05,3.56-1.57,2.32-1.02,4.77-2.15,6.14-4.28,.49-.76,.81-1.61,1.09-2.47,.34-1.06,.63-2.16,.58-3.27-.04-1.11-.71-2.34-1.42-3.21Z"/></clipPath><clipPath id="e"><path class="r" d="M22.9,18.84c.14,.09,.31,.1,.48,.09,1.01-.03,2.34-.14,3.31-.4,.9-.24,1.67-.58,2.13-1.39,.23-.42,.13-1.14-.24-1.45-.26-.23-.55-.31-.87-.44-.81-.33-1.18-1.25-1.21-2.12-.03-.87,.07-1.8-.37-2.55-.34-.59-.97-.96-1.62-1.13-.65-.18-1.34-.18-2.02-.19-.29,0-.61,.01-.79,.24-.17,.22-.12,.53-.06,.79,.39,1.65,.92,3.32,.77,5.01-.04,.48-.13,.95-.13,1.43,0,.6,.15,1.19,.37,1.74,.05,.14,.12,.29,.25,.38Z"/></clipPath><clipPath id="f"><path class="k" d="M16.14,15.43c.49-.17,1.04,0,1.47,.28,.8,.5,1.37,1.31,1.7,2.19,.33,.88,.44,1.83,.46,2.77,0,.44,0,.9-.19,1.31-.36,.12-.74-.09-1.05-.3-1.23-.85-2.3-2.13-2.32-3.62,.08,1.77-1.05,3.54-2.7,4.21,.14-.9,.68-1.71,.8-2.61,.15-1.2-.46-2.47,.01-3.58,.04-.1,.09-.19,.18-.26,.22-.17,.54-.03,.82-.05,.3-.02,.54-.23,.83-.33Z"/></clipPath><clipPath id="g"><path class="w" d="M17.17,47.39c.29,.36,.77,.54,1.23,.55,.46,.01,.92-.12,1.35-.3,.69-.28,1.34-.68,1.84-1.23,.5-.55,.86-1.25,.91-2,.73,.44,1.83,.68,2.51,.17,.3-.22,.48-.57,.62-.91,1.06-2.45,1.19-5.19,1.29-7.86,.02-.65,.05-1.31,.28-1.91,.14-.36,.34-.7,.37-1.09,0-.07,0-.15-.04-.21-.09-.12-.27-.07-.41,0-1.19,.52-2.38,1.04-3.57,1.57-2.32,1.02-4.77,2.15-6.14,4.28-.49,.76-.81,1.61-1.09,2.47-.34,1.06-.63,2.16-.58,3.27,.04,1.11,.71,2.34,1.41,3.21Z"/></clipPath><clipPath id="h"><path class="r" d="M17.51,43.65c-.14-.09-.31-.1-.48-.09-1.01,.04-2.34,.14-3.31,.4-.9,.24-1.67,.58-2.13,1.39-.24,.42-.13,1.14,.23,1.45,.27,.23,.55,.31,.87,.44,.81,.33,1.18,1.25,1.21,2.12,.03,.87-.07,1.8,.37,2.55,.34,.58,.97,.96,1.62,1.13,.65,.18,1.34,.19,2.02,.19,.29,0,.61-.02,.79-.24,.17-.22,.12-.53,.06-.8-.39-1.65-.92-3.32-.77-5.01,.04-.47,.13-.95,.13-1.43,0-.6-.15-1.19-.37-1.74-.06-.14-.12-.29-.25-.38Z"/></clipPath><clipPath id="i"><path class="k" d="M24.27,47.06c-.49,.17-1.04,0-1.47-.28-.8-.5-1.37-1.31-1.7-2.19-.33-.88-.44-1.83-.46-2.77,0-.44,0-.9,.19-1.31,.36-.12,.74,.09,1.05,.3,1.22,.85,2.3,2.13,2.32,3.62-.08-1.78,1.05-3.55,2.7-4.21-.14,.9-.68,1.71-.79,2.61-.15,1.2,.46,2.47-.01,3.58-.04,.1-.09,.19-.18,.25-.22,.17-.54,.03-.82,.05-.3,.02-.54,.23-.83,.34Z"/></clipPath></defs><g id="a"/><g id="b"><g id="c"><g><g><path class="j" d="M3.54,.09H37.39c1.9,0,3.45,1.55,3.45,3.45V58.74c0,1.9-1.55,3.45-3.45,3.45H3.54c-1.9,0-3.45-1.55-3.45-3.45V3.54C.09,1.64,1.64,.09,3.54,.09Z"/><path class="t" d="M37.39,62.29H3.54c-1.96,0-3.54-1.59-3.54-3.54V3.54C0,1.59,1.59,0,3.54,0H37.39c1.95,0,3.54,1.59,3.54,3.54V58.74c0,1.95-1.59,3.54-3.54,3.54ZM3.54,.19C1.69,.19,.19,1.69,.19,3.54V58.74c0,1.85,1.5,3.36,3.36,3.36H37.39c1.85,0,3.36-1.51,3.36-3.36V3.54c0-1.85-1.5-3.36-3.36-3.36H3.54Z"/></g><g><path class="w" d="M32.13,39.57c-.06-1.32-.13-2.64-.19-3.96-.01-.27-.02-.54,.09-.79,.18-.37,.6-.62,.96-.9,.89-.71,1.36-1.71,1.4-2.72,.04-1-.33-2-.93-2.88-.16-.24-.35-.48-.44-.74-.2-.6,.12-1.22,.14-1.84,.04-1.26-1.12-2.33-2.33-3.13-1.49-.99-3.18-1.81-5.04-2.24-1-.23-2.04-.35-3.08-.46-2.02-.22-4.05-.42-6.08-.3-2.03,.11-4.08,.55-5.72,1.51-1.75,1.02-4.48,1.43-5.31,4.69-.97,3.79,1.53,12.22,1.89,12.65,7.57,8.94,17.43,1.11,18.3,1.06,1.28-.07,2.6-.26,3.8,.07,.4,.11,.78,.28,1.19,.35,.42,.07,1.06-.09,1.32-.36Z"/><path class="w" d="M8.27,22.92c.07,1.32,.13,2.64,.19,3.96,.01,.27,.02,.54-.09,.79-.18,.37-.6,.62-.96,.9-.89,.71-1.36,1.71-1.4,2.72-.04,1,.33,2,.93,2.88,.16,.24,.35,.48,.44,.74,.2,.6-.12,1.22-.14,1.84-.05,1.26,1.12,2.33,2.33,3.13,1.49,.99,3.18,1.81,5.04,2.24,1,.23,2.04,.35,3.08,.46,2.02,.22,4.05,.42,6.08,.31,2.03-.11,4.08-.55,5.72-1.51,1.75-1.02,4.48-1.43,5.31-4.69,.97-3.79,.7-9.44,.68-10-.01-.37-.77-5.8-8.73-6.56-7.4-.71-16.9,2.48-17.15,2.44-.42-.07-1.06,.09-1.32,.36Z"/><path class="q" d="M19.94,.83c.1-.07,.24-.05,.34,0,.1,.06,.17,.17,.24,.27,.28,.45,.46,.96,.52,1.49-.58,.24-1.23,.31-1.84,.19,.15-.6,.36-1.19,.61-1.76,.03-.07,.07-.14,.13-.19Z"/><path class="q" d="M7.07,37.44c.54,2.17,1.37,3.13,3.47,3.89,.14,.05,.28,.1,.42,.08,.22-.02,.4-.16,.57-.3,7.33-5.84,15.77-9.48,22.71-15.84,.09-.09,.65-.71,.66-.83,.01-.12-.06-.23-.13-.33-.59-.85-1.18-1.71-1.96-2.39-.78-.68-1.55-.94-2.59-.91-1.73,.04-4.01,2.27-5.98,3.63-4.78,3.31-8.33,5.04-12.97,8.55-1.37,1.04-2.67,2.18-3.88,3.4-.15,.16-.31,.32-.36,.54-.04,.17,0,.34,.04,.51Z"/><path class="m" d="M22.1,17.3c1.46-1.92,1.81-4.47,1.7-6.88-.02-.46-.07-.94-.32-1.32-.29-.43-.8-.65-1.29-.81-2.6-.86-5.56-.55-7.94,.82-.2,.12-.42,.28-.44,.51-.02,.21,.14,.4,.3,.54,.42,.41,.87,.79,1.35,1.12-1.49,1.64-2.99,3.47-3.24,5.67,.91-.27,1.77-.68,2.54-1.23-.23,.85-.37,1.72-.41,2.59-.02,.43-.02,.88,.2,1.24,.38,.64,1.24,.77,1.98,.83,.68,.06,1.37,.11,2.02-.1,.56-.19,1.03-.57,1.49-.95,.75-.62,1.49-1.27,2.08-2.04Z"/><path class="n" d="M12.77,27.27c.5,.18,1.01,.41,1.42,.76,.73,.62,1.13,1.57,1.5,2.48,.26,.62,.52,1.27,.54,1.95,.04,1.11-.55,2.15-1.35,2.87-.79,.72-1.77,1.15-2.73,1.57-.92,.4-1.86,.8-2.85,.93-.99,.13-2.05-.03-2.85-.67-.75-.59-1.19-1.53-1.41-2.5-.43-1.87-.05-3.95,1.05-5.47,1.1-1.53,2.92-2.46,4.72-2.36,.66,.04,1.31,.2,1.94,.43Z"/><path class="j" d="M20.87,12.7c-.12,.11-.41,.33-.55,.41-.44,.25-.97,.26-1.47,.21-.44-.04-.96-.36-1.29-.64-.39-.33-.67-.62-.79-.91,1.16-.89,3-1.31,4.33-.71,.21,.09,.55,.29,.72,.39-.23,.55-.5,.83-.94,1.24Z"/><path class="n" d="M27.63,35.22c-.51-.18-1.01-.41-1.42-.76-.73-.62-1.13-1.57-1.5-2.48-.26-.62-.52-1.27-.54-1.95-.04-1.11,.55-2.15,1.35-2.87,.79-.72,1.77-1.15,2.73-1.57,.92-.4,1.86-.8,2.85-.93,.99-.13,2.05,.04,2.85,.67,.75,.59,1.19,1.54,1.41,2.5,.43,1.87,.05,3.95-1.05,5.47-1.1,1.53-2.92,2.46-4.72,2.36-.66-.04-1.32-.2-1.94-.43Z"/><path class="q" d="M26.24,28.66c-.82,1.01-.93,2.44-.39,3.62,.51,1.11,1.7,2.53,3.07,2.35,.2-.03,.36-.27,.18-.44-.73-.69-1.6-1.02-2.19-1.9-.71-1.06-.6-2.26-.31-3.42,.05-.2-.22-.39-.36-.21h0Z"/><path class="q" d="M28.59,29.13c-.99,1.34,.16,5.17,1.81,5.55,.25,.06,.47-.16,.41-.41-.22-.87-1.02-1.59-1.34-2.46-.27-.72-.69-1.73-.39-2.48,.12-.3-.32-.43-.48-.2h0Z"/><path class="q" d="M30.68,29.09c.6,.86,.91,1.77,.96,2.81,.03,.72-.35,1.57,.04,2.21,.09,.15,.28,.2,.43,.11,.85-.45,.73-1.81,.64-2.62-.13-1.15-.67-2.16-1.51-2.95-.29-.27-.81,.09-.57,.44h0Z"/><path class="q" d="M33.71,32.38c1.52-.16,1.16-2.61,.93-3.62-.17-.7-1.27-3.91-2.39-2.39-.18,.25,0,.72,.31,.77,.66,.1,.99,1.42,1.16,2,.26,.91,.37,2.19-.13,3.03-.05,.09,.01,.22,.12,.21h0Z"/><path class="q" d="M27.5,32.12c.29,0,.29-.46,0-.46s-.29,.46,0,.46h0Z"/><path class="q" d="M30.28,31.99c.4,0,.4-.61,0-.61s-.4,.61,0,.61h0Z"/><path class="q" d="M33.26,30.26c.38,0,.38-.58,0-.58s-.38,.58,0,.58h0Z"/><path class="q" d="M34.72,27.52c.16,0,.16-.25,0-.25s-.16,.25,0,.25h0Z"/><path class="q" d="M24.78,31.03c.26,0,.26-.4,0-.4s-.26,.4,0,.4h0Z"/><path class="q" d="M27.35,31.17c.17,0,.17-.27,0-.27s-.17,.27,0,.27h0Z"/><path class="q" d="M27.4,30.39c.16,0,.16-.24,0-.24s-.16,.24,0,.24h0Z"/><path class="q" d="M27.55,29.78c.15,0,.15-.23,0-.23s-.15,.23,0,.23h0Z"/><path class="q" d="M28.01,32.47c-.07-.19-.35-.13-.3,.07,.05,.19,.36,.1,.3-.07h0Z"/><path class="q" d="M28.29,33.01s-.03,0-.05,0c-.17-.03-.17,.23,0,.21,.02,0,.03,0,.05,0,.09-.02,.09-.17,0-.19h0Z"/><path class="q" d="M30.08,31.14c.27,0,.27-.42,0-.42s-.27,.42,0,.42h0Z"/><path class="q" d="M29.93,30.46c.24,0,.24-.37,0-.37s-.24,.37,0,.37h0Z"/><path class="q" d="M29.88,29.67c.13,0,.13-.2,0-.2s-.13,.2,0,.2h0Z"/><path class="q" d="M30.43,32.5h.05c.14,0,.14-.21,0-.21h-.05c-.14,0-.14,.21,0,.21h0Z"/><path class="q" d="M30.68,33.07c.16,0,.16-.25,0-.25s-.16,.25,0,.25h0Z"/><path class="q" d="M30.91,33.37s-.01,.02-.02,.03c-.03,.04-.03,.07,0,.11,0,0,.01,.02,.02,.03,.07,.08,.2,.01,.2-.08s-.13-.16-.2-.08h0Z"/><path class="q" d="M32.96,29.28c.28,0,.28-.43,0-.43s-.28,.43,0,.43h0Z"/><path class="q" d="M32.71,28.78c.22,0,.22-.34,0-.34s-.22,.34,0,.34h0Z"/><path class="q" d="M32.3,28.25c.19,0,.19-.3,0-.3s-.19,.3,0,.3h0Z"/><path class="q" d="M31.85,27.9c.19,0,.19-.3,0-.3s-.19,.3,0,.3h0Z"/><path class="q" d="M33.36,30.94c.21,0,.21-.33,0-.33s-.21,.33,0,.33h0Z"/><path class="q" d="M33.36,31.63c.19,0,.19-.29,0-.29s-.18,.29,0,.29h0Z"/><path class="q" d="M33.31,32.19c.13,0,.13-.2,0-.2s-.13,.2,0,.2h0Z"/><path class="q" d="M34.47,26.61c.16,0,.16-.25,0-.25s-.16,.25,0,.25h0Z"/><path class="q" d="M34.02,26.01c.17,0,.17-.27,0-.27s-.17,.27,0,.27h0Z"/><path class="q" d="M33.56,25.71c.16,0,.16-.25,0-.25s-.16,.25,0,.25h0Z"/><path class="q" d="M32.88,25.3s-.02,.02-.02,.03c-.03,.03-.03,.07,0,.1,0,0,.01,.02,.02,.03,.21,.26,.21-.42,0-.15h0Z"/><path class="q" d="M35.08,28.02s-.03,0-.05,0c-.03,0-.03,.04,0,.04h.05s.04-.05,0-.05h0Z"/><path class="q" d="M35.03,28.21c.2,0,.2-.31,0-.31s-.2,.31,0,.31h0Z"/><path class="q" d="M35.16,28.69s-.02,.02-.02,.03c-.02,.02-.02,.06,0,.08l.02,.03c.19,.2,.19-.33,0-.13h0Z"/><path class="q" d="M35.18,29.48c.14,0,.14-.22,0-.22s-.14,.22,0,.22h0Z"/><path class="q" d="M24.83,30.19c.15,0,.15-.24,0-.24s-.15,.24,0,.24h0Z"/><path class="q" d="M25.03,29.58c.15,0,.15-.22,0-.22s-.15,.22,0,.22h0Z"/><path class="q" d="M25.38,28.96c.2,0,.2-.31,0-.31s-.2,.31,0,.31h0Z"/><path class="q" d="M25.74,28.45c.05,0,.05-.08,0-.08s-.05,.08,0,.08h0Z"/><path class="q" d="M24.98,31.79c.13,0,.13-.2,0-.2s-.13,.2,0,.2h0Z"/><path class="q" d="M25.23,32.4c.14,0,.14-.21,0-.21s-.14,.21,0,.21h0Z"/><path class="q" d="M25.48,32.98c.16,0,.16-.25,0-.25s-.16,.25,0,.25h0Z"/><path class="q" d="M25.77,33.43l.03,.03s.06,.02,.09,0c0,0,.02-.02,.03-.03,.21-.2-.35-.2-.14,0h0Z"/><path class="q" d="M26.24,33.98c.16,0,.16-.25,0-.25s-.16,.25,0,.25h0Z"/><path class="q" d="M14.17,33.83c.82-1.01,.93-2.44,.39-3.62-.51-1.11-1.7-2.53-3.07-2.35-.2,.03-.36,.27-.18,.44,.73,.69,1.6,1.02,2.19,1.9,.71,1.05,.6,2.25,.31,3.42-.05,.19,.22,.39,.36,.21h0Z"/><path class="q" d="M11.82,33.36c.99-1.34-.16-5.17-1.81-5.55-.25-.06-.47,.16-.41,.41,.22,.87,1.02,1.59,1.34,2.46,.27,.72,.69,1.73,.39,2.48-.12,.3,.32,.43,.48,.21h0Z"/><path class="q" d="M9.73,33.4c-.6-.86-.91-1.77-.96-2.81-.03-.72,.35-1.57-.04-2.22-.09-.15-.28-.19-.43-.11-.85,.45-.73,1.81-.64,2.62,.13,1.15,.67,2.16,1.51,2.96,.29,.27,.81-.09,.57-.44h0Z"/><path class="q" d="M6.69,30.11c-1.52,.16-1.16,2.61-.93,3.62,.17,.7,1.27,3.91,2.39,2.39,.18-.25,0-.72-.31-.76-.67-.1-.99-1.42-1.16-2.01-.26-.9-.37-2.19,.13-3.03,.05-.08-.01-.22-.12-.21h0Z"/><path class="q" d="M12.9,30.83c.29,0,.29-.46,0-.46s-.29,.46,0,.46h0Z"/><path class="q" d="M10.12,31.11c.4,0,.4-.61,0-.61s-.4,.61,0,.61h0Z"/><path class="q" d="M7.15,32.81c.38,0,.38-.58,0-.58s-.38,.58,0,.58h0Z"/><path class="q" d="M5.68,35.22c.16,0,.16-.25,0-.25s-.16,.25,0,.25h0Z"/><path class="q" d="M15.63,31.86c.26,0,.26-.4,0-.4s-.26,.4,0,.4h0Z"/><path class="q" d="M13.05,31.59c.17,0,.17-.27,0-.27s-.17,.27,0,.27h0Z"/><path class="q" d="M13,32.34c.16,0,.16-.24,0-.24s-.16,.24,0,.24h0Z"/><path class="q" d="M12.85,32.94c.15,0,.15-.23,0-.23s-.15,.23,0,.23h0Z"/><path class="q" d="M12.4,30.02c.06,.19,.35,.13,.3-.07-.05-.19-.36-.1-.3,.07h0Z"/><path class="q" d="M12.12,29.48s.03,0,.05,0c.17,.03,.17-.23,0-.21-.02,0-.03,0-.05,0-.09,.02-.09,.17,0,.19h0Z"/><path class="q" d="M10.33,31.77c.27,0,.27-.42,0-.42s-.27,.42,0,.42h0Z"/><path class="q" d="M10.48,32.4c.24,0,.24-.37,0-.37s-.24,.37,0,.37h0Z"/><path class="q" d="M10.53,33.03c.13,0,.13-.2,0-.2s-.13,.2,0,.2h0Z"/><path class="q" d="M9.97,29.99h-.05c-.14,0-.14,.21,0,.21h.05c.14,0,.14-.21,0-.21h0Z"/><path class="q" d="M9.72,29.67c.16,0,.16-.25,0-.25s-.16,.25,0,.25h0Z"/><path class="q" d="M9.5,29.12l.02-.03s.03-.07,0-.11c0,0-.01-.02-.02-.03-.07-.08-.2-.01-.2,.08s.13,.16,.2,.08h0Z"/><path class="q" d="M7.45,33.65c.28,0,.28-.43,0-.43s-.28,.43,0,.43h0Z"/><path class="q" d="M7.7,34.05c.22,0,.22-.34,0-.34s-.22,.34,0,.34h0Z"/><path class="q" d="M8.11,34.54c.19,0,.19-.3,0-.3s-.19,.3,0,.3h0Z"/><path class="q" d="M8.56,34.89c.19,0,.19-.3,0-.3s-.19,.3,0,.3h0Z"/><path class="q" d="M7.04,31.88c.21,0,.21-.33,0-.33s-.21,.33,0,.33h0Z"/><path class="q" d="M7.04,31.15c.19,0,.19-.29,0-.29s-.18,.29,0,.29h0Z"/><path class="q" d="M7.1,30.5c.13,0,.13-.2,0-.2s-.13,.2,0,.2h0Z"/><path class="q" d="M5.93,36.13c.16,0,.16-.25,0-.25s-.16,.25,0,.25h0Z"/><path class="q" d="M6.39,36.74c.17,0,.17-.26,0-.26s-.17,.26,0,.26h0Z"/><path class="q" d="M6.84,37.04c.16,0,.16-.25,0-.25s-.16,.25,0,.25h0Z"/><path class="q" d="M7.53,37.19s.01-.02,.02-.03c.03-.03,.03-.07,0-.1,0,0-.01-.02-.02-.03-.21-.26-.21,.42,0,.15h0Z"/><path class="q" d="M5.33,34.47h.05s.03-.05,0-.05h-.05s-.04,.05,0,.05h0Z"/><path class="q" d="M5.38,34.59c.2,0,.2-.31,0-.31s-.2,.31,0,.31h0Z"/><path class="q" d="M5.24,33.8s.02-.02,.02-.03c.02-.02,.02-.06,0-.08l-.02-.03c-.19-.19-.19,.33,0,.13h0Z"/><path class="q" d="M5.23,33.24c.15,0,.15-.22,0-.22s-.14,.22,0,.22h0Z"/><path class="q" d="M15.58,32.54c.15,0,.15-.24,0-.24s-.15,.24,0,.24h0Z"/><path class="q" d="M15.38,33.14c.15,0,.15-.22,0-.22s-.15,.22,0,.22h0Z"/><path class="q" d="M15.02,33.84c.2,0,.2-.31,0-.31s-.2,.31,0,.31h0Z"/><path class="q" d="M14.67,34.13c.05,0,.05-.08,0-.08s-.05,.08,0,.08h0Z"/><path class="q" d="M15.43,30.9c.13,0,.13-.2,0-.2s-.13,.2,0,.2h0Z"/><path class="q" d="M15.17,30.3c.14,0,.14-.21,0-.21s-.14,.21,0,.21h0Z"/><path class="q" d="M14.92,29.77c.16,0,.16-.25,0-.25s-.16,.25,0,.25h0Z"/><path class="q" d="M14.64,29.06l-.03-.02s-.07-.03-.09,0l-.03,.02c-.21,.2,.36,.2,.14,0h0Z"/><path class="q" d="M14.17,28.76c.16,0,.16-.25,0-.25s-.16,.25,0,.25h0Z"/><g><path class="w" d="M23.24,15.1c-.29-.36-.77-.54-1.24-.55-.46-.01-.92,.12-1.35,.3-.69,.28-1.34,.68-1.84,1.23-.5,.55-.86,1.25-.91,1.99-.73-.44-1.83-.68-2.51-.17-.3,.22-.48,.57-.62,.91-1.06,2.45-1.19,5.19-1.29,7.86-.02,.65-.05,1.31-.28,1.91-.14,.36-.34,.7-.37,1.09,0,.07,0,.15,.04,.21,.09,.12,.27,.07,.41,0,1.19-.52,2.38-1.05,3.56-1.57,2.32-1.02,4.77-2.15,6.14-4.28,.49-.76,.81-1.61,1.09-2.47,.34-1.06,.63-2.16,.58-3.27-.04-1.11-.71-2.34-1.42-3.21Z"/><g class="p"><path class="n" d="M12.56,30.46c1.02-.51,1.48-1.48,1.77-2.55,.38-1.42,.63-2.84,1.1-4.24,.47-1.41,.92-2.85,1.14-4.32,.2-1.3-.86-2.13-1.29-3.26-.06-.16-.28-.13-.3,.04-.14,1.23,1.2,1.87,1.13,3.16-.08,1.34-.54,2.75-.97,4.02-.42,1.25-.72,2.5-1,3.79-.11,.53-.22,1.08-.44,1.58-.2,.45-.45,.84-.78,1.21-.36,.4-.3,.16-.47,.5-.03,.06,.03,.12,.09,.09h0Z"/><path class="n" d="M13.39,30.52c.8-.22,1.22-1.02,1.56-1.71,.49-1.01,.86-2.09,1.18-3.17,.47-1.61,.93-3.22,1.38-4.84,.47-1.67,.38-3.69,.12-5.39-.03-.21-.32-.13-.34,.05-.23,1.75,.23,3.47-.21,5.22-.36,1.42-.72,2.82-1.18,4.21-.32,.96-.61,1.92-.96,2.87-.3,.79-.67,2.33-1.55,2.72-.02,0,0,.04,.02,.04h0Z"/><path class="n" d="M15.17,30.26c.11-.58,.56-.91,.87-1.37,.37-.54,.65-1.13,.97-1.7,.68-1.2,1.07-2.62,1.53-3.91,.54-1.5,.73-3.1,.94-4.67,.11-.83,.2-1.66,.24-2.5,.03-.72,.28-1.58,.06-2.28-.09-.27-.49-.16-.43,.12,.15,.67-.06,1.48-.1,2.16-.04,.84-.13,1.67-.24,2.5-.21,1.63-.45,3.26-1.01,4.81-.5,1.38-.87,2.82-1.56,4.13-.31,.59-.61,1.12-1.03,1.64-.24,.3-.45,.63-.51,1.01-.03,.17,.23,.24,.26,.07h0Z"/><path class="n" d="M16.5,29.32c1.01-1.09,1.99-2.13,2.61-3.51,.56-1.25,.93-2.64,1.3-3.96,.38-1.32,.64-2.74,.83-4.1,.2-1.4,.15-2.93,.72-4.24,.06-.13-.04-.32-.2-.27-.76,.24-.62,1.64-.71,2.26-.22,1.61-.46,3.2-.76,4.79-.26,1.4-.74,2.74-1.15,4.1-.55,1.83-1.54,3.34-2.79,4.77-.09,.1,.06,.25,.15,.15h0Z"/><path class="n" d="M18.79,28.19c.92-.54,1.17-1.57,1.63-2.47,.55-1.06,.88-2.25,1.23-3.38,.43-1.43,.87-2.92,1.07-4.41,.09-.69,.14-1.39,.18-2.08,.05-.79,.37-1.61,.2-2.39-.03-.13-.23-.13-.26,0-.31,1.18-.36,2.37-.46,3.58-.13,1.54-.54,3.07-.95,4.56-.3,1.11-.64,2.2-1.06,3.27-.38,.96-.84,2.51-1.68,3.15-.11,.08-.01,.26,.11,.19h0Z"/><path class="n" d="M20.22,27.5c.85-.62,1.35-1.75,1.85-2.65,.6-1.08,1.05-2.2,1.55-3.33,.41-.92,.44-1.9,.53-2.88,.11-1.16,.5-2.44-.23-3.47-.05-.08-.2-.06-.19,.05,.08,1.1,.04,2.08-.09,3.17-.12,1.09-.14,2.11-.59,3.13-.41,.95-.78,1.91-1.28,2.82-.49,.9-.89,2.31-1.68,2.99-.09,.08,.03,.24,.13,.17h0Z"/></g></g><path class="k" d="M22.9,18.84c.14,.09,.31,.1,.48,.09,1.01-.03,2.34-.14,3.31-.4,.9-.24,1.67-.58,2.13-1.39,.23-.42,.13-1.14-.24-1.45-.26-.23-.55-.31-.87-.44-.81-.33-1.18-1.25-1.21-2.12-.03-.87,.07-1.8-.37-2.55-.34-.59-.97-.96-1.62-1.13-.65-.18-1.34-.18-2.02-.19-.29,0-.61,.01-.79,.24-.17,.22-.12,.53-.06,.79,.39,1.65,.92,3.32,.77,5.01-.04,.48-.13,.95-.13,1.43,0,.6,.15,1.19,.37,1.74,.05,.14,.12,.29,.25,.38Z"/><path class="w" d="M26.2,6.88c0,.17-.02,.35-.12,.49-.16,.24-.47,.32-.75,.38-3.54,.7-7.21,1.08-10.75,.4-.24-.05-.51-.12-.64-.32-.09-.14-.1-.31-.11-.47-.02-.62,0-1.27,.27-1.84,.24-.49,.63-1.11,1.03-1.49,.95-.89,1.75-1.32,3.02-1.63,1.39-.35,3.28-.22,4.63,.28,.89,.33,1.61,.78,2.29,1.45,.73,.71,1.15,1.74,1.12,2.77Z"/><path class="s" d="M28.56,25.11c.09,.02,.19,.05,.28,.07-.09-.03-.19-.05-.28-.07Z"/><g class="o"><path class="n" d="M21.92,8.62c1.04,2.26,1.2,5.18,1.17,7.63-.02,1.63-.53,4.02,1.1,5.1,.1,.07,.2-.06,.16-.16-.47-.98-.83-1.73-.85-2.85-.01-1.18,.11-2.34,.04-3.52-.12-2.12-.46-4.41-1.39-6.33-.07-.15-.29-.02-.22,.13h0Z"/><path class="n" d="M23.03,8.68c1.23,1.98,.66,4.78,.89,7,.19,1.84,.13,3.9,2.01,4.9,.09,.05,.2-.05,.15-.15-.6-1.04-1.26-1.84-1.42-3.08-.14-1.11-.26-2.25-.32-3.36-.11-1.94-.07-3.71-1.19-5.38-.05-.07-.16,0-.12,.07h0Z"/><path class="n" d="M23.84,8.6c.78,.62,.82,2.68,.88,3.53,.1,1.33,.01,2.64,.33,3.94,.36,1.49,.8,3.13,2.07,4.12,.08,.06,.21-.02,.15-.12-1.13-1.64-1.96-3.79-2-5.79-.02-1.33-.11-2.71-.38-4.01-.13-.64-.28-1.5-.92-1.83-.1-.05-.22,.09-.13,.16h0Z"/><path class="n" d="M25.66,8.14c.05,.72-.69,1.14-.48,1.94,.34,1.31,.44,2.65,.63,3.99,.19,1.32,.47,2.64,.96,3.88,.36,.92,.97,2.14,1.92,2.55,.08,.03,.18-.04,.13-.12-.31-.46-.72-.84-1.05-1.3-.37-.54-.6-1.16-.81-1.78-.42-1.26-.65-2.59-.83-3.9-.14-1.06-.16-2.26-.56-3.26-.3-.77,.45-1.31,.25-2.03-.03-.1-.18-.08-.17,.02h0Z"/><path class="n" d="M26.7,9.38c-.67,2.01-.08,4.48,.62,6.41,.46,1.25,1.37,4.07,3.17,3.72,.09-.02,.13-.15,.06-.21-.6-.49-1.2-.63-1.62-1.37-.46-.8-.83-1.74-1.16-2.6-.65-1.71-1.35-4.07-.89-5.9,.03-.11-.14-.16-.17-.05h0Z"/></g><path class="q" d="M25.6,10.41c.91-.63,1.45-1.71,1.62-2.81,.16-1.1-.01-2.22-.3-3.29-1.24,.88-2.31,2.29-3.2,3.51-.23-1.22-.91-2.87-1.51-3.96-1.1,1.16-1.87,2.6-2.84,3.87-.35-.83-.69-1.66-1.06-2.48-.23-.52-.58-1.05-.98-1.47-.89,1.21-1.84,2.66-2.25,4.13-.36-1.09-.61-1.31-1.57-2.52-.22-.28-.69-.65-.95-.89-.27,1.06-.55,2.15-.5,3.25,.05,1.1,.48,2.23,1.37,2.88,.4,.29,.97,.28,1.46,.2,2.82-.46,5.71-.53,8.56-.19,.87,.1,1.91,.18,2.46-.5l-.3,.27Z"/><path class="a`" d="M12.79,7.42c.71,.65,1.44,1.2,1.98,2-.63,.01-1.12,0-1.75,.02-.22-.38-.27-2.05-.23-2.01Z"/><path class="a`" d="M17.26,7.07s.06,.02,.08,.04c.48,.72,.9,1.48,1.24,2.28-.78-.03-1.56-.06-2.34-.08-.04-.17,.04-.34,.12-.5,.29-.57,.58-1.13,.87-1.7,0-.02,.02-.03,.03-.04Z"/><path class="a`" d="M22.81,9.5c-.71-.07-1.66-.13-2.38-.13,.34-.7,1-1.75,1.46-2.37,.48,.68,.8,1.67,.92,2.5Z"/><path class="a`" d="M24.17,9.56c.28-.35,.5-.58,.8-.91,.42-.45,.89-.79,1.34-1.19,0,.64-.15,1.29-.42,1.87-.03,.06-.06,.12-.11,.17-.09,.08-.23,.08-.35,.07-.37-.01-.88,0-1.26-.02Z"/><path class="v" d="M30.83,21.43c.27-1.47,.44-3.11,.71-4.58,.07-.39,.62-4,.73-4.61,.12,0,.55,.07,.66,.07-.18-.42-.19-.68-.31-1.2,.26,.18,.59,.41,1.12,.14,.28-.15,.26-.58,.23-.83-.2-1.76-.57-3.02-.79-4.5-.64,1.23-1.39,2.4-2.25,3.48-.17,.22-.36,.45-.44,.71-.08,.27-.06,.62,.17,.78,.43,.3,.75,.18,1.06,.12-.18,.35-.51,.69-.67,1.05,.25,0,.44,.1,.69,.1-.18,1.3-.44,2.38-.64,3.64-.33,2-.68,4.25-.99,6.26-.12,.8-.88,4.81-.91,4.9,.13,.05,.54,.12,.65,.13,.15-.44,.82-4.93,.96-5.67Z"/><path class="w" d="M16.14,15.43c.49-.17,1.04,0,1.47,.28,.8,.5,1.37,1.31,1.7,2.19,.33,.88,.44,1.83,.46,2.77,0,.44,0,.9-.19,1.31-.36,.12-.74-.09-1.05-.3-1.23-.85-2.3-2.13-2.32-3.62,.08,1.77-1.05,3.54-2.7,4.21,.14-.9,.68-1.71,.8-2.61,.15-1.2-.46-2.47,.01-3.58,.04-.1,.09-.19,.18-.26,.22-.17,.54-.03,.82-.05,.3-.02,.54-.23,.83-.33Z"/><g><path class="k" d="M16.14,15.43c.49-.17,1.04,0,1.47,.28,.8,.5,1.37,1.31,1.7,2.19,.33,.88,.44,1.83,.46,2.77,0,.44,0,.9-.19,1.31-.36,.12-.74-.09-1.05-.3-1.23-.85-2.3-2.13-2.32-3.62,.08,1.77-1.05,3.54-2.7,4.21,.14-.9,.68-1.71,.8-2.61,.15-1.2-.46-2.47,.01-3.58,.04-.1,.09-.19,.18-.26,.22-.17,.54-.03,.82-.05,.3-.02,.54-.23,.83-.33Z"/><g class="u"><path class="n" d="M14.93,15.19c-.71,.3-.52,1.37-.51,1.98,0,.96,.07,1.91-.08,2.87-.12,.8-.56,1.49-.73,2.26-.02,.09,.09,.16,.16,.09,.8-.73,.98-2,1.08-3.04,.07-.72,.02-1.46,0-2.19,0-.51-.15-1.39,.21-1.8,.09-.1-.02-.23-.14-.18h0Z"/><path class="n" d="M15.61,14.96c-.63,1.03-.15,1.98-.17,3.12-.01,.67-.03,1.32-.14,1.99-.12,.71-.52,1.29-.66,1.98-.02,.09,.07,.18,.16,.12,.9-.56,1-2,1.06-2.96,.04-.64,.04-1.3-.01-1.94-.07-.78-.35-1.46-.05-2.23,.04-.11-.12-.16-.18-.07h0Z"/><path class="n" d="M15.77,15.09c.22,.23,.28,.7,.39,.99,.17,.44,.33,.87,.48,1.31,.31,.89,.31,1.85,.58,2.75,.2,.66,.6,1.24,1.04,1.75,.41,.47,.84,1.06,1.48,1.18,.18,.03,.34-.18,.19-.32-1.27-1.21-2.23-2.24-2.52-4.05-.19-1.14-.62-2.92-1.54-3.71-.07-.06-.17,.04-.11,.11h0Z"/><path class="n" d="M16.71,14.88c.62,.49,.88,1.45,1.11,2.17,.29,.9,.51,1.81,.84,2.69,.33,.88,1.2,2.93,2.4,2.7,.11-.02,.12-.16,.06-.23-.49-.59-1.05-1.04-1.46-1.72-.49-.79-.78-1.7-1.05-2.58-.35-1.13-.65-2.59-1.79-3.18-.09-.05-.21,.08-.12,.15h0Z"/></g></g><path class="w" d="M19.34,12.67c.35,0,.65-.29,.65-.64s-.29-.64-.65-.64-.65,.29-.65,.64,.29,.64,.65,.64h0Z"/><path class="w" d="M14.53,15.85c.46-.18,.99,.08,1.45-.16,.31-.16,.51-.44,.55-.79,.02-.24-.02-.59-.26-.72-.22-.13-.64-.07-.66,.24,0,.05,.04,.08,.08,.1,.16,.06,.34-.11,.47,0,.14,.13,.07,.41,.02,.56-.12,.35-.52,.42-.84,.43-.35,0-.57,.02-.86,.21-.06,.04-.02,.16,.05,.13h0Z"/><path class="n" d="M15.18,4.63c.2,0,.2-.3,0-.3s-.19,.3,0,.3h0Z"/><path class="a`" d="M15.9,4.3s-.05,.06-.05,.09c-.02,.12,.06,.2,.18,.18h.01s-.08-.01-.12-.02h.01c.11,.08,.26,0,.26-.14,0-.15-.18-.22-.29-.12h0Z"/><path class="a`" d="M18.57,4.53c.19,0,.19-.3,0-.3s-.19,.3,0,.3h0Z"/><path class="a`" d="M19.61,4.54c.25,0,.25-.39,0-.39s-.25,.39,0,.39h0Z"/><path class="a`" d="M20.75,4.59c.3,0,.3-.47,0-.47s-.3,.47,0,.47h0Z"/><path class="a`" d="M23.43,4.54c.25,0,.25-.39,0-.39s-.25,.39,0,.39h0Z"/><path class="a`" d="M24.37,4.47c.28,0,.28-.44,0-.44s-.28,.44,0,.44h0Z"/><g><path class="n" d="M18.5,29.54s-.01,.01-.02,.02c.86-.25,1.71-.51,2.57-.77,0,0-.02,0-.03-.01l.52,.28s-.02,0-.03-.01c-.18-.09-.35-.19-.53-.28-.38-.14-.76-.18-1.16-.11-.77,.13-1.43,.68-1.71,1.41-.21,.55-.19,1.17,.05,1.7,.16,.36,.4,.65,.72,.88,.33,.24,.7,.38,1.11,.42,.02,0,.04,0,.06,0,.19,0,.38-.01,.57-.02,.38-.07,.72-.22,1.02-.46,.13-.14,.26-.28,.4-.42,.24-.33,.37-.7,.42-1.1v-.02c.04-.39-.02-.76-.18-1.11-.24-.53-.69-.95-1.23-1.16-.37-.14-.76-.18-1.15-.11-.18,.05-.36,.11-.54,.16-.35,.16-.64,.4-.87,.71h0Z"/><path class="n" d="M21.29,28.47c.33-.03,.49-.45,.26-.68-.11-.11-.24-.18-.4-.15-.15,.03-.27,.13-.33,.27-.05,.14-.03,.3,.07,.42,.1,.12,.24,.16,.4,.15h0Z"/><path class="n" d="M17.22,30.24c.51,.19,.82-.61,.3-.8-.51-.19-.82,.61-.3,.8h0Z"/><path class="n" d="M22.91,32c.21,.08,.44-.03,.52-.23,.08-.21-.03-.44-.24-.52-.21-.08-.44,.03-.52,.24-.08,.2,.03,.44,.24,.52h0Z"/><path class="n" d="M19.65,33.85c-.02-.1-.05-.22-.12-.29-.04-.04-.08-.08-.12-.11-.12-.08-.23-.09-.37-.08,.11,.03,.23,.05,.34,.08h-.01c-.14-.09-.28-.12-.44-.05-.2,.09-.26,.27-.25,.47h0c.03-.1,.05-.21,.08-.33-.05,.09-.08,.14-.09,.25,0,.1,.01,.17,.05,.26,.04,.11,.12,.18,.21,.26,.12,.1,.32,.11,.46,.05,.19-.09,.3-.29,.27-.5h0Z"/><path class="w" d="M19.57,31.4c.14,.15,.24,.24,.44,.32,.25,.1,.54,.09,.79-.03,.6-.27,.79-1.07,.37-1.58-.35-.44-1.01-.5-1.44-.15-.41,.33-.53,1.03-.15,1.44h0Z"/><path class="w" d="M20.71,29.62c.47,.18,.74-.55,.27-.73-.47-.18-.75,.55-.27,.73h0Z"/><path class="w" d="M18.67,30.6c.17,.06,.36-.03,.42-.19,.06-.17-.02-.36-.19-.42s-.36,.02-.42,.19c-.06,.17,.02,.36,.19,.42h0Z"/><path class="w" d="M19.7,32.63c.46,.17,.72-.54,.27-.71-.46-.17-.72,.54-.27,.71h0Z"/><path class="w" d="M21.61,31.63c.18,.07,.38-.03,.45-.2,.07-.18-.03-.38-.2-.45-.18-.07-.38,.03-.45,.2-.07,.18,.03,.38,.2,.45h0Z"/></g><path class="w" d="M18.23,10.85c.34,.2,.76,.12,1.15,.1,.44-.02,.97,.05,1.36-.15,.08-.04,.08-.17,0-.21-.36-.18-.79-.08-1.18-.06-.42,.03-.96-.02-1.33,.21-.04,.03-.04,.09,0,.12h0Z"/><path class="k" d="M28.36,38.09c-.21-.93-.41-1.87-.48-2.83-.07-.9-.03-1.8,0-2.69,.03-.83,.07-1.67,.1-2.5,.03-.67,.05-1.35,.08-2.02,0-.17,.02-.35,.14-.47,.08-.08,.19-.12,.3-.15,.42-.11,2.19-2.48,2.61-2.39,.68,3.92-.19,7.52,.23,10.34,1.11-.51,2.12-1.11,2.88-1.92-.15,1.11-.23,2.31-.37,3.43-.07,.53-.22,1.04-.38,1.55-.31,1.04-.63,2.08-.94,3.12-.11,.37-.27,.79-.63,.93-.13,.05-.28,.05-.42,.05-.7,.01-1.49-.02-1.94-.55-.22-.25-.31-.58-.4-.9-.28-.99-.54-1.98-.76-2.99Z"/><path class="m" d="M30.2,24.38c-2.49-.87-3.19-.45-3.08,.01,.07,.3,.58,.42,.88,.49,.28,.07,.11,.07,.39,.14,.1,.02-.58-.03-1.24,.09-.24,.04-.4,.23-.4,.47-.01,.55,1.19,.61,1.36,.77-.19-.03-.84,.02-1.02,.08-.18,.06-.29,.3-.25,.48,.04,.19,.19,.32,.38,.37,.33,.1,.74,.14,1.09,.21-.22,.04-.5,.03-.72,.07-.15,.03-.32,.05-.44,.14-.12,.08-.14,.3-.1,.44,.05,.19,.26,.27,.44,.32,.4,.12,2.34,.44,2.67,.22,.55-.36,.6-.76,.89-1.52,.2-.51,.3-1.62,.06-2.11-.19-.39-.6-.54-.92-.65Z"/><path class="w" d="M30.36,24.89c-.16,.06-.23,.19-.19,.36,.04,.17,.31,.13,.3-.04,0-.05-.01-.11,.02-.15,.06-.08-.04-.2-.13-.17h0Z"/><path class="w" d="M30.08,25.95c-.06,.11-.07,.27-.04,.4,.04,.14,.25,.14,.29,0,.03-.12,.02-.28-.04-.4-.04-.08-.16-.08-.2,0h0Z"/><path class="w" d="M29.96,27.05c-.09,.12-.21,.33-.09,.47,.04,.04,.11,.04,.15,0,.07-.09,.05-.2,.12-.29,.1-.13-.08-.31-.18-.18h0Z"/><path class="w" d="M29.65,28.11c-.02,.07-.04,.13-.06,.2-.03,.15,.18,.26,.26,.11,.05-.09,.06-.18,.07-.28,.02-.16-.23-.18-.28-.04h0Z"/><path class="q" d="M20.46,61.66c-.1,.07-.24,.05-.34,0-.1-.06-.17-.16-.23-.27-.28-.45-.46-.96-.52-1.49,.58-.25,1.23-.31,1.84-.19-.15,.6-.36,1.19-.61,1.76-.03,.07-.07,.15-.13,.19Z"/><path class="m" d="M18.31,45.19c-1.46,1.92-1.81,4.47-1.7,6.88,.02,.46,.07,.94,.32,1.32,.29,.43,.8,.65,1.29,.81,2.6,.86,5.56,.55,7.94-.82,.2-.12,.42-.28,.44-.51,.02-.21-.14-.4-.3-.55-.42-.41-.87-.79-1.35-1.12,1.49-1.63,2.99-3.47,3.24-5.67-.91,.27-1.77,.68-2.54,1.23,.23-.85,.37-1.72,.41-2.59,.02-.42,.02-.88-.2-1.24-.38-.64-1.24-.77-1.98-.83-.68-.06-1.38-.11-2.02,.1-.56,.19-1.03,.57-1.49,.95-.75,.62-1.49,1.27-2.08,2.04Z"/><path class="j" d="M19.54,49.79c.12-.11,.41-.33,.55-.41,.44-.25,.97-.26,1.47-.21,.44,.04,.96,.36,1.3,.64,.39,.33,.67,.62,.79,.9-1.16,.89-3,1.31-4.33,.71-.21-.09-.55-.29-.72-.39,.23-.55,.5-.83,.94-1.24Z"/><g><path class="w" d="M17.17,47.39c.29,.36,.77,.54,1.23,.55,.46,.01,.92-.12,1.35-.3,.69-.28,1.34-.68,1.84-1.23,.5-.55,.86-1.25,.91-2,.73,.44,1.83,.68,2.51,.17,.3-.22,.48-.57,.62-.91,1.06-2.45,1.19-5.19,1.29-7.86,.02-.65,.05-1.31,.28-1.91,.14-.36,.34-.7,.37-1.09,0-.07,0-.15-.04-.21-.09-.12-.27-.07-.41,0-1.19,.52-2.38,1.04-3.57,1.57-2.32,1.02-4.77,2.15-6.14,4.28-.49,.76-.81,1.61-1.09,2.47-.34,1.06-.63,2.16-.58,3.27,.04,1.11,.71,2.34,1.41,3.21Z"/><g class="y"><path class="n" d="M27.84,32.03c-1.02,.51-1.48,1.48-1.77,2.55-.38,1.42-.63,2.84-1.1,4.24-.47,1.41-.92,2.85-1.14,4.32-.2,1.3,.86,2.13,1.29,3.26,.06,.16,.28,.13,.3-.04,.14-1.23-1.21-1.88-1.13-3.16,.08-1.34,.54-2.75,.97-4.02,.42-1.25,.72-2.5,1-3.79,.12-.53,.22-1.08,.44-1.58,.2-.45,.45-.84,.78-1.21,.36-.4,.3-.15,.47-.5,.03-.06-.03-.12-.09-.09h0Z"/><path class="n" d="M27.02,31.97c-.8,.22-1.22,1.02-1.56,1.71-.49,1.01-.86,2.09-1.18,3.17-.47,1.61-.93,3.22-1.38,4.84-.47,1.67-.38,3.69-.12,5.39,.03,.21,.32,.13,.34-.05,.23-1.75-.23-3.47,.21-5.22,.36-1.42,.72-2.82,1.18-4.21,.32-.96,.61-1.92,.96-2.87,.3-.8,.67-2.33,1.55-2.72,.02,0,0-.04-.02-.04h0Z"/><path class="n" d="M25.24,32.23c-.11,.58-.56,.91-.87,1.37-.37,.54-.65,1.13-.97,1.7-.68,1.2-1.07,2.63-1.54,3.92-.54,1.5-.73,3.1-.94,4.67-.11,.83-.2,1.66-.24,2.5-.03,.72-.28,1.58-.06,2.28,.09,.27,.49,.16,.43-.12-.15-.67,.06-1.48,.09-2.16,.04-.84,.13-1.67,.24-2.5,.21-1.63,.45-3.25,1.01-4.81,.5-1.38,.87-2.82,1.56-4.13,.31-.59,.61-1.12,1.03-1.64,.24-.3,.45-.63,.52-1.01,.03-.17-.23-.24-.26-.07h0Z"/><path class="n" d="M23.91,33.17c-1.01,1.09-2,2.13-2.61,3.51-.56,1.25-.93,2.64-1.3,3.95-.38,1.32-.64,2.74-.83,4.1-.2,1.4-.15,2.93-.72,4.24-.06,.13,.04,.32,.2,.27,.76-.24,.62-1.64,.71-2.25,.22-1.61,.46-3.2,.76-4.8,.26-1.4,.74-2.74,1.15-4.1,.55-1.83,1.53-3.34,2.79-4.77,.09-.1-.06-.25-.15-.15h0Z"/><path class="n" d="M21.62,34.3c-.92,.54-1.17,1.57-1.63,2.47-.54,1.06-.88,2.24-1.23,3.38-.43,1.43-.87,2.92-1.07,4.41-.09,.69-.14,1.39-.18,2.08-.05,.79-.38,1.61-.2,2.39,.03,.13,.23,.13,.26,0,.31-1.18,.36-2.37,.46-3.58,.13-1.54,.54-3.07,.95-4.56,.3-1.11,.64-2.2,1.06-3.27,.38-.96,.84-2.51,1.68-3.15,.11-.08,.01-.26-.11-.19h0Z"/><path class="n" d="M20.18,34.99c-.85,.62-1.35,1.75-1.84,2.65-.6,1.09-1.05,2.2-1.55,3.33-.41,.92-.44,1.9-.53,2.88-.11,1.16-.5,2.44,.23,3.47,.05,.08,.2,.06,.19-.05-.08-1.1-.04-2.08,.09-3.18,.12-1.09,.14-2.11,.59-3.13,.41-.95,.78-1.91,1.28-2.82,.5-.9,.89-2.31,1.69-2.99,.09-.08-.03-.24-.13-.17h0Z"/></g></g><path class="k" d="M17.51,43.65c-.14-.09-.31-.1-.48-.09-1.01,.04-2.34,.14-3.31,.4-.9,.24-1.67,.58-2.13,1.39-.24,.42-.13,1.14,.23,1.45,.27,.23,.55,.31,.87,.44,.81,.33,1.18,1.25,1.21,2.12,.03,.87-.07,1.8,.37,2.55,.34,.58,.97,.96,1.62,1.13,.65,.18,1.34,.19,2.02,.19,.29,0,.61-.02,.79-.24,.17-.22,.12-.53,.06-.8-.39-1.65-.92-3.32-.77-5.01,.04-.47,.13-.95,.13-1.43,0-.6-.15-1.19-.37-1.74-.06-.14-.12-.29-.25-.38Z"/><path class="w" d="M14.21,55.61c0-.17,.02-.35,.12-.49,.15-.24,.46-.32,.75-.37,3.54-.7,7.21-1.08,10.75-.4,.24,.04,.51,.11,.64,.32,.09,.14,.1,.31,.11,.47,.02,.62,0,1.27-.27,1.84-.24,.49-.63,1.11-1.03,1.49-.95,.89-1.75,1.32-3.02,1.63-1.4,.35-3.28,.23-4.63-.28-.89-.33-1.61-.78-2.29-1.45-.73-.71-1.15-1.74-1.12-2.77Z"/><path class="s" d="M11.85,37.38l-.28-.07c.09,.03,.19,.05,.28,.07Z"/><g class="l"><path class="n" d="M18.49,53.88c-1.04-2.26-1.21-5.18-1.17-7.63,.02-1.63,.53-4.02-1.1-5.1-.1-.07-.2,.06-.16,.15,.47,.98,.83,1.74,.85,2.85,.01,1.18-.11,2.34-.04,3.52,.12,2.12,.46,4.41,1.39,6.33,.07,.15,.29,.02,.22-.13h0Z"/><path class="n" d="M17.38,53.81c-1.23-1.98-.66-4.78-.89-7-.19-1.84-.13-3.91-2.01-4.9-.09-.05-.2,.05-.15,.15,.6,1.04,1.26,1.84,1.42,3.08,.14,1.11,.26,2.25,.32,3.36,.11,1.94,.07,3.71,1.19,5.38,.05,.07,.16,0,.12-.07h0Z"/><path class="n" d="M16.56,53.89c-.78-.62-.82-2.68-.88-3.53-.1-1.33-.01-2.63-.33-3.94-.36-1.49-.8-3.13-2.07-4.12-.08-.06-.21,.02-.15,.11,1.13,1.64,1.96,3.8,2,5.79,.02,1.32,.12,2.71,.38,4.01,.13,.64,.28,1.5,.92,1.83,.1,.05,.22-.09,.13-.16h0Z"/><path class="n" d="M14.75,54.35c-.05-.73,.69-1.14,.48-1.94-.34-1.31-.44-2.65-.63-3.99-.19-1.31-.48-2.64-.96-3.88-.36-.92-.97-2.14-1.93-2.55-.08-.03-.18,.04-.13,.13,.31,.46,.72,.84,1.05,1.3,.37,.54,.6,1.16,.81,1.78,.42,1.25,.66,2.59,.83,3.9,.14,1.06,.16,2.26,.56,3.26,.3,.77-.45,1.31-.25,2.03,.03,.1,.18,.08,.18-.02h0Z"/><path class="n" d="M13.71,53.11c.67-2.01,.08-4.49-.62-6.41-.46-1.25-1.37-4.07-3.17-3.72-.09,.02-.13,.15-.06,.21,.6,.48,1.2,.63,1.63,1.37,.46,.8,.83,1.74,1.16,2.6,.65,1.71,1.34,4.07,.89,5.9-.03,.11,.14,.16,.17,.05h0Z"/></g><path class="q" d="M14.81,52.08c-.91,.63-1.45,1.71-1.62,2.81-.16,1.1,.01,2.22,.3,3.29,1.24-.88,2.31-2.29,3.2-3.51,.23,1.22,.91,2.87,1.51,3.95,1.1-1.16,1.87-2.6,2.84-3.87,.35,.83,.69,1.66,1.06,2.48,.23,.52,.58,1.05,.98,1.47,.89-1.21,1.84-2.66,2.25-4.13,.36,1.1,.62,1.31,1.57,2.52,.22,.28,.68,.65,.95,.89,.27-1.06,.55-2.15,.5-3.25-.05-1.1-.48-2.23-1.36-2.88-.4-.29-.97-.28-1.46-.2-2.82,.46-5.71,.53-8.56,.19-.87-.1-1.91-.18-2.46,.5l.3-.27Z"/><path class="a`" d="M27.62,55.07c-.71-.65-1.44-1.2-1.98-2,.63-.01,1.12,0,1.75-.02,.22,.38,.27,2.04,.24,2.01Z"/><path class="a`" d="M23.14,55.42s-.06-.02-.08-.05c-.48-.72-.9-1.48-1.24-2.28,.78,.03,1.56,.05,2.34,.08,.04,.17-.04,.34-.12,.5-.29,.57-.58,1.14-.87,1.71,0,.01-.01,.03-.03,.04Z"/><path class="a`" d="M17.6,52.99c.71,.07,1.66,.13,2.38,.13-.34,.7-1,1.75-1.46,2.36-.48-.68-.8-1.67-.92-2.5Z"/><path class="a`" d="M16.24,52.93c-.28,.35-.5,.58-.8,.91-.42,.45-.89,.79-1.34,1.19,0-.64,.15-1.29,.42-1.87,.03-.06,.06-.12,.12-.17,.09-.08,.23-.08,.35-.07,.37,.01,.88,0,1.26,.02Z"/><path class="v" d="M9.58,41.06c-.27,1.47-.44,3.11-.71,4.58-.07,.39-.62,4-.73,4.61-.12,0-.55-.07-.66-.07,.18,.42,.19,.68,.31,1.2-.26-.18-.59-.41-1.12-.14-.28,.14-.26,.58-.23,.83,.21,1.75,.57,3.02,.79,4.5,.64-1.23,1.39-2.4,2.25-3.48,.17-.22,.36-.45,.44-.72,.08-.27,.06-.62-.17-.78-.43-.3-.75-.17-1.06-.12,.18-.35,.51-.69,.67-1.05-.25,0-.44-.1-.69-.1,.18-1.29,.44-2.38,.65-3.64,.33-2,.68-4.25,.99-6.26,.12-.8,.88-4.81,.91-4.9-.13-.05-.54-.12-.65-.13-.15,.44-.82,4.94-.96,5.67Z"/><path class="w" d="M24.27,47.06c-.49,.17-1.04,0-1.47-.28-.8-.5-1.37-1.31-1.7-2.19-.33-.88-.44-1.83-.46-2.77,0-.44,0-.9,.19-1.31,.36-.12,.74,.09,1.05,.3,1.22,.85,2.3,2.13,2.32,3.62-.08-1.78,1.05-3.55,2.7-4.21-.14,.9-.68,1.71-.79,2.61-.15,1.2,.46,2.47-.01,3.58-.04,.1-.09,.19-.18,.25-.22,.17-.54,.03-.82,.05-.3,.02-.54,.23-.83,.34Z"/><g><path class="k" d="M24.27,47.06c-.49,.17-1.04,0-1.47-.28-.8-.5-1.37-1.31-1.7-2.19-.33-.88-.44-1.83-.46-2.77,0-.44,0-.9,.19-1.31,.36-.12,.74,.09,1.05,.3,1.22,.85,2.3,2.13,2.32,3.62-.08-1.78,1.05-3.55,2.7-4.21-.14,.9-.68,1.71-.79,2.61-.15,1.2,.46,2.47-.01,3.58-.04,.1-.09,.19-.18,.25-.22,.17-.54,.03-.82,.05-.3,.02-.54,.23-.83,.34Z"/><g class="x"><path class="n" d="M25.47,47.3c.71-.3,.52-1.37,.51-1.98,0-.96-.06-1.91,.08-2.87,.12-.8,.56-1.49,.73-2.26,.02-.09-.09-.16-.16-.09-.8,.73-.98,2-1.08,3.04-.07,.72-.02,1.46,0,2.19,0,.51,.15,1.39-.21,1.8-.09,.1,.02,.23,.14,.18h0Z"/><path class="n" d="M24.79,47.53c.63-1.03,.15-1.97,.17-3.11,.01-.67,.03-1.33,.14-1.99,.12-.71,.52-1.3,.66-1.98,.02-.09-.08-.18-.16-.12-.9,.56-1,2-1.06,2.96-.04,.64-.04,1.3,.01,1.94,.07,.78,.35,1.46,.05,2.23-.04,.11,.12,.17,.18,.07h0Z"/><path class="n" d="M24.64,47.4c-.22-.23-.28-.7-.39-.99-.17-.43-.33-.87-.48-1.31-.31-.89-.31-1.85-.58-2.75-.2-.66-.6-1.24-1.04-1.75-.41-.47-.84-1.06-1.48-1.18-.18-.03-.34,.18-.19,.32,1.27,1.21,2.23,2.24,2.52,4.05,.19,1.14,.62,2.92,1.54,3.71,.07,.06,.17-.04,.11-.11h0Z"/><path class="n" d="M23.7,47.61c-.62-.49-.87-1.45-1.11-2.17-.29-.89-.51-1.81-.84-2.69-.33-.88-1.2-2.92-2.4-2.69-.11,.02-.12,.16-.06,.23,.49,.59,1.05,1.04,1.46,1.72,.49,.79,.78,1.7,1.05,2.58,.35,1.12,.65,2.59,1.79,3.18,.09,.05,.21-.08,.12-.15h0Z"/></g></g><path class="w" d="M21.07,49.82c-.35,0-.65,.29-.65,.64s.29,.65,.65,.65,.64-.29,.64-.65-.29-.64-.64-.64h0Z"/><path class="w" d="M25.87,46.64c-.46,.18-1-.08-1.45,.16-.31,.17-.51,.44-.54,.79-.02,.24,.02,.59,.26,.73,.22,.13,.64,.07,.65-.24,0-.05-.03-.09-.08-.1-.16-.06-.34,.12-.47,0-.14-.13-.07-.41-.02-.56,.12-.35,.52-.42,.84-.43,.35,0,.57-.02,.86-.22,.06-.04,.02-.15-.05-.12h0Z"/><path class="n" d="M25.22,57.86c-.19,0-.19,.3,0,.3s.2-.3,0-.3h0Z"/><path class="a`" d="M24.5,58.2s.05-.06,.05-.09c.02-.12-.06-.2-.18-.18h-.01s.08,.01,.12,.02c0,0,0,0-.01,0-.11-.07-.26,.02-.26,.15,0,.15,.18,.22,.29,.12h0Z"/><path class="a`" d="M21.84,57.96c-.19,0-.19,.3,0,.3s.19-.3,0-.3h0Z"/><path class="a`" d="M20.8,57.95c-.25,0-.25,.39,0,.39s.25-.39,0-.39h0Z"/><path class="a`" d="M19.66,57.91c-.3,0-.3,.47,0,.47s.3-.47,0-.47h0Z"/><path class="a`" d="M16.97,57.95c-.25,0-.25,.39,0,.39s.25-.39,0-.39h0Z"/><path class="a`" d="M16.04,58.02c-.28,0-.28,.44,0,.44s.28-.44,0-.44h0Z"/><path class="w" d="M22.17,51.64c-.34-.2-.76-.12-1.15-.1-.44,.02-.97-.04-1.36,.15-.08,.04-.08,.17,0,.21,.36,.18,.79,.08,1.18,.06,.42-.02,.96,.02,1.33-.2,.04-.03,.04-.09,0-.12h0Z"/><path class="k" d="M12.04,24.4c.21,.93,.41,1.87,.48,2.83,.07,.89,.03,1.79,0,2.69-.03,.83-.07,1.67-.1,2.5-.03,.68-.05,1.35-.08,2.02,0,.17-.02,.35-.14,.47-.08,.08-.19,.12-.3,.15-.42,.11-2.19,2.48-2.61,2.4-.68-3.93,.19-7.52-.23-10.34-1.11,.51-2.12,1.11-2.88,1.92,.15-1.11,.23-2.32,.37-3.43,.07-.53,.23-1.04,.38-1.55,.32-1.04,.63-2.08,.95-3.12,.11-.37,.27-.79,.63-.92,.13-.05,.28-.05,.42-.05,.7-.01,1.49,.02,1.94,.55,.21,.25,.31,.58,.4,.9,.28,.99,.53,1.99,.76,2.99Z"/><path class="m" d="M10.21,38.11c2.49,.87,3.19,.45,3.08-.01-.07-.3-.58-.42-.88-.49-.28-.07-.11-.07-.39-.14-.1-.02,.58,.03,1.24-.09,.24-.04,.4-.22,.4-.46,.01-.55-1.19-.61-1.36-.77,.19,.04,.84-.02,1.02-.07,.18-.06,.29-.3,.25-.48-.04-.19-.19-.32-.38-.37-.33-.1-.74-.15-1.09-.21,.22-.04,.5-.03,.72-.07,.15-.03,.32-.05,.44-.14,.12-.08,.14-.3,.1-.44-.05-.18-.26-.26-.44-.32-.4-.12-2.34-.44-2.67-.22-.55,.37-.6,.76-.89,1.52-.2,.52-.3,1.62-.06,2.11,.19,.39,.6,.54,.92,.65Z"/><path class="w" d="M10.05,37.6c.16-.06,.23-.19,.19-.36-.04-.17-.31-.13-.3,.04,0,.05,.01,.11-.02,.15-.06,.08,.04,.21,.13,.17h0Z"/><path class="w" d="M10.32,36.55c.06-.12,.07-.27,.04-.4-.04-.14-.25-.14-.29,0-.03,.12-.02,.28,.04,.4,.04,.07,.16,.07,.2,0h0Z"/><path class="w" d="M10.45,35.44c.09-.12,.21-.33,.09-.47-.04-.04-.11-.04-.15,0-.07,.09-.05,.2-.12,.29-.1,.13,.08,.31,.18,.18h0Z"/><path class="w" d="M10.76,34.38c.02-.07,.04-.13,.06-.2,.03-.15-.18-.26-.26-.11-.05,.09-.06,.18-.07,.28-.02,.16,.23,.19,.28,.04h0Z"/></g><g><path class="w" d="M35.44,50.65c0-.1,.04-.25,.04-.35s0-.21-.01-.31c-.04-.35-.17-.69-.43-.93,.24-.01,.84-.01,1.08,0-.27,.24-.39,.57-.43,.93-.01,.11-.01,.21-.01,.31,0,.1,.04,.25,.04,.35h-.28Z"/><path class="w" d="M35.53,50.26c-.21-.33-.59-.55-.98-.54-.39,.01-.77,.3-.84,.68-.07,.34,.1,.68,.33,.93,.23,.25,.55,.42,.84,.61,.29,.19,.7,.67,.7,.67,0,0,.45-.47,.7-.66,.27-.21,.61-.37,.84-.62,.23-.25,.4-.6,.33-.93-.08-.38-.46-.67-.84-.68-.39-.01-.77,.21-.98,.54h-.1Z"/></g><g><path class="w" d="M5.36,11.36c0,.1-.04,.25-.04,.35s0,.21,.01,.31c.04,.36,.17,.69,.43,.93-.24,.01-.84,.01-1.08,0,.26-.24,.39-.57,.43-.93,.01-.1,.01-.21,.01-.31s-.04-.25-.04-.35h.28Z"/><path class="w" d="M5.27,11.75c.21,.33,.59,.55,.98,.54,.39-.01,.77-.3,.84-.68,.07-.34-.1-.68-.33-.93-.23-.25-.55-.42-.84-.61-.29-.19-.7-.67-.7-.67,0,0-.45,.47-.7,.66-.27,.21-.61,.37-.84,.62-.23,.25-.4,.6-.33,.93,.08,.38,.45,.67,.84,.68,.39,.01,.76-.21,.98-.54h.1Z"/></g><path class="w" d="M7.87,8.74h-.79l-1.72-3.18-1.32,1.64v1.53h-.72V3h.72v3.33l2.6-3.33h.78l-1.56,2.01,2,3.74Z"/><path class="w" d="M33.06,53.54h.79l1.72,3.18,1.32-1.64v-1.53h.72v5.75h-.72v-3.33l-2.6,3.33h-.78l1.56-2.01-2-3.74Z"/><g><path class="k" d="M14.92,59.11H6.19c-1.66,0-3-1.43-3-3.19V15.66c0-.05,.04-.09,.09-.09s.09,.04,.09,.09V55.92c0,1.66,1.26,3,2.82,3H14.92c.05,0,.09,.04,.09,.09s-.04,.09-.09,.09Z"/><path class="k" d="M32.78,59.11h-6.19c-.05,0-.09-.04-.09-.09s.04-.09,.09-.09h6.19c.05,0,.09,.04,.09,.09s-.04,.09-.09,.09Z"/><path class="k" d="M37.65,46.92c-.05,0-.09-.04-.09-.09V6.36c0-1.66-1.26-3-2.82-3h-8.62c-.05,0-.09-.04-.09-.09s.04-.09,.09-.09h8.62c1.66,0,3,1.43,3,3.19V46.82c0,.05-.04,.09-.09,.09Z"/><path class="k" d="M14.45,3.36h-6.01c-.05,0-.09-.04-.09-.09s.04-.09,.09-.09h6.01c.05,0,.09,.04,.09,.09s-.04,.09-.09,.09Z"/></g></g></g></g></svg>