<?xml version="1.0" encoding="UTF-8"?><svg xmlns="http://www.w3.org/2000/svg" xmlns:xlink="http://www.w3.org/1999/xlink" viewBox="0 0 40.93 62.29"><defs><style>.l{fill:#fff;}.m{fill:#191956;}.n{fill:#d6002b;}.o{clip-path:url(#h);}.p{fill:#ffd6a1;}.q{fill:#b70027;}.r{clip-path:url(#e);}.s{clip-path:url(#d);}.t{fill:#222272;}.u{fill:none;}.v{fill:#fcc07e;}.w{fill:#2d2d2d;}.x{clip-path:url(#f);}.y{clip-path:url(#j);}.a`{fill:#141247;}.aa{fill:#0c0a35;}.ab{clip-path:url(#i);}.ac{clip-path:url(#k);}.ad{fill:#990028;}.ae{clip-path:url(#g);}.af{fill:#f70032;}</style><clipPath id="d"><path class="u" d="M22.5,17.67c-.75-.14-1.95-.64-2.66-1.71-.42-.64-.62-1.43-.83-2.16-.05-.2-.09-.38-.15-.55-.04-.12-.23-.12-.36-.11-.83,.11-.91,.14-1.62,.24-.03,1.15-.41,2.36-1.33,3.07-.63,.48-1.28,.98-2.03,1.23,.9-.24,1.94-.42,2.7-.95,.76-.53,1.23-1.33,1.53-2.21,.35,.78,.85,1.5,1.47,2.1,.14,.13,.28,.27,.45,.36,.17,.1,.49,.27,.67,.35,.91,.37,1.68,.31,2.14,.34Z"/></clipPath><clipPath id="e"><path class="u" d="M17.55,17.6c.5,.66,1.27,.69,1.84,.66-.27,.56-.56,1.13-1.01,1.55-.39,.36-.9,.6-1.43,.66,.25-.94,.58-1.9,.6-2.87Z"/></clipPath><clipPath id="f"><path class="u" d="M27.79,18.14c.64,.19,1.3,.37,1.96,.32-.49-1.31-.66-1.96-.88-3.34-.05-.34-.29-2.21-.31-2.55-.11-1.87-.1-2.95,.03-4.82,0-.05,0-.1-.02-.15-.04-.06-.12-.07-.19-.08-1.39-.12-2.79,.37-4.18,.23-.27,1.92-.54,3.87-.28,5.8,.09,.66,.21,1.34,.57,1.89,1.36,2.1,2.38,2.42,3.3,2.7Z"/></clipPath><clipPath id="g"><path class="u" d="M30.28,4.97c-.84,1-1.43,2.21-1.7,3.48-1.29,.12-2.59,.12-3.88,.11-.53,0-1.07-.04-1.6-.04-1.76-.03-2.72,.1-4.83-.11-.26-.03-.49-.21-.68-.39-.08-.08-.13-.19-.18-.3-.45-.98-1.04-1.9-1.75-2.71-.04-.04-.1-.11-.06-.15,.04-.05,.09-.06,.15-.08,1.58-.39,3.22-.43,4.84-.43,3.11,0,6.21,.09,9.31,.29,.11,0,.22,.02,.31,.07,.09,.06,.15,.17,.08,.25Z"/></clipPath><clipPath id="h"><path class="u" d="M18.75,45.09c.75,.14,1.95,.65,2.65,1.71,.42,.64,.62,1.43,.83,2.16,.06,.2,.09,.38,.15,.55,.04,.12,.23,.12,.36,.11,.83-.11,.91-.14,1.62-.24,.03-1.16,.41-2.36,1.33-3.07,.63-.48,1.28-.98,2.03-1.23-.9,.24-1.94,.42-2.7,.95-.76,.53-1.23,1.33-1.53,2.21-.35-.79-.85-1.5-1.47-2.1-.14-.14-.28-.27-.45-.36-.17-.1-.49-.27-.67-.35-.91-.37-1.68-.31-2.14-.34Z"/></clipPath><clipPath id="i"><path class="u" d="M23.69,45.16c-.5-.66-1.27-.69-1.84-.66,.27-.56,.56-1.13,1.01-1.55,.39-.36,.9-.6,1.43-.66-.25,.94-.58,1.9-.6,2.87Z"/></clipPath><clipPath id="j"><path class="u" d="M13.45,44.62c-.64-.19-1.3-.37-1.96-.32,.49,1.31,.66,1.95,.88,3.34,.05,.34,.29,2.21,.31,2.56,.11,1.87,.1,2.95-.03,4.81,0,.05,0,.1,.02,.15,.04,.06,.12,.07,.19,.08,1.39,.12,2.79-.36,4.18-.22,.27-1.92,.54-3.88,.28-5.8-.09-.66-.21-1.34-.57-1.89-1.36-2.1-2.38-2.42-3.3-2.7Z"/></clipPath><clipPath id="k"><path class="u" d="M10.97,57.79c.84-1,1.43-2.2,1.7-3.48,1.29-.12,2.59-.12,3.88-.11,.53,0,1.07,.04,1.6,.04,1.76,.02,2.73-.1,4.83,.11,.26,.03,.49,.21,.68,.39,.09,.08,.13,.19,.18,.29,.45,.98,1.04,1.9,1.75,2.71,.04,.04,.1,.11,.06,.15-.04,.04-.09,.06-.15,.07-1.57,.39-3.22,.43-4.84,.43-3.1,0-6.21-.09-9.31-.29-.11,0-.22-.01-.31-.07-.09-.06-.15-.17-.08-.25Z"/></clipPath></defs><g id="a"/><g id="b"><g id="c"><g><g><path class="l" d="M3.54,.09H37.39c1.9,0,3.45,1.55,3.45,3.45V58.74c0,1.9-1.55,3.45-3.45,3.45H3.54c-1.9,0-3.45-1.55-3.45-3.45V3.54C.09,1.64,1.64,.09,3.54,.09Z"/><path class="w" d="M37.39,62.29H3.54c-1.95,0-3.54-1.59-3.54-3.54V3.54C0,1.59,1.59,0,3.54,0H37.39c1.95,0,3.54,1.59,3.54,3.54V58.74c0,1.95-1.59,3.54-3.54,3.54ZM3.54,.19C1.69,.19,.19,1.69,.19,3.54V58.74c0,1.85,1.51,3.36,3.36,3.36H37.39c1.85,0,3.36-1.51,3.36-3.36V3.54c0-1.85-1.5-3.36-3.36-3.36H3.54Z"/></g><g><path class="a`" d="M28.08,21.75c1.44,.17,2.93,.41,4.12,1.08,1.03,.58,1.78,1.43,2.36,2.32,1.68,2.57,1.01,9.3,.67,9.31-7.64,.15-15.28,.29-22.93,.44-1.15,.02-2.32,.04-3.45-.14-.14-.03-.29-.05-.38-.14-.09-.08-.12-.2-.14-.3-.21-.99-.42-1.98-.62-2.97-.25-1.21-.51-2.44-.23-3.64,.34-1.49,1.49-2.82,2.94-3.79,1.46-.97,3.21-1.62,5-2.11,1-.27,2.03-.5,3.09-.6,1.41-.13,2.84-.03,4.25,.07,1.78,.13,3.56,.26,5.32,.47Z"/><path class="a`" d="M13.16,41.01c-1.44-.17-2.93-.41-4.12-1.08-1.03-.58-1.78-1.43-2.36-2.32-1.68-2.57-1.01-9.3-.67-9.31,7.64-.15,15.28-.29,22.92-.44,1.15-.02,2.32-.04,3.45,.15,.14,.02,.29,.05,.38,.14,.09,.08,.12,.2,.14,.31,.21,.99,.42,1.98,.62,2.97,.25,1.2,.51,2.44,.23,3.64-.34,1.49-1.49,2.82-2.94,3.79-1.46,.97-3.21,1.61-5,2.1-1,.27-2.03,.5-3.09,.6-1.41,.13-2.84,.03-4.25-.08-1.78-.13-3.56-.26-5.32-.47Z"/><path class="aa" d="M9.51,26.02c-.71,.08-1.42,.21-2.04,.55-.81,.46-1.8,1.38-2.27,2.19-.92,1.6-1.09,3.41-.48,5.15,.42,1.19,1.37,2.14,2.48,2.74,1.11,.6,2.37,.88,3.62,1,.32-2.72,.33-5.48,.34-8.22,0-.88,0-1.78-.32-2.6-.13-.32-.33-.65-.66-.78-.21-.08-.45-.06-.67-.04Z"/><path class="aa" d="M31.73,36.74c.71-.08,1.42-.21,2.04-.55,.82-.46,1.81-1.38,2.27-2.19,.92-1.6,1.09-3.41,.48-5.15-.42-1.19-1.37-2.14-2.48-2.74-1.11-.6-2.37-.88-3.62-1-.32,2.72-.33,5.47-.34,8.22,0,.88,0,1.78,.32,2.6,.13,.32,.33,.65,.66,.78,.21,.08,.45,.06,.67,.04Z"/><path class="ad" d="M33.62,33.48c.76-1.14,.58-4.13-.64-4.94-.09-.06-.21,.02-.21,.12,0,.76,.29,1.55,.38,2.31,.09,.81-.06,1.67,.11,2.46,.04,.18,.27,.18,.36,.05h0Z"/><path class="ad" d="M34.83,33.3c1-.16,1.02-1.71,.93-2.45-.1-.84-.46-2.12-1.33-2.46-.1-.04-.2,.08-.18,.18,.21,.74,.57,1.41,.74,2.17,.21,.94-.01,1.56-.32,2.41-.04,.1,.07,.17,.16,.16h0Z"/><path class="m" d="M8.21,28.66c.45-.12,.86-.33,1.31-.46,.45-.13,.98-.17,1.37,.04,.39,.21,.55,.59,.78,.92,.48,.68,1.39,1.19,2.37,1.18,1.09-.01,2.16-.64,3.2-.38,.83,.2,1.34,.9,2.15,1.16,1.32,.43,2.73-.45,4.16-.47,.81-.01,1.59,.26,2.37,.44,.79,.18,1.62,.28,2.44,.28,.62,0,1.27-.05,1.78-.34,.45-.25,.75-.66,1.25-.84,.52-.19,1.13-.1,1.67,.05,.54,.14,1.09,.32,1.66,.29,.57-.03,1.91-.55,1.92-1.01,.03-1.27-.36-2.62-1.15-3.67-1.27-1.69-2.88-2.8-3.48-3.08-2-.96-4.02-1.27-6.35-1.41-1.06-.06-2.13,0-3.19,0-1.92,0-3.88-.25-5.77,.09-5.06,.91-6.54,.51-8.74,3.11-1.24,1.47-1.34,3.19-1.07,3.63,.42,.69,1.04,.57,1.32,.49Z"/><path class="aa" d="M22.67,1.23c.02-.08,.07-.17,.15-.17,.06,0,.11,.06,.14,.12,.26,.46,.48,.94,.63,1.45-.35,0-.7-.02-1.05-.05-.06,0-.12-.02-.14-.07-.01-.03,0-.06,0-.1,.08-.39,.16-.79,.27-1.17Z"/><path class="v" d="M25.62,19.48c-.02-.35-.12-.69-.21-1.03-.37-1.47-.47-3.02-.28-4.53-1.82,.2-3.55,1.13-4.72,2.54-.31,.37-.63,.8-1.11,.87,.11,.93,.03,1.88-.23,2.78,2.12,.08,4.24-.05,6.33-.39,.07-.01,.15-.03,.19-.08,.03-.05,.03-.11,.03-.17Z"/><path class="aa" d="M25.71,18.87c-.05-.14-.22-.2-.36-.16-.71,.17-1.2,.23-3.26,.35-2.08,.12-2.78-.06-2.94,.18-1.76,2.66-2.94,3.39-4.18,4.24-.1,.07-.08,.22,.04,.25,.59,.17,1.48,.15,1.88,.09,1.82-.26,2.29-.91,3.31-1.99,.33,1.75,1.12,2.69,1.94,3.07,.56-.59,1.26-1.67,1.44-2.96,.1,.23,.42,.65,.59,.83,.94,1.01,2.54,1.53,4.16,1.6,.04,0,.07-.03,.08-.06,.06-.34-.81-1.18-1.34-2.13-.83-1.5-.78-1.62-1.37-3.3Z"/><path class="p" d="M17.13,14.02c-.06,.59-.16,1.18-.14,1.78,.01,.59,.14,1.2,.48,1.7,.4,.59,1.11,.97,1.82,.97,.71,0,1.5-.23,2.13-.57,.71-.39,1.46-.87,2.02-1.45,.67-.7,.93-1.62,1.29-2.51,.81-2.02,1.31-4.26,.77-6.36-.02-.08-.04-.16-.1-.22-.07-.07-.16-.1-.26-.12-2.24-.5-4.61,.02-6.84-.46-.42,1.19-.01,2.59-.58,3.72-.31,.62-.88,1.07-1.38,1.54-.25,.24-.51,.6-.34,.9,.21,.38,.89,.25,1.09,.64,.07,.13,.06,.3,.04,.45Z"/><path class="aa" d="M22.5,17.67c-.75-.14-1.95-.64-2.66-1.71-.42-.64-.62-1.43-.83-2.16-.05-.2-.09-.38-.15-.55-.04-.12-.23-.12-.36-.11-.83,.11-.91,.14-1.62,.24-.03,1.15-.41,2.36-1.33,3.07-.63,.48-1.28,.98-2.03,1.23,.9-.24,1.94-.42,2.7-.95,.76-.53,1.23-1.33,1.53-2.21,.35,.78,.85,1.5,1.47,2.1,.14,.13,.28,.27,.45,.36,.17,.1,.49,.27,.67,.35,.91,.37,1.68,.31,2.14,.34Z"/><path class="aa" d="M17.55,17.6c.5,.66,1.27,.69,1.84,.66-.27,.56-.56,1.13-1.01,1.55-.39,.36-.9,.6-1.43,.66,.25-.94,.58-1.9,.6-2.87Z"/><path class="a`" d="M27.79,18.14c.64,.19,1.3,.37,1.96,.32-.49-1.31-.66-1.96-.88-3.34-.05-.34-.29-2.21-.31-2.55-.11-1.87-.1-2.95,.03-4.82,0-.05,0-.1-.02-.15-.04-.06-.12-.07-.19-.08-1.39-.12-2.79,.37-4.18,.23-.27,1.92-.54,3.87-.28,5.8,.09,.66,.21,1.34,.57,1.89,1.36,2.1,2.38,2.42,3.3,2.7Z"/><path class="aa" d="M23.56,9.06s.07,.5-.03,.47c-.35-.07-.68-.06-.87-.07-1.67-.09-2.15-.1-3.39,.11-.04-.21-.05-.42-.03-.63,1.4,.08,2.8,.09,4.2,.02,.04,0,.08,0,.11,.03,.02,.02,.02,.04,.02,.07Z"/><path class="n" d="M23.27,13.71c.11-.17,.13-.4,.04-.59-.04-.1-.11-.18-.19-.25-.24-.19-.61-.17-.83,.04-.26,.25-.24,.72,.04,.95,.28,.22,.75,.15,.94-.15Z"/><path class="t" d="M18,5.13c0-.18,.06-.35,.14-.51,.46-1.02,1.38-1.8,2.42-2.21,1.04-.41,2.2-.46,3.31-.28,.48,.08,.96,.2,1.38,.44,.35,.2,.65,.46,.94,.74,.61,.57,1.22,1.23,1.31,2.06-3.1,.31-6.25,.62-9.3,0-.06-.01-.12-.03-.16-.07-.04-.04-.05-.11-.05-.17Z"/><g class="s"><path class="q" d="M17.48,12.96c-.06,.81-.17,1.53-.39,2.32-.27,.95-.91,1.53-1.46,2.3-.04,.06,.05,.12,.1,.08,1.28-1.14,2.12-2.99,1.87-4.71-.01-.07-.12-.05-.12,.02h0Z"/><path class="q" d="M18.2,12.5c-.51,1.63,.05,3.94,1.61,4.81,.05,.03,.58,.16,.54,.13-.66-.45-1.56-1.43-1.81-2.25-.26-.85-.28-1.79-.19-2.67,0-.09-.12-.1-.15-.02h0Z"/><path class="q" d="M13.32,17.69c2.23-.06,4.29-2.72,3.64-4.87-.02-.07-.13-.08-.15,0-.09,.42-.02,.82-.11,1.25-.11,.55-.31,1.11-.56,1.61-.53,1.09-1.88,1.43-2.85,1.94-.03,.02-.02,.06,.02,.06h0Z"/><path class="q" d="M18.67,12.53c-.21,1.26,.19,2.78,1,3.77,.8,.97,1.99,2.17,3.4,1.83,.09-.02,.11-.16,.03-.21-.44-.23-.92-.31-1.37-.52-.58-.27-1.09-.91-1.51-1.39-.88-.98-1.18-2.23-1.45-3.48-.01-.05-.09-.05-.1,0h0Z"/></g><g class="r"><path class="q" d="M16.7,20.85c.92-.96,1.08-2.23,1.37-3.47,.01-.05-.07-.07-.08-.02-.23,.59-.29,1.23-.48,1.84-.17,.56-.5,1.16-.81,1.65h0Z"/><path class="q" d="M17.22,20.79c.41-.27,.59-.8,.78-1.23,.29-.66,.39-1.36,.5-2.08,.01-.07-.09-.1-.12-.03-.25,.59-.23,1.25-.48,1.85-.21,.5-.51,.96-.72,1.45-.01,.03,.02,.05,.04,.03h0Z"/><path class="q" d="M18.14,20.51c.49-.87,.95-1.93,.89-2.95,0-.07-.12-.09-.14-.02-.17,.48-.22,1.01-.35,1.5-.14,.49-.39,.94-.48,1.44,0,.05,.06,.06,.08,.02h0Z"/></g><g class="x"><path class="q" d="M25.01,17.26c-.32-1.55-.22-3.14-.27-4.71-.06-1.79,.37-3.45,.53-5.21,0-.08-.12-.11-.15-.04-.71,1.55-.7,3.58-.65,5.25,.04,1.55-.15,3.29,.52,4.72,0,.02,.03,0,.02,0h0Z"/><path class="q" d="M25.85,17.74c-.4-1.9-.35-3.84-.2-5.76,.12-1.56,.18-3.05,.71-4.53,.03-.08-.08-.14-.14-.08-.93,1.02-.72,2.98-.82,4.26-.16,1.98-.23,4.21,.42,6.12,0,.02,.04,0,.03,0h0Z"/><path class="q" d="M26.6,18.29c-.41-3.47-.3-7.19,.48-10.59,.02-.09-.11-.15-.16-.06-.83,1.43-.64,3.31-.74,4.89-.11,1.87-.3,3.97,.33,5.77,.01,.04,.08,.04,.08,0h0Z"/><path class="q" d="M28.07,18.81c-.18-.93-.44-1.84-.51-2.79-.07-.94-.11-1.9-.12-2.85-.03-1.69-.1-3.45,.32-5.09,.02-.07-.08-.12-.12-.05-.72,1.42-.48,3.25-.48,4.79,0,2.09,.13,4.05,.84,6.01,.02,.05,.08,.03,.08-.02h0Z"/><path class="q" d="M29.13,19.06c-.35-1.64-.5-3.31-.75-4.97-.16-1.05-.25-2.12-.27-3.18-.01-1,.23-1.98,.14-2.98,0-.07-.12-.1-.14-.02-.26,1.86-.33,3.68-.08,5.54,.25,1.84,.32,3.91,1.05,5.63,.01,.03,.05,0,.05-.02h0Z"/></g><path class="aa" d="M30.28,4.97c-.84,1-1.43,2.21-1.7,3.48-1.29,.12-2.59,.12-3.88,.11-.53,0-1.07-.04-1.6-.04-1.76-.03-2.45-.14-4.83-.11-.26,0-.54-.17-.68-.39-.77-1.18-1.22-2.19-1.93-3-.04-.04-.1-.11-.06-.15,.04-.05,.09-.06,.15-.08,1.58-.39,3.22-.43,4.84-.43,3.11,0,6.21,.09,9.31,.29,.11,0,.22,.02,.31,.07,.09,.06,.15,.17,.08,.25Z"/><g class="ae"><path class="ad" d="M16.77,5.28c.21,.1,.42,.2,.63,.29,.13,.06,.26,.12,.4,.12,.04,0,.08,0,.12-.03,.03-.02,1.07-1.37,1.09-1.54-.95,.03-1.92,.1-2.79,.48-.04,.02-.07,.04-.09,.07-.02,.04,0,.09,.02,.12,.12,.23,.38,.36,.62,.47Z"/><path class="ad" d="M21.54,5.46c.5-.45,.79-.82,1.28-1.29-.89-.05-1.77-.1-2.66-.16-.22-.01-.47-.02-.64,.12,.61,.38,1.01,1.05,1.65,1.4,.03,.01,.12,.16,.38-.08Z"/><path class="ad" d="M23.29,4.34c.15,.24,.3,.49,.45,.73,.09,.14,.18,.28,.28,.41,.11,.14,.25,.26,.4,.36,.09,.06,.21,.02,.28-.07,.43-.59,.68-.79,1.08-1.19,.13-.13,.18-.14,.25-.31-.4-.02-.81-.05-1.21-.07-.53-.03-1.07-.06-1.59,.06,0,.04,.03,.07,.07,.08Z"/><path class="ad" d="M26.79,4.11c-.14,.1-.06,.32,.03,.46,.35,.58,.71,1.17,1.19,1.65,.09,.09,.23,.07,.29-.03,.17-.29,1.21-1.41,1.39-1.78-.88-.03-1.75-.14-2.61-.33-.1-.02-.21-.04-.29,.02Z"/></g><path class="aa" d="M19.1,4.06c.23,0,.23-.36,0-.36s-.23,.36,0,.36h0Z"/><path class="aa" d="M19.79,3.38c.15,0,.15-.23,0-.23s-.15,.23,0,.23h0Z"/><path class="aa" d="M20.38,4.07c.17,0,.17-.27,0-.27s-.17,.27,0,.27h0Z"/><path class="aa" d="M20.98,3.22c.22,0,.22-.34,0-.34s-.22,.34,0,.34h0Z"/><path class="aa" d="M20.39,2.82c.16,0,.16-.26,0-.26s-.16,.26,0,.26h0Z"/><path class="aa" d="M21.68,2.53c.19,0,.19-.29,0-.29s-.19,.29,0,.29h0Z"/><path class="aa" d="M21.99,3.47c.14,0,.14-.22,0-.22s-.14,.22,0,.22h0Z"/><path class="aa" d="M21.48,4.2c.24,0,.24-.37,0-.37s-.24,.37,0,.37h0Z"/><path class="aa" d="M22.69,4.23c.24,0,.24-.38,0-.38s-.24,.38,0,.38h0Z"/><path class="aa" d="M22.59,2.86c.16,0,.16-.24,0-.24s-.16,.24,0,.24h0Z"/><path class="aa" d="M23.32,2.45c.17,0,.17-.27,0-.27s-.17,.27,0,.27h0Z"/><path class="aa" d="M23.53,3.29h.02c.2,.07,.2-.3,0-.24h-.02c-.11,.04-.11,.2,0,.24h0Z"/><path class="aa" d="M24.02,4.23c.22,0,.22-.34,0-.34s-.22,.34,0,.34h0Z"/><path class="aa" d="M24.41,2.77c.19,0,.19-.29,0-.29s-.19,.29,0,.29h0Z"/><path class="aa" d="M24.86,3.6c.22,0,.22-.34,0-.34s-.22,.34,0,.34h0Z"/><path class="aa" d="M25.69,3.3c.16,0,.16-.25,0-.25s-.16,.25,0,.25h0Z"/><path class="aa" d="M25.44,4.27c.19,0,.19-.3,0-.3s-.19,.3,0,.3h0Z"/><path class="aa" d="M26.3,4.09c.23,0,.23-.36,0-.36s-.23,.36,0,.36h0Z"/><path class="af" d="M19.2,4.76c-.11,.58-.16,1.31,.02,1.88,.12,.39,.72,.33,.73-.1,0-.64-.17-1.18-.36-1.78-.06-.17-.34-.2-.38,0h0Z"/><path class="af" d="M16.19,5.38c-.04,.24,.06,.47,.19,.66,.16,.24,.29,.55,.51,.73,.25,.21,.62-.05,.46-.35-.12-.21-.29-.44-.46-.61-.16-.17-.37-.3-.53-.48-.05-.05-.15-.03-.17,.04h0Z"/><path class="af" d="M22.72,4.95c-.12,.32-.25,.63-.3,.97-.03,.21-.02,.42-.07,.63-.13,.53,.72,.74,.81,.22,.1-.58,0-1.26-.12-1.82-.04-.17-.27-.14-.32,0h0Z"/><path class="af" d="M26.16,5.09c-.2,.26-.31,.6-.36,.92-.04,.27-.16,.64,0,.88,.09,.14,.27,.23,.43,.18,.01,0,.03,0,.04-.01,.14-.04,.28-.16,.31-.31,.05-.28,.02-.54,0-.82-.02-.29,.01-.59-.17-.84-.07-.1-.19-.1-.27,0h0Z"/><path class="af" d="M29.56,5.42c-.27,.12-.44,.39-.6,.63-.18,.26-.4,.53-.39,.86,0,.27,.42,.43,.55,.15,.22-.48,.55-.95,.64-1.48,.02-.13-.09-.21-.21-.16h0Z"/><path class="af" d="M19.67,7.33c.2,0,.2-.31,0-.31s-.2,.31,0,.31h0Z"/><path class="af" d="M17.4,7.26c.2,0,.2-.31,0-.31s-.2,.31,0,.31h0Z"/><path class="af" d="M22.7,7.47c.18,0,.18-.28,0-.28s-.18,.28,0,.28h0Z"/><path class="af" d="M26.1,7.36s-.01,0-.02,.01c-.04,.04-.04,.12,0,.15,0,0,.01,.01,.02,.02,.08,.07,.22,.03,.22-.09s-.14-.16-.22-.09h0Z"/><path class="af" d="M28.73,7.67c.23,0,.23-.35,0-.35s-.23,.35,0,.35h0Z"/><path class="aa" d="M19.49,6.09c.29,0,.29-.45,0-.45s-.29,.45,0,.45h0Z"/><path class="aa" d="M16.84,6.18h0Z"/><path class="aa" d="M16.77,6.34c.23,0,.23-.36,0-.36s-.23,.36,0,.36h0Z"/><path class="aa" d="M22.77,6.23c.28,0,.28-.44,0-.44s-.28,.44,0,.44h0Z"/><path class="aa" d="M26.17,6.33c.3,0,.3-.47,0-.47s-.3,.47,0,.47h0Z"/><path class="aa" d="M29.14,6.64c.32,0,.32-.49,0-.49s-.32,.49,0,.49h0Z"/><path class="aa" d="M22.72,6.58c.12,0,.12-.19,0-.19s-.12,.19,0,.19h0Z"/><path class="aa" d="M19.54,6.42c.14,0,.14-.22,0-.22s-.14,.22,0,.22h0Z"/><path class="aa" d="M16.97,6.39h-.01c-.15-.05-.09,.24,.03,.13h0s.02-.11-.03-.13h0Z"/><path class="aa" d="M16.56,5.98c.12,0,.12-.18,0-.18s-.12,.18,0,.18h0Z"/><path class="aa" d="M19.44,5.55c.16,0,.16-.25,0-.25s-.16,.25,0,.25h0Z"/><path class="aa" d="M22.85,5.72c.19,0,.19-.29,0-.29s-.19,.29,0,.29h0Z"/><path class="aa" d="M26.14,6.67c.15,0,.15-.23,0-.23s-.15,.23,0,.23h0Z"/><path class="aa" d="M26.17,5.74c.13,0,.13-.21,0-.21s-.13,.21,0,.21h0Z"/><path class="aa" d="M29.07,6.72c-.07-.15-.3-.02-.22,.12,.08,.14,.28,.02,.22-.12h0Z"/><path class="aa" d="M29.34,6.14c.12,0,.12-.19,0-.19s-.13,.19,0,.19h0Z"/><path class="aa" d="M20.34,10.05c.03,.08,.06,.17,.17,.17,.02,0,.04-.02,.05-.04,.03-.07,0-.12-.03-.19-.04-.12-.23-.06-.18,.05h0Z"/><path class="aa" d="M21.64,9.71c-.05,.1-.08,.25,.02,.34,.05,.04,.14,.05,.17-.02,.04-.1,.02-.19-.01-.29-.02-.08-.14-.1-.18-.02h0Z"/><path class="aa" d="M22.86,9.9c-.02,.06-.05,.11-.08,.16-.07,.12,.12,.22,.17,.1,.03-.07,.06-.14,.08-.22,.03-.11-.13-.15-.17-.05h0Z"/><path class="aa" d="M20.56,11.48c.08-.03,.19-.12,.18-.21,0-.02-.01-.04-.03-.04-.11-.04-.21,.12-.19,.21,0,.02,.02,.05,.05,.04h0Z"/><path class="aa" d="M21.7,11.2c-.1,.08-.1,.29-.07,.41,.03,.12,.2,.12,.24,0,.03-.12,.03-.33-.07-.41-.03-.03-.06-.03-.09,0h0Z"/><path class="aa" d="M22.74,11.05c0,.11,.03,.22,.12,.29,.03,.03,.08,.04,.12,.02,0,0,.01,0,.02-.02,.03-.04,.04-.07,.01-.12-.04-.08-.11-.13-.16-.2-.03-.05-.11-.03-.11,.03h0Z"/><path class="aa" d="M21.04,9.81c-.12,.06-.08,.23-.05,.33,.05,.13,.25,.08,.21-.06-.03-.09-.03-.21-.12-.27-.01,0-.03,0-.05,0h0Z"/><path class="aa" d="M22.36,9.79c-.03,.07-.17,.41,0,.41,.09,0,.11-.12,.12-.2,.02-.09-.01-.17-.09-.22-.01,0-.03,0-.04,0h0Z"/><path class="aa" d="M21.07,11.64c.17,0,.27-.23,.27-.38,0-.09-.1-.14-.17-.1-.12,.07-.19,.26-.18,.39,0,.04,.03,.08,.08,.08h0Z"/><path class="aa" d="M22.22,11.22c-.08,.13-.06,.37,.1,.44,.07,.03,.15,0,.17-.07,.05-.16-.1-.27-.18-.38-.02-.03-.07-.02-.09,0h0Z"/><path class="l" d="M19.58,10.76s.04-.09,.07-.12c.33-.3,.77-.48,1.22-.56,.44-.08,.9-.09,1.35-.09,.3,0,1.2,.27,1.54,.52-.53,.52-1.24,.84-1.97,.91-.74,.07-1.49-.12-2.11-.53-.05-.03-.1-.07-.1-.13Z"/><path class="aa" d="M21.22,10.83c.12,.15,.33,.22,.52,.18,.19-.04,.35-.19,.4-.37,.01-.04,.02-.09,.02-.13-.01-.25-.56-.5-.92-.14-.13,.12-.13,.33-.02,.46Z"/><path class="af" d="M21.65,24.48s-.06,.03-.08,.04c-.72,.37-.41,1.64,.43,1.57,.03,0,.06,0,.09,0,1.43-.13,.8-2.24-.44-1.61h0Z"/><path class="af" d="M14.78,24.63c.99,0,.99-1.53,0-1.53s-.99,1.53,0,1.53h0Z"/><path class="ad" d="M16.37,23.6c.64-.23,1.14-.57,1.67-1,.43-.35-.21-1.02-.62-.62-.39,.39-.78,.83-1.28,1.09-.28,.15-.09,.63,.22,.52h0Z"/><path class="ad" d="M22.11,23.96c.11-.24,.16-.49,.2-.75,.06-.33,.15-.65,.19-.98,.08-.64-1.07-.66-1.01,0,.03,.29,.06,.58,.08,.88,.02,.3,.05,.6,.22,.85,.07,.11,.26,.14,.32,0h0Z"/><path class="ad" d="M27.48,23.41c-.13-.14-.24-.45-.36-.64-.06-.09-.11-.19-.17-.29-.03-.05-.05-.11-.08-.16,.06,.11-.04-.09-.06-.13-.1-.21-.38-.3-.59-.24-.29,.08-.41,.36-.36,.64,.06,.33,.4,.52,.64,.7,.12,.08,.21,.2,.33,.29,.14,.11,.27,.14,.42,.2,.22,.09,.36-.22,.22-.38h0Z"/><path class="ad" d="M19.39,19.86s.02,0,.02,0c.2,.07,.35-.18,.26-.34v-.02c-.09-.13-.28-.16-.39-.05-.14,.14-.06,.34,.11,.4h0Z"/><path class="ad" d="M20.41,19.88h0c.09-.11,.09-.24,0-.34h0c-.15-.17-.42-.04-.42,.17s.28,.34,.42,.17h0Z"/><path class="ad" d="M20.94,19.96c.34,0,.34-.52,0-.52s-.33,.52,0,.52h0Z"/><path class="ad" d="M21.65,19.92c.3,0,.3-.47,0-.47s-.31,.47,0,.47h0Z"/><path class="ad" d="M22.34,19.84c.3,0,.3-.47,0-.47s-.3,.47,0,.47h0Z"/><path class="ad" d="M22.95,19.76c.27,0,.27-.41,0-.41s-.27,.41,0,.41h0Z"/><path class="ad" d="M23.58,19.73h.03c.15,.06,.31-.07,.31-.22s-.16-.29-.31-.24c0,0-.02,0-.03,0-.22,.08-.22,.37,0,.45h0Z"/><path class="ad" d="M24.48,19.72c.33,0,.33-.51,0-.51s-.33,.51,0,.51h0Z"/><path class="ad" d="M25.2,19.59c.26,0,.26-.41,0-.41s-.27,.41,0,.41h0Z"/><path class="af" d="M21.97,22.66c.16,0,.29-.13,.29-.29s-.13-.29-.29-.29-.29,.13-.29,.29,.13,.29,.29,.29h0Z"/><path class="af" d="M17.73,22.64c.1-.04,.18-.1,.21-.21,.05-.19-.09-.37-.28-.37-.16,0-.29,.13-.29,.29,0,.18,.19,.35,.37,.28h0Z"/><path class="af" d="M26.11,22.56s0,.02,.01,.02c.06,.11,.19,.16,.3,.12,.12-.03,.19-.14,.2-.26v-.03c.02-.18-.19-.31-.35-.27-.18,.05-.25,.25-.17,.41h0Z"/><path class="af" d="M18.33,21.83c.08-.06,.16-.12,.23-.18,.07-.07,.17-.14,.16-.25,0-.05-.04-.1-.1-.1-.21,.01-.3,.31-.4,.45-.05,.07,.05,.13,.11,.08h0Z"/><path class="af" d="M17.94,21.64s.07-.03,.11-.05c.03-.02,.06-.05,.09-.08,.06-.05,.13-.14,.15-.22,.04-.14-.12-.25-.24-.19-.08,.04-.15,.14-.17,.23,0,.04-.02,.08-.02,.12,0,.03,0,.08,0,.11-.02,.05,.03,.13,.09,.09h0Z"/><path class="af" d="M18.47,22.16c.1,0,.17,0,.27-.05,.1-.05,.19-.11,.23-.21,.05-.11-.04-.28-.17-.22-.09,.04-.16,.09-.23,.16-.03,.03-.06,.06-.09,.1-.03,.04-.04,.08-.07,.12-.02,.04,0,.09,.05,.09h0Z"/><path class="af" d="M21.53,21.79c.04-.05,.06-.08,.08-.15,.01-.07,0-.16-.02-.23-.05-.14-.28-.17-.31,0-.03,.16,.03,.31,.17,.39,.03,.02,.07,.01,.09-.01h0Z"/><path class="af" d="M22.07,21.6c.06-.06,.06-.15,.04-.23-.02-.08,0-.16-.03-.24-.01-.03-.05-.05-.08-.05-.24,.01-.21,.45-.03,.54,.03,.02,.07,.02,.1-.01h0Z"/><path class="af" d="M22.39,21.66c.06-.03,.11-.09,.15-.14,.05-.06,.11-.12,.13-.2,.03-.08-.07-.19-.15-.15-.15,.06-.31,.3-.22,.47,.02,.03,.05,.04,.08,.02h0Z"/><path class="af" d="M25.85,21.92c.03-.15-.02-.35-.16-.44-.08-.05-.2,0-.21,.09-.04,.19,.11,.35,.28,.4,.04,.01,.08-.01,.09-.05h0Z"/><path class="af" d="M25.57,22.16c-.06-.06-.11-.1-.19-.14-.1-.06-.17-.09-.28-.04-.08,.04-.08,.15-.03,.21,.1,.12,.32,.07,.46,.05,.04,0,.06-.05,.03-.08h0Z"/><path class="af" d="M26.29,21.68c0-.07,.02-.15,.03-.22,.03-.21-.28-.21-.26-.04,.01,.11,.03,.21,.1,.29,.04,.05,.13,.04,.13-.04h0Z"/><path class="af" d="M18.6,25.12c.19,0,.19-.3,0-.3s-.19,.3,0,.3h0Z"/><path class="af" d="M16.06,25.78c.19,0,.19-.3,0-.3s-.19,.3,0,.3h0Z"/><path class="af" d="M5.79,34.41c.19,0,.19-.3,0-.3s-.19,.3,0,.3h0Z"/><path class="af" d="M15.76,27.43c.19,0,.19-.3,0-.3s-.19,.3,0,.3h0Z"/><path class="af" d="M13.51,26.51c.23,0,.23-.36,0-.36s-.23,.36,0,.36h0Z"/><path class="af" d="M10.44,25.48c.27,0,.27-.41,0-.41s-.27,.41,0,.41h0Z"/><path class="af" d="M8.86,27.1c.27,0,.27-.41,0-.41s-.27,.41,0,.41h0Z"/><path class="af" d="M17.57,27.86v.02c-.08,.16,.06,.3,.22,.23,0,0,.01,0,.02,0,.11-.04,.11-.2,.04-.28s-.23-.07-.28,.04h0Z"/><path class="af" d="M12.19,24.09v.02c-.08,.16,.06,.3,.22,.23,0,0,.01,0,.02,0,.11-.05,.11-.2,.04-.28-.07-.07-.23-.07-.28,.04h0Z"/><path class="af" d="M21.01,27.18c.29,0,.29-.46,0-.46s-.29,.46,0,.46h0Z"/><path class="af" d="M14.26,29.38c.29,0,.29-.45,0-.45s-.29,.45,0,.45h0Z"/><path class="af" d="M10.68,27.59h.02s-.08-.01-.11-.02h.01c.13,.07,.26-.06,.2-.19-.02-.03-.04-.06-.08-.07-.09-.04-.2-.01-.23,.09-.03,.12,.08,.21,.19,.19h0Z"/><path class="af" d="M5.75,33.49s.01,0,.02,0c-.04,0-.08,0-.11-.02h.01c.13,.07,.26-.06,.2-.19-.02-.03-.04-.06-.08-.07-.09-.04-.2-.01-.23,.09-.03,.12,.08,.21,.19,.19h0Z"/><path class="af" d="M22.45,29.75c.2,0,.2-.3,0-.3s-.2,.3,0,.3h0Z"/><path class="af" d="M24.96,24.92c.19,0,.19-.29,0-.29s-.19,.29,0,.29h0Z"/><path class="af" d="M33.13,29.41c.27,0,.27-.41,0-.41s-.27,.41,0,.41h0Z"/><path class="af" d="M35.11,28.26c.27,0,.27-.41,0-.41s-.27,.41,0,.41h0Z"/><path class="af" d="M35.34,29.61c.27,0,.27-.41,0-.41s-.27,.41,0,.41h0Z"/><path class="ad" d="M10.53,29.33c.28,0,.51-.23,.51-.51s-.23-.51-.51-.51-.51,.23-.51,.51,.23,.51,.51,.51h0Z"/><path class="ad" d="M10.09,30.01v.02c.08,.15,.28,.21,.43,.17,.2-.05,.3-.26,.26-.46v-.02c-.05-.2-.28-.31-.46-.26-.25,.07-.32,.33-.22,.55h0Z"/><path class="ad" d="M15.25,31.7v.03c.07,.11,.22,.15,.32,.08,.04-.02,.06-.05,.08-.08,.07-.1,.02-.25-.08-.31,0,0-.02-.01-.03-.02-.19-.11-.4,.1-.3,.3h0Z"/><path class="ad" d="M20.43,32.7s0,.02,.01,.03c.06,.11,.21,.15,.31,.08,.04-.02,.06-.05,.08-.08,.07-.1,.02-.25-.08-.31,0,0-.02,0-.03-.01-.19-.11-.4,.1-.3,.3h0Z"/><path class="ad" d="M7.62,29.28c-.76,1.14-.58,4.13,.64,4.94,.09,.06,.21-.02,.21-.12,0-.76-.29-1.55-.38-2.31-.09-.81,.06-1.67-.11-2.46-.04-.18-.27-.18-.36-.05h0Z"/><path class="ad" d="M6.41,29.46c-1,.16-1.02,1.7-.93,2.45,.1,.83,.46,2.12,1.33,2.46,.11,.04,.2-.08,.18-.18-.21-.74-.56-1.41-.74-2.17-.21-.94,.01-1.55,.32-2.41,.04-.1-.07-.17-.16-.16h0Z"/><path class="m" d="M32.81,34.18c-.45,.12-.86,.33-1.31,.46-.45,.13-.98,.17-1.37-.04-.39-.2-.55-.59-.78-.91-.48-.68-1.39-1.19-2.37-1.18-1.09,.01-2.16,.64-3.2,.39-.83-.2-1.34-.89-2.14-1.16-1.32-.43-2.73,.45-4.16,.47-.81,.01-1.58-.26-2.37-.44-.79-.18-1.62-.28-2.44-.28-.62,0-1.27,.05-1.78,.34-.45,.25-.75,.66-1.25,.84-.52,.19-1.13,.1-1.67-.04-.54-.14-1.09-.32-1.66-.29-.57,.03-1.38,.4-1.4,.86-.03,1.27,.63,2.47,1.15,3.67,.85,1.97,4.23,4.9,9.31,4.65,1.06-.05,2.12,0,3.19,0,1.93,0,6.8,.06,8.71-.07,4.3-.3,4.7-1.2,6.2-3.4,1.04-1.52,.93-2.92,.66-3.36-.42-.69-1.04-.56-1.32-.49Z"/><path class="aa" d="M18.58,61.53c-.02,.08-.07,.17-.15,.17-.07,0-.11-.06-.14-.12-.26-.46-.48-.94-.63-1.45,.35,0,.7,.02,1.05,.05,.06,0,.12,.02,.14,.07,.01,.03,0,.06,0,.1-.08,.39-.16,.79-.27,1.17Z"/><path class="v" d="M15.63,43.29c.02,.35,.12,.69,.21,1.03,.37,1.47,.47,3.02,.28,4.53,1.82-.2,3.55-1.13,4.72-2.54,.31-.37,.63-.8,1.11-.87-.11-.93-.03-1.88,.23-2.79-2.12-.07-4.24,.05-6.33,.39-.07,0-.15,.03-.19,.08-.03,.05-.03,.11-.03,.17Z"/><path class="aa" d="M15.54,43.89c.05,.14,.22,.2,.36,.17,.71-.17,1.2-.23,3.26-.35,2.08-.12,2.78,.06,2.94-.18,1.76-2.66,2.94-3.39,4.18-4.24,.1-.07,.08-.22-.04-.26-.59-.17-1.48-.14-1.88-.09-1.82,.27-2.29,.91-3.31,1.99-.33-1.75-1.12-2.69-1.94-3.07-.56,.59-1.26,1.67-1.44,2.96-.1-.23-.42-.65-.59-.83-.94-1.01-2.54-1.53-4.16-1.6-.04,0-.07,.03-.08,.06-.06,.34,.81,1.18,1.34,2.14,.83,1.5,.78,1.61,1.37,3.3Z"/><path class="p" d="M24.11,48.74c.06-.59,.16-1.18,.14-1.78-.01-.6-.14-1.2-.48-1.7-.4-.59-1.11-.97-1.82-.97-.72,0-1.5,.23-2.13,.57-.71,.39-1.46,.87-2.02,1.45-.67,.7-.94,1.62-1.29,2.52-.81,2.02-1.31,4.26-.77,6.36,.02,.08,.04,.16,.1,.22,.07,.07,.17,.1,.26,.12,2.24,.5,4.61-.02,6.84,.46,.42-1.19,.01-2.59,.58-3.72,.31-.62,.88-1.07,1.38-1.54,.25-.24,.51-.6,.34-.9-.21-.38-.89-.25-1.09-.64-.07-.13-.06-.3-.04-.45Z"/><path class="aa" d="M18.75,45.09c.75,.14,1.95,.65,2.65,1.71,.42,.64,.62,1.43,.83,2.16,.06,.2,.09,.38,.15,.55,.04,.12,.23,.12,.36,.11,.83-.11,.91-.14,1.62-.24,.03-1.16,.41-2.36,1.33-3.07,.63-.48,1.28-.98,2.03-1.23-.9,.24-1.94,.42-2.7,.95-.76,.53-1.23,1.33-1.53,2.21-.35-.79-.85-1.5-1.47-2.1-.14-.14-.28-.27-.45-.36-.17-.1-.49-.27-.67-.35-.91-.37-1.68-.31-2.14-.34Z"/><path class="aa" d="M23.69,45.16c-.5-.66-1.27-.69-1.84-.66,.27-.56,.56-1.13,1.01-1.55,.39-.36,.9-.6,1.43-.66-.25,.94-.58,1.9-.6,2.87Z"/><path class="a`" d="M13.45,44.62c-.64-.19-1.3-.37-1.96-.32,.49,1.31,.66,1.95,.88,3.34,.05,.34,.29,2.21,.31,2.56,.11,1.87,.1,2.95-.03,4.81,0,.05,0,.1,.02,.15,.04,.06,.12,.07,.19,.08,1.39,.12,2.79-.36,4.18-.22,.27-1.92,.54-3.88,.28-5.8-.09-.66-.21-1.34-.57-1.89-1.36-2.1-2.38-2.42-3.3-2.7Z"/><path class="aa" d="M17.68,53.7s-.07-.49,.03-.47c.35,.07,.68,.06,.87,.07,1.67,.09,2.15,.1,3.39-.11,.04,.21,.05,.42,.03,.62-1.4-.08-2.8-.09-4.2-.02-.04,0-.08,0-.11-.03-.02-.02-.02-.04-.02-.07Z"/><path class="n" d="M17.97,49.05c-.11,.17-.13,.4-.04,.59,.04,.1,.11,.18,.19,.25,.24,.18,.61,.17,.83-.04,.26-.25,.24-.72-.04-.95-.28-.23-.75-.15-.94,.15Z"/><path class="t" d="M23.24,57.63c0,.18-.06,.35-.14,.51-.46,1.02-1.38,1.8-2.43,2.21-1.04,.41-2.2,.46-3.31,.28-.48-.08-.96-.2-1.38-.44-.35-.2-.65-.47-.94-.74-.61-.57-1.22-1.23-1.31-2.06,3.1-.31,6.25-.62,9.3,.01,.06,.01,.12,.03,.16,.07,.04,.04,.05,.11,.05,.17Z"/><g class="o"><path class="q" d="M23.76,49.8c.06-.81,.17-1.53,.39-2.31,.27-.95,.91-1.53,1.46-2.3,.04-.06-.05-.12-.1-.08-1.28,1.14-2.12,2.99-1.87,4.71,.01,.07,.12,.05,.12-.02h0Z"/><path class="q" d="M23.05,50.26c.51-1.63-.05-3.95-1.61-4.81-.05-.03-.58-.16-.54-.13,.66,.45,1.56,1.43,1.81,2.25,.26,.85,.28,1.79,.19,2.67,0,.09,.12,.1,.15,.02h0Z"/><path class="q" d="M27.93,45.08c-2.23,.06-4.29,2.72-3.64,4.87,.02,.07,.13,.08,.15,0,.09-.42,.02-.82,.11-1.25,.11-.55,.31-1.11,.56-1.61,.53-1.08,1.88-1.43,2.85-1.94,.03-.02,.02-.06-.02-.06h0Z"/><path class="q" d="M22.58,50.23c.21-1.26-.19-2.78-1-3.77-.8-.97-1.99-2.17-3.41-1.83-.09,.02-.11,.16-.03,.21,.44,.23,.92,.31,1.37,.52,.58,.28,1.09,.92,1.51,1.39,.88,.98,1.18,2.23,1.45,3.48,0,.05,.09,.05,.1,0h0Z"/></g><g class="ab"><path class="q" d="M24.55,41.91c-.92,.96-1.08,2.23-1.37,3.47-.01,.05,.06,.07,.08,.02,.23-.59,.29-1.23,.48-1.83,.17-.56,.5-1.16,.81-1.65h0Z"/><path class="q" d="M24.03,41.97c-.41,.27-.58,.8-.78,1.22-.29,.66-.39,1.37-.5,2.08-.01,.07,.09,.1,.12,.03,.25-.59,.23-1.25,.47-1.85,.21-.5,.51-.96,.72-1.45,.01-.03-.02-.05-.04-.03h0Z"/><path class="q" d="M23.1,42.25c-.49,.87-.95,1.93-.89,2.95,0,.07,.12,.09,.14,.02,.17-.48,.22-1.01,.35-1.5,.14-.49,.39-.94,.48-1.44,0-.05-.06-.06-.08-.02h0Z"/></g><g class="y"><path class="q" d="M16.23,45.51c.33,1.55,.22,3.14,.27,4.71,.06,1.79-.37,3.45-.54,5.21,0,.08,.12,.11,.15,.04,.71-1.55,.7-3.58,.65-5.25-.04-1.55,.15-3.29-.52-4.72,0-.02-.03,0-.02,.01h0Z"/><path class="q" d="M15.4,45.02c.4,1.9,.35,3.84,.2,5.76-.12,1.56-.18,3.04-.71,4.53-.03,.08,.08,.14,.14,.08,.93-1.02,.72-2.99,.82-4.26,.16-1.98,.23-4.21-.42-6.12,0-.02-.04-.01-.03,0h0Z"/><path class="q" d="M14.64,44.47c.41,3.47,.3,7.19-.48,10.59-.02,.09,.11,.15,.16,.07,.83-1.44,.64-3.31,.74-4.89,.11-1.87,.3-3.97-.33-5.77-.01-.04-.08-.04-.08,.01h0Z"/><path class="q" d="M13.17,43.95c.18,.93,.44,1.84,.52,2.79,.07,.94,.11,1.9,.12,2.84,.03,1.69,.1,3.45-.32,5.1-.02,.07,.08,.12,.12,.05,.73-1.41,.48-3.25,.48-4.79,0-2.09-.13-4.04-.84-6.01-.02-.05-.08-.03-.08,.02h0Z"/><path class="q" d="M12.11,43.7c.35,1.64,.5,3.31,.75,4.97,.16,1.05,.25,2.12,.27,3.18,.01,1-.23,1.98-.14,2.99,0,.07,.12,.1,.13,.02,.26-1.86,.33-3.68,.07-5.54-.25-1.84-.32-3.91-1.05-5.63-.01-.03-.05,0-.05,.02h0Z"/></g><path class="aa" d="M10.97,57.79c.84-1,1.43-2.2,1.7-3.48,1.29-.12,2.59-.12,3.88-.11,.53,0,1.07,.04,1.6,.04,1.76,.02,2.45,.14,4.83,.11,.26,0,.54,.17,.68,.39,.77,1.18,1.22,2.19,1.93,3.01,.04,.04,.1,.11,.06,.15-.04,.04-.09,.06-.15,.07-1.57,.39-3.22,.43-4.84,.43-3.1,0-6.21-.09-9.31-.29-.11,0-.22-.01-.31-.07-.09-.06-.15-.17-.08-.25Z"/><g class="ac"><path class="ad" d="M24.47,57.48c-.21-.1-.42-.2-.63-.3-.13-.06-.26-.12-.4-.12-.04,0-.09,0-.12,.03-.03,.02-1.07,1.37-1.08,1.54,.95-.04,1.92-.1,2.79-.48,.04-.02,.07-.04,.09-.07,.02-.04,0-.09-.02-.12-.12-.23-.38-.36-.62-.47Z"/><path class="ad" d="M19.71,57.3c-.5,.45-.79,.82-1.28,1.29,.89,.05,1.78,.1,2.66,.16,.22,.01,.47,.02,.64-.12-.61-.38-1.01-1.05-1.65-1.4-.03-.01-.12-.16-.38,.08Z"/><path class="ad" d="M17.96,58.42c-.15-.24-.3-.49-.45-.73-.09-.14-.18-.28-.28-.41-.11-.14-.25-.26-.4-.36-.09-.06-.21-.02-.28,.07-.43,.59-.68,.8-1.08,1.2-.13,.13-.18,.13-.25,.31,.4,.02,.81,.05,1.21,.07,.53,.03,1.07,.06,1.59-.06,0-.04-.03-.08-.07-.08Z"/><path class="ad" d="M14.45,58.66c.14-.1,.06-.32-.03-.46-.35-.58-.71-1.17-1.18-1.65-.09-.09-.23-.07-.3,.03-.17,.29-1.21,1.4-1.39,1.78,.88,.03,1.75,.13,2.61,.33,.1,.02,.21,.04,.29-.02Z"/></g><path class="aa" d="M22.14,58.7c-.23,0-.23,.36,0,.36s.23-.36,0-.36h0Z"/><path class="aa" d="M21.46,59.39c-.15,0-.15,.23,0,.23s.15-.23,0-.23h0Z"/><path class="aa" d="M20.87,58.7c-.17,0-.17,.27,0,.27s.17-.27,0-.27h0Z"/><path class="aa" d="M20.27,59.54c-.22,0-.22,.34,0,.34s.22-.34,0-.34h0Z"/><path class="aa" d="M20.86,59.94c-.16,0-.16,.26,0,.26s.16-.26,0-.26h0Z"/><path class="aa" d="M19.57,60.23c-.19,0-.19,.29,0,.29s.19-.29,0-.29h0Z"/><path class="aa" d="M19.26,59.29c-.14,0-.14,.22,0,.22s.14-.22,0-.22h0Z"/><path class="aa" d="M19.76,58.56c-.24,0-.24,.37,0,.37s.24-.37,0-.37h0Z"/><path class="aa" d="M18.56,58.53c-.24,0-.24,.37,0,.37s.24-.37,0-.37h0Z"/><path class="aa" d="M18.66,59.9c-.16,0-.16,.25,0,.25s.16-.25,0-.25h0Z"/><path class="aa" d="M17.92,60.31c-.17,0-.17,.27,0,.27s.17-.27,0-.27h0Z"/><path class="aa" d="M17.71,59.46h-.01c-.2-.07-.2,.3,0,.24h.01c.12-.04,.12-.2,0-.24h0Z"/><path class="aa" d="M17.22,58.53c-.22,0-.22,.34,0,.34s.22-.34,0-.34h0Z"/><path class="aa" d="M16.83,59.99c-.19,0-.19,.29,0,.29s.19-.29,0-.29h0Z"/><path class="aa" d="M16.39,59.17c-.22,0-.22,.34,0,.34s.22-.34,0-.34h0Z"/><path class="aa" d="M15.56,59.46c-.16,0-.16,.25,0,.25s.16-.25,0-.25h0Z"/><path class="aa" d="M15.8,58.49c-.19,0-.19,.3,0,.3s.19-.3,0-.3h0Z"/><path class="aa" d="M14.94,58.67c-.23,0-.23,.35,0,.35s.23-.35,0-.35h0Z"/><path class="af" d="M22.04,58.01c.11-.58,.16-1.31-.02-1.88-.12-.39-.72-.33-.73,.1,0,.64,.17,1.18,.36,1.78,.06,.17,.34,.21,.38,0h0Z"/><path class="af" d="M25.06,57.38c.04-.24-.06-.47-.19-.66-.16-.24-.29-.54-.51-.73-.25-.21-.62,.05-.45,.35,.11,.21,.29,.44,.46,.61,.17,.17,.38,.3,.53,.48,.05,.05,.15,.03,.17-.04h0Z"/><path class="af" d="M18.52,57.82c.12-.32,.25-.63,.3-.97,.03-.21,.02-.42,.07-.63,.13-.53-.72-.75-.81-.22-.1,.58,0,1.26,.12,1.83,.04,.17,.27,.14,.32,0h0Z"/><path class="af" d="M15.09,57.67c.2-.26,.31-.6,.36-.92,.04-.27,.16-.64,0-.89-.09-.14-.27-.23-.43-.18-.01,0-.03,0-.04,.01-.14,.04-.28,.16-.31,.31-.05,.28-.02,.54,0,.82,.01,.29-.01,.59,.17,.84,.07,.1,.19,.1,.27,0h0Z"/><path class="af" d="M11.69,57.34c.27-.12,.44-.39,.6-.63,.18-.26,.39-.53,.39-.86,0-.27-.42-.43-.55-.15-.22,.48-.55,.95-.64,1.48-.02,.13,.09,.21,.21,.16h0Z"/><path class="af" d="M21.57,55.44c-.2,0-.2,.31,0,.31s.2-.31,0-.31h0Z"/><path class="af" d="M23.85,55.5c-.2,0-.2,.31,0,.31s.2-.31,0-.31h0Z"/><path class="af" d="M18.54,55.29c-.18,0-.18,.28,0,.28s.18-.28,0-.28h0Z"/><path class="af" d="M15.14,55.4s.01,0,.02-.02c.04-.04,.04-.11,0-.15,0,0-.01,0-.02-.02-.08-.07-.22-.03-.22,.09s.14,.16,.22,.09h0Z"/><path class="af" d="M12.51,55.09c-.22,0-.22,.35,0,.35s.23-.35,0-.35h0Z"/><path class="aa" d="M21.75,56.67c-.29,0-.29,.45,0,.45s.29-.45,0-.45h0Z"/><path class="aa" d="M24.41,56.59h0Z"/><path class="aa" d="M24.48,56.42c-.23,0-.23,.36,0,.36s.23-.36,0-.36h0Z"/><path class="aa" d="M18.48,56.53c-.28,0-.28,.44,0,.44s.28-.44,0-.44h0Z"/><path class="aa" d="M15.07,56.43c-.3,0-.3,.47,0,.47s.3-.47,0-.47h0Z"/><path class="aa" d="M12.1,56.12c-.32,0-.32,.49,0,.49s.32-.49,0-.49h0Z"/><path class="aa" d="M18.53,56.18c-.12,0-.12,.19,0,.19s.12-.19,0-.19h0Z"/><path class="aa" d="M21.7,56.34c-.14,0-.14,.22,0,.22s.14-.22,0-.22h0Z"/><path class="aa" d="M24.27,56.38h.01c.16,.05,.09-.24-.04-.13h0s-.02,.11,.03,.13h0Z"/><path class="aa" d="M24.69,56.79c-.12,0-.12,.18,0,.18s.12-.18,0-.18h0Z"/><path class="aa" d="M21.8,57.21c-.16,0-.16,.25,0,.25s.16-.25,0-.25h0Z"/><path class="aa" d="M18.39,57.04c-.19,0-.19,.29,0,.29s.19-.29,0-.29h0Z"/><path class="aa" d="M15.1,56.09c-.15,0-.15,.23,0,.23s.15-.23,0-.23h0Z"/><path class="aa" d="M15.07,57.02c-.13,0-.13,.21,0,.21s.13-.21,0-.21h0Z"/><path class="aa" d="M12.17,56.04c.07,.15,.3,.02,.22-.12-.08-.14-.28-.02-.22,.12h0Z"/><path class="aa" d="M11.91,56.62c-.12,0-.12,.19,0,.19s.13-.19,0-.19h0Z"/><path class="aa" d="M20.91,52.71c-.03-.09-.06-.17-.16-.17-.02,0-.04,.02-.05,.04-.03,.07,0,.12,.03,.19,.04,.12,.23,.06,.18-.05h0Z"/><path class="aa" d="M19.6,53.05c.05-.1,.08-.25-.02-.34-.05-.04-.14-.05-.17,.02-.04,.1-.01,.19,.01,.29,.02,.08,.14,.1,.18,.02h0Z"/><path class="aa" d="M18.38,52.86c.02-.06,.05-.11,.08-.16,.07-.11-.12-.21-.17-.1-.03,.07-.06,.14-.08,.21-.03,.11,.13,.15,.17,.05h0Z"/><path class="aa" d="M20.68,51.28c-.08,.03-.19,.12-.18,.21,0,.02,.01,.04,.03,.04,.11,.04,.21-.12,.2-.21,0-.02-.02-.04-.05-.04h0Z"/><path class="aa" d="M19.54,51.56c.1-.09,.1-.29,.07-.41-.03-.12-.2-.12-.24,0-.03,.12-.03,.32,.07,.41,.03,.02,.07,.02,.09,0h0Z"/><path class="aa" d="M18.5,51.71c0-.11-.03-.22-.12-.29-.03-.03-.08-.04-.12-.01,0,0-.01,0-.02,.01-.03,.04-.04,.07-.01,.12,.04,.08,.11,.13,.16,.2,.03,.05,.11,.03,.11-.03h0Z"/><path class="aa" d="M20.2,52.95c.12-.06,.08-.23,.04-.33-.05-.13-.25-.08-.21,.06,.03,.09,.03,.21,.12,.28,.01,0,.03,0,.05,0h0Z"/><path class="aa" d="M18.88,52.97c.03-.07,.17-.41,0-.41-.09,0-.11,.12-.12,.2-.02,.09,.01,.18,.09,.22,.01,0,.03,0,.04-.01h0Z"/><path class="aa" d="M20.18,51.12c-.17,0-.27,.23-.27,.37,0,.09,.1,.14,.17,.1,.12-.07,.19-.26,.18-.39,0-.04-.03-.08-.08-.08h0Z"/><path class="aa" d="M19.03,51.54c.08-.13,.06-.37-.1-.44-.07-.03-.15,0-.17,.07-.05,.16,.1,.27,.18,.38,.02,.03,.07,.02,.09-.01h0Z"/><path class="l" d="M21.66,52s-.04,.08-.07,.12c-.33,.3-.77,.48-1.22,.56-.44,.09-.9,.09-1.35,.09-.3,0-1.2-.27-1.54-.52,.53-.51,1.24-.84,1.97-.91,.74-.07,1.49,.12,2.11,.53,.05,.03,.1,.07,.1,.13Z"/><path class="aa" d="M20.02,51.93c-.12-.15-.33-.22-.52-.18-.19,.04-.35,.19-.4,.37-.01,.04-.02,.09-.02,.13,.01,.25,.56,.5,.92,.15,.13-.12,.13-.33,.02-.46Z"/><path class="af" d="M19.6,38.28s.06-.03,.08-.04c.72-.37,.41-1.65-.43-1.57-.03,0-.06,0-.09,0-1.42,.13-.8,2.24,.44,1.61h0Z"/><path class="af" d="M26.46,38.13c-.99,0-.99,1.54,0,1.54s.99-1.54,0-1.54h0Z"/><path class="ad" d="M24.87,39.16c-.64,.23-1.14,.57-1.67,1-.43,.35,.21,1.02,.62,.62,.39-.39,.78-.83,1.28-1.1,.28-.15,.09-.63-.22-.52h0Z"/><path class="ad" d="M19.14,38.81c-.11,.24-.16,.49-.2,.75-.06,.33-.15,.65-.19,.98-.08,.64,1.07,.66,1.01,0-.03-.29-.06-.58-.08-.88-.02-.29-.05-.6-.22-.85-.07-.11-.26-.14-.32,0h0Z"/><path class="ad" d="M13.76,39.35c.13,.14,.24,.45,.35,.64,.06,.09,.11,.19,.17,.29,.03,.05,.05,.11,.08,.16-.06-.11,.04,.09,.06,.13,.1,.21,.37,.3,.59,.24,.29-.08,.41-.36,.36-.64-.06-.33-.4-.52-.65-.7-.11-.08-.21-.2-.32-.29-.14-.11-.27-.14-.42-.2-.22-.09-.36,.22-.22,.38h0Z"/><path class="ad" d="M21.86,42.9s-.02,0-.02,0c-.2-.08-.35,.18-.26,.34v.02c.09,.13,.28,.16,.39,.05,.14-.14,.06-.34-.11-.4h0Z"/><path class="ad" d="M20.84,42.88h0c-.09,.11-.09,.24,0,.34h0c.15,.17,.42,.04,.42-.17s-.28-.34-.42-.18h0Z"/><path class="ad" d="M20.3,42.8c-.34,0-.34,.52,0,.52s.34-.52,0-.52h0Z"/><path class="ad" d="M19.59,42.84c-.3,0-.3,.47,0,.47s.31-.47,0-.47h0Z"/><path class="ad" d="M18.91,42.92c-.3,0-.3,.47,0,.47s.3-.47,0-.47h0Z"/><path class="ad" d="M18.3,43c-.27,0-.27,.41,0,.41s.27-.41,0-.41h0Z"/><path class="ad" d="M17.67,43.03h-.03c-.15-.06-.31,.07-.31,.22s.16,.29,.31,.24h.03c.22-.09,.22-.38,0-.46h0Z"/><path class="ad" d="M16.77,43.04c-.33,0-.33,.51,0,.51s.33-.51,0-.51h0Z"/><path class="ad" d="M16.05,43.17c-.27,0-.27,.41,0,.41s.27-.41,0-.41h0Z"/><path class="af" d="M19.27,40.1c-.16,0-.29,.13-.29,.29s.13,.29,.29,.29,.29-.13,.29-.29-.13-.29-.29-.29h0Z"/><path class="ad" d="M6.31,37.78c-.23-.27-1.25-1.57-1.12-1.9,.08-.19,.26-.32,.44-.42,8.33-4.57,17.39-8.06,25.47-12.87,.15-.09,.31-.18,.48-.19,.15,0,.3,.06,.44,.12,1.51,.69,3.12,1.51,3.87,2.99,.08,.15,.14,.32,.13,.49-.03,.24-.2,.46-.4,.6-3.59,2.56-6.82,4.21-12.07,6.76-4.38,2.12-9.61,3.98-13.87,6.33-.29,.16-.62,.33-.95,.27-.33-.06-1.8-1.43-2.43-2.17Z"/><path class="af" d="M23.52,40.12c-.1,.04-.18,.1-.21,.21-.05,.18,.09,.37,.28,.37,.16,0,.29-.13,.29-.3,0-.18-.19-.35-.37-.28h0Z"/><path class="af" d="M15.14,40.2v-.02c-.07-.1-.2-.15-.32-.12-.12,.03-.19,.14-.2,.26v.03c-.02,.18,.18,.31,.35,.27,.17-.05,.25-.25,.16-.41h0Z"/><path class="af" d="M22.92,40.93c-.08,.07-.16,.12-.23,.19-.07,.07-.17,.14-.16,.25,0,.05,.04,.1,.1,.1,.21-.01,.3-.31,.4-.45,.05-.07-.05-.13-.11-.08h0Z"/><path class="af" d="M23.3,41.12s-.07,.03-.11,.05c-.03,.02-.06,.05-.09,.08-.06,.06-.13,.15-.15,.23-.04,.14,.12,.25,.24,.18,.08-.04,.15-.14,.16-.23,0-.04,.02-.08,.02-.12,0-.03,0-.08,0-.11,.02-.05-.03-.13-.09-.09h0Z"/><path class="af" d="M22.77,40.6c-.1,0-.17,0-.27,.05-.09,.05-.19,.11-.23,.21-.05,.11,.04,.28,.17,.22,.09-.04,.16-.09,.23-.16,.03-.04,.06-.07,.09-.1,.03-.04,.04-.08,.07-.12,.02-.04,0-.09-.05-.09h0Z"/><path class="af" d="M19.71,40.98s-.06,.08-.08,.15c-.01,.07,0,.16,.02,.23,.05,.14,.28,.17,.31,0,.03-.16-.03-.31-.17-.39-.03-.02-.07-.01-.09,.01h0Z"/><path class="af" d="M19.17,41.17c-.06,.06-.06,.15-.04,.23,.02,.08,0,.17,.03,.24,.01,.03,.05,.05,.08,.05,.24-.02,.21-.45,.03-.54-.03-.02-.07-.02-.1,.01h0Z"/><path class="af" d="M18.85,41.1c-.06,.03-.11,.09-.15,.14-.05,.06-.11,.12-.13,.2-.03,.08,.06,.19,.15,.15,.15-.06,.31-.31,.22-.47-.02-.03-.05-.04-.08-.02h0Z"/><path class="af" d="M15.39,40.84c-.03,.15,.02,.35,.16,.44,.08,.05,.2,0,.21-.09,.04-.19-.11-.35-.28-.4-.04,0-.08,.01-.09,.05h0Z"/><path class="af" d="M15.67,40.6c.06,.06,.11,.1,.18,.14,.1,.06,.17,.09,.28,.04,.08-.04,.08-.15,.03-.21-.1-.12-.32-.07-.46-.05-.04,0-.06,.05-.03,.08h0Z"/><path class="af" d="M14.95,41.08c0,.07-.02,.15-.03,.22-.03,.2,.28,.21,.26,.04-.01-.11-.03-.2-.09-.29-.04-.05-.13-.04-.13,.04h0Z"/><path class="af" d="M22.65,37.64c-.19,0-.19,.3,0,.3s.19-.3,0-.3h0Z"/><path class="af" d="M24.93,35.5c-.23,0-.23,.36,0,.36s.23-.36,0-.36h0Z"/><path class="af" d="M28.35,36.15c-.26,0-.26,.41,0,.41s.27-.41,0-.41h0Z"/><path class="af" d="M28.89,38.76c-.27,0-.27,.41,0,.41s.27-.41,0-.41h0Z"/><path class="af" d="M23.25,35.25v-.02c.08-.16-.06-.3-.22-.23h-.02c-.11,.05-.11,.21-.04,.28,.07,.07,.23,.07,.28-.04h0Z"/><path class="af" d="M20.24,35.58c-.29,0-.29,.45,0,.45s.29-.45,0-.45h0Z"/><path class="af" d="M30.56,35.17s-.01,0-.02,0c.04,0,.08,0,.11,.01h-.01c-.13-.07-.26,.06-.2,.19,.02,.03,.04,.06,.08,.07,.09,.04,.2,.01,.23-.09,.03-.12-.08-.21-.19-.19h0Z"/><path class="af" d="M28.77,33.98s-.01,0-.02,0c.04,0,.08,.01,.11,.02h-.01c-.13-.07-.26,.06-.2,.19,.02,.03,.04,.06,.08,.07,.09,.04,.2,.01,.22-.09,.03-.12-.08-.21-.19-.19h0Z"/><path class="af" d="M31.55,37.29h-.02s.08,.01,.11,.02h-.01c-.13-.07-.26,.06-.2,.19,.02,.04,.04,.06,.08,.07,.09,.04,.2,.01,.23-.09,.03-.12-.08-.21-.19-.19h0Z"/><path class="af" d="M33.5,35.18s-.01,0-.02,0c.04,0,.08,0,.11,.01h-.01c-.13-.07-.26,.06-.2,.19,.02,.04,.04,.06,.08,.07,.09,.04,.2,.01,.23-.09,.03-.12-.08-.21-.19-.19h0Z"/><path class="af" d="M26.26,33.96c-.2,0-.2,.3,0,.3s.19-.3,0-.3h0Z"/><path class="af" d="M26.11,37.18c-.2,0-.2,.3,0,.3s.19-.3,0-.3h0Z"/><path class="af" d="M16.28,37.84c-.19,0-.19,.29,0,.29s.19-.29,0-.29h0Z"/><path class="af" d="M11.94,39.88c-.19,0-.19,.29,0,.29s.19-.29,0-.29h0Z"/><path class="ad" d="M30.72,33.44c-.28,0-.51,.23-.51,.51s.23,.51,.51,.51,.51-.23,.51-.51-.23-.51-.51-.51h0Z"/><path class="ad" d="M31.15,32.75v-.02c-.08-.15-.28-.21-.43-.17-.2,.05-.3,.26-.26,.46v.02c.05,.2,.28,.31,.47,.26,.25-.07,.32-.33,.22-.55h0Z"/><path class="ad" d="M26,31.07v-.03c-.07-.11-.22-.15-.32-.08-.04,.02-.06,.04-.08,.08-.07,.1-.02,.25,.08,.31l.03,.02c.19,.1,.4-.11,.3-.3h0Z"/><path class="ad" d="M20.81,30.06v-.03c-.07-.11-.22-.15-.33-.08-.04,.02-.06,.04-.08,.08-.07,.1-.02,.25,.08,.31l.03,.02c.19,.1,.4-.1,.3-.3h0Z"/><path class="ad" d="M20.87,31.06h-.01c-.38-.24-.88,.06-.88,.49,0,.21,.11,.4,.29,.5,.24,.14,.5,.08,.71-.09h.01c.11-.1,.17-.28,.17-.41,0-.2-.11-.39-.28-.49h0Z"/><path class="af" d="M27.84,24.14c-.05,.07-.08,.15-.11,.23-.11,.3,.07,.65,.33,.81,.27,.16,.65,.12,.87-.11,0-.01,.02-.02,.04-.03-.05,.04-.1,.08-.15,.11h.02c.41-.24,.48-.83,.15-1.16-.14-.14-.32-.21-.52-.21-.13,0-.25,.03-.37,.1-.11,.06-.2,.15-.26,.26h0Z"/><path class="af" d="M13.4,38.62c.05-.07,.08-.15,.11-.24,.11-.3-.07-.65-.33-.8-.27-.16-.65-.12-.87,.11-.01,.01-.02,.02-.04,.03,.05-.04,.1-.07,.15-.11h-.02c-.41,.24-.47,.83-.15,1.16,.14,.13,.32,.21,.52,.21,.13,0,.25-.03,.37-.1,.11-.06,.2-.15,.26-.26h0Z"/><path class="af" d="M6.39,34.26c-.27,0-.27,.41,0,.41s.27-.41,0-.41h0Z"/><path class="af" d="M7.36,33.43c-.27,0-.27,.41,0,.41s.26-.41,0-.41h0Z"/><path class="af" d="M28.89,22.26c-.27,0-.27,.41,0,.41s.27-.41,0-.41h0Z"/><path class="af" d="M20.1,34.17c1.33,0,2.43-1.11,2.43-2.43s-1.11-2.44-2.43-2.44-2.43,1.11-2.43,2.44,1.11,2.43,2.43,2.43h0Z"/><path class="af" d="M15.87,34.53c.46,0,.85-.39,.85-.85s-.39-.86-.85-.86-.85,.39-.85,.86,.39,.85,.85,.85h0Z"/><path class="af" d="M13.06,35.27c.69,0,.69-1.07,0-1.07s-.69,1.07,0,1.07h0Z"/><path class="af" d="M24.46,30.95c1.18,0,1.18-1.83,0-1.83s-1.18,1.83,0,1.83h0Z"/><path class="af" d="M26.96,29.04c.4,0,.4-.62,0-.62s-.4,.62,0,.62h0Z"/><path class="m" d="M20.06,32.55c1.05,0,1.05-1.63,0-1.63s-1.05,1.63,0,1.63h0Z"/><path class="m" d="M20.16,30.73c.52,0,.52-.8,0-.8s-.52,.8,0,.8h0Z"/><path class="m" d="M18.96,31.01c.49,0,.49-.76,0-.76s-.49,.76,0,.76h0Z"/><path class="m" d="M18.56,32.23c.52,0,.52-.8,0-.8s-.52,.8,0,.8h0Z"/><path class="m" d="M19.36,33.36c.42,0,.42-.65,0-.65s-.42,.65,0,.65h0Z"/><path class="m" d="M20.89,32.9s-.03-.03-.05-.05c-.1-.1-.26-.1-.36,0-.02,.02-.03,.03-.05,.05-.2,.2-.06,.55,.23,.55s.43-.35,.23-.55h0Z"/><path class="m" d="M21.46,32.51c.49,0,.49-.76,0-.76s-.49,.76,0,.76h0Z"/><path class="m" d="M21.36,31.26c.54,0,.54-.84,0-.84s-.54,.84,0,.84h0Z"/><path class="m" d="M10.35,36.09c.2,.43,.89,.13,.76-.32-.16-.57-1.02-.24-.76,.32h0Z"/><path class="m" d="M9.16,37.1c.73,0,.73-1.12,0-1.12s-.73,1.12,0,1.12h0Z"/><path class="m" d="M7.56,37.6c.47,0,.47-.73,0-.73s-.47,.73,0,.73h0Z"/><path class="m" d="M29.31,27.43s-.03,.05-.05,.07c.3-.38-.15-.83-.53-.53-.11,.09-.16,.21-.14,.36,.05,.4,.58,.51,.72,.1h0Z"/><path class="m" d="M30.66,27.07c.7,0,.7-1.08,0-1.08s-.7,1.08,0,1.08h0Z"/><path class="m" d="M32.26,26.1c.6,0,.6-.93,0-.93s-.6,.93,0,.93h0Z"/></g><g><path class="aa" d="M35.44,50.65c0-.1,.04-.25,.04-.35s0-.21-.01-.31c-.04-.35-.17-.69-.43-.93,.24-.01,.84-.01,1.08,0-.27,.24-.39,.57-.43,.93-.01,.11-.01,.21-.01,.31s.04,.25,.04,.35h-.28Z"/><path class="aa" d="M35.53,50.26c-.21-.33-.59-.55-.98-.54-.39,.01-.77,.3-.84,.68-.07,.34,.1,.68,.33,.93,.23,.25,.55,.42,.84,.61,.29,.19,.7,.67,.7,.67,0,0,.45-.47,.7-.66,.27-.21,.61-.37,.84-.62,.23-.25,.4-.6,.33-.93-.08-.38-.45-.67-.84-.68-.39-.01-.76,.21-.98,.54h-.1Z"/></g><g><path class="aa" d="M5.36,11.36c0,.1-.04,.25-.04,.35s0,.21,.01,.31c.04,.36,.17,.69,.43,.93-.24,.01-.84,.01-1.08,0,.26-.24,.39-.57,.43-.93,.01-.1,.01-.21,.01-.31,0-.1-.04-.25-.04-.35h.28Z"/><path class="aa" d="M5.27,11.75c.21,.33,.59,.55,.98,.54,.39-.01,.77-.3,.84-.68,.07-.33-.1-.68-.33-.93s-.55-.42-.84-.61c-.29-.19-.7-.67-.7-.67,0,0-.45,.47-.7,.66-.27,.21-.61,.37-.84,.62-.23,.25-.4,.6-.33,.93,.08,.38,.45,.67,.84,.68,.39,.01,.76-.21,.98-.54h.1Z"/></g><path class="aa" d="M6.47,3v3.99c0,.7-.16,1.18-.47,1.46-.31,.28-.73,.41-1.25,.41-.28,0-.56-.04-.84-.12v-.59c.28,.06,.53,.09,.75,.09,.32,0,.56-.05,.71-.14,.15-.1,.25-.22,.31-.37,.05-.15,.08-.4,.08-.74V3h.72Z"/><path class="aa" d="M34.46,59.29v-4c0-.7,.16-1.18,.47-1.46,.31-.28,.73-.41,1.25-.41,.28,0,.56,.04,.84,.12v.59c-.28-.06-.52-.09-.75-.09-.32,0-.56,.05-.71,.14-.15,.09-.25,.22-.3,.37-.05,.15-.08,.4-.08,.74v4h-.72Z"/><g><path class="m" d="M13.2,59.11H6.19c-1.66,0-3-1.43-3-3.19V15.66c0-.05,.04-.09,.09-.09s.09,.04,.09,.09V55.92c0,1.66,1.26,3,2.82,3h7c.05,0,.09,.04,.09,.09s-.04,.09-.09,.09Z"/><path class="m" d="M32.78,59.11h-7.13c-.05,0-.09-.04-.09-.09s.04-.09,.09-.09h7.13c.05,0,.09,.04,.09,.09s-.04,.09-.09,.09Z"/><path class="m" d="M37.65,46.92c-.05,0-.09-.04-.09-.09V6.36c0-1.66-1.26-3-2.82-3h-6.67c-.05,0-.09-.04-.09-.09s.04-.09,.09-.09h6.67c1.66,0,3,1.43,3,3.19V46.82c0,.05-.04,.09-.09,.09Z"/><path class="m" d="M17.41,3.36H8.45c-.05,0-.09-.04-.09-.09s.04-.09,.09-.09h8.97c.05,0,.09,.04,.09,.09s-.04,.09-.09,.09Z"/></g></g></g></g></svg>