<?xml version="1.0" encoding="UTF-8"?><svg xmlns="http://www.w3.org/2000/svg" viewBox="0 0 40.93 62.29"><defs><style>.d{fill:#fff;}.e{fill:#2d2d2d;}.f{fill:#0c0a35;}</style></defs><g id="a"/><g id="b"><g id="c"><g><g><rect class="d" x=".09" y=".09" width="40.74" height="62.1" rx="3.45" ry="3.45"/><path class="e" d="M37.39,62.29H3.54c-1.95,0-3.54-1.59-3.54-3.54V3.54C0,1.59,1.59,0,3.54,0H37.39c1.95,0,3.54,1.59,3.54,3.54V58.74c0,1.95-1.59,3.54-3.54,3.54ZM3.54,.19C1.69,.19,.19,1.69,.19,3.54V58.74c0,1.85,1.5,3.36,3.36,3.36H37.39c1.85,0,3.36-1.51,3.36-3.36V3.54c0-1.85-1.51-3.36-3.36-3.36H3.54Z"/></g><g><path class="f" d="M35.44,50.65c0-.1,.04-.25,.04-.35s0-.21-.01-.31c-.04-.35-.17-.69-.43-.93,.24-.01,.84-.01,1.08,0-.27,.24-.39,.57-.43,.93-.01,.11-.01,.21-.01,.31,0,.1,.04,.25,.04,.35h-.28Z"/><path class="f" d="M35.53,50.26c-.21-.33-.59-.55-.98-.54-.39,.01-.77,.3-.84,.68-.07,.34,.1,.68,.33,.93,.23,.25,.55,.42,.84,.61,.29,.19,.7,.67,.7,.67,0,0,.45-.47,.7-.66,.27-.21,.61-.37,.84-.62,.23-.25,.4-.6,.33-.93-.08-.38-.45-.67-.84-.68-.39-.01-.76,.21-.98,.54h-.1Z"/></g><g><path class="f" d="M5.36,11.36c0,.1-.04,.25-.04,.35s0,.21,.01,.31c.04,.36,.17,.69,.43,.93-.24,.01-.84,.01-1.08,0,.27-.24,.39-.57,.43-.93,.01-.1,.01-.21,.01-.31s-.04-.25-.04-.35h.28Z"/><path class="f" d="M5.27,11.75c.21,.33,.59,.55,.98,.54,.39-.01,.77-.3,.84-.68,.07-.34-.1-.68-.33-.93-.23-.25-.55-.42-.84-.61-.29-.19-.7-.67-.7-.67,0,0-.45,.47-.7,.66-.27,.21-.61,.37-.84,.62-.23,.25-.4,.6-.33,.93,.08,.38,.45,.67,.84,.68,.39,.01,.76-.21,.98-.54h.1Z"/></g><g><path class="f" d="M4.45,8.21v.54H2.29v-.54h.79V3.77c-.51,.53-1.04,.94-1.58,1.24v-.72c.75-.4,1.34-.87,1.76-1.41h.52v5.33h.68Z"/><path class="f" d="M6.94,8.86c-.66,0-1.19-.29-1.59-.86s-.59-1.29-.59-2.14,.19-1.54,.56-2.12c.38-.58,.91-.87,1.6-.87s1.26,.3,1.64,.9c.37,.6,.56,1.31,.56,2.12s-.19,1.49-.57,2.08c-.38,.59-.92,.89-1.6,.89Zm0-.57c.49,0,.84-.22,1.08-.66,.23-.44,.35-.99,.35-1.66,0-.73-.12-1.33-.36-1.81-.24-.48-.61-.72-1.1-.72s-.84,.22-1.07,.66c-.23,.44-.35,1.02-.35,1.74s.12,1.34,.37,1.79c.25,.44,.61,.67,1.09,.67Z"/></g><g><path class="f" d="M36.48,54.08v-.54h2.16v.54h-.79v4.44c.51-.53,1.04-.95,1.58-1.24v.72c-.76,.39-1.34,.87-1.76,1.41h-.52v-5.33h-.68Z"/><path class="f" d="M33.99,53.42c.66,0,1.19,.29,1.59,.86,.4,.57,.59,1.29,.59,2.14s-.19,1.54-.56,2.12c-.38,.57-.91,.86-1.6,.86s-1.26-.3-1.64-.9c-.37-.6-.56-1.31-.56-2.12s.19-1.48,.57-2.08c.38-.59,.92-.89,1.6-.89Zm0,.57c-.49,0-.84,.22-1.08,.66-.23,.44-.35,.99-.35,1.66,0,.73,.12,1.33,.36,1.81,.24,.48,.61,.72,1.1,.72s.84-.22,1.07-.66c.23-.44,.35-1.02,.35-1.74s-.12-1.34-.37-1.79c-.25-.45-.61-.67-1.09-.67Z"/></g><g><g><path class="f" d="M14.6,8.19c0,.26-.1,.62-.1,.88,0,.26,0,.52,.03,.78,.1,.88,.42,1.73,1.08,2.32-.6,.04-2.11,.04-2.71,0,.67-.59,.98-1.44,1.08-2.32,.03-.26,.03-.52,.03-.78,0-.26-.1-.62-.1-.88h.7Z"/><path class="f" d="M14.38,9.16c.53,.82,1.47,1.39,2.45,1.36,.98-.03,1.92-.74,2.11-1.7,.17-.84-.24-1.71-.83-2.34-.58-.63-1.39-1.04-2.1-1.52-.73-.48-1.76-1.68-1.76-1.68,0,0-1.12,1.17-1.75,1.65-.68,.52-1.53,.92-2.11,1.54-.58,.63-.99,1.49-.83,2.34,.19,.96,1.14,1.67,2.11,1.7,.98,.03,1.92-.54,2.45-1.36h.25Z"/></g><g><path class="f" d="M27.03,8.19c0,.26-.1,.62-.1,.88,0,.26,0,.52,.03,.78,.1,.88,.42,1.73,1.08,2.32-.6,.04-2.11,.04-2.71,0,.66-.59,.98-1.44,1.08-2.32,.03-.26,.03-.52,.03-.78,0-.26-.1-.62-.1-.88h.7Z"/><path class="f" d="M26.81,9.16c.53,.82,1.47,1.39,2.45,1.36,.98-.03,1.92-.74,2.11-1.7,.17-.84-.24-1.71-.83-2.34-.58-.63-1.39-1.04-2.1-1.52-.73-.48-1.76-1.68-1.76-1.68,0,0-1.12,1.17-1.75,1.65-.68,.52-1.52,.92-2.11,1.54-.58,.63-.99,1.49-.83,2.34,.19,.96,1.14,1.67,2.11,1.7,.97,.03,1.91-.54,2.45-1.36h.25Z"/></g></g><g><g><path class="f" d="M14.59,25.7c0,.26-.12,.62-.12,.88,0,.26-.01,.52,0,.78,.08,.89,.37,1.74,1.02,2.35-.6,.02-2.11-.02-2.71-.07,.68-.58,1.02-1.41,1.14-2.3,.03-.26,.04-.52,.05-.78,0-.26-.09-.63-.08-.89l.7,.02Z"/><path class="f" d="M14.34,26.67c.51,.83,1.44,1.43,2.41,1.42,.98,0,1.94-.7,2.15-1.65,.19-.84-.2-1.71-.77-2.36-.57-.64-1.36-1.08-2.07-1.57-.72-.5-1.71-1.72-1.71-1.72,0,0-1.15,1.14-1.79,1.61-.69,.5-1.55,.88-2.15,1.49-.6,.61-1.03,1.47-.88,2.31,.17,.96,1.1,1.7,2.07,1.75,.97,.06,1.93-.49,2.48-1.3h.25Z"/></g><g><path class="f" d="M27.02,26.01c0,.26-.12,.62-.12,.88,0,.26-.01,.52,0,.78,.08,.89,.37,1.74,1.02,2.35-.6,.02-2.11-.02-2.71-.07,.68-.58,1.02-1.41,1.14-2.3,.04-.26,.04-.52,.05-.78,0-.26-.09-.63-.08-.89l.7,.02Z"/><path class="f" d="M26.77,26.98c.51,.83,1.44,1.43,2.41,1.42,.98,0,1.94-.7,2.15-1.65,.19-.84-.2-1.71-.77-2.36-.57-.64-1.36-1.08-2.06-1.57-.72-.5-1.72-1.72-1.72-1.72,0,0-1.15,1.14-1.79,1.61-.69,.51-1.55,.88-2.15,1.49-.6,.61-1.03,1.47-.89,2.31,.17,.96,1.1,1.7,2.07,1.75,.97,.06,1.93-.49,2.48-1.3h.25Z"/></g></g><g><path class="f" d="M20.82,17.1c0,.26-.1,.62-.1,.88,0,.26,0,.52,.03,.78,.1,.89,.41,1.73,1.08,2.32-.6,.04-2.11,.04-2.71,0,.66-.59,.98-1.44,1.08-2.32,.03-.26,.03-.52,.03-.78,0-.26-.1-.62-.1-.88h.7Z"/><path class="f" d="M20.59,18.08c.53,.82,1.47,1.39,2.45,1.36,.98-.03,1.92-.74,2.11-1.7,.17-.84-.24-1.71-.83-2.34-.58-.63-1.39-1.04-2.1-1.52-.73-.48-1.76-1.68-1.76-1.68,0,0-1.12,1.17-1.75,1.65-.68,.52-1.53,.92-2.11,1.54-.58,.63-.99,1.49-.83,2.34,.19,.96,1.14,1.67,2.11,1.7,.97,.03,1.92-.54,2.45-1.36h.25Z"/></g><g><g><path class="f" d="M26.33,54.1c0-.26,.1-.63,.1-.88,0-.26,0-.52-.03-.78-.1-.89-.41-1.73-1.08-2.32,.6-.04,2.11-.04,2.71,0-.66,.59-.98,1.44-1.08,2.32-.03,.26-.03,.52-.03,.78,0,.26,.1,.63,.1,.88h-.7Z"/><path class="f" d="M26.55,53.12c-.53-.82-1.47-1.39-2.45-1.36-.98,.03-1.92,.74-2.11,1.7-.17,.84,.24,1.71,.83,2.34,.58,.63,1.39,1.04,2.1,1.52,.73,.48,1.76,1.68,1.76,1.68,0,0,1.12-1.17,1.75-1.65,.68-.52,1.53-.92,2.11-1.54,.58-.63,.99-1.49,.83-2.34-.19-.96-1.14-1.67-2.11-1.7-.98-.03-1.91,.54-2.45,1.36h-.25Z"/></g><g><path class="f" d="M13.9,54.1c0-.26,.1-.63,.1-.88,0-.26,0-.52-.03-.78-.1-.89-.41-1.73-1.08-2.32,.6-.04,2.11-.04,2.71,0-.66,.59-.98,1.44-1.08,2.32-.03,.26-.03,.52-.03,.78,0,.26,.1,.63,.1,.88h-.7Z"/><path class="f" d="M14.12,53.12c-.53-.82-1.47-1.39-2.45-1.36-.97,.03-1.92,.74-2.11,1.7-.17,.84,.24,1.71,.83,2.34,.58,.63,1.39,1.04,2.1,1.52,.73,.48,1.76,1.68,1.76,1.68,0,0,1.12-1.17,1.75-1.65,.68-.52,1.53-.92,2.11-1.54,.58-.63,.99-1.49,.83-2.34-.19-.96-1.14-1.67-2.11-1.7-.98-.03-1.92,.54-2.45,1.36h-.25Z"/></g></g><g><g><path class="f" d="M26.34,36.59c0-.26,.12-.62,.12-.88,0-.26,.01-.52-.01-.78-.07-.89-.37-1.74-1.02-2.35,.6-.02,2.11,.02,2.71,.07-.68,.58-1.02,1.41-1.14,2.3-.04,.26-.04,.52-.05,.78,0,.26,.09,.63,.08,.89l-.7-.02Z"/><path class="f" d="M26.59,35.62c-.51-.83-1.44-1.43-2.41-1.42-.98,0-1.94,.69-2.15,1.65-.19,.84,.2,1.71,.77,2.36,.57,.64,1.36,1.08,2.07,1.57,.72,.5,1.72,1.72,1.72,1.72,0,0,1.15-1.14,1.79-1.61,.69-.51,1.55-.88,2.15-1.49,.6-.61,1.03-1.47,.88-2.31-.17-.96-1.1-1.7-2.07-1.75-.97-.06-1.93,.49-2.48,1.3h-.25Z"/></g><g><path class="f" d="M13.91,36.28c0-.26,.12-.62,.12-.88,0-.26,.01-.52,0-.78-.08-.89-.37-1.74-1.02-2.35,.6-.02,2.11,.02,2.71,.07-.68,.58-1.02,1.41-1.14,2.3-.03,.26-.04,.52-.05,.78,0,.26,.09,.63,.08,.88l-.7-.02Z"/><path class="f" d="M14.16,35.31c-.51-.83-1.44-1.43-2.41-1.42-.98,0-1.94,.7-2.16,1.65-.19,.84,.2,1.71,.77,2.36,.57,.64,1.36,1.08,2.07,1.57,.72,.5,1.72,1.72,1.72,1.72,0,0,1.15-1.14,1.79-1.61,.69-.51,1.55-.88,2.15-1.49,.6-.61,1.03-1.47,.89-2.31-.17-.96-1.1-1.7-2.07-1.75-.97-.06-1.93,.49-2.48,1.3h-.25Z"/></g></g><g><path class="f" d="M20.12,45.19c0-.26,.1-.63,.1-.88,0-.26,0-.52-.03-.78-.1-.89-.42-1.73-1.08-2.32,.6-.04,2.11-.04,2.71,0-.67,.59-.98,1.44-1.08,2.32-.03,.26-.03,.52-.03,.78,0,.26,.1,.63,.1,.88h-.7Z"/><path class="f" d="M20.34,44.21c-.53-.82-1.47-1.39-2.45-1.36s-1.92,.74-2.11,1.7c-.17,.84,.24,1.71,.83,2.34,.58,.63,1.39,1.04,2.1,1.52,.73,.48,1.76,1.68,1.76,1.68,0,0,1.12-1.17,1.75-1.65,.68-.52,1.53-.92,2.11-1.54,.58-.63,.99-1.49,.83-2.34-.19-.96-1.14-1.67-2.11-1.7s-1.92,.54-2.45,1.36h-.25Z"/></g></g></g></g></svg>